<?xml version="1.0" encoding="utf-8"?>
<!-- Generator: Adobe Illustrator 24.3.0, SVG Export Plug-In . SVG Version: 6.00 game 0)  -->
<svg version="1.1" id="Layer_1" xmlns="http://www.w3.org/2000/svg" xmlns:xlink="http://www.w3.org/1999/xlink" x="0px" y="0px"
	 viewBox="0 0 501.28 531.89" style="enable-background:new 0 0 501.28 531.89;" xml:space="preserve">
<style type="text/css">
	.st0{fill:#4179BA;}
	.st1{fill:url(#SVGID_1_);}
	.st2{fill:url(#SVGID_2_);}
	.st3{fill:url(#SVGID_3_);}
	.st4{fill:url(#SVGID_4_);}
	.st5{fill:#FFFFFF;}
	.st6{opacity:0.56;}
	.st7{fill:url(#XMLID_2_);}
	.st8{fill:url(#XMLID_3_);}
	.st9{fill:url(#XMLID_4_);}
	.st10{fill:url(#XMLID_5_);}
	.st11{fill:url(#XMLID_6_);}
	.st12{fill:url(#XMLID_7_);}
	.st13{fill:url(#XMLID_8_);}
	.st14{fill:url(#XMLID_9_);}
	.st15{fill:url(#XMLID_10_);}
	.st16{fill:url(#XMLID_11_);}
	.st17{fill:url(#XMLID_12_);}
	.st18{fill:url(#XMLID_13_);}
	.st19{fill:url(#XMLID_14_);}
	.st20{fill:url(#XMLID_15_);}
	.st21{fill:url(#XMLID_16_);}
	.st22{fill:url(#XMLID_17_);}
	.st23{fill:url(#XMLID_18_);}
	.st24{fill:url(#XMLID_19_);}
	.st25{fill:url(#XMLID_20_);}
	.st26{fill:url(#XMLID_21_);}
	.st27{fill:url(#XMLID_22_);}
	.st28{fill:url(#XMLID_23_);}
	.st29{fill:url(#XMLID_24_);}
	.st30{fill:url(#XMLID_25_);}
</style>
<g id="XMLID_4247_">
	<g id="XMLID_4335_">
		<g id="XMLID_4340_">
			<polygon id="XMLID_4341_" class="st0" points="329.2,84.31 329.2,26.07 330.45,26.07 330.45,83.8 337.18,90.52 337.18,111.27 
				359.25,133.35 359.25,239.95 386.43,267.12 385.55,268 358.01,240.46 358.01,133.87 335.93,111.79 335.93,91.03 			"/>
		</g>
		<g id="XMLID_4338_">
			<path id="XMLID_4339_" class="st0" d="M387.56,265.82c0.92,0.91,0.92,2.4,0,3.31c-0.92,0.92-2.4,0.92-3.31,0
				c-0.92-0.92-0.92-2.4,0-3.31C385.16,264.91,386.65,264.91,387.56,265.82z"/>
		</g>
		<g id="XMLID_4336_">
			<path id="XMLID_4337_" class="st0" d="M332.17,26.18c0-1.29-1.05-2.34-2.34-2.34c-1.29,0-2.34,1.05-2.34,2.34
				c0,1.3,1.05,2.35,2.34,2.35C331.12,28.53,332.17,27.48,332.17,26.18z"/>
		</g>
	</g>
	<g id="XMLID_4330_">
		<g id="XMLID_4333_">
			<polygon id="XMLID_4334_" class="st0" points="302.17,161.28 302.17,99.1 303.42,99.1 303.42,160.77 331.34,188.68 
				331.34,294.76 371.69,335.12 371.69,486.69 370.44,486.69 370.44,335.63 330.09,295.28 330.09,189.2 			"/>
		</g>
		<g id="XMLID_4331_">
			<path id="XMLID_4332_" class="st0" d="M368.72,486.57c0,1.3,1.05,2.35,2.34,2.35c1.3,0,2.35-1.05,2.35-2.35
				c0-1.29-1.05-2.34-2.35-2.34C369.77,484.23,368.72,485.28,368.72,486.57z"/>
		</g>
	</g>
	<g id="XMLID_4325_">
		<g id="XMLID_4328_">
			<polygon id="XMLID_4329_" class="st0" points="357.95,165.79 358.83,164.91 388.95,195.02 388.95,247.56 407.09,265.7 
				407.09,415.12 405.85,415.12 405.85,266.22 387.7,248.08 387.7,195.54 			"/>
		</g>
		<g id="XMLID_4326_">
			<path id="XMLID_4327_" class="st0" d="M404.13,415c0,1.29,1.05,2.34,2.34,2.34c1.3,0,2.34-1.05,2.34-2.34
				c0-1.3-1.05-2.34-2.34-2.34C405.18,412.66,404.13,413.71,404.13,415z"/>
		</g>
	</g>
	<g id="XMLID_4320_">
		<g id="XMLID_4323_">
			<polygon id="XMLID_4324_" class="st0" points="358.25,197.57 359.14,196.68 371.69,209.24 371.69,229.35 370.44,229.35 
				370.44,209.75 			"/>
		</g>
		<g id="XMLID_4321_">
			<path id="XMLID_4322_" class="st0" d="M368.72,229.23c0,1.29,1.05,2.34,2.34,2.34c1.3,0,2.35-1.05,2.35-2.34
				c0-1.3-1.05-2.34-2.35-2.34C369.77,226.89,368.72,227.94,368.72,229.23z"/>
		</g>
	</g>
	<g id="XMLID_4315_">
		<g id="XMLID_4318_">
			<polygon id="XMLID_4319_" class="st0" points="348.87,313.9 348.87,284.1 361.44,271.54 362.32,272.42 350.12,284.62 
				350.12,313.9 			"/>
		</g>
		<g id="XMLID_4316_">
			<path id="XMLID_4317_" class="st0" d="M363.45,273.72c0.92-0.91,0.92-2.4,0-3.31c-0.92-0.92-2.4-0.92-3.32,0
				c-0.92,0.91-0.92,2.4,0,3.31C361.05,274.63,362.54,274.63,363.45,273.72z"/>
		</g>
	</g>
	<g id="XMLID_4310_">
		<g id="XMLID_4313_">
			<polygon id="XMLID_4314_" class="st0" points="318.42,310.5 318.42,248.57 330.07,236.92 330.95,237.8 319.66,249.09 
				319.66,309.99 358.24,348.57 358.24,404.97 356.99,404.97 356.99,349.08 			"/>
		</g>
		<g id="XMLID_4311_">
			<path id="XMLID_4312_" class="st0" d="M355.27,404.85c0,1.29,1.05,2.34,2.34,2.34c1.3,0,2.35-1.05,2.35-2.34
				c0-1.3-1.05-2.34-2.35-2.34C356.32,402.51,355.27,403.56,355.27,404.85z"/>
		</g>
	</g>
	<g id="XMLID_4305_">
		<g id="XMLID_4308_">
			<polygon id="XMLID_4309_" class="st0" points="389.48,380.6 389.48,300.85 405.9,284.43 406.78,285.31 390.72,301.37 
				390.72,380.6 			"/>
		</g>
		<g id="XMLID_4306_">
			<path id="XMLID_4307_" class="st0" d="M387.76,380.49c0,1.29,1.05,2.34,2.34,2.34c1.3,0,2.34-1.05,2.34-2.34
				c0-1.3-1.05-2.35-2.34-2.35C388.81,378.14,387.76,379.19,387.76,380.49z"/>
		</g>
	</g>
	<g id="XMLID_4300_">
		<g id="XMLID_4303_">
			<polygon id="XMLID_4304_" class="st0" points="370.88,388.86 371.76,387.97 383.11,399.33 383.11,460.8 381.86,460.8 
				381.86,399.84 			"/>
		</g>
		<g id="XMLID_4301_">
			<path id="XMLID_4302_" class="st0" d="M380.14,460.68c0,1.3,1.05,2.34,2.34,2.34c1.29,0,2.34-1.05,2.34-2.34
				c0-1.3-1.05-2.34-2.34-2.34C381.19,458.34,380.14,459.39,380.14,460.68z"/>
		</g>
	</g>
	<g id="XMLID_4295_">
		<g id="XMLID_4298_">
			<polygon id="XMLID_4299_" class="st0" points="329.19,480.17 343.04,466.32 343.04,376.74 357.17,362.6 358.06,363.48 
				344.28,377.26 344.28,466.84 330.07,481.06 			"/>
		</g>
		<g id="XMLID_4296_">
			<path id="XMLID_4297_" class="st0" d="M328.05,478.87c-0.92,0.92-0.92,2.4,0,3.32c0.92,0.91,2.4,0.91,3.31,0
				c0.92-0.92,0.92-2.4,0-3.32C330.45,477.96,328.97,477.96,328.05,478.87z"/>
		</g>
	</g>
	<g id="XMLID_4288_">
		<g id="XMLID_4293_">
			<polygon id="XMLID_4294_" class="st0" points="335.93,59 335.93,34.39 348.81,21.51 349.69,22.4 337.17,34.91 337.17,58.49 
				385.14,106.45 385.14,141.48 422.45,178.79 422.45,228.33 421.2,228.33 421.2,179.3 383.89,141.99 383.89,106.97 			"/>
		</g>
		<g id="XMLID_4291_">
			<path id="XMLID_4292_" class="st0" d="M424.17,228.22c0,1.29-1.05,2.35-2.34,2.35c-1.3,0-2.35-1.06-2.35-2.35
				c0-1.29,1.05-2.34,2.35-2.34C423.12,225.87,424.17,226.92,424.17,228.22z"/>
		</g>
		<g id="XMLID_4289_">
			<path id="XMLID_4290_" class="st0" d="M350.82,23.7c0.92-0.92,0.92-2.4,0-3.31c-0.91-0.92-2.4-0.92-3.31,0
				c-0.92,0.91-0.92,2.4,0,3.31C348.42,24.61,349.91,24.61,350.82,23.7z"/>
		</g>
	</g>
	<g id="XMLID_4283_">
		<g id="XMLID_4286_">
			<polygon id="XMLID_4287_" class="st0" points="348.62,95.3 348.62,71.44 349.87,71.44 349.87,94.78 370.93,115.84 370.93,136.97 
				369.68,136.97 369.68,116.36 			"/>
		</g>
		<g id="XMLID_4284_">
			<path id="XMLID_4285_" class="st0" d="M367.96,136.85c0,1.29,1.05,2.34,2.34,2.34c1.3,0,2.34-1.05,2.34-2.34
				c0-1.3-1.05-2.35-2.34-2.35C369.01,134.51,367.96,135.55,367.96,136.85z"/>
		</g>
	</g>
	<g id="XMLID_4278_">
		<g id="XMLID_4281_">
			<polygon id="XMLID_4282_" class="st0" points="398.61,209.75 398.61,156.45 399.86,156.45 399.86,209.24 410.9,220.28 
				410.9,250.61 416.06,255.76 415.18,256.65 409.65,251.12 409.65,220.79 			"/>
		</g>
		<g id="XMLID_4279_">
			<path id="XMLID_4280_" class="st0" d="M413.88,257.78c0.91,0.92,2.4,0.92,3.32,0c0.91-0.92,0.91-2.4,0-3.31
				c-0.92-0.92-2.4-0.92-3.32,0C412.96,255.38,412.96,256.86,413.88,257.78z"/>
		</g>
	</g>
	<g id="XMLID_4273_">
		<g id="XMLID_4276_">
			<polygon id="XMLID_4277_" class="st0" points="371.71,179.29 371.71,162.03 379.97,153.78 380.85,154.66 372.96,162.55 
				372.96,179.29 			"/>
		</g>
		<g id="XMLID_4274_">
			<path id="XMLID_4275_" class="st0" d="M381.98,155.96c0.92-0.91,0.92-2.4,0-3.31c-0.92-0.92-2.4-0.92-3.31,0
				c-0.92,0.91-0.92,2.4,0,3.31C379.58,156.88,381.06,156.88,381.98,155.96z"/>
		</g>
	</g>
	<g id="XMLID_4268_">
		<g id="XMLID_4271_">
			<polygon id="XMLID_4272_" class="st0" points="409.7,434.81 418.79,425.72 418.79,327.63 432.37,314.05 432.37,255.94 
				409.96,233.54 410.84,232.66 433.61,255.42 433.61,314.57 420.04,328.14 420.04,426.23 410.58,435.69 			"/>
		</g>
		<g id="XMLID_4269_">
			<path id="XMLID_4270_" class="st0" d="M408.56,433.52c-0.92,0.91-0.92,2.4,0,3.31c0.92,0.92,2.4,0.92,3.32,0
				c0.92-0.92,0.92-2.4,0-3.31C410.96,432.6,409.48,432.6,408.56,433.52z"/>
		</g>
	</g>
	<g id="XMLID_4263_">
		<g id="XMLID_4266_">
			<polygon id="XMLID_4267_" class="st0" points="368.14,310.52 373.74,304.91 373.74,255.94 374.99,255.94 374.99,305.43 
				369.02,311.4 			"/>
		</g>
		<g id="XMLID_4264_">
			<path id="XMLID_4265_" class="st0" d="M367.01,309.22c-0.92,0.92-0.92,2.4,0,3.32c0.92,0.92,2.4,0.92,3.31,0
				c0.92-0.92,0.92-2.4,0-3.32C369.4,308.3,367.92,308.3,367.01,309.22z"/>
		</g>
	</g>
	<g id="XMLID_4258_">
		<g id="XMLID_4261_">
			<polygon id="XMLID_4262_" class="st0" points="419.14,313.04 419.14,284.46 432.51,271.09 433.39,271.97 420.39,284.97 
				420.39,313.04 			"/>
		</g>
		<g id="XMLID_4259_">
			<path id="XMLID_4260_" class="st0" d="M417.42,312.93c0,1.29,1.05,2.34,2.34,2.34c1.29,0,2.34-1.05,2.34-2.34
				c0-1.3-1.05-2.35-2.34-2.35C418.47,310.58,417.42,311.63,417.42,312.93z"/>
		</g>
	</g>
	<g id="XMLID_4253_">
		<g id="XMLID_4256_">
			<polygon id="XMLID_4257_" class="st0" points="380.79,370.31 380.79,334.55 389.47,325.87 390.35,326.76 382.03,335.07 
				382.03,370.31 			"/>
		</g>
		<g id="XMLID_4254_">
			<path id="XMLID_4255_" class="st0" d="M379.07,370.19c0,1.3,1.05,2.34,2.34,2.34c1.3,0,2.35-1.05,2.35-2.34
				c0-1.3-1.05-2.34-2.35-2.34C380.12,367.85,379.07,368.9,379.07,370.19z"/>
		</g>
	</g>
	<g id="XMLID_4248_">
		<g id="XMLID_4251_">
			<polygon id="XMLID_4252_" class="st0" points="419.09,350.61 419.97,349.73 441.8,371.55 441.8,463.43 458.54,480.17 
				457.66,481.06 440.55,463.95 440.55,372.07 			"/>
		</g>
		<g id="XMLID_4249_">
			<path id="XMLID_4250_" class="st0" d="M456.36,482.19c0.92,0.92,2.4,0.92,3.31,0c0.92-0.92,0.92-2.4,0-3.32
				c-0.92-0.92-2.4-0.92-3.31,0C455.44,479.79,455.44,481.27,456.36,482.19z"/>
		</g>
	</g>
</g>
<g>
	<linearGradient id="SVGID_1_" gradientUnits="userSpaceOnUse" x1="241.4573" y1="417.2555" x2="246.9839" y2="177.7703">
		<stop  offset="0.0153" style="stop-color:#7AC8CB"/>
		<stop  offset="1" style="stop-color:#0072B7"/>
	</linearGradient>
	<path class="st1" d="M291.62,424.33H190.99c-0.19-38.22,33.61-56.88,50.22-57.06S291.62,387.05,291.62,424.33z"/>
	<g>
		<linearGradient id="SVGID_2_" gradientUnits="userSpaceOnUse" x1="234.4673" y1="427.2303" x2="241.1146" y2="139.1811">
			<stop  offset="0.0153" style="stop-color:#7AC8CB"/>
			<stop  offset="1" style="stop-color:#0072B7"/>
		</linearGradient>
		<path class="st2" d="M372.67,107.57H109.94c-9.12,180.77,87.98,243.24,131.36,243.71C284.69,351.75,381.79,288.34,372.67,107.57z"
			/>
		<g>
			<linearGradient id="SVGID_3_" gradientUnits="userSpaceOnUse" x1="40.411" y1="188.5617" x2="118.1939" y2="188.5617">
				<stop  offset="0.0153" style="stop-color:#7AC8CB"/>
				<stop  offset="1" style="stop-color:#0072B7"/>
			</linearGradient>
			<path class="st3" d="M112.47,225.23c-10.49-8.68-19.95-21.05-27.44-32.61c-11.8-18.21-20.61-37.37-24.95-47.55h40.83
				c-0.12-3.79-0.21-7.61-0.23-11.47H40.41l2.79,7.39c0.45,1.19,11.25,29.5,28.89,56.76c15.12,23.37,30.54,38.65,46.1,45.78
				c-0.69-1.94-1.35-3.9-2-5.87C114.86,233.58,113.63,229.44,112.47,225.23z"/>
			
				<linearGradient id="SVGID_4_" gradientUnits="userSpaceOnUse" x1="-5621.8735" y1="188.5617" x2="-5544.0908" y2="188.5617" gradientTransform="matrix(-1 0 0 1 -5179.686 0)">
				<stop  offset="0.0153" style="stop-color:#7AC8CB"/>
				<stop  offset="1" style="stop-color:#0072B7"/>
			</linearGradient>
			<path class="st4" d="M370.13,225.23c10.49-8.68,19.95-21.05,27.44-32.61c11.8-18.21,20.61-37.37,24.95-47.55h-40.83
				c0.12-3.79,0.21-7.61,0.23-11.47h60.27l-2.79,7.39c-0.45,1.19-11.25,29.5-28.89,56.76c-15.12,23.37-30.54,38.65-46.1,45.78
				c0.69-1.94,1.35-3.9,2-5.87C367.74,233.58,368.96,229.44,370.13,225.23z"/>
		</g>
	</g>
</g>
<g id="XMLID_4216_">
	<g id="XMLID_4242_">
		<g id="XMLID_4245_">
			<polygon id="XMLID_4246_" class="st5" points="294.85,100.97 294.85,22.86 296.41,22.86 296.41,100.33 331.48,135.39 
				331.48,268.65 382.17,319.34 382.17,509.74 380.6,509.74 380.6,319.99 329.91,269.3 329.91,136.04 			"/>
		</g>
		<g id="XMLID_4243_">
			<path id="XMLID_4244_" class="st5" d="M378.44,509.58c0,1.63,1.32,2.95,2.94,2.95c1.63,0,2.95-1.32,2.95-2.95
				c0-1.62-1.32-2.94-2.95-2.94C379.76,506.65,378.44,507.96,378.44,509.58z"/>
		</g>
	</g>
	<g id="XMLID_4237_">
		<g id="XMLID_4240_">
			<polygon id="XMLID_4241_" class="st5" points="353.51,292.68 353.51,255.26 369.29,239.47 370.4,240.58 355.07,255.91 
				355.07,292.68 			"/>
		</g>
		<g id="XMLID_4238_">
			<path id="XMLID_4239_" class="st5" d="M371.82,242.21c1.15-1.15,1.15-3.02,0-4.16c-1.15-1.15-3.02-1.15-4.17,0
				c-1.15,1.15-1.15,3.02,0,4.16C368.81,243.36,370.67,243.36,371.82,242.21z"/>
		</g>
	</g>
	<g id="XMLID_4232_">
		<g id="XMLID_4235_">
			<polygon id="XMLID_4236_" class="st5" points="315.25,288.42 315.25,210.63 329.89,195.99 331,197.1 316.82,211.27 
				316.82,287.78 365.28,336.23 365.28,407.08 363.71,407.08 363.71,336.88 			"/>
		</g>
		<g id="XMLID_4233_">
			<path id="XMLID_4234_" class="st5" d="M361.54,406.93c0,1.62,1.32,2.94,2.94,2.94c1.63,0,2.95-1.32,2.95-2.94
				c0-1.63-1.32-2.94-2.95-2.94C362.86,403.99,361.54,405.31,361.54,406.93z"/>
		</g>
	</g>
	<g id="XMLID_4227_">
		<g id="XMLID_4230_">
			<polygon id="XMLID_4231_" class="st5" points="381.15,386.85 382.26,385.74 396.51,399.99 396.51,477.22 394.95,477.22 
				394.95,400.64 			"/>
		</g>
		<g id="XMLID_4228_">
			<path id="XMLID_4229_" class="st5" d="M392.79,477.07c0,1.63,1.32,2.94,2.94,2.94c1.63,0,2.95-1.32,2.95-2.94
				c0-1.63-1.32-2.94-2.95-2.94C394.11,474.12,392.79,475.44,392.79,477.07z"/>
		</g>
	</g>
	<g id="XMLID_4222_">
		<g id="XMLID_4225_">
			<polygon id="XMLID_4226_" class="st5" points="328.78,501.55 346.17,484.15 346.17,371.62 363.94,353.86 365.04,354.96 
				347.74,372.27 347.74,484.8 329.89,502.66 			"/>
		</g>
		<g id="XMLID_4223_">
			<path id="XMLID_4224_" class="st5" d="M327.35,499.92c-1.15,1.15-1.15,3.02,0,4.17c1.15,1.15,3.02,1.15,4.16,0
				c1.15-1.15,1.15-3.02,0-4.17C330.37,498.77,328.5,498.77,327.35,499.92z"/>
		</g>
	</g>
	<g id="XMLID_4217_">
		<g id="XMLID_4220_">
			<polygon id="XMLID_4221_" class="st5" points="377.71,288.44 384.75,281.4 384.75,219.88 386.31,219.88 386.31,282.05 
				378.82,289.55 			"/>
		</g>
		<g id="XMLID_4218_">
			<path id="XMLID_4219_" class="st5" d="M376.28,286.8c-1.15,1.15-1.15,3.02,0,4.17c1.15,1.15,3.01,1.15,4.16,0
				c1.15-1.16,1.15-3.02,0-4.17C379.3,285.66,377.44,285.66,376.28,286.8z"/>
		</g>
	</g>
</g>
<g id="XMLID_4185_" class="st6">
	<g id="XMLID_4211_">
		<g id="XMLID_4214_">
			<linearGradient id="XMLID_2_" gradientUnits="userSpaceOnUse" x1="338.0692" y1="79.3994" x2="339.301" y2="446.49">
				<stop  offset="0" style="stop-color:#7C18FF"/>
				<stop  offset="0.3265" style="stop-color:#895AB2"/>
				<stop  offset="1" style="stop-color:#0072B7"/>
			</linearGradient>
			<polygon id="XMLID_4215_" class="st7" points="294.85,100.97 294.85,22.86 296.41,22.86 296.41,100.33 331.48,135.39 
				331.48,268.65 382.17,319.34 382.17,509.74 380.6,509.74 380.6,319.99 329.91,269.3 329.91,136.04 			"/>
		</g>
		<g id="XMLID_4212_">
			<linearGradient id="XMLID_3_" gradientUnits="userSpaceOnUse" x1="379.9437" y1="79.2589" x2="381.1755" y2="446.3495">
				<stop  offset="0" style="stop-color:#7C18FF"/>
				<stop  offset="0.3265" style="stop-color:#895AB2"/>
				<stop  offset="1" style="stop-color:#0072B7"/>
			</linearGradient>
			<path id="XMLID_4213_" class="st8" d="M378.44,509.58c0,1.63,1.32,2.95,2.94,2.95c1.63,0,2.95-1.32,2.95-2.95
				c0-1.62-1.32-2.94-2.95-2.94C379.76,506.65,378.44,507.96,378.44,509.58z"/>
		</g>
	</g>
	<g id="XMLID_4206_">
		<g id="XMLID_4209_">
			<linearGradient id="XMLID_4_" gradientUnits="userSpaceOnUse" x1="361.3234" y1="79.3214" x2="362.5553" y2="446.412">
				<stop  offset="0" style="stop-color:#7C18FF"/>
				<stop  offset="0.3265" style="stop-color:#895AB2"/>
				<stop  offset="1" style="stop-color:#0072B7"/>
			</linearGradient>
			<polygon id="XMLID_4210_" class="st9" points="353.51,292.68 353.51,255.26 369.29,239.47 370.4,240.58 355.07,255.91 
				355.07,292.68 			"/>
		</g>
		<g id="XMLID_4207_">
			<linearGradient id="XMLID_5_" gradientUnits="userSpaceOnUse" x1="369.2011" y1="79.2949" x2="370.433" y2="446.3856">
				<stop  offset="0" style="stop-color:#7C18FF"/>
				<stop  offset="0.3265" style="stop-color:#895AB2"/>
				<stop  offset="1" style="stop-color:#0072B7"/>
			</linearGradient>
			<path id="XMLID_4208_" class="st10" d="M371.82,242.21c1.15-1.15,1.15-3.02,0-4.16c-1.15-1.15-3.02-1.15-4.17,0
				c-1.15,1.15-1.15,3.02,0,4.16C368.81,243.36,370.67,243.36,371.82,242.21z"/>
		</g>
	</g>
	<g id="XMLID_4201_">
		<g id="XMLID_4204_">
			<linearGradient id="XMLID_6_" gradientUnits="userSpaceOnUse" x1="339.4813" y1="79.3947" x2="340.7131" y2="446.4853">
				<stop  offset="0" style="stop-color:#7C18FF"/>
				<stop  offset="0.3265" style="stop-color:#895AB2"/>
				<stop  offset="1" style="stop-color:#0072B7"/>
			</linearGradient>
			<polygon id="XMLID_4205_" class="st11" points="315.25,288.42 315.25,210.63 329.89,195.99 331,197.1 316.82,211.27 
				316.82,287.78 365.28,336.23 365.28,407.08 363.71,407.08 363.71,336.88 			"/>
		</g>
		<g id="XMLID_4202_">
			<linearGradient id="XMLID_7_" gradientUnits="userSpaceOnUse" x1="363.3908" y1="79.3144" x2="364.6227" y2="446.4051">
				<stop  offset="0" style="stop-color:#7C18FF"/>
				<stop  offset="0.3265" style="stop-color:#895AB2"/>
				<stop  offset="1" style="stop-color:#0072B7"/>
			</linearGradient>
			<path id="XMLID_4203_" class="st12" d="M361.54,406.93c0,1.62,1.32,2.94,2.94,2.94c1.63,0,2.95-1.32,2.95-2.94
				c0-1.63-1.32-2.94-2.95-2.94C362.86,403.99,361.54,405.31,361.54,406.93z"/>
		</g>
	</g>
	<g id="XMLID_4196_">
		<g id="XMLID_4199_">
			<linearGradient id="XMLID_8_" gradientUnits="userSpaceOnUse" x1="387.7783" y1="79.2326" x2="389.0101" y2="446.3232">
				<stop  offset="0" style="stop-color:#7C18FF"/>
				<stop  offset="0.3265" style="stop-color:#895AB2"/>
				<stop  offset="1" style="stop-color:#0072B7"/>
			</linearGradient>
			<polygon id="XMLID_4200_" class="st13" points="381.15,386.85 382.26,385.74 396.51,399.99 396.51,477.22 394.95,477.22 
				394.95,400.64 			"/>
		</g>
		<g id="XMLID_4197_">
			<linearGradient id="XMLID_9_" gradientUnits="userSpaceOnUse" x1="394.3976" y1="79.2104" x2="395.6294" y2="446.301">
				<stop  offset="0" style="stop-color:#7C18FF"/>
				<stop  offset="0.3265" style="stop-color:#895AB2"/>
				<stop  offset="1" style="stop-color:#0072B7"/>
			</linearGradient>
			<path id="XMLID_4198_" class="st14" d="M392.79,477.07c0,1.63,1.32,2.94,2.94,2.94c1.63,0,2.95-1.32,2.95-2.94
				c0-1.63-1.32-2.94-2.95-2.94C394.11,474.12,392.79,475.44,392.79,477.07z"/>
		</g>
	</g>
	<g id="XMLID_4191_">
		<g id="XMLID_4194_">
			<linearGradient id="XMLID_10_" gradientUnits="userSpaceOnUse" x1="345.7386" y1="79.3737" x2="346.9705" y2="446.4643">
				<stop  offset="0" style="stop-color:#7C18FF"/>
				<stop  offset="0.3265" style="stop-color:#895AB2"/>
				<stop  offset="1" style="stop-color:#0072B7"/>
			</linearGradient>
			<polygon id="XMLID_4195_" class="st15" points="328.78,501.55 346.17,484.15 346.17,371.62 363.94,353.86 365.04,354.96 
				347.74,372.27 347.74,484.8 329.89,502.66 			"/>
		</g>
		<g id="XMLID_4192_">
			<linearGradient id="XMLID_11_" gradientUnits="userSpaceOnUse" x1="328.0166" y1="79.4331" x2="329.2485" y2="446.5238">
				<stop  offset="0" style="stop-color:#7C18FF"/>
				<stop  offset="0.3265" style="stop-color:#895AB2"/>
				<stop  offset="1" style="stop-color:#0072B7"/>
			</linearGradient>
			<path id="XMLID_4193_" class="st16" d="M327.35,499.92c-1.15,1.15-1.15,3.02,0,4.17c1.15,1.15,3.02,1.15,4.16,0
				c1.15-1.15,1.15-3.02,0-4.17C330.37,498.77,328.5,498.77,327.35,499.92z"/>
		</g>
	</g>
	<g id="XMLID_4186_">
		<g id="XMLID_4189_">
			<linearGradient id="XMLID_12_" gradientUnits="userSpaceOnUse" x1="381.4237" y1="79.2539" x2="382.6555" y2="446.3445">
				<stop  offset="0" style="stop-color:#7C18FF"/>
				<stop  offset="0.3265" style="stop-color:#895AB2"/>
				<stop  offset="1" style="stop-color:#0072B7"/>
			</linearGradient>
			<polygon id="XMLID_4190_" class="st17" points="377.71,288.44 384.75,281.4 384.75,219.88 386.31,219.88 386.31,282.05 
				378.82,289.55 			"/>
		</g>
		<g id="XMLID_4187_">
			<linearGradient id="XMLID_13_" gradientUnits="userSpaceOnUse" x1="377.6626" y1="79.2665" x2="378.8945" y2="446.3572">
				<stop  offset="0" style="stop-color:#7C18FF"/>
				<stop  offset="0.3265" style="stop-color:#895AB2"/>
				<stop  offset="1" style="stop-color:#0072B7"/>
			</linearGradient>
			<path id="XMLID_4188_" class="st18" d="M376.28,286.8c-1.15,1.15-1.15,3.02,0,4.17c1.15,1.15,3.01,1.15,4.16,0
				c1.15-1.16,1.15-3.02,0-4.17C379.3,285.66,377.44,285.66,376.28,286.8z"/>
		</g>
	</g>
</g>
<g id="XMLID_3749_">
	<g id="XMLID_4180_">
		<g id="XMLID_4183_">
			<linearGradient id="XMLID_14_" gradientUnits="userSpaceOnUse" x1="341.0502" y1="424.5515" x2="337.3546" y2="112.894">
				<stop  offset="0" style="stop-color:#0072B7"/>
				<stop  offset="1" style="stop-color:#5931B7;stop-opacity:0.6"/>
			</linearGradient>
			<polygon id="XMLID_4184_" class="st19" points="294.85,100.97 294.85,22.86 296.41,22.86 296.41,100.33 331.48,135.39 
				331.48,268.65 382.17,319.34 382.17,509.74 380.6,509.74 380.6,319.99 329.91,269.3 329.91,136.04 			"/>
		</g>
		<g id="XMLID_4181_">
			<linearGradient id="XMLID_15_" gradientUnits="userSpaceOnUse" x1="380.3739" y1="424.0852" x2="376.6784" y2="112.4277">
				<stop  offset="0" style="stop-color:#0072B7"/>
				<stop  offset="1" style="stop-color:#5931B7;stop-opacity:0.6"/>
			</linearGradient>
			<path id="XMLID_4182_" class="st20" d="M378.44,509.58c0,1.63,1.32,2.95,2.94,2.95c1.63,0,2.95-1.32,2.95-2.95
				c0-1.62-1.32-2.94-2.95-2.94C379.76,506.65,378.44,507.96,378.44,509.58z"/>
		</g>
	</g>
	<g id="XMLID_4175_">
		<g id="XMLID_4178_">
			<linearGradient id="XMLID_16_" gradientUnits="userSpaceOnUse" x1="363.8214" y1="424.2815" x2="360.1258" y2="112.624">
				<stop  offset="0" style="stop-color:#0072B7"/>
				<stop  offset="1" style="stop-color:#5931B7;stop-opacity:0.6"/>
			</linearGradient>
			<polygon id="XMLID_4179_" class="st21" points="353.51,292.68 353.51,255.26 369.29,239.47 370.4,240.58 355.07,255.91 
				355.07,292.68 			"/>
		</g>
		<g id="XMLID_4176_">
			<linearGradient id="XMLID_17_" gradientUnits="userSpaceOnUse" x1="371.9233" y1="424.1854" x2="368.2278" y2="112.5279">
				<stop  offset="0" style="stop-color:#0072B7"/>
				<stop  offset="1" style="stop-color:#5931B7;stop-opacity:0.6"/>
			</linearGradient>
			<path id="XMLID_4177_" class="st22" d="M371.82,242.21c1.15-1.15,1.15-3.02,0-4.16c-1.15-1.15-3.02-1.15-4.17,0
				c-1.15,1.15-1.15,3.02,0,4.16C368.81,243.36,370.67,243.36,371.82,242.21z"/>
		</g>
	</g>
	<g id="XMLID_4170_">
		<g id="XMLID_4173_">
			<linearGradient id="XMLID_18_" gradientUnits="userSpaceOnUse" x1="341.5936" y1="424.545" x2="337.8981" y2="112.8876">
				<stop  offset="0" style="stop-color:#0072B7"/>
				<stop  offset="1" style="stop-color:#5931B7;stop-opacity:0.6"/>
			</linearGradient>
			<polygon id="XMLID_4174_" class="st23" points="315.25,288.42 315.25,210.63 329.89,195.99 331,197.1 316.82,211.27 
				316.82,287.78 365.28,336.23 365.28,407.08 363.71,407.08 363.71,336.88 			"/>
		</g>
		<g id="XMLID_4171_">
			<linearGradient id="XMLID_19_" gradientUnits="userSpaceOnUse" x1="364.6958" y1="424.2711" x2="361.0003" y2="112.6136">
				<stop  offset="0" style="stop-color:#0072B7"/>
				<stop  offset="1" style="stop-color:#5931B7;stop-opacity:0.6"/>
			</linearGradient>
			<path id="XMLID_4172_" class="st24" d="M361.54,406.93c0,1.62,1.32,2.94,2.94,2.94c1.63,0,2.95-1.32,2.95-2.94
				c0-1.63-1.32-2.94-2.95-2.94C362.86,403.99,361.54,405.31,361.54,406.93z"/>
		</g>
	</g>
	<g id="XMLID_4165_">
		<g id="XMLID_4168_">
			<linearGradient id="XMLID_20_" gradientUnits="userSpaceOnUse" x1="389.195" y1="423.9806" x2="385.4995" y2="112.3231">
				<stop  offset="0" style="stop-color:#0072B7"/>
				<stop  offset="1" style="stop-color:#5931B7;stop-opacity:0.6"/>
			</linearGradient>
			<polygon id="XMLID_4169_" class="st25" points="381.15,386.85 382.26,385.74 396.51,399.99 396.51,477.22 394.95,477.22 
				394.95,400.64 			"/>
		</g>
		<g id="XMLID_4166_">
			<linearGradient id="XMLID_21_" gradientUnits="userSpaceOnUse" x1="395.1023" y1="423.9106" x2="391.4068" y2="112.2531">
				<stop  offset="0" style="stop-color:#0072B7"/>
				<stop  offset="1" style="stop-color:#5931B7;stop-opacity:0.6"/>
			</linearGradient>
			<path id="XMLID_4167_" class="st26" d="M392.79,477.07c0,1.63,1.32,2.94,2.94,2.94c1.63,0,2.95-1.32,2.95-2.94
				c0-1.63-1.32-2.94-2.95-2.94C394.11,474.12,392.79,475.44,392.79,477.07z"/>
		</g>
	</g>
	<g id="XMLID_4160_">
		<g id="XMLID_4163_">
			<linearGradient id="XMLID_22_" gradientUnits="userSpaceOnUse" x1="346.8647" y1="424.4825" x2="343.1691" y2="112.8251">
				<stop  offset="0" style="stop-color:#0072B7"/>
				<stop  offset="1" style="stop-color:#5931B7;stop-opacity:0.6"/>
			</linearGradient>
			<polygon id="XMLID_4164_" class="st27" points="328.78,501.55 346.17,484.15 346.17,371.62 363.94,353.86 365.04,354.96 
				347.74,372.27 347.74,484.8 329.89,502.66 			"/>
		</g>
		<g id="XMLID_4161_">
			<linearGradient id="XMLID_23_" gradientUnits="userSpaceOnUse" x1="328.518" y1="424.7001" x2="324.8225" y2="113.0426">
				<stop  offset="0" style="stop-color:#0072B7"/>
				<stop  offset="1" style="stop-color:#5931B7;stop-opacity:0.6"/>
			</linearGradient>
			<path id="XMLID_4162_" class="st28" d="M327.35,499.92c-1.15,1.15-1.15,3.02,0,4.17c1.15,1.15,3.02,1.15,4.16,0
				c1.15-1.15,1.15-3.02,0-4.17C330.37,498.77,328.5,498.77,327.35,499.92z"/>
		</g>
	</g>
	<g id="XMLID_4155_">
		<g id="XMLID_4158_">
			<linearGradient id="XMLID_24_" gradientUnits="userSpaceOnUse" x1="384.025" y1="424.0419" x2="380.3295" y2="112.3844">
				<stop  offset="0" style="stop-color:#0072B7"/>
				<stop  offset="1" style="stop-color:#5931B7;stop-opacity:0.6"/>
			</linearGradient>
			<polygon id="XMLID_4159_" class="st29" points="377.71,288.44 384.75,281.4 384.75,219.88 386.31,219.88 386.31,282.05 
				378.82,289.55 			"/>
		</g>
		<g id="XMLID_4156_">
			<linearGradient id="XMLID_25_" gradientUnits="userSpaceOnUse" x1="379.9692" y1="424.09" x2="376.2737" y2="112.4325">
				<stop  offset="0" style="stop-color:#0072B7"/>
				<stop  offset="1" style="stop-color:#5931B7;stop-opacity:0.6"/>
			</linearGradient>
			<path id="XMLID_4157_" class="st30" d="M376.28,286.8c-1.15,1.15-1.15,3.02,0,4.17c1.15,1.15,3.01,1.15,4.16,0
				c1.15-1.16,1.15-3.02,0-4.17C379.3,285.66,377.44,285.66,376.28,286.8z"/>
		</g>
	</g>
</g>
</svg>
