<svg width="116" height="56" viewBox="0 0 116 56" fill="none" xmlns="http://www.w3.org/2000/svg">
<path d="M83.9218 13.7112C77.9003 13.7112 74.0294 18.3317 74.0294 27.6233C74.0294 36.8394 77.9256 41.5103 83.9218 41.5103C89.9181 41.5103 93.865 36.8394 93.865 27.6233C93.865 18.4071 89.9181 13.7112 83.9218 13.7112ZM77.3943 27.6483C77.3943 20.7676 79.5449 16.7245 83.8966 16.7245C85.2122 16.7245 86.3507 17.1013 87.3374 17.8797L78.7858 35.2322C77.8751 33.399 77.3943 30.8878 77.3943 27.6483ZM83.9218 38.547C82.6062 38.547 81.493 38.1703 80.5316 37.4421L89.0832 20.1147C90.0193 21.9982 90.4747 24.4842 90.4747 27.6483C90.4747 34.4789 88.2735 38.547 83.9218 38.547Z" fill="white"/>
<path d="M109.906 31.0386L115.421 21.7471H112.006L107.451 29.4063H106.06L101.607 21.7471H98.1156L103.555 31.1641L97.5084 41.0332H101.101L106.035 32.9471H107.401L112.233 41.0332H115.927L109.906 31.0386Z" fill="white"/>
<path d="M11.8507 35.393L16.2303 30.8954L10.7856 23.6029L3.85328 13.8669C1.40418 18.0154 0 22.8445 0 28C0 36.5407 3.85328 44.1873 9.93047 49.3227L18.7301 43.1501C15.737 41.2993 13.3258 38.6048 11.8507 35.393Z" fill="white"/>
<path d="M20.7618 11.7625L25.2931 16.1094L32.6404 10.7053L42.4494 3.82458C38.2697 1.39372 33.4044 0 28.2102 0C19.6055 0 11.9015 3.82458 6.72754 9.8565L12.9464 18.5905C14.8111 15.6197 17.5258 13.2265 20.7618 11.7625Z" fill="white"/>
<path d="M40.19 25.1045L45.6347 32.3971L52.567 42.133C55.0161 37.9845 56.4203 33.1554 56.4203 27.9999C56.4203 19.4593 52.567 11.8127 46.4899 6.67725L37.6903 12.8498C40.6834 14.7006 43.0945 17.3951 44.5696 20.6069L40.19 25.1045Z" fill="white"/>
<path d="M49.6928 46.1435L43.4739 37.4095C41.6092 40.3802 38.8945 42.7734 35.6586 44.2375L31.1272 39.8906L23.7799 45.2947L13.9709 52.1754C18.1506 54.6062 23.0159 56 28.2101 56C36.8148 56 44.5188 52.1754 49.6928 46.1435Z" fill="white"/>
</svg>
