<svg width="33" height="93" viewBox="0 0 33 93" fill="none" xmlns="http://www.w3.org/2000/svg">
<path d="M20.5312 25.375V60.0312C20.5312 60.7604 20.5521 61.3958 20.5938 61.9375C20.6354 62.4792 20.7083 62.9688 20.8125 63.4062C21.2292 63.4688 21.6458 63.5104 22.0625 63.5312C22.5 63.5521 22.9583 63.5625 23.4375 63.5625H26.7812V68.4688C24.7396 68.3021 22.8229 68.1771 21.0312 68.0938C19.2396 68.0312 17.5312 68 15.9062 68C14.1146 68 12.2812 68.0417 10.4062 68.125C8.53125 68.2083 6.55208 68.3229 4.46875 68.4688V63.5625H7.75C8.22917 63.5625 8.6875 63.5625 9.125 63.5625C9.5625 63.5417 9.97917 63.4896 10.375 63.4062C10.4792 63.0312 10.5625 62.5729 10.625 62.0312C10.6875 61.4688 10.7188 60.8125 10.7188 60.0625V32.4688C10.7188 31.8854 10.7188 31.3229 10.7188 30.7812C10.7188 30.2188 10.6979 29.6771 10.6562 29.1562C10.3021 28.9896 9.9375 28.875 9.5625 28.8125C9.1875 28.7292 8.75 28.6875 8.25 28.6875C7.95833 28.6875 7.64583 28.7188 7.3125 28.7812L4.0625 29.0625L3.78125 25.8125C4.86458 25.5 5.96875 25.1979 7.09375 24.9062C8.21875 24.6146 9.34375 24.3542 10.4688 24.125C11.5938 23.8958 12.6979 23.7083 13.7812 23.5625C14.8854 23.4167 15.9271 23.3438 16.9062 23.3438C17.9271 23.3438 18.7604 23.4792 19.4062 23.75C20.0521 24 20.4271 24.5417 20.5312 25.375Z" fill="#F6F6FE"/>
</svg>
