<svg width="24" height="46" viewBox="0 0 24 46" fill="none" xmlns="http://www.w3.org/2000/svg">
<path d="M17.5312 2.375V37.0312C17.5312 37.7604 17.5521 38.3958 17.5938 38.9375C17.6354 39.4792 17.7083 39.9688 17.8125 40.4062C18.2292 40.4688 18.6458 40.5104 19.0625 40.5312C19.5 40.5521 19.9583 40.5625 20.4375 40.5625H23.7812V45.4688C21.7396 45.3021 19.8229 45.1771 18.0312 45.0938C16.2396 45.0312 14.5312 45 12.9062 45C11.1146 45 9.28125 45.0417 7.40625 45.125C5.53125 45.2083 3.55208 45.3229 1.46875 45.4688V40.5625H4.75C5.22917 40.5625 5.6875 40.5625 6.125 40.5625C6.5625 40.5417 6.97917 40.4896 7.375 40.4062C7.47917 40.0312 7.5625 39.5729 7.625 39.0312C7.6875 38.4688 7.71875 37.8125 7.71875 37.0625V9.46875C7.71875 8.88542 7.71875 8.32292 7.71875 7.78125C7.71875 7.21875 7.69792 6.67708 7.65625 6.15625C7.30208 5.98958 6.9375 5.875 6.5625 5.8125C6.1875 5.72917 5.75 5.6875 5.25 5.6875C4.95833 5.6875 4.64583 5.71875 4.3125 5.78125L1.0625 6.0625L0.78125 2.8125C1.86458 2.5 2.96875 2.19792 4.09375 1.90625C5.21875 1.61458 6.34375 1.35417 7.46875 1.125C8.59375 0.895833 9.69792 0.708333 10.7812 0.5625C11.8854 0.416667 12.9271 0.34375 13.9062 0.34375C14.9271 0.34375 15.7604 0.479167 16.4062 0.75C17.0521 1 17.4271 1.54167 17.5312 2.375Z" fill="#F6F6FE"/>
</svg>
