<svg width="337" height="170" viewBox="0 0 337 170" fill="none" xmlns="http://www.w3.org/2000/svg">
<path d="M150.219 58.0551H161.45V103.147H172.682V46.7822H161.45C155.273 46.7822 150.219 51.855 150.219 58.0551Z" fill="#F7F7F7"/>
<path d="M183.914 103.147H195.145V80.601C195.145 74.4009 190.091 69.3281 183.914 69.3281V103.147Z" fill="#F7F7F7"/>
<path d="M206.379 69.3281V103.147H217.61V80.601H228.842V91.8739C228.842 98.074 233.896 103.147 240.073 103.147V80.601C240.073 74.4009 235.019 69.3281 228.842 69.3281H206.379Z" fill="#F7F7F7"/>
<path d="M307.462 69.328H296.23V58.0551C296.23 51.855 291.176 46.7822 284.999 46.7822V91.8738H262.536V80.6009H273.768V69.328H262.536C256.359 69.328 251.305 74.4008 251.305 80.6009V91.8738C251.305 98.0739 256.359 103.147 262.536 103.147H296.23V80.6009H307.462V91.8738C307.462 98.0739 312.516 103.147 318.693 103.147V80.6009C318.693 74.4008 313.639 69.328 307.462 69.328Z" fill="#F7F7F7"/>
<path d="M183.914 58.0551H195.145C195.145 51.855 190.091 46.7822 183.914 46.7822V58.0551Z" fill="#F7F7F7"/>
<path d="M166.108 122.19H161.453V114.54H165.995V115.797H162.833V117.698H165.659V118.955H162.833V120.934H166.108V122.19Z" fill="#F7F7F7"/>
<path d="M186.512 114.54H188.128L185.481 118.289L188.228 122.19H186.613L184.583 119.316L182.564 122.19H180.949L183.697 118.289L181.073 114.54H182.688L184.617 117.305L186.512 114.54Z" fill="#F7F7F7"/>
<path d="M208.479 120.442L209.006 121.447C208.76 121.702 208.405 121.91 207.941 122.071C207.485 122.231 207.003 122.311 206.494 122.311C205.298 122.311 204.322 121.95 203.567 121.229C202.819 120.508 202.445 119.553 202.445 118.365C202.445 117.229 202.801 116.285 203.511 115.535C204.214 114.792 205.197 114.42 206.461 114.42C207.462 114.42 208.259 114.679 208.849 115.196L208.233 116.191C207.702 115.848 207.111 115.677 206.461 115.677C205.713 115.677 205.1 115.921 204.621 116.409C204.143 116.897 203.903 117.549 203.903 118.365C203.903 119.167 204.154 119.815 204.655 120.311C205.163 120.806 205.818 121.054 206.618 121.054C207.305 121.054 207.926 120.85 208.479 120.442Z" fill="#F7F7F7"/>
<path d="M230.735 122.19H229.367V118.923H225.778V122.19H224.398V114.54H225.778V117.666H229.367V114.54H230.735V122.19Z" fill="#F7F7F7"/>
<path d="M247.309 122.191H245.918L249.238 114.519H250.449L253.769 122.191H252.3L251.481 120.235H248.127L247.309 122.191ZM250.954 118.978L249.81 116.256L248.655 118.978H250.954Z" fill="#F7F7F7"/>
<path d="M275.672 114.54V122.19H274.573L270.255 116.89V122.19H268.965V114.54H270.064L274.382 119.863V114.54H275.672Z" fill="#F7F7F7"/>
<path d="M297.027 119.327H295.132V118.07H298.319V121.24C297.982 121.568 297.533 121.83 296.974 122.027C296.412 122.216 295.882 122.311 295.379 122.311C294.11 122.311 293.107 121.954 292.375 121.24C291.647 120.533 291.285 119.575 291.285 118.365C291.285 117.243 291.645 116.307 292.363 115.557C293.079 114.799 294.026 114.42 295.199 114.42C296.202 114.42 297.044 114.679 297.724 115.196L297.14 116.267C296.946 116.085 296.687 115.943 296.367 115.841C296.044 115.732 295.713 115.677 295.368 115.677C294.584 115.677 293.953 115.917 293.472 116.398C292.987 116.872 292.745 117.528 292.745 118.365C292.745 119.174 292.987 119.826 293.472 120.322C293.953 120.81 294.596 121.054 295.401 121.054C295.685 121.054 295.994 121.003 296.322 120.901C296.651 120.792 296.887 120.668 297.027 120.53V119.327Z" fill="#F7F7F7"/>
<path d="M318.694 122.19H314.039V114.54H318.582V115.797H315.421V117.698H318.245V118.955H315.421V120.934H318.694V122.19Z" fill="#F7F7F7"/>
<path d="M70.9796 51.6588C73.0987 49.1618 72.2692 45.4629 72.2692 45.4629L66.0964 54.6179C66.0043 54.6179 68.3076 54.7103 70.9796 51.6588Z" fill="#F7F7F7"/>
<path d="M50.251 101.687L50.9881 97.9883C50.9881 97.9883 47.9477 103.352 47.6715 104.091C47.3952 104.924 47.8557 106.403 49.0535 106.311C50.251 106.218 51.7252 104.461 51.7252 103.167C51.7252 101.502 50.251 101.687 50.251 101.687Z" fill="#F7F7F7"/>
<path d="M104.978 42.874C104.978 42.874 109.585 43.0592 114.376 43.6138C103.596 35.1065 93.3695 32.6095 85.0776 32.6095C73.653 32.6095 65.9139 37.3258 65.4532 37.6031L69.0464 31.8697C69.0464 31.8697 54.6735 30.4829 49.6062 45.7407C48.3165 42.5043 47.1187 37.788 47.1187 37.788C47.1187 37.788 39.6559 44.3536 43.1571 55.2655C34.5886 52.1215 22.335 47.7752 21.8743 47.6828C21.2294 47.5903 21.0451 47.8677 21.0451 47.8677C21.0451 47.8677 20.8608 48.145 21.4136 48.6074C22.4271 49.4397 41.775 63.7731 46.0132 66.5471C45.0917 69.8763 45.0917 71.4483 46.0132 73.0203C47.3029 75.1472 47.395 76.2567 47.2108 77.829C47.0266 79.401 45.3683 92.9944 44.9996 94.6589C44.6312 96.3236 40.7614 102.242 40.9459 103.999C41.1301 105.756 43.5255 113.246 45.6446 114.078C47.2108 114.633 51.0806 115.835 53.6601 115.835C54.5814 115.835 55.4106 115.65 55.7792 115.28C57.3455 113.893 57.8062 113.616 58.9117 113.616C59.0038 113.616 59.0959 113.616 59.1883 113.616C59.6488 113.616 60.2016 113.708 60.8466 113.708C62.3207 113.708 64.2553 113.431 65.6374 112.136C67.6644 110.102 71.1655 107.328 72.2709 106.033C73.653 104.276 74.39 101.872 74.0216 99.4676C73.7451 97.2483 74.9429 95.3062 76.3249 93.3645C78.0753 91.0524 81.2999 86.8913 81.2999 86.8913C87.6572 91.6998 91.6188 99.0051 91.6188 107.143C91.6188 121.569 79.089 133.22 63.6106 133.22C61.215 133.22 58.9117 132.943 56.6084 132.388C63.7027 134.885 69.6913 135.717 74.5742 135.717C84.9855 135.717 90.5133 131.926 90.5133 131.926C90.5133 131.926 88.5784 134.422 85.446 137.289C85.5381 137.289 85.5381 137.289 85.5381 137.289C102.767 134.885 111.151 120.644 111.151 120.644C111.151 120.644 110.506 125.268 109.677 128.412C132.618 111.119 128.749 89.4804 128.656 88.7406C128.841 89.0182 131.144 91.7922 132.342 93.2718C136.027 55.173 104.978 42.874 104.978 42.874ZM69.6914 103.721C69.3227 104.184 67.7565 105.571 66.651 106.588C65.5453 107.605 64.3477 108.622 63.4262 109.547C63.0578 109.917 62.3207 110.102 61.215 110.102C60.8466 110.102 60.4779 110.102 60.2016 110.102C60.0174 110.102 59.833 110.102 59.6488 110.102C59.4646 110.102 59.3725 110.102 59.2804 110.102C59.0038 110.102 58.7275 110.102 58.4509 110.102C59.833 108.253 63.8869 103.999 65.269 103.074C66.9273 101.964 67.7565 100.855 66.7431 98.9127C65.7295 96.9707 63.0578 97.4331 63.0578 97.4331C63.0578 97.4331 64.624 96.7858 66.006 96.7858C64.2553 96.3236 62.0441 96.7858 61.0308 97.8032C59.9253 98.8203 60.1095 102.427 59.6488 104.739C59.1883 107.143 57.6218 108.345 55.2264 110.564C53.9364 111.766 53.0152 112.136 52.2781 112.136C50.7119 111.859 48.8691 111.397 47.5794 110.934C46.6579 109.732 45.2762 105.756 44.9075 104.091C45.1838 103.167 46.2895 101.225 46.8424 100.115C47.9478 97.9881 48.5928 96.7858 48.777 95.6763C49.1457 94.1043 50.3435 84.3944 50.804 80.3257C52.0018 81.8977 53.6601 84.4871 53.2918 86.1515C55.9634 82.3602 54.0288 78.6612 53.1073 77.1817C52.2781 75.7021 51.1727 72.743 52.0939 69.5987C53.0152 66.4547 56.3321 57.7622 56.3321 57.7622C56.3321 57.7622 57.4376 59.7042 59.0038 59.3344C60.57 58.9644 73.1922 39.9149 73.1922 39.9149C73.1922 39.9149 76.6012 47.4052 73.008 52.8613C69.3227 58.3171 65.7295 59.3344 65.7295 59.3344C65.7295 59.3344 70.7968 60.2591 75.4958 56.8375C77.4304 61.3686 79.2732 66.0849 79.3653 66.7323C79.089 67.3793 75.4034 76.2567 75.035 76.8116C74.8508 76.9965 73.5609 77.3666 72.6396 77.5514C71.0734 78.0139 70.1518 78.2912 69.7834 78.5688C69.1385 79.1234 66.1902 87.2611 64.8082 91.2376C63.1499 91.6998 61.4916 92.6247 60.2937 94.474C60.9387 94.0115 62.9657 93.7342 64.4398 93.5494C65.7295 93.4569 69.6913 95.5838 70.7047 99.5601C70.7047 99.6525 70.7047 99.6525 70.7047 99.7449C70.8889 101.224 70.4284 102.612 69.6914 103.721ZM61.0308 104.831C61.8599 103.629 61.7678 101.595 61.8599 100.947C61.952 100.3 62.1365 99.0976 62.8736 98.9127C63.6106 98.7278 65.3611 99.0052 65.3611 100.3C65.3611 101.502 64.0711 101.779 63.1499 102.612C62.5049 103.259 61.215 104.646 61.0308 104.831ZM97.7919 87.1686C98.7131 82.4526 98.8052 78.3837 98.5289 75.0548C102.122 79.8632 104.333 85.689 104.978 91.6997C105.07 92.4395 105.807 93.1793 106.545 93.9191C107.189 94.474 107.927 95.2138 107.927 95.6763C107.927 97.8032 107.742 99.9298 107.374 102.057C107.282 102.334 106.452 102.797 105.807 103.167C104.886 103.629 104.057 104.091 103.873 104.831C101.846 111.952 97.5153 118.24 91.7112 122.678C100.279 113.708 104.425 98.9127 97.7919 87.1686ZM91.9874 123.51C97.9761 118.887 102.583 112.414 104.61 105.108C104.702 104.831 105.531 104.369 106.084 103.999C107.005 103.536 107.927 102.982 108.111 102.242C108.479 100.115 108.664 97.8956 108.664 95.6763C108.664 94.844 107.834 94.0115 107.005 93.1793C106.545 92.6247 105.807 91.9774 105.807 91.5149C105.07 84.7644 102.398 78.3836 98.2526 73.1127C96.4098 62.016 89.0392 58.5947 88.855 58.5019C89.0392 58.7795 93.83 65.7149 90.5133 73.8525C87.1043 82.0826 78.3519 80.7882 77.6149 80.8806C76.8778 80.8806 74.0216 84.5795 70.4284 91.4224C69.9676 91.2376 68.033 90.7751 65.8216 91.1451C67.4802 86.5213 69.9676 79.9557 70.4284 79.401C70.6126 79.2159 71.9946 78.8461 72.9159 78.5688C74.6666 78.1063 75.4958 77.829 75.7721 77.459C75.9563 77.1817 76.8775 75.0548 77.799 72.8354C78.6282 72.8354 80.7473 72.6505 80.9315 72.5578C81.1157 72.3729 82.8664 67.8418 82.8664 67.2869C82.8664 66.8247 79.2732 57.8549 77.8911 54.4333C78.5361 53.6935 79.1811 52.7688 79.826 51.7514C98.7131 53.7859 113.454 69.8763 113.454 89.388C113.454 104.369 104.702 117.407 91.9874 123.51Z" fill="#F7F7F7"/>
<path d="M67.4783 73.5754C69.2287 71.5409 68.3075 67.7495 65.0829 67.1022C65.9121 65.1602 67.1096 61.2764 67.1096 61.2764C67.1096 61.2764 57.7123 76.072 56.8828 76.3494C56.0537 76.6269 55.2245 73.3902 55.2245 73.3902C53.4741 80.141 58.1728 81.0657 58.7256 78.9387C61.3052 78.2914 65.7276 75.5171 67.4783 73.5754Z" fill="#F7F7F7"/>
<path d="M59.4648 77.1822L64.2556 68.9521C64.2556 68.9521 67.0197 70.3393 65.6377 72.5586C63.8872 75.1477 59.4648 77.1822 59.4648 77.1822Z" fill="#052040"/>
<path d="M118.705 115.28C117.323 117.13 115.757 119.072 113.914 120.921C125.799 97.9878 114.467 76.9963 114.006 76.1641C114.835 76.9963 115.664 77.9212 116.402 78.7535C125.523 88.9255 126.628 104.183 118.705 115.28Z" fill="#052040"/>
<path d="M129.76 85.7815C125.614 74.5923 119.718 65.0676 106.727 56.4677C94.1968 48.145 80.7455 48.7923 80.0084 48.8848C79.9163 48.8848 79.8242 48.8848 79.8242 48.8848C80.2847 48.6999 80.7455 48.6074 81.206 48.515C84.0621 47.5903 87.7474 46.8506 91.4328 46.3881C101.199 45.001 111.057 48.3301 117.783 55.4504C117.875 55.5428 117.875 55.5428 117.967 55.6352C125.614 63.7729 129.576 73.9449 129.76 85.7815Z" fill="#052040"/>
<path d="M103.781 40.008C90.0528 37.4189 81.208 38.7133 74.851 41.1178C74.6668 40.378 74.0218 38.8985 73.469 37.6962C71.5341 40.008 69.5074 42.7823 68.2174 44.5391C64.7163 46.9436 63.2422 49.2554 63.2422 49.2554C65.2692 42.3198 71.1657 37.1413 78.3521 35.8469C80.3788 35.4769 82.59 35.292 84.9857 35.292C91.3427 35.3844 97.7 36.9564 103.781 40.008Z" fill="#052040"/>
<path d="M53.0151 57.763C42.2358 57.3932 45.829 44.8169 46.0132 44.0771C46.0132 44.1696 46.7503 53.9716 53.0151 57.763Z" fill="#052040"/>
<path d="M63.6093 35.1064C55.3171 40.1001 56.9757 52.029 56.9757 52.029C49.0522 39.9152 62.9643 35.3838 63.6093 35.1064Z" fill="#052040"/>
<path d="M49.9746 61.0918C50.5275 61.5543 51.0803 62.3865 50.4354 63.5885C50.0667 64.2358 49.5141 64.1434 48.6847 63.7736C47.5792 63.2187 40.9456 59.3349 34.957 55.3584C41.7748 57.7626 48.6847 60.352 49.7904 60.9069C49.7904 60.9069 49.8825 60.9993 49.9746 61.0918Z" fill="#052040"/>
</svg>
