<svg width="35" height="45" viewBox="0 0 35 45" fill="none" xmlns="http://www.w3.org/2000/svg">
<path d="M17.2812 4.625C16.3021 4.625 15.3229 4.83333 14.3438 5.25C13.3854 5.64583 12.4896 6.22917 11.6562 7C10.8229 7.75 10.0833 8.67708 9.4375 9.78125C8.8125 10.8646 8.35417 12.1042 8.0625 13.5L1.4375 8.78125C1.5625 7.44792 2.07292 6.25 2.96875 5.1875C3.86458 4.10417 5.02083 3.1875 6.4375 2.4375C7.875 1.6875 9.52083 1.11458 11.375 0.71875C13.2292 0.322917 15.1875 0.125 17.25 0.125C19.625 0.125 21.7604 0.395833 23.6562 0.9375C25.5521 1.45833 27.1667 2.25 28.5 3.3125C29.8333 4.35417 30.8542 5.65625 31.5625 7.21875C32.2917 8.76042 32.6562 10.5521 32.6562 12.5938C32.6562 13.7188 32.5104 14.8542 32.2188 16C31.9271 17.125 31.4375 18.2917 30.75 19.5C30.0833 20.7083 29.1979 21.9896 28.0938 23.3438C26.9896 24.6979 25.6354 26.1562 24.0312 27.7188C22.4271 29.2812 20.5417 30.9792 18.375 32.8125C16.2083 34.625 13.7188 36.6146 10.9062 38.7812C12.6354 38.7812 14.125 38.7812 15.375 38.7812C16.625 38.7812 17.7292 38.7812 18.6875 38.7812C19.6458 38.7812 20.5104 38.7917 21.2812 38.8125C22.0521 38.8125 22.8229 38.8125 23.5938 38.8125C24.0938 38.625 24.6354 38.3854 25.2188 38.0938C25.8021 37.8021 26.3958 37.4167 27 36.9375C27.6042 36.4375 28.1875 35.8229 28.75 35.0938C29.3333 34.3438 29.8646 33.4167 30.3438 32.3125C31.0104 32.3542 31.6458 32.4271 32.25 32.5312C32.875 32.6354 33.4688 32.7083 34.0312 32.75C34.0104 35.0833 33.9688 37.1979 33.9062 39.0938C33.8646 40.9896 33.7708 42.75 33.625 44.375C33 44.5 32.3229 44.6042 31.5938 44.6875C30.8646 44.7708 30.0312 44.8438 29.0938 44.9062C28.1771 44.9479 27.1354 44.9792 25.9688 45C24.8021 45 23.4792 45 22 45H4.34375C3.73958 45 3.21875 44.9583 2.78125 44.875C2.36458 44.7708 2.02083 44.6146 1.75 44.4062C1.47917 44.1979 1.27083 43.9271 1.125 43.5938C1 43.2604 0.90625 42.8438 0.84375 42.3438C0.84375 42.0104 0.864583 41.6562 0.90625 41.2812C0.96875 40.9062 1.04167 40.5 1.125 40.0625C2.875 38.375 4.52083 36.7812 6.0625 35.2812C7.625 33.7812 9.10417 32.3542 10.5 31C11.8958 29.625 13.2083 28.3125 14.4375 27.0625C15.6875 25.7917 16.8854 24.5625 18.0312 23.375C18.9271 22.375 19.7083 21.4167 20.375 20.5C21.0417 19.5625 21.5833 18.6354 22 17.7188C22.4167 16.7812 22.7292 15.8438 22.9375 14.9062C23.1458 13.9479 23.25 12.9375 23.25 11.875C23.25 9.54167 22.75 7.75 21.75 6.5C20.75 5.25 19.2604 4.625 17.2812 4.625Z" fill="#F6F6FE"/>
</svg>
