<svg width="33" height="47" viewBox="0 0 33 47" fill="none" xmlns="http://www.w3.org/2000/svg">
<path d="M23.1875 11.0625C23.1875 10.0417 23 9.15625 22.625 8.40625C22.25 7.63542 21.7396 7 21.0938 6.5C20.4479 5.97917 19.6979 5.59375 18.8438 5.34375C18.0104 5.07292 17.125 4.9375 16.1875 4.9375C15.1875 4.9375 14.1875 5.10417 13.1875 5.4375C12.1875 5.77083 11.2604 6.27083 10.4062 6.9375C9.57292 7.58333 8.84375 8.39583 8.21875 9.375C7.59375 10.3542 7.14583 11.4792 6.875 12.75L0.90625 8.46875C1.40625 7.07292 2.125 5.85417 3.0625 4.8125C4.02083 3.77083 5.14583 2.90625 6.4375 2.21875C7.72917 1.53125 9.17708 1.02083 10.7812 0.6875C12.3854 0.333333 14.1042 0.15625 15.9375 0.15625C17.9583 0.15625 19.8958 0.385417 21.75 0.84375C23.6042 1.28125 25.2396 1.96875 26.6562 2.90625C28.0729 3.82292 29.1979 4.97917 30.0312 6.375C30.8854 7.77083 31.3125 9.40625 31.3125 11.2812C31.3125 12.5312 31.0625 13.6979 30.5625 14.7812C30.0833 15.8646 29.3854 16.8438 28.4688 17.7188C27.5729 18.5729 26.4792 19.3229 25.1875 19.9688C23.8958 20.5938 22.4375 21.0833 20.8125 21.4375C22.7083 21.6875 24.4062 22.125 25.9062 22.75C27.4062 23.375 28.6667 24.1875 29.6875 25.1875C30.7292 26.1667 31.5208 27.3333 32.0625 28.6875C32.6042 30.0417 32.875 31.5729 32.875 33.2812C32.875 35.2604 32.4792 37.0417 31.6875 38.625C30.8958 40.2083 29.7812 41.5521 28.3438 42.6562C26.9062 43.7604 25.1667 44.6042 23.125 45.1875C21.1042 45.7917 18.8542 46.0938 16.375 46.0938C14.8125 46.0938 13.2917 45.9688 11.8125 45.7188C10.3542 45.4688 8.96875 45.125 7.65625 44.6875C6.36458 44.2292 5.1875 43.6979 4.125 43.0938C3.0625 42.4896 2.15625 41.8229 1.40625 41.0938C1.42708 40.5312 1.44792 39.9479 1.46875 39.3438C1.48958 38.7396 1.52083 38.0938 1.5625 37.4062C1.60417 36.6979 1.65625 35.9167 1.71875 35.0625C1.80208 34.2083 1.90625 33.25 2.03125 32.1875L6.875 32.7812C7.02083 34.3854 7.36458 35.7396 7.90625 36.8438C8.44792 37.9271 9.10417 38.8021 9.875 39.4688C10.6667 40.1354 11.5417 40.625 12.5 40.9375C13.4792 41.2292 14.4792 41.375 15.5 41.375C16.7708 41.375 17.8958 41.1667 18.875 40.75C19.875 40.3333 20.7083 39.7604 21.375 39.0312C22.0625 38.2812 22.5833 37.3958 22.9375 36.375C23.2917 35.3333 23.4688 34.1979 23.4688 32.9688C23.4688 30.0521 22.5 27.9167 20.5625 26.5625C18.625 25.1875 15.8854 24.5 12.3438 24.5H9.40625C9.42708 23.7708 9.44792 23.0208 9.46875 22.25C9.51042 21.4792 9.59375 20.7917 9.71875 20.1875L12.3438 20.0312C13.4896 19.9688 14.6979 19.7292 15.9688 19.3125C17.2396 18.875 18.4062 18.2812 19.4688 17.5312C20.5521 16.7604 21.4375 15.8333 22.125 14.75C22.8333 13.6667 23.1875 12.4375 23.1875 11.0625Z" fill="#F6F6FE"/>
</svg>
