<svg width="27" height="21" viewBox="0 0 27 21" fill="none" xmlns="http://www.w3.org/2000/svg">
<path d="M4.27581 10.2535C4.27581 5.2507 8.36395 1.19506 13.4069 1.19506C15.8215 1.19506 18.0169 2.12502 19.6498 3.64336C19.7736 3.75852 19.9352 3.82582 20.1043 3.82582C20.6464 3.82582 20.9317 3.20734 20.5381 2.83462C18.6834 1.07857 16.1715 0 13.4052 0C7.69795 0 3.07129 4.58986 3.07129 10.2518C3.07129 10.4316 3.07602 10.6103 3.08531 10.7878C3.10131 11.0936 3.36002 11.3248 3.66622 11.3248C4.02455 11.3248 4.30075 11.0117 4.28476 10.6538C4.27884 10.5211 4.27581 10.3877 4.27581 10.2535Z" fill="white"/>
<path d="M4.10967 11.5726L1.36404 8.98872C1.10792 8.74769 0.691291 8.75836 0.447308 9.01223C0.203438 9.26599 0.213577 9.67829 0.469696 9.91932L3.20113 12.4898C3.45724 12.7309 3.87391 12.7202 4.11778 12.4665C4.37596 12.2259 4.36578 11.8136 4.10967 11.5726Z" fill="white"/>
<path d="M4.23827 12.4785L6.8494 9.76148C7.09297 9.50803 7.08219 9.09575 6.82564 8.85432C6.5692 8.61299 6.15256 8.62302 5.90898 8.87647L3.31137 11.5794C3.0678 11.8329 3.07855 12.2452 3.33498 12.4865C3.57808 12.742 3.9947 12.7319 4.23827 12.4785Z" fill="white"/>
<path d="M22.5383 10.2519C22.5383 15.2548 18.4502 19.3104 13.4072 19.3104C10.9329 19.3104 8.68875 18.3336 7.04423 16.748C6.91981 16.628 6.75505 16.5576 6.58222 16.5576C6.04597 16.5576 5.75914 17.1665 6.14204 17.542C8.00851 19.372 10.5739 20.5019 13.4056 20.5019C19.1128 20.5019 23.7395 15.9121 23.7395 10.2502C23.7395 10.0272 23.7321 9.80603 23.7177 9.5867C23.698 9.285 23.4417 9.05859 23.1393 9.05859C22.7792 9.05859 22.5029 9.37586 22.5235 9.73542C22.5333 9.90635 22.5383 10.0785 22.5383 10.2519Z" fill="white"/>
<path d="M22.7888 8.65786L25.5344 11.2417C25.7905 11.4828 26.2071 11.4721 26.4511 11.2182C26.695 10.9645 26.6849 10.5522 26.4287 10.3111L23.6973 7.74062C23.4412 7.49959 23.0245 7.51023 22.7807 7.76399C22.5225 8.00456 22.5327 8.41683 22.7888 8.65786Z" fill="white"/>
<path d="M22.6592 7.75199L20.0481 10.469C19.8045 10.7224 19.8153 11.1347 20.0718 11.3762C20.3283 11.6175 20.7449 11.6074 20.9885 11.354L23.5861 8.65106C23.8297 8.39761 23.8189 7.98529 23.5625 7.74397C23.3194 7.48847 22.9028 7.49855 22.6592 7.75199Z" fill="white"/>
</svg>
