<svg width="20" height="22" viewBox="0 0 20 22" fill="none" xmlns="http://www.w3.org/2000/svg">
<path d="M1.23364 16.9362L9.26567 21.5734C9.49383 21.7047 9.75245 21.7738 10.0157 21.7738C10.2789 21.7738 10.5375 21.7047 10.7657 21.5734L18.7978 16.9361C19.0255 16.8041 19.2146 16.6147 19.3463 16.3867C19.4779 16.1588 19.5474 15.9003 19.5478 15.6371V6.36251C19.5474 6.09929 19.4779 5.8408 19.3463 5.61284C19.2147 5.38489 19.0255 5.19545 18.7978 5.06347L10.7657 0.42617C10.5376 0.294911 10.2789 0.22583 10.0157 0.22583C9.7525 0.22583 9.49388 0.294911 9.26572 0.42617L1.23364 5.06347C1.0059 5.19545 0.816776 5.38488 0.685166 5.61283C0.553555 5.84079 0.484067 6.09929 0.483643 6.36251V15.6371C0.484067 15.9003 0.553555 16.1588 0.685166 16.3868C0.816776 16.6147 1.0059 16.8042 1.23364 16.9362ZM10.7657 2.15825L18.0478 6.36251V14.6771L10.7657 10.5612V2.15825ZM10.0133 11.8589L17.3799 16.0227L10.0159 20.2743L2.64908 16.0213L10.0133 11.8589ZM1.98364 6.36251L9.26567 2.15825V10.5582L1.98364 14.6743V6.36251Z" fill="#00F9FF"/>
</svg>
