<svg width="24" height="24" viewBox="0 0 24 24" fill="none" xmlns="http://www.w3.org/2000/svg">
<g clip-path="url(#clip0)">
<path d="M3.23389 17.9362L11.2659 22.5734C11.4941 22.7047 11.7527 22.7738 12.0159 22.7738C12.2791 22.7738 12.5378 22.7047 12.7659 22.5734L20.798 17.9361C21.0258 17.8041 21.2149 17.6147 21.3465 17.3867C21.4781 17.1588 21.5476 16.9003 21.548 16.6371V7.36251C21.5476 7.09929 21.4781 6.8408 21.3465 6.61284C21.2149 6.38489 21.0258 6.19545 20.798 6.06347L12.766 1.42617C12.5378 1.29491 12.2792 1.22583 12.016 1.22583C11.7527 1.22583 11.4941 1.29491 11.266 1.42617L3.23389 6.06347C3.00614 6.19545 2.81702 6.38488 2.68541 6.61283C2.5538 6.84079 2.48431 7.09929 2.48389 7.36251V16.6371C2.48431 16.9003 2.5538 17.1588 2.68541 17.3868C2.81702 17.6147 3.00614 17.8042 3.23389 17.9362ZM12.7659 3.15825L20.048 7.36251V15.6771L12.7659 11.5612V3.15825ZM12.0135 12.8589L19.3802 17.0227L12.0161 21.2743L4.64932 17.0213L12.0135 12.8589ZM3.98389 7.36251L11.2659 3.15825V11.5582L3.98389 15.6743V7.36251Z" fill="#F6F6FE"/>
<line x1="-0.53033" y1="23.0971" x2="22.0971" y2="0.469695" stroke="#F6F6FE" stroke-width="1.5"/>
</g>
<defs>
<clipPath id="clip0">
<rect width="24" height="24" fill="white"/>
</clipPath>
</defs>
</svg>
