<svg width="18" height="18" viewBox="0 0 18 18" fill="none" xmlns="http://www.w3.org/2000/svg">
<g clip-path="url(#clip0_116_2)">
<path d="M9 18C13.9706 18 18 13.9706 18 9C18 4.02944 13.9706 0 9 0C4.02944 0 0 4.02944 0 9C0 13.9706 4.02944 18 9 18Z" fill="white"/>
<path d="M10.5179 8.54129L11.5073 6.86241L14.1742 11.0161L14.1755 11.8133L14.1668 6.32792C14.1605 6.19383 14.0893 6.07117 13.9757 5.99883L9.17431 3.23701C9.06206 3.18179 8.91956 3.18242 8.80745 3.23876C8.7923 3.24631 8.77804 3.25457 8.76449 3.26359L8.74773 3.27411L4.08728 5.9748L4.06922 5.98301C4.04596 5.9937 4.02243 6.00729 4.0004 6.02308C3.91201 6.08644 3.85335 6.18015 3.83437 6.28527C3.83151 6.30119 3.8294 6.3174 3.82843 6.3338L3.83576 10.8039L6.3198 6.95368C6.63257 6.44316 7.31394 6.27872 7.94651 6.28765L8.6889 6.30724L4.31453 13.3225L4.83018 13.6193L9.25692 6.31438L11.2136 6.30727L6.79824 13.7966L8.63823 14.8549L8.85807 14.9813C8.95106 15.0191 9.0607 15.0211 9.15447 14.9872L14.0233 12.1656L13.0924 12.705L10.5179 8.54129ZM10.8954 13.9782L9.037 11.0615L10.1714 9.13644L12.6121 12.9834L10.8954 13.9782Z" fill="white"/>
<path d="M9.03699 11.0613L10.8954 13.9781L12.6121 12.9832L10.1714 9.13623L9.03699 11.0613Z" fill="#000000"/>
<path d="M14.1755 11.8132L14.1742 11.016L11.5073 6.8623L10.5179 8.54118L13.0924 12.7049L14.0233 12.1655C14.1146 12.0913 14.1698 11.9825 14.1756 11.8651L14.1755 11.8132Z" fill="#000000"/>
<path d="M3.00006 12.5651L4.31455 13.3225L8.6889 6.30729L7.9465 6.2877C7.31394 6.27876 6.63254 6.44321 6.3198 6.95372L3.83575 10.8039L3.00006 12.0879V12.5651V12.5651Z" fill="#000000"/>
<path d="M11.2135 6.30737L9.25688 6.31448L4.83014 13.6194L6.37743 14.5103L6.7982 13.7967L11.2135 6.30737Z" fill="#000000"/>
<path d="M15 6.29713C14.9836 5.88793 14.7621 5.51333 14.415 5.29524L9.55073 2.4979C9.20743 2.32505 8.77858 2.32483 8.43468 2.49779C8.39402 2.5183 3.70427 5.23816 3.70427 5.23816C3.63936 5.2693 3.57684 5.30637 3.51804 5.34847C3.20824 5.5705 3.0194 5.91554 3 6.29461V12.0878L3.83569 10.8038L3.82839 6.33376C3.82937 6.31742 3.83142 6.30132 3.83433 6.28545C3.85323 6.18028 3.91195 6.08645 4.00036 6.02304C4.02242 6.00725 8.79229 3.24627 8.80744 3.23869C8.91955 3.18238 9.06205 3.18172 9.1743 3.23694L13.9757 5.99871C14.0892 6.07105 14.1605 6.19371 14.1668 6.32779V11.8651C14.161 11.9825 14.1146 12.0913 14.0233 12.1655L13.0924 12.7049L12.6121 12.9833L10.8954 13.9781L9.15443 14.9871C9.06066 15.0209 8.95102 15.019 8.85803 14.9812L6.7982 13.7965L6.37743 14.5101L8.22852 15.5759C8.28974 15.6107 8.34427 15.6416 8.38903 15.6667C8.45832 15.7056 8.50555 15.7316 8.52223 15.7397C8.65379 15.8036 8.8431 15.8408 9.01368 15.8408C9.17008 15.8408 9.32259 15.812 9.46689 15.7555L14.5236 12.827C14.8139 12.6021 14.9846 12.263 15 11.8956V6.29713Z" fill="#000000"/>
</g>
<defs>
<clipPath id="clip0_116_2">
<rect width="18" height="18" fill="white"/>
</clipPath>
</defs>
</svg>
