<svg width="16" height="22" viewBox="0 0 16 22" fill="none" xmlns="http://www.w3.org/2000/svg">
<path d="M9 1C9 0.447715 8.55228 0 8 0C7.44772 0 7 0.447715 7 1L9 1ZM7.29289 21.7071C7.68342 22.0976 8.31658 22.0976 8.70711 21.7071L15.0711 15.3431C15.4616 14.9526 15.4616 14.3195 15.0711 13.9289C14.6805 13.5384 14.0474 13.5384 13.6569 13.9289L8 19.5858L2.34315 13.9289C1.95262 13.5384 1.31946 13.5384 0.928932 13.9289C0.538408 14.3195 0.538408 14.9526 0.928932 15.3431L7.29289 21.7071ZM7 1L7 21H9L9 1L7 1Z" fill="#64D9FE"/>
</svg>
