<svg width="17" height="24" viewBox="0 0 17 24" fill="none" xmlns="http://www.w3.org/2000/svg">
<path d="M8.90807 15.5127V14.0458C9.12773 14.1067 9.33473 14.2064 9.51928 14.3401C9.55508 14.3487 9.59245 14.3482 9.62801 14.3387C9.66358 14.3292 9.69623 14.311 9.72302 14.2858C9.74431 14.2587 9.75589 14.2252 9.75589 14.1907C9.75589 14.1562 9.74431 14.1228 9.72302 14.0956C9.4796 13.9222 9.20163 13.8033 8.90807 13.747V13.1404C8.90807 13.1031 8.89329 13.0674 8.86697 13.0411C8.84065 13.0148 8.80495 13 8.76772 13C8.7305 13 8.6948 13.0148 8.66848 13.0411C8.64216 13.0674 8.62737 13.1031 8.62737 13.1404V13.6927H8.54135C8.46748 13.6881 8.39338 13.6881 8.31951 13.6927V13.1404C8.31951 13.1031 8.30472 13.0674 8.2784 13.0411C8.25208 13.0148 8.21638 13 8.17916 13C8.14193 13 8.10623 13.0148 8.07991 13.0411C8.05359 13.0674 8.0388 13.1031 8.0388 13.1404V13.7742C7.81925 13.8096 7.6182 13.9184 7.46852 14.0829C7.31884 14.2474 7.2294 14.4578 7.21481 14.6797C7.21481 15.1324 7.59059 15.386 8.0388 15.5852V17.2151C7.74872 17.1336 7.47782 16.9951 7.24197 16.8076C7.21208 16.7894 7.17648 16.783 7.14214 16.7897C7.10781 16.7964 7.07721 16.8157 7.05635 16.8438C7.02692 16.8699 7.00762 16.9055 7.00183 16.9444C6.99603 16.9833 7.00411 17.023 7.02466 17.0566C7.32383 17.2828 7.67069 17.4376 8.0388 17.5093V18.1205C8.0388 18.1578 8.05359 18.1935 8.07991 18.2198C8.10623 18.2461 8.14193 18.2609 8.17916 18.2609C8.21638 18.2609 8.25208 18.2461 8.2784 18.2198C8.30472 18.1935 8.31951 18.1578 8.31951 18.1205V17.5501H8.5323H8.62285V18.1205C8.62285 18.1578 8.63763 18.1935 8.66395 18.2198C8.69027 18.2461 8.72597 18.2609 8.7632 18.2609C8.80042 18.2609 8.83612 18.2461 8.86244 18.2198C8.88876 18.1935 8.90355 18.1578 8.90355 18.1205V17.5274C9.16693 17.5136 9.41609 17.4037 9.60383 17.2184C9.79157 17.0332 9.90485 16.7855 9.92222 16.5224C9.92675 15.9247 9.44684 15.6938 8.90807 15.5127ZM8.04333 15.1958C7.78979 15.0736 7.59059 14.9151 7.59059 14.6525C7.59482 14.5199 7.64089 14.3919 7.72221 14.287C7.80352 14.1822 7.91592 14.1056 8.04333 14.0685V15.1958ZM8.62737 17.2694H8.54135H8.31045V15.6576C8.37836 15.6848 8.4508 15.7029 8.51871 15.7255L8.61379 15.7572L8.62737 17.2694ZM8.62737 15.4177H8.5821C8.49155 15.3905 8.40553 15.3588 8.32403 15.3271V14.0141C8.39488 14.0094 8.46597 14.0094 8.53682 14.0141H8.62737V15.4177ZM8.90807 17.2286V15.8568C9.25216 16.0017 9.54192 16.2009 9.54192 16.5405C9.53073 16.7089 9.46142 16.8683 9.34582 16.9913C9.23022 17.1143 9.0755 17.1934 8.90807 17.2151V17.2286Z" fill="#F6F6FE"/>
<path d="M16.1625 17.0176L16.1626 17.0181C16.2488 18.1954 16.0968 19.1035 15.7859 19.8066C15.4781 20.5027 14.9965 21.0395 14.3506 21.4537C13.0245 22.3041 10.9982 22.6421 8.43719 22.6197L8.43667 22.6197C5.96976 22.5999 4.02583 22.1297 2.72398 21.2178C1.46819 20.3381 0.728049 18.9916 0.750493 16.9717L0.750495 16.9715C0.778814 14.3531 1.42999 11.732 2.71243 9.80702C3.97628 7.90995 5.84256 6.69128 8.41288 6.75219C10.999 6.81347 12.8086 8.05723 14.0481 9.93508C15.3076 11.8433 15.9733 14.4099 16.1625 17.0176ZM6.30858 18.801C6.97022 19.2431 7.74809 19.4791 8.54383 19.4791C9.61089 19.4791 10.6342 19.0552 11.3888 18.3006C12.1433 17.5461 12.5672 16.5228 12.5672 15.4557C12.5672 14.66 12.3312 13.8821 11.8891 13.2205C11.447 12.5588 10.8187 12.0431 10.0835 11.7386C9.34833 11.4341 8.53937 11.3544 7.75892 11.5097C6.97847 11.6649 6.26157 12.0481 5.6989 12.6108C5.13622 13.1735 4.75304 13.8903 4.5978 14.6708C4.44255 15.4512 4.52223 16.2602 4.82675 16.9954C5.13127 17.7305 5.64695 18.3589 6.30858 18.801Z" stroke="#F6F6FE" stroke-width="1.5" stroke-miterlimit="10"/>
<path d="M6.8291 3.71045C6.57149 3.20371 6.27391 2.71879 5.93938 2.26024C6.10414 2.31149 6.27618 2.34282 6.45712 2.34869C7.04344 2.36769 7.56418 2.11338 8.05624 1.78412C8.20124 1.68902 8.33132 1.58601 8.43363 1.505L8.44271 1.49781L8.45351 1.48926L8.464 1.48031C8.5536 1.40385 8.66754 1.36185 8.78533 1.36185C8.90312 1.36185 9.01705 1.40385 9.10666 1.48031L9.13466 1.5042L9.16486 1.52523C9.25141 1.58551 9.3332 1.65653 9.45348 1.76192L9.4588 1.76659C9.55805 1.85356 9.68482 1.96465 9.8326 2.07115C10.1595 2.36948 10.5867 2.53575 11.0309 2.53575C11.4749 2.53575 11.9018 2.36971 12.2286 2.07179C12.3588 1.97838 12.4814 1.87479 12.5953 1.76199C12.6541 1.70729 12.7171 1.65768 12.7835 1.61355C12.1597 2.28645 11.5841 3.00282 11.0611 3.75739C9.85583 3.56594 8.6354 3.62508 7.50939 3.67965C7.27834 3.69084 7.05126 3.70185 6.8291 3.71045Z" stroke="#F6F6FE" stroke-width="1.5" stroke-miterlimit="10"/>
<path d="M8.88253 4.88086C10.0325 4.88086 11.8888 4.98046 11.599 5.3336C11.015 6.01725 10.0914 5.63694 8.88253 5.63242C7.67371 5.62789 6.34716 5.92217 5.89895 5.31549C5.6273 4.9533 7.73256 4.88539 8.88253 4.88086Z" fill="#F6F6FE"/>
</svg>
