<svg width="51" height="46" viewBox="0 0 51 46" fill="none" xmlns="http://www.w3.org/2000/svg">
<path d="M25.1909 27.0926V25.419C25.4529 25.4847 25.6717 25.6071 25.8829 25.7482C25.8829 25.7482 26.0255 25.7885 26.1113 25.6885C26.1972 25.5885 26.1136 25.4728 26.1136 25.4728C25.868 25.2936 25.5418 25.1481 25.1909 25.0809V24.4195C25.1909 24.3329 25.1208 24.262 25.0334 24.262C24.9461 24.262 24.8759 24.3322 24.8759 24.4195V25.0436C24.8453 25.0421 24.8147 25.0413 24.7849 25.0413C24.6975 25.0413 24.6132 25.0458 24.5326 25.0533V24.3904C24.5326 24.3038 24.4624 24.2329 24.3751 24.2329C24.2877 24.2329 24.2175 24.3031 24.2175 24.3904V25.1085C23.6114 25.2653 23.2852 25.6788 23.2852 26.1476C23.2852 26.6724 23.7114 26.9485 24.2175 27.1471V29.0118C23.8607 28.9222 23.5816 28.752 23.3166 28.5534C23.3166 28.5534 23.2203 28.4788 23.1053 28.593C22.9911 28.7072 23.0687 28.8319 23.0687 28.8319C23.3688 29.0603 23.763 29.2574 24.2175 29.3499V30.0284C24.2175 30.115 24.2877 30.186 24.3751 30.186C24.4624 30.186 24.5326 30.1158 24.5326 30.0284V29.3954C24.6117 29.4022 24.6916 29.4059 24.7729 29.4059C24.808 29.4059 24.8423 29.4052 24.8759 29.4037V30.0561C24.8759 30.1427 24.9461 30.2136 25.0334 30.2136C25.1208 30.2136 25.1909 30.1434 25.1909 30.0561V29.3708C25.9337 29.2417 26.3397 28.7669 26.3397 28.2332C26.3397 27.5621 25.7896 27.3016 25.1909 27.0926ZM24.2175 26.738C23.9279 26.5985 23.7189 26.4178 23.7189 26.1252C23.7189 25.8587 23.8772 25.5974 24.2175 25.4623V26.738ZM24.8759 29.0789C24.8491 29.0797 24.8222 29.0804 24.7946 29.0804C24.7027 29.0804 24.6162 29.0752 24.5326 29.067V27.2606C24.6109 27.2867 24.6893 27.3121 24.7669 27.3367C24.8028 27.3486 24.8394 27.3606 24.8759 27.3725V29.0789ZM24.8759 26.9859C24.858 26.9799 24.8394 26.9739 24.8214 26.9672C24.7236 26.9344 24.6266 26.9015 24.5326 26.8672V25.3832C24.6072 25.3735 24.6871 25.3683 24.7729 25.3683C24.808 25.3683 24.8423 25.3698 24.8759 25.3713V26.9859ZM25.1909 29.0371V27.489C25.5784 27.6502 25.906 27.8756 25.906 28.2601C25.906 28.6102 25.6627 28.9252 25.1909 29.0371Z" fill="#F6F6FE"/>
<path d="M33.4083 28.9932L33.4083 28.9932C33.1939 26.0509 32.4403 23.135 31.0059 20.9591C29.5915 18.8135 27.5209 17.3851 24.5647 17.3159L33.4083 28.9932ZM33.4083 28.9932C33.506 30.3339 33.3333 31.3756 32.9744 32.1873C32.6185 32.9919 32.0615 33.6122 31.3178 34.0893C29.7961 35.0656 27.4847 35.4474 24.5882 35.4242M33.4083 28.9932L24.5882 35.4242M18.0465 20.8076C16.5866 22.9994 15.8494 25.9771 15.8169 28.9468L18.0465 20.8076ZM18.0465 20.8076C19.4877 18.6437 21.6232 17.2474 24.5646 17.3159L18.0465 20.8076ZM24.5882 35.4242C21.7956 35.4016 19.5793 34.8691 18.087 33.8231M24.5882 35.4242L18.087 33.8231M18.087 33.8231C16.6407 32.8093 15.7921 31.2568 15.8169 28.9469L18.087 33.8231ZM20.2648 27.2375C20.2648 29.6926 22.2547 31.6825 24.7098 31.6825C27.1641 31.6825 29.1548 29.6918 29.1548 27.2375C29.1548 24.7825 27.1648 22.7925 24.7098 22.7925C22.2547 22.7925 20.2648 24.7825 20.2648 27.2375Z" stroke="#F6F6FE" stroke-width="1.5"/>
<path d="M19.3333 10.1086C19.3063 10.1107 19.2785 10.1118 19.2504 10.113C19.1165 10.1184 18.9763 10.1241 18.8973 10.2333C18.7761 10.3995 18.8847 10.5291 18.9851 10.649C19.0065 10.6745 19.0275 10.6996 19.0459 10.7245L19.3018 10.5273C19.302 10.527 19.3023 10.5266 19.3025 10.5263C19.3161 10.5069 19.3419 10.4584 19.3437 10.3879C19.3454 10.3205 19.3239 10.2763 19.3188 10.2666C19.3181 10.2653 19.3177 10.2646 19.3177 10.2646C19.3178 10.2645 19.3238 10.2739 19.3445 10.2991C19.3458 10.3007 19.347 10.3022 19.3482 10.3036L19.3333 10.1086ZM19.3333 10.1086L19.3483 10.3037" stroke="#F6F6FE"/>
<path d="M26.6922 15.4579C26.9635 15.491 27.1788 15.5314 27.3208 15.576C27.0795 15.7806 26.7774 15.8386 26.3681 15.8298C26.1537 15.8251 25.9228 15.8026 25.6644 15.7773C25.6291 15.7739 25.5934 15.7704 25.5571 15.7669C25.2589 15.7381 24.9314 15.7094 24.5821 15.708L24.5811 15.958L24.5821 15.708C24.2359 15.7067 23.8809 15.7269 23.5428 15.7464L23.5282 15.7473C23.1921 15.7667 22.8744 15.785 22.5832 15.7834C22.2867 15.7818 22.0339 15.7593 21.8315 15.7029C21.7132 15.67 21.6185 15.6273 21.5437 15.575C21.7183 15.5237 21.9887 15.4809 22.3213 15.4478C23.0269 15.3776 23.9355 15.3574 24.5818 15.3556C25.2258 15.3537 26.0633 15.3813 26.6922 15.4579ZM27.4409 15.456C27.4411 15.4558 27.4411 15.4558 27.441 15.456L27.4409 15.456Z" stroke="#F6F6FE" stroke-width="0.5"/>
</svg>
