<?xml version="1.0" encoding="utf-8"?>
<!-- Generator: Adobe Illustrator 16.0.0, SVG Export Plug-In . SVG Version: 6.00 game 0)  -->
<!DOCTYPE svg PUBLIC "-//W3C//DTD SVG 1.1//EN" "http://www.w3.org/Graphics/SVG/1.1/DTD/svg11.dtd">
<svg version="1.1" id="Layer_1" xmlns="http://www.w3.org/2000/svg" xmlns:xlink="http://www.w3.org/1999/xlink" x="0px" y="0px"
	 width="512px" height="512px" viewBox="0 0 512 512" enable-background="new 0 0 512 512" xml:space="preserve">
<path fill="#FFFFFF" d="M411.099,189.412l-0.224-68.297l-53.064-16.527c-29.123-9.037-95.766-28.498-95.913-28.379
	c-0.046-0.477-43.643,11.999-86.439,25.527c-23.421,7.465-46.99,14.826-52.546,16.526l-9.912,3.17v68.129
	c0,40.79,0.312,71.536,0.782,76.646c3.441,35.682,19.044,69.519,45.121,97.647c5.947,6.405,100.096,87.604,102.751,88.604
	c1.104,0.383,83.857-69.447,97.44-82.271c23.587-22.177,42.015-54.621,48.576-85.677
	C411.099,268.084,411.338,262.111,411.099,189.412z"/>
<g>
	<path fill="#F0523E" d="M181.162,110.222c-21.831,7.031-43.8,13.966-48.978,15.567l-9.239,2.986v64.181
		c0,38.425,0.29,67.391,0.729,72.202c3.207,33.613,17.75,65.489,42.057,91.988c5.543,6.034,93.299,82.527,95.773,83.469
		c1.029,0.361,78.162-65.422,90.824-77.502c21.984-20.892,39.16-51.456,45.276-80.712c3.194-15.475,3.418-21.101,3.194-89.586
		l-0.208-64.339l-49.461-15.568c-27.146-8.514-49.496-15.475-49.634-15.361c-0.141,0.114,4.008,8.231,9.17,18.06l9.381,17.82
		l14.065,4.518c7.707,2.476,19.355,6.192,25.912,8.227l11.856,3.701l-0.299,59.077c-0.209,56.756-0.279,59.384-1.744,65.996
		c-5.123,24.212-17.098,46.438-34.485,64.043c-3.347,3.43-20.381,18.495-37.769,33.404c-17.389,14.913-32.505,28.05-33.66,29.075
		l-1.886,1.744l-33.279-28.753c-40.789-35.16-46.938-41.183-56.7-56.178c-7.421-11.338-12.972-23.792-16.441-36.894
		c-3.279-13.109-3.559-17.974-3.559-76.351v-55.079l10.406-3.276c5.626-1.831,17.317-5.531,25.826-8.23
		c5.245-1.536,10.411-3.335,15.471-5.386c0-0.212,4.082-8.218,9.103-17.753c5.025-9.534,9.103-17.541,9.103-17.683
		C221.925,97.182,221.053,97.477,181.162,110.222z"/>
	<path fill="#F0523E" d="M260.059,99.744c-0.663,1.303-19.006,36.299-40.68,77.714l-39.454,75.318l0.589,6.12
		c1.596,13.451,6.223,26.364,13.53,37.77c2.687,4.373,3.488,5.174,4.219,4.373c0.44-0.523,14.858-27.74,32.03-60.484
		c17.176-32.744,31.282-59.459,31.581-59.459c0.291,0,14.626,26.486,31.955,58.811c17.328,32.324,31.806,59.305,32.238,60.036
		c0.718,1.237,0.872,1.167,2.026-0.369c7.496-9.845,13.687-26.046,15.471-40.382l0.872-7.287l-41.324-77.063
		c-22.719-42.354-41.411-77.212-41.563-77.295C261.395,97.465,260.79,98.349,260.059,99.744z"/>
	<path fill="#F0523E" d="M241.571,285.1l-20.012,39.946l11.251,9.849c6.191,5.37,15.274,13.165,20.157,17.242l8.946,7.43
		l2.011-1.604c1.166-0.872,10.112-8.663,19.945-17.329l18.032-15.726l-19.945-39.891c-10.984-21.901-20.016-39.878-20.154-39.878
		C261.662,245.14,252.56,263.116,241.571,285.1z"/>
</g>
</svg>
