<?xml version="1.0" encoding="utf-8"?>
<!-- Generator: Adobe Illustrator 24.1.2, SVG Export Plug-In . SVG Version: 6.00 Build 0)  -->
<svg version="1.1" id="Layer_1" xmlns="http://www.w3.org/2000/svg" xmlns:xlink="http://www.w3.org/1999/xlink" x="0px" y="0px"
	 viewBox="0 0 120 120" style="enable-background:new 0 0 120 120;" xml:space="preserve">
<style type="text/css">
	.st0{fill:#8b2030;}
	.st1{fill:#FFFFFF;}
</style>
<path class="st0" d="M120,60c0,33.1-26.9,60-60,60C26.9,120,0,93.1,0,60C0,26.9,26.9,0,60,0C93.1,0,120,26.9,120,60"/>
<path class="st1" d="M66.4,62.4c-1-1.5-2.7-2.5-4.6-2.5c-2.9,0-5.3,2.2-5.5,5c0,0.2,0,0.3,0,0.5c0,1.4,1.6,22,1.7,22.8
	c0,0.4,0.2,0.8,0.3,1.2c0.4,0.9,1.2,1.6,2.1,2c3.9,1.5,23.3,8.8,26,9.7c0.1,0,0.3,0.1,0.3,0.1c0.4,0.1,0.9,0,1.3-0.2
	c1-0.5,1.5-1.7,1-2.8c-0.2-0.4-0.4-0.6-0.7-0.8c-0.5-0.3-16.2-8.6-22.5-11.9c0.1-2.1,0.2-5,0.3-8c2.3,3.3,4.3,6.2,4.5,6.4
	c0,0.1,0.1,0.1,0.1,0.2c0.6,0.7,1.4,1,2.3,1.1c2.1,0.2,22.2,0.9,23.2,0.8c0.4,0,0.8-0.2,1.2-0.5c0.8-0.7,0.8-1.9,0.1-2.6
	c-0.2-0.3-0.5-0.4-0.9-0.5c-0.4-0.1-15.5-2.8-21-3.7C73,74,67.2,63.4,66.4,62.4"/>
<path class="st1" d="M80.1,38c1.4-2.6,5.5-14.2,5.8-15.5c0-0.1,0-0.2,0-0.4c0-0.8-0.6-1.5-1.4-1.5c0-3.5-2.9-6.4-6.4-6.4
	c-3.5,0-6.4,2.9-6.4,6.4c0,3.5,2.9,6.4,6.4,6.4c0.6,0,1.3-0.1,1.8-0.3c-0.1,0.2-0.3,0.5-0.4,0.8c-0.8,1.4-2.6,4.8-3.6,6.9
	c-1.5,0.3-8.8,2.2-10.4,2.6c0.8,1.7,1.5,4.6,1,8.4c3.7-1.6,11.3-5.6,12.6-6.5C79.6,38.7,79.9,38.4,80.1,38"/>
<path class="st1" d="M59.8,35.9c3.2,0,5.9-2.6,5.9-5.9c0-3.2-2.6-5.9-5.9-5.9c-3.2,0-5.9,2.6-5.9,5.9C53.9,33.3,56.5,35.9,59.8,35.9
	"/>
<path class="st1" d="M33.5,69c1.9-0.8,15.9-7.6,17.1-8.4c0.4-0.2,0.7-0.5,0.9-0.8c1-1.1,8.4-12.8,8.9-14.1c0.2-0.5,0.3-1.1,0.3-1.7
	c0-2.6-2.1-4.7-4.7-4.7c-1.8,0-3.3,1-4.1,2.5c-0.6,1-4.1,10.5-5.3,14.2c-3.9,2.3-14.4,9-15.2,9.9c-0.3,0.3-0.5,0.8-0.5,1.3
	c0,1,0.8,1.9,1.9,1.9C33.2,69.1,33.4,69,33.5,69"/>
<path class="st1" d="M20.5,33.6c0.1,0,0.2,0,0.3,0c0.5-0.1,0.7-0.6,0.6-1.1l-4-12.5c2.5,1.1,6.4,1.4,9,1.4s6.5-0.3,9-1.4l-4,12.5
	c-0.1,0.5,0.1,0.9,0.6,1.1c0.1,0,0.2,0,0.3,0c0.4,0,0.7-0.2,0.8-0.6c0,0,5.1-13.7,5.1-15.9c0-3.4-7.4-4.3-11.7-4.3
	c-1.1,0-2.3,0.1-3.6,0.2c-0.8,0.7-1.6,1.3-2.4,2.1c1.7-0.4,3.8-0.5,6.1-0.5c5.3,0,9.6,1,9.6,2.6c0,1.6-4.4,2.6-9.6,2.6
	c-4.2,0-7.9-0.7-9.2-1.8c-0.7,0.7-1.3,1.4-1.9,2.1c1.4,4.7,4.4,13,4.4,13C19.8,33.4,20.1,33.6,20.5,33.6"/>
</svg>
