<svg width="18" height="18" viewBox="0 0 18 18" fill="none" xmlns="http://www.w3.org/2000/svg">
<g clip-path="url(#clip0_114_12)">
<path d="M9 18C13.9706 18 18 13.9706 18 9C18 4.02944 13.9706 0 9 0C4.02944 0 0 4.02944 0 9C0 13.9706 4.02944 18 9 18Z" fill="white"/>
<path fill-rule="evenodd" clip-rule="evenodd" d="M9.00003 2L5.31603 4.14439L6.67045 4.9366L9.00003 3.58439L11.3296 4.9366L12.684 4.14439L9.00003 2ZM11.3296 6.0566L12.684 6.84879V8.43318L10.3544 9.78537V12.4898L9.00003 13.282L7.64561 12.4898V9.78537L5.31603 8.43318V6.84879L6.67045 6.0566L9.00003 7.40877L11.3296 6.0566ZM12.684 9.55318V11.1376L11.3296 11.9298V10.3454L12.684 9.55318ZM11.316 13.0497L13.6456 11.6976V8.99316L15 8.201V12.4898L11.316 14.6341V13.0497ZM13.6456 6.28878L12.2912 5.4966L13.6456 4.70439L15 5.4966V7.08099L13.6456 7.8732V6.28878ZM7.64561 15.2078V13.6234L9.00003 14.4156L10.3544 13.6234V15.2078L9.00003 16L7.64561 15.2078ZM6.67045 11.9298L5.31603 11.1376V9.55318L6.67045 10.3454V11.9298ZM9.00003 6.28878L7.64561 5.4966L9.00003 4.70439L10.3544 5.4966L9.00003 6.28878ZM5.70881 5.4966L4.3544 6.28878V7.8732L3 7.08099V5.4966L4.3544 4.70439L5.70881 5.4966ZM3 8.201L4.3544 8.99316V11.6976L6.68397 13.0497V14.6341L3 12.4898V8.201Z" fill="#04045A"/>
</g>
<defs>
<clipPath id="clip0_114_12">
<rect width="18" height="18" fill="white"/>
</clipPath>
</defs>
</svg>
