<?xml version="1.0" standalone="no"?>
<!DOCTYPE svg PUBLIC "-//W3C//DTD SVG 20010904//EN"
 "http://www.w3.org/TR/2001/REC-SVG-20010904/DTD/svg10.dtd">
<svg version="1.0" xmlns="http://www.w3.org/2000/svg"
 width="18" height="18" viewBox="0 0 256.000000 256.000000"
 preserveAspectRatio="xMidYMid meet">

<g transform="translate(0.000000,256.000000) scale(0.100000,-0.100000)"
fill="#ffffff" stroke="none">
<path d="M1140 2554 c-496 -63 -904 -389 -1068 -854 -52 -149 -66 -237 -66
-420 0 -183 14 -271 66 -420 109 -308 334 -568 618 -714 103 -53 226 -97 340
-122 119 -26 381 -26 500 0 450 97 807 408 958 836 52 149 66 237 66 420 0
183 -14 271 -66 420 -109 308 -334 569 -618 714 -186 96 -339 135 -550 140
-80 2 -161 2 -180 0z m923 -755 c53 -39 97 -72 97 -75 0 -3 -21 -68 -46 -145
l-46 -140 -140 -70 -141 -70 96 -70 95 -69 -50 -153 c-28 -83 -51 -153 -52
-153 0 -1 -65 -34 -143 -73 l-143 -71 -525 0 c-397 0 -525 3 -525 12 0 11 49
169 162 518 114 356 120 371 131 362 7 -5 49 -37 95 -71 45 -34 82 -63 82 -64
0 -1 -38 -119 -85 -261 -46 -143 -82 -263 -79 -268 3 -4 189 -8 414 -8 l408 0
46 138 c25 75 46 143 46 150 0 9 -66 12 -294 12 l-295 0 28 83 28 82 298 5
298 5 32 95 c17 52 35 107 39 122 l6 28 -737 2 -736 3 144 107 144 107 626 1
625 0 97 -71z"/>
</g>
</svg>
