<svg width="254" height="469" viewBox="0 0 254 469" fill="none" xmlns="http://www.w3.org/2000/svg">
<path d="M88.1846 188.965V163.208C97.1756 169.764 107.666 173.042 119.656 173.042C127.211 173.042 133.096 171.419 137.311 168.172C141.526 164.926 143.633 160.398 143.633 154.591C143.633 148.596 141.026 143.976 135.813 140.729C130.598 137.483 123.433 135.858 114.317 135.858H101.86V113.192H113.381C130.863 113.192 139.607 107.384 139.607 95.77C139.607 84.844 132.894 79.3789 119.469 79.3789C110.478 79.3789 101.735 82.282 93.2426 88.09V63.9249C102.671 59.1799 113.662 56.8059 126.213 56.8059C139.949 56.8059 150.643 59.897 158.292 66.079C165.94 72.261 169.766 80.2849 169.766 90.1499C169.766 107.697 160.869 118.686 143.073 123.12V123.588C152.563 124.775 160.056 128.225 165.552 133.938C171.046 139.652 173.795 146.662 173.795 154.965C173.795 167.516 169.205 177.444 160.026 184.75C150.846 192.056 138.17 195.709 121.999 195.709C108.135 195.709 96.8626 193.461 88.1846 188.965Z" fill="#FFFFFF"/>
<path d="M253.512 126.756C253.512 56.751 196.761 0 126.756 0C56.75 0 0 56.751 0 126.756C0 170.352 22.011 208.804 55.524 231.613L19.425 456.345C19.425 461.193 21.365 466.039 26.214 467.979C28.153 468.949 30.092 468.949 32.03 468.949C34.937 468.949 36.878 467.979 39.787 466.04L126.075 398.173L212.365 466.04C216.243 468.949 221.091 469.919 225.937 467.01C229.817 465.072 232.725 460.223 232.725 455.376L200.219 230.062C232.476 207.083 253.512 169.376 253.512 126.756ZM28.686 126.147C28.686 71.817 72.731 27.772 127.061 27.772C181.391 27.772 225.436 71.817 225.436 126.147C225.436 180.477 181.391 224.521 127.061 224.521C72.731 224.521 28.686 180.477 28.686 126.147ZM204.61 430.167L132.863 373.934C128.016 370.056 122.198 370.056 118.321 373.934L46.575 430.167L77.477 243.575C92.626 249.973 109.278 253.512 126.756 253.512C145.069 253.512 162.473 249.621 178.194 242.632L204.61 430.167Z" fill="#FFFFFF"/>
</svg>
