<svg width="355" height="109" viewBox="0 0 355 109" fill="none" xmlns="http://www.w3.org/2000/svg">
<g clip-path="url(#clip0_2844_3577)">
<path d="M121.648 53.4075C121.546 50.8913 121.945 48.3798 122.824 46.018C123.703 43.6561 125.044 41.4905 126.769 39.6463C128.494 37.8021 130.57 36.3157 132.876 35.2728C135.182 34.23 137.673 33.6513 140.205 33.5703H140.992C150.779 33.5703 156.555 39.2926 158.263 45.9876L152.18 48.0095C151.634 45.5146 150.203 43.2982 148.149 41.7645C146.095 40.2308 143.555 39.4821 140.992 39.655C134.659 39.655 128.307 44.2519 128.307 53.522C128.307 62.792 134.506 67.2173 141.069 67.2173C143.645 67.2872 146.169 66.4964 148.24 64.9714C150.31 63.4464 151.805 61.2753 152.487 58.8055L158.455 60.7129C157.425 64.4805 155.134 67.7864 151.959 70.0855C148.784 72.3845 144.916 73.5392 140.992 73.3592C135.951 73.4511 131.08 71.5498 127.449 68.0732C123.818 64.5966 121.725 59.8292 121.629 54.819C121.61 54.3612 121.629 53.8844 121.648 53.4075Z" fill="white"/>
<path d="M170.294 72.4819H164V33.4561H170.294V48.7154C171.208 47.6382 172.357 46.7826 173.655 46.214C174.952 45.6455 176.362 45.3789 177.779 45.4347C184.284 45.4347 187.374 50.0697 187.374 55.8492V72.4819H181.31V56.9555C181.491 55.6319 181.143 54.2904 180.339 53.22C179.534 52.1496 178.339 51.4361 177.011 51.2332C176.635 51.1949 176.255 51.1949 175.879 51.2332C174.423 51.2332 173.027 51.808 171.998 52.831C170.969 53.8541 170.39 55.2417 170.39 56.6885C170.381 56.8473 170.381 57.0065 170.39 57.1653L170.294 72.4819Z" fill="white"/>
<path d="M201.498 57.4518L208.253 56.4027C209.788 56.212 210.172 55.4299 210.172 54.4953C210.172 52.2827 208.675 50.5088 205.183 50.5088C203.864 50.4028 202.556 50.8179 201.543 51.6642C200.53 52.5105 199.893 53.7196 199.771 55.0294V55.3155L194.014 54.0375C194.494 49.4978 198.639 45.4541 205.125 45.4541C213.262 45.4541 216.352 50.0319 216.352 55.3727V68.4004C216.345 69.812 216.454 71.2218 216.678 72.6158H210.921C210.713 71.5094 210.63 70.3835 210.671 69.2588C209.797 70.5955 208.586 71.6811 207.159 72.4074C205.731 73.1337 204.136 73.4752 202.535 73.3979C200.347 73.5774 198.176 72.887 196.5 71.4781C194.823 70.0693 193.777 68.0569 193.592 65.8826C193.592 65.7491 193.592 65.6156 193.592 65.5011C193.496 60.6753 196.969 58.0813 201.498 57.4518ZM210.211 61.6672V60.4655L203.321 61.4955C202.386 61.525 201.498 61.9126 200.844 62.5773C200.19 63.242 199.819 64.1324 199.809 65.0624C199.817 65.5233 199.917 65.978 200.103 66.4002C200.289 66.8224 200.557 67.2035 200.893 67.5213C201.229 67.8391 201.625 68.0873 202.059 68.2513C202.492 68.4153 202.954 68.492 203.417 68.4767H203.705C204.491 68.5584 205.285 68.4849 206.041 68.2603C206.798 68.0356 207.503 67.6644 208.115 67.168C208.726 66.6716 209.233 66.0597 209.606 65.3677C209.979 64.6757 210.211 63.9172 210.287 63.1359C210.315 62.6443 210.283 62.1512 210.191 61.6672H210.211Z" fill="white"/>
<path d="M227.061 32.9219C227.602 32.9144 228.139 33.0131 228.641 33.2125C229.144 33.4118 229.602 33.7079 229.988 34.0836C230.375 34.4594 230.684 34.9074 230.896 35.402C231.108 35.8966 231.22 36.428 231.225 36.9657C231.225 37.7705 230.986 38.5574 230.537 39.2274C230.088 39.8974 229.45 40.4205 228.703 40.7311C227.956 41.0416 227.133 41.1257 226.338 40.9728C225.543 40.8199 224.811 40.4368 224.235 39.8716C223.658 39.3065 223.263 38.5845 223.098 37.7965C222.933 37.0085 223.006 36.1896 223.308 35.4428C223.61 34.6961 224.127 34.0547 224.795 33.5994C225.463 33.144 226.251 32.8951 227.061 32.8838V32.9219ZM223.99 72.5964V46.2358H230.285V72.4819L223.99 72.5964Z" fill="white"/>
<path d="M244.619 72.4819H238.344V46.2357H244.465V49.7263C245.264 48.386 246.41 47.2838 247.784 46.5354C249.158 45.787 250.71 45.4199 252.276 45.4728C258.724 45.4728 261.871 50.1078 261.871 55.8873V72.4819H255.596V56.9555C255.596 53.7319 254.118 51.1187 250.165 51.1187C249.434 51.1237 248.711 51.2718 248.038 51.5544C247.365 51.837 246.754 52.2486 246.241 52.7658C245.728 53.283 245.322 53.8956 245.047 54.5687C244.772 55.2417 244.633 55.962 244.638 56.6884C244.638 56.8982 244.638 57.1081 244.638 57.3179L244.619 72.4819Z" fill="white"/>
<path d="M269.469 72.4819V33.4561H275.763V72.4819H269.469Z" fill="white"/>
<path d="M286.99 32.9219C287.8 32.9181 288.593 33.1537 289.268 33.5987C289.943 34.0436 290.47 34.678 290.782 35.4211C291.094 36.1643 291.176 36.9828 291.019 37.7726C290.862 38.5625 290.473 39.2882 289.9 39.8575C289.327 40.4269 288.597 40.8142 287.802 40.9704C287.007 41.1265 286.184 41.0445 285.436 40.7346C284.689 40.4247 284.05 39.901 283.603 39.23C283.155 38.5589 282.918 37.7708 282.922 36.9657C282.932 35.8963 283.364 34.8735 284.125 34.1173C284.885 33.3611 285.914 32.9319 286.99 32.9219V32.9219ZM283.901 72.5963V46.2357H290.137V72.4819L283.901 72.5963Z" fill="white"/>
<path d="M304.572 72.4825H298.277V46.2364H304.399V49.7269C305.199 48.388 306.345 47.2869 307.719 46.5387C309.093 45.7905 310.644 45.4226 312.21 45.4734C318.658 45.4734 321.805 50.1084 321.805 55.8879V72.4825H315.51V56.9561C315.692 55.6325 315.343 54.291 314.539 53.2206C313.735 52.1502 312.54 51.4367 311.212 51.2338C310.829 51.1956 310.443 51.1956 310.06 51.2338C308.594 51.2489 307.193 51.8383 306.162 52.874C305.131 53.9098 304.553 55.3081 304.553 56.7653C304.533 56.9874 304.533 57.2108 304.553 57.4329L304.572 72.4825Z" fill="white"/>
<path d="M343.275 57.3179L354.348 72.5773H346.672L338.996 61.7622L335.752 65.1574V72.4819H329.516V33.4561H335.752V56.8411L345.885 46.2358H354.233L343.275 57.3179Z" fill="white"/>
<path d="M47.1315 22.8891L74.3435 38.4155V69.621L47.2083 85.2428L20.0155 69.7545V38.5681L47.1315 22.8891ZM47.1315 0L37.1525 5.72227L9.97899 21.4013L0 27.1236V81.2372L9.97899 86.9594L37.1909 102.486L47.1699 108.208L57.1489 102.486L84.2649 86.845L94.2439 81.1227V26.9328L84.2649 21.2106L57.0721 5.72227L47.0931 0H47.1315Z" fill="white"/>
</g>
<defs>
<clipPath id="clip0_2844_3577">
<rect width="354.35" height="108.17" fill="white"/>
</clipPath>
</defs>
</svg>
