<svg width="12" height="9" viewBox="0 0 12 9" fill="none" xmlns="http://www.w3.org/2000/svg">
<path d="M11.765 0.234982C11.8395 0.30928 11.8986 0.397543 11.9389 0.494716C11.9792 0.591888 12 0.696061 12 0.801267C12 0.906474 11.9792 1.01065 11.9389 1.10782C11.8986 1.20499 11.8395 1.29325 11.765 1.36755L4.56648 8.56609C4.49218 8.64057 4.40392 8.69967 4.30675 8.73999C4.20958 8.78031 4.1054 8.80107 4.0002 8.80107C3.89499 8.80107 3.79082 8.78031 3.69365 8.73999C3.59647 8.69967 3.50821 8.64057 3.43391 8.56609L0.234563 5.36674C0.0843746 5.21655 0 5.01285 0 4.80045C0 4.58806 0.0843746 4.38436 0.234563 4.23417C0.384751 4.08398 0.58845 3.99961 0.800848 3.99961C1.01325 3.99961 1.21694 4.08398 1.36713 4.23417L4.0002 6.86883L10.6324 0.234982C10.7067 0.160496 10.795 0.1014 10.8922 0.0610777C10.9894 0.0207556 11.0935 0 11.1987 0C11.3039 0 11.4081 0.0207556 11.5053 0.0610777C11.6025 0.1014 11.6907 0.160496 11.765 0.234982Z" fill="#F6F6FE"/>
</svg>
