<svg width="43" height="36" viewBox="0 0 43 36" fill="none" xmlns="http://www.w3.org/2000/svg">
<path d="M40.5098 0.802644C40.0317 0.468065 39.4923 0.23097 38.9224 0.104902C38.3526 -0.0211666 37.7635 -0.0337385 37.1889 0.067905C36.6142 0.169549 36.0651 0.383415 35.5731 0.697289C35.0811 1.01116 34.6558 1.41889 34.3214 1.89719L17.4271 26.0245L6.34995 18.4579C5.46153 17.8502 4.36807 17.6203 3.31014 17.8188C2.25221 18.0173 1.31646 18.6279 0.708741 19.5163C0.101026 20.4047 -0.128873 21.4982 0.0696201 22.5561C0.268113 23.6141 0.878738 24.5498 1.76716 25.1575L16.6155 35.2995C17.0728 35.6116 17.5896 35.8261 18.1336 35.9294C18.6776 36.0326 19.237 36.0226 19.7769 35.8998C20.3528 35.7991 20.9031 35.5858 21.3964 35.272C21.8896 34.9582 22.3161 34.5502 22.6514 34.0712L41.6051 6.9945C42.2806 6.02765 42.5446 4.83216 42.3391 3.67074C42.1336 2.50932 41.4754 1.47699 40.5092 0.800618" fill="#01D930"/>
</svg>
