<svg xmlns="http://www.w3.org/2000/svg" fill="none" viewBox="0 0 28 30" height="30" width="28">
<path fill="#00F9FF" d="M24.05 0H3.95C2.255 0 0.875 1.38 0.875 3.09V23.37C0.875 25.08 2.255 26.46 3.95 26.46H20.96L20.165 23.685L22.085 25.47L23.9 27.15L27.125 30V3.09C27.125 1.38 25.745 0 24.05 0ZM18.26 19.59C18.26 19.59 17.72 18.945 17.27 18.375C19.235 17.82 19.985 16.59 19.985 16.59C19.37 16.995 18.785 17.28 18.26 17.475C17.51 17.79 16.79 18 16.085 18.12C14.8003 18.3565 13.4828 18.3514 12.2 18.105C11.4469 17.9576 10.7088 17.7417 9.995 17.46C9.61874 17.3153 9.25287 17.1449 8.9 16.95C8.855 16.92 8.81 16.905 8.765 16.875C8.735 16.86 8.72 16.845 8.705 16.83C8.435 16.68 8.285 16.575 8.285 16.575C8.285 16.575 9.005 17.775 10.91 18.345C10.46 18.915 9.905 19.59 9.905 19.59C6.59 19.485 5.33 17.31 5.33 17.31C5.33 12.48 7.49 8.565 7.49 8.565C9.65 6.945 11.705 6.99 11.705 6.99L11.855 7.17C9.155 7.95 7.91 9.135 7.91 9.135C7.91 9.135 8.24 8.955 8.795 8.7C10.4 7.995 11.675 7.8 12.2 7.755C12.29 7.74 12.365 7.725 12.455 7.725C15.0562 7.37293 17.7015 7.8673 20 9.135C20 9.135 18.815 8.01 16.265 7.23L16.475 6.99C16.475 6.99 18.53 6.945 20.69 8.565C20.69 8.565 22.85 12.48 22.85 17.31C22.85 17.31 21.575 19.485 18.26 19.59Z"></path>
</svg>
