<svg width="27" height="30" viewBox="0 0 27 30" fill="none" xmlns="http://www.w3.org/2000/svg">
<path d="M10.4101 12.585C9.55513 12.585 8.88013 13.335 8.88013 14.25C8.88013 15.165 9.57013 15.915 10.4101 15.915C11.2651 15.915 11.9401 15.165 11.9401 14.25C11.9551 13.335 11.2651 12.585 10.4101 12.585ZM15.8851 12.585C15.0301 12.585 14.3551 13.335 14.3551 14.25C14.3551 15.165 15.0451 15.915 15.8851 15.915C16.7401 15.915 17.4151 15.165 17.4151 14.25C17.4151 13.335 16.7401 12.585 15.8851 12.585Z" fill="#00F9FF"/>
<path d="M23.175 0H3.075C1.38 0 0 1.38 0 3.09V23.37C0 25.08 1.38 26.46 3.075 26.46H20.085L19.29 23.685L21.21 25.47L23.025 27.15L26.25 30V3.09C26.25 1.38 24.87 0 23.175 0ZM17.385 19.59C17.385 19.59 16.845 18.945 16.395 18.375C18.36 17.82 19.11 16.59 19.11 16.59C18.495 16.995 17.91 17.28 17.385 17.475C16.635 17.79 15.915 18 15.21 18.12C13.9253 18.3565 12.6078 18.3514 11.325 18.105C10.5719 17.9576 9.83381 17.7417 9.12 17.46C8.74374 17.3153 8.37787 17.1449 8.025 16.95C7.98 16.92 7.935 16.905 7.89 16.875C7.86 16.86 7.845 16.845 7.83 16.83C7.56 16.68 7.41 16.575 7.41 16.575C7.41 16.575 8.13 17.775 10.035 18.345C9.585 18.915 9.03 19.59 9.03 19.59C5.715 19.485 4.455 17.31 4.455 17.31C4.455 12.48 6.615 8.565 6.615 8.565C8.775 6.945 10.83 6.99 10.83 6.99L10.98 7.17C8.28 7.95 7.035 9.135 7.035 9.135C7.035 9.135 7.365 8.955 7.92 8.7C9.525 7.995 10.8 7.8 11.325 7.755C11.415 7.74 11.49 7.725 11.58 7.725C14.1812 7.37293 16.8265 7.8673 19.125 9.135C19.125 9.135 17.94 8.01 15.39 7.23L15.6 6.99C15.6 6.99 17.655 6.945 19.815 8.565C19.815 8.565 21.975 12.48 21.975 17.31C21.975 17.31 20.7 19.485 17.385 19.59Z" fill="#00F9FF"/>
</svg>
