<svg width="20" height="20" viewBox="0 0 20 20" fill="none" xmlns="http://www.w3.org/2000/svg">
<circle cx="10" cy="10" r="7" stroke="#F6F6FE" stroke-width="2"/>
<path d="M12.8008 11.3457C12.8008 11.9121 12.5938 12.3789 12.1797 12.7461C11.7656 13.1133 11.168 13.3398 10.3867 13.4258V14.6973H9.60742V13.4609C8.63867 13.4453 7.84375 13.2969 7.22266 13.0156V11.7793C7.55859 11.9434 7.95117 12.082 8.40039 12.1953C8.84961 12.3047 9.25195 12.3613 9.60742 12.3652V10.1738L9.11523 9.99219C8.47461 9.74609 8.00586 9.45312 7.70898 9.11328C7.41602 8.76953 7.26953 8.3457 7.26953 7.8418C7.26953 7.30273 7.47852 6.85938 7.89648 6.51172C8.31836 6.16406 8.88867 5.95312 9.60742 5.87891V4.89453H10.3867V5.86133C11.1797 5.88867 11.9316 6.04883 12.6426 6.3418L12.2148 7.41406C11.6016 7.17188 10.9922 7.02734 10.3867 6.98047V9.11328L10.832 9.2832C11.5742 9.56836 12.0879 9.86914 12.373 10.1855C12.6582 10.502 12.8008 10.8887 12.8008 11.3457ZM11.418 11.4336C11.418 11.207 11.3379 11.0215 11.1777 10.877C11.0215 10.7285 10.7578 10.5859 10.3867 10.4492V12.3184C11.0742 12.2129 11.418 11.918 11.418 11.4336ZM8.64648 7.83008C8.64648 8.05273 8.71484 8.23828 8.85156 8.38672C8.99219 8.53516 9.24414 8.68164 9.60742 8.82617V7.00391C9.29492 7.05078 9.05664 7.14648 8.89258 7.29102C8.72852 7.43555 8.64648 7.61523 8.64648 7.83008Z" fill="#F6F6FE"/>
</svg>
