<svg width="20" height="20" viewBox="0 0 20 20" fill="none" xmlns="http://www.w3.org/2000/svg">
<circle cx="10.0715" cy="9.99922" r="9.8" fill="white"/>
<mask id="path-2-inside-1_1788_5348" fill="white">
<path fill-rule="evenodd" clip-rule="evenodd" d="M15.993 8.94829V8.97336V8.99844V9.02351V9.04858C15.9791 9.06112 15.9791 9.06112 15.9791 9.07366C15.9651 9.08619 15.9651 9.08619 15.9651 9.09873C15.9651 9.105 15.9616 9.10813 15.9581 9.11127C15.9547 9.1144 15.9512 9.11754 15.9512 9.12381C15.9512 9.13007 15.9477 9.13321 15.9442 9.13634C15.9407 9.13948 15.9372 9.14261 15.9372 9.14888L15.9233 9.16142L15.8953 9.18649L15.8814 9.19903C15.8744 9.19903 15.8709 9.20216 15.8674 9.20529C15.8639 9.20843 15.8604 9.21156 15.8535 9.21156L10.6615 11.932H10.6475C10.6405 11.932 10.6336 11.9352 10.6266 11.9383C10.6196 11.9414 10.6126 11.9446 10.6057 11.9446H10.5917C10.5638 11.9571 10.5498 11.9571 10.5219 11.9571C10.508 11.9571 10.4975 11.954 10.487 11.9508C10.4765 11.9477 10.4661 11.9446 10.4521 11.9446H10.4382C10.4242 11.9446 10.4103 11.9446 10.3963 11.932H10.3823L5.17639 9.19903C5.17639 9.18649 5.16244 9.18649 5.16244 9.18649L5.12057 9.14888L5.10661 9.13634C5.09265 9.12381 5.0787 9.11127 5.06474 9.08619V9.07366C5.05078 9.06112 5.05078 9.06112 5.05078 9.04858V8.94829C5.06474 8.93575 5.06474 8.93575 5.06474 8.92322V8.89814C5.06474 8.89188 5.06823 8.88874 5.07172 8.88561C5.07521 8.88247 5.0787 8.87934 5.0787 8.87307C5.09265 8.87307 5.09265 8.86053 5.09265 8.86053L10.2846 1.11283C10.2986 1.08776 10.3126 1.07522 10.3265 1.06268H10.3405C10.3474 1.05642 10.3544 1.05328 10.3614 1.05015C10.3684 1.04701 10.3754 1.04388 10.3823 1.03761C10.3823 1.02507 10.3963 1.02507 10.3963 1.02507C10.4033 1.02507 10.4103 1.02194 10.4172 1.01881C10.4242 1.01567 10.4312 1.01254 10.4382 1.01254H10.4521C10.48 1 10.494 1 10.5219 1C10.5498 1 10.5638 1 10.5917 1.02507H10.6057C10.6196 1.02507 10.6336 1.02507 10.6475 1.03761C10.6475 1.05015 10.6615 1.05015 10.6615 1.05015C10.6754 1.05015 10.6894 1.06268 10.7034 1.07522H10.7173C10.7243 1.08149 10.7313 1.09089 10.7382 1.10029C10.7452 1.1097 10.7522 1.1191 10.7592 1.12537L15.9512 8.86053C15.9651 8.86053 15.9651 8.87307 15.9651 8.87307C15.9651 8.87934 15.9686 8.88247 15.9721 8.88561C15.9756 8.88874 15.9791 8.89188 15.9791 8.89814V8.92322C15.993 8.93575 15.993 8.93575 15.993 8.94829ZM6.73421 7.9395L10.1011 6.47855V2.82618L6.73421 7.9395ZM10.1011 10.8614V7.57427L6.48316 8.89814L10.1011 10.8614ZM14.4137 8.92322L10.9428 7.57427V10.8614L14.4137 8.92322ZM10.9428 2.82618V6.47855L14.3096 7.9395L10.9428 2.82618ZM10.5205 13.0314L15.5708 10.8401C15.6233 10.8838 15.7599 10.8541 15.865 10.8312C15.9566 10.8113 16.0243 10.7966 15.9917 10.8401L10.7285 18.0396L10.7144 18.0513L10.6864 18.0746L10.6724 18.0863C10.6724 18.098 10.6584 18.1097 10.6444 18.1097C10.6444 18.1214 10.6303 18.1214 10.6303 18.1214C10.6233 18.1214 10.6163 18.1243 10.6093 18.1272C10.6023 18.1301 10.5953 18.133 10.5883 18.133H10.5743C10.5603 18.1447 10.5463 18.1447 10.5182 18.1447C10.5112 18.1447 10.5007 18.1418 10.4902 18.1389C10.4797 18.136 10.4692 18.133 10.4622 18.133H10.4481C10.4411 18.133 10.4341 18.1301 10.4271 18.1272C10.4201 18.1243 10.4131 18.1214 10.4061 18.1214C10.4061 18.1097 10.3921 18.1097 10.3921 18.1097C10.3921 18.1025 10.3867 18.0997 10.3793 18.0959C10.3748 18.0935 10.3694 18.0908 10.3641 18.0863L10.35 18.0746C10.3414 18.0746 10.3381 18.0702 10.3335 18.064C10.3307 18.0602 10.3274 18.0557 10.322 18.0513L10.308 18.0396L5.04943 11.2053C5.01923 10.9554 4.99157 10.9135 5.00239 10.8878C5.00765 10.8754 5.02195 10.8667 5.04942 10.84C5.32863 10.1903 5.62952 10.5456 5.79544 10.7416C5.8363 10.7898 5.86897 10.8284 5.89112 10.8399L10.5205 13.0314ZM10.0997 16.3185L10.0997 14.1272L6.73285 11.9358L10.0997 16.3185ZM10.9414 14.1272L10.9414 16.3185L14.3083 11.9358L10.9414 14.1272Z"/>
</mask>
<path fill-rule="evenodd" clip-rule="evenodd" d="M15.993 8.94829V8.97336V8.99844V9.02351V9.04858C15.9791 9.06112 15.9791 9.06112 15.9791 9.07366C15.9651 9.08619 15.9651 9.08619 15.9651 9.09873C15.9651 9.105 15.9616 9.10813 15.9581 9.11127C15.9547 9.1144 15.9512 9.11754 15.9512 9.12381C15.9512 9.13007 15.9477 9.13321 15.9442 9.13634C15.9407 9.13948 15.9372 9.14261 15.9372 9.14888L15.9233 9.16142L15.8953 9.18649L15.8814 9.19903C15.8744 9.19903 15.8709 9.20216 15.8674 9.20529C15.8639 9.20843 15.8604 9.21156 15.8535 9.21156L10.6615 11.932H10.6475C10.6405 11.932 10.6336 11.9352 10.6266 11.9383C10.6196 11.9414 10.6126 11.9446 10.6057 11.9446H10.5917C10.5638 11.9571 10.5498 11.9571 10.5219 11.9571C10.508 11.9571 10.4975 11.954 10.487 11.9508C10.4765 11.9477 10.4661 11.9446 10.4521 11.9446H10.4382C10.4242 11.9446 10.4103 11.9446 10.3963 11.932H10.3823L5.17639 9.19903C5.17639 9.18649 5.16244 9.18649 5.16244 9.18649L5.12057 9.14888L5.10661 9.13634C5.09265 9.12381 5.0787 9.11127 5.06474 9.08619V9.07366C5.05078 9.06112 5.05078 9.06112 5.05078 9.04858V8.94829C5.06474 8.93575 5.06474 8.93575 5.06474 8.92322V8.89814C5.06474 8.89188 5.06823 8.88874 5.07172 8.88561C5.07521 8.88247 5.0787 8.87934 5.0787 8.87307C5.09265 8.87307 5.09265 8.86053 5.09265 8.86053L10.2846 1.11283C10.2986 1.08776 10.3126 1.07522 10.3265 1.06268H10.3405C10.3474 1.05642 10.3544 1.05328 10.3614 1.05015C10.3684 1.04701 10.3754 1.04388 10.3823 1.03761C10.3823 1.02507 10.3963 1.02507 10.3963 1.02507C10.4033 1.02507 10.4103 1.02194 10.4172 1.01881C10.4242 1.01567 10.4312 1.01254 10.4382 1.01254H10.4521C10.48 1 10.494 1 10.5219 1C10.5498 1 10.5638 1 10.5917 1.02507H10.6057C10.6196 1.02507 10.6336 1.02507 10.6475 1.03761C10.6475 1.05015 10.6615 1.05015 10.6615 1.05015C10.6754 1.05015 10.6894 1.06268 10.7034 1.07522H10.7173C10.7243 1.08149 10.7313 1.09089 10.7382 1.10029C10.7452 1.1097 10.7522 1.1191 10.7592 1.12537L15.9512 8.86053C15.9651 8.86053 15.9651 8.87307 15.9651 8.87307C15.9651 8.87934 15.9686 8.88247 15.9721 8.88561C15.9756 8.88874 15.9791 8.89188 15.9791 8.89814V8.92322C15.993 8.93575 15.993 8.93575 15.993 8.94829ZM6.73421 7.9395L10.1011 6.47855V2.82618L6.73421 7.9395ZM10.1011 10.8614V7.57427L6.48316 8.89814L10.1011 10.8614ZM14.4137 8.92322L10.9428 7.57427V10.8614L14.4137 8.92322ZM10.9428 2.82618V6.47855L14.3096 7.9395L10.9428 2.82618ZM10.5205 13.0314L15.5708 10.8401C15.6233 10.8838 15.7599 10.8541 15.865 10.8312C15.9566 10.8113 16.0243 10.7966 15.9917 10.8401L10.7285 18.0396L10.7144 18.0513L10.6864 18.0746L10.6724 18.0863C10.6724 18.098 10.6584 18.1097 10.6444 18.1097C10.6444 18.1214 10.6303 18.1214 10.6303 18.1214C10.6233 18.1214 10.6163 18.1243 10.6093 18.1272C10.6023 18.1301 10.5953 18.133 10.5883 18.133H10.5743C10.5603 18.1447 10.5463 18.1447 10.5182 18.1447C10.5112 18.1447 10.5007 18.1418 10.4902 18.1389C10.4797 18.136 10.4692 18.133 10.4622 18.133H10.4481C10.4411 18.133 10.4341 18.1301 10.4271 18.1272C10.4201 18.1243 10.4131 18.1214 10.4061 18.1214C10.4061 18.1097 10.3921 18.1097 10.3921 18.1097C10.3921 18.1025 10.3867 18.0997 10.3793 18.0959C10.3748 18.0935 10.3694 18.0908 10.3641 18.0863L10.35 18.0746C10.3414 18.0746 10.3381 18.0702 10.3335 18.064C10.3307 18.0602 10.3274 18.0557 10.322 18.0513L10.308 18.0396L5.04943 11.2053C5.01923 10.9554 4.99157 10.9135 5.00239 10.8878C5.00765 10.8754 5.02195 10.8667 5.04942 10.84C5.32863 10.1903 5.62952 10.5456 5.79544 10.7416C5.8363 10.7898 5.86897 10.8284 5.89112 10.8399L10.5205 13.0314ZM10.0997 16.3185L10.0997 14.1272L6.73285 11.9358L10.0997 16.3185ZM10.9414 14.1272L10.9414 16.3185L14.3083 11.9358L10.9414 14.1272Z" fill="white"/>
<path d="M15.993 9.04858L16.4812 9.59203L16.7235 9.37435V9.04858H15.993ZM15.9791 9.07366L16.4672 9.6171L16.7096 9.39942V9.07366H15.9791ZM15.9581 9.11127L16.4463 9.65468L16.4464 9.65461L15.9581 9.11127ZM15.9442 9.13634L15.4561 8.59286L15.456 8.59293L15.9442 9.13634ZM15.9372 9.14888L16.4253 9.69234L16.6677 9.47466V9.14888H15.9372ZM15.9233 9.16142L15.4352 8.61795L15.4351 8.61799L15.9233 9.16142ZM15.8953 9.18649L15.4072 8.64306L15.4072 8.64308L15.8953 9.18649ZM15.8814 9.19903V9.9295H16.1613L16.3695 9.74244L15.8814 9.19903ZM15.8535 9.21156V8.48109H15.6737L15.5144 8.56453L15.8535 9.21156ZM10.6615 11.932V12.6625H10.8413L11.0005 12.5791L10.6615 11.932ZM10.6266 11.9383L10.9258 12.6047L10.9259 12.6046L10.6266 11.9383ZM10.5917 11.9446V11.2141H10.4352L10.2924 11.2782L10.5917 11.9446ZM10.3963 11.932L10.8844 11.3886L10.6762 11.2016H10.3963V11.932ZM10.3823 11.932L10.0428 12.5788L10.2023 12.6625H10.3823V11.932ZM5.17639 9.19903H4.44592V9.64056L4.83686 9.84579L5.17639 9.19903ZM5.16244 9.18649L4.67431 9.72992L4.88254 9.91696H5.16244V9.18649ZM5.12057 9.14888L4.63242 9.6923L4.63243 9.69231L5.12057 9.14888ZM5.10661 9.13634L5.59475 8.59292L5.59473 8.5929L5.10661 9.13634ZM5.06474 9.08619H4.33426V9.2758L4.42648 9.44147L5.06474 9.08619ZM5.06474 9.07366H5.79521V8.74791L5.55288 8.53023L5.06474 9.07366ZM5.05078 8.94829L4.56265 8.40486L4.32031 8.62254V8.94829H5.05078ZM5.07172 8.88561L4.58362 8.34214L4.58358 8.34218L5.07172 8.88561ZM5.0787 8.87307V8.1426H4.34822V8.87307H5.0787ZM5.09265 8.86053L4.48583 8.45388L4.36218 8.63841L4.36218 8.86053L5.09265 8.86053ZM10.2846 1.11283L10.8915 1.51948L10.9082 1.49444L10.9229 1.4681L10.2846 1.11283ZM10.3265 1.06268V0.33221H10.0466L9.83838 0.519251L10.3265 1.06268ZM10.3405 1.06268V1.79316H10.6204L10.8286 1.60612L10.3405 1.06268ZM10.3614 1.05015L10.0621 0.383793L10.0621 0.3838L10.3614 1.05015ZM10.3823 1.03761L10.8705 1.58104L11.1128 1.36336V1.03761H10.3823ZM10.3963 1.02507V0.2946V1.02507ZM10.4521 1.01254V1.74301H10.6086L10.7514 1.67889L10.4521 1.01254ZM10.5917 1.02507L10.1036 1.56851L10.3118 1.75555H10.5917V1.02507ZM10.6475 1.03761H11.378V0.711858L11.1357 0.494178L10.6475 1.03761ZM10.7034 1.07522L10.2152 1.61865L10.4234 1.80569H10.7034V1.07522ZM10.7173 1.07522L11.2054 0.531788L10.9972 0.344747H10.7173V1.07522ZM10.7592 1.12537L11.3657 0.718264L11.315 0.642728L11.2473 0.581935L10.7592 1.12537ZM15.9512 8.86053L15.3447 9.26764L15.5617 9.59101H15.9512V8.86053ZM15.9651 8.87307L15.2346 8.87301V8.87307H15.9651ZM15.9721 8.88561L16.4602 8.34216L16.4602 8.34213L15.9721 8.88561ZM15.9791 8.92322H15.2486V9.24897L15.491 9.46665L15.9791 8.92322ZM10.1011 6.47855L10.3918 7.14866L10.8315 6.95787V6.47855H10.1011ZM6.73421 7.9395L6.12411 7.53779L4.77573 9.58561L7.02498 8.60961L6.73421 7.9395ZM10.1011 2.82618H10.8315V0.388513L9.49096 2.42447L10.1011 2.82618ZM10.1011 7.57427H10.8315V6.52912L9.85003 6.88828L10.1011 7.57427ZM10.1011 10.8614L9.75265 11.5034L10.8315 12.0889V10.8614H10.1011ZM6.48316 8.89814L6.23214 8.21215L4.71233 8.76829L6.13476 9.54018L6.48316 8.89814ZM10.9428 7.57427L11.2074 6.8934L10.2123 6.50667V7.57427H10.9428ZM14.4137 8.92322L14.7698 9.561L16.1247 8.80446L14.6783 8.24236L14.4137 8.92322ZM10.9428 10.8614H10.2123V12.1059L11.2989 11.4992L10.9428 10.8614ZM10.9428 6.47855H10.2123V6.95787L10.652 7.14866L10.9428 6.47855ZM10.9428 2.82618L11.5529 2.42447L10.2123 0.388513V2.82618H10.9428ZM14.3096 7.9395L14.0188 8.60961L16.2681 9.58561L14.9197 7.53779L14.3096 7.9395ZM15.5708 10.8401L16.0385 10.2789L15.6929 9.99083L15.2801 10.1699L15.5708 10.8401ZM10.5205 13.0314L10.208 13.6916L10.5074 13.8334L10.8113 13.7015L10.5205 13.0314ZM15.865 10.8312L16.0203 11.545L16.0203 11.545L15.865 10.8312ZM15.9917 10.8401L15.4072 10.4018L15.402 10.409L15.9917 10.8401ZM10.7285 18.0396L11.1962 18.6007L11.2652 18.5432L11.3182 18.4707L10.7285 18.0396ZM10.7144 18.0513L11.1821 18.6124L11.1822 18.6124L10.7144 18.0513ZM10.6864 18.0746L11.1541 18.6358L11.1541 18.6357L10.6864 18.0746ZM10.6724 18.0863L10.2047 17.5252L9.94192 17.7442V18.0863H10.6724ZM10.6444 18.1097V17.3792H9.91389V18.1097H10.6444ZM10.6093 18.1272L10.8903 18.8015L10.8905 18.8014L10.6093 18.1272ZM10.5743 18.133V17.4026H10.3098L10.1066 17.5719L10.5743 18.133ZM10.4271 18.1272L10.146 18.8014L10.1462 18.8015L10.4271 18.1272ZM10.4061 18.1214H9.67563V18.8518H10.4061V18.1214ZM10.3921 18.1097H9.66161V18.8401L10.392 18.8402L10.3921 18.1097ZM10.3793 18.0959L10.0448 18.7453L10.0449 18.7453L10.3793 18.0959ZM10.3641 18.0863L10.8318 17.5252L10.8317 17.5252L10.3641 18.0863ZM10.35 18.0746L10.8177 17.5135L10.6145 17.3442H10.35V18.0746ZM10.3335 18.064L9.74673 18.4991L9.74675 18.4991L10.3335 18.064ZM10.322 18.0513L10.7898 17.4902L10.7897 17.4902L10.322 18.0513ZM10.308 18.0396L9.72906 18.485L9.77828 18.549L9.84028 18.6007L10.308 18.0396ZM5.04943 11.2053L4.32423 11.2929L4.34827 11.4919L4.4705 11.6507L5.04943 11.2053ZM5.00239 10.8878L5.67549 11.1716L5.67549 11.1716L5.00239 10.8878ZM5.04942 10.84L5.55867 11.3637L5.66306 11.2622L5.72055 11.1284L5.04942 10.84ZM5.79544 10.7416L5.23799 11.2136L5.238 11.2136L5.79544 10.7416ZM5.89112 10.8399L5.55363 11.4878L5.56599 11.4942L5.57858 11.5002L5.89112 10.8399ZM10.0997 14.1272L10.8302 14.1272L10.8302 13.7311L10.4982 13.515L10.0997 14.1272ZM10.0997 16.3185L9.5204 16.7635L10.8301 18.4685L10.8302 16.3185L10.0997 16.3185ZM6.73285 11.9358L7.13132 11.3236L6.15357 12.3808L6.73285 11.9358ZM10.9414 16.3185L10.2109 16.3185L10.2109 18.4685L11.5207 16.7635L10.9414 16.3185ZM10.9414 14.1272L10.5429 13.515L10.2109 13.7311L10.2109 14.1272L10.9414 14.1272ZM14.3083 11.9358L14.8875 12.3808L13.9098 11.3236L14.3083 11.9358ZM16.7235 8.97336V8.94829H15.2626V8.97336H16.7235ZM16.7235 8.99844V8.97336H15.2626V8.99844H16.7235ZM16.7235 9.02351V8.99844H15.2626V9.02351H16.7235ZM16.7235 9.04858V9.02351H15.2626V9.04858H16.7235ZM16.7096 9.07366C16.7096 9.05549 16.7106 9.0996 16.7053 9.147C16.6974 9.21762 16.6758 9.31447 16.6191 9.41635C16.571 9.50287 16.5164 9.55772 16.501 9.57305C16.4861 9.58787 16.4718 9.60044 16.4812 9.59203L15.5049 8.50514C15.504 8.50599 15.4995 8.51003 15.4949 8.51425C15.4903 8.51841 15.4805 8.52744 15.4689 8.53901C15.4497 8.55826 15.3924 8.61624 15.3425 8.70589C15.2841 8.81091 15.2616 8.91089 15.2533 8.98543C15.2498 9.0167 15.2491 9.04171 15.2488 9.05325C15.2487 9.05966 15.2486 9.06489 15.2486 9.06786C15.2486 9.07068 15.2486 9.07329 15.2486 9.07366H16.7096ZM16.6956 9.09873C16.6956 9.08059 16.6966 9.12471 16.6913 9.17214C16.6835 9.24279 16.6618 9.33965 16.6051 9.44152C16.5569 9.52801 16.5023 9.58285 16.487 9.59816C16.4722 9.61296 16.4578 9.62552 16.4672 9.6171L15.491 8.53021C15.49 8.53106 15.4855 8.53509 15.4809 8.53931C15.4764 8.54347 15.4666 8.55248 15.455 8.56405C15.4358 8.58327 15.3785 8.64124 15.3286 8.73087C15.2702 8.83587 15.2477 8.93586 15.2394 9.01043C15.2359 9.04171 15.2351 9.06674 15.2349 9.07829C15.2347 9.0847 15.2347 9.08994 15.2347 9.09292C15.2346 9.09575 15.2346 9.09836 15.2346 9.09873H16.6956ZM16.4464 9.65461C16.4464 9.65458 16.4477 9.65343 16.4491 9.65213C16.4507 9.65072 16.4531 9.6485 16.4561 9.64578C16.4618 9.64046 16.471 9.63178 16.4819 9.6207C16.5034 9.59878 16.5367 9.56226 16.5704 9.51188C16.6475 9.39645 16.6956 9.25405 16.6956 9.09873H15.2346C15.2346 8.94968 15.281 8.81199 15.3555 8.70047C15.4136 8.61344 15.4833 8.55586 15.4699 8.56793L16.4464 9.65461ZM16.6816 9.12381C16.6816 9.27288 16.6353 9.41057 16.5608 9.52209C16.5026 9.60914 16.4329 9.66671 16.4463 9.65468L15.47 8.56786C15.4699 8.5679 15.4687 8.56904 15.4672 8.57035C15.4657 8.57176 15.4632 8.57398 15.4603 8.5767C15.4545 8.58203 15.4453 8.59072 15.4345 8.6018C15.4129 8.62373 15.3796 8.66025 15.3459 8.71063C15.2688 8.82607 15.2207 8.96847 15.2207 9.12381H16.6816ZM16.4323 9.67982C16.4323 9.67978 16.4336 9.67864 16.435 9.67733C16.4366 9.67591 16.439 9.67369 16.442 9.67097C16.4477 9.66563 16.457 9.65694 16.4678 9.64586C16.4894 9.62392 16.5227 9.58739 16.5564 9.537C16.6335 9.42154 16.6816 9.27913 16.6816 9.12381H15.2207C15.2207 8.97475 15.2671 8.83704 15.3416 8.7255C15.3997 8.63842 15.4695 8.58085 15.4561 8.59286L16.4323 9.67982ZM16.6677 9.14888C16.6677 9.29795 16.6213 9.43565 16.5468 9.54717C16.4887 9.63421 16.419 9.69178 16.4323 9.67975L15.456 8.59293C15.456 8.59297 15.4547 8.59412 15.4533 8.59542C15.4517 8.59684 15.4493 8.59905 15.4463 8.60178C15.4406 8.60711 15.4314 8.61579 15.4205 8.62687C15.399 8.6488 15.3656 8.68532 15.332 8.7357C15.2549 8.85114 15.2067 8.99354 15.2067 9.14888H16.6677ZM16.4114 9.70488L16.4253 9.69234L15.4491 8.60542L15.4352 8.61795L16.4114 9.70488ZM16.3835 9.72992L16.4114 9.70484L15.4351 8.61799L15.4072 8.64306L16.3835 9.72992ZM16.3695 9.74244L16.3835 9.7299L15.4072 8.64308L15.3932 8.65561L16.3695 9.74244ZM16.3555 9.74877C16.3658 9.7395 16.3059 9.79752 16.2197 9.84401C16.1147 9.90058 15.9981 9.9295 15.8814 9.9295V8.46855C15.583 8.46855 15.4008 8.64256 15.3793 8.66181L16.3555 9.74877ZM15.8535 9.94204C16.1518 9.94204 16.334 9.76805 16.3555 9.74877L15.3793 8.66181C15.369 8.67109 15.4289 8.61306 15.5152 8.56657C15.6202 8.51 15.7367 8.48109 15.8535 8.48109V9.94204ZM11.0005 12.5791L16.1925 9.85859L15.5144 8.56453L10.3225 11.285L11.0005 12.5791ZM10.6475 12.6625H10.6615V11.2016H10.6475V12.6625ZM10.9259 12.6046C10.9358 12.6002 10.9064 12.6141 10.8703 12.6262C10.831 12.6395 10.7515 12.6625 10.6475 12.6625V11.2016C10.5366 11.2016 10.4501 11.2262 10.4038 11.2417C10.3795 11.2499 10.3601 11.2578 10.3483 11.2628C10.3373 11.2674 10.3276 11.2718 10.3273 11.272L10.9259 12.6046ZM10.6057 12.675C10.7166 12.675 10.8031 12.6504 10.8493 12.6349C10.8736 12.6267 10.8931 12.6188 10.9048 12.6138C10.9158 12.6092 10.9255 12.6048 10.9258 12.6047L10.3273 11.2719C10.3175 11.2764 10.3468 11.2625 10.3829 11.2504C10.4222 11.2371 10.5017 11.2141 10.6057 11.2141V12.675ZM10.5917 12.675H10.6057V11.2141H10.5917V12.675ZM10.5219 12.6876C10.5229 12.6876 10.5905 12.6891 10.6649 12.678C10.7561 12.6643 10.8314 12.6377 10.891 12.6109L10.2924 11.2782C10.324 11.264 10.3784 11.2436 10.4487 11.2331C10.4791 11.2286 10.5031 11.2273 10.5155 11.2269C10.5248 11.2265 10.5321 11.2266 10.5219 11.2266V12.6876ZM10.2775 12.6506C10.2892 12.6541 10.3907 12.6876 10.5219 12.6876V11.2266C10.6252 11.2266 10.7057 11.2538 10.6965 11.2511L10.2775 12.6506ZM10.4521 12.675C10.3488 12.675 10.2683 12.6479 10.2775 12.6506L10.6965 11.2511C10.6848 11.2476 10.5834 11.2141 10.4521 11.2141V12.675ZM10.4382 12.675H10.4521V11.2141H10.4382V12.675ZM9.90816 12.4755C10.147 12.69 10.4233 12.675 10.4382 12.675V11.2141C10.4187 11.2141 10.4925 11.2112 10.5773 11.2303C10.6839 11.2542 10.7921 11.3057 10.8844 11.3886L9.90816 12.4755ZM10.3823 12.6625H10.3963V11.2016H10.3823V12.6625ZM4.83686 9.84579L10.0428 12.5788L10.7219 11.2853L5.51593 8.55226L4.83686 9.84579ZM5.16244 9.18649C5.16244 9.91696 5.16212 9.91696 5.1618 9.91696C5.16169 9.91696 5.16137 9.91696 5.16115 9.91696C5.16072 9.91696 5.16029 9.91696 5.15986 9.91696C5.15899 9.91695 5.15812 9.91695 5.15724 9.91694C5.15548 9.91693 5.1537 9.91691 5.1519 9.91689C5.14829 9.91683 5.14456 9.91675 5.14073 9.91664C5.1331 9.91641 5.12492 9.91604 5.11627 9.91549C5.0992 9.91439 5.07902 9.91249 5.05647 9.90911C5.01507 9.90291 4.94752 9.88916 4.87016 9.85442C4.79189 9.81927 4.68019 9.75182 4.58765 9.62714C4.48873 9.49386 4.44592 9.34093 4.44592 9.19903H5.90687C5.90687 9.05085 5.86231 8.89322 5.76077 8.75641C5.66562 8.62821 5.55043 8.55841 5.46867 8.5217C5.38782 8.48539 5.31678 8.47085 5.27276 8.46426C5.24891 8.46069 5.22764 8.45868 5.20981 8.45754C5.20077 8.45696 5.1923 8.45658 5.18445 8.45635C5.18052 8.45623 5.17672 8.45615 5.17306 8.45609C5.17123 8.45607 5.16942 8.45605 5.16765 8.45603C5.16677 8.45603 5.16589 8.45602 5.16502 8.45602C5.16459 8.45602 5.16416 8.45602 5.16372 8.45602C5.16351 8.45602 5.16319 8.45602 5.16308 8.45602C5.16276 8.45602 5.16244 8.45602 5.16244 9.18649ZM4.63243 9.69231L4.67431 9.72992L5.65057 8.64306L5.6087 8.60545L4.63243 9.69231ZM4.61847 9.67976L4.63242 9.6923L5.60871 8.60546L5.59475 8.59292L4.61847 9.67976ZM4.42648 9.44147C4.50152 9.57627 4.59064 9.65478 4.61849 9.67979L5.59473 8.5929C5.58524 8.58438 5.60736 8.60342 5.63117 8.63014C5.65895 8.66134 5.68332 8.69557 5.703 8.73092L4.42648 9.44147ZM4.33426 9.07366V9.08619H5.79521V9.07366H4.33426ZM4.32031 9.04858C4.32031 9.04896 4.32031 9.05157 4.32032 9.05439C4.32033 9.05736 4.32037 9.0626 4.32052 9.06901C4.32077 9.08056 4.32153 9.10558 4.32501 9.13685C4.33331 9.21141 4.35582 9.31139 4.41426 9.41639C4.46415 9.50602 4.52137 9.56399 4.54064 9.58323C4.55223 9.5948 4.562 9.60382 4.56655 9.60798C4.57115 9.6122 4.57565 9.61623 4.5766 9.61709L5.55288 8.53023C5.54352 8.52183 5.55786 8.53439 5.5727 8.5492C5.58805 8.56452 5.64264 8.61936 5.69079 8.70586C5.74749 8.80772 5.76912 8.90457 5.77699 8.9752C5.78227 9.02263 5.78126 9.06674 5.78126 9.04858H4.32031ZM4.32031 8.94829V9.04858H5.78126V8.94829H4.32031ZM4.33426 8.92322C4.33426 8.94137 4.33325 8.89726 4.33853 8.84983C4.3464 8.7792 4.36804 8.68234 4.42474 8.58047C4.47289 8.49397 4.5275 8.43913 4.54284 8.42381C4.55768 8.40901 4.57202 8.39644 4.56265 8.40486L5.53891 9.49173C5.53986 9.49088 5.54436 9.48684 5.54896 9.48263C5.5535 9.47847 5.56327 9.46945 5.57486 9.45788C5.59413 9.43865 5.65135 9.38068 5.70124 9.29104C5.75969 9.18604 5.78221 9.08605 5.79051 9.01149C5.79399 8.98021 5.79475 8.95519 5.795 8.94364C5.79515 8.93723 5.79519 8.932 5.7952 8.92903C5.79521 8.9262 5.79521 8.92359 5.79521 8.92322H4.33426ZM4.33426 8.89814V8.92322H5.79521V8.89814H4.33426ZM4.58358 8.34218C4.58354 8.34222 4.58226 8.34336 4.58082 8.34467C4.57926 8.34608 4.57682 8.3483 4.57388 8.35102C4.56813 8.35635 4.55892 8.36504 4.54804 8.37612C4.5265 8.39805 4.49315 8.43458 4.45949 8.48496C4.38238 8.60041 4.33426 8.74282 4.33426 8.89814H5.79521C5.79521 9.0472 5.74885 9.18491 5.67435 9.29644C5.6162 9.38349 5.54646 9.44107 5.55986 9.42903L4.58358 8.34218ZM4.34822 8.87307C4.34822 8.72401 4.39459 8.58631 4.46909 8.47477C4.52725 8.3877 4.597 8.33013 4.58362 8.34214L5.55981 9.42907C5.55986 9.42903 5.56113 9.42789 5.56258 9.42658C5.56414 9.42516 5.56658 9.42295 5.56952 9.42022C5.57528 9.41489 5.58449 9.4062 5.59537 9.39512C5.61692 9.37318 5.65028 9.33665 5.68394 9.28626C5.76106 9.1708 5.80917 9.0284 5.80917 8.87307H4.34822ZM5.09265 8.86053C4.36218 8.86053 4.36218 8.86013 4.36218 8.85974C4.36218 8.8596 4.36218 8.8592 4.36218 8.85894C4.36218 8.8584 4.36218 8.85787 4.36219 8.85733C4.36219 8.85626 4.3622 8.85518 4.36221 8.85409C4.36223 8.85191 4.36226 8.8497 4.3623 8.84745C4.36238 8.84297 4.3625 8.83834 4.36268 8.83358C4.36303 8.82409 4.36359 8.81392 4.36445 8.80316C4.36614 8.7819 4.36908 8.75695 4.37422 8.72922C4.38394 8.67683 4.40461 8.59783 4.45266 8.51152C4.50307 8.42095 4.58553 8.31983 4.71148 8.24441C4.83847 8.16837 4.96939 8.1426 5.0787 8.1426V9.60354C5.19498 9.60354 5.33113 9.57621 5.46204 9.49781C5.59193 9.42004 5.677 9.31578 5.72916 9.22209C5.77895 9.13264 5.80049 9.05051 5.81065 8.99576C5.81601 8.96687 5.81905 8.94093 5.8208 8.91898C5.82168 8.90788 5.82226 8.89745 5.82262 8.88777C5.8228 8.88292 5.82293 8.87822 5.82301 8.87369C5.82305 8.87142 5.82308 8.86919 5.8231 8.867C5.82311 8.8659 5.82311 8.86482 5.82312 8.86374C5.82312 8.8632 5.82312 8.86267 5.82312 8.86213C5.82312 8.86187 5.82313 8.86147 5.82313 8.86133C5.82313 8.86093 5.82313 8.86054 5.09265 8.86053ZM9.67782 0.706182L4.48583 8.45388L5.69947 9.26718L10.8915 1.51948L9.67782 0.706182ZM9.83838 0.519251C9.81056 0.544241 9.72142 0.622748 9.64638 0.757559L10.9229 1.4681C10.9032 1.50346 10.8789 1.53769 10.8511 1.56889C10.8273 1.59561 10.8051 1.61465 10.8146 1.60612L9.83838 0.519251ZM10.3405 0.33221H10.3265V1.79316H10.3405V0.33221ZM10.0621 0.3838C10.0573 0.385946 9.95343 0.42845 9.85234 0.519251L10.8286 1.60612C10.7415 1.68438 10.6515 1.72062 10.6607 1.71649L10.0621 0.3838ZM9.89421 0.494178C9.98134 0.41591 10.0713 0.379677 10.0621 0.383793L10.6607 1.7165C10.6655 1.71435 10.7694 1.67185 10.8705 1.58104L9.89421 0.494178ZM10.3963 1.02507C10.3963 0.2946 10.396 0.2946 10.3957 0.2946C10.3955 0.2946 10.3952 0.2946 10.395 0.294601C10.3946 0.294602 10.3941 0.294603 10.3937 0.294604C10.3928 0.294607 10.392 0.294612 10.3911 0.294618C10.3893 0.294631 10.3875 0.29465 10.3857 0.294677C10.382 0.29473 10.3782 0.294812 10.3743 0.29493C10.3664 0.295165 10.358 0.295543 10.3489 0.296123C10.3311 0.297267 10.3098 0.299274 10.286 0.302846C10.2419 0.309436 10.1709 0.323974 10.09 0.360286C10.0083 0.397006 9.8931 0.46681 9.79795 0.595014C9.69641 0.73182 9.65187 0.889445 9.65187 1.03761H11.1128C11.1128 1.17951 11.07 1.33243 10.9711 1.46571C10.8786 1.59039 10.7669 1.65784 10.6886 1.69299C10.6112 1.72774 10.5437 1.74149 10.5023 1.74769C10.4797 1.75107 10.4595 1.75298 10.4425 1.75407C10.4338 1.75463 10.4256 1.75499 10.418 1.75522C10.4142 1.75534 10.4104 1.75542 10.4068 1.75547C10.405 1.7555 10.4033 1.75552 10.4015 1.75553C10.4006 1.75554 10.3997 1.75554 10.3989 1.75554C10.3984 1.75554 10.398 1.75555 10.3976 1.75555C10.3974 1.75555 10.397 1.75555 10.3969 1.75555C10.3966 1.75555 10.3963 1.75555 10.3963 1.02507ZM10.118 0.352451C10.1081 0.356875 10.1375 0.343023 10.1736 0.330858C10.2129 0.317625 10.2924 0.2946 10.3963 0.2946V1.75555C10.5072 1.75555 10.5937 1.73095 10.6399 1.71537C10.6643 1.70718 10.6837 1.69929 10.6955 1.69434C10.7065 1.68969 10.7161 1.68533 10.7165 1.68516L10.118 0.352451ZM10.4382 0.282063C10.3272 0.282063 10.2408 0.306656 10.1945 0.322239C10.1702 0.330427 10.1508 0.338316 10.139 0.343272C10.128 0.347918 10.1183 0.352283 10.118 0.352451L10.7165 1.68516C10.7264 1.68074 10.697 1.69459 10.6609 1.70675C10.6216 1.71999 10.5421 1.74301 10.4382 1.74301V0.282063ZM10.4521 0.282063H10.4382V1.74301H10.4521V0.282063ZM10.5219 0.269526C10.521 0.269526 10.4533 0.268004 10.3789 0.279144C10.2877 0.292792 10.2124 0.319446 10.1529 0.346183L10.7514 1.67889C10.7198 1.69309 10.6654 1.71348 10.5952 1.72399C10.5647 1.72855 10.5407 1.72981 10.5284 1.73023C10.519 1.73056 10.5117 1.73047 10.5219 1.73047V0.269526ZM11.0798 0.481641C11.0224 0.430054 10.9187 0.348985 10.7663 0.303355C10.695 0.281991 10.6334 0.274583 10.591 0.271655C10.5553 0.269189 10.5225 0.269526 10.5219 0.269526V1.73047C10.5597 1.73047 10.458 1.73607 10.3473 1.70291C10.2158 1.66355 10.1331 1.59502 10.1036 1.56851L11.0798 0.481641ZM10.6057 0.2946H10.5917V1.75555H10.6057V0.2946ZM11.1357 0.494178C10.8967 0.279584 10.6205 0.2946 10.6057 0.2946V1.75555C10.6251 1.75555 10.5513 1.7584 10.4665 1.73937C10.36 1.71543 10.2518 1.664 10.1594 1.58104L11.1357 0.494178ZM10.6615 1.05015C10.6615 0.319673 10.6618 0.319673 10.6621 0.319673C10.6622 0.319674 10.6625 0.319674 10.6628 0.319674C10.6632 0.319675 10.6636 0.319676 10.6641 0.319678C10.6649 0.319681 10.6658 0.319685 10.6667 0.319692C10.6684 0.319704 10.6702 0.319723 10.672 0.319749C10.6756 0.319802 10.6794 0.319883 10.6832 0.319997C10.6908 0.320226 10.699 0.320592 10.7077 0.321148C10.7247 0.322243 10.7449 0.324152 10.7675 0.327528C10.8089 0.333727 10.8764 0.347482 10.9538 0.382229C11.0321 0.417384 11.1437 0.48484 11.2363 0.609519C11.3352 0.742799 11.378 0.895719 11.378 1.03761H9.91705C9.91705 1.18577 9.96159 1.34339 10.0631 1.4802C10.1583 1.6084 10.2735 1.67821 10.3552 1.71493C10.4361 1.75124 10.5071 1.76578 10.5511 1.77237C10.575 1.77595 10.5963 1.77795 10.6141 1.7791C10.6231 1.77968 10.6316 1.78006 10.6395 1.78029C10.6434 1.78041 10.6472 1.78049 10.6509 1.78054C10.6527 1.78057 10.6545 1.78059 10.6563 1.7806C10.6571 1.78061 10.658 1.78061 10.6589 1.78062C10.6593 1.78062 10.6598 1.78062 10.6602 1.78062C10.6604 1.78062 10.6607 1.78062 10.6608 1.78062C10.6612 1.78062 10.6615 1.78062 10.6615 1.05015ZM11.1915 0.531788C11.1896 0.530115 11.1774 0.519023 11.1634 0.507261C11.149 0.495164 11.1236 0.474461 11.0905 0.452156C11.0372 0.416222 10.8831 0.319673 10.6615 0.319673V1.78062C10.4538 1.78062 10.3137 1.69034 10.2743 1.66381C10.231 1.63464 10.1988 1.60392 10.2152 1.61865L11.1915 0.531788ZM10.7173 0.344747H10.7034V1.80569H10.7173V0.344747ZM11.3248 0.664965C11.3232 0.662817 11.3104 0.645348 11.2955 0.626925C11.2812 0.609326 11.2501 0.571903 11.2054 0.531788L10.2292 1.61865C10.209 1.60052 10.1936 1.58444 10.1832 1.57312C10.1727 1.56163 10.1648 1.55213 10.1601 1.54624C10.1521 1.53643 10.1463 1.52837 10.1517 1.53562L11.3248 0.664965ZM11.2473 0.581935C11.2675 0.600071 11.2829 0.616146 11.2933 0.627467C11.3038 0.638958 11.3117 0.648455 11.3164 0.654349C11.3244 0.664153 11.3302 0.67222 11.3248 0.664965L10.1517 1.53562C10.1533 1.53777 10.1661 1.55524 10.181 1.57366C10.1952 1.59126 10.2264 1.62868 10.271 1.6688L11.2473 0.581935ZM16.5577 8.45343L11.3657 0.718264L10.1527 1.53247L15.3447 9.26764L16.5577 8.45343ZM15.9651 8.87307C16.6956 8.87313 16.6956 8.87273 16.6956 8.87233C16.6956 8.8722 16.6956 8.8718 16.6956 8.87153C16.6956 8.871 16.6956 8.87046 16.6956 8.86992C16.6956 8.86884 16.6956 8.86776 16.6956 8.86666C16.6955 8.86447 16.6955 8.86224 16.6955 8.85998C16.6954 8.85544 16.6953 8.85075 16.6951 8.8459C16.6947 8.83622 16.6942 8.82578 16.6933 8.81468C16.6915 8.79274 16.6885 8.7668 16.6831 8.7379C16.673 8.68315 16.6514 8.60102 16.6017 8.51155C16.5495 8.41785 16.4644 8.31358 16.3345 8.2358C16.2036 8.1574 16.0674 8.13006 15.9512 8.13006V9.59101C15.8419 9.59101 15.7109 9.56524 15.5839 9.48919C15.458 9.41376 15.3755 9.31262 15.3251 9.22205C15.2771 9.13572 15.2564 9.05672 15.2467 9.00432C15.2415 8.9766 15.2386 8.95164 15.2369 8.93038C15.2361 8.91962 15.2355 8.90946 15.2351 8.89996C15.235 8.8952 15.2348 8.89058 15.2348 8.88609C15.2347 8.88385 15.2347 8.88164 15.2347 8.87946C15.2347 8.87837 15.2347 8.87729 15.2347 8.87621C15.2347 8.87568 15.2347 8.87514 15.2347 8.87461C15.2347 8.87434 15.2346 8.87394 15.2346 8.87381C15.2346 8.87341 15.2346 8.87301 15.9651 8.87307ZM16.4602 8.34213C16.4468 8.33011 16.5165 8.38768 16.5747 8.47475C16.6492 8.58629 16.6956 8.724 16.6956 8.87307H15.2346C15.2346 9.02841 15.2828 9.17082 15.3599 9.28628C15.3936 9.33667 15.4269 9.3732 15.4485 9.39513C15.4593 9.40622 15.4686 9.4149 15.4743 9.42024C15.4773 9.42296 15.4797 9.42518 15.4813 9.42659C15.4827 9.4279 15.484 9.42905 15.484 9.42909L16.4602 8.34213ZM16.7096 8.89814C16.7096 8.7428 16.6614 8.60039 16.5843 8.48494C16.5507 8.43456 16.5173 8.39803 16.4958 8.3761C16.4849 8.36502 16.4757 8.35633 16.4699 8.35101C16.467 8.34828 16.4645 8.34607 16.463 8.34465C16.4615 8.34334 16.4603 8.3422 16.4602 8.34216L15.484 9.42905C15.4974 9.44109 15.4276 9.38351 15.3695 9.29646C15.295 9.18493 15.2486 9.04722 15.2486 8.89814H16.7096ZM16.7096 8.92322V8.89814H15.2486V8.92322H16.7096ZM16.7235 8.94829C16.7235 8.94792 16.7235 8.94531 16.7235 8.94249C16.7235 8.93952 16.7234 8.93429 16.7233 8.92788C16.723 8.91634 16.7223 8.89132 16.7188 8.86005C16.7105 8.78551 16.688 8.68552 16.6296 8.58051C16.5797 8.49086 16.5224 8.43288 16.5032 8.41364C16.4916 8.40207 16.4818 8.39305 16.4773 8.38888C16.4727 8.38467 16.4682 8.38063 16.4672 8.37978L15.491 9.46665C15.5003 9.47506 15.486 9.4625 15.4711 9.44768C15.4558 9.43236 15.4012 9.37751 15.353 9.291C15.2963 9.18912 15.2747 9.09226 15.2668 9.02164C15.2616 8.97423 15.2626 8.93012 15.2626 8.94829H16.7235ZM9.81028 5.80845L6.44343 7.2694L7.02498 8.60961L10.3918 7.14866L9.81028 5.80845ZM9.37058 2.82618V6.47855H10.8315V2.82618H9.37058ZM7.3443 8.34122L10.7111 3.2279L9.49096 2.42447L6.12411 7.53779L7.3443 8.34122ZM9.37058 7.57427V10.8614H10.8315V7.57427H9.37058ZM6.73418 9.58413L10.3521 8.26025L9.85003 6.88828L6.23214 8.21215L6.73418 9.58413ZM10.4495 10.2194L6.83156 8.25611L6.13476 9.54018L9.75265 11.5034L10.4495 10.2194ZM10.6782 8.25513L14.1491 9.60408L14.6783 8.24236L11.2074 6.8934L10.6782 8.25513ZM11.6732 10.8614V7.57427H10.2123V10.8614H11.6732ZM14.0576 8.28544L10.5866 10.2236L11.2989 11.4992L14.7698 9.561L14.0576 8.28544ZM11.6732 6.47855V2.82618H10.2123V6.47855H11.6732ZM14.6004 7.2694L11.2335 5.80845L10.652 7.14866L14.0188 8.60961L14.6004 7.2694ZM10.3327 3.2279L13.6995 8.34122L14.9197 7.53779L11.5529 2.42447L10.3327 3.2279ZM15.2801 10.1699L10.2298 12.3613L10.8113 13.7015L15.8616 11.5102L15.2801 10.1699ZM15.7098 10.1174C15.6467 10.1311 15.6329 10.133 15.633 10.133C15.6346 10.1329 15.6698 10.1293 15.7237 10.1367C15.7705 10.1431 15.9046 10.1673 16.0385 10.2789L15.1031 11.4012C15.2633 11.5347 15.4342 11.5715 15.5246 11.584C15.6221 11.5974 15.7079 11.5931 15.7633 11.5881C15.8712 11.5785 15.9782 11.5541 16.0203 11.545L15.7098 10.1174ZM16.5761 11.2783C16.6021 11.2436 16.6635 11.1575 16.7003 11.0321C16.7414 10.892 16.7666 10.634 16.5912 10.3905C16.4387 10.1788 16.2309 10.1186 16.1531 10.1008C16.0626 10.0801 15.9874 10.0807 15.953 10.0817C15.8434 10.085 15.719 10.1154 15.7098 10.1174L16.0203 11.545C16.1027 11.5271 16.0579 11.5401 15.9969 11.542C15.9746 11.5427 15.9096 11.5438 15.8271 11.5249C15.7572 11.5089 15.5552 11.4518 15.4059 11.2445C15.2336 11.0054 15.2595 10.7533 15.2984 10.6207C15.3331 10.5027 15.3894 10.4256 15.4073 10.4018L16.5761 11.2783ZM11.3182 18.4707L16.5814 11.2712L15.402 10.409L10.1388 17.6085L11.3182 18.4707ZM11.1822 18.6124L11.1962 18.6007L10.2607 17.4785L10.2467 17.4902L11.1822 18.6124ZM11.1541 18.6357L11.1821 18.6124L10.2467 17.4902L10.2187 17.5135L11.1541 18.6357ZM11.1401 18.6474L11.1541 18.6358L10.2187 17.5135L10.2047 17.5252L11.1401 18.6474ZM10.6444 18.8402C10.8458 18.8402 11.0141 18.7612 11.1313 18.6635C11.2387 18.574 11.4029 18.3807 11.4029 18.0863H9.94192C9.94192 17.8036 10.0991 17.622 10.196 17.5412C10.3027 17.4523 10.4569 17.3792 10.6444 17.3792V18.8402ZM10.6303 18.1214C10.6303 18.8518 10.6306 18.8518 10.6309 18.8518C10.631 18.8518 10.6313 18.8518 10.6315 18.8518C10.6319 18.8518 10.6323 18.8518 10.6327 18.8518C10.6336 18.8518 10.6344 18.8518 10.6352 18.8518C10.6368 18.8518 10.6385 18.8518 10.6402 18.8518C10.6436 18.8517 10.6471 18.8517 10.6508 18.8515C10.6581 18.8513 10.666 18.851 10.6744 18.8505C10.6909 18.8495 10.7108 18.8478 10.733 18.8447C10.7738 18.839 10.841 18.8264 10.9184 18.7942C10.995 18.7622 11.1124 18.6981 11.2126 18.5727C11.322 18.4359 11.3748 18.2711 11.3748 18.1097H9.91389C9.91389 17.9541 9.96493 17.7937 10.0717 17.6602C10.1694 17.5381 10.2832 17.4761 10.3564 17.4456C10.4302 17.4149 10.4939 17.403 10.532 17.3976C10.553 17.3947 10.5717 17.3931 10.5875 17.3922C10.5956 17.3917 10.6031 17.3914 10.6102 17.3912C10.6138 17.3911 10.6172 17.391 10.6206 17.391C10.6222 17.3909 10.6239 17.3909 10.6255 17.3909C10.6263 17.3909 10.6271 17.3909 10.628 17.3909C10.6284 17.3909 10.6288 17.3909 10.6292 17.3909C10.6294 17.3909 10.6297 17.3909 10.6298 17.3909C10.63 17.3909 10.6303 17.3909 10.6303 18.1214ZM10.8905 18.8014C10.8999 18.7975 10.872 18.8097 10.8378 18.8204C10.8004 18.8321 10.7265 18.8518 10.6303 18.8518V17.3909C10.5272 17.3909 10.4462 17.4121 10.4019 17.426C10.3787 17.4332 10.3601 17.4402 10.3487 17.4447C10.338 17.4489 10.3287 17.4528 10.3282 17.453L10.8905 18.8014ZM10.5883 18.8635C10.6915 18.8635 10.7724 18.8423 10.8167 18.8284C10.8399 18.8212 10.8585 18.8142 10.8699 18.8097C10.8805 18.8056 10.8899 18.8017 10.8903 18.8015L10.3283 17.4529C10.3189 17.4569 10.3467 17.4447 10.3809 17.434C10.4182 17.4223 10.4922 17.4026 10.5883 17.4026V18.8635ZM10.5743 18.8635H10.5883V17.4026H10.5743V18.8635ZM10.5182 18.8752C10.5218 18.8752 10.5411 18.8753 10.5612 18.8746C10.5823 18.8739 10.6226 18.872 10.6716 18.8638C10.7936 18.8435 10.9244 18.7922 11.042 18.6942L10.1066 17.5719C10.151 17.5349 10.205 17.4996 10.2687 17.4715C10.3313 17.4438 10.3881 17.4299 10.4314 17.4227C10.4716 17.416 10.5024 17.4148 10.5125 17.4145C10.5217 17.4142 10.5287 17.4142 10.5182 17.4142V18.8752ZM10.2947 18.8427C10.2959 18.843 10.3187 18.8495 10.3436 18.8552C10.3607 18.8591 10.4301 18.8752 10.5182 18.8752V17.4142C10.5642 17.4142 10.6004 17.4188 10.6204 17.4218C10.6419 17.425 10.6584 17.4285 10.6674 17.4306C10.6827 17.4341 10.695 17.4376 10.6857 17.4351L10.2947 18.8427ZM10.4622 18.8635C10.4162 18.8635 10.38 18.859 10.36 18.856C10.3385 18.8528 10.3219 18.8492 10.313 18.8472C10.2977 18.8437 10.2854 18.8401 10.2947 18.8427L10.6857 17.4351C10.6845 17.4347 10.6617 17.4282 10.6368 17.4226C10.6197 17.4187 10.5502 17.4026 10.4622 17.4026V18.8635ZM10.4481 18.8635H10.4622V17.4026H10.4481V18.8635ZM10.1462 18.8015C10.1466 18.8017 10.1559 18.8056 10.1666 18.8097C10.178 18.8142 10.1966 18.8212 10.2197 18.8284C10.2641 18.8423 10.345 18.8635 10.4481 18.8635V17.4026C10.5443 17.4026 10.6182 17.4223 10.6555 17.434C10.6897 17.4447 10.7176 17.4569 10.7081 17.4529L10.1462 18.8015ZM10.4061 18.8518C10.31 18.8518 10.236 18.8321 10.1987 18.8204C10.1645 18.8097 10.1366 18.7975 10.146 18.8014L10.7082 17.453C10.7078 17.4528 10.6984 17.4489 10.6878 17.4447C10.6764 17.4402 10.6577 17.4332 10.6346 17.426C10.5902 17.4121 10.5093 17.3909 10.4061 17.3909V18.8518ZM10.3921 18.1097C10.392 18.8402 10.3917 18.8402 10.3914 18.8401C10.3913 18.8401 10.391 18.8401 10.3908 18.8401C10.3904 18.8401 10.39 18.8401 10.3896 18.8401C10.3888 18.8401 10.388 18.8401 10.3872 18.8401C10.3855 18.8401 10.3839 18.8401 10.3822 18.8401C10.3789 18.84 10.3754 18.84 10.3719 18.8399C10.3648 18.8397 10.3572 18.8394 10.3492 18.8389C10.3334 18.8379 10.3146 18.8363 10.2937 18.8334C10.2555 18.8281 10.1919 18.8162 10.118 18.7854C10.0449 18.7549 9.93109 18.6929 9.83346 18.5709C9.72668 18.4374 9.67563 18.2769 9.67563 18.1214H11.1366C11.1366 17.96 11.0838 17.7951 10.9744 17.6583C10.8741 17.533 10.7568 17.4689 10.6802 17.4369C10.6028 17.4047 10.5356 17.392 10.4949 17.3863C10.4726 17.3832 10.4528 17.3815 10.4362 17.3805C10.4278 17.38 10.4199 17.3797 10.4126 17.3795C10.409 17.3794 10.4054 17.3793 10.402 17.3793C10.4003 17.3792 10.3987 17.3792 10.397 17.3792C10.3962 17.3792 10.3954 17.3792 10.3946 17.3792C10.3942 17.3792 10.3938 17.3792 10.3934 17.3792C10.3932 17.3792 10.3929 17.3792 10.3928 17.3792C10.3925 17.3792 10.3922 17.3792 10.3921 18.1097ZM10.0449 18.7453C10.0512 18.7486 10.0336 18.7398 10.0141 18.7283C9.99361 18.7162 9.94707 18.6877 9.89571 18.6407C9.84079 18.5905 9.77636 18.5158 9.72828 18.412C9.67949 18.3066 9.66161 18.2017 9.66161 18.1097H11.1226C11.1226 17.8816 11.0201 17.6892 10.8813 17.5623C10.8276 17.5133 10.7784 17.4829 10.7548 17.469C10.7417 17.4613 10.731 17.4555 10.7248 17.4522C10.719 17.4492 10.7138 17.4465 10.7137 17.4464L10.0449 18.7453ZM9.89632 18.6474C9.97031 18.7091 10.0418 18.7437 10.0448 18.7453L10.7139 17.4465C10.7077 17.4434 10.7685 17.4725 10.8318 17.5252L9.89632 18.6474ZM9.88237 18.6358L9.89639 18.6475L10.8317 17.5252L10.8177 17.5135L9.88237 18.6358ZM9.74675 18.4991C9.74689 18.4993 9.74798 18.5008 9.7492 18.5024C9.7505 18.5041 9.75256 18.5069 9.75509 18.5102C9.75994 18.5165 9.76839 18.5274 9.77936 18.5403C9.80079 18.5657 9.84028 18.6092 9.89821 18.6532C10.0388 18.76 10.2005 18.8051 10.35 18.8051V17.3442C10.4113 17.3442 10.4864 17.3522 10.5681 17.3785C10.6518 17.4054 10.7234 17.4453 10.7823 17.4901C10.8786 17.5633 10.9385 17.6536 10.9202 17.6289L9.74675 18.4991ZM9.85425 18.6123C9.78685 18.5561 9.74595 18.498 9.74673 18.4991L10.9203 17.6289C10.9154 17.6224 10.8679 17.5553 10.7898 17.4902L9.85425 18.6123ZM9.84028 18.6007L9.8543 18.6124L10.7897 17.4902L10.7757 17.4785L9.84028 18.6007ZM4.4705 11.6507L9.72906 18.485L10.8869 17.5941L5.62836 10.7598L4.4705 11.6507ZM4.3293 10.604C4.2495 10.7933 4.27014 10.9598 4.27701 11.0107C4.28307 11.0557 4.29499 11.1094 4.29534 11.1111C4.30149 11.1407 4.31214 11.1928 4.32423 11.2929L5.77463 11.1177C5.76576 11.0442 5.75674 10.9834 5.74808 10.9321C5.73934 10.8804 5.73142 10.8412 5.72572 10.8138C5.7224 10.7978 5.72175 10.7949 5.7208 10.7902C5.71989 10.7856 5.72242 10.7974 5.72485 10.8155C5.72719 10.8328 5.7327 10.8783 5.72948 10.9379C5.72778 10.9695 5.7236 11.0065 5.71477 11.0473C5.70583 11.0886 5.69289 11.1303 5.67549 11.1716L4.3293 10.604ZM4.54017 10.3163C4.54214 10.3144 4.54341 10.3133 4.54239 10.3142C4.54122 10.3152 4.54073 10.3157 4.53725 10.3188C4.53482 10.321 4.5292 10.326 4.52295 10.3317C4.51296 10.3409 4.48242 10.3691 4.44942 10.4082C4.41298 10.4515 4.36623 10.5164 4.3293 10.604L5.67549 11.1716C5.64119 11.253 5.59819 11.3122 5.56677 11.3494C5.53879 11.3827 5.51453 11.4046 5.5122 11.4068C5.50979 11.409 5.50835 11.4103 5.51046 11.4084C5.51152 11.4074 5.51594 11.4035 5.52005 11.3998C5.52961 11.3912 5.54297 11.379 5.55867 11.3637L4.54017 10.3163ZM6.35289 10.2695C6.31583 10.2257 6.23605 10.13 6.13893 10.0419C6.04819 9.95956 5.87801 9.82288 5.63897 9.76423C5.35295 9.69406 5.05397 9.75643 4.80944 9.94836C4.60119 10.1118 4.46962 10.3391 4.3783 10.5516L5.72055 11.1284C5.76883 11.0161 5.77957 11.0441 5.71145 11.0976C5.67071 11.1296 5.60641 11.1665 5.52019 11.1854C5.43361 11.2042 5.3538 11.1985 5.29085 11.1831C5.18268 11.1566 5.13629 11.1048 5.15735 11.1239C5.17204 11.1373 5.19209 11.1594 5.23799 11.2136L6.35289 10.2695ZM6.22861 10.1921C6.26581 10.2115 6.29411 10.2306 6.31247 10.244C6.33135 10.2577 6.34568 10.2698 6.35492 10.2779C6.37244 10.2933 6.38273 10.3044 6.38328 10.305C6.38466 10.3065 6.38314 10.3049 6.37695 10.2977C6.37079 10.2906 6.36368 10.2822 6.35289 10.2695L5.238 11.2136C5.25446 11.2331 5.28597 11.2706 5.31732 11.304C5.3306 11.3182 5.41967 11.418 5.55363 11.4878L6.22861 10.1921ZM10.8331 12.3712L6.20366 10.1797L5.57858 11.5002L10.208 13.6916L10.8331 12.3712ZM9.36923 14.1272L9.36921 16.3185L10.8302 16.3185L10.8302 14.1272L9.36923 14.1272ZM6.33437 12.548L9.70122 14.7394L10.4982 13.515L7.13132 11.3236L6.33437 12.548ZM10.679 15.8735L7.31213 11.4908L6.15357 12.3808L9.5204 16.7635L10.679 15.8735ZM11.6719 16.3185L11.6719 14.1272L10.2109 14.1272L10.2109 16.3185L11.6719 16.3185ZM13.729 11.4908L10.3621 15.8735L11.5207 16.7635L14.8875 12.3808L13.729 11.4908ZM11.3399 14.7394L14.7067 12.548L13.9098 11.3236L10.5429 13.515L11.3399 14.7394Z" fill="#000000" mask="url(#path-2-inside-1_1788_5348)"/>
</svg>
