<?xml version="1.0" encoding="utf-8"?>
<svg id="Layer_1" data-name="Layer 1" viewBox="0 0 122.88 122.88" xmlns="http://www.w3.org/2000/svg">
  <defs>
    <style>.cls-1{fill-rule:evenodd;}</style>
  </defs>
  <title>dollar-sign</title>
  <path class="cls-1" d="M61.44,0A61.44,61.44,0,1,1,0,61.44,61.44,61.44,0,0,1,61.44,0Zm9,50.34A6.36,6.36,0,0,0,68,45.68a7.18,7.18,0,0,0-2.26-1.15l-.15,11.55,1.43.32a34.65,34.65,0,0,1,7.27,2.38,20.28,20.28,0,0,1,5.31,3.56,13.65,13.65,0,0,1,3.26,4.73,16.3,16.3,0,0,1,1.15,6,15.72,15.72,0,0,1-2.66,9,16.52,16.52,0,0,1-7.55,5.77,28.19,28.19,0,0,1-8.64,1.88l-.07,5.62H58.07l.07-5.67a29,29,0,0,1-8.3-1.92,17,17,0,0,1-8.05-6.33,19.2,19.2,0,0,1-2.95-10.76H51.69a8.37,8.37,0,0,0,1.42,4.46,7.79,7.79,0,0,0,3.51,2.71,10.87,10.87,0,0,0,1.67.54l.15-12.26-2.7-.62a25.31,25.31,0,0,1-11.35-5.36,12.66,12.66,0,0,1-4.12-10,14.93,14.93,0,0,1,2.77-9,18.33,18.33,0,0,1,7.72-6,26.32,26.32,0,0,1,8.1-2l.07-5.59H66l-.07,5.67a24.26,24.26,0,0,1,7.28,2,17.3,17.3,0,0,1,7.39,6.11,16.28,16.28,0,0,1,2.69,9.11Zm-11.71-6a7.62,7.62,0,0,0-1.08.33A5.79,5.79,0,0,0,55,46.55a4.67,4.67,0,0,0-.9,2.69,4,4,0,0,0,.51,2.21,5.25,5.25,0,0,0,1.63,1.66,10.83,10.83,0,0,0,2.31,1.16l.13-9.91Zm6.61,34.06a7.57,7.57,0,0,0,1.11-.35,6.63,6.63,0,0,0,2.94-2,4.84,4.84,0,0,0,1.05-3,4.08,4.08,0,0,0-1-2.69,7.54,7.54,0,0,0-2.91-2c-.33-.14-.69-.28-1.07-.42l-.14,10.42ZM61.44,10.48a51,51,0,1,1-51,51,51,51,0,0,1,51-51Z" style="fill: rgb(255, 255, 255);"/>
</svg>