<svg width="18" height="16" viewBox="0 0 18 16" fill="none" xmlns="http://www.w3.org/2000/svg">
<path d="M16.1441 5.43906L11.8271 4.81106L9.90011 0.900057C9.71375 0.579462 9.37093 0.382202 9.00011 0.382202C8.62929 0.382202 8.28646 0.579462 8.10011 0.900057L6.17311 4.81206L1.85611 5.43906C1.47898 5.49314 1.16535 5.75683 1.0473 6.11906C0.929241 6.4813 1.02727 6.87914 1.30011 7.14506L4.42311 10.1901L3.68611 14.4901C3.62183 14.8652 3.77609 15.2443 4.08404 15.468C4.39198 15.6917 4.80022 15.7212 5.13711 15.5441L9.00011 13.5131L12.8611 15.5421C13.198 15.7192 13.6062 15.6897 13.9142 15.466C14.2221 15.2423 14.3764 14.8632 14.3121 14.4881L13.5751 10.1881L16.7001 7.14506C16.9722 6.87935 17.0701 6.48225 16.9526 6.12052C16.835 5.75879 16.5225 5.49506 16.1461 5.44006L16.1441 5.43906Z" fill="#44E1E2"/>
</svg>