<svg width="450" height="507" viewBox="0 0 450 507" fill="none" xmlns="http://www.w3.org/2000/svg">
<path d="M346.931 476.26H97.9312C89.6469 476.26 82.9312 482.976 82.9312 491.26C82.9312 499.544 89.6469 506.26 97.9312 506.26H346.931C355.215 506.26 361.931 499.544 361.931 491.26C361.931 482.976 355.215 476.26 346.931 476.26Z" fill="#FFFFFF"/>
<path d="M247.488 76.743V226.721H215.262V113.164C213.488 114.733 211.391 116.217 208.971 117.614C206.549 119.012 203.974 120.273 201.246 121.399C198.517 122.524 195.686 123.48 192.755 124.263C189.822 125.048 186.924 125.611 184.06 125.951V98.739C192.449 96.283 200.36 93.147 207.794 89.327C215.227 85.508 221.945 81.313 227.948 76.743H247.488Z" fill="#FFFFFF"/>
<path d="M370.96 34.861V0.0150032L78.988 0V34.847H0V103.159C0 176.511 31.693 218.468 84.092 218.468L83.971 217.076C97.016 265.43 134.533 303.632 182.457 317.588C177.848 324.94 175.174 333.628 175.174 342.946C175.174 357.766 181.917 371.007 192.5 379.779H192.141C187.476 409.379 151.787 431.805 107.891 431.805C107.852 431.805 107.83 431.833 107.807 431.858C100.205 432.023 94.092 438.223 94.092 445.864C94.092 453.608 100.369 459.885 108.113 459.885C108.767 459.885 109.406 459.824 110.037 459.738C168.516 455.389 207.452 420.35 215.424 390.175C215.428 390.16 215.431 390.146 215.435 390.132V364.619C206.5 361.47 200.095 352.958 200.095 342.945C200.095 334.333 204.841 326.841 211.853 322.907C212.993 322.268 214.186 321.713 215.435 321.272V295.714C157.206 289.695 106.769 239.136 106.769 179.338V30.507L343.179 30.522V179.354C343.179 239.152 292.742 289.711 234.513 295.73V321.288C235.762 321.728 236.955 322.284 238.095 322.923C245.107 326.858 249.853 334.349 249.853 342.961C249.853 352.974 243.448 361.485 234.513 364.635V390.147C234.517 390.161 234.52 390.175 234.524 390.19C242.496 420.366 281.431 455.405 339.911 459.753C340.542 459.84 341.181 459.9 341.835 459.9C349.579 459.9 355.856 453.623 355.856 445.879C355.856 438.238 349.743 432.038 342.141 431.873C342.118 431.849 342.096 431.82 342.057 431.82C298.161 431.82 262.472 409.393 257.807 379.794H257.448C268.031 371.022 274.774 357.781 274.774 342.961C274.774 333.643 272.1 324.954 267.491 317.603C315.415 303.647 352.932 265.445 365.977 217.091L365.856 218.483C418.254 218.483 449.948 176.526 449.948 103.174V34.861H370.96ZM28.684 103.158V63.711L78.988 63.662V188.698H79.288C79.297 188.833 79.312 188.966 79.322 189.1C51.122 187.332 28.85 152.194 28.684 103.158ZM421.264 103.173C421.098 152.209 398.826 187.347 370.627 189.115C370.636 188.98 370.652 188.847 370.661 188.713H370.961V63.677L421.265 63.726V103.173H421.264Z" fill="#FFFFFF"/>
</svg>
