<svg width="12" height="12" viewBox="0 0 12 12" fill="none" xmlns="http://www.w3.org/2000/svg">
<circle cx="6" cy="6" r="6" fill="#04045A"/>
<path d="M6.11621 2.44336C6.31152 2.44336 6.47754 2.51335 6.61426 2.65332C6.75423 2.79004 6.82422 2.95605 6.82422 3.15137C6.82422 3.34668 6.75423 3.51432 6.61426 3.6543C6.47754 3.79102 6.31152 3.85938 6.11621 3.85938C5.9209 3.85938 5.75326 3.79102 5.61328 3.6543C5.47656 3.51432 5.4082 3.34668 5.4082 3.15137C5.4082 2.95605 5.47656 2.79004 5.61328 2.65332C5.75326 2.51335 5.9209 2.44336 6.11621 2.44336ZM5.48633 9.69922V5.4707H4.81738V4.46973H6.72168V9.69922H5.48633Z" fill="#F6F6FE"/>
</svg>
