<svg width="12" height="12" viewBox="0 0 12 12" fill="none" xmlns="http://www.w3.org/2000/svg">
<path d="M6 12C9.31371 12 12 9.31371 12 6C12 2.68629 9.31371 0 6 0C2.68629 0 0 2.68629 0 6C0 9.31371 2.68629 12 6 12Z" fill="#04045A"/>
<path d="M6.11524 2.44336C6.31055 2.44336 6.47657 2.51335 6.61329 2.65332C6.75326 2.79004 6.82325 2.95605 6.82325 3.15137C6.82325 3.34668 6.75326 3.51432 6.61329 3.6543C6.47657 3.79102 6.31055 3.85938 6.11524 3.85938C5.91993 3.85938 5.75229 3.79102 5.61231 3.6543C5.47559 3.51432 5.40723 3.34668 5.40723 3.15137C5.40723 2.95605 5.47559 2.79004 5.61231 2.65332C5.75229 2.51335 5.91993 2.44336 6.11524 2.44336ZM5.48536 9.69922V5.4707H4.81641V4.46973H6.72071V9.69922H5.48536Z" fill="#F6F6FE"/>
</svg>
