<?xml version="1.0" encoding="utf-8"?>
<!-- Generator: Adobe Illustrator 16.0.0, SVG Export Plug-In . SVG Version: 6.00 game 0)  -->
<!DOCTYPE svg PUBLIC "-//W3C//DTD SVG 1.1//EN" "http://www.w3.org/Graphics/SVG/1.1/DTD/svg11.dtd">
<svg version="1.1" id="Layer_1" xmlns="http://www.w3.org/2000/svg" xmlns:xlink="http://www.w3.org/1999/xlink" x="0px" y="0px"
	 width="512px" height="512px" viewBox="0 0 512 512" enable-background="new 0 0 512 512" xml:space="preserve">
<path fill="#FFFFFF" d="M351.431,98.828H146.604c-37.708,0-68.275,30.5-68.275,68.127V371.33c0,37.626,30.567,68.126,68.275,68.126
	h204.827c37.707,0,68.275-30.5,68.275-68.126V166.955C419.706,129.328,389.138,98.828,351.431,98.828z"/>
<g>
	<path fill="#010101" d="M219.528,245.457h-12.07v26.621h12.07c4.474,0,7.859-1.168,10.152-3.502c2.3-2.332,3.459-5.604,3.48-9.809
		c0-4.348-1.159-7.637-3.48-9.877C227.37,246.61,223.986,245.464,219.528,245.457z"/>
	<path fill="#010101" d="M343.038,109.084H151.111c-35.333,0-63.976,28.643-63.976,63.977v191.926
		c0,35.334,28.643,63.977,63.976,63.977h191.927c35.333,0,63.976-28.643,63.976-63.977V173.061
		C407.014,137.727,378.371,109.084,343.038,109.084z M129.369,281.832c3.59,7.371,11.146,11.982,19.349,11.797
		c4.324,0.061,8.578-1.07,12.302-3.264l0.025-22.359h14.45v30.969c-3.813,3.186-8.188,5.629-12.897,7.203
		c-4.749,1.646-9.737,2.492-14.764,2.506c-6.731,0.1-13.357-1.652-19.158-5.066c-5.66-3.375-10.277-8.242-13.345-14.07
		c-6.457-12.795-6.457-27.896,0-40.691c3.08-5.841,7.729-10.714,13.42-14.068c5.876-3.412,12.57-5.164,19.361-5.067
		c5.623-0.081,11.195,1.062,16.331,3.354c4.839,2.225,9.063,5.596,12.302,9.822l-10.134,10.471
		c-4.892-5.742-10.79-8.615-17.693-8.615c-4.086-0.072-8.109,0.983-11.633,3.055c-3.405,2.055-6.153,5.045-7.916,8.613
		c-1.949,3.963-2.924,8.342-2.843,12.76C126.452,273.563,127.423,277.902,129.369,281.832z M232.602,307.375l-12.704-21.252h-14.025
		v21.252h-15.245v-76.381h28.486c5.267-0.131,10.486,1.019,15.21,3.355c4.183,2.148,7.635,5.491,9.921,9.596
		c2.418,4.529,3.62,9.604,3.489,14.732c0.141,5.113-1.077,10.174-3.533,14.662c-2.33,4.09-5.835,7.379-10.064,9.441l14.772,24.541
		L232.602,307.375z M281.442,307.34h-16.774v-76.346h16.774V307.34z M364.511,289.266c-3.092,5.654-7.753,10.297-13.42,13.367
		c-6.125,3.258-12.982,4.889-19.92,4.742h-31.385v-76.344h31.406c1.243,0,2.462,0.054,3.658,0.145v14.693
		c-1.48-0.221-2.977-0.334-4.474-0.334h-14.606v47.336h14.606c6.907,0.006,12.414-2.119,16.531-6.379
		c4.114-4.256,6.173-10.021,6.173-17.287c0-1.01-0.044-1.971-0.122-2.922h16.263c0.078,0.959,0.078,1.934,0.078,2.922
		C369.456,276.189,367.807,283.102,364.511,289.266z M385.146,246.22H369.3v16.483h-14.441V246.22h-15.947v-14.542h15.947v-16.54
		H369.3v16.493h15.847V246.22z"/>
	<path fill="#FFFFFF" d="M137.285,247.807c3.523-2.071,7.547-3.127,11.633-3.055c6.903,0,12.802,2.873,17.693,8.615l10.134-10.471
		c-3.239-4.227-7.463-7.598-12.302-9.822c-5.136-2.293-10.708-3.436-16.331-3.354c-6.791-0.097-13.485,1.655-19.361,5.067
		c-5.691,3.354-10.34,8.228-13.42,14.068c-6.457,12.795-6.457,27.896,0,40.691c3.067,5.828,7.685,10.695,13.345,14.07
		c5.801,3.414,12.427,5.166,19.158,5.066c5.026-0.014,10.015-0.859,14.764-2.506c4.71-1.574,9.084-4.018,12.897-7.203v-30.969
		h-14.45l-0.025,22.359c-3.724,2.193-7.978,3.324-12.302,3.264c-8.203,0.186-15.759-4.426-19.349-11.797
		c-1.946-3.93-2.917-8.27-2.843-12.652c-0.081-4.418,0.894-8.797,2.843-12.76C131.132,252.852,133.88,249.861,137.285,247.807z"/>
	<path fill="#FFFFFF" d="M244.2,273.34c2.456-4.488,3.674-9.549,3.533-14.662c0.131-5.129-1.071-10.203-3.489-14.732
		c-2.286-4.104-5.738-7.447-9.921-9.596c-4.724-2.337-9.943-3.486-15.21-3.355h-28.486v76.381h15.245v-21.252h14.025l12.704,21.252
		l16.307-0.053l-14.772-24.541C238.365,280.719,241.87,277.43,244.2,273.34z M229.681,268.576
		c-2.293,2.334-5.679,3.502-10.152,3.502h-12.07v-26.621h12.07c4.458,0.007,7.842,1.153,10.152,3.434
		c2.321,2.24,3.48,5.529,3.48,9.877C233.14,262.973,231.98,266.244,229.681,268.576z"/>
	<rect x="264.668" y="230.994" fill="#FFFFFF" width="16.774" height="76.346"/>
	<polygon fill="#5AB6E4" points="369.3,215.138 354.858,215.138 354.858,231.678 338.911,231.678 338.911,246.22 354.858,246.22 
		354.858,262.703 369.3,262.703 369.3,246.22 385.146,246.22 385.146,231.631 369.3,231.631 	"/>
	<path fill="#FFFFFF" d="M352.959,266.283c0.078,0.951,0.122,1.912,0.122,2.922c0,7.266-2.059,13.031-6.173,17.287
		c-4.117,4.26-9.624,6.385-16.531,6.379h-14.606v-47.336h14.606c1.497,0,2.993,0.113,4.474,0.334v-14.693
		c-1.196-0.091-2.415-0.145-3.658-0.145h-31.406v76.344h31.385c6.938,0.146,13.795-1.484,19.92-4.742
		c5.667-3.07,10.328-7.713,13.42-13.367c3.296-6.164,4.945-13.076,4.789-20.061c0-0.988,0-1.963-0.078-2.922H352.959z"/>
</g>
</svg>
