<svg width="30" height="41" viewBox="0 0 30 41" fill="none" xmlns="http://www.w3.org/2000/svg">
<path d="M24.5599 3.41035C21.8746 1.20514 18.5074 -0.000156891 15.0326 2.82226e-05C11.5535 -0.00672648 8.1807 1.1992 5.49455 3.41035C3.57801 4.97996 2.0794 6.99918 1.13219 9.28819C0.18498 11.5772 -0.181428 14.0649 0.0655982 16.5298C0.312625 18.9948 1.16542 21.3603 2.54803 23.4158C3.93063 25.4714 5.80014 27.153 7.99004 28.3111C8.04417 28.4843 8.0983 28.6576 8.16326 28.8524C8.40066 29.5096 8.72471 30.1322 9.12681 30.7037C9.43237 31.1344 9.88478 31.4386 10.3989 31.559C10.6801 31.6276 10.972 31.6399 11.258 31.5953C11.5439 31.5507 11.8183 31.4501 12.0652 31.2992C12.3122 31.1483 12.5269 30.9501 12.6971 30.716C12.8672 30.4819 12.9895 30.2165 13.0568 29.9351C13.2091 29.2532 13.2728 28.5546 13.2463 27.8564C13.2289 27.1858 13.1565 26.5177 13.0297 25.8589C12.9553 25.4154 12.7726 24.9972 12.4978 24.6412C12.223 24.2852 11.8647 24.0025 11.4545 23.8181H11.3679C9.37148 22.946 7.73285 21.4182 6.72335 19.4876C6.13417 18.2957 5.80369 16.9927 5.7536 15.6641C5.70351 14.3355 5.93494 13.0113 6.4327 11.7785C6.93046 10.5456 7.68331 9.43194 8.64183 8.51055C9.60035 7.58917 10.7429 6.8809 11.9944 6.43221C13.246 5.98353 14.5783 5.80458 15.9039 5.9071C17.2295 6.00962 18.5184 6.3913 19.6861 7.0271C20.8537 7.66289 21.8738 8.53842 22.6792 9.59623C23.4847 10.654 24.0573 11.8702 24.3596 13.1649C24.8292 15.3113 24.5444 17.5539 23.553 19.5146C22.5455 21.4881 20.9067 23.0678 18.8977 24.0022H18.8598L18.6162 24.1213C18.535 24.1646 18.4592 24.2133 18.3834 24.262L18.2102 24.3974C18.136 24.4581 18.0655 24.5232 17.9991 24.5922C17.8113 24.7794 17.6543 24.995 17.5335 25.231L17.4577 25.3717L17.4198 25.4638L17.3224 25.6586C17.2798 25.7646 17.2436 25.8731 17.2141 25.9834C17.1385 26.2902 17.0806 26.6011 17.0409 26.9145C16.9922 27.4558 16.9706 27.9105 16.9543 28.3652L16.9164 30.9528C16.9164 31.7918 16.8894 32.6254 16.8785 33.4537C16.8539 34.3195 16.6454 35.1701 16.2668 35.9491C16.0045 36.4613 15.8807 37.0332 15.908 37.608C15.9352 38.1828 16.1124 38.7405 16.4219 39.2256C16.7315 39.7107 17.1626 40.1063 17.6725 40.3731C18.1824 40.6399 18.7532 40.7686 19.3282 40.7463C19.9032 40.7241 20.4624 40.5518 20.9502 40.2464C21.4379 39.9411 21.8373 39.5134 22.1085 39.0058C22.3797 38.4983 22.5133 37.9286 22.4961 37.3534C22.4788 36.7783 22.3113 36.2176 22.0102 35.7272C21.5747 35.0177 21.3166 34.2137 21.2578 33.3833C21.2145 32.593 21.182 31.808 21.2091 31.034C21.2194 30.2812 21.2864 29.5302 21.4094 28.7875C21.4364 28.6251 21.4689 28.4735 21.5014 28.3273C24.3671 26.989 26.7249 24.7623 28.2246 21.9777C29.8658 18.939 30.3977 15.4236 29.7289 12.0354C29.0602 8.64722 27.2325 5.59761 24.5599 3.41035Z" fill="#04045A"/>
<path d="M18.8868 18.903L15.0651 15.0813L11.2379 11.2541L10.9294 10.9456C9.87176 12.0495 9.28864 13.5239 9.30502 15.0526C9.3214 16.5813 9.93597 18.0429 11.017 19.1239C12.0981 20.2049 13.5596 20.8195 15.0883 20.8359C16.6171 20.8523 18.0914 20.2692 19.1954 19.2115L18.8868 18.903Z" fill="#04045A"/>
</svg>
