<svg width="186" height="67" viewBox="0 0 186 67" fill="none" xmlns="http://www.w3.org/2000/svg">
<path fill-rule="evenodd" clip-rule="evenodd" d="M163.403 14.3875H175.305C177.671 14.3875 179.94 15.327 181.613 16.9995C183.287 18.6721 184.228 20.9408 184.23 23.3071V26.5432C184.23 28.9108 183.29 31.1814 181.616 32.8556C179.942 34.5297 177.672 35.4702 175.305 35.4702H157.862C156.974 35.4702 156.123 35.1175 155.495 34.4897C154.867 33.8619 154.515 33.0104 154.515 32.1226C154.515 31.2347 154.867 30.3832 155.495 29.7554C156.123 29.1276 156.974 28.7749 157.862 28.7749H175.334C175.926 28.7749 176.494 28.5398 176.912 28.1213C177.331 27.7027 177.566 27.1351 177.566 26.5432V23.3145C177.566 22.7226 177.331 22.155 176.912 21.7364C176.494 21.3179 175.926 21.0828 175.334 21.0828H163.433C161.066 21.0828 158.796 20.1422 157.122 18.4681C155.448 16.7939 154.507 14.5233 154.507 12.1557V8.92707C154.507 6.55947 155.448 4.28883 157.122 2.61468C158.796 0.940528 161.066 0 163.433 0H175.781C176.668 0 177.52 0.352698 178.147 0.980505C178.775 1.60831 179.128 2.4598 179.128 3.34765C179.128 4.2355 178.775 5.08699 178.147 5.7148C177.52 6.34261 176.668 6.6953 175.781 6.6953H163.403C162.812 6.6953 162.244 6.93044 161.826 7.34897C161.407 7.76751 161.172 8.33517 161.172 8.92707V12.1557C161.172 12.7476 161.407 13.3153 161.826 13.7338C162.244 14.1523 162.812 14.3875 163.403 14.3875ZM54.5743 0.00638552C53.6865 0.00638552 52.8351 0.359084 52.2074 0.986891C51.5797 1.6147 51.2271 2.46619 51.2271 3.35404V14.2897H36.9382V3.35404C36.9392 2.91414 36.8533 2.47839 36.6854 2.07179C36.5176 1.66519 36.271 1.29576 35.96 0.984703C35.649 0.67365 35.2796 0.427101 34.8731 0.259213C34.4666 0.0913251 34.0309 0.00540471 33.591 0.00638552H3.3472C2.45947 0.00638552 1.60809 0.359084 0.98037 0.986891C0.352648 1.6147 0 2.46619 0 3.35404C0 4.24189 0.352648 5.09338 0.98037 5.72119C1.60809 6.34899 2.45947 6.70169 3.3472 6.70169H12.7789V32.1141C12.7789 32.5537 12.8654 32.989 13.0337 33.3952C13.2019 33.8013 13.4484 34.1704 13.7592 34.4812C14.0701 34.7921 14.4391 35.0387 14.8452 35.2069C15.2513 35.3752 15.6865 35.4617 16.1261 35.4617C16.5656 35.4617 17.0009 35.3752 17.407 35.2069C17.8131 35.0387 18.1821 34.7921 18.4929 34.4812C18.8037 34.1704 19.0503 33.8013 19.2185 33.3952C19.3867 32.989 19.4733 32.5537 19.4733 32.1141V6.70169H30.2438V32.1141C30.2438 33.0019 30.5965 33.8534 31.2242 34.4812C31.8519 35.109 32.7033 35.4617 33.591 35.4617C34.4788 35.4617 35.3301 35.109 35.9579 34.4812C36.5856 33.8534 36.9382 33.0019 36.9382 32.1141V20.9552H51.2271V32.1141C51.2271 33.0019 51.5797 33.8534 52.2074 34.4812C52.8351 35.109 53.6865 35.4617 54.5743 35.4617C55.462 35.4617 56.3134 35.109 56.9411 34.4812C57.5688 33.8534 57.9215 33.0019 57.9215 32.1141V3.35404C57.9224 2.91414 57.8365 2.47839 57.6687 2.07179C57.5008 1.66519 57.2543 1.29576 56.9433 0.984703C56.6323 0.67365 56.2629 0.427101 55.8563 0.259213C55.4498 0.0913251 55.0141 0.00540471 54.5743 0.00638552ZM102.984 28.7664H117.846C118.733 28.7664 119.585 29.1191 120.212 29.7469C120.84 30.3748 121.193 31.2262 121.193 32.1141C121.193 33.0019 120.84 33.8534 120.212 34.4812C119.585 35.109 118.733 35.4617 117.846 35.4617H99.6368C98.7497 35.4598 97.8994 35.1064 97.2721 34.4791C96.6448 33.8517 96.2915 33.0013 96.2896 32.1141V3.35403C96.2896 2.46618 96.6422 1.61469 97.2699 0.986882C97.8977 0.359076 98.7491 0.00637722 99.6368 0.00637722C100.525 0.00637722 101.376 0.359076 102.004 0.986882C102.631 1.61469 102.984 2.46618 102.984 3.35403V28.7664ZM128.384 0.00637722H147.046H147.083C147.971 0.00637722 148.823 0.359076 149.45 0.986882C150.078 1.61469 150.431 2.46618 150.431 3.35403C150.431 4.24188 150.078 5.09337 149.45 5.72118C148.823 6.34898 147.971 6.70168 147.083 6.70168H128.384C127.496 6.70168 126.645 6.34898 126.017 5.72118C125.389 5.09337 125.037 4.24188 125.037 3.35403C125.037 2.46618 125.389 1.61469 126.017 0.986882C126.645 0.359076 127.496 0.00637722 128.384 0.00637722ZM142.641 21.0838C143.529 21.0838 144.38 20.7311 145.008 20.1033C145.636 19.4755 145.989 18.624 145.989 17.7361C145.989 16.8483 145.636 15.9968 145.008 15.369C144.38 14.7412 143.529 14.3885 142.641 14.3885H132.749C131.861 14.3885 131.009 14.7412 130.382 15.369C129.754 15.9968 129.401 16.8483 129.401 17.7361C129.401 18.624 129.754 19.4755 130.382 20.1033C131.009 20.7311 131.861 21.0838 132.749 21.0838H142.641ZM128.384 28.7684H147.046H147.083C147.971 28.7684 148.823 29.1211 149.45 29.7489C150.078 30.3767 150.431 31.2282 150.431 32.116C150.431 33.0039 150.078 33.8554 149.45 34.4832C148.823 35.111 147.971 35.4637 147.083 35.4637H128.384C127.496 35.4637 126.645 35.111 126.017 34.4832C125.389 33.8554 125.037 33.0039 125.037 32.116C125.037 31.2282 125.389 30.3767 126.017 29.7489C126.645 29.1211 127.496 28.7684 128.384 28.7684ZM79.8277 2.04626C79.5705 1.44238 79.1414 0.927446 78.5939 0.565512C78.0464 0.203578 77.4046 0.0106111 76.7483 0.0106111C76.092 0.0106111 75.4502 0.203578 74.9026 0.565512C74.3551 0.927446 73.9261 1.44238 73.6689 2.04626L61.4404 30.8063C61.2242 31.3153 61.1373 31.8699 61.1877 32.4206C61.2381 32.9713 61.4241 33.501 61.7291 33.9622C62.0341 34.4235 62.4486 34.802 62.9356 35.064C63.4226 35.3259 63.9669 35.4631 64.5198 35.4633H88.9618C89.5148 35.4631 90.0591 35.3259 90.5461 35.064C91.033 34.802 91.4476 34.4235 91.7526 33.9622C92.0576 33.501 92.2436 32.9713 92.294 32.4206C92.3444 31.8699 92.2575 31.3153 92.0413 30.8063L79.8277 2.04626ZM69.6225 28.768L76.7706 11.9181L83.9187 28.768H69.6225ZM172.971 65.9446C174.431 66.4246 175.961 66.6646 177.561 66.6646C179.401 66.6646 180.921 66.3946 182.121 65.8546C183.341 65.2946 184.241 64.5646 184.821 63.6646C185.401 62.7446 185.691 61.7546 185.691 60.6946C185.691 59.5946 185.461 58.6946 185.001 57.9946C184.541 57.2946 183.931 56.7346 183.171 56.3146C182.431 55.8946 181.601 55.5546 180.681 55.2946C179.781 55.0346 178.881 54.8046 177.981 54.6046C177.081 54.3846 176.251 54.1446 175.491 53.8846C174.751 53.6246 174.141 53.2746 173.661 52.8346C173.201 52.3946 172.971 51.8046 172.971 51.0646C172.971 50.4446 173.141 49.8846 173.481 49.3846C173.841 48.8846 174.401 48.4846 175.161 48.1846C175.921 47.8846 176.891 47.7346 178.071 47.7346C179.011 47.7346 179.981 47.8746 180.981 48.1546C181.981 48.4146 182.931 48.8446 183.831 49.4446L184.821 47.0446C183.941 46.4446 182.901 45.9846 181.701 45.6646C180.501 45.3446 179.291 45.1846 178.071 45.1846C176.231 45.1846 174.711 45.4646 173.511 46.0246C172.331 46.5646 171.451 47.2946 170.871 48.2146C170.311 49.1146 170.031 50.1046 170.031 51.1846C170.031 52.3046 170.261 53.2246 170.721 53.9446C171.181 54.6446 171.781 55.2046 172.521 55.6246C173.281 56.0446 174.111 56.3946 175.011 56.6746C175.931 56.9346 176.841 57.1646 177.741 57.3646C178.641 57.5646 179.461 57.8046 180.201 58.0846C180.961 58.3446 181.571 58.6946 182.031 59.1346C182.511 59.5746 182.751 60.1546 182.751 60.8746C182.751 61.4946 182.571 62.0546 182.211 62.5546C181.851 63.0346 181.291 63.4146 180.531 63.6946C179.771 63.9746 178.781 64.1146 177.561 64.1146C176.221 64.1146 174.931 63.8846 173.691 63.4246C172.451 62.9646 171.431 62.3846 170.631 61.6846L169.521 64.0246C170.361 64.8046 171.511 65.4446 172.971 65.9446ZM152.267 48.0346V66.4246H155.237V48.0346H162.437V45.4246H145.067V48.0346H152.267ZM124.999 63.8146V57.0346H135.529V54.4846H124.999V48.0346H136.819V45.4246H121.999V66.4246H137.239V63.8146H124.999ZM97.4366 60.9895V66.4246H94.4366V45.4246H97.4366V57.1692L108.837 45.4246H112.257L103.294 54.8835L112.827 66.4246H109.317L101.289 57.0828L97.4366 60.9895ZM66.6398 66.4246V45.4246H74.8298C76.6698 45.4246 78.2398 45.7146 79.5398 46.2946C80.8398 46.8746 81.8398 47.7146 82.5398 48.8146C83.2398 49.9146 83.5898 51.2246 83.5898 52.7446C83.5898 54.2646 83.2398 55.5746 82.5398 56.6746C81.8398 57.7546 80.8398 58.5846 79.5398 59.1646C79.3546 59.2472 79.164 59.3239 78.968 59.3947L83.9498 66.4246H80.6798L76.1634 59.9798C75.7358 60.0163 75.2913 60.0346 74.8298 60.0346H69.6398V66.4246H66.6398ZM74.7398 57.4846H69.6398V48.0346H74.7398C76.6598 48.0346 78.1098 48.4446 79.0898 49.2646C80.0898 50.0846 80.5898 51.2446 80.5898 52.7446C80.5898 54.2446 80.0898 55.4146 79.0898 56.2546C78.1098 57.0746 76.6598 57.4846 74.7398 57.4846ZM44.9971 45.4246L35.4871 66.4246H38.5771L40.8842 61.1746H52.05L54.3571 66.4246H57.5071L47.9671 45.4246H44.9971ZM50.9954 58.7746L46.4671 48.4699L41.9388 58.7746H50.9954ZM4.01477 66.4246V45.4246H6.47477L15.2305 60.1755L23.8748 45.4246H26.3348L26.3648 66.4246H23.4848L23.4569 51.111L15.8648 63.8746H14.4848L6.89477 51.2064V66.4246H4.01477Z" fill="white"/>
</svg>
