<svg width="138" height="33" xmlns="http://www.w3.org/2000/svg" fill="none">

 <g>
  <title>Layer 1</title>
  <path id="svg_1" fill="#ffffff" d="m20.1897,2.76025c-2.2077,-1.78484 -4.976,-2.76038 -7.8328,-2.76023c-2.86037,-0.00546 -5.63328,0.97058 -7.8417,2.76023c-1.57568,1.27039 -2.80776,2.9047 -3.58651,4.75737c-0.77875,1.85266 -1.07999,3.86618 -0.8769,5.86118c0.2031,1.995 0.90422,3.9097 2.04093,5.5734c1.13671,1.6636 2.67372,3.0247 4.47414,3.9621c0.04451,0.1402 0.08901,0.2804 0.14242,0.4381c0.19518,0.5319 0.46159,1.0358 0.79218,1.4984c0.25122,0.3486 0.62316,0.5948 1.04586,0.6922c0.23117,0.0555 0.47119,0.0655 0.70628,0.0294c0.23509,-0.0361 0.46063,-0.1175 0.66366,-0.2397c0.20304,-0.1221 0.37954,-0.2825 0.51944,-0.472c0.1399,-0.1894 0.2404,-0.4042 0.2958,-0.6321c0.1252,-0.5518 0.1776,-1.1173 0.1558,-1.6824c-0.0143,-0.5428 -0.0739,-1.0835 -0.1781,-1.6167c-0.0612,-0.3589 -0.2114,-0.6975 -0.4373,-0.9856c-0.2259,-0.2881 -0.52052,-0.5169 -0.85774,-0.6661l-0.0712,0c-1.64134,-0.7059 -2.98854,-1.9425 -3.8185,-3.5051c-0.4844,-0.9646 -0.7561,-2.0193 -0.79728,-3.0946c-0.04119,-1.0753 0.14908,-2.1471 0.55832,-3.14493c0.40924,-0.99784 1.02819,-1.89921 1.81623,-2.64495c0.78805,-0.74575 1.72737,-1.319 2.75634,-1.68216c1.02893,-0.36315 2.12433,-0.50799 3.21413,-0.42501c1.0898,0.08298 2.1495,0.3919 3.1095,0.9065c0.96,0.51459 1.7987,1.22322 2.4609,2.07938c0.6622,0.85617 1.133,1.84051 1.3815,2.88847c0.3861,1.7371 0.1519,3.5523 -0.6632,5.1392c-0.8283,1.5973 -2.1756,2.8758 -3.8273,3.6321l-0.0312,0l-0.2003,0.0964c-0.0667,0.0351 -0.129,0.0745 -0.1913,0.1139l-0.1425,0.1096c-0.0609,0.0491 -0.1189,0.1018 -0.1735,0.1577c-0.1544,0.1515 -0.2835,0.326 -0.3828,0.517l-0.0623,0.1139l-0.0311,0.0745l-0.0801,0.1577c-0.0351,0.0858 -0.0648,0.1736 -0.089,0.2629c-0.0623,0.2483 -0.1098,0.4999 -0.1425,0.7536c-0.04,0.4381 -0.0578,0.8061 -0.0712,1.1742l-0.0311,2.0942c0,0.6791 -0.0223,1.3539 -0.0312,2.0242c-0.0202,0.7008 -0.1916,1.3893 -0.5029,2.0198c-0.2157,0.4145 -0.3174,0.8774 -0.295,1.3426c0.0223,0.4653 0.168,0.9166 0.4225,1.3093c0.2545,0.3926 0.609,0.7128 1.0282,0.9287c0.4192,0.2159 0.8885,0.3201 1.3612,0.3021c0.4728,-0.018 0.9325,-0.1575 1.3335,-0.4046c0.401,-0.2471 0.7293,-0.5933 0.9523,-1.0041c0.223,-0.4108 0.3329,-0.8719 0.3187,-1.3374c-0.0142,-0.4656 -0.1519,-0.9193 -0.3994,-1.3163c-0.3581,-0.5742 -0.5703,-1.2249 -0.6186,-1.8971c-0.0356,-0.6396 -0.0624,-1.2749 -0.0401,-1.9014c0.0085,-0.6093 0.0635,-1.2171 0.1647,-1.8183c0.0222,-0.1314 0.0489,-0.2541 0.0756,-0.3724c2.3561,-1.0832 4.2945,-2.8855 5.5275,-5.1393c1.3493,-2.4594 1.7866,-5.3046 1.2368,-8.04695c-0.5498,-2.74232 -2.0524,-5.2106 -4.2498,-6.9809z"/>
  <path id="svg_2" fill="#ffffff" d="m15.5273,15.2994l-3.142,-3.0932l-3.14646,-3.09758l-0.25368,-0.24973c-0.86953,0.89351 -1.34894,2.08681 -1.33547,3.32411c0.01347,1.2373 0.51873,2.4202 1.40752,3.2952c0.88878,0.875 2.09039,1.3724 3.34719,1.3857c1.2569,0.0132 2.469,-0.4587 3.3766,-1.3148l-0.2537,-0.2497z"/>
  <path id="svg_3" fill="#ffffff" d="m98.2887,19.6369l-8.901,0l0,-14.96658c0,-0.5229 -0.211,-1.02438 -0.5865,-1.39412c-0.3756,-0.36975 -0.885,-0.57747 -1.4162,-0.57747c-0.5311,0 -1.0405,0.20772 -1.4161,0.57747c-0.3756,0.36974 -0.5866,0.87122 -0.5866,1.39412l0,16.93818c0.0012,0.5225 0.2126,1.0233 0.5879,1.3928c0.3753,0.3695 0.884,0.5776 1.4148,0.5787l10.8948,0c0.5311,0 1.0405,-0.2077 1.4161,-0.5774c0.3751,-0.3698 0.5861,-0.8713 0.5861,-1.3941c0,-0.5229 -0.211,-1.0244 -0.5861,-1.3942c-0.3756,-0.3697 -0.885,-0.5774 -1.4161,-0.5774l0.0089,0z"/>
  <path id="svg_4" fill="#ffffff" d="m115.752,2.69873l-11.166,0c-0.531,0 -1.041,0.20772 -1.416,0.57747c-0.376,0.36974 -0.587,0.87122 -0.587,1.39412c0,0.5229 0.211,1.02438 0.587,1.39412c0.375,0.36975 0.885,0.57747 1.416,0.57747l11.188,0c0.531,0 1.041,-0.20772 1.416,-0.57747c0.376,-0.36974 0.587,-0.87122 0.587,-1.39412c0,-0.5229 -0.211,-1.02438 -0.587,-1.39412c-0.375,-0.36975 -0.885,-0.57747 -1.416,-0.57747l-0.022,0z"/>
  <path id="svg_5" fill="#ffffff" d="m113.117,15.1111c0.531,0 1.041,-0.2077 1.416,-0.5774c0.376,-0.3698 0.587,-0.8712 0.587,-1.3941c0,-0.5229 -0.211,-1.0244 -0.587,-1.3942c-0.375,-0.3697 -0.885,-0.5774 -1.416,-0.5774l-5.919,0c-0.531,0 -1.041,0.2077 -1.416,0.5774c-0.376,0.3698 -0.587,0.8713 -0.587,1.3942c0,0.5229 0.211,1.0243 0.587,1.3941c0.375,0.3697 0.885,0.5774 1.416,0.5774l5.919,0z"/>
  <path id="svg_6" fill="#ffffff" d="m115.752,19.31462l-11.166,0c-0.531,0 -1.041,0.2077 -1.416,0.5775c-0.376,0.3697 -0.587,0.8712 -0.587,1.3941c0,0.5229 0.211,1.0244 0.587,1.3941c0.375,0.3698 0.885,0.5775 1.416,0.5775l11.188,0c0.531,0 1.041,-0.2077 1.416,-0.5775c0.376,-0.3697 0.587,-0.8712 0.587,-1.3941c0,-0.5229 -0.211,-1.0244 -0.587,-1.3941c-0.375,-0.3698 -0.885,-0.5775 -1.416,-0.5775l-0.022,0z"/>
  <path id="svg_7" fill="#ffffff" d="m60.4241,2.69874c-0.5312,0 -1.0406,0.20772 -1.4162,0.57746c-0.3756,0.36974 -0.5866,0.87123 -0.5866,1.39412l0,6.44048l-8.5493,0l0,-6.44048c0.0006,-0.25907 -0.0508,-0.51571 -0.1512,-0.75517c-0.1005,-0.23947 -0.248,-0.45704 -0.4341,-0.64024c-0.1861,-0.18319 -0.4071,-0.3284 -0.6503,-0.42727c-0.2433,-0.09888 -0.5039,-0.14948 -0.7671,-0.1489l-18.0956,0c-0.5311,0 -1.0405,0.20772 -1.4161,0.57746c-0.3756,0.36974 -0.5866,0.87123 -0.5866,1.39412c0,0.5229 0.211,1.02438 0.5866,1.39413c0.3756,0.36974 0.885,0.57746 1.4161,0.57746l5.6432,0l0,14.96659c0,0.2589 0.0518,0.5152 0.1524,0.7544c0.1007,0.2393 0.2482,0.4566 0.4342,0.6397c0.1859,0.1831 0.4067,0.3283 0.6497,0.4274c0.243,0.099 0.5034,0.15 0.7664,0.15c0.263,0 0.5234,-0.051 0.7664,-0.15c0.243,-0.0991 0.4638,-0.2443 0.6497,-0.4274c0.186,-0.1831 0.3335,-0.4004 0.4342,-0.6397c0.1006,-0.2392 0.1524,-0.4955 0.1524,-0.7544l0,-14.96659l6.4443,0l0,14.96659c0,0.5229 0.211,1.0243 0.5866,1.3941c0.3755,0.3697 0.8849,0.5774 1.4161,0.5774c0.5311,0 1.0405,-0.2077 1.4161,-0.5774c0.3756,-0.3698 0.5866,-0.8712 0.5866,-1.3941l0,-6.572l8.5493,0l0,6.572c0,0.5229 0.211,1.0243 0.5866,1.3941c0.3756,0.3697 0.885,0.5774 1.4162,0.5774c0.5311,0 1.0405,-0.2077 1.4161,-0.5774c0.3756,-0.3698 0.5866,-0.8712 0.5866,-1.3941l0,-16.93818c0.0005,-0.25907 -0.0509,-0.51571 -0.1513,-0.75517c-0.1004,-0.23947 -0.2479,-0.45704 -0.434,-0.64024c-0.1861,-0.18319 -0.4071,-0.3284 -0.6503,-0.42727c-0.2433,-0.09888 -0.504,-0.14948 -0.7671,-0.1489z"/>
  <path id="svg_8" fill="#ffffff" d="m132.659,11.1678l-7.12,0c-0.355,0 -0.694,-0.1385 -0.945,-0.385c-0.25,-0.2465 -0.391,-0.5808 -0.391,-0.92941l0,-1.90149c0,-0.3486 0.141,-0.68292 0.391,-0.92941c0.251,-0.2465 0.59,-0.38498 0.945,-0.38498l7.405,0c0.531,0 1.041,-0.20772 1.416,-0.57746c0.376,-0.36975 0.587,-0.87123 0.587,-1.39413c0,-0.52289 -0.211,-1.02438 -0.587,-1.39412c-0.375,-0.36974 -0.885,-0.57746 -1.416,-0.57746l-7.388,0c-1.416,0 -2.774,0.55392 -3.776,1.5399c-1.002,0.98599 -1.564,2.32327 -1.564,3.71766l0,1.90149c0,1.39441 0.562,2.73171 1.564,3.71771c1.002,0.9859 2.36,1.5399 3.776,1.5399l7.121,0c0.354,0 0.694,0.1384 0.944,0.3849c0.251,0.2465 0.391,0.5809 0.391,0.9295l0,1.9014c0,0.3486 -0.14,0.683 -0.391,0.9295c-0.25,0.2464 -0.59,0.3849 -0.944,0.3849l-10.454,0c-0.531,0 -1.041,0.2077 -1.416,0.5775c-0.376,0.3697 -0.587,0.8712 -0.587,1.3941c0,0.5229 0.211,1.0244 0.587,1.3941c0.375,0.3698 0.885,0.5775 1.416,0.5775l10.436,0c1.417,0 2.775,-0.5539 3.777,-1.5399c1.001,-0.986 1.564,-2.3233 1.564,-3.7177l0,-1.9058c-0.001,-1.3937 -0.564,-2.7298 -1.566,-3.7149c-1.001,-0.985 -2.359,-1.5383 -3.775,-1.5383z"/>
  <path id="svg_9" fill="#ffffff" d="m75.5332,3.89957c-0.1539,-0.35565 -0.4107,-0.65892 -0.7383,-0.87208c-0.3275,-0.21316 -0.7116,-0.32681 -1.1042,-0.32681c-0.3927,0 -0.7767,0.11365 -1.1043,0.32681c-0.3276,0.21316 -0.5843,0.51643 -0.7382,0.87208l-7.3166,16.93813c-0.1294,0.2998 -0.1813,0.6264 -0.1512,0.9507c0.0301,0.3244 0.1414,0.6363 0.3239,0.908c0.1825,0.2716 0.4305,0.4946 0.7219,0.6488c0.2914,0.1543 0.6171,0.2351 0.9479,0.2352l14.6242,0c0.3309,-0.0001 0.6565,-0.0809 0.9479,-0.2352c0.2914,-0.1542 0.5394,-0.3772 0.7219,-0.6488c0.1825,-0.2717 0.2938,-0.5836 0.3239,-0.908c0.0302,-0.3243 -0.0218,-0.6509 -0.1512,-0.9507l-7.3076,-16.93813zm-6.1061,15.73763l4.2769,-9.92364l4.2769,9.92364l-8.5538,0z"/>
 </g>
</svg>