<svg width="138" height="33" viewBox="0 0 138 33" fill="none" xmlns="http://www.w3.org/2000/svg">
<path d="M20.1897 2.76025C17.982 0.975411 15.2137 -0.000126983 12.3569 2.28426e-05C9.49653 -0.00544423 6.72362 0.970598 4.5152 2.76025C2.93952 4.03064 1.70744 5.66495 0.928692 7.51762C0.149943 9.37028 -0.151299 11.3838 0.0517932 13.3788C0.254886 15.3738 0.956009 17.2885 2.09272 18.9522C3.22943 20.6158 4.76644 21.9769 6.56686 22.9143C6.61137 23.0545 6.65587 23.1947 6.70928 23.3524C6.90446 23.8843 7.17087 24.3882 7.50146 24.8508C7.75268 25.1994 8.12462 25.4456 8.54732 25.543C8.77849 25.5985 9.01851 25.6085 9.2536 25.5724C9.48869 25.5363 9.71423 25.4549 9.91726 25.3327C10.1203 25.2106 10.2968 25.0502 10.4367 24.8607C10.5766 24.6713 10.6771 24.4565 10.7325 24.2286C10.8577 23.6768 10.9101 23.1113 10.8883 22.5462C10.874 22.0034 10.8144 21.4627 10.7102 20.9295C10.649 20.5706 10.4988 20.232 10.2729 19.9439C10.047 19.6558 9.75238 19.427 9.41516 19.2778H9.34396C7.70262 18.5719 6.35542 17.3353 5.52546 15.7727C5.04106 14.8081 4.76936 13.7534 4.72818 12.6781C4.68699 11.6028 4.87726 10.531 5.2865 9.53317C5.69574 8.53533 6.31469 7.63396 7.10273 6.88822C7.89078 6.14247 8.8301 5.56922 9.85907 5.20606C10.888 4.84291 11.9834 4.69807 13.0732 4.78105C14.163 4.86403 15.2227 5.17295 16.1827 5.68755C17.1427 6.20214 17.9814 6.91077 18.6436 7.76693C19.3058 8.6231 19.7766 9.60744 20.0251 10.6554C20.4112 12.3925 20.177 14.2077 19.3619 15.7946C18.5336 17.3919 17.1863 18.6704 15.5346 19.4267H15.5034L15.3031 19.5231C15.2364 19.5582 15.1741 19.5976 15.1118 19.637L14.9693 19.7466C14.9084 19.7957 14.8504 19.8484 14.7958 19.9043C14.6414 20.0558 14.5123 20.2303 14.413 20.4213L14.3507 20.5352L14.3196 20.6097L14.2395 20.7674C14.2044 20.8532 14.1747 20.941 14.1505 21.0303C14.0882 21.2786 14.0407 21.5302 14.008 21.7839C13.968 22.222 13.9502 22.59 13.9368 22.9581L13.9057 25.0523C13.9057 25.7314 13.8834 26.4062 13.8745 27.0765C13.8543 27.7773 13.6829 28.4658 13.3716 29.0963C13.1559 29.5108 13.0542 29.9737 13.0766 30.4389C13.0989 30.9042 13.2446 31.3555 13.4991 31.7482C13.7536 32.1408 14.1081 32.461 14.5273 32.6769C14.9465 32.8928 15.4158 32.997 15.8885 32.979C16.3613 32.961 16.821 32.8215 17.222 32.5744C17.623 32.3273 17.9513 31.9811 18.1743 31.5703C18.3973 31.1595 18.5072 30.6984 18.493 30.2329C18.4788 29.7673 18.3411 29.3136 18.0936 28.9166C17.7355 28.3424 17.5233 27.6917 17.475 27.0195C17.4394 26.3799 17.4126 25.7446 17.4349 25.1181C17.4434 24.5088 17.4984 23.901 17.5996 23.2998C17.6218 23.1684 17.6485 23.0457 17.6752 22.9274C20.0313 21.8442 21.9697 20.0419 23.2027 17.7881C24.552 15.3287 24.9893 12.4835 24.4395 9.74115C23.8897 6.99883 22.3871 4.53055 20.1897 2.76025Z" fill="#04045A"/>
<path d="M15.5273 15.2994L12.3853 12.2062L9.23884 9.10862L8.98516 8.85889C8.11563 9.7524 7.63622 10.9457 7.64969 12.183C7.66316 13.4203 8.16842 14.6032 9.05721 15.4782C9.94599 16.3532 11.1476 16.8506 12.4044 16.8639C13.6613 16.8771 14.8734 16.4052 15.781 15.5491L15.5273 15.2994Z" fill="#04045A"/>
<path d="M98.2887 19.6369H89.3877V4.67032C89.3877 4.14742 89.1767 3.64594 88.8012 3.2762C88.4256 2.90645 87.9162 2.69873 87.385 2.69873C86.8539 2.69873 86.3445 2.90645 85.9689 3.2762C85.5933 3.64594 85.3823 4.14742 85.3823 4.67032V21.6085C85.3835 22.131 85.5949 22.6318 85.9702 23.0013C86.3455 23.3708 86.8542 23.5789 87.385 23.58H98.2798C98.8109 23.58 99.3203 23.3723 99.6959 23.0026C100.071 22.6328 100.282 22.1313 100.282 21.6085C100.282 21.0856 100.071 20.5841 99.6959 20.2143C99.3203 19.8446 98.8109 19.6369 98.2798 19.6369H98.2887Z" fill="#04045A"/>
<path d="M115.752 2.69873H104.586C104.055 2.69873 103.545 2.90645 103.17 3.2762C102.794 3.64594 102.583 4.14742 102.583 4.67032C102.583 5.19322 102.794 5.6947 103.17 6.06444C103.545 6.43419 104.055 6.64191 104.586 6.64191H115.774C116.305 6.64191 116.815 6.43419 117.19 6.06444C117.566 5.6947 117.777 5.19322 117.777 4.67032C117.777 4.14742 117.566 3.64594 117.19 3.2762C116.815 2.90645 116.305 2.69873 115.774 2.69873H115.752Z" fill="#04045A"/>
<path d="M113.117 15.1111C113.648 15.1111 114.158 14.9034 114.533 14.5337C114.909 14.1639 115.12 13.6625 115.12 13.1396C115.12 12.6167 114.909 12.1152 114.533 11.7454C114.158 11.3757 113.648 11.168 113.117 11.168H107.198C106.667 11.168 106.157 11.3757 105.782 11.7454C105.406 12.1152 105.195 12.6167 105.195 13.1396C105.195 13.6625 105.406 14.1639 105.782 14.5337C106.157 14.9034 106.667 15.1111 107.198 15.1111H113.117Z" fill="#04045A"/>
<path d="M115.752 19.6372H104.586C104.055 19.6372 103.545 19.8449 103.17 20.2147C102.794 20.5844 102.583 21.0859 102.583 21.6088C102.583 22.1317 102.794 22.6332 103.17 23.0029C103.545 23.3727 104.055 23.5804 104.586 23.5804H115.774C116.305 23.5804 116.815 23.3727 117.19 23.0029C117.566 22.6332 117.777 22.1317 117.777 21.6088C117.777 21.0859 117.566 20.5844 117.19 20.2147C116.815 19.8449 116.305 19.6372 115.774 19.6372H115.752Z" fill="#04045A"/>
<path d="M60.4241 2.69874C59.8929 2.69874 59.3835 2.90646 59.0079 3.2762C58.6323 3.64594 58.4213 4.14743 58.4213 4.67032V11.1108H49.872V4.67032C49.8726 4.41125 49.8212 4.15461 49.7208 3.91515C49.6203 3.67568 49.4728 3.45811 49.2867 3.27491C49.1006 3.09172 48.8796 2.94651 48.6364 2.84764C48.3931 2.74876 48.1325 2.69816 47.8693 2.69874H29.7737C29.2426 2.69874 28.7332 2.90646 28.3576 3.2762C27.982 3.64594 27.771 4.14743 27.771 4.67032C27.771 5.19322 27.982 5.6947 28.3576 6.06445C28.7332 6.43419 29.2426 6.64191 29.7737 6.64191H35.4169V21.6085C35.4169 21.8674 35.4687 22.1237 35.5693 22.3629C35.67 22.6022 35.8175 22.8195 36.0035 23.0026C36.1894 23.1857 36.4102 23.3309 36.6532 23.43C36.8962 23.529 37.1566 23.58 37.4196 23.58C37.6826 23.58 37.943 23.529 38.186 23.43C38.429 23.3309 38.6498 23.1857 38.8357 23.0026C39.0217 22.8195 39.1692 22.6022 39.2699 22.3629C39.3705 22.1237 39.4223 21.8674 39.4223 21.6085V6.64191H45.8666V21.6085C45.8666 22.1314 46.0776 22.6328 46.4532 23.0026C46.8287 23.3723 47.3381 23.58 47.8693 23.58C48.4004 23.58 48.9098 23.3723 49.2854 23.0026C49.661 22.6328 49.872 22.1314 49.872 21.6085V15.0365H58.4213V21.6085C58.4213 22.1314 58.6323 22.6328 59.0079 23.0026C59.3835 23.3723 59.8929 23.58 60.4241 23.58C60.9552 23.58 61.4646 23.3723 61.8402 23.0026C62.2158 22.6328 62.4268 22.1314 62.4268 21.6085V4.67032C62.4273 4.41125 62.3759 4.15461 62.2755 3.91515C62.1751 3.67568 62.0276 3.45811 61.8415 3.27491C61.6554 3.09172 61.4344 2.94651 61.1912 2.84764C60.9479 2.74876 60.6872 2.69816 60.4241 2.69874Z" fill="#04045A"/>
<path d="M132.659 11.1678H125.539C125.184 11.1678 124.845 11.0293 124.594 10.7828C124.344 10.5363 124.203 10.202 124.203 9.85339V7.9519C124.203 7.6033 124.344 7.26898 124.594 7.02249C124.845 6.77599 125.184 6.63751 125.539 6.63751H132.944C133.475 6.63751 133.985 6.42979 134.36 6.06005C134.736 5.6903 134.947 5.18882 134.947 4.66592C134.947 4.14303 134.736 3.64154 134.36 3.2718C133.985 2.90206 133.475 2.69434 132.944 2.69434H125.556C124.14 2.69434 122.782 3.24826 121.78 4.23424C120.778 5.22023 120.216 6.55751 120.216 7.9519V9.85339C120.216 11.2478 120.778 12.5851 121.78 13.5711C122.782 14.557 124.14 15.111 125.556 15.111H132.677C133.031 15.111 133.371 15.2494 133.621 15.4959C133.872 15.7424 134.012 16.0768 134.012 16.4254V18.3268C134.012 18.6754 133.872 19.0098 133.621 19.2563C133.371 19.5027 133.031 19.6412 132.677 19.6412H122.223C121.692 19.6412 121.182 19.8489 120.807 20.2187C120.431 20.5884 120.22 21.0899 120.22 21.6128C120.22 22.1357 120.431 22.6372 120.807 23.0069C121.182 23.3767 121.692 23.5844 122.223 23.5844H132.659C134.076 23.5844 135.434 23.0305 136.436 22.0445C137.437 21.0585 138 19.7212 138 18.3268V16.421C137.999 15.0273 137.436 13.6912 136.434 12.7061C135.433 11.7211 134.075 11.1678 132.659 11.1678Z" fill="#04045A"/>
<path d="M75.5332 3.89957C75.3793 3.54392 75.1225 3.24065 74.7949 3.02749C74.4674 2.81433 74.0833 2.70068 73.6907 2.70068C73.298 2.70068 72.914 2.81433 72.5864 3.02749C72.2588 3.24065 72.0021 3.54392 71.8482 3.89957L64.5316 20.8377C64.4022 21.1375 64.3503 21.4641 64.3804 21.7884C64.4105 22.1128 64.5218 22.4247 64.7043 22.6964C64.8868 22.968 65.1348 23.191 65.4262 23.3452C65.7176 23.4995 66.0433 23.5803 66.3741 23.5804H80.9983C81.3292 23.5803 81.6548 23.4995 81.9462 23.3452C82.2376 23.191 82.4856 22.968 82.6681 22.6964C82.8506 22.4247 82.9619 22.1128 82.992 21.7884C83.0222 21.4641 82.9702 21.1375 82.8408 20.8377L75.5332 3.89957ZM69.4271 19.6372L73.704 9.71356L77.9809 19.6372H69.4271Z" fill="#04045A"/>
</svg>
