<?xml version="1.0" encoding="utf-8"?>
<svg width="25" height="33" viewBox="0 0 25 33" fill="none" xmlns="http://www.w3.org/2000/svg">
  <g clip-path="url(#clip0)">
    <path d="M19.8778 2.76025C17.7044 0.975411 14.9791 -0.000126983 12.1667 2.28426e-05C9.35076 -0.00544423 6.62094 0.970598 4.44684 2.76025C2.89564 4.03064 1.68271 5.66495 0.916061 7.51762C0.149415 9.37028 -0.147147 11.3838 0.0527897 13.3788C0.252726 15.3738 0.942954 17.2885 2.062 18.9522C3.18105 20.6158 4.69417 21.9769 6.46662 22.9143C6.51043 23.0545 6.55425 23.1947 6.60682 23.3524C6.79897 23.8843 7.06124 24.3882 7.38669 24.8508C7.634 25.1994 8.00017 25.4456 8.4163 25.543C8.64388 25.5985 8.88016 25.6085 9.1116 25.5724C9.34304 25.5363 9.56507 25.4549 9.76495 25.3327C9.96483 25.2106 10.1386 25.0502 10.2764 24.8607C10.4141 24.6713 10.513 24.4565 10.5675 24.2286C10.6908 23.6768 10.7423 23.1113 10.7209 22.5462C10.7068 22.0034 10.6482 21.4627 10.5456 20.9295C10.4854 20.5706 10.3375 20.232 10.1151 19.9439C9.89268 19.6558 9.60263 19.427 9.27066 19.2778H9.20055C7.58472 18.5719 6.25846 17.3353 5.44139 15.7727C4.96453 14.8081 4.69705 13.7534 4.6565 12.6781C4.61596 11.6028 4.80328 10.531 5.20615 9.53317C5.60903 8.53533 6.21836 7.63396 6.99416 6.88822C7.76996 6.14247 8.69469 5.56922 9.70766 5.20606C10.7206 4.84291 11.799 4.69807 12.8719 4.78105C13.9448 4.86403 14.988 5.17295 15.9331 5.68755C16.8782 6.20214 17.7037 6.91077 18.3556 7.76693C19.0075 8.6231 19.471 9.60744 19.7157 10.6554C20.0958 12.3925 19.8652 14.2077 19.0629 15.7946C18.2474 17.3919 16.9211 18.6704 15.295 19.4267H15.2643L15.0671 19.5231C15.0014 19.5582 14.9401 19.5976 14.8787 19.637L14.7385 19.7466C14.6785 19.7957 14.6215 19.8484 14.5677 19.9043C14.4157 20.0558 14.2886 20.2303 14.1909 20.4213L14.1295 20.5352L14.0989 20.6097L14.02 20.7674C13.9855 20.8532 13.9562 20.941 13.9324 21.0303C13.8711 21.2786 13.8243 21.5302 13.7922 21.7839C13.7527 22.222 13.7352 22.59 13.7221 22.9581L13.6914 25.0523C13.6914 25.7314 13.6695 26.4062 13.6607 27.0765C13.6408 27.7773 13.4721 28.4658 13.1656 29.0963V29.0963C12.9533 29.5108 12.8531 29.9737 12.8752 30.4389C12.8972 30.9042 13.0406 31.3555 13.2912 31.7482C13.5417 32.1408 13.8907 32.461 14.3033 32.6769C14.716 32.8928 15.178 32.997 15.6434 32.979C16.1088 32.961 16.5614 32.8215 16.9562 32.5744C17.351 32.3273 17.6742 31.9811 17.8937 31.5703C18.1132 31.1595 18.2214 30.6984 18.2074 30.2329C18.1935 29.7673 18.0579 29.3136 17.8142 28.9166C17.4617 28.3424 17.2528 27.6917 17.2052 27.0195C17.1702 26.3799 17.1439 25.7446 17.1658 25.1181C17.1741 24.5088 17.2283 23.901 17.3279 23.2998C17.3498 23.1684 17.3761 23.0457 17.4024 22.9274C19.7218 21.8442 21.6301 20.0419 22.8439 17.7881C24.1723 15.3287 24.6028 12.4835 24.0615 9.74115C23.5202 6.99883 22.041 4.53055 19.8778 2.76025V2.76025Z" style="fill: rgb(255, 255, 255);"/>
    <path d="M15.2863 15.2997L12.1931 12.2065L9.09549 9.10887L8.84575 8.85913C7.98973 9.75265 7.51778 10.9459 7.53103 12.1833C7.54429 13.4206 8.04171 14.6035 8.91668 15.4785C9.79165 16.3534 10.9746 16.8509 12.2119 16.8641C13.4492 16.8774 14.6425 16.4054 15.536 15.5494L15.2863 15.2997Z" style="fill: rgb(255, 255, 255);"/>
  </g>
  <defs>
    <clipPath id="clip0">
      <rect width="24.2812" height="33" fill="white"/>
    </clipPath>
  </defs>
</svg>