<svg width="26" height="33" viewBox="0 0 26 33" fill="none" xmlns="http://www.w3.org/2000/svg">
<path d="M22.1087 24.4601L22.112 24.459C23.1156 24.1401 23.9646 23.7758 24.6404 23.3675V23.3703V23.3767V23.3831V23.3894V23.3958V23.4022V23.4085V23.4149V23.4213V23.4276V23.434V23.4404V23.4467V23.4531V23.4595V23.4659V23.4722V23.4786V23.485V23.4913V23.4977V23.5041V23.5104V23.5168V23.5232V23.5295V23.5359V23.5423V23.5486V23.555V23.5614V23.5677V23.5741V23.5805V23.5869V23.5932V23.5996V23.606V23.6123V23.6187V23.6251V23.6314V23.6378V23.6442V23.6505V23.6569V23.6633V23.6696V23.676V23.6824V23.6887V23.6951V23.7015V23.7078V23.7142V23.7206V23.7269V23.7333V23.7397V23.746V23.7524V23.7588V23.7651V23.7715V23.7778V23.7842V23.7906V23.7969V23.8033V23.8097V23.816V23.8224V23.8288V23.8351V23.8415V23.8478V23.8542V23.8606V23.8669V23.8733V23.8797V23.886V23.8924V23.8987V23.9051V23.9115V23.9178V23.9242V23.9305V23.9369V23.9433V23.9496V23.956V23.9623V23.9687V23.975V23.9814V23.9878V23.9941V24.0005V24.0068V24.0132V24.0195V24.0259V24.0322V24.0386V24.045V24.0513V24.0577V24.064V24.0704V24.0767V24.0831V24.0894V24.0958V24.1021V24.1085V24.1148V24.1212V24.1275V24.1339V24.1402V24.1466V24.1529V24.1593V24.1656V24.172V24.1783V24.1847V24.191V24.1974V24.2037V24.21V24.2164V24.2227V24.2291V24.2354V24.2418V24.2481V24.2544V24.2608V24.2671V24.2735V24.2798V24.2861V24.2925V24.2988V24.3052V24.3115V24.3178V24.3242V24.3305V24.3368V24.3432V24.3495V24.3558V24.3622V24.3685V24.3748V24.3812V24.3875V24.3938V24.4002V24.4065V24.4128V24.4192V24.4255V24.4318V24.4381V24.4445V24.4508V24.4571V24.4634V24.4698V24.4761V24.4824V24.4887V24.4951V24.5014V24.5077V24.514V24.5203V24.5267V24.533V24.5393V24.5456V24.5519V24.5583V24.5646V24.5709V24.5772V24.5835V24.5898V24.5961V24.6025V24.6088V24.6151V24.6214V24.6277V24.634V24.6403V24.6466V24.6529V24.6592V24.6655V24.6718V24.6781V24.6844V24.6907V24.6971V24.7034V24.7097V24.716V24.7223V24.7286V24.7348V24.7411V24.7474V24.7537V24.76V24.7663V24.7726V24.7789V24.7852V24.7915V24.7978V24.8041V24.8104V24.8167V24.8229V24.8292V24.8355V24.8418V24.8481V24.8544V24.8606V24.8669V24.8732V24.8795V24.8858V24.892V24.8983V24.9046V24.9109V24.9172V24.9234V24.9297V24.936V24.9423V24.9485V24.9548V24.9611V24.9673V24.9736V24.9799V24.9861V24.9924V24.9987V25.0049V25.0112V25.0174V25.0237V25.03V25.0362V25.0425V25.0487V25.055V25.0613V25.0675V25.0738V25.08V25.0863V25.0925V25.0988V25.105V25.1113V25.1175V25.1238V25.13V25.1363V25.1425V25.1487V25.155V25.1612V25.1675V25.1737V25.1799V25.1862V25.1924V25.1986V25.2049V25.2111V25.2173V25.2236V25.2298V25.236V25.2423V25.2485V25.2547V25.2609V25.2672V25.2734V25.2796V25.2858V25.2921V25.2983V25.3045V25.3107V25.3169V25.3231V25.3293V25.3356V25.3418V25.348V25.3542V25.3604V25.3666V25.3728V25.379V25.3852V25.3914V25.3976V25.4038V25.41V25.4162V25.4224V25.4286V25.4348V25.441V25.4472V25.4534V25.4596V25.4658V25.472V25.4781V25.4843V25.4905V25.4925C24.4765 25.7414 24.1339 26.046 23.5562 26.3675C22.9195 26.7219 22.0551 27.0651 20.9868 27.3647C18.8521 27.9633 15.9545 28.3735 12.5558 28.3735C9.21701 28.3735 6.35512 27.98 4.2273 27.4007C3.16263 27.1109 2.29352 26.7777 1.64429 26.4314C1.06283 26.1213 0.699661 25.8228 0.511719 25.5706V25.5706V25.5643V25.558V25.5518V25.5455V25.5392V25.533V25.5267V25.5204V25.5141V25.5079V25.5016V25.4953V25.489V25.4827V25.4765V25.4702V25.4639V25.4576V25.4513V25.445V25.4387V25.4324V25.4262V25.4199V25.4136V25.4073V25.401V25.3947V25.3884V25.3821V25.3758V25.3695V25.3632V25.3569V25.3506V25.3443V25.338V25.3317V25.3254V25.319V25.3127V25.3064V25.3001V25.2938V25.2875V25.2812V25.2749V25.2685V25.2622V25.2559V25.2496V25.2433V25.2369V25.2306V25.2243V25.218V25.2116V25.2053V25.199V25.1926V25.1863V25.18V25.1737V25.1673V25.161V25.1547V25.1483V25.142V25.1356V25.1293V25.123V25.1166V25.1103V25.1039V25.0976V25.0912V25.0849V25.0786V25.0722V25.0659V25.0595V25.0532V25.0468V25.0405V25.0341V25.0277V25.0214V25.015V25.0087V25.0023V24.996V24.9896V24.9832V24.9769V24.9705V24.9642V24.9578V24.9514V24.9451V24.9387V24.9323V24.926V24.9196V24.9132V24.9069V24.9005V24.8941V24.8877V24.8814V24.875V24.8686V24.8622V24.8559V24.8495V24.8431V24.8367V24.8303V24.824V24.8176V24.8112V24.8048V24.7984V24.792V24.7857V24.7793V24.7729V24.7665V24.7601V24.7537V24.7473V24.7409V24.7345V24.7282V24.7218V24.7154V24.709V24.7026V24.6962V24.6898V24.6834V24.677V24.6706V24.6642V24.6578V24.6514V24.645V24.6386V24.6322V24.6258V24.6194V24.6129V24.6065V24.6001V24.5937V24.5873V24.5809V24.5745V24.5681V24.5617V24.5553V24.5488V24.5424V24.536V24.5296V24.5232V24.5168V24.5104V24.5039V24.4975V24.4911V24.4847V24.4783V24.4718V24.4654V24.459V24.4526V24.4461V24.4397V24.4333V24.4269V24.4204V24.414V24.4076V24.4012V24.3947V24.3883V24.3819V24.3754V24.369V24.3626V24.3561V24.3497V24.3433V24.3368V24.3304V24.324V24.3175V24.3111V24.3047V24.2982V24.2918V24.2854V24.2789V24.2725V24.266V24.2596V24.2532V24.2467V24.2403V24.2338V24.2274V24.2209V24.2145V24.2081V24.2016V24.1952V24.1887V24.1823V24.1758V24.1694V24.1629V24.1565V24.15V24.1436V24.1371V24.1307V24.1242V24.1178V24.1113V24.1049V24.0984V24.092V24.0855V24.079V24.0726V24.0661V24.0597V24.0532V24.0468V24.0403V24.0339V24.0274V24.0209V24.0145V24.008V24.0016V23.9951V23.9886V23.9822V23.9757V23.9693V23.9628V23.9563V23.9499V23.9434V23.9369V23.9305V23.924V23.9175V23.9111V23.9046V23.8981V23.8917V23.8852V23.8787V23.8723V23.8658V23.8593V23.8529V23.8464V23.8399V23.8335V23.827V23.8205V23.814V23.8076V23.8011V23.7946V23.7882V23.7817V23.7752V23.7687V23.7623V23.7558V23.7493V23.7428V23.7364V23.7299V23.7234V23.7169V23.7105V23.704V23.6975V23.691V23.6846V23.6781V23.6716V23.6651V23.6587V23.6522V23.6457V23.6392V23.6327V23.6263V23.6198V23.6133V23.6068V23.6003V23.5939V23.5874V23.5809V23.5744V23.5679V23.5615V23.555V23.5485V23.542V23.5355V23.529V23.5226V23.5161V23.5096V23.5031V23.4966V23.4901V23.4837V23.4772V23.4707V23.4642V23.4577V23.4512V23.4447V23.4383V23.4318V23.4253V23.4188V23.4123V23.4058V23.3993V23.393C1.18948 23.796 2.03569 24.157 3.03112 24.4604C5.6151 25.2616 9.01041 25.6547 12.5828 25.6547C16.1561 25.6547 19.5248 25.2614 22.1087 24.4601Z" stroke="#848E9C"/>
<path d="M24.6287 19.0897V19.0915V19.0977V19.1039V19.1101V19.1163V19.1225V19.1287V19.1349V19.1411V19.1473V19.1535V19.1597V19.1659V19.1722V19.1784V19.1846V19.1908V19.1971V19.2033V19.2095V19.2157V19.222V19.2282V19.2344V19.2407V19.2469V19.2532V19.2594V19.2656V19.2719V19.2781V19.2844V19.2906V19.2969V19.3032V19.3094V19.3157V19.3219V19.3282V19.3345V19.3407V19.347V19.3533V19.3595V19.3658V19.3721V19.3784V19.3846V19.3909V19.3972V19.4035V19.4098V19.416V19.4223V19.4286V19.4349V19.4412V19.4475V19.4538V19.4601V19.4664V19.4727V19.479V19.4853V19.4916V19.4979V19.5042V19.5105V19.5169V19.5232V19.5295V19.5358V19.5421V19.5484V19.5548V19.5611V19.5674V19.5738V19.5801V19.5864V19.5927V19.5991V19.6054V19.6118V19.6181V19.6244V19.6308V19.6371V19.6435V19.6498V19.6562V19.6625V19.6689V19.6752V19.6816V19.6879V19.6943V19.7006V19.707V19.7134V19.7197V19.7261V19.7325V19.7388V19.7452V19.7516V19.7579V19.7643V19.7707V19.7771V19.7834V19.7898V19.7962V19.8026V19.809V19.8154V19.8217V19.8281V19.8345V19.8409V19.8473V19.8537V19.8601V19.8665V19.8729V19.8793V19.8857V19.8921V19.8985V19.9049V19.9113V19.9177V19.9241V19.9306V19.937V19.9434V19.9498V19.9562V19.9626V19.9691V19.9755V19.9819V19.9883V19.9948V20.0012V20.0076V20.014V20.0205V20.0269V20.0333V20.0398V20.0462V20.0527V20.0591V20.0655V20.072V20.0784V20.0849V20.0913V20.0978V20.1042V20.1107V20.1171V20.1236V20.13V20.1365V20.1429V20.1494V20.1558V20.1623V20.1688V20.1752V20.1817V20.1882V20.1946V20.2011V20.2076V20.214V20.2205V20.227V20.2334V20.2399V20.2464V20.2529V20.2594V20.2658V20.2723V20.2788V20.2853V20.2918V20.2982V20.3047V20.3112V20.3177V20.3242V20.3307V20.3372V20.3437V20.3502V20.3567V20.3632V20.3697V20.3762V20.3827V20.3892V20.3957V20.4022V20.4087V20.4152V20.4217V20.4282V20.4347V20.4412V20.4478V20.4543V20.4608V20.4673V20.4738V20.4803V20.4869V20.4934V20.4999V20.5064V20.5129V20.5195V20.526V20.5325V20.539V20.5456V20.5521V20.5586V20.5652V20.5717V20.5782V20.5848V20.5913V20.5978V20.6044V20.6109V20.6175V20.624V20.6305V20.6371V20.6436V20.6502V20.6567V20.6633V20.6698V20.6764V20.6829V20.6895V20.696V20.7026V20.7091V20.7157V20.7222V20.7288V20.7354V20.7419V20.7485V20.755V20.7616V20.7682V20.7747V20.7813V20.7879V20.7944V20.801V20.8076V20.8141V20.8207V20.8273V20.8338V20.8404V20.847V20.8536V20.8601V20.8667V20.8733V20.8799V20.8865V20.893V20.8996V20.9062V20.9128V20.9194V20.9259V20.9325V20.9391V20.9457V20.9523V20.9589V20.9655V20.9721V20.9787V20.9852V20.9918V20.9984V21.005V21.0116V21.0182V21.0248V21.0314V21.038V21.0446V21.0512V21.0578V21.0644V21.071V21.0776V21.0842V21.0908V21.0974V21.104V21.1106V21.1172V21.1239V21.1305V21.1371V21.1437V21.1503V21.1569V21.1635V21.1701V21.1767V21.1834V21.19V21.1966V21.2032V21.2098V21.2152C24.4648 21.4641 24.1222 21.7686 23.5444 22.0902C22.9078 22.4445 22.0434 22.7878 20.9751 23.0873C18.8404 23.686 15.9428 24.0961 12.5441 24.0961C9.20565 24.0961 6.34397 23.6993 4.21628 23.1168C3.15168 22.8254 2.28252 22.4906 1.6332 22.1431C1.0516 21.8318 0.68812 21.5324 0.5 21.2799V21.2756V21.2689V21.2622V21.2555V21.2488V21.2421V21.2355V21.2288V21.2221V21.2154V21.2087V21.202V21.1953V21.1886V21.1819V21.1753V21.1686V21.1619V21.1552V21.1485V21.1418V21.1352V21.1285V21.1218V21.1151V21.1084V21.1018V21.0951V21.0884V21.0817V21.0751V21.0684V21.0617V21.0551V21.0484V21.0417V21.035V21.0284V21.0217V21.015V21.0084V21.0017V20.995V20.9884V20.9817V20.9751V20.9684V20.9617V20.9551V20.9484V20.9418V20.9351V20.9284V20.9218V20.9151V20.9085V20.9018V20.8952V20.8885V20.8819V20.8752V20.8686V20.8619V20.8553V20.8486V20.842V20.8353V20.8287V20.8221V20.8154V20.8088V20.8021V20.7955V20.7889V20.7822V20.7756V20.769V20.7623V20.7557V20.7491V20.7424V20.7358V20.7292V20.7225V20.7159V20.7093V20.7026V20.696V20.6894V20.6828V20.6762V20.6695V20.6629V20.6563V20.6497V20.6431V20.6364V20.6298V20.6232V20.6166V20.61V20.6034V20.5968V20.5902V20.5835V20.5769V20.5703V20.5637V20.5571V20.5505V20.5439V20.5373V20.5307V20.5241V20.5175V20.5109V20.5043V20.4977V20.4911V20.4845V20.4779V20.4714V20.4648V20.4582V20.4516V20.445V20.4384V20.4318V20.4253V20.4187V20.4121V20.4055V20.3989V20.3923V20.3858V20.3792V20.3726V20.366V20.3595V20.3529V20.3463V20.3398V20.3332V20.3266V20.3201V20.3135V20.3069V20.3004V20.2938V20.2872V20.2807V20.2741V20.2676V20.261V20.2545V20.2479V20.2414V20.2348V20.2283V20.2217V20.2152V20.2086V20.2021V20.1955V20.189V20.1824V20.1759V20.1694V20.1628V20.1563V20.1497V20.1432V20.1367V20.1301V20.1236V20.1171V20.1106V20.104V20.0975V20.091V20.0844V20.0779V20.0714V20.0649V20.0584V20.0518V20.0453V20.0388V20.0323V20.0258V20.0193V20.0128V20.0063V19.9997V19.9932V19.9867V19.9802V19.9737V19.9672V19.9607V19.9542V19.9477V19.9412V19.9347V19.9282V19.9218V19.9153V19.9088V19.9023V19.8958V19.8893V19.8828V19.8763V19.8699V19.8634V19.8569V19.8504V19.844V19.8375V19.831V19.8245V19.8181V19.8116V19.8051V19.7987V19.7922V19.7857V19.7793V19.7728V19.7663V19.7599V19.7534V19.747V19.7405V19.7341V19.7276V19.7212V19.7147V19.7083V19.7018V19.6954V19.6889V19.6825V19.676V19.6696V19.6632V19.6567V19.6503V19.6439V19.6374V19.631V19.6246V19.6181V19.6117V19.6053V19.5989V19.5924V19.586V19.5796V19.5732V19.5668V19.5604V19.5539V19.5475V19.5411V19.5347V19.5283V19.5219V19.5155V19.5091V19.5027V19.4963V19.4899V19.4835V19.4771V19.4707V19.4643V19.4579V19.4515V19.4451V19.4388V19.4324V19.426V19.4196V19.4132V19.4068V19.4005V19.3941V19.3877V19.3814V19.375V19.3686V19.3622V19.3559V19.3495V19.3431V19.3368V19.3304V19.3241V19.3177V19.3114V19.305V19.2987V19.2923V19.286V19.2796V19.2733V19.2669V19.2606V19.2542V19.2479V19.2416V19.2352V19.2289V19.2226V19.2162V19.2099V19.2036V19.1972V19.1909V19.1846V19.1783V19.172V19.1656V19.1593V19.153V19.1467V19.1404V19.1341V19.1278V19.1215V19.1152V19.1089V19.1026V19.0994C1.17863 19.4999 2.0247 19.857 3.01643 20.1687L3.01823 20.1692C5.60222 20.9707 8.98447 21.3639 12.5576 21.3639C16.1305 21.3639 19.5126 20.9707 22.0965 20.1694C23.1023 19.8591 23.9523 19.4974 24.6287 19.0897Z" stroke="#848E9C"/>
<path d="M12.6923 29.903C16.3153 29.903 19.7486 29.4068 22.3741 28.3933C23.3852 28.0052 24.2356 27.5477 24.9119 27.0464V27.0474V27.0515V27.0556V27.0597V27.0637V27.0678V27.0718V27.0758V27.0799V27.0839V27.0879V27.0919V27.0959V27.0999V27.1039V27.1079V27.1118V27.1158V27.1197V27.1237V27.1276V27.1316V27.1355V27.1394V27.1433V27.1472V27.1511V27.155V27.1589V27.1628V27.1666V27.1705V27.1743V27.1782V27.182V27.1859V27.1897V27.1935V27.1973V27.2011V27.2049V27.2087V27.2124V27.2162V27.22V27.2237V27.2275V27.2312V27.235V27.2387V27.2424V27.2461V27.2498V27.2535V27.2572V27.2609V27.2645V27.2682V27.2719V27.2755V27.2792V27.2828V27.2864V27.29V27.2937V27.2973V27.3009V27.3044V27.308V27.3116V27.3152V27.3187V27.3223V27.3258V27.3294V27.3329V27.3364V27.3399V27.3434V27.3469V27.3504V27.3539V27.3574V27.3608V27.3643V27.3677V27.3712V27.3746V27.378V27.3815V27.3849V27.3883V27.3917V27.3951V27.3984V27.4018V27.4052V27.4085V27.4119V27.4152V27.4186V27.4219V27.4252V27.4285V27.4318V27.4351V27.4384V27.4417V27.445V27.4482V27.4515V27.4547V27.458V27.4612V27.4644V27.4676V27.4709V27.4741V27.4772V27.4804V27.4836V27.4868V27.4899V27.4931V27.4962V27.4994V27.5025V27.5056V27.5087V27.5118V27.5149V27.518V27.5211V27.5242V27.5272V27.5303V27.5334V27.5364V27.5394V27.5425V27.5455V27.5485V27.5515V27.5545V27.5575V27.5604V27.5634V27.5664V27.5693V27.5723V27.5752V27.5781V27.581V27.584V27.5869V27.5898V27.5926V27.5955V27.5984V27.6013V27.6041V27.607V27.6098V27.6126V27.6154V27.6183V27.6211V27.6239V27.6267V27.6294V27.6322V27.635V27.6377V27.6405V27.6432V27.6459V27.6487V27.6514V27.6541V27.6568V27.6595V27.6622V27.6648V27.6675V27.6702V27.6728V27.6754V27.6781V27.6807V27.6833V27.6859V27.6885V27.6911V27.6937V27.6963V27.6988V27.7014V27.7039V27.7065V27.709V27.7115V27.714V27.7165V27.719V27.7215V27.724V27.7265V27.729V27.7314V27.7339V27.7363V27.7387V27.7411V27.7436V27.746V27.7484V27.7507V27.7531V27.7555V27.7579V27.7602V27.7626V27.7649V27.7672V27.7695V27.7718V27.7741V27.7764V27.7787V27.781V27.7833V27.7855V27.7878V27.79V27.7923V27.7945V27.7967V27.7989V27.8011V27.8033V27.8055V27.8076V27.8098V27.812V27.8141V27.8162V27.8184V27.8205V27.8226V27.8247V27.8268V27.8289V27.831V27.833V27.8351V27.8371V27.8392V27.8412V27.8432V27.8453V27.8473V27.8493V27.8513V27.8532V27.8552V27.8572V27.8591V27.8611V27.863V27.8649V27.8668V27.8688V27.8707V27.8725V27.8744V27.8763V27.8782V27.88V27.8819V27.8837V27.8855V27.8874V27.8892V27.891V27.8928C24.9119 28.4164 24.6504 28.9655 24.0711 29.517C23.4906 30.0697 22.6237 30.5907 21.5102 31.039C19.2859 31.9344 16.1757 32.5003 12.7059 32.5003C9.23532 32.5003 6.12468 31.9426 3.90024 31.0554C2.78665 30.6112 1.92 30.0942 1.33989 29.5448C0.761164 28.9966 0.5 28.45 0.5 27.9267V27.9246V27.9225V27.9204V27.9183V27.9162V27.9141V27.9119V27.9098V27.9076V27.9055V27.9033V27.9011V27.8989V27.8968V27.8946V27.8924V27.8902V27.8879V27.8857V27.8835V27.8812V27.879V27.8767V27.8745V27.8722V27.8699V27.8677V27.8654V27.8631V27.8608V27.8585V27.8561V27.8538V27.8515V27.8491V27.8468V27.8444V27.8421V27.8397V27.8373V27.835V27.8326V27.8302V27.8278V27.8254V27.8229V27.8205V27.8181V27.8156V27.8132V27.8107V27.8083V27.8058V27.8033V27.8008V27.7984V27.7959V27.7933V27.7908V27.7883V27.7858V27.7833V27.7807V27.7782V27.7756V27.7731V27.7705V27.7679V27.7653V27.7627V27.7601V27.7575V27.7549V27.7523V27.7497V27.7471V27.7444V27.7418V27.7391V27.7365V27.7338V27.7311V27.7284V27.7257V27.723V27.7203V27.7176V27.7149V27.7122V27.7095V27.7067V27.704V27.7012V27.6985V27.6957V27.6929V27.6902V27.6874V27.6846V27.6818V27.679V27.6762V27.6733V27.6705V27.6677V27.6648V27.662V27.6591V27.6563V27.6534V27.6505V27.6477V27.6448V27.6419V27.639V27.6361V27.6331V27.6302V27.6273V27.6243V27.6214V27.6184V27.6155V27.6125V27.6096V27.6066V27.6036V27.6006V27.5976V27.5946V27.5916V27.5886V27.5855V27.5825V27.5795V27.5764V27.5734V27.5703V27.5672V27.5642V27.5611V27.558V27.5549V27.5518V27.5487V27.5456V27.5425V27.5393V27.5362V27.5331V27.5299V27.5268V27.5236V27.5204V27.5173V27.5141V27.5109V27.5077V27.5045V27.5013V27.4981V27.4949V27.4916V27.4884V27.4852V27.4819V27.4787V27.4754V27.4721V27.4689V27.4656V27.4623V27.459V27.4557V27.4524V27.4491V27.4458V27.4424V27.4391V27.4358V27.4324V27.4291V27.4257V27.4223V27.419V27.4156V27.4122V27.4088V27.4054V27.402V27.3986V27.3952V27.3918V27.3883V27.3849V27.3815V27.378V27.3745V27.3711V27.3676V27.3641V27.3607V27.3572V27.3537V27.3502V27.3467V27.3431V27.3396V27.3361V27.3326V27.329V27.3255V27.3219V27.3184V27.3148V27.3112V27.3076V27.3041V27.3005V27.2969V27.2933V27.2897V27.286V27.2824V27.2788V27.2752V27.2715V27.2679V27.2642V27.2605V27.2569V27.2532V27.2495V27.2458V27.2421V27.2384V27.2347V27.231V27.2273V27.2236V27.2199V27.2161V27.2124V27.2086V27.2049V27.2011V27.1973V27.1936V27.1898V27.186V27.1822V27.1784V27.1746V27.1708V27.167V27.1631V27.1593V27.1555V27.1516V27.1478V27.1439V27.1401V27.1362V27.1323V27.1284V27.1245V27.1207V27.1168V27.1128V27.1089V27.105V27.1011V27.0972V27.0932V27.0893V27.0853V27.0814V27.0774V27.077C1.1738 27.5672 2.01349 28.015 3.01142 28.3937C5.63679 29.4069 9.0698 29.903 12.6923 29.903Z" stroke="#848E9C"/>
<path d="M24.6691 18.0556C24.6691 18.3893 24.459 18.7931 23.8771 19.2365C23.3028 19.6741 22.4404 20.0896 21.3298 20.4475C19.1142 21.1615 16.0223 21.6112 12.5845 21.6112C9.14681 21.6112 6.05483 21.1615 3.83929 20.4475C2.72871 20.0896 1.86623 19.6741 1.29198 19.2365C0.710062 18.7931 0.5 18.3893 0.5 18.0556C0.5 17.7219 0.710062 17.3181 1.29198 16.8747C1.86623 16.4372 2.72871 16.0217 3.83929 15.6638C6.05483 14.9498 9.14681 14.5 12.5845 14.5C16.0223 14.5 19.1142 14.9498 21.3298 15.6638C22.4404 16.0217 23.3028 16.4372 23.8771 16.8747C24.459 17.3181 24.6691 17.7219 24.6691 18.0556Z" fill="#848E9C" stroke="#848E9C"/>
<path d="M8.79619 15.312H12.7802L13.1002 18H5.40419V7.024H8.79619V15.312ZM19.9473 7.024C20.5553 7.024 21.1153 7.17333 21.6273 7.472C22.15 7.77067 22.5606 8.18133 22.8593 8.704C23.158 9.216 23.3073 9.776 23.3073 10.384V10.736C23.3073 11.344 23.158 11.9093 22.8593 12.432C22.5606 12.944 22.15 13.3493 21.6273 13.648C21.1153 13.9467 20.5553 14.096 19.9473 14.096H17.4673V18H14.1073V7.024H19.9473ZM17.4673 11.648H18.9393C19.238 11.648 19.4726 11.552 19.6433 11.36C19.814 11.1573 19.8993 10.9333 19.8993 10.688V10.496C19.8993 10.2507 19.814 10.032 19.6433 9.84C19.4833 9.63733 19.2486 9.536 18.9393 9.536H17.4673V11.648Z" fill="#4564AE"/>
</svg>
