<svg width="53" height="26" viewBox="0 0 53 26" fill="none" xmlns="http://www.w3.org/2000/svg">
<path d="M52.5 13C52.5 19.9036 46.9036 25.5 40 25.5C33.0964 25.5 27.5 19.9036 27.5 13C27.5 6.09644 33.0964 0.5 40 0.5C46.9036 0.5 52.5 6.09644 52.5 13Z" stroke="#848E9C"/>
<path fill-rule="evenodd" clip-rule="evenodd" d="M41.9009 6.30292C41.9847 6.10215 42.0309 5.90137 42.0417 5.71937C42.0872 5.3337 41.9912 5.02098 41.7673 4.92781C41.547 4.83609 41.2581 4.97981 41.0104 5.26942L41.0111 5.21165C41.0111 4.40853 40.6377 3.75781 40.1762 3.75781C39.7154 3.75781 39.3413 4.40853 39.3413 5.21165C39.3413 5.2687 39.3435 5.32431 39.3471 5.37992C39.0662 5.00437 38.6971 4.81226 38.4342 4.93648C38.1049 5.09103 38.0652 5.68181 38.3454 6.25526C38.3923 6.35131 38.4978 6.5167 38.5548 6.59831C34.9798 7.15442 32.9432 9.98265 32.6875 14.6251H34.6881C34.8982 10.8031 36.8836 8.62342 40.1762 8.62342C43.133 8.62342 45.343 10.7063 45.3119 14.6251H47.3125C47.3486 10.0021 44.7342 7.00926 41.7319 6.62359C41.7954 6.52681 41.8525 6.4192 41.9009 6.30292Z" fill="#848E9C"/>
<path fill-rule="evenodd" clip-rule="evenodd" d="M37.6641 11.29V12.5777C37.6641 12.8666 37.9595 13.102 38.3242 13.102C38.6882 13.102 38.9843 12.8673 38.9843 12.5777V11.29C38.9843 11.0011 38.6882 10.7656 38.3242 10.7656C37.9595 10.7656 37.6641 11.0003 37.6641 11.29ZM41.7258 10.7656C41.39 10.7656 41.117 11.0003 41.117 11.29V12.5777C41.117 12.8666 41.39 13.102 41.7266 13.102C42.0631 13.102 42.3354 12.8673 42.3354 12.5777V11.29C42.3354 11.0011 42.0631 10.7656 41.7266 10.7656" fill="#848E9C"/>
<path fill-rule="evenodd" clip-rule="evenodd" d="M38.7043 18.0844C38.6523 18.2288 38.5816 18.3516 38.4913 18.4549C38.4015 18.5575 38.2917 18.6406 38.1684 18.699C38.0435 18.759 37.9092 18.7893 37.7654 18.7893C37.6224 18.7893 37.4881 18.759 37.3624 18.699C37.2392 18.6406 37.1294 18.5575 37.0396 18.4549C36.946 18.346 36.874 18.2202 36.8273 18.0844C36.7749 17.9355 36.7488 17.7786 36.75 17.6207C36.75 17.4561 36.776 17.3022 36.8273 17.1585C36.8786 17.0141 36.9501 16.8898 37.0396 16.7873C37.1299 16.684 37.2375 16.6031 37.3624 16.5432C37.4881 16.4832 37.6224 16.4529 37.7654 16.4529C37.9092 16.4529 38.0435 16.4832 38.1684 16.5432C38.2934 16.6031 38.401 16.684 38.4913 16.7873C38.5816 16.8898 38.6523 17.0133 38.7043 17.1578C38.7549 17.3022 38.7816 17.4561 38.7816 17.6207C38.7816 17.7861 38.7556 17.94 38.7043 18.0844ZM39.6432 16.8451C39.5461 16.6094 39.4038 16.3949 39.2243 16.2138C39.0396 16.03 38.8203 15.8847 38.5791 15.7863C38.3378 15.6879 38.0794 15.6383 37.8189 15.6404C37.5576 15.6387 37.2986 15.6884 37.0566 15.7868C36.8146 15.8852 36.5943 16.0303 36.4084 16.2138C36.2289 16.3949 36.0866 16.6093 35.9895 16.8451C35.8866 17.0907 35.8343 17.3545 35.8357 17.6207C35.8357 17.8952 35.8869 18.1545 35.9895 18.3971C36.0913 18.6405 36.2314 18.8507 36.4084 19.0283C36.5943 19.2119 36.8146 19.357 37.0566 19.4554C37.2986 19.5538 37.5576 19.6035 37.8189 19.6018C38.0794 19.6039 38.3378 19.5543 38.5791 19.4559C38.8203 19.3575 39.0396 19.2121 39.2243 19.0283C39.4013 18.8507 39.5414 18.6405 39.6432 18.3971C39.7458 18.1545 39.7971 17.8952 39.7971 17.6207C39.7971 17.3463 39.7458 17.0877 39.6432 16.8451ZM34.241 18.0873C34.1978 18.2207 34.1312 18.3454 34.0446 18.4556C33.9643 18.5566 33.864 18.6397 33.7499 18.6997C33.6387 18.7588 33.5147 18.7896 33.3888 18.7893H32.7893V16.4522H33.3888C33.5166 16.4522 33.6365 16.4832 33.7499 16.5446C33.8633 16.606 33.9615 16.6891 34.0446 16.7945C34.1276 16.9 34.1933 17.0249 34.241 17.1686C34.2887 17.3131 34.3125 17.4669 34.3125 17.6316C34.3125 17.7926 34.2887 17.9443 34.2403 18.0866L34.241 18.0873ZM35.2759 16.848C35.1789 16.6124 35.0369 16.398 34.8578 16.2167C34.6781 16.0378 34.4658 15.8948 34.2323 15.7957C33.9902 15.6914 33.729 15.6382 33.4653 15.6397H31.875V19.6011H33.4653C33.7369 19.6011 33.9926 19.5505 34.2323 19.448C34.4728 19.3461 34.6808 19.2067 34.8578 19.0291C35.0347 18.8521 35.1741 18.6427 35.2767 18.4007C35.3785 18.1595 35.4298 17.9031 35.4298 17.6316C35.4298 17.3528 35.3785 17.0913 35.2759 16.848ZM47.0323 18.0844C46.9803 18.2288 46.9095 18.3516 46.8192 18.4549C46.7295 18.5575 46.6196 18.6406 46.4964 18.699C46.3714 18.759 46.2371 18.7893 46.0934 18.7893C45.9504 18.7893 45.8161 18.759 45.6911 18.699C45.5677 18.6407 45.4575 18.5576 45.3676 18.4549C45.274 18.3459 45.202 18.2202 45.1552 18.0844C45.1029 17.9355 45.0767 17.7786 45.0779 17.6207C45.0779 17.4561 45.1039 17.3022 45.1552 17.1585C45.2072 17.0141 45.278 16.8898 45.3676 16.7873C45.4575 16.6846 45.5677 16.6015 45.6911 16.5432C45.8161 16.4832 45.9504 16.4529 46.0934 16.4529C46.2378 16.4529 46.3714 16.4832 46.4964 16.5432C46.6221 16.6031 46.7297 16.684 46.8192 16.7873C46.9095 16.8898 46.9803 17.0133 47.0323 17.1578C47.0836 17.3022 47.1096 17.4561 47.1096 17.6207C47.1096 17.7861 47.0836 17.94 47.0323 18.0844ZM47.9712 16.8451C47.8741 16.6093 47.7318 16.3949 47.5523 16.2138C47.3676 16.03 47.1483 15.8847 46.907 15.7863C46.6658 15.6879 46.4074 15.6383 46.1468 15.6404C45.8856 15.6387 45.6266 15.6884 45.3845 15.7868C45.1425 15.8852 44.9223 16.0303 44.7363 16.2138C44.5569 16.3949 44.4145 16.6093 44.3174 16.8451C44.2148 17.0907 44.1628 17.3545 44.1643 17.6207C44.1643 17.8952 44.2149 18.1545 44.3174 18.3971C44.42 18.6405 44.5594 18.8507 44.7363 19.0283C44.9223 19.2119 45.1425 19.357 45.3845 19.4554C45.6266 19.5538 45.8856 19.6035 46.1468 19.6018C46.4074 19.6039 46.6658 19.5543 46.907 19.4559C47.1483 19.3575 47.3676 19.2121 47.5523 19.0283C47.7299 18.8507 47.8701 18.6405 47.9712 18.3971C48.0737 18.1545 48.125 17.8952 48.125 17.6207C48.125 17.3463 48.0744 17.0877 47.9719 16.8451H47.9712ZM42.5689 18.0873C42.5257 18.2207 42.4592 18.3454 42.3725 18.4556C42.2923 18.5565 42.1919 18.6397 42.0778 18.6997C41.9667 18.7588 41.8426 18.7896 41.7167 18.7893H41.1173V16.4522H41.7167C41.8446 16.4522 41.9644 16.4832 42.0778 16.5446C42.1912 16.606 42.2894 16.6891 42.3725 16.7945C42.4556 16.9 42.5213 17.0249 42.5689 17.1686C42.6166 17.3131 42.6412 17.4669 42.6412 17.6316C42.6412 17.7926 42.6166 17.9443 42.5689 18.0866V18.0873ZM43.6046 16.848C43.5074 16.6123 43.3651 16.3979 43.1857 16.2167C43.0062 16.0378 42.7942 15.8949 42.561 15.7957C42.3186 15.6913 42.0572 15.6381 41.7933 15.6397H40.2029V19.6011H41.7933C42.0648 19.6011 42.3205 19.5505 42.561 19.448C42.8008 19.3461 43.0088 19.2067 43.1857 19.0291C43.3627 18.8521 43.5021 18.6427 43.6046 18.4007C43.7064 18.1595 43.7577 17.9031 43.7577 17.6316C43.7577 17.3528 43.7072 17.0913 43.6046 16.848Z" fill="#848E9C"/>
<path d="M7.39163 19H1.19963V8.12H3.40763V17.048H7.39163V19ZM12.7465 15.832H10.9545V19H8.7465V8.12H12.7465C15.3278 8.12 16.6185 9.37867 16.6185 11.896C16.6185 13.1653 16.2878 14.1413 15.6265 14.824C14.9758 15.496 14.0158 15.832 12.7465 15.832ZM10.9545 13.944H12.7305C13.8292 13.944 14.3785 13.2613 14.3785 11.896C14.3785 11.224 14.2452 10.744 13.9785 10.456C13.7118 10.1573 13.2958 10.008 12.7305 10.008H10.9545V13.944Z" fill="#848E9C"/>
<path d="M18.8026 15.396V14.58H21.0706V12.24H21.9106V14.58H24.2026V15.396H21.9106V17.76H21.0706V15.396H18.8026Z" fill="#848E9C"/>
</svg>
