<svg width="20" height="20" viewBox="0 0 20 20" fill="none" xmlns="http://www.w3.org/2000/svg">
<path fill-rule="evenodd" clip-rule="evenodd" d="M2.54 0H5.92C7.33 0 8.46 1.15 8.46 2.561V5.97C8.46 7.39 7.33 8.53 5.92 8.53H2.54C1.14 8.53 0 7.39 0 5.97V2.561C0 1.15 1.14 0 2.54 0ZM2.54 11.4697H5.92C7.33 11.4697 8.46 12.6107 8.46 14.0307V17.4397C8.46 18.8497 7.33 19.9997 5.92 19.9997H2.54C1.14 19.9997 0 18.8497 0 17.4397V14.0307C0 12.6107 1.14 11.4697 2.54 11.4697ZM17.4601 0H14.0801C12.6701 0 11.5401 1.15 11.5401 2.561V5.97C11.5401 7.39 12.6701 8.53 14.0801 8.53H17.4601C18.8601 8.53 20.0001 7.39 20.0001 5.97V2.561C20.0001 1.15 18.8601 0 17.4601 0ZM14.0801 11.4697H17.4601C18.8601 11.4697 20.0001 12.6107 20.0001 14.0307V17.4397C20.0001 18.8497 18.8601 19.9997 17.4601 19.9997H14.0801C12.6701 19.9997 11.5401 18.8497 11.5401 17.4397V14.0307C11.5401 12.6107 12.6701 11.4697 14.0801 11.4697Z" fill="#F6F6FE"/>
</svg>
