<?xml version="1.0" encoding="utf-8"?>
<!-- Generator: Adobe Illustrator 16.0.0, SVG Export Plug-In . SVG Version: 6.00 game 0)  -->
<!DOCTYPE svg PUBLIC "-//W3C//DTD SVG 1.1//EN" "http://www.w3.org/Graphics/SVG/1.1/DTD/svg11.dtd">
<svg version="1.1" id="Layer_1" xmlns="http://www.w3.org/2000/svg" xmlns:xlink="http://www.w3.org/1999/xlink" x="0px" y="0px"
	 width="80px" height="108px" viewBox="0 0 80 108" enable-background="new 0 0 80 108" xml:space="preserve">
<g>
	
		<rect x="55.359" y="29.632" transform="matrix(-0.5004 0.8658 -0.8658 -0.5004 114.9438 -1.7999)" fill="#202B5F" width="5.265" height="5.262"/>
	<polygon fill="#202B5F" points="57.986,19.875 57.986,19.875 57.986,19.875 57.986,19.875 57.986,25.136 63.25,25.136 
		63.25,19.875 	"/>
	
		<rect x="50.811" y="59.13" transform="matrix(-0.866 0.5 -0.5 -0.866 131.5289 84.9156)" fill="#202B5F" width="7.155" height="1.896"/>
	<rect x="66.875" y="33.243" fill="#202B5F" width="1.896" height="7.159"/>
	
		<rect x="60.624" y="49.328" transform="matrix(-0.4999 0.8661 -0.8661 -0.4999 139.8403 19.8025)" fill="#202B5F" width="7.158" height="1.897"/>
	<polygon fill="#202B5F" points="47.203,52.907 47.203,52.907 47.203,52.907 47.203,60.151 47.203,60.151 49.193,60.151 
		49.193,52.907 	"/>
	
		<rect x="54.805" y="52.032" transform="matrix(-0.707 0.7072 -0.7072 -0.707 137.1815 50.9404)" fill="#202B5F" width="6.468" height="3.707"/>
	<polygon fill="#202B5F" points="54.434,40.461 59.011,35.887 61.636,38.509 57.059,43.081 	"/>
	
		<rect x="48.739" y="48.322" transform="matrix(-0.2587 0.966 -0.966 -0.2587 113.8841 12.9516)" fill="#202B5F" width="6.467" height="3.708"/>
	
		<rect x="61.048" y="41.261" transform="matrix(-0.2591 0.9658 -0.9658 -0.2591 122.5847 -7.7995)" fill="#202B5F" width="6.471" height="3.708"/>
	
		<rect x="61.039" y="26.863" transform="matrix(-0.2593 0.9658 -0.9658 -0.2593 108.6737 -25.9132)" fill="#202B5F" width="6.471" height="3.707"/>
	<polygon fill="#202B5F" points="51.78,23.409 50.833,27.034 57.039,28.671 57.986,25.136 51.78,23.409 	"/>
	<rect x="25.902" y="21.772" fill="#202B5F" width="5.261" height="5.261"/>
	<polygon fill="#202B5F" points="17.71,30.656 22.28,27.981 19.693,23.409 15.121,26.084 17.71,30.656 17.71,30.656 	"/>
	
		<rect x="53.397" y="10.032" transform="matrix(-0.4991 0.8665 -0.8665 -0.4991 93.2671 -26.6847)" fill="#202B5F" width="1.898" height="7.162"/>
	
		<rect x="23.992" y="12.621" transform="matrix(-0.866 0.5 -0.5 -0.866 58.2333 11.5372)" fill="#202B5F" width="7.159" height="1.897"/>
	<rect x="37.375" y="9.006" fill="#202B5F" width="7.156" height="1.897"/>
	<polygon fill="#202B5F" points="57.039,18.148 50.833,21.772 51.78,23.409 51.78,23.409 51.78,23.409 57.986,19.875 57.986,19.875 
			"/>
	<polygon fill="#202B5F" points="43.65,14.528 44.606,10.947 50.856,12.621 49.895,16.203 	"/>
	
		<rect x="32.883" y="17.565" transform="matrix(-0.2586 0.966 -0.966 -0.2586 63.8133 -7.3764)" fill="#202B5F" width="3.708" height="6.471"/>
	
		<rect x="44.011" y="18.92" transform="matrix(-0.9659 0.2588 -0.2588 -0.9659 98.2591 28.6109)" fill="#202B5F" width="6.471" height="3.709"/>
	
		<rect x="31.687" y="11.763" transform="matrix(-0.9659 0.259 -0.259 -0.9659 72.1771 17.7266)" fill="#202B5F" width="6.467" height="3.711"/>
	
		<rect x="19.084" y="18.918" transform="matrix(-0.9659 0.2589 -0.2589 -0.9659 49.2561 35.055)" fill="#202B5F" width="6.47" height="3.708"/>
	<polygon fill="#202B5F" points="24.005,34.193 27.541,33.243 25.902,27.034 22.28,27.981 23.919,34.193 	"/>
	
		<rect x="33.841" y="51.249" transform="matrix(-0.866 0.5001 -0.5001 -0.866 95.0007 82.3003)" fill="#202B5F" width="5.263" height="5.262"/>
	<polygon fill="#202B5F" points="47.203,60.151 42.637,57.479 40.049,62.052 44.616,64.724 47.203,60.151 47.203,60.151 	"/>
	<rect x="13.139" y="33.243" fill="#202B5F" width="1.897" height="7.159"/>
	
		<rect x="26.596" y="56.556" transform="matrix(-0.5004 0.8658 -0.8658 -0.5004 93.3892 66.3836)" fill="#202B5F" width="1.894" height="7.158"/>
	
		<rect x="16.761" y="46.713" transform="matrix(-0.8658 0.5004 -0.5004 -0.8658 58.2097 84.9729)" fill="#202B5F" width="1.899" height="7.158"/>
	<polygon fill="#202B5F" points="24.005,34.193 23.919,34.193 23.919,34.193 17.71,30.656 17.71,30.656 16.761,32.292 
		22.972,35.917 	"/>
	
		<rect x="15.904" y="39.878" transform="matrix(-0.966 0.2586 -0.2586 -0.966 46.0625 80.1631)" fill="#202B5F" width="3.708" height="6.467"/>
	
		<rect x="28.315" y="47.051" transform="matrix(-0.9659 0.2589 -0.2589 -0.9659 72.3278 91.0467)" fill="#202B5F" width="3.708" height="6.468"/>
	
		<rect x="22.12" y="36.262" transform="matrix(-0.7072 0.707 -0.707 -0.7072 68.8534 50.4774)" fill="#202B5F" width="3.709" height="6.469"/>
	
		<rect x="22.124" y="50.665" transform="matrix(-0.7071 0.7071 -0.7071 -0.7071 79.0473 75.0573)" fill="#202B5F" width="3.709" height="6.469"/>
	
		<rect x="34.528" y="57.864" transform="matrix(-0.7071 0.7071 -0.7071 -0.7071 105.3159 78.575)" fill="#202B5F" width="3.712" height="6.469"/>
	<polygon fill="#202B5F" points="47.203,52.907 44.616,50.32 40.049,54.893 42.637,57.479 47.203,52.907 	"/>
	<polygon fill="#202B5F" points="54.396,47.622 57.03,43.067 61.587,45.696 58.953,50.254 	"/>
	
		<rect x="48.178" y="56.577" transform="matrix(-0.4998 0.8662 -0.8662 -0.4998 127.4495 41.4451)" fill="#202B5F" width="7.158" height="1.897"/>
	
		<rect x="60.685" y="34.972" transform="matrix(-0.5001 0.8659 -0.8659 -0.5001 127.5108 -1.7645)" fill="#202B5F" width="7.16" height="1.895"/>
	<rect x="38.322" y="14.526" fill="#202B5F" width="5.262" height="5.261"/>
	<rect x="49.881" y="16.25" fill="#202B5F" width="7.158" height="1.898"/>
	<rect x="24.955" y="16.25" fill="#202B5F" width="7.159" height="1.898"/>
	
		<rect x="21.316" y="44.029" transform="matrix(-0.8661 0.4999 -0.4999 -0.8661 68.0115 75.098)" fill="#202B5F" width="5.26" height="5.26"/>
	
		<rect x="16.756" y="32.308" transform="matrix(-0.8661 0.4998 -0.4998 -0.8661 50.9736 58.1235)" fill="#202B5F" width="1.895" height="7.158"/>
	
		<rect x="29.244" y="53.854" transform="matrix(-0.8659 0.5002 -0.5002 -0.8659 85.0662 92.0615)" fill="#202B5F" width="1.899" height="7.157"/>
	<path id="Blue_Ring" fill="#1779BF" d="M33.492,88.616c0-3.534-2.845-6.387-6.382-6.387c-3.537,0-6.382,2.853-6.382,6.387
		c0,3.535,2.845,6.382,6.382,6.382l0,0c0.173,0,0.346,0,0.519,0c0-0.175,0-0.346,0-0.516c0-0.176,0-0.346,0-0.606H27.11
		c-2.933,0-5.347-2.417-5.347-5.345c0-2.938,2.414-5.349,5.347-5.349s5.349,2.411,5.349,5.349c0,2.326-1.466,4.396-3.709,5.088
		c0,0.257-0.085,0.518-0.085,0.777v0.342C31.509,94.137,33.492,91.545,33.492,88.616z"/>
	<path id="Red_Ring" fill="#E62A43" d="M61.266,88.616c0.085,3.535-2.757,6.468-6.296,6.558c-3.364,0.085-6.297-2.591-6.468-5.955
		c0.341,0,0.777,0.089,1.118,0.26c0.436,2.934,3.193,4.918,6.126,4.482c2.933-0.426,4.912-3.188,4.487-6.121
		c-0.437-2.933-3.194-4.918-6.127-4.482c-2.501,0.341-4.401,2.411-4.486,4.914c-0.341-0.091-0.688-0.176-1.033-0.176
		c0.346-3.534,3.449-6.121,6.983-5.775C58.764,82.581,61.266,85.338,61.266,88.616z"/>
	<path id="Green_Ring" fill="#069848" d="M47.896,89.133c2.672,0,4.918,1.9,5.264,4.572c0.346,0.085,0.687,0.171,1.123,0.256
		c-0.262-3.279-3.108-5.865-6.387-5.865c-0.17,0-0.342,0-0.602,0v0.521c0,0.171,0,0.342,0,0.603
		C47.554,89.133,47.726,89.133,47.896,89.133z M53.244,94.823c-0.176,2.938-2.677,5.174-5.604,5.004
		c-2.933-0.172-5.175-2.673-5.003-5.605c0.085-2.241,1.554-4.142,3.705-4.743c0-0.26,0.089-0.521,0.089-0.777v-0.346
		c-3.453,0.863-5.519,4.402-4.571,7.851c0.947,3.449,4.396,5.521,7.846,4.568c2.677-0.688,4.577-3.014,4.747-5.69
		C53.932,94.998,53.591,94.909,53.244,94.823L53.244,94.823z"/>
	<path id="Yellow_Ring" fill="#F6B619" d="M33.492,89.219c0-0.171,0-0.346,0-0.603v-0.521c0.173,0,0.346,0,0.519,0
		c3.364,0,6.124,2.586,6.382,5.865c-0.343,0-0.777-0.085-1.12-0.256c-0.431-2.587-2.675-4.572-5.262-4.572
		C33.838,89.133,33.665,89.133,33.492,89.219z M40.393,94.998c-0.258,3.535-3.363,6.127-6.9,5.865
		c-3.534-0.26-6.124-3.363-5.863-6.902c0.258-2.673,2.156-5.003,4.742-5.689v0.345c0,0.257,0,0.517-0.085,0.777
		c-2.76,0.947-4.314,3.966-3.364,6.729c0.948,2.756,3.968,4.312,6.728,3.363c2.068-0.691,3.534-2.587,3.622-4.747
		C39.704,94.909,40.049,94.998,40.393,94.998L40.393,94.998z"/>
	<path id="Black_Ring" fill="#231916" d="M40.997,82.229c-3.364,0-6.124,2.592-6.382,5.866c0.344,0,0.689,0.085,1.036,0.176
		c0.17-2.934,2.672-5.18,5.692-5.004c3.019,0.175,5.174,2.677,4.999,5.69c-0.171,2.16-1.55,4.055-3.705,4.747
		c0,0.256-0.086,0.517-0.086,0.777v0.341c3.449-0.862,5.52-4.396,4.652-7.761C46.517,84.13,43.93,82.145,40.997,82.229
		L40.997,82.229z M40.997,93.961c-2.675,0-4.916-1.896-5.261-4.482c-0.346-0.085-0.689-0.171-1.121-0.26
		c0.259,3.278,3.104,5.865,6.382,5.865c0.17,0,0.346,0,0.516,0c0-0.175,0-0.346,0-0.518c0-0.17,0-0.345,0-0.605
		C41.343,93.961,41.167,93.961,40.997,93.961z"/>
	<path fill="#202B5F" d="M14.086,77.833h-1.379v-7.069H10.81v-1.213h5.173v1.213h-1.897V77.833z"/>
	<path fill="#202B5F" d="M30.905,77.833h-1.639l-1.983-3.619l-0.777,1.032v2.587h-1.379v-8.366h1.379v3.709l0,0l2.501-3.795h1.64
		l-2.501,3.625L30.905,77.833z"/>
	<path fill="#202B5F" d="M35.39,77.833h-1.293v-3.619l-2.155-4.747h1.293l1.466,3.278l0,0l1.466-3.278h1.466l-2.156,4.747v3.619
		H35.39z"/>
	<path fill="#202B5F" d="M51.951,77.833h-4.657V76.63l0,0l3.103-3.971c0.171-0.256,0.262-0.521,0.262-0.777
		c0-0.606-0.432-1.032-1.038-1.118l0,0c-0.256,0-0.517,0.086-0.777,0.257c-0.256,0.255-0.341,0.606-0.341,0.947v0.086h-1.299v-0.086
		c0-0.692,0.266-1.293,0.692-1.811c0.437-0.431,1.037-0.69,1.639-0.69c0.606,0,1.299,0.26,1.726,0.69
		c0.435,0.432,0.691,1.118,0.691,1.725s-0.171,1.124-0.606,1.64l-2.326,3.019l0,0h2.933V77.833z"/>
	<path fill="#202B5F" d="M64.975,77.833h-4.657V76.63l0,0l3.104-3.971c0.175-0.256,0.261-0.521,0.261-0.777
		c0-0.606-0.432-1.032-1.033-1.118l0,0c-0.265,0-0.521,0.086-0.776,0.257c-0.261,0.255-0.351,0.606-0.351,0.947v0.086h-1.288v-0.086
		c0-0.692,0.255-1.293,0.687-1.811c0.431-0.431,1.037-0.69,1.64-0.69c0.602,0,1.293,0.26,1.724,0.69
		c0.432,0.432,0.691,1.118,0.691,1.725s-0.175,1.124-0.601,1.554l-2.417,3.104l0,0h2.929L64.975,77.833z"/>
	<path fill="#202B5F" d="M41.253,77.919c-1.376,0.085-2.5-0.948-2.584-2.327c0-0.09,0-0.09,0-0.175v-3.449
		c0-1.465,1.208-2.587,2.584-2.587c1.384,0,2.591,1.208,2.591,2.587v3.449c0,1.383-1.037,2.502-2.415,2.502l0,0H41.253z
		 M41.253,70.764c-0.688,0-1.291,0.603-1.376,1.29v3.107c-0.088,0.777,0.516,1.379,1.207,1.469c0.691,0.086,1.382-0.521,1.468-1.213
		c0-0.085,0-0.171,0-0.171v-3.018C42.637,71.452,42.03,70.85,41.253,70.764L41.253,70.764z"/>
	<path fill="#202B5F" d="M20.209,77.919c-1.378,0.085-2.499-0.948-2.587-2.327c0-0.09,0-0.09,0-0.175v-3.449
		c0-1.379,1.035-2.501,2.417-2.501c0.085,0,0.17,0,0.17,0c1.381-0.086,2.502,0.947,2.589,2.33c0,0.085,0,0.171,0,0.171v3.449
		c0,1.383-1.035,2.502-2.416,2.502l0,0H20.209z M20.209,70.764c-0.689,0-1.293,0.603-1.378,1.29v0.085v3.022
		c-0.088,0.777,0.516,1.379,1.208,1.469c0.774,0.086,1.378-0.521,1.466-1.213c0-0.085,0-0.171,0-0.171v-3.018
		c0-0.692-0.519-1.379-1.208-1.379h-0.088V70.764z"/>
	<path fill="#202B5F" d="M56.177,77.919c-1.207,0-2.245-0.948-2.245-2.241c0-0.086,0-0.176,0-0.176v-3.62
		c0-1.293,1.038-2.331,2.331-2.331s2.331,1.038,2.331,2.331l0,0v3.62c0.085,1.214-0.863,2.331-2.07,2.417
		C56.433,77.919,56.347,77.919,56.177,77.919z M56.177,70.764c-0.861,0-1.032,0.688-1.032,1.204v3.449
		c0,0.862,0.341,1.213,1.032,1.213c0.692,0,1.033-0.437,1.033-1.213v-3.449C57.21,71.452,57.039,70.764,56.177,70.764z"/>
	<path fill="#202B5F" d="M68.856,77.919c-1.209,0-2.332-0.948-2.332-2.151c0-0.09,0-0.176,0-0.266v-3.62
		c0-1.293,1.037-2.331,2.332-2.331c1.293,0,2.33,1.038,2.33,2.331l0,0v3.62c0.085,1.214-0.862,2.331-2.075,2.417
		C69.026,77.919,68.94,77.919,68.856,77.919z M68.856,70.764c-0.863,0-1.033,0.688-1.033,1.204v3.449
		c0,0.862,0.341,1.213,1.033,1.213c0.69,0,1.031-0.437,1.031-1.213v-3.449C69.974,71.452,69.718,70.764,68.856,70.764z"/>
	<polygon fill="#231916" points="61.266,57.309 61.872,57.309 61.872,58.858 62.042,58.858 62.042,57.309 62.734,57.309 
		62.734,57.134 61.266,57.134 	"/>
	<polygon fill="#231916" points="64.198,57.134 63.682,58.342 63.682,58.342 63.161,57.134 62.905,57.134 62.905,58.858 
		63.075,58.858 63.075,57.479 63.075,57.479 63.596,58.598 63.768,58.598 64.198,57.479 64.283,57.479 64.283,58.858 64.459,58.858 
		64.459,57.134 	"/>
</g>
</svg>
