<svg width="55" height="49" viewBox="0 0 55 49" fill="none" xmlns="http://www.w3.org/2000/svg">
<path fill-rule="evenodd" clip-rule="evenodd" d="M15.7598 44.9167L22.9105 46.8126V44.3333L23.4943 43.75H27.5804V46.6667V48.7083H23.2024L17.8028 46.375L15.7598 44.9167Z" fill="#CDBDB2"/>
<path fill-rule="evenodd" clip-rule="evenodd" d="M39.1094 44.9167L32.1047 46.8126V44.3333L31.5209 43.75H27.4348V46.6667V48.7083H31.8128L37.2121 46.375L39.1094 44.9167Z" fill="#CDBDB2"/>
<path fill-rule="evenodd" clip-rule="evenodd" d="M23.4949 39.5208L22.9111 44.3332L23.6407 43.7498H31.2291L32.1047 44.3332L31.521 39.5208L30.3535 38.7915L24.5162 38.9375L23.4949 39.5208Z" fill="#393939"/>
<path fill-rule="evenodd" clip-rule="evenodd" d="M19.5547 7L23.057 15.1667L24.6624 38.9376H30.3536L32.1048 15.1667L35.3153 7H19.5547Z" fill="#F89C35"/>
<path fill-rule="evenodd" clip-rule="evenodd" d="M4.23159 24.9375L0.145508 36.7499L10.3607 36.1665H16.9275V31.0625L16.6357 20.5625L15.1763 21.7292L4.23159 24.9375Z" fill="#F89D35"/>
<path fill-rule="evenodd" clip-rule="evenodd" d="M11.9658 26.25L23.9322 26.5417L22.619 32.6667L16.9275 31.2083L11.9658 26.25Z" fill="#D87C30"/>
<path fill-rule="evenodd" clip-rule="evenodd" d="M11.9658 26.3958L16.9275 31.0624V35.7291L11.9658 26.3958Z" fill="#EA8D3A"/>
<path fill-rule="evenodd" clip-rule="evenodd" d="M16.9277 31.2083L22.765 32.6666L24.6622 38.9375L23.3487 39.6666L16.9277 35.8749V31.2083Z" fill="#F89D35"/>
<path fill-rule="evenodd" clip-rule="evenodd" d="M16.9272 35.875L15.7598 44.9167L23.4943 39.521L16.9272 35.875Z" fill="#EB8F35"/>
<path fill-rule="evenodd" clip-rule="evenodd" d="M23.932 26.5415L24.6618 38.9375L22.4727 32.5937L23.932 26.5415Z" fill="#EA8E3A"/>
<path fill-rule="evenodd" clip-rule="evenodd" d="M10.2148 36.021L16.9277 35.875L15.7602 44.9167L10.2148 36.021Z" fill="#D87C30"/>
<path fill-rule="evenodd" clip-rule="evenodd" d="M3.356 48.8541L15.7601 44.9165L10.2147 36.0208L0.145508 36.7498L3.356 48.8541Z" fill="#EB8F35"/>
<path fill-rule="evenodd" clip-rule="evenodd" d="M23.0566 15.1665L16.7817 20.4165L11.9658 26.2498L23.9322 26.6875L23.0566 15.1665Z" fill="#E8821E"/>
<path fill-rule="evenodd" clip-rule="evenodd" d="M15.7598 44.9165L23.4943 39.5208L22.9105 44.1874V46.8124L17.657 45.7915L15.7598 44.9165Z" fill="#DFCEC3"/>
<path fill-rule="evenodd" clip-rule="evenodd" d="M39.1094 44.9165L31.5209 39.5208L32.1047 44.1874V46.8124L37.3582 45.7915L39.1094 44.9165Z" fill="#DFCEC3"/>
<path fill-rule="evenodd" clip-rule="evenodd" d="M20.7218 29.1665L22.3271 32.5208L16.6357 31.0625L20.7218 29.1665Z" fill="#393939"/>
<path fill-rule="evenodd" clip-rule="evenodd" d="M3.20996 0.145996L23.0567 15.1667L19.7004 7.00003L3.20996 0.145996Z" fill="#E88F35"/>
<path fill-rule="evenodd" clip-rule="evenodd" d="M3.20978 0.145752L0.583008 8.16658L2.04232 16.9166L1.0208 17.4999L2.48012 18.8124L1.31267 19.8333L2.91791 21.2916L1.89639 22.1666L4.2313 25.0832L15.1762 21.7291C20.527 17.4513 23.1538 15.2638 23.0565 15.1666C22.9592 15.0694 16.3436 10.0624 3.20978 0.145752Z" fill="#8E5A30"/>
<path fill-rule="evenodd" clip-rule="evenodd" d="M50.6375 24.9375L54.7236 36.7499L44.5084 36.1665H37.9416V31.0625L38.2335 20.5625L39.6928 21.7292L50.6375 24.9375Z" fill="#F89D35"/>
<path fill-rule="evenodd" clip-rule="evenodd" d="M42.9033 26.25L30.9369 26.5417L32.2502 32.6667L37.9416 31.2083L42.9033 26.25Z" fill="#D87C30"/>
<path fill-rule="evenodd" clip-rule="evenodd" d="M42.9033 26.3958L37.9416 31.0624V35.7291L42.9033 26.3958Z" fill="#EA8D3A"/>
<path fill-rule="evenodd" clip-rule="evenodd" d="M37.9414 31.2083L32.1041 32.6666L30.2069 38.9375L31.5204 39.6666L37.9414 35.8749V31.2083Z" fill="#F89D35"/>
<path fill-rule="evenodd" clip-rule="evenodd" d="M37.9419 35.875L39.1094 44.9167L31.5209 39.6667L37.9419 35.875Z" fill="#EB8F35"/>
<path fill-rule="evenodd" clip-rule="evenodd" d="M30.9372 26.5415L30.2074 38.9375L32.3965 32.5937L30.9372 26.5415Z" fill="#EA8E3A"/>
<path fill-rule="evenodd" clip-rule="evenodd" d="M44.6543 36.021L37.9414 35.875L39.1089 44.9167L44.6543 36.021Z" fill="#D87C30"/>
<path fill-rule="evenodd" clip-rule="evenodd" d="M51.5131 48.8541L39.1091 44.9165L44.6545 36.0208L54.7236 36.7498L51.5131 48.8541Z" fill="#EB8F35"/>
<path fill-rule="evenodd" clip-rule="evenodd" d="M31.8125 15.1665L38.0874 20.4165L42.9033 26.2498L30.9369 26.6875L31.8125 15.1665Z" fill="#E8821E"/>
<path fill-rule="evenodd" clip-rule="evenodd" d="M34.1474 29.1665L32.542 32.5208L38.2335 31.0625L34.1474 29.1665Z" fill="#393939"/>
<path fill-rule="evenodd" clip-rule="evenodd" d="M51.6592 0.145996L31.8125 15.1667L35.1688 7.00003L51.6592 0.145996Z" fill="#E88F35"/>
<path fill-rule="evenodd" clip-rule="evenodd" d="M51.6594 0.145752L54.2861 8.16658L52.8268 16.9166L53.8483 17.4999L52.389 18.8124L53.5565 19.8333L51.9512 21.2916L52.9727 22.1666L50.6378 25.0832L39.693 21.7291C34.3421 17.4513 31.7154 15.2638 31.8127 15.1666C31.91 15.0694 38.5255 10.0624 51.6594 0.145752Z" fill="#8E5A30"/>
</svg>
