<?xml version="1.0" encoding="utf-8"?>
<!-- Generator: Adobe Illustrator 16.0.0, SVG Export Plug-In . SVG Version: 6.00 game 0)  -->
<!DOCTYPE svg PUBLIC "-//W3C//DTD SVG 1.1//EN" "http://www.w3.org/Graphics/SVG/1.1/DTD/svg11.dtd">
<svg version="1.1" id="Layer_1" xmlns="http://www.w3.org/2000/svg" xmlns:xlink="http://www.w3.org/1999/xlink" x="0px" y="0px"
	 width="512px" height="512px" viewBox="0 0 512 512" enable-background="new 0 0 512 512" xml:space="preserve">
<polygon fill="#FFFFFF" points="409.579,237.686 403.337,233.157 413.325,223.976 405.585,217.938 415.573,210.268 408.955,205.237 
	417.021,166.247 397.961,108.418 298.147,144.363 222.097,144.363 124.603,109.146 103.806,166.642 111.786,205.237 
	105.046,210.268 115.034,217.938 107.417,223.976 117.407,233.157 111.165,237.686 125.522,254.666 105.94,320.581 127.273,395.581 
	197.697,375.139 208.554,384.087 236.397,403.581 284.219,403.581 312.188,384.087 322.532,375.562 389.408,394.581 413.94,319.08 
	395.097,254.666 "/>
<g>
	<polygon fill="#E17726" stroke="#E17726" stroke-linecap="round" stroke-linejoin="round" points="389.408,124.616 
		277.304,207.878 298.034,158.755 	"/>
	<g>
		<polygon fill="#E37725" stroke="#E37725" stroke-linecap="round" stroke-linejoin="round" points="130.609,124.616 
			241.813,208.667 222.097,158.755 		"/>
		<polygon fill="#E37725" stroke="#E37725" stroke-linecap="round" stroke-linejoin="round" points="349.073,317.617 
			319.216,363.36 383.099,380.937 401.464,318.63 		"/>
		<polygon fill="#E37725" stroke="#E37725" stroke-linecap="round" stroke-linejoin="round" points="118.779,318.63 
			137.032,380.937 200.915,363.36 171.058,317.617 		"/>
		<polygon fill="#E37725" stroke="#E37725" stroke-linecap="round" stroke-linejoin="round" points="197.31,240.326 
			179.507,267.254 242.94,270.071 240.687,201.906 		"/>
		<polygon fill="#E37725" stroke="#E37725" stroke-linecap="round" stroke-linejoin="round" points="322.709,240.326 
			278.769,201.118 277.304,270.071 340.623,267.254 		"/>
		<polygon fill="#E37725" stroke="#E37725" stroke-linecap="round" stroke-linejoin="round" points="200.915,363.36 238.997,344.77 
			206.099,319.08 		"/>
		<polygon fill="#E37725" stroke="#E37725" stroke-linecap="round" stroke-linejoin="round" points="281.022,344.77 319.216,363.36 
			313.921,319.08 		"/>
	</g>
	<g>
		<polygon fill="#D6C0B3" stroke="#D6C0B3" stroke-linecap="round" stroke-linejoin="round" points="319.216,363.36 281.022,344.77 
			284.063,369.669 283.726,380.147 		"/>
		<polygon fill="#D6C0B3" stroke="#D6C0B3" stroke-linecap="round" stroke-linejoin="round" points="200.915,363.36 
			236.405,380.147 236.18,369.669 238.997,344.77 		"/>
	</g>
	<polygon fill="#233447" stroke="#233447" stroke-linecap="round" stroke-linejoin="round" points="236.969,302.633 
		205.196,293.279 227.616,283.027 	"/>
	<polygon fill="#233447" stroke="#233447" stroke-linecap="round" stroke-linejoin="round" points="283.05,302.633 292.401,283.027 
		314.935,293.279 	"/>
	<g>
		<polygon fill="#CD6328" stroke="#CD6328" stroke-linecap="round" stroke-linejoin="round" points="200.915,363.36 
			206.323,317.617 171.058,318.63 		"/>
		<polygon fill="#CD6328" stroke="#CD6328" stroke-linecap="round" stroke-linejoin="round" points="313.808,317.617 
			319.216,363.36 349.073,318.63 		"/>
		<polygon fill="#CD6328" stroke="#CD6328" stroke-linecap="round" stroke-linejoin="round" points="340.623,267.254 
			277.304,270.071 283.163,302.633 292.514,283.027 315.048,293.279 		"/>
		<polygon fill="#CD6328" stroke="#CD6328" stroke-linecap="round" stroke-linejoin="round" points="205.196,293.279 
			227.729,283.027 236.969,302.633 242.94,270.071 179.507,267.254 		"/>
	</g>
	<g>
		<polygon fill="#E37525" stroke="#E37525" stroke-linecap="round" stroke-linejoin="round" points="179.507,267.254 
			206.099,319.08 205.196,293.279 		"/>
		<polygon fill="#E37525" stroke="#E37525" stroke-linecap="round" stroke-linejoin="round" points="315.048,293.279 
			313.921,319.08 340.623,267.254 		"/>
		<polygon fill="#E37525" stroke="#E37525" stroke-linecap="round" stroke-linejoin="round" points="242.94,270.071 
			236.969,302.633 244.405,341.052 246.095,290.463 		"/>
		<polygon fill="#E37525" stroke="#E37525" stroke-linecap="round" stroke-linejoin="round" points="277.304,270.071 
			274.261,290.35 275.614,341.052 283.163,302.633 		"/>
	</g>
	<polygon fill="#F6851F" stroke="#F6851F" stroke-linecap="round" stroke-linejoin="round" points="283.163,302.633 
		275.614,341.052 281.022,344.77 313.921,319.08 315.048,293.279 	"/>
	<polygon fill="#F6851F" stroke="#F6851F" stroke-linecap="round" stroke-linejoin="round" points="205.196,293.279 206.099,319.08 
		238.997,344.77 244.405,341.052 236.969,302.633 	"/>
	<polygon fill="#C1AE9F" stroke="#C1AE9F" stroke-linecap="round" stroke-linejoin="round" points="283.726,380.147 
		284.063,369.669 281.247,367.191 238.771,367.191 236.18,369.669 236.405,380.147 200.915,363.36 213.308,373.5 238.433,390.964 
		281.585,390.964 306.823,373.5 319.216,363.36 	"/>
	<polygon fill="#171717" stroke="#171717" stroke-linecap="round" stroke-linejoin="round" points="281.022,344.77 275.614,341.052 
		244.405,341.052 238.997,344.77 236.18,369.669 238.771,367.191 281.247,367.191 284.063,369.669 	"/>
	<g>
		<polygon fill="#763E1A" stroke="#763E1A" stroke-linecap="round" stroke-linejoin="round" points="394.141,213.286 
			403.718,167.317 389.408,124.616 281.022,205.061 322.709,240.326 381.635,257.564 394.704,242.354 389.07,238.298 
			398.083,230.073 391.099,224.665 400.112,217.792 		"/>
		<polygon fill="#763E1A" stroke="#763E1A" stroke-linecap="round" stroke-linejoin="round" points="116.413,167.317 
			125.989,213.286 119.906,217.792 128.92,224.665 122.047,230.073 131.061,238.298 125.427,242.354 138.384,257.564 
			197.31,240.326 238.997,205.061 130.609,124.616 		"/>
	</g>
	<polygon fill="#F6851F" stroke="#F6851F" stroke-linecap="round" stroke-linejoin="round" points="381.635,257.564 
		322.709,240.326 340.623,267.254 313.921,319.08 349.073,318.63 401.464,318.63 	"/>
	<polygon fill="#F6851F" stroke="#F6851F" stroke-linecap="round" stroke-linejoin="round" points="197.31,240.326 138.384,257.564 
		118.779,318.63 171.058,318.63 206.099,319.08 179.507,267.254 	"/>
	<polygon fill="#F6851F" stroke="#F6851F" stroke-linecap="round" stroke-linejoin="round" points="277.304,270.071 
		281.022,205.061 298.147,158.755 222.097,158.755 238.997,205.061 242.94,270.071 244.292,290.576 244.405,341.052 
		275.614,341.052 275.839,290.576 	"/>
</g>
</svg>
