<svg width="35" height="31" viewBox="0 0 35 31" fill="none" xmlns="http://www.w3.org/2000/svg">
<path d="M24.3508 0.850158C24.1068 0.712117 23.8311 0.639758 23.5508 0.640158C23.2735 0.638695 23.0008 0.711183 22.7608 0.850158L13.3308 6.38016C13.0938 6.51699 12.8969 6.71377 12.76 6.95073C12.6231 7.18768 12.551 7.45649 12.5508 7.73016C12.5529 8.00384 12.6252 8.2724 12.7608 8.51016C12.9001 8.74751 13.0959 8.94675 13.3308 9.09016L22.7608 14.5802C23.0013 14.7179 23.2736 14.7903 23.5508 14.7903C23.8279 14.7903 24.1003 14.7179 24.3408 14.5802L33.7708 9.09016C34.0102 8.95259 34.2074 8.75198 34.3408 8.51016C34.4787 8.27334 34.5513 8.0042 34.5513 7.73016C34.5513 7.45612 34.4787 7.18697 34.3408 6.95016C34.2098 6.70909 34.0119 6.51111 33.7708 6.38016L24.3408 0.850158H24.3508Z" fill="#F6F6FE"/>
<path d="M12.6797 11.1001L22.7797 16.7901C23.0156 16.9201 23.2804 16.9889 23.5497 16.9901C23.8192 16.9902 24.0843 16.9213 24.3197 16.7901L34.4197 11.1001C34.5546 11.4612 34.5546 11.859 34.4197 12.2201C34.2988 12.5824 34.0499 12.8881 33.7197 13.0801L24.2897 18.5801C24.0492 18.7178 23.7769 18.7902 23.4997 18.7902C23.2226 18.7902 22.9502 18.7178 22.7097 18.5801L13.2797 13.0801C12.9495 12.8881 12.7007 12.5824 12.5797 12.2201C12.4448 11.859 12.4448 11.4612 12.5797 11.1001H12.6797Z" fill="#F6F6FE"/>
<path d="M12.6797 15L22.7797 20.69C23.0156 20.82 23.2804 20.8888 23.5497 20.89C23.8192 20.8901 24.0843 20.8213 24.3197 20.69L34.4197 15C34.5546 15.3611 34.5546 15.7589 34.4197 16.12C34.2988 16.4823 34.0499 16.788 33.7197 16.98L24.2897 22.48C24.0492 22.6177 23.7769 22.6901 23.4997 22.6901C23.2226 22.6901 22.9502 22.6177 22.7097 22.48L13.2797 16.98C12.9495 16.788 12.7007 16.4823 12.5797 16.12C12.4448 15.7589 12.4448 15.3611 12.5797 15H12.6797Z" fill="#F6F6FE"/>
<path d="M9.65015 16.18C9.45407 16.0616 9.22921 15.9993 9.00015 16C8.78107 16.0032 8.5669 16.0654 8.38015 16.18L0.630148 20.69C0.438373 20.8081 0.280017 20.9734 0.170148 21.17C0.058682 21.3631 0 21.5821 0 21.805C0 22.0279 0.058682 22.2469 0.170148 22.44C0.278542 22.6385 0.441682 22.8016 0.640148 22.91L8.38015 27.41C8.57886 27.521 8.80256 27.5795 9.03015 27.58C9.25458 27.5795 9.47507 27.521 9.67015 27.41L17.3801 22.91C17.5736 22.7984 17.7327 22.6358 17.8401 22.44C17.9597 22.2481 18.0222 22.0261 18.0201 21.8C18.0183 21.5758 17.9599 21.3556 17.8501 21.16C17.7303 20.9704 17.5698 20.8098 17.3801 20.69L9.64015 16.17L9.65015 16.18Z" fill="#F6F6FE"/>
<path d="M0.100007 24.5601L8.38001 29.2101C8.57162 29.3206 8.78879 29.3792 9.01001 29.3801C9.22809 29.3794 9.44207 29.3207 9.63001 29.2101L17.9 24.5601C18.0143 24.8526 18.0143 25.1775 17.9 25.4701C17.8018 25.7677 17.5994 26.0198 17.33 26.1801L9.61001 30.6801C9.41492 30.791 9.19444 30.8496 8.97001 30.8501C8.76283 30.8398 8.56087 30.7816 8.38001 30.6801L0.660007 26.1801C0.389775 26.0207 0.186893 25.7682 0.089338 25.4701C-0.00821712 25.1719 0.00624149 24.8484 0.130007 24.5601H0.100007Z" fill="#F6F6FE"/>
<path d="M8.18495 20.4345C8.19413 20.4974 8.21634 20.5576 8.25028 20.6116C8.28421 20.6656 8.32917 20.7123 8.38248 20.7488C8.43579 20.7853 8.49637 20.811 8.5606 20.8242C8.62484 20.8375 8.69142 20.838 8.7564 20.8259C8.82326 20.8191 8.8883 20.7995 8.9477 20.7682C9.0071 20.737 9.05967 20.6947 9.10231 20.6438C9.14496 20.593 9.17683 20.5346 9.19605 20.4722C9.21527 20.4097 9.22146 20.3444 9.21426 20.2801L8.18495 20.4345ZM25.5579 7.56605C25.6067 7.52279 25.6463 7.47069 25.6742 7.41282C25.7022 7.35495 25.7179 7.29247 25.7206 7.22908C25.7233 7.16569 25.7129 7.10266 25.6898 7.0437C25.6668 6.98475 25.6318 6.93107 25.5867 6.88582L22.4433 3.86454C22.3962 3.81073 22.3379 3.76723 22.2719 3.73682C22.206 3.7064 22.1339 3.68974 22.0604 3.68791C21.9869 3.68608 21.9134 3.69912 21.8448 3.72619C21.7762 3.75326 21.714 3.79376 21.662 3.8451C21.61 3.88505 21.5674 3.93526 21.5371 3.99228C21.5067 4.04929 21.4895 4.11175 21.4865 4.17534C21.4834 4.23892 21.4947 4.30212 21.5196 4.36057C21.5444 4.41902 21.5822 4.47132 21.6303 4.51386L24.4585 7.20019L21.3402 9.92211C21.2899 9.96315 21.2488 10.0138 21.2197 10.0707C21.1905 10.1276 21.1739 10.1895 21.1709 10.2525C21.1679 10.3155 21.1786 10.3782 21.2023 10.4364C21.226 10.4947 21.2621 10.5473 21.3084 10.5909C21.4061 10.6824 21.5369 10.7339 21.6742 10.735C21.8116 10.736 21.9452 10.6865 22.048 10.5966L25.5579 7.56605ZM9.22605 20.326C8.72737 16.4539 9.80399 13.3636 12.3839 11.2204C14.9637 9.07726 19.2022 7.79241 25.1846 7.74761L25.2321 6.79344C19.1097 6.78859 14.6236 8.10036 11.6852 10.4825C8.74677 12.8645 7.65412 16.3382 8.18495 20.4345L9.22605 20.326Z" fill="#4564AE"/>
</svg>
