<svg width="75" height="53" viewBox="0 0 75 53" fill="none" xmlns="http://www.w3.org/2000/svg">
<path d="M49.1909 34.0926V32.419C49.4529 32.4847 49.6717 32.6071 49.8829 32.7482C49.8829 32.7482 50.0255 32.7885 50.1113 32.6885C50.1972 32.5885 50.1136 32.4728 50.1136 32.4728C49.868 32.2936 49.5418 32.1481 49.1909 32.0809V31.4195C49.1909 31.3329 49.1208 31.262 49.0334 31.262C48.9461 31.262 48.8759 31.3322 48.8759 31.4195V32.0436C48.8453 32.0421 48.8147 32.0413 48.7849 32.0413C48.6975 32.0413 48.6132 32.0458 48.5326 32.0533V31.3904C48.5326 31.3038 48.4624 31.2329 48.3751 31.2329C48.2877 31.2329 48.2175 31.3031 48.2175 31.3904V32.1085C47.6114 32.2653 47.2852 32.6788 47.2852 33.1476C47.2852 33.6724 47.7114 33.9485 48.2175 34.1471V36.0118C47.8607 35.9222 47.5816 35.752 47.3166 35.5534C47.3166 35.5534 47.2203 35.4788 47.1053 35.593C46.9911 35.7072 47.0687 35.8319 47.0687 35.8319C47.3688 36.0603 47.763 36.2574 48.2175 36.3499V37.0284C48.2175 37.115 48.2877 37.186 48.3751 37.186C48.4624 37.186 48.5326 37.1158 48.5326 37.0284V36.3954C48.6117 36.4022 48.6916 36.4059 48.7729 36.4059C48.808 36.4059 48.8423 36.4052 48.8759 36.4037V37.0561C48.8759 37.1427 48.9461 37.2136 49.0334 37.2136C49.1208 37.2136 49.1909 37.1434 49.1909 37.0561V36.3708C49.9337 36.2417 50.3397 35.7669 50.3397 35.2332C50.3397 34.5621 49.7896 34.3016 49.1909 34.0926ZM48.2175 33.738C47.9279 33.5985 47.7189 33.4178 47.7189 33.1252C47.7189 32.8587 47.8772 32.5974 48.2175 32.4623V33.738ZM48.8759 36.0789C48.8491 36.0797 48.8222 36.0804 48.7946 36.0804C48.7027 36.0804 48.6162 36.0752 48.5326 36.067V34.2606C48.6109 34.2867 48.6893 34.3121 48.7669 34.3367C48.8028 34.3486 48.8394 34.3606 48.8759 34.3725V36.0789ZM48.8759 33.9859C48.858 33.9799 48.8394 33.9739 48.8214 33.9672C48.7236 33.9344 48.6266 33.9015 48.5326 33.8672V32.3832C48.6072 32.3735 48.6871 32.3683 48.7729 32.3683C48.808 32.3683 48.8423 32.3698 48.8759 32.3713V33.9859ZM49.1909 36.0371V34.489C49.5784 34.6502 49.906 34.8756 49.906 35.2601C49.906 35.6102 49.6627 35.9252 49.1909 36.0371Z" fill="#F6F6FE"/>
<path d="M57.4083 35.9932L57.4082 35.9932C57.1939 33.0509 56.4403 30.135 55.0059 27.9591C53.5915 25.8135 51.5209 24.3851 48.5647 24.3159L57.4083 35.9932ZM57.4083 35.9932C57.506 37.3339 57.3333 38.3756 56.9744 39.1873C56.6185 39.9919 56.0615 40.6122 55.3178 41.0893C53.7961 42.0656 51.4846 42.4474 48.5882 42.4242M57.4083 35.9932L48.5882 42.4242M42.0465 27.8076C40.5866 29.9994 39.8494 32.9771 39.8169 35.9468L42.0465 27.8076ZM42.0465 27.8076C43.4877 25.6437 45.6232 24.2474 48.5646 24.3159L42.0465 27.8076ZM48.5882 42.4242C45.7956 42.4016 43.5793 41.869 42.087 40.8231M48.5882 42.4242L42.087 40.8231M42.087 40.8231C40.6407 39.8093 39.7921 38.2568 39.8169 35.9469L42.087 40.8231ZM44.2648 34.2375C44.2648 36.6926 46.2547 38.6825 48.7098 38.6825C51.1641 38.6825 53.1548 36.6918 53.1548 34.2375C53.1548 31.7825 51.1648 29.7925 48.7098 29.7925C46.2547 29.7925 44.2648 31.7825 44.2648 34.2375Z" stroke="#F6F6FE" stroke-width="1.5"/>
<path d="M43.3333 17.1086C43.3063 17.1107 43.2785 17.1118 43.2504 17.113C43.1165 17.1184 42.9763 17.1241 42.8973 17.2333C42.7761 17.3995 42.8847 17.5291 42.9851 17.649C43.0065 17.6745 43.0275 17.6996 43.0459 17.7245L43.3018 17.5273C43.302 17.5269 43.3023 17.5266 43.3025 17.5263C43.3161 17.5069 43.3419 17.4584 43.3437 17.3879C43.3454 17.3205 43.3239 17.2763 43.3188 17.2666C43.3181 17.2653 43.3177 17.2646 43.3177 17.2646C43.3178 17.2645 43.3238 17.2739 43.3445 17.2991C43.3458 17.3007 43.347 17.3022 43.3482 17.3036L43.3333 17.1086ZM43.3333 17.1086L43.3483 17.3037" stroke="#F6F6FE"/>
<path d="M50.6922 22.4579C50.9635 22.491 51.1788 22.5314 51.3208 22.576C51.0795 22.7806 50.7774 22.8386 50.3681 22.8298C50.1537 22.8251 49.9228 22.8026 49.6644 22.7773C49.6291 22.7739 49.5934 22.7704 49.5571 22.7669C49.2589 22.7381 48.9314 22.7094 48.5821 22.708C48.2359 22.7067 47.8809 22.7269 47.5428 22.7464L47.5282 22.7473C47.1921 22.7667 46.8744 22.785 46.5832 22.7834C46.2867 22.7818 46.0339 22.7593 45.8315 22.7029C45.7132 22.67 45.6185 22.6273 45.5437 22.575C45.7183 22.5237 45.9887 22.4809 46.3213 22.4478C47.0269 22.3776 47.9355 22.3574 48.5818 22.3556C49.2258 22.3537 50.0633 22.3813 50.6922 22.4579Z" stroke="#F6F6FE" stroke-width="0.5"/>
<path d="M35.7954 20.9981V19.701C36.0013 19.752 36.1731 19.8468 36.3391 19.9562C36.3391 19.9562 36.4512 19.9874 36.5186 19.9099C36.5861 19.8324 36.5204 19.7427 36.5204 19.7427C36.3274 19.6038 36.0711 19.491 35.7954 19.439V18.9264C35.7954 18.8593 35.7402 18.8043 35.6716 18.8043C35.603 18.8043 35.5478 18.8587 35.5478 18.9264V19.41C35.5238 19.4089 35.4997 19.4083 35.4763 19.4083C35.4076 19.4083 35.3413 19.4118 35.278 19.4176V18.9038C35.278 18.8367 35.2228 18.7817 35.1542 18.7817C35.0856 18.7817 35.0304 18.8361 35.0304 18.9038V19.4604C34.5541 19.5819 34.2978 19.9024 34.2978 20.2657C34.2978 20.6724 34.6327 20.8865 35.0304 21.0404V22.4856C34.7501 22.4162 34.5307 22.2842 34.3224 22.1304C34.3224 22.1304 34.2468 22.0725 34.1564 22.161C34.0667 22.2495 34.1277 22.3461 34.1277 22.3461C34.3635 22.5232 34.6732 22.6759 35.0304 22.7477V23.2736C35.0304 23.3407 35.0856 23.3956 35.1542 23.3956C35.2228 23.3956 35.278 23.3412 35.278 23.2736V22.783C35.3402 22.7882 35.4029 22.7911 35.4669 22.7911C35.4944 22.7911 35.5214 22.7905 35.5478 22.7893V23.295C35.5478 23.3621 35.603 23.417 35.6716 23.417C35.7402 23.417 35.7954 23.3627 35.7954 23.295V22.7639C36.379 22.6638 36.6981 22.2958 36.6981 21.8822C36.6981 21.362 36.2658 21.1601 35.7954 20.9981ZM35.0304 20.7233C34.8028 20.6151 34.6386 20.4751 34.6386 20.2483C34.6386 20.0418 34.763 19.8393 35.0304 19.7346V20.7233ZM35.5478 22.5376C35.5267 22.5382 35.5056 22.5388 35.4839 22.5388C35.4117 22.5388 35.3437 22.5348 35.278 22.5284V21.1283C35.3396 21.1486 35.4012 21.1682 35.4622 21.1873C35.4903 21.1966 35.5191 21.2058 35.5478 21.2151V22.5376ZM35.5478 20.9154C35.5337 20.9108 35.5191 20.9062 35.505 20.9009C35.4282 20.8755 35.3519 20.85 35.278 20.8234V19.6733C35.3366 19.6658 35.3994 19.6617 35.4669 19.6617C35.4944 19.6617 35.5214 19.6629 35.5478 19.664V20.9154ZM35.7954 22.5052V21.3053C36.0998 21.4303 36.3573 21.605 36.3573 21.903C36.3573 22.1743 36.1661 22.4185 35.7954 22.5052Z" fill="#F6F6FE"/>
<path d="M42.0933 22.4841L42.0933 22.4841C41.9262 20.2218 41.3392 17.9945 40.2341 16.3411C39.1493 14.718 37.5678 13.6416 35.3004 13.5892L42.0933 22.4841ZM42.0933 22.4841C42.1685 23.5014 42.0347 24.2782 41.7671 24.8748C41.5026 25.4647 41.0885 25.9215 40.5279 26.2762C39.372 27.0077 37.5936 27.3046 35.3235 27.2866C33.1428 27.2693 31.4371 26.8584 30.3017 26.0735C29.2135 25.3212 28.5713 24.1733 28.5902 22.4371L42.0933 22.4841ZM30.3127 16.2243C29.1889 17.8883 28.6155 20.1602 28.5902 22.437L30.3127 16.2243ZM30.3127 16.2243C31.4175 14.5884 33.0471 13.5375 35.3003 13.5892L30.3127 16.2243ZM31.7643 21.1103C31.7643 23.116 33.4098 24.7241 35.4179 24.7241C37.4255 24.7241 39.0715 23.1154 39.0715 21.1103C39.0715 19.1046 37.4261 17.4965 35.4179 17.4965C33.4098 17.4965 31.7643 19.1046 31.7643 21.1103Z" stroke="#F6F6FE" stroke-width="1.5"/>
<path d="M31.1933 7.8346C31.1721 7.83621 31.1502 7.83708 31.1282 7.83797C31.0229 7.84217 30.9128 7.84658 30.8507 7.93122C30.7554 8.06 30.8408 8.16048 30.9197 8.25338C30.9365 8.27317 30.953 8.2926 30.9674 8.3119L31.1651 8.16381L31.1665 8.16277L31.2153 8.12621L31.1933 7.8346ZM31.1933 7.8346C31.4308 7.81667 31.6279 7.91676 31.8074 8.0504M31.1933 7.8346L31.8074 8.0504M32.1366 8.96222C32.5976 9.51933 33.0597 10.125 33.3881 10.8255C33.6289 10.8177 33.8746 10.8064 34.1241 10.7949C35.1524 10.7475 36.2451 10.6971 37.3228 10.8807C37.3305 10.8701 37.3394 10.8571 37.3497 10.8411L37.3501 10.8404C37.8709 10.0381 38.5206 9.34652 39.1352 8.69237C39.1883 8.63589 39.2411 8.57969 39.2935 8.52372L39.6584 8.86556L39.293 8.52429C39.3068 8.5095 39.3206 8.49466 39.3343 8.47976C39.0043 8.50063 38.732 8.61211 38.4954 8.84673L32.1366 8.96222ZM32.1366 8.96222C32.4579 9.18053 32.7921 9.32676 33.1657 9.33932C33.6344 9.35508 34.0614 9.15676 34.4889 8.87028M32.1366 8.96222L34.4889 8.87028M34.4889 8.87028C34.6083 8.79042 34.7186 8.70488 34.8165 8.62757L34.4889 8.87028ZM35.2358 8.46807C35.1244 8.46329 34.9866 8.49351 34.8167 8.62748L35.2358 8.46807ZM35.2358 8.46807C35.3579 8.47332 35.5001 8.52356 35.6598 8.63318L35.2358 8.46807ZM31.8074 8.0504C31.8829 8.10648 31.9526 8.16985 32.0224 8.23329M31.8074 8.0504L32.0224 8.23329M32.0224 8.23329C32.08 8.28568 32.1377 8.33812 32.1987 8.38653L32.0224 8.23329ZM35.9564 8.86992C36.0508 8.95033 36.163 9.04594 36.2843 9.13294L35.6599 8.63324C35.7469 8.69306 35.8321 8.76413 35.9365 8.85298C35.943 8.85854 35.9497 8.86419 35.9564 8.86992ZM38.1446 9.13182C38.25 9.05763 38.3777 8.96355 38.4953 8.84684L38.1446 9.13182Z" stroke="#F6F6FE"/>
<path d="M35.3179 11.9576C35.823 11.9562 36.4788 11.9775 36.9701 12.0366C37.1175 12.0543 37.2419 12.0746 37.3398 12.0963C37.1803 12.189 36.9834 12.2182 36.7226 12.2126C36.5561 12.2091 36.3768 12.1918 36.1733 12.1722C36.1457 12.1696 36.1176 12.1668 36.089 12.1641C35.8544 12.1418 35.5952 12.1193 35.3181 12.1183C35.0443 12.1172 34.7639 12.133 34.4984 12.1481L34.4878 12.1487C34.223 12.1638 33.9747 12.178 33.7474 12.1767C33.5161 12.1755 33.3226 12.1581 33.1699 12.1161C33.1418 12.1084 33.1157 12.1001 33.0916 12.0911C33.2134 12.0673 33.3675 12.0464 33.5463 12.0289C34.0983 11.9747 34.8104 11.959 35.3179 11.9576ZM37.5251 11.9412L37.525 11.9414L37.5251 11.9412Z" stroke="#F6F6FE" stroke-width="0.5"/>
<path d="M22.5819 35.148V33.6563C22.8168 33.7149 23.0128 33.824 23.2022 33.9497C23.2022 33.9497 23.33 33.9857 23.407 33.8965C23.484 33.8074 23.409 33.7042 23.409 33.7042C23.1888 33.5445 22.8964 33.4148 22.5819 33.3549V32.7655C22.5819 32.6883 22.519 32.6251 22.4407 32.6251C22.3624 32.6251 22.2995 32.6876 22.2995 32.7655V33.3217C22.272 33.3203 22.2446 33.3197 22.2178 33.3197C22.1395 33.3197 22.0639 33.3237 21.9916 33.3303V32.7395C21.9916 32.6623 21.9287 32.5991 21.8504 32.5991C21.7721 32.5991 21.7092 32.6617 21.7092 32.7395V33.3795C21.1659 33.5193 20.8734 33.8879 20.8734 34.3057C20.8734 34.7734 21.2555 35.0196 21.7092 35.1966V36.8585C21.3894 36.7787 21.1391 36.627 20.9015 36.45C20.9015 36.45 20.8152 36.3835 20.7121 36.4853C20.6098 36.5871 20.6794 36.6982 20.6794 36.6982C20.9484 36.9018 21.3017 37.0774 21.7092 37.1599V37.7647C21.7092 37.8419 21.7721 37.9051 21.8504 37.9051C21.9287 37.9051 21.9916 37.8426 21.9916 37.7647V37.2005C22.0626 37.2065 22.1342 37.2098 22.2071 37.2098C22.2386 37.2098 22.2694 37.2092 22.2995 37.2078V37.7893C22.2995 37.8665 22.3624 37.9297 22.4407 37.9297C22.519 37.9297 22.5819 37.8672 22.5819 37.7893V37.1786C23.2477 37.0635 23.6118 36.6403 23.6118 36.1646C23.6118 35.5665 23.1186 35.3343 22.5819 35.148ZM21.7092 34.832C21.4496 34.7075 21.2622 34.5465 21.2622 34.2857C21.2622 34.0482 21.4041 33.8153 21.7092 33.6949V34.832ZM22.2995 36.9184C22.2754 36.9191 22.2513 36.9197 22.2265 36.9197C22.1442 36.9197 22.0666 36.9151 21.9916 36.9078V35.2977C22.0619 35.321 22.1322 35.3436 22.2018 35.3655C22.2339 35.3762 22.2667 35.3868 22.2995 35.3975V36.9184ZM22.2995 35.0528C22.2834 35.0475 22.2667 35.0422 22.2506 35.0362C22.163 35.0069 22.076 34.9777 21.9916 34.9471V33.6244C22.0586 33.6157 22.1302 33.6111 22.2071 33.6111C22.2386 33.6111 22.2694 33.6124 22.2995 33.6137V35.0528ZM22.5819 36.8812V35.5013C22.9292 35.645 23.223 35.8459 23.223 36.1886C23.223 36.5006 23.0048 36.7814 22.5819 36.8812Z" fill="#F6F6FE"/>
<path d="M29.8717 36.8481L29.8717 36.8481C29.6801 34.2343 29.0071 31.651 27.7317 29.7276C26.4765 27.8345 24.6423 26.5764 22.0192 26.5153L29.8717 36.8481ZM29.8717 36.8481C29.9586 38.0326 29.8046 38.9465 29.4898 39.6543C29.178 40.3552 28.6899 40.8964 28.0348 41.3143C26.69 42.1722 24.6362 42.513 22.0426 42.4923C19.5458 42.4722 17.5764 41.9985 16.2567 41.0788C14.9834 40.1915 14.2343 38.8345 14.2563 36.8015L29.8717 36.8481ZM16.2409 29.5928C14.9434 31.5297 14.2853 34.1664 14.2563 36.8014L16.2409 29.5928ZM16.2409 29.5928C17.5197 27.684 19.4107 26.4549 22.0191 26.5153L16.2409 29.5928ZM18.0885 35.277C18.0885 37.5143 19.9113 39.3204 22.151 39.3204C24.39 39.3204 26.2135 37.5137 26.2135 35.277C26.2135 33.0397 24.3907 31.2337 22.151 31.2337C19.9113 31.2337 18.0885 33.0397 18.0885 35.277Z" stroke="#F6F6FE" stroke-width="1.5"/>
<path d="M18.1656 21.0345C18.0821 20.9677 18.0039 20.8959 17.9399 20.8373C17.9328 20.8307 17.9257 20.8242 17.9189 20.818C17.9064 20.8066 17.8944 20.7956 17.8828 20.7851C17.9492 20.8672 18.0164 20.9489 18.0844 21.0303L18.1656 21.0345ZM18.1656 21.0345C18.6158 21.3957 19.0676 21.6477 19.5838 21.6652C20.0977 21.6826 20.5702 21.4638 21.0535 21.1374C21.1872 21.0472 21.3112 20.9503 21.4228 20.8615L18.1656 21.0345ZM22.809 21.1416C22.9171 21.2344 23.043 21.3425 23.1789 21.4408L21.423 20.8614C21.6288 20.6978 21.8017 20.657 21.9461 20.6633C22.1013 20.67 22.2757 20.734 22.4652 20.8652C22.568 20.9364 22.6677 21.0204 22.7867 21.1224C22.794 21.1288 22.8015 21.1352 22.809 21.1416ZM23.179 21.4408C23.4885 21.6647 23.82 21.8349 24.2031 21.8328C24.5835 21.8307 24.9141 21.659 25.2226 21.4391C25.2227 21.439 25.2229 21.4389 25.223 21.4388L24.9328 21.0317L23.179 21.4408ZM25.6138 21.1189C25.9399 20.7929 26.3214 20.6664 26.7877 20.6727C26.7328 20.7344 26.6776 20.7953 26.6218 20.8555L25.6138 21.1189Z" stroke="#F6F6FE"/>
<path d="M22.0372 24.7135C22.6141 24.7118 23.3637 24.7364 23.926 24.8045C24.1388 24.8303 24.3116 24.861 24.435 24.8943C24.2324 25.0446 23.9798 25.0891 23.639 25.0818C23.4478 25.0777 23.2418 25.0577 23.01 25.0351C22.9784 25.0321 22.9464 25.0289 22.9138 25.0258C22.6463 25.0001 22.3518 24.9745 22.0374 24.9733C21.7262 24.9721 21.4073 24.9901 21.1042 25.0075L21.0916 25.0082C20.79 25.0256 20.5058 25.0419 20.2455 25.0405C19.9805 25.039 19.7564 25.019 19.578 24.9696C19.5005 24.9481 19.4352 24.9222 19.3805 24.8919C19.5339 24.8539 19.7512 24.8215 20.013 24.7956C20.6444 24.7331 21.458 24.7151 22.0372 24.7135Z" stroke="#F6F6FE" stroke-width="0.5"/>
</svg>
