<svg width="32" height="32" viewBox="0 0 32 32" fill="none" xmlns="http://www.w3.org/2000/svg">
<path d="M25 24C22.049 24 19.597 23.361 18 22.288V24C18 25.657 21.134 27 25 27C28.866 27 32 25.657 32 24V22.288C30.403 23.361 27.951 24 25 24Z" fill="#F6F6FE"/>
<path d="M25 29C22.049 29 19.597 28.361 18 27.288V29C18 30.657 21.134 32 25 32C28.866 32 32 30.657 32 29V27.288C30.403 28.361 27.951 29 25 29Z" fill="#F6F6FE"/>
<ellipse cx="25" cy="19" rx="7" ry="3" fill="#F6F6FE"/>
<path fill-rule="evenodd" clip-rule="evenodd" d="M0 14C0 6.28 6.28 0 14 0C21.72 0 28 6.28 28 14C28 14.0434 27.997 14.0858 27.994 14.1281C27.9912 14.1668 27.9885 14.2054 27.988 14.245C27.067 14.087 26.068 14 25 14C19.972 14 16 16 16 18.557V27.84C15.345 27.935 14.681 28 14 28C6.28 28 0 21.72 0 14ZM7 15H15V7H13V13H7V15Z" fill="#F6F6FE"/>
</svg>
