<svg width="27" height="32" viewBox="0 0 27 32" fill="none" xmlns="http://www.w3.org/2000/svg">
<rect x="6" y="27" width="19" height="5" rx="1" fill="#F6F6FE"/>
<path d="M20.5 15H13.787C13.1148 17.3638 10.9575 18.996 8.5 19H6C5.44772 19 5 18.5523 5 18C5 17.4477 5.44772 17 6 17H8.5C10.433 17 12 15.433 12 13.5C12 11.567 10.433 10 8.5 10H3C1.34315 10 0 11.3431 0 13V19C0.00330738 22.3123 2.68766 24.9967 6 25H22C24.7601 24.9967 26.9967 22.7601 27 20V11.966C25.3885 13.8886 23.0087 14.9994 20.5 15Z" fill="#F6F6FE"/>
<path d="M8.50022 8.00005C11.3421 8.00402 13.7141 10.1702 13.9752 13H20.5002C24.0901 13 27.0002 10.0899 27.0002 6.50005C27.0002 2.9102 24.0901 4.89993e-05 20.5002 4.89993e-05H9.50022C7.51014 -0.00768356 5.62704 0.900157 4.39363 2.46194C3.16021 4.02372 2.71349 6.06594 3.18222 8.00005H8.50022Z" fill="#F6F6FE"/>
</svg>
