<svg width="33" height="32" viewBox="0 0 33 32" fill="none" xmlns="http://www.w3.org/2000/svg">
<path d="M14.6004 3.60003C9.91054 2.93653 5.28565 5.17782 2.90044 9.27003C2.66875 9.66277 2.7321 10.1625 3.05444 10.485L5.67044 13.1C8.01794 9.39588 11.0484 6.17195 14.6004 3.60003Z" fill="#F6F6FE"/>
<path d="M18.8916 26.319L21.5146 28.942C21.8373 29.2649 22.3376 29.3282 22.7306 29.096C23.5834 28.5962 24.3702 27.9915 25.0726 27.296C27.6951 24.6928 28.9257 20.999 28.3886 17.343C25.817 20.9069 22.5947 23.9524 18.8916 26.319Z" fill="#F6F6FE"/>
<path fill-rule="evenodd" clip-rule="evenodd" d="M30.9474 3.31827e-05C31.2319 -0.0110101 31.508 0.0978242 31.7084 0.300033C31.9086 0.500008 32.0147 0.775434 32.0004 1.05803C30.9484 19.558 14.4874 26.5 14.3214 26.566C13.9484 26.7185 13.5202 26.6322 13.2354 26.347L5.65344 18.766C5.37008 18.4828 5.28311 18.0578 5.43244 17.686C5.50044 17.519 12.3604 0.972033 30.9474 3.31827e-05ZM16.0004 13.5C16.0004 14.8807 17.1197 16 18.5004 16C19.8812 16 21.0004 14.8807 21.0004 13.5C21.0004 12.1193 19.8812 11 18.5004 11C17.1197 11 16.0004 12.1193 16.0004 13.5Z" fill="#F6F6FE"/>
<path d="M7.828 24.172C9.38953 25.734 9.38953 28.266 7.828 29.828C6.266 31.391 0 32 0 32C0 32 0.609 25.734 2.172 24.172C3.734 22.6105 6.266 22.6105 7.828 24.172Z" fill="#F6F6FE"/>
</svg>
