<svg width="18" height="18" viewBox="0 0 18 18" fill="none" xmlns="http://www.w3.org/2000/svg">
<circle cx="9" cy="9" r="9" fill="white"/>
<path d="M6.144 12.08C5.6 12.08 5.12267 11.96 4.712 11.72C4.30667 11.48 3.992 11.144 3.768 10.712C3.544 10.2747 3.432 9.76267 3.432 9.176C3.432 8.584 3.544 8.072 3.768 7.64C3.992 7.208 4.30667 6.87467 4.712 6.64C5.11733 6.4 5.59467 6.28 6.144 6.28C6.69333 6.28 7.17067 6.4 7.576 6.64C7.98133 6.87467 8.296 7.208 8.52 7.64C8.744 8.072 8.856 8.58133 8.856 9.168C8.856 9.76 8.744 10.2747 8.52 10.712C8.296 11.144 7.98133 11.48 7.576 11.72C7.17067 11.96 6.69333 12.08 6.144 12.08ZM6.144 11.2C6.66133 11.2 7.064 11.0213 7.352 10.664C7.64 10.3067 7.784 9.81067 7.784 9.176C7.784 8.536 7.64 8.04 7.352 7.688C7.06933 7.336 6.66667 7.16 6.144 7.16C5.62667 7.16 5.224 7.336 4.936 7.688C4.648 8.04 4.504 8.536 4.504 9.176C4.504 9.81067 4.648 10.3067 4.936 10.664C5.224 11.0213 5.62667 11.2 6.144 11.2ZM10.6893 12.064C10.3479 12.064 10.1773 11.888 10.1773 11.536V6.88C10.1773 6.53333 10.3506 6.36 10.6973 6.36H12.6253C13.2439 6.36 13.7213 6.51467 14.0573 6.824C14.3933 7.13333 14.5613 7.56533 14.5613 8.12C14.5613 8.67467 14.3933 9.10933 14.0573 9.424C13.7213 9.73333 13.2439 9.888 12.6253 9.888H11.2013V11.536C11.2013 11.888 11.0306 12.064 10.6893 12.064ZM11.2013 9.08H12.4653C13.2013 9.08 13.5693 8.76 13.5693 8.12C13.5693 7.48533 13.2013 7.168 12.4653 7.168H11.2013V9.08Z" fill="#04045A"/>
</svg>
