<svg width="17" height="12" viewBox="0 0 17 12" fill="none" xmlns="http://www.w3.org/2000/svg">
<path d="M8.88232 12H1.88232C1.33032 12 0.882324 11.552 0.882324 11C0.882324 10.448 1.33032 10 1.88232 10H8.88232C9.43432 10 9.88232 10.448 9.88232 11C9.88232 11.552 9.43432 12 8.88232 12Z" fill="#FF553E"/>
<path d="M15.8823 2H1.88232C1.33032 2 0.882324 1.552 0.882324 1C0.882324 0.448 1.33032 0 1.88232 0H15.8823C16.4343 0 16.8823 0.448 16.8823 1C16.8823 1.552 16.4343 2 15.8823 2Z" fill="#FF553E"/>
<path d="M15.8823 7H1.88232C1.33032 7 0.882324 6.552 0.882324 6C0.882324 5.448 1.33032 5 1.88232 5H15.8823C16.4343 5 16.8823 5.448 16.8823 6C16.8823 6.552 16.4343 7 15.8823 7Z" fill="#FF553E"/>
</svg>
