<svg width="392" height="278" viewBox="0 0 392 278" fill="none" xmlns="http://www.w3.org/2000/svg">
<g filter="url(#filter0_d_4142_10080)">
<path d="M337.588 99.6113H368.508V68.3137H337.863V37.0732H307.149V68.2336H38.927V38.6066H70.7282V7H38.8126V37.3135H7V68.2336V68.9316V213.061V234.22V263H78.4296V234.22H322.975H337.588H376.599V205.039H337.588V99.6113Z" fill="url(#paint0_linear_4142_10080)"/>
<path d="M337.588 99.6113V98.6113H336.588V99.6113H337.588ZM368.508 99.6113V100.611H369.508V99.6113H368.508ZM368.508 68.3137H369.508V67.3137H368.508V68.3137ZM337.863 68.3137H336.863V69.3137H337.863V68.3137ZM337.863 37.0732H338.863V36.0732H337.863V37.0732ZM307.149 37.0732V36.0732H306.149V37.0732H307.149ZM307.149 68.2336V69.2336H308.149V68.2336H307.149ZM38.927 68.2336H37.927V69.2336H38.927V68.2336ZM38.927 38.6066V37.6066H37.927V38.6066H38.927ZM70.7282 38.6066V39.6066H71.7282V38.6066H70.7282ZM70.7282 7H71.7282V6H70.7282V7ZM38.8126 7V6H37.8126V7H38.8126ZM38.8126 37.3135V38.3135H39.8126V37.3135H38.8126ZM7 37.3135V36.3135H6V37.3135H7ZM7 263H6V264H7V263ZM78.4296 263V264H79.4296V263H78.4296ZM78.4296 234.22V233.22H77.4296V234.22H78.4296ZM376.599 234.22V235.22H377.599V234.22H376.599ZM376.599 205.039H377.599V204.039H376.599V205.039ZM337.588 205.039H336.588V206.039H337.588V205.039ZM337.588 100.611H368.508V98.6113H337.588V100.611ZM369.508 99.6113V68.3137H367.508V99.6113H369.508ZM368.508 67.3137H337.863V69.3137H368.508V67.3137ZM338.863 68.3137V37.0732H336.863V68.3137H338.863ZM337.863 36.0732H307.149V38.0732H337.863V36.0732ZM306.149 37.0732V68.2336H308.149V37.0732H306.149ZM307.149 67.2336H38.927V69.2336H307.149V67.2336ZM39.927 68.2336V38.6066H37.927V68.2336H39.927ZM38.927 39.6066H70.7282V37.6066H38.927V39.6066ZM71.7282 38.6066V7H69.7282V38.6066H71.7282ZM70.7282 6H38.8126V8H70.7282V6ZM37.8126 7V37.3135H39.8126V7H37.8126ZM38.8126 36.3135H7V38.3135H38.8126V36.3135ZM6 37.3135V68.2336H8V37.3135H6ZM6 68.2336V68.9316H8V68.2336H6ZM6 68.9316V213.061H8V68.9316H6ZM6 213.061V234.22H8V213.061H6ZM6 234.22V263H8V234.22H6ZM7 264H78.4296V262H7V264ZM79.4296 263V234.22H77.4296V263H79.4296ZM78.4296 235.22H322.975V233.22H78.4296V235.22ZM322.975 235.22H337.588V233.22H322.975V235.22ZM337.588 235.22H376.599V233.22H337.588V235.22ZM377.599 234.22V205.039H375.599V234.22H377.599ZM376.599 204.039H337.588V206.039H376.599V204.039ZM338.588 205.039V99.6113H336.588V205.039H338.588Z" fill="#04045A"/>
</g>
<defs>
<filter id="filter0_d_4142_10080" x="0" y="0" width="391.598" height="278" filterUnits="userSpaceOnUse" color-interpolation-filters="sRGB">
<feFlood flood-opacity="0" result="BackgroundImageFix"/>
<feColorMatrix in="SourceAlpha" type="matrix" values="0 0 0 0 0 0 0 0 0 0 0 0 0 0 0 0 0 0 127 0" result="hardAlpha"/>
<feOffset dx="4" dy="4"/>
<feGaussianBlur stdDeviation="5"/>
<feComposite in2="hardAlpha" operator="out"/>
<feColorMatrix type="matrix" values="0 0 0 0 0.391435 0 0 0 0 0.850244 0 0 0 0 0.995131 0 0 0 1 0"/>
<feBlend mode="normal" in2="BackgroundImageFix" result="effect1_dropShadow_4142_10080"/>
<feBlend mode="normal" in="SourceGraphic" in2="effect1_dropShadow_4142_10080" result="shape"/>
</filter>
<linearGradient id="paint0_linear_4142_10080" x1="1834.23" y1="131.375" x2="1794.93" y2="452.756" gradientUnits="userSpaceOnUse">
<stop stop-color="#516AFF"/>
<stop offset="1" stop-color="#8208FC"/>
</linearGradient>
</defs>
</svg>
