<svg width="18" height="18" viewBox="0 0 18 18" fill="none" xmlns="http://www.w3.org/2000/svg">
<circle cx="9" cy="9" r="9" fill="white"/>
<path d="M11.7976 6.88256C11.5794 6.75788 11.2989 6.75788 11.0495 6.88256L9.30388 7.91123L8.11935 8.56584L6.40491 9.5945C6.1867 9.71919 5.90616 9.71919 5.65678 9.5945L4.3164 8.78404C4.0982 8.65935 3.94234 8.40998 3.94234 8.12943V6.57085C3.94234 6.32147 4.06703 6.0721 4.3164 5.91624L5.65678 5.13695C5.87499 5.01226 6.15553 5.01226 6.40491 5.13695L7.74529 5.94741C7.96349 6.0721 8.11935 6.32147 8.11935 6.60202V7.63069L9.30388 6.94491V5.88507C9.30388 5.63569 9.17919 5.38632 8.92982 5.23046L6.43608 3.76539C6.21788 3.6407 5.93733 3.6407 5.68796 3.76539L3.13187 5.26163C2.8825 5.38632 2.75781 5.63569 2.75781 5.88507V8.81521C2.75781 9.06459 2.8825 9.31396 3.13187 9.46982L5.65678 10.9349C5.87499 11.0596 6.15553 11.0596 6.40491 10.9349L8.11935 9.93739L9.30388 9.25162L11.0183 8.25412C11.2365 8.12943 11.5171 8.12943 11.7664 8.25412L13.1068 9.03341C13.325 9.1581 13.4809 9.40747 13.4809 9.68802V11.2466C13.4809 11.496 13.3562 11.7454 13.1068 11.9012L11.7976 12.6805C11.5794 12.8052 11.2989 12.8052 11.0495 12.6805L9.70911 11.9012C9.49091 11.7765 9.33505 11.5272 9.33505 11.2466V10.2491L8.15052 10.9349V11.9636C8.15052 12.2129 8.27521 12.4623 8.52458 12.6182L11.0495 14.0832C11.2677 14.2079 11.5482 14.2079 11.7976 14.0832L14.3225 12.6182C14.5407 12.4935 14.6966 12.2441 14.6966 11.9636V9.00224C14.6966 8.75287 14.5719 8.50349 14.3225 8.34764L11.7976 6.88256Z" fill="#000000"/>
</svg>
