<?xml version="1.0" encoding="utf-8"?>
<!-- Generator: Adobe Illustrator 16.0.0, SVG Export Plug-In . SVG Version: 6.00 game 0)  -->
<!DOCTYPE svg PUBLIC "-//W3C//DTD SVG 1.1//EN" "http://www.w3.org/Graphics/SVG/1.1/DTD/svg11.dtd">
<svg version="1.1" id="Layer_1" xmlns="http://www.w3.org/2000/svg" xmlns:xlink="http://www.w3.org/1999/xlink" x="0px" y="0px"
	 width="512px" height="512px" viewBox="0 0 512 512" enable-background="new 0 0 512 512" xml:space="preserve">
<g>
	<path fill="#FFFFFF" d="M303.852,434.785c-0.224,0.083-0.472,0.188-0.704,0.278c-0.072,0.029-0.142,0.064-0.213,0.092
		C303.238,435.034,303.549,434.896,303.852,434.785z"/>
	<path fill="#FFFFFF" d="M300.767,436.044c-0.703,0.283-1.426,0.56-2.186,0.808c-0.314,0.151-0.641,0.292-0.973,0.425
		C298.669,436.878,299.722,436.468,300.767,436.044z"/>
	<path fill="#FFFFFF" d="M381.476,293.471c-0.561-2.929-1.232-5.844-2.018-8.74l0.069-0.555l-17.345-8.905l15.873-10.056
		l-22.531-36.204l-1.978-3.216L256.001,67.247l-97.465,158.694l-5.374,8.748l-19.106,31.271l17.729,9.997l-19.313,8.219l0.004,0.025
		c0.002-0.008,0.002-0.016,0.004-0.025l0.129,0.075l-0.123,0.054l-0.031-0.015c-2.512,9.881-3.775,19.964-3.775,30.051
		c0.211,39.875,18.584,77.475,50.055,102.678c0.138,0.067,0.271,0.125,0.406,0.19l0.124,0.353c3.419,2.701,6.979,5.223,10.655,7.566
		l0.043,0.03l0.01,0.002c5.822,3.706,11.947,6.955,18.328,9.685c1.834,0.614,3.479,1.408,5.119,2.007
		c1.039,0.382,2.164,0.835,3.313,1.231c-0.09-0.031-0.17-0.048-0.26-0.077c10.36,3.589,21.294,5.846,32.631,6.492
		c0.056,0,0.125,0,0.177,0c0.423,0,1.063,0,1.704,0c0.637,0,1.49,0,2.338,0h5.11c0.639,0,1.915,0,2.343,0c0.426,0,1.063,0,1.701,0
		c0.117,0,0.24,0,0.36,0c4.603-0.249,9.173-0.753,13.7-1.521c0.21-0.04,0.42-0.067,0.63-0.136c0.851-0.209,1.274-0.209,2.126-0.414
		l1.853-0.327c0.398-0.085,0.8-0.172,1.198-0.259l0.145-0.036c0.638-0.208,1.274-0.208,1.701-0.413
		c0.126-0.019,0.233-0.055,0.357-0.076c1.019-0.282,2.004-0.535,2.939-0.738c0.689-0.185,1.379-0.378,2.065-0.578l1.448-0.474
		c0.642-0.203,1.492-0.41,2.13-0.619c0.031-0.01,0.062-0.021,0.091-0.03c0.789-0.264,1.559-0.559,2.34-0.841
		c-0.811,0.259-1.631,0.497-2.459,0.675c1.896-0.617,3.584-1.237,5.48-1.858c1.463-0.535,3.062-1.211,4.566-1.788
		c5.558-2.359,10.922-5.051,16.059-8.141c0.002-0.002,0.002-0.002,0.007-0.002c0.104-0.064,0.204-0.134,0.31-0.195
		c0.571-0.52,1.158-0.91,1.918-1.281l0.418-0.197c0.006-0.006,0.012-0.008,0.016-0.012c0.637-0.617,1.274-0.827,2.12-1.449
		c0.64-0.619,1.493-1.242,2.345-1.654c0.85-0.416,1.49-1.035,2.339-1.656l1.052-0.819c0.377-0.259,0.754-0.522,1.077-0.835
		l0.004-0.005l1.972-1.531c0.195-0.092,0.383-0.17,0.58-0.267c31.408-25.203,49.75-62.803,49.959-102.678
		C383.321,307.358,382.677,300.383,381.476,293.471z M379.323,284.208l-0.089,0.016l0.081-0.048
		C379.318,284.188,379.32,284.196,379.323,284.208z M223.747,440.16c1.477,0.413,2.74,0.825,4.217,1.032
		C226.487,440.985,225.011,440.573,223.747,440.16z M332.938,417.163l0.007-0.014c0.141-0.067,0.277-0.127,0.418-0.195
		L332.938,417.163z"/>
</g>
<path fill="#143444" d="M255.906,352.932l110.625-65.509c0.01,0.033,0.017,0.066,0.024,0.1l0.166-0.1l-24.367-10.603l-86.463,51.076
	l-6.24-3.745l-9.079-5.334l-47.596-28.212l-23.409-13.822l-16.184,7.047l-8.323,3.593l0.003,0.023
	c0.002-0.009,0.002-0.016,0.003-0.023L255.906,352.932z"/>
<polygon fill="#1E435A" points="255.892,216.689 255.892,239.195 255.892,327.708 255.892,327.896 342.354,276.82 362.183,265.106 
	"/>
<polygon fill="#4C6C9B" points="345.187,236.923 343.412,233.979 255.892,88.837 255.892,193.335 255.892,200.046 255.892,200.13 
	255.892,216.689 362.183,265.106 "/>
<polygon fill="#3F5679" points="240.761,223.687 197.854,243.175 149.969,265.025 162.084,272.293 169.619,276.76 192.977,290.605 
	240.761,318.817 255.703,327.598 255.703,239.278 255.703,216.776 "/>
<polygon fill="#6EB3D9" points="168.446,234.112 163.624,242.121 149.874,264.968 149.907,264.987 149.978,264.917 197.854,243.175 
	240.572,223.68 240.572,223.497 255.703,216.689 255.703,216.775 255.892,216.689 255.892,200.13 255.798,200.089 255.892,200.046 
	255.892,193.335 255.892,88.837 "/>
<path fill="#6EB3D9" d="M256,352.987l-0.094-0.056l-0.203,0.119l-110.631-65.51l-0.027-0.015c-2.254,9.047-3.388,18.277-3.388,27.51
	c0.188,36.503,16.674,70.924,44.91,93.997c10.848,5.414,20.044,6.943,27.836,5.836c7.585-1.134,13.853-4.729,19.028-9.646
	c5.929-5.7,10.391-13.192,13.728-20.732c0.341-0.771,0.674-1.543,0.992-2.314c3.713-9.263,6.319-18.715,7.849-28.521
	c-0.031-0.202-0.078-0.402-0.108-0.604L256,352.987z"/>
<g>
	<path fill="#539CBA" d="M298.825,425.297c-0.202,0.076-0.424,0.173-0.633,0.254c-0.064,0.027-0.126,0.06-0.19,0.085
		C298.274,425.525,298.553,425.398,298.825,425.297z"/>
	<path fill="#539CBA" d="M297.316,414.701c-11.57-1.686-19.994-9.12-25.919-18.237c-3.049-4.509-5.543-9.432-7.563-14.288
		c-0.005-0.014-0.009-0.025-0.015-0.04c-3.611-8.857-6.159-18.236-7.696-27.801c-1.559,9.601-4.136,19.019-7.791,27.909
		c-0.31,0.739-0.632,1.477-0.963,2.216c-3.374,7.531-7.913,15.041-13.938,20.763c-5.156,4.959-11.419,8.563-19.028,9.646
		c-7.697,1.15-16.749-0.25-27.36-5.339c7.94,6.396,16.693,11.736,26.051,15.821c1.646,0.563,3.122,1.289,4.594,1.837
		c0.933,0.351,1.941,0.765,2.972,1.127c-0.08-0.026-0.152-0.043-0.233-0.07c9.296,3.285,19.105,5.351,29.277,5.943
		c0.05,0,0.112,0,0.158,0c0.38,0,0.955,0,1.528,0c0.571,0,1.337,0,2.099,0h4.585c0.572,0,1.719,0,2.102,0s0.954,0,1.526,0
		c0.104,0,0.216,0,0.323,0c4.13-0.229,8.229-0.689,12.292-1.393c0.188-0.036,0.377-0.062,0.565-0.125
		c0.763-0.19,1.145-0.19,1.908-0.378l1.661-0.3c0.358-0.077,0.717-0.157,1.075-0.237l0.13-0.033c0.572-0.19,1.144-0.19,1.526-0.378
		c0.112-0.017,0.209-0.05,0.321-0.068c0.913-0.261,1.797-0.491,2.638-0.677c0.618-0.17,1.235-0.347,1.853-0.529l1.299-0.434
		c0.576-0.186,1.339-0.376,1.911-0.566c0.027-0.01,0.055-0.02,0.082-0.028c0.707-0.242,1.397-0.513,2.099-0.77
		c-0.727,0.237-1.464,0.454-2.206,0.618c1.7-0.566,3.215-1.134,4.916-1.702c1.313-0.489,2.748-1.108,4.098-1.638
		c4.986-2.159,9.8-4.623,14.408-7.45c0.002-0.002,0.002-0.002,0.006-0.002c0.094-0.06,0.184-0.123,0.278-0.18
		c0.513-0.475,1.039-0.832,1.721-1.174l0.375-0.181c0.005-0.005,0.01-0.007,0.014-0.01c0.571-0.566,1.144-0.757,1.902-1.326
		c0.573-0.566,1.339-1.137,2.104-1.515c0.762-0.381,1.337-0.948,2.099-1.517c0.575-0.567,1.338-0.948,1.91-1.515l0.193-0.193
		c0.521-0.344,1.042-0.832,1.565-1.207C314.101,414.485,305.022,415.89,297.316,414.701z M226.954,430.218
		c1.324,0.377,2.459,0.755,3.783,0.945C229.413,430.973,228.088,430.595,226.954,430.218z"/>
	<path fill="#539CBA" d="M292.265,427.95c1.939-0.724,3.85-1.5,5.737-2.314c-1.247,0.513-2.509,1.09-3.907,1.553
		C293.515,427.478,292.889,427.715,292.265,427.95z"/>
</g>
<path fill="#4C6C9B" d="M368.469,295.933c-0.518-2.764-1.138-5.518-1.871-8.25c-0.014-0.055-0.026-0.108-0.042-0.16L256,352.987
	l0.109,0.063c-0.03,0.205-0.077,0.402-0.109,0.604c0.036,0.229,0.087,0.451,0.123,0.68c1.537,9.564,4.085,18.943,7.696,27.801
	l0.491-0.067c0.023,0.058,0.042,0.116,0.065,0.176c1.781,4.826,4.101,9.726,7.021,14.22c6.137,9.084,14.534,16.48,25.919,18.237
	c7.827,1.139,17.089-0.35,27.985-5.727l-0.381,0.19c-0.051,0.033-0.102,0.082-0.153,0.117c0.18-0.086,0.353-0.159,0.534-0.249
	c28.181-23.073,44.636-57.494,44.823-93.997C370.125,308.646,369.547,302.26,368.469,295.933z"/>
</svg>
