<svg width="28" height="32" viewBox="0 0 28 32" fill="none" xmlns="http://www.w3.org/2000/svg">
<path d="M17.418 17.55C20.6589 19.8281 25.0809 19.3809 27.8 16.5C26.2936 14.9033 24.1952 13.9988 22 14C21.932 14 21.866 14.009 21.8 14.01V14C18.4256 14.0045 15.3372 15.8961 13.8 18.9C12.2628 15.8961 9.17439 14.0045 5.8 14C3.60481 13.9987 1.50635 14.9032 0 16.5C2.68317 19.3468 7.03734 19.8216 10.271 17.62C11.8727 18.9476 12.7997 20.9197 12.8 23H7.8C7.50998 23 7.23423 23.1258 7.04426 23.345C6.85429 23.5641 6.76882 23.8549 6.81 24.142L7.81 31.142C7.88064 31.6344 8.30252 32.0001 8.8 32H18.8C19.2975 32.0001 19.7194 31.6344 19.79 31.142L20.79 24.142C20.8312 23.8549 20.7457 23.5641 20.5557 23.345C20.3658 23.1258 20.09 23 19.8 23H14.8C14.8008 20.8803 15.7638 18.8755 17.418 17.55Z" fill="#F6F6FE"/>
<path fill-rule="evenodd" clip-rule="evenodd" d="M6.7998 7C6.7998 3.13401 9.93381 0 13.7998 0C17.664 0.00440864 20.7954 3.13583 20.7998 7C20.7998 10.866 17.6658 14 13.7998 14C9.93381 14 6.7998 10.866 6.7998 7ZM12.7998 10H14.7998V4H12.7998V10Z" fill="#F6F6FE"/>
</svg>
