<svg width="387" height="474" viewBox="0 0 387 474" fill="none" xmlns="http://www.w3.org/2000/svg">
<path d="M182.027 387.127H238.974V411.667H149.62V401.552C149.62 394.684 150.774 388.518 153.085 383.053C155.395 377.59 158.298 372.689 161.796 368.348C165.292 364.009 169.116 360.168 173.27 356.827C177.422 353.487 181.373 350.473 185.119 347.788C189.053 344.978 192.503 342.295 195.469 339.733C198.434 337.173 200.933 334.629 202.962 332.099C204.99 329.571 206.505 327.011 207.505 324.419C208.503 321.828 209.003 319.065 209.003 316.129C209.003 310.385 207.379 306.046 204.133 303.11C200.886 300.175 195.921 298.708 189.24 298.708C177.687 298.708 166.636 303.298 156.084 312.477V286.439C167.759 278.884 180.935 275.105 195.609 275.105C202.415 275.105 208.518 275.995 213.921 277.775C219.321 279.554 223.896 282.099 227.643 285.409C231.389 288.719 234.247 292.73 236.213 297.444C238.18 302.16 239.163 307.42 239.163 313.226C239.163 319.408 238.21 324.904 236.307 329.711C234.401 334.52 231.872 338.89 228.72 342.823C225.566 346.757 221.929 350.363 217.808 353.641C213.687 356.919 209.41 360.089 204.976 363.148C201.979 365.271 199.09 367.378 196.312 369.47C193.534 371.563 191.082 373.623 188.959 375.652C186.836 377.682 185.149 379.665 183.901 381.599C182.65 383.537 182.027 385.38 182.027 387.127Z" fill="#FFFFFF"/>
<path d="M386.968 85.406C386.968 82.461 386.057 79.517 384.235 77.555C384.235 77.555 339.045 4.35403 338.045 2.80103C336.795 1.12403 335.652 0.0189819 333.732 0.0189819C333.599 0.0189819 333.473 0.0469834 333.343 0.0579834C333.292 0.0469834 333.241 0.0239868 333.19 0.0239868C332.733 0.0239868 332.278 0.0239868 332.278 0.0239868C331.821 0.0239868 331.366 0.0239868 330.909 0.0239868H56.535C56.082 0.0239868 55.625 0.0239868 55.17 0.0239868C55.149 0.0239868 55.128 0.0239868 55.106 0.0239868C54.927 0.00998682 54.747 0 54.564 0C51.911 0 49.633 1.43499 48.648 3.48199C48.35 3.92099 48.112 4.42403 47.876 4.93103L2.3 78.536C2.238 78.67 2.175 78.807 2.113 78.941C0.793999 80.643 0 82.826 0 85.208C0 87.109 0.514 88.878 1.389 90.382C1.485 90.547 109.08 254.869 109.08 254.869C84.792 277.963 69.649 310.585 69.649 346.744C69.649 416.749 126.4 473.5 196.405 473.5C266.411 473.5 323.161 416.749 323.161 346.744C323.161 308.984 306.644 275.087 280.448 251.865L384.689 93.257C386.057 90.804 386.968 88.35 386.968 85.406ZM2.832 92.288C2.831 92.287 2.832 92.288 2.832 92.288V92.288ZM24.633 85.406L56.535 33.882L179.616 220.629L179.28 221.145C160.103 223.736 142.29 230.614 126.832 240.785L24.633 85.406ZM128.02 99.625H258.538L193.868 198.777L128.02 99.625ZM295.086 346.135C295.086 400.465 251.041 444.51 196.711 444.51C142.381 444.51 98.337 400.465 98.337 346.135C98.337 291.805 142.381 247.761 196.711 247.761C251.041 247.761 295.086 291.805 295.086 346.135ZM261.701 238.083C245.84 228.532 227.718 222.359 208.327 220.551L208.042 220.121L286.739 99.625H352.279L261.701 238.083ZM304.038 73.139H275.762H110.773L78.414 24.069C78.414 24.069 313.05 23.709 315.877 23.709C324.71 23.709 326.627 28.126 331.613 36.003L354.609 73.14H304.038V73.139Z" fill="#FFFFFF"/>
</svg>
