<svg width="82" height="107" viewBox="0 0 82 107" fill="none" xmlns="http://www.w3.org/2000/svg">
<g clip-path="url(#clip0)">
<path d="M67.1273 8.94989C59.7875 3.1627 50.5838 -0.000411733 41.0862 7.40654e-05C31.5765 -0.0176525 22.3576 3.14709 15.0155 8.94989C9.77693 13.0691 5.68074 18.3682 3.09169 24.3753C0.502651 30.3824 -0.498866 36.9111 0.176339 43.3798C0.851545 49.8485 3.18251 56.0565 6.96164 61.4509C10.7408 66.8453 15.8508 71.2586 21.8365 74.2978C21.9844 74.7523 22.1324 75.2069 22.31 75.7184C22.9589 77.4431 23.8446 79.077 24.9437 80.5768C25.7788 81.7071 27.0154 82.5053 28.4207 82.8214C29.1893 83.0012 29.9873 83.0336 30.7688 82.9165C31.5504 82.7995 32.3003 82.5354 32.9753 82.1395C33.6503 81.7435 34.2372 81.2234 34.7023 80.609C35.1674 79.9947 35.5016 79.2982 35.6856 78.5596C36.102 76.7702 36.276 74.9366 36.2035 73.1044C36.156 71.3445 35.958 69.5913 35.6116 67.8624C35.4081 66.6985 34.9087 65.6009 34.1577 64.6666C33.4066 63.7324 32.4271 62.9905 31.306 62.5067H31.0692C25.6124 60.218 21.1335 56.2084 18.3742 51.1419C16.7638 48.014 15.8605 44.5945 15.7235 41.1078C15.5866 37.6211 16.2192 34.146 17.5798 30.9106C18.9403 27.6751 20.9981 24.7525 23.618 22.3345C26.238 19.9165 29.3609 18.0578 32.7818 16.8803C36.2027 15.7028 39.8443 15.2331 43.4676 15.5022C47.0909 15.7712 50.6139 16.7729 53.8056 18.4414C56.9972 20.11 59.7853 22.4076 61.9869 25.1837C64.1884 27.9597 65.7537 31.1514 66.5799 34.5492C67.8636 40.1819 67.085 46.0673 64.3753 51.2129C61.6214 56.3919 57.1421 60.5375 51.6506 62.9897H51.5471L50.8812 63.3023C50.6593 63.4159 50.4521 63.5438 50.245 63.6716L49.7715 64.0268C49.5688 64.1862 49.3761 64.3569 49.1945 64.5382C48.6814 65.0294 48.252 65.5951 47.922 66.2145L47.7149 66.5839L47.6113 66.8254L47.345 67.3368C47.2285 67.6149 47.1297 67.8996 47.049 68.1891C46.8422 68.9942 46.6841 69.81 46.5756 70.6326C46.4424 72.0532 46.3832 73.2465 46.3388 74.4398L46.2353 81.2303C46.2353 83.4322 46.1613 85.62 46.1317 87.7935C46.0644 90.0657 45.4945 92.2981 44.4597 94.3425C43.7426 95.6866 43.4044 97.1875 43.4788 98.696C43.5531 100.204 44.0375 101.668 44.8836 102.941C45.7298 104.214 46.9082 105.252 48.3019 105.952C49.6955 106.653 51.2557 106.99 52.8275 106.932C54.3992 106.874 55.9276 106.421 57.2608 105.62C58.594 104.819 59.6856 103.696 60.4269 102.364C61.1682 101.032 61.5334 99.5373 61.4863 98.0278C61.4392 96.5184 60.9814 95.047 60.1584 93.76C58.968 91.8981 58.2625 89.7881 58.1017 87.6088C57.9834 85.5347 57.8946 83.4749 57.9686 81.4434C57.9967 79.4678 58.1797 77.4971 58.516 75.5479C58.59 75.1217 58.6788 74.7239 58.7676 74.3404C66.6005 70.8282 73.045 64.9845 77.1443 57.6767C81.6302 49.7021 83.084 40.4767 81.2561 31.5849C79.4282 22.6932 74.4326 14.69 67.1273 8.94989Z" fill="#F6F6FE"/>
<path d="M51.6218 49.608L41.1757 39.5785L30.7149 29.5348L29.8715 28.7251C26.9806 31.6223 25.3868 35.4914 25.4316 39.5033C25.4764 43.5153 27.1562 47.3508 30.111 50.1878C33.0659 53.0248 37.0607 54.6376 41.2392 54.6806C45.4178 54.7236 49.4477 53.1933 52.4652 50.4177L51.6218 49.608Z" fill="#F6F6FE"/>
</g>
<defs>
<clipPath id="clip0">
<rect width="82" height="107" fill="white"/>
</clipPath>
</defs>
</svg>
