<?xml version="1.0" encoding="UTF-8"?>
<!DOCTYPE svg PUBLIC "-//W3C//DTD SVG 1.1//EN" "http://www.w3.org/Graphics/SVG/1.1/DTD/svg11.dtd">
<svg xmlns="http://www.w3.org/2000/svg" version="1.1" width="201px" height="184px" style="shape-rendering:geometricPrecision; text-rendering:geometricPrecision; image-rendering:optimizeQuality; fill-rule:evenodd; clip-rule:evenodd" xmlns:xlink="http://www.w3.org/1999/xlink">
<g><path style="opacity:0.884" fill="#848E9C" d="M 74.5,39.5 C 76.1992,39.3398 77.8659,39.5065 79.5,40C 84.1271,45.5902 89.1271,45.9235 94.5,41C 96.5,40.3333 98.5,40.3333 100.5,41C 102.677,42.5149 104.844,44.0149 107,45.5C 109.752,44.4137 112.252,42.9137 114.5,41C 117.554,40.1786 120.554,40.3452 123.5,41.5C 119.167,46.8333 114.833,52.1667 110.5,57.5C 102.167,58.8333 93.8333,58.8333 85.5,57.5C 82.9732,51.8086 79.4732,46.8086 75,42.5C 74.5172,41.552 74.3505,40.552 74.5,39.5 Z M 95.5,45.5 C 99.4192,46.9062 103.253,48.5728 107,50.5C 108.257,50.8499 108.591,51.5165 108,52.5C 101.916,53.642 95.7489,53.8087 89.5,53C 88.6433,52.3109 87.9767,51.4776 87.5,50.5C 90.5585,49.3124 93.2251,47.6457 95.5,45.5 Z"/></g>
<g><path style="opacity:0.852" fill="#848E9C" d="M 87.5,59.5 C 94.175,59.3337 100.842,59.5004 107.5,60C 108.624,60.2492 109.624,60.7492 110.5,61.5C 109.073,63.5468 107.073,64.5468 104.5,64.5C 99.8245,63.2388 95.1578,63.2388 90.5,64.5C 87.7398,64.2424 85.4064,63.2424 83.5,61.5C 84.9492,60.8281 86.2825,60.1614 87.5,59.5 Z"/></g>
<g><path style="opacity:0.907" fill="#848E9C" d="M 89.5,65.5 C 109.143,63.5685 122.977,71.5685 131,89.5C 135.492,101.118 137.159,113.118 136,125.5C 134.335,133.163 129.835,138.33 122.5,141C 109.352,144.81 96.0183,145.477 82.5,143C 63.4307,137.725 55.9307,125.225 60,105.5C 61.3784,92.2438 66.8784,81.0771 76.5,72C 80.657,69.2548 84.9904,67.0881 89.5,65.5 Z M 90.5,72.5 C 109.599,70.8893 121.599,79.3893 126.5,98C 129.144,106.664 129.978,115.497 129,124.5C 127.93,127.242 126.43,129.742 124.5,132C 120.186,134.66 115.519,136.327 110.5,137C 100.03,138.096 89.6968,137.429 79.5,135C 70.0893,131.184 65.7559,124.184 66.5,114C 66.0347,99.3847 71.0347,87.0514 81.5,77C 84.5919,75.4541 87.5919,73.9541 90.5,72.5 Z M 93.5,94.5 C 106.804,93.3045 112.97,99.3045 112,112.5C 107.132,122.567 99.632,125.067 89.5,120C 83.8959,113.803 83.0626,106.969 87,99.5C 88.9651,97.4497 91.1318,95.783 93.5,94.5 Z M 100.5,110.5 C 102.476,111.427 102.809,112.76 101.5,114.5C 100.571,113.311 100.238,111.978 100.5,110.5 Z"/></g>
<g><path style="opacity:0.914" fill="#848E9C" d="M 92.5,87.5 C 111.423,86.0244 120.256,94.691 119,113.5C 112.963,128.266 102.463,132.766 87.5,127C 77.2424,119.271 74.7424,109.438 80,97.5C 83.1908,92.8366 87.3575,89.5032 92.5,87.5 Z M 93.5,94.5 C 91.1318,95.783 88.9651,97.4497 87,99.5C 83.0626,106.969 83.8959,113.803 89.5,120C 99.632,125.067 107.132,122.567 112,112.5C 112.97,99.3045 106.804,93.3045 93.5,94.5 Z M 100.5,110.5 C 100.238,111.978 100.571,113.311 101.5,114.5C 102.809,112.76 102.476,111.427 100.5,110.5 Z"/></g>
<g><path style="opacity:0.778" fill="#848E9C" d="M 95.5,96.5 C 97.1667,96.5 98.8333,96.5 100.5,96.5C 100.736,98.9732 102.069,100.64 104.5,101.5C 103.349,102.731 102.183,102.731 101,101.5C 100.333,103.5 100.333,105.5 101,107.5C 103.4,108.398 104.9,110.064 105.5,112.5C 103.762,115.213 102.095,117.88 100.5,120.5C 98.8333,120.5 97.1667,120.5 95.5,120.5C 95.6495,119.448 95.4828,118.448 95,117.5C 90.5184,115.021 90.5184,114.021 95,114.5C 95.1667,113.333 95.3333,112.167 95.5,111C 94.7505,108.499 93.7505,106.165 92.5,104C 93.7476,101.59 94.7476,99.0903 95.5,96.5 Z M 100.5,110.5 C 100.238,111.978 100.571,113.311 101.5,114.5C 102.809,112.76 102.476,111.427 100.5,110.5 Z"/></g>
</svg>
