<svg width="26" height="24" viewBox="0 0 26 24" fill="none" xmlns="http://www.w3.org/2000/svg">
<path d="M22.1087 15.4601L22.112 15.459C23.1156 15.1401 23.9646 14.7758 24.6404 14.3675V14.3703V14.3767V14.3831V14.3894V14.3958V14.4022V14.4085V14.4149V14.4213V14.4276V14.434V14.4404V14.4467V14.4531V14.4595V14.4659V14.4722V14.4786V14.485V14.4913V14.4977V14.5041V14.5104V14.5168V14.5232V14.5295V14.5359V14.5423V14.5486V14.555V14.5614V14.5677V14.5741V14.5805V14.5869V14.5932V14.5996V14.606V14.6123V14.6187V14.6251V14.6314V14.6378V14.6442V14.6505V14.6569V14.6633V14.6696V14.676V14.6824V14.6887V14.6951V14.7015V14.7078V14.7142V14.7206V14.7269V14.7333V14.7397V14.746V14.7524V14.7588V14.7651V14.7715V14.7778V14.7842V14.7906V14.7969V14.8033V14.8097V14.816V14.8224V14.8288V14.8351V14.8415V14.8478V14.8542V14.8606V14.8669V14.8733V14.8797V14.886V14.8924V14.8987V14.9051V14.9115V14.9178V14.9242V14.9305V14.9369V14.9433V14.9496V14.956V14.9623V14.9687V14.975V14.9814V14.9878V14.9941V15.0005V15.0068V15.0132V15.0195V15.0259V15.0322V15.0386V15.045V15.0513V15.0577V15.064V15.0704V15.0767V15.0831V15.0894V15.0958V15.1021V15.1085V15.1148V15.1212V15.1275V15.1339V15.1402V15.1466V15.1529V15.1593V15.1656V15.172V15.1783V15.1847V15.191V15.1974V15.2037V15.21V15.2164V15.2227V15.2291V15.2354V15.2418V15.2481V15.2544V15.2608V15.2671V15.2735V15.2798V15.2861V15.2925V15.2988V15.3052V15.3115V15.3178V15.3242V15.3305V15.3368V15.3432V15.3495V15.3558V15.3622V15.3685V15.3748V15.3812V15.3875V15.3938V15.4002V15.4065V15.4128V15.4192V15.4255V15.4318V15.4381V15.4445V15.4508V15.4571V15.4634V15.4698V15.4761V15.4824V15.4887V15.4951V15.5014V15.5077V15.514V15.5203V15.5267V15.533V15.5393V15.5456V15.5519V15.5583V15.5646V15.5709V15.5772V15.5835V15.5898V15.5961V15.6025V15.6088V15.6151V15.6214V15.6277V15.634V15.6403V15.6466V15.6529V15.6592V15.6655V15.6718V15.6781V15.6844V15.6907V15.6971V15.7034V15.7097V15.716V15.7223V15.7286V15.7348V15.7411V15.7474V15.7537V15.76V15.7663V15.7726V15.7789V15.7852V15.7915V15.7978V15.8041V15.8104V15.8167V15.8229V15.8292V15.8355V15.8418V15.8481V15.8544V15.8606V15.8669V15.8732V15.8795V15.8858V15.892V15.8983V15.9046V15.9109V15.9172V15.9234V15.9297V15.936V15.9423V15.9485V15.9548V15.9611V15.9673V15.9736V15.9799V15.9861V15.9924V15.9987V16.0049V16.0112V16.0174V16.0237V16.03V16.0362V16.0425V16.0487V16.055V16.0613V16.0675V16.0738V16.08V16.0863V16.0925V16.0988V16.105V16.1113V16.1175V16.1238V16.13V16.1363V16.1425V16.1487V16.155V16.1612V16.1675V16.1737V16.1799V16.1862V16.1924V16.1986V16.2049V16.2111V16.2173V16.2236V16.2298V16.236V16.2423V16.2485V16.2547V16.2609V16.2672V16.2734V16.2796V16.2858V16.2921V16.2983V16.3045V16.3107V16.3169V16.3231V16.3293V16.3356V16.3418V16.348V16.3542V16.3604V16.3666V16.3728V16.379V16.3852V16.3914V16.3976V16.4038V16.41V16.4162V16.4224V16.4286V16.4348V16.441V16.4472V16.4534V16.4596V16.4658V16.472V16.4781V16.4843V16.4905V16.4925C24.4765 16.7415 24.1339 17.046 23.5562 17.3675C22.9195 17.7219 22.0551 18.0651 20.9868 18.3647C18.8521 18.9633 15.9545 19.3735 12.5558 19.3735C9.21701 19.3735 6.35512 18.98 4.2273 18.4007C3.16263 18.1109 2.29352 17.7777 1.64429 17.4314C1.06283 17.1213 0.699661 16.8228 0.511719 16.5706V16.5706V16.5643V16.558V16.5518V16.5455V16.5392V16.533V16.5267V16.5204V16.5141V16.5079V16.5016V16.4953V16.489V16.4827V16.4765V16.4702V16.4639V16.4576V16.4513V16.445V16.4387V16.4324V16.4262V16.4199V16.4136V16.4073V16.401V16.3947V16.3884V16.3821V16.3758V16.3695V16.3632V16.3569V16.3506V16.3443V16.338V16.3317V16.3254V16.319V16.3127V16.3064V16.3001V16.2938V16.2875V16.2812V16.2749V16.2685V16.2622V16.2559V16.2496V16.2433V16.2369V16.2306V16.2243V16.218V16.2116V16.2053V16.199V16.1926V16.1863V16.18V16.1737V16.1673V16.161V16.1547V16.1483V16.142V16.1356V16.1293V16.123V16.1166V16.1103V16.1039V16.0976V16.0912V16.0849V16.0786V16.0722V16.0659V16.0595V16.0532V16.0468V16.0405V16.0341V16.0277V16.0214V16.015V16.0087V16.0023V15.996V15.9896V15.9832V15.9769V15.9705V15.9642V15.9578V15.9514V15.9451V15.9387V15.9323V15.926V15.9196V15.9132V15.9069V15.9005V15.8941V15.8877V15.8814V15.875V15.8686V15.8622V15.8559V15.8495V15.8431V15.8367V15.8303V15.824V15.8176V15.8112V15.8048V15.7984V15.792V15.7857V15.7793V15.7729V15.7665V15.7601V15.7537V15.7473V15.7409V15.7345V15.7282V15.7218V15.7154V15.709V15.7026V15.6962V15.6898V15.6834V15.677V15.6706V15.6642V15.6578V15.6514V15.645V15.6386V15.6322V15.6258V15.6194V15.6129V15.6065V15.6001V15.5937V15.5873V15.5809V15.5745V15.5681V15.5617V15.5553V15.5488V15.5424V15.536V15.5296V15.5232V15.5168V15.5104V15.5039V15.4975V15.4911V15.4847V15.4783V15.4718V15.4654V15.459V15.4526V15.4461V15.4397V15.4333V15.4269V15.4204V15.414V15.4076V15.4012V15.3947V15.3883V15.3819V15.3754V15.369V15.3626V15.3561V15.3497V15.3433V15.3368V15.3304V15.324V15.3175V15.3111V15.3047V15.2982V15.2918V15.2854V15.2789V15.2725V15.266V15.2596V15.2532V15.2467V15.2403V15.2338V15.2274V15.2209V15.2145V15.2081V15.2016V15.1952V15.1887V15.1823V15.1758V15.1694V15.1629V15.1565V15.15V15.1436V15.1371V15.1307V15.1242V15.1178V15.1113V15.1049V15.0984V15.092V15.0855V15.079V15.0726V15.0661V15.0597V15.0532V15.0468V15.0403V15.0339V15.0274V15.0209V15.0145V15.008V15.0016V14.9951V14.9886V14.9822V14.9757V14.9693V14.9628V14.9563V14.9499V14.9434V14.9369V14.9305V14.924V14.9175V14.9111V14.9046V14.8981V14.8917V14.8852V14.8787V14.8723V14.8658V14.8593V14.8529V14.8464V14.8399V14.8335V14.827V14.8205V14.814V14.8076V14.8011V14.7946V14.7882V14.7817V14.7752V14.7687V14.7623V14.7558V14.7493V14.7428V14.7364V14.7299V14.7234V14.7169V14.7105V14.704V14.6975V14.691V14.6846V14.6781V14.6716V14.6651V14.6587V14.6522V14.6457V14.6392V14.6327V14.6263V14.6198V14.6133V14.6068V14.6003V14.5939V14.5874V14.5809V14.5744V14.5679V14.5615V14.555V14.5485V14.542V14.5355V14.529V14.5226V14.5161V14.5096V14.5031V14.4966V14.4901V14.4837V14.4772V14.4707V14.4642V14.4577V14.4512V14.4447V14.4383V14.4318V14.4253V14.4188V14.4123V14.4058V14.3993V14.393C1.18948 14.796 2.03569 15.157 3.03112 15.4604C5.6151 16.2616 9.01041 16.6547 12.5828 16.6547C16.1561 16.6547 19.5248 16.2614 22.1087 15.4601Z" stroke="#848E9C"/>
<path d="M3.02815 11.0276L3.02995 11.0281C5.61394 11.8296 8.99619 12.2228 12.5693 12.2228C16.1423 12.2228 19.5244 11.8296 22.1084 11.0282C23.1141 10.718 23.9641 10.3563 24.6404 9.94863V9.95036V9.95656V9.96276V9.96896V9.97516V9.98136V9.98756V9.99377V9.99998V10.0062V10.0124V10.0186V10.0248V10.031V10.0373V10.0435V10.0497V10.0559V10.0622V10.0684V10.0746V10.0809V10.0871V10.0933V10.0996V10.1058V10.112V10.1183V10.1245V10.1308V10.137V10.1433V10.1495V10.1558V10.162V10.1683V10.1746V10.1808V10.1871V10.1933V10.1996V10.2059V10.2121V10.2184V10.2247V10.231V10.2372V10.2435V10.2498V10.2561V10.2624V10.2686V10.2749V10.2812V10.2875V10.2938V10.3001V10.3064V10.3127V10.319V10.3253V10.3316V10.3379V10.3442V10.3505V10.3568V10.3631V10.3694V10.3757V10.3821V10.3884V10.3947V10.401V10.4073V10.4137V10.42V10.4263V10.4326V10.439V10.4453V10.4516V10.458V10.4643V10.4706V10.477V10.4833V10.4897V10.496V10.5023V10.5087V10.515V10.5214V10.5277V10.5341V10.5405V10.5468V10.5532V10.5595V10.5659V10.5722V10.5786V10.585V10.5913V10.5977V10.6041V10.6105V10.6168V10.6232V10.6296V10.636V10.6423V10.6487V10.6551V10.6615V10.6679V10.6742V10.6806V10.687V10.6934V10.6998V10.7062V10.7126V10.719V10.7254V10.7318V10.7382V10.7446V10.751V10.7574V10.7638V10.7702V10.7766V10.783V10.7894V10.7959V10.8023V10.8087V10.8151V10.8215V10.8279V10.8344V10.8408V10.8472V10.8536V10.8601V10.8665V10.8729V10.8794V10.8858V10.8922V10.8987V10.9051V10.9115V10.918V10.9244V10.9309V10.9373V10.9437V10.9502V10.9566V10.9631V10.9695V10.976V10.9824V10.9889V10.9954V11.0018V11.0083V11.0147V11.0212V11.0276V11.0341V11.0406V11.047V11.0535V11.06V11.0664V11.0729V11.0794V11.0859V11.0923V11.0988V11.1053V11.1118V11.1182V11.1247V11.1312V11.1377V11.1442V11.1507V11.1571V11.1636V11.1701V11.1766V11.1831V11.1896V11.1961V11.2026V11.2091V11.2156V11.2221V11.2286V11.2351V11.2416V11.2481V11.2546V11.2611V11.2676V11.2741V11.2806V11.2871V11.2936V11.3001V11.3066V11.3132V11.3197V11.3262V11.3327V11.3392V11.3457V11.3523V11.3588V11.3653V11.3718V11.3784V11.3849V11.3914V11.3979V11.4045V11.411V11.4175V11.4241V11.4306V11.4371V11.4437V11.4502V11.4567V11.4633V11.4698V11.4763V11.4829V11.4894V11.496V11.5025V11.5091V11.5156V11.5222V11.5287V11.5353V11.5418V11.5484V11.5549V11.5615V11.568V11.5746V11.5811V11.5877V11.5942V11.6008V11.6074V11.6139V11.6205V11.6271V11.6336V11.6402V11.6467V11.6533V11.6599V11.6664V11.673V11.6796V11.6862V11.6927V11.6993V11.7059V11.7125V11.719V11.7256V11.7322V11.7388V11.7453V11.7519V11.7585V11.7651V11.7717V11.7782V11.7848V11.7914V11.798V11.8046V11.8112V11.8178V11.8244V11.8309V11.8375V11.8441V11.8507V11.8573V11.8639V11.8705V11.8771V11.8837V11.8903V11.8969V11.9035V11.9101V11.9167V11.9233V11.9299V11.9365V11.9431V11.9497V11.9563V11.9629V11.9695V11.9761V11.9827V11.9894V11.996V12.0026V12.0092V12.0158V12.0224V12.029V12.0356V12.0422V12.0489V12.0555V12.0621V12.0687V12.0741C24.4765 12.323 24.1339 12.6275 23.5562 12.9491C22.9195 13.3034 22.0551 13.6466 20.9868 13.9462C18.8521 14.5449 15.9545 14.955 12.5558 14.955C9.21737 14.955 6.35569 14.5582 4.228 13.9757C3.16339 13.6842 2.29424 13.3494 1.64492 13.002C1.06332 12.6907 0.699839 12.3913 0.511719 12.1388V12.1345V12.1278V12.1211V12.1144V12.1077V12.101V12.0943V12.0877V12.081V12.0743V12.0676V12.0609V12.0542V12.0475V12.0408V12.0341V12.0275V12.0208V12.0141V12.0074V12.0007V11.9941V11.9874V11.9807V11.974V11.9673V11.9607V11.954V11.9473V11.9406V11.934V11.9273V11.9206V11.9139V11.9073V11.9006V11.8939V11.8873V11.8806V11.8739V11.8673V11.8606V11.8539V11.8473V11.8406V11.8339V11.8273V11.8206V11.814V11.8073V11.8006V11.794V11.7873V11.7807V11.774V11.7674V11.7607V11.7541V11.7474V11.7408V11.7341V11.7275V11.7208V11.7142V11.7075V11.7009V11.6942V11.6876V11.6809V11.6743V11.6677V11.661V11.6544V11.6477V11.6411V11.6345V11.6278V11.6212V11.6146V11.6079V11.6013V11.5947V11.588V11.5814V11.5748V11.5682V11.5615V11.5549V11.5483V11.5417V11.535V11.5284V11.5218V11.5152V11.5086V11.5019V11.4953V11.4887V11.4821V11.4755V11.4689V11.4623V11.4557V11.449V11.4424V11.4358V11.4292V11.4226V11.416V11.4094V11.4028V11.3962V11.3896V11.383V11.3764V11.3698V11.3632V11.3566V11.35V11.3434V11.3368V11.3302V11.3237V11.3171V11.3105V11.3039V11.2973V11.2907V11.2841V11.2776V11.271V11.2644V11.2578V11.2512V11.2447V11.2381V11.2315V11.2249V11.2184V11.2118V11.2052V11.1986V11.1921V11.1855V11.1789V11.1724V11.1658V11.1593V11.1527V11.1461V11.1396V11.133V11.1265V11.1199V11.1133V11.1068V11.1002V11.0937V11.0871V11.0806V11.074V11.0675V11.061V11.0544V11.0479V11.0413V11.0348V11.0282V11.0217V11.0152V11.0086V11.0021V10.9956V10.989V10.9825V10.976V10.9694V10.9629V10.9564V10.9499V10.9433V10.9368V10.9303V10.9238V10.9173V10.9107V10.9042V10.8977V10.8912V10.8847V10.8782V10.8717V10.8651V10.8586V10.8521V10.8456V10.8391V10.8326V10.8261V10.8196V10.8131V10.8066V10.8001V10.7936V10.7871V10.7806V10.7742V10.7677V10.7612V10.7547V10.7482V10.7417V10.7352V10.7288V10.7223V10.7158V10.7093V10.7028V10.6964V10.6899V10.6834V10.6769V10.6705V10.664V10.6575V10.6511V10.6446V10.6381V10.6317V10.6252V10.6188V10.6123V10.6059V10.5994V10.5929V10.5865V10.58V10.5736V10.5671V10.5607V10.5543V10.5478V10.5414V10.5349V10.5285V10.5221V10.5156V10.5092V10.5027V10.4963V10.4899V10.4835V10.477V10.4706V10.4642V10.4578V10.4513V10.4449V10.4385V10.4321V10.4257V10.4192V10.4128V10.4064V10.4V10.3936V10.3872V10.3808V10.3744V10.368V10.3616V10.3552V10.3488V10.3424V10.336V10.3296V10.3232V10.3168V10.3104V10.304V10.2976V10.2913V10.2849V10.2785V10.2721V10.2657V10.2594V10.253V10.2466V10.2402V10.2339V10.2275V10.2211V10.2148V10.2084V10.202V10.1957V10.1893V10.183V10.1766V10.1702V10.1639V10.1575V10.1512V10.1448V10.1385V10.1321V10.1258V10.1195V10.1131V10.1068V10.1004V10.0941V10.0878V10.0814V10.0751V10.0688V10.0625V10.0561V10.0498V10.0435V10.0372V10.0308V10.0245V10.0182V10.0119V10.0056V9.99927V9.99296V9.98665V9.98035V9.97404V9.96774V9.96144V9.95832C1.19035 10.3588 2.03642 10.7159 3.02815 11.0276Z" stroke="#848E9C"/>
<path d="M3.01643 6.16867L3.01823 6.16923C5.60222 6.97068 8.98447 7.36389 12.5576 7.36389C16.1306 7.36389 19.5127 6.97071 22.0967 6.16931C23.1024 5.85911 23.9524 5.49742 24.6287 5.08975V5.09148V5.09767V5.10387V5.11007V5.11627V5.12247V5.12868V5.13488V5.14109V5.1473V5.15352V5.15973V5.16595V5.17216V5.17838V5.1846V5.19083V5.19705V5.20328V5.20951V5.21574V5.22197V5.2282V5.23444V5.24068V5.24692V5.25316V5.2594V5.26565V5.27189V5.27814V5.28439V5.29064V5.2969V5.30315V5.30941V5.31567V5.32193V5.32819V5.33446V5.34072V5.34699V5.35326V5.35953V5.3658V5.37208V5.37835V5.38463V5.39091V5.39719V5.40348V5.40976V5.41605V5.42233V5.42862V5.43492V5.44121V5.4475V5.4538V5.4601V5.4664V5.4727V5.479V5.48531V5.49162V5.49792V5.50423V5.51055V5.51686V5.52317V5.52949V5.53581V5.54213V5.54845V5.55477V5.5611V5.56742V5.57375V5.58008V5.58641V5.59274V5.59908V5.60541V5.61175V5.61809V5.62443V5.63077V5.63712V5.64346V5.64981V5.65616V5.66251V5.66886V5.67521V5.68157V5.68792V5.69428V5.70064V5.707V5.71336V5.71973V5.72609V5.73246V5.73883V5.7452V5.75157V5.75794V5.76431V5.77069V5.77707V5.78345V5.78983V5.79621V5.80259V5.80898V5.81536V5.82175V5.82814V5.83453V5.84092V5.84731V5.85371V5.86011V5.8665V5.8729V5.8793V5.88571V5.89211V5.89851V5.90492V5.91133V5.91774V5.92415V5.93056V5.93697V5.94339V5.9498V5.95622V5.96264V5.96906V5.97548V5.98191V5.98833V5.99476V6.00118V6.00761V6.01404V6.02047V6.02691V6.03334V6.03978V6.04621V6.05265V6.05909V6.06553V6.07197V6.07842V6.08486V6.09131V6.09775V6.1042V6.11065V6.1171V6.12356V6.13001V6.13646V6.14292V6.14938V6.15584V6.1623V6.16876V6.17522V6.18169V6.18815V6.19462V6.20109V6.20755V6.21402V6.2205V6.22697V6.23344V6.23992V6.24639V6.25287V6.25935V6.26583V6.27231V6.27879V6.28528V6.29176V6.29825V6.30474V6.31123V6.31771V6.32421V6.3307V6.33719V6.34369V6.35018V6.35668V6.36318V6.36967V6.37617V6.38268V6.38918V6.39568V6.40219V6.40869V6.4152V6.42171V6.42822V6.43473V6.44124V6.44775V6.45427V6.46078V6.4673V6.47381V6.48033V6.48685V6.49337V6.49989V6.50642V6.51294V6.51946V6.52599V6.53252V6.53904V6.54557V6.5521V6.55863V6.56517V6.5717V6.57823V6.58477V6.59131V6.59784V6.60438V6.61092V6.61746V6.624V6.63055V6.63709V6.64363V6.65018V6.65673V6.66327V6.66982V6.67637V6.68292V6.68947V6.69602V6.70258V6.70913V6.71569V6.72224V6.7288V6.73536V6.74192V6.74848V6.75504V6.7616V6.76816V6.77473V6.78129V6.78786V6.79443V6.80099V6.80756V6.81413V6.8207V6.82727V6.83384V6.84042V6.84699V6.85357V6.86014V6.86672V6.8733V6.87987V6.88645V6.89303V6.89961V6.9062V6.91278V6.91936V6.92595V6.93253V6.93912V6.9457V6.95229V6.95888V6.96547V6.97206V6.97865V6.98524V6.99184V6.99843V7.00502V7.01162V7.01821V7.02481V7.03141V7.03801V7.04461V7.05121V7.05781V7.06441V7.07101V7.07761V7.08422V7.09082V7.09743V7.10403V7.11064V7.11725V7.12385V7.13046V7.13707V7.14368V7.1503V7.15691V7.16352V7.17013V7.17675V7.18336V7.18998V7.19659V7.20321V7.20983V7.21519C24.4648 7.46412 24.1222 7.76863 23.5444 8.09018C22.9078 8.44454 22.0434 8.78776 20.9751 9.08733C18.8404 9.68597 15.9428 10.0961 12.5441 10.0961C9.20565 10.0961 6.34397 9.69935 4.21628 9.11682C3.15168 8.82535 2.28252 8.49056 1.6332 8.14307C1.0516 7.83182 0.68812 7.53244 0.5 7.27987V7.27562V7.26892V7.26223V7.25553V7.24884V7.24215V7.23545V7.22876V7.22207V7.21538V7.20869V7.20201V7.19532V7.18863V7.18195V7.17526V7.16858V7.16189V7.15521V7.14853V7.14184V7.13516V7.12848V7.1218V7.11513V7.10845V7.10177V7.09509V7.08842V7.08174V7.07507V7.0684V7.06172V7.05505V7.04838V7.04171V7.03504V7.02837V7.02171V7.01504V7.00837V7.00171V6.99504V6.98838V6.98172V6.97505V6.96839V6.96173V6.95507V6.94841V6.94176V6.9351V6.92844V6.92179V6.91513V6.90848V6.90183V6.89517V6.88852V6.88187V6.87522V6.86857V6.86193V6.85528V6.84863V6.84199V6.83534V6.8287V6.82206V6.81542V6.80878V6.80214V6.7955V6.78886V6.78222V6.77559V6.76895V6.76232V6.75568V6.74905V6.74242V6.73579V6.72916V6.72253V6.7159V6.70928V6.70265V6.69602V6.6894V6.68278V6.67616V6.66953V6.66291V6.65629V6.64968V6.64306V6.63644V6.62983V6.62321V6.6166V6.60999V6.60338V6.59677V6.59016V6.58355V6.57694V6.57033V6.56373V6.55712V6.55052V6.54392V6.53732V6.53072V6.52412V6.51752V6.51092V6.50432V6.49773V6.49113V6.48454V6.47795V6.47136V6.46477V6.45818V6.45159V6.445V6.43842V6.43183V6.42525V6.41867V6.41209V6.40551V6.39893V6.39235V6.38577V6.3792V6.37262V6.36605V6.35947V6.3529V6.34633V6.33976V6.33319V6.32663V6.32006V6.31349V6.30693V6.30037V6.29381V6.28725V6.28069V6.27413V6.26757V6.26102V6.25446V6.24791V6.24135V6.2348V6.22825V6.2217V6.21516V6.20861V6.20206V6.19552V6.18898V6.18243V6.17589V6.16935V6.16282V6.15628V6.14974V6.14321V6.13667V6.13014V6.12361V6.11708V6.11055V6.10402V6.0975V6.09097V6.08445V6.07792V6.0714V6.06488V6.05836V6.05185V6.04533V6.03881V6.0323V6.02579V6.01928V6.01277V6.00626V5.99975V5.99324V5.98674V5.98023V5.97373V5.96723V5.96073V5.95423V5.94773V5.94124V5.93474V5.92825V5.92176V5.91526V5.90878V5.90229V5.8958V5.88931V5.88283V5.87635V5.86986V5.86338V5.8569V5.85043V5.84395V5.83748V5.831V5.82453V5.81806V5.81159V5.80512V5.79865V5.79219V5.78572V5.77926V5.7728V5.76634V5.75988V5.75342V5.74697V5.74051V5.73406V5.72761V5.72115V5.71471V5.70826V5.70181V5.69537V5.68892V5.68248V5.67604V5.6696V5.66316V5.65673V5.65029V5.64386V5.63743V5.631V5.62457V5.61814V5.61171V5.60529V5.59886V5.59244V5.58602V5.5796V5.57318V5.56677V5.56035V5.55394V5.54753V5.54112V5.53471V5.5283V5.5219V5.51549V5.50909V5.50269V5.49629V5.48989V5.48349V5.4771V5.4707V5.46431V5.45792V5.45153V5.44514V5.43876V5.43237V5.42599V5.41961V5.41323V5.40685V5.40047V5.3941V5.38772V5.38135V5.37498V5.36861V5.36224V5.35588V5.34951V5.34315V5.33679V5.33043V5.32407V5.31771V5.31136V5.305V5.29865V5.2923V5.28595V5.27961V5.27326V5.26692V5.26057V5.25423V5.2479V5.24156V5.23522V5.22889V5.22256V5.21622V5.2099V5.20357V5.19724V5.19092V5.18459V5.17827V5.17195V5.16564V5.15932V5.15301V5.14669V5.14038V5.13407V5.12776V5.12146V5.11515V5.10885V5.10255V5.09943C1.17863 5.49986 2.0247 5.85698 3.01643 6.16867Z" stroke="#848E9C"/>
<path d="M12.6923 20.903C16.3151 20.903 19.7483 20.4068 22.3737 19.3935C23.3849 19.0053 24.2355 18.5478 24.9119 18.0464V18.0474V18.0515V18.0556V18.0597V18.0637V18.0678V18.0718V18.0758V18.0799V18.0839V18.0879V18.0919V18.0959V18.0999V18.1039V18.1079V18.1118V18.1158V18.1197V18.1237V18.1276V18.1316V18.1355V18.1394V18.1433V18.1472V18.1511V18.155V18.1589V18.1628V18.1666V18.1705V18.1743V18.1782V18.182V18.1859V18.1897V18.1935V18.1973V18.2011V18.2049V18.2087V18.2124V18.2162V18.22V18.2237V18.2275V18.2312V18.235V18.2387V18.2424V18.2461V18.2498V18.2535V18.2572V18.2609V18.2645V18.2682V18.2719V18.2755V18.2792V18.2828V18.2864V18.29V18.2937V18.2973V18.3009V18.3044V18.308V18.3116V18.3152V18.3187V18.3223V18.3258V18.3294V18.3329V18.3364V18.3399V18.3434V18.3469V18.3504V18.3539V18.3574V18.3608V18.3643V18.3677V18.3712V18.3746V18.378V18.3815V18.3849V18.3883V18.3917V18.3951V18.3984V18.4018V18.4052V18.4085V18.4119V18.4152V18.4186V18.4219V18.4252V18.4285V18.4318V18.4351V18.4384V18.4417V18.445V18.4482V18.4515V18.4547V18.458V18.4612V18.4644V18.4676V18.4709V18.4741V18.4772V18.4804V18.4836V18.4868V18.4899V18.4931V18.4962V18.4994V18.5025V18.5056V18.5087V18.5118V18.5149V18.518V18.5211V18.5242V18.5272V18.5303V18.5334V18.5364V18.5394V18.5425V18.5455V18.5485V18.5515V18.5545V18.5575V18.5604V18.5634V18.5664V18.5693V18.5723V18.5752V18.5781V18.581V18.584V18.5869V18.5898V18.5926V18.5955V18.5984V18.6013V18.6041V18.607V18.6098V18.6126V18.6154V18.6183V18.6211V18.6239V18.6267V18.6294V18.6322V18.635V18.6377V18.6405V18.6432V18.6459V18.6487V18.6514V18.6541V18.6568V18.6595V18.6622V18.6648V18.6675V18.6702V18.6728V18.6754V18.6781V18.6807V18.6833V18.6859V18.6885V18.6911V18.6937V18.6963V18.6988V18.7014V18.7039V18.7065V18.709V18.7115V18.714V18.7165V18.719V18.7215V18.724V18.7265V18.729V18.7314V18.7339V18.7363V18.7387V18.7411V18.7436V18.746V18.7484V18.7507V18.7531V18.7555V18.7579V18.7602V18.7626V18.7649V18.7672V18.7695V18.7718V18.7741V18.7764V18.7787V18.781V18.7833V18.7855V18.7878V18.79V18.7923V18.7945V18.7967V18.7989V18.8011V18.8033V18.8055V18.8076V18.8098V18.812V18.8141V18.8162V18.8184V18.8205V18.8226V18.8247V18.8268V18.8289V18.831V18.833V18.8351V18.8371V18.8392V18.8412V18.8432V18.8453V18.8473V18.8493V18.8513V18.8532V18.8552V18.8572V18.8591V18.8611V18.863V18.8649V18.8668V18.8688V18.8707V18.8725V18.8744V18.8763V18.8782V18.88V18.8819V18.8837V18.8855V18.8874V18.8892V18.891V18.8928C24.9119 19.4164 24.6504 19.9655 24.0711 20.517C23.4906 21.0697 22.6237 21.5907 21.5102 22.039C19.2859 22.9344 16.1757 23.5003 12.7059 23.5003C9.23532 23.5003 6.12468 22.9426 3.90024 22.0554C2.78665 21.6112 1.92 21.0942 1.33989 20.5448C0.761164 19.9966 0.5 19.45 0.5 18.9267V18.9246V18.9225V18.9204V18.9183V18.9162V18.9141V18.9119V18.9098V18.9076V18.9055V18.9033V18.9011V18.8989V18.8968V18.8946V18.8924V18.8902V18.8879V18.8857V18.8835V18.8812V18.879V18.8767V18.8745V18.8722V18.8699V18.8677V18.8654V18.8631V18.8608V18.8585V18.8561V18.8538V18.8515V18.8491V18.8468V18.8444V18.8421V18.8397V18.8373V18.835V18.8326V18.8302V18.8278V18.8254V18.8229V18.8205V18.8181V18.8156V18.8132V18.8107V18.8083V18.8058V18.8033V18.8008V18.7984V18.7959V18.7933V18.7908V18.7883V18.7858V18.7833V18.7807V18.7782V18.7756V18.7731V18.7705V18.7679V18.7653V18.7627V18.7601V18.7575V18.7549V18.7523V18.7497V18.7471V18.7444V18.7418V18.7391V18.7365V18.7338V18.7311V18.7284V18.7257V18.723V18.7203V18.7176V18.7149V18.7122V18.7095V18.7067V18.704V18.7012V18.6985V18.6957V18.6929V18.6902V18.6874V18.6846V18.6818V18.679V18.6762V18.6733V18.6705V18.6677V18.6648V18.662V18.6591V18.6563V18.6534V18.6505V18.6477V18.6448V18.6419V18.639V18.6361V18.6331V18.6302V18.6273V18.6243V18.6214V18.6184V18.6155V18.6125V18.6096V18.6066V18.6036V18.6006V18.5976V18.5946V18.5916V18.5886V18.5855V18.5825V18.5795V18.5764V18.5734V18.5703V18.5672V18.5642V18.5611V18.558V18.5549V18.5518V18.5487V18.5456V18.5425V18.5393V18.5362V18.5331V18.5299V18.5268V18.5236V18.5204V18.5173V18.5141V18.5109V18.5077V18.5045V18.5013V18.4981V18.4949V18.4916V18.4884V18.4852V18.4819V18.4787V18.4754V18.4721V18.4689V18.4656V18.4623V18.459V18.4557V18.4524V18.4491V18.4458V18.4424V18.4391V18.4358V18.4324V18.4291V18.4257V18.4223V18.419V18.4156V18.4122V18.4088V18.4054V18.402V18.3986V18.3952V18.3918V18.3883V18.3849V18.3815V18.378V18.3745V18.3711V18.3676V18.3641V18.3607V18.3572V18.3537V18.3502V18.3467V18.3431V18.3396V18.3361V18.3326V18.329V18.3255V18.3219V18.3184V18.3148V18.3112V18.3076V18.3041V18.3005V18.2969V18.2933V18.2897V18.286V18.2824V18.2788V18.2752V18.2715V18.2679V18.2642V18.2605V18.2569V18.2532V18.2495V18.2458V18.2421V18.2384V18.2347V18.231V18.2273V18.2236V18.2199V18.2161V18.2124V18.2086V18.2049V18.2011V18.1973V18.1936V18.1898V18.186V18.1822V18.1784V18.1746V18.1708V18.167V18.1631V18.1593V18.1555V18.1516V18.1478V18.1439V18.1401V18.1362V18.1323V18.1284V18.1245V18.1207V18.1168V18.1128V18.1089V18.105V18.1011V18.0972V18.0932V18.0893V18.0853V18.0814V18.0774V18.077C1.1738 18.5672 2.01349 19.015 3.01142 19.3937C5.63679 20.4069 9.0698 20.903 12.6923 20.903Z" stroke="#848E9C"/>
<path d="M24.6691 4.05561C24.6691 4.38932 24.459 4.79314 23.8771 5.23652C23.3028 5.67406 22.4404 6.08955 21.3298 6.44746C19.1142 7.16146 16.0223 7.61122 12.5845 7.61122C9.14681 7.61122 6.05483 7.16146 3.83929 6.44746C2.72871 6.08955 1.86623 5.67406 1.29198 5.23652C0.710062 4.79314 0.5 4.38932 0.5 4.05561C0.5 3.7219 0.710062 3.31808 1.29198 2.87469C1.86623 2.43716 2.72871 2.02166 3.83929 1.66376C6.05483 0.949757 9.14681 0.5 12.5845 0.5C16.0223 0.5 19.1142 0.949757 21.3298 1.66376C22.4404 2.02166 23.3028 2.43716 23.8771 2.87469C24.459 3.31808 24.6691 3.7219 24.6691 4.05561Z" fill="#848E9C" stroke="#848E9C"/>
</svg>
