<svg width="402" height="30" viewBox="0 0 402 30" fill="none" xmlns="http://www.w3.org/2000/svg">
<path d="M38.7948 14.1236C37.0803 12.4134 35.0201 11.5587 32.613 11.5587H8.7527C8.30954 11.5587 7.92937 11.4016 7.61138 11.0865C7.2934 10.7722 7.1348 10.3889 7.1348 9.93659V7.96134C7.1348 7.52962 7.2934 7.15584 7.61138 6.84079C7.92937 6.52652 8.30954 6.3686 8.7527 6.3686H39.517C39.594 6.3686 39.6561 6.34399 39.7043 6.2948C39.7526 6.24637 39.7767 6.19163 39.7767 6.1329V0.235697C39.7767 0.157132 39.7526 0.0984058 39.7043 0.058726C39.6561 0.0198399 39.5933 0 39.517 0H8.7527C6.32622 0 4.2605 0.855495 2.5563 2.56569C0.852101 4.27588 0 6.33923 0 8.75732V9.14061C0 11.5785 0.852101 13.6522 2.5563 15.3624C4.2605 17.0726 6.32622 17.9273 8.7527 17.9273H32.613C33.0368 17.9273 33.4077 18.0797 33.7248 18.3844C34.0428 18.6892 34.2015 19.0677 34.2015 19.5201V21.4953C34.2015 21.9476 34.0428 22.3262 33.7248 22.631C33.4069 22.9356 33.036 23.088 32.613 23.088H1.82005C1.76251 23.088 1.70887 23.1127 1.66144 23.1619C1.61324 23.211 1.58914 23.2754 1.58914 23.354V29.2511C1.58914 29.3098 1.61324 29.3646 1.66144 29.413C1.70965 29.4622 1.76251 29.4867 1.82005 29.4867H32.613C35.0201 29.4867 37.0803 28.6274 38.7948 26.9069C40.5083 25.1871 41.3658 23.1182 41.3658 20.7002V20.316C41.365 17.8979 40.5083 15.8338 38.7948 14.1236Z" fill="#F7F7F7"/>
<path d="M90.597 0H83.924C83.8665 0 83.8128 0.01984 83.7654 0.0587261C83.7173 0.098406 83.6932 0.157132 83.6932 0.235697V7.72486C83.6932 8.37322 83.3651 8.86527 82.7111 9.19938L69.3947 14.8307L56.0783 9.19938C55.4237 8.86527 55.0964 8.37402 55.0964 7.72486V0.235697C55.0964 0.157132 55.077 0.098406 55.0389 0.0587261C54.9994 0.01984 54.9417 0 54.8649 0H48.1919C48.1344 0 48.0807 0.01984 48.0333 0.0587261C47.9849 0.098406 47.9609 0.157132 47.9609 0.235697V8.81606C47.9609 10.0946 48.3077 11.2635 49.0012 12.3245C49.6946 13.3864 50.6377 14.172 51.8319 14.6831L65.813 20.6684V29.2202C65.813 29.2988 65.8371 29.3631 65.8854 29.4123C65.9336 29.4614 65.9958 29.486 66.0727 29.486H72.7457C72.8032 29.486 72.8561 29.4614 72.9042 29.4123C72.9526 29.3631 72.9767 29.2996 72.9767 29.2202V20.6692L86.9578 14.7133C88.1512 14.1824 89.0958 13.3911 89.7884 12.3396C90.482 11.2881 90.828 10.1239 90.828 8.84541V0.235697C90.828 0.157132 90.8037 0.098406 90.7556 0.0587261C90.7075 0.01984 90.6545 0 90.597 0Z" fill="#F7F7F7"/>
<path d="M140.161 0H133.488C133.411 0 133.353 0.0246014 133.315 0.0738044C133.276 0.123007 133.257 0.176972 133.257 0.235697V23.1166H130.455C129.935 23.1166 129.492 22.8808 129.127 22.4087L116.186 3.09581C114.799 1.11103 112.882 0.0785659 110.437 0H99.2878C99.2109 0 99.1479 0.0246014 99.0997 0.0738044C99.0514 0.123007 99.0273 0.176972 99.0273 0.235697V29.2496C99.0273 29.3083 99.0514 29.3631 99.0997 29.4115C99.1479 29.4606 99.2102 29.4852 99.2878 29.4852H105.961C106.018 29.4852 106.071 29.4606 106.119 29.4115C106.167 29.3631 106.192 29.3083 106.192 29.2496V6.3686H108.994C109.514 6.3686 109.956 6.61461 110.322 7.10586L123.263 26.4187C124.65 28.4043 126.566 29.4265 129.012 29.4852H140.162C140.239 29.4852 140.297 29.4606 140.335 29.4115C140.373 29.3631 140.393 29.3083 140.393 29.2496V0.235697C140.393 0.176972 140.373 0.123007 140.335 0.0738044C140.296 0.0246014 140.238 0 140.161 0Z" fill="#F7F7F7"/>
<path d="M188.391 0H147.516C147.439 0 147.381 0.0246014 147.343 0.0738044C147.304 0.123007 147.285 0.176972 147.285 0.235697V6.13291C147.285 6.19163 147.304 6.24638 147.343 6.2948C147.381 6.34399 147.439 6.3686 147.516 6.3686H164.386V29.2496C164.386 29.3083 164.404 29.3631 164.443 29.4115C164.481 29.4606 164.54 29.4852 164.617 29.4852H171.29C171.367 29.4852 171.424 29.4606 171.463 29.4115C171.501 29.3631 171.521 29.3083 171.521 29.2496V6.3686H188.39C188.467 6.3686 188.529 6.34399 188.577 6.2948C188.626 6.2456 188.65 6.19163 188.65 6.13291V0.235697C188.65 0.176972 188.626 0.123007 188.577 0.0738044C188.531 0.0246014 188.468 0 188.391 0Z" fill="#F7F7F7"/>
<path d="M237.954 0H231.28C231.222 0 231.169 0.0246014 231.121 0.0738044C231.073 0.123007 231.05 0.176972 231.05 0.235697V11.5579H204.012V0.235697C204.012 0.176972 203.988 0.123007 203.94 0.0738044C203.892 0.025395 203.829 0 203.753 0H197.079C197.021 0 196.968 0.0246014 196.92 0.0738044C196.872 0.123007 196.848 0.176972 196.848 0.235697V29.2496C196.848 29.3083 196.872 29.3631 196.92 29.4115C196.968 29.4606 197.021 29.4852 197.079 29.4852H203.753C203.829 29.4852 203.892 29.4606 203.94 29.4115C203.988 29.3623 204.012 29.3083 204.012 29.2496V17.9273H231.05V29.2496C231.05 29.3083 231.073 29.3631 231.121 29.4115C231.171 29.4606 231.222 29.4852 231.28 29.4852H237.954C238.03 29.4852 238.093 29.4606 238.141 29.4115C238.189 29.3623 238.213 29.3083 238.213 29.2496V0.235697C238.213 0.176972 238.189 0.123007 238.141 0.0738044C238.093 0.0246014 238.03 0 237.954 0Z" fill="#F7F7F7"/>
<path d="M287.342 0H254.96C252.552 0 250.491 0.854704 248.777 2.5649C247.063 4.27511 246.207 6.33924 246.207 8.75734V20.6985C246.207 23.1366 247.063 25.2101 248.777 26.9204C250.491 28.6306 252.552 29.486 254.96 29.486H287.342C287.399 29.486 287.451 29.4614 287.5 29.4123C287.546 29.3631 287.571 29.3091 287.571 29.2504V23.3533C287.571 23.2747 287.548 23.216 287.5 23.1762C287.451 23.1374 287.399 23.1175 287.342 23.1175H254.96C254.516 23.1175 254.14 22.9603 253.832 22.6461C253.525 22.3319 253.37 21.958 253.37 21.5254V17.9273H287.321C287.397 17.9273 287.454 17.9027 287.493 17.8535C287.531 17.8043 287.55 17.7504 287.55 17.6916V11.7944C287.55 11.7159 287.531 11.6571 287.493 11.6175C287.454 11.5786 287.397 11.5587 287.321 11.5587H253.37V7.96136C253.37 7.52885 253.525 7.15586 253.832 6.8408C254.14 6.52653 254.516 6.36861 254.96 6.36861H287.342C287.399 6.36861 287.451 6.344 287.5 6.29481C287.546 6.24639 287.571 6.19164 287.571 6.13292V0.235697C287.571 0.176972 287.548 0.123007 287.5 0.0738044C287.451 0.025395 287.399 0 287.342 0Z" fill="#F7F7F7"/>
<path d="M336.672 0H295.797C295.72 0 295.661 0.0246014 295.623 0.0738044C295.585 0.123007 295.566 0.176972 295.566 0.235697V6.13291C295.566 6.19163 295.585 6.24638 295.623 6.2948C295.661 6.34399 295.72 6.3686 295.797 6.3686H312.666V29.2496C312.666 29.3083 312.685 29.3631 312.723 29.4115C312.763 29.4606 312.821 29.4852 312.897 29.4852H319.569C319.648 29.4852 319.705 29.4606 319.743 29.4115C319.781 29.3631 319.8 29.3083 319.8 29.2496V6.3686H336.67C336.748 6.3686 336.809 6.34399 336.857 6.2948C336.907 6.2456 336.93 6.19163 336.93 6.13291V0.235697C336.93 0.176972 336.907 0.123007 336.857 0.0738044C336.811 0.0246014 336.748 0 336.672 0Z" fill="#F7F7F7"/>
<path d="M352.21 0.058726C352.17 0.0198399 352.113 0 352.037 0H345.365C345.286 0 345.229 0.0198399 345.191 0.058726C345.152 0.0984058 345.133 0.157132 345.133 0.235697V29.2496C345.133 29.3083 345.152 29.3631 345.191 29.4115C345.229 29.4606 345.286 29.4852 345.365 29.4852H352.037C352.113 29.4852 352.17 29.4606 352.21 29.4115C352.249 29.3623 352.268 29.3083 352.268 29.2496V0.235697C352.268 0.157925 352.249 0.0984058 352.21 0.058726Z" fill="#F7F7F7"/>
<path d="M370.631 7.16408C370.343 6.82997 369.986 6.66252 369.563 6.66252H360.897C360.82 6.66252 360.757 6.63792 360.709 6.58872C360.662 6.54031 360.637 6.48555 360.637 6.42682V0.529643C360.637 0.470918 360.662 0.416953 360.709 0.367751C360.757 0.31934 360.82 0.293945 360.897 0.293945H370.054C372.364 0.293945 374.357 1.24785 376.033 3.15404L378.257 5.89591L373.925 11.2328L370.631 7.16408ZM386.633 3.12469C388.309 1.23753 390.311 0.293945 392.642 0.293945H401.77C401.848 0.293945 401.905 0.313786 401.943 0.352671C401.982 0.392352 402.001 0.451077 402.001 0.529643V6.42682C402.001 6.48555 401.982 6.54031 401.943 6.58872C401.905 6.63792 401.848 6.66252 401.77 6.66252H393.105C392.681 6.66252 392.325 6.82997 392.037 7.16408L385.651 15.0072L392.065 22.9089C392.354 23.224 392.7 23.3812 393.105 23.3812H401.77C401.848 23.3812 401.905 23.4058 401.943 23.4549C401.982 23.5041 402.001 23.5684 402.001 23.6463V29.5434C402.001 29.6021 401.982 29.6569 401.943 29.7053C401.905 29.7544 401.848 29.779 401.77 29.779H392.642C390.313 29.779 388.32 28.8259 386.664 26.9189L381.348 20.3735L376.033 26.9189C374.357 28.8259 372.355 29.779 370.026 29.779H360.897C360.82 29.779 360.761 29.7544 360.723 29.7053C360.685 29.6561 360.665 29.5925 360.665 29.5132V23.616C360.665 23.5573 360.685 23.5033 360.723 23.4542C360.761 23.405 360.82 23.3802 360.897 23.3802H369.563C369.967 23.3802 370.324 23.2137 370.631 22.8788L376.9 15.154L386.633 3.12469Z" fill="#F7F7F7"/>
</svg>
