<svg width="222" height="17" viewBox="0 0 222 17" fill="none" xmlns="http://www.w3.org/2000/svg">
<path d="M21.4163 7.79681C20.4699 6.85271 19.3325 6.38088 18.0037 6.38088H4.83185C4.58721 6.38088 4.37734 6.29414 4.20179 6.12021C4.02626 5.94672 3.9387 5.73513 3.9387 5.48541V4.39499C3.9387 4.15666 4.02626 3.95032 4.20179 3.7764C4.37734 3.60291 4.58721 3.51573 4.83185 3.51573H21.815C21.8575 3.51573 21.8918 3.50214 21.9184 3.47499C21.9451 3.44826 21.9584 3.41803 21.9584 3.38562V0.130114C21.9584 0.0867432 21.9451 0.0543241 21.9184 0.0324192C21.8918 0.0109525 21.8571 0 21.815 0H4.83185C3.49234 0 2.35197 0.472269 1.41118 1.41637C0.470395 2.36046 0 3.49952 0 4.8344V5.046C0 6.39183 0.470395 7.53658 1.41118 8.48068C2.35197 9.42478 3.49234 9.89661 4.83185 9.89661H18.0037C18.2377 9.89661 18.4424 9.98072 18.6175 10.149C18.793 10.3172 18.8807 10.5262 18.8807 10.7759V11.8663C18.8807 12.116 18.793 12.325 18.6175 12.4932C18.442 12.6614 18.2372 12.7455 18.0037 12.7455H1.00474C0.97298 12.7455 0.943365 12.7592 0.917185 12.7863C0.890574 12.8134 0.877269 12.849 0.877269 12.8924V16.1478C0.877269 16.1802 0.890574 16.2105 0.917185 16.2372C0.943795 16.2643 0.97298 16.2779 1.00474 16.2779H18.0037C19.3325 16.2779 20.4699 15.8035 21.4163 14.8537C22.3622 13.9043 22.8356 12.7622 22.8356 11.4274V11.2153C22.8352 9.8804 22.3622 8.74091 21.4163 7.79681Z" fill="#00D1FF"/>
<path d="M50.0125 0H46.3287C46.297 0 46.2673 0.0109525 46.2412 0.0324192C46.2146 0.0543242 46.2013 0.0867434 46.2013 0.130115V4.26444C46.2013 4.62236 46.0202 4.89399 45.6592 5.07844L38.308 8.18718L30.9568 5.07844C30.5954 4.89399 30.4147 4.62281 30.4147 4.26444V0.130115C30.4147 0.0867434 30.404 0.0543242 30.383 0.0324192C30.3611 0.0109525 30.3293 0 30.2869 0H26.6031C26.5714 0 26.5417 0.0109525 26.5156 0.0324192C26.4889 0.0543242 26.4756 0.0867434 26.4756 0.130115V4.86683C26.4756 5.57261 26.667 6.21792 27.0499 6.80366C27.4327 7.38984 27.9533 7.82355 28.6125 8.10568L36.3307 11.4098V16.1307C36.3307 16.1741 36.344 16.2097 36.3707 16.2368C36.3973 16.2639 36.4316 16.2775 36.474 16.2775H40.1578C40.1896 16.2775 40.2188 16.2639 40.2454 16.2368C40.272 16.2097 40.2853 16.1746 40.2853 16.1307V11.4103L48.0035 8.12233C48.6623 7.82924 49.1838 7.39247 49.5661 6.81199C49.949 6.2315 50.14 5.58881 50.14 4.88303V0.130115C50.14 0.0867434 50.1266 0.0543242 50.1 0.0324192C50.0735 0.0109525 50.0442 0 50.0125 0Z" fill="#00D1FF"/>
<path d="M77.3744 0H73.6906C73.6481 0 73.6159 0.013581 73.5948 0.0407431C73.5734 0.0679051 73.5631 0.0976957 73.5631 0.130114V12.7613H72.0163C71.7292 12.7613 71.4846 12.6312 71.2828 12.3705L64.139 1.70901C63.3732 0.613336 62.3153 0.0433716 60.9655 0H54.8104C54.768 0 54.7332 0.013581 54.7066 0.0407431C54.6799 0.0679051 54.6666 0.0976957 54.6666 0.130114V16.147C54.6666 16.1794 54.6799 16.2096 54.7066 16.2363C54.7332 16.2635 54.7676 16.277 54.8104 16.277H58.4942C58.5259 16.277 58.5551 16.2635 58.5817 16.2363C58.6084 16.2096 58.6217 16.1794 58.6217 16.147V3.51573H60.1685C60.4556 3.51573 60.6998 3.65154 60.902 3.92273L68.0458 14.5842C68.8116 15.6804 69.8691 16.2446 71.2193 16.277H77.3748C77.4172 16.277 77.4491 16.2635 77.4705 16.2363C77.4915 16.2096 77.5022 16.1794 77.5022 16.147V0.130114C77.5022 0.0976957 77.4915 0.0679051 77.4705 0.0407431C77.4485 0.013581 77.4168 0 77.3744 0Z" fill="#00D1FF"/>
<path d="M103.999 0H81.4348C81.3924 0 81.3601 0.013581 81.3391 0.0407431C81.3177 0.0679051 81.3074 0.0976957 81.3074 0.130114V3.38562C81.3074 3.41804 81.3177 3.44826 81.3391 3.47499C81.3601 3.50214 81.3924 3.51573 81.4348 3.51573H90.7475V16.147C90.7475 16.1794 90.7578 16.2096 90.7792 16.2363C90.8003 16.2635 90.8325 16.277 90.875 16.277H94.5588C94.6013 16.277 94.633 16.2635 94.6544 16.2363C94.6754 16.2096 94.6862 16.1794 94.6862 16.147V3.51573H103.999C104.041 3.51573 104.076 3.50214 104.102 3.47499C104.129 3.44783 104.142 3.41804 104.142 3.38562V0.130114C104.142 0.0976957 104.129 0.0679051 104.102 0.0407431C104.077 0.013581 104.042 0 103.999 0Z" fill="#00D1FF"/>
<path d="M131.361 0H127.676C127.645 0 127.615 0.013581 127.589 0.0407431C127.562 0.0679051 127.55 0.0976957 127.55 0.130114V6.38044H112.624V0.130114C112.624 0.0976957 112.61 0.0679051 112.584 0.0407431C112.557 0.0140191 112.523 0 112.48 0H108.796C108.764 0 108.735 0.013581 108.709 0.0407431C108.682 0.0679051 108.668 0.0976957 108.668 0.130114V16.147C108.668 16.1794 108.682 16.2096 108.709 16.2363C108.735 16.2635 108.764 16.277 108.796 16.277H112.48C112.523 16.277 112.557 16.2635 112.584 16.2363C112.61 16.2092 112.624 16.1794 112.624 16.147V9.89662H127.55V16.147C127.55 16.1794 127.562 16.2096 127.589 16.2363C127.616 16.2635 127.645 16.277 127.676 16.277H131.361C131.403 16.277 131.438 16.2635 131.464 16.2363C131.49 16.2092 131.504 16.1794 131.504 16.147V0.130114C131.504 0.0976957 131.49 0.0679051 131.464 0.0407431C131.438 0.013581 131.403 0 131.361 0Z" fill="#00D1FF"/>
<path d="M158.625 0H140.749C139.42 0 138.282 0.471832 137.336 1.41593C136.39 2.36004 135.917 3.49952 135.917 4.83441V11.4264C135.917 12.7723 136.39 13.917 137.336 14.8612C138.282 15.8053 139.42 16.2775 140.749 16.2775H158.625C158.657 16.2775 158.685 16.2639 158.713 16.2368C158.738 16.2097 158.752 16.1798 158.752 16.1474V12.892C158.752 12.8486 158.739 12.8162 158.713 12.7942C158.685 12.7728 158.657 12.7618 158.625 12.7618H140.749C140.504 12.7618 140.297 12.675 140.127 12.5016C139.957 12.3281 139.872 12.1217 139.872 11.8829V9.89663H158.614C158.656 9.89663 158.687 9.88305 158.709 9.85589C158.73 9.82873 158.74 9.79894 158.74 9.76652V6.51101C158.74 6.46764 158.73 6.43522 158.709 6.41331C158.687 6.39185 158.656 6.3809 158.614 6.3809H139.872V4.395C139.872 4.15624 139.957 3.95033 140.127 3.77641C140.297 3.60291 140.504 3.51574 140.749 3.51574H158.625C158.657 3.51574 158.685 3.50215 158.713 3.475C158.738 3.44826 158.752 3.41804 158.752 3.38562V0.130115C158.752 0.0976958 158.739 0.0679052 158.713 0.0407431C158.685 0.0140191 158.657 0 158.625 0Z" fill="#00D1FF"/>
<path d="M185.857 0H163.293C163.251 0 163.218 0.013581 163.197 0.0407431C163.176 0.0679051 163.165 0.0976957 163.165 0.130114V3.38562C163.165 3.41804 163.176 3.44826 163.197 3.47499C163.218 3.50214 163.251 3.51573 163.293 3.51573H172.605V16.147C172.605 16.1794 172.616 16.2096 172.637 16.2363C172.659 16.2635 172.691 16.277 172.733 16.277H176.416C176.459 16.277 176.491 16.2635 176.512 16.2363C176.533 16.2096 176.544 16.1794 176.544 16.147V3.51573H185.856C185.9 3.51573 185.933 3.50214 185.96 3.47499C185.987 3.44783 186 3.41804 186 3.38562V0.130114C186 0.0976957 185.987 0.0679051 185.96 0.0407431C185.934 0.013581 185.9 0 185.857 0Z" fill="#00D1FF"/>
<path d="M194.434 0.0324192C194.411 0.0109525 194.38 0 194.338 0H190.654C190.611 0 190.579 0.0109525 190.558 0.0324192C190.537 0.0543241 190.527 0.0867433 190.527 0.130114V16.147C190.527 16.1794 190.537 16.2096 190.558 16.2363C190.579 16.2635 190.611 16.277 190.654 16.277H194.338C194.38 16.277 194.411 16.2635 194.434 16.2363C194.455 16.2092 194.465 16.1794 194.465 16.147V0.130114C194.465 0.0871813 194.455 0.0543241 194.434 0.0324192Z" fill="#00D1FF"/>
<path d="M204.604 3.95498C204.444 3.77054 204.247 3.6781 204.014 3.6781H199.23C199.187 3.6781 199.153 3.66452 199.126 3.63736C199.1 3.61063 199.086 3.5804 199.086 3.54798V0.292499C199.086 0.26008 199.1 0.230289 199.126 0.203128C199.153 0.176403 199.187 0.162384 199.23 0.162384H204.285C205.56 0.162384 206.66 0.688975 207.586 1.74127L208.813 3.2549L206.422 6.20109L204.604 3.95498ZM213.437 1.72507C214.362 0.68328 215.468 0.162384 216.755 0.162384H221.793C221.836 0.162384 221.868 0.173337 221.889 0.194803C221.91 0.216708 221.921 0.249127 221.921 0.292499V3.54798C221.921 3.5804 221.91 3.61063 221.889 3.63736C221.868 3.66452 221.836 3.6781 221.793 3.6781H217.01C216.776 3.6781 216.58 3.77054 216.42 3.95498L212.895 8.28467L216.436 12.6467C216.595 12.8207 216.786 12.9075 217.01 12.9075H221.793C221.836 12.9075 221.868 12.9211 221.889 12.9482C221.91 12.9753 221.921 13.0109 221.921 13.0538V16.3093C221.921 16.3417 221.91 16.3719 221.889 16.3986C221.868 16.4258 221.836 16.4393 221.793 16.4393H216.755C215.469 16.4393 214.369 15.9132 213.454 14.8604L210.52 11.2471L207.586 14.8604C206.66 15.9132 205.555 16.4393 204.269 16.4393H199.23C199.187 16.4393 199.155 16.4258 199.134 16.3986C199.113 16.3715 199.102 16.3364 199.102 16.2926V13.0371C199.102 13.0047 199.113 12.9749 199.134 12.9478C199.155 12.9206 199.187 12.907 199.23 12.907H204.014C204.237 12.907 204.434 12.815 204.604 12.6302L208.064 8.36572L213.437 1.72507Z" fill="#00D1FF"/>
</svg>
