<svg width="611" height="299" viewBox="0 0 611 299" fill="none" xmlns="http://www.w3.org/2000/svg">
<g filter="url(#filter0_d_3550_9146)">
<path d="M134.271 155.637C134.145 155.213 133.807 155.003 133.258 155.003C132.752 155.003 132.33 155.213 131.991 155.637C131.652 156.019 131.294 156.42 130.914 156.844C130.533 157.267 129.436 157.477 127.62 157.477H59.3699C57.4701 157.477 56.1832 157.076 55.5091 156.271C54.8349 155.427 54.1995 155 53.6093 155C53.0158 155 52.5965 155.657 52.3417 156.966L50 176.78V178.872C50 179.044 50.1258 179.128 50.3806 179.128H51.5224C51.8579 179.128 52.0933 178.746 52.2191 177.983C52.3449 177.178 52.7481 175.379 53.4222 172.585C54.6446 167.381 57.2218 164.354 61.1471 163.506H85.4606C85.967 163.59 86.3895 163.697 86.7282 163.826C87.1088 163.907 87.2991 164.396 87.2991 165.285V235.567C87.2991 237.934 86.0315 240.007 83.4995 241.79C81.0095 243.565 77.6969 244.455 73.5587 244.455H71.7814C71.4008 244.455 71.2105 244.626 71.2105 244.959V246.486C71.2105 246.829 71.3783 247 71.7169 247H115.215C115.554 247 115.722 246.829 115.722 246.492V244.966C115.722 244.629 115.554 244.461 115.215 244.461H113.38C109.245 244.461 105.91 243.572 103.375 241.796C100.885 240.014 99.6396 237.944 99.6396 235.573V165.292C99.6396 164.402 99.8074 163.914 100.146 163.833C100.527 163.704 100.969 163.6 101.475 163.513H125.853C128.598 164.105 130.601 165.651 131.868 168.147C133.136 170.606 134.107 173.947 134.781 178.18C134.907 178.814 135.139 179.134 135.478 179.134H136.619C136.871 179.134 137 179.05 137 178.879V176.786L134.655 156.976C134.568 156.507 134.439 156.061 134.271 155.637Z" fill="white"/>
</g>
<g filter="url(#filter1_d_3550_9146)">
<path d="M245.493 244.476C237.584 244.222 233.628 241.254 233.628 235.576V168.984C233.628 163.051 236.757 160.08 243.017 160.08C243.822 160.08 244.222 159.955 244.222 159.704V158.505C244.222 158.17 244.054 158 243.715 158H207.111C206.813 158 206.665 158.17 206.665 158.505V159.704C206.665 160.039 206.833 160.206 207.172 160.206C210.598 160.46 213.665 161.051 216.37 161.977C219.078 162.859 220.578 164.019 220.875 165.447C221.001 166.122 221.066 166.624 221.066 166.965C221.108 167.26 221.173 167.592 221.257 167.971V198.145C221.257 198.566 221.192 198.836 221.066 198.965C220.94 199.09 220.662 199.154 220.242 199.154H170.251C169.827 199.154 169.553 199.09 169.427 198.965C169.297 198.836 169.236 198.566 169.236 198.145V168.984C169.236 163.051 172.261 160.08 178.308 160.08C179.113 160.08 179.513 159.955 179.513 159.704V158.505C179.513 158.17 179.345 158 179.006 158H147.159C146.862 158 146.713 158.17 146.713 158.505V159.704C146.713 160.039 147.159 160.232 148.048 160.273C153.927 160.566 156.864 163.177 156.864 168.103V235.447C156.864 241.466 153.335 244.476 146.27 244.476C145.423 244.476 145 244.646 145 244.977V246.495C145 246.83 145.168 247 145.507 247H180.528C180.826 247 180.971 246.83 180.971 246.495V244.977C180.971 244.643 180.803 244.476 180.464 244.476C172.979 244.476 169.233 241.952 169.233 236.904V206.161C169.233 205.74 169.297 205.466 169.423 205.341C169.549 205.215 169.824 205.151 170.248 205.151H220.242C220.662 205.151 220.94 205.215 221.066 205.341C221.195 205.466 221.257 205.74 221.257 206.161V236.267C221.257 239.466 219.182 241.736 215.038 243.087C212.333 244.01 209.922 244.476 207.805 244.476C205.689 244.476 204.635 244.646 204.635 244.977V246.495C204.635 246.83 204.803 247 205.142 247H245.493C245.829 247 246 246.83 246 246.495V244.977C246 244.646 245.832 244.476 245.493 244.476Z" fill="white"/>
</g>
<g filter="url(#filter2_d_3550_9146)">
<path d="M553.726 207.888C550.874 204.54 546.068 200.519 539.295 195.814C536.746 193.991 534.233 192.191 531.768 190.41C529.303 188.629 527.108 186.767 525.193 184.815C523.281 182.866 521.73 180.748 520.533 178.459C519.386 176.17 518.81 173.482 518.81 170.39C518.81 167.252 520.384 164.539 523.535 162.25C526.685 159.964 530.022 158.818 533.556 158.818C539.432 158.818 544.703 161.061 549.385 165.556C551.3 167.463 552.705 169.389 553.596 171.339C553.853 171.847 554.087 172.352 554.298 172.867C554.559 173.372 554.77 173.841 554.939 174.266C555.111 174.644 555.277 174.923 555.449 175.091C555.619 175.26 556.022 175.347 556.662 175.347C557.342 175.347 557.68 175.24 557.68 175.027C557.68 174.771 557.599 174.22 557.426 173.372L555.768 159.831C555.768 158.902 555.554 158.432 555.128 158.432L551.551 158.879C550.019 158.497 547.294 157.755 543.383 156.655C539.51 155.55 535.956 155 532.721 155C526.468 155 520.914 156.93 516.062 160.783C511.253 164.639 508.85 169.6 508.85 175.658C508.85 181.674 511.042 187.143 515.425 192.055C518.228 195.231 521.997 198.411 526.721 201.587C531.446 204.764 535.062 207.244 537.572 209.025C546.426 215.381 550.848 222.245 550.848 229.618C550.848 234.235 549.151 237.985 545.747 240.87C542.381 243.751 538.317 245.189 533.553 245.189C523.17 245.189 515.744 240.423 511.276 230.89C510.294 227.5 509.208 225.807 508.021 225.807C507.55 225.807 507.254 225.933 507.127 226.186C507.046 226.396 507 226.843 507 227.52C507 228.158 507.615 233.73 508.85 244.237C508.977 245.124 509.318 245.571 509.868 245.571L512.999 244.936C513.126 244.891 513.425 244.872 513.89 244.872C514.401 244.872 515.188 245.082 516.251 245.506C517.317 245.93 519.229 246.607 522 247.54C524.806 248.514 528.571 249 533.299 249C540.661 249 547.106 246.863 552.637 242.582C558.213 238.263 561 232.5 561 225.295C560.62 218.865 558.194 213.059 553.726 207.888Z" fill="white"/>
</g>
<g filter="url(#filter3_d_3550_9146)">
<path d="M341.498 244.473C339.888 244.473 338.106 243.99 336.16 243.023C333.827 242.093 332.156 240.768 331.136 239.045C330.666 238.289 330.245 237.447 329.863 236.521C329.523 235.595 329.056 234.566 328.463 233.428L301.566 158.505C301.482 158.296 301.356 158.17 301.184 158.129C301.058 158.084 300.951 158.042 300.867 158H288.153C287.985 158 287.897 158.103 287.897 158.318L288.597 160.399C288.597 160.524 288.577 160.63 288.532 160.717L262.59 235.26C260.556 241.151 256.634 244.222 250.826 244.476C250.275 244.476 250 244.646 250 244.978V246.495C250 246.83 250.168 247 250.509 247H283.003C283.34 247 283.512 246.83 283.512 246.495V244.978C283.512 244.643 283.343 244.476 283.003 244.476H281.351C276.985 244.476 273.509 243.486 270.924 241.508C269.781 240.627 269.208 239.633 269.208 238.54V237.971L291.778 172.772C292.244 171.595 292.584 171.003 292.795 171.003C293.005 171.003 293.326 171.572 293.747 172.707L317.02 237.277C317.101 237.614 317.146 237.907 317.146 238.161C317.146 241.482 314.199 243.46 308.307 244.093C307.29 244.177 305.994 244.26 304.426 244.347C302.859 244.428 302.071 244.643 302.071 244.974V246.492C302.071 246.826 302.24 246.997 302.58 246.997H341.491C341.831 246.997 342 246.826 342 246.492V245.039C342.009 244.659 341.841 244.473 341.498 244.473Z" fill="white"/>
</g>
<g filter="url(#filter4_d_3550_9146)">
<path d="M418.954 226.354C418.616 226.608 417.723 227.723 416.281 229.701C414.835 231.637 413.624 233.193 412.646 234.373C408.992 238.788 405.27 241 401.489 241H376.304C375.45 241 374.687 240.685 374.008 240.051C373.329 239.424 372.943 238.749 372.858 238.035V168.035C372.858 166.138 372.985 164.814 373.241 164.058C373.537 163.257 374.177 162.691 375.154 162.354C378.51 161.135 382.381 160.524 386.756 160.524H389.498C389.839 160.524 390.004 160.357 390.004 160.019V158.505C390.004 158.17 389.839 158 389.498 158H346.338C345.997 158 345.828 158.17 345.828 158.505V160.019C345.828 160.357 345.997 160.524 346.338 160.524H347.741C350.418 160.524 352.951 161.029 355.329 162.042C358.729 163.431 360.428 165.428 360.428 168.039V234.817C360.428 236.46 360.067 237.952 359.343 239.302C358.619 240.604 357.706 241.572 356.602 242.203C353.88 243.717 350.697 244.476 347.04 244.476H345.507C345.169 244.476 345 244.646 345 244.978V246.495C345 246.83 345.172 247 345.507 247H409.84C410.35 247 410.798 246.621 411.181 245.862L420.808 227.177C420.935 226.926 421 226.672 421 226.421C420.997 225.367 420.318 225.347 418.954 226.354Z" fill="white"/>
</g>
<g filter="url(#filter5_d_3550_9146)">
<path d="M495.242 224.083C494.104 224.083 493.468 224.671 493.343 225.851C492.962 229.388 491.908 232.52 490.179 235.257C487.773 239.083 484.397 241 480.046 241H458.968C458.039 241 457.152 240.935 456.307 240.81C453.398 240.389 451.941 238.598 451.941 235.443V212.629V204.703V197.445V192.133V164.814C451.941 164.267 452.211 163.994 452.76 163.994H479.162C481.82 164.457 483.674 165.573 484.735 167.338C485.787 169.107 486.509 171.312 486.889 173.968C487.312 176.618 487.644 178.155 487.899 178.576C488.192 178.956 488.657 179.145 489.295 179.145C489.924 179.145 490.24 178.936 490.24 178.515L489.102 160.209C489.018 159.286 488.805 158.695 488.47 158.444C488.134 158.148 487.586 158 486.822 158H426.618C426.283 158 426.112 158.17 426.112 158.505V160.019C426.112 160.357 426.283 160.524 426.618 160.524H427.947C429.379 160.733 430.798 160.99 432.188 161.28C437.125 162.418 439.595 165.068 439.595 169.235V235.765C439.595 239.804 437.867 242.328 434.406 243.337C432.881 243.759 431.198 243.99 429.343 244.032C427.486 244.032 425.67 244.096 423.9 244.222H422.503C422.168 244.222 422 244.392 422 244.727V246.495C422 246.83 422.168 247 422.503 247H493.03C493.365 247 493.659 246.704 493.913 246.116L496 224.906C496.003 224.356 495.748 224.083 495.242 224.083Z" fill="white"/>
</g>
<g filter="url(#filter6_d_3550_9146)">
<path d="M273 134.333H220.641V50H214V140H273V134.333Z" fill="white"/>
</g>
<g filter="url(#filter7_d_3550_9146)">
<path d="M81.9176 140H88.4594V55.6625H119V50H52V55.6625H81.9176V140Z" fill="white"/>
</g>
<g filter="url(#filter8_d_3550_9146)">
<path d="M158 55.1559L195.179 140H203L162.319 50H154.498L114 140H121.012L158 55.1559Z" fill="white"/>
</g>
<g filter="url(#filter9_d_3550_9146)">
<path d="M559 91H518V98H559V91Z" fill="white"/>
</g>
<g filter="url(#filter10_d_3550_9146)">
<path d="M561 55.6625V50H502V140H508.595V55.6625H561Z" fill="white"/>
</g>
<g filter="url(#filter11_d_3550_9146)">
<path d="M293.498 112.68V97.2001V91.5375V55.6625H303.146H345.128V50H287V140H346V134.333H293.498V112.68Z" fill="white"/>
</g>
<g filter="url(#filter12_d_3550_9146)">
<path d="M342 91H303V98H342V91Z" fill="white"/>
</g>
<g filter="url(#filter13_d_3550_9146)">
<path d="M440.002 50C415.149 50 395 70.1454 395 95C395 119.855 415.145 140 440.002 140C464.851 140 485 119.855 485 95C485 70.1454 464.851 50 440.002 50ZM440.002 134.463C418.206 134.463 400.541 116.793 400.541 95C400.541 73.2068 418.202 55.5372 440.002 55.5372C461.794 55.5372 479.463 73.2068 479.463 95C479.463 116.793 461.798 134.463 440.002 134.463Z" fill="white"/>
</g>
<g filter="url(#filter14_d_3550_9146)">
<path d="M461.791 202.562L470.941 211.703L480.089 202.559L470.939 193.418L461.791 202.562Z" fill="white"/>
</g>
<defs>
<filter id="filter0_d_3550_9146" x="0" y="105" width="187" height="192" filterUnits="userSpaceOnUse" color-interpolation-filters="sRGB">
<feFlood flood-opacity="0" result="BackgroundImageFix"/>
<feColorMatrix in="SourceAlpha" type="matrix" values="0 0 0 0 0 0 0 0 0 0 0 0 0 0 0 0 0 0 127 0" result="hardAlpha"/>
<feOffset/>
<feGaussianBlur stdDeviation="25"/>
<feComposite in2="hardAlpha" operator="out"/>
<feColorMatrix type="matrix" values="0 0 0 0 0 0 0 0 0 0 0 0 0 0 0 0 0 0 1 0"/>
<feBlend mode="normal" in2="BackgroundImageFix" result="effect1_dropShadow_3550_9146"/>
<feBlend mode="normal" in="SourceGraphic" in2="effect1_dropShadow_3550_9146" result="shape"/>
</filter>
<filter id="filter1_d_3550_9146" x="95" y="108" width="201" height="189" filterUnits="userSpaceOnUse" color-interpolation-filters="sRGB">
<feFlood flood-opacity="0" result="BackgroundImageFix"/>
<feColorMatrix in="SourceAlpha" type="matrix" values="0 0 0 0 0 0 0 0 0 0 0 0 0 0 0 0 0 0 127 0" result="hardAlpha"/>
<feOffset/>
<feGaussianBlur stdDeviation="25"/>
<feComposite in2="hardAlpha" operator="out"/>
<feColorMatrix type="matrix" values="0 0 0 0 0 0 0 0 0 0 0 0 0 0 0 0 0 0 1 0"/>
<feBlend mode="normal" in2="BackgroundImageFix" result="effect1_dropShadow_3550_9146"/>
<feBlend mode="normal" in="SourceGraphic" in2="effect1_dropShadow_3550_9146" result="shape"/>
</filter>
<filter id="filter2_d_3550_9146" x="457" y="105" width="154" height="194" filterUnits="userSpaceOnUse" color-interpolation-filters="sRGB">
<feFlood flood-opacity="0" result="BackgroundImageFix"/>
<feColorMatrix in="SourceAlpha" type="matrix" values="0 0 0 0 0 0 0 0 0 0 0 0 0 0 0 0 0 0 127 0" result="hardAlpha"/>
<feOffset/>
<feGaussianBlur stdDeviation="25"/>
<feComposite in2="hardAlpha" operator="out"/>
<feColorMatrix type="matrix" values="0 0 0 0 0 0 0 0 0 0 0 0 0 0 0 0 0 0 1 0"/>
<feBlend mode="normal" in2="BackgroundImageFix" result="effect1_dropShadow_3550_9146"/>
<feBlend mode="normal" in="SourceGraphic" in2="effect1_dropShadow_3550_9146" result="shape"/>
</filter>
<filter id="filter3_d_3550_9146" x="200" y="108" width="192" height="189" filterUnits="userSpaceOnUse" color-interpolation-filters="sRGB">
<feFlood flood-opacity="0" result="BackgroundImageFix"/>
<feColorMatrix in="SourceAlpha" type="matrix" values="0 0 0 0 0 0 0 0 0 0 0 0 0 0 0 0 0 0 127 0" result="hardAlpha"/>
<feOffset/>
<feGaussianBlur stdDeviation="25"/>
<feComposite in2="hardAlpha" operator="out"/>
<feColorMatrix type="matrix" values="0 0 0 0 0 0 0 0 0 0 0 0 0 0 0 0 0 0 1 0"/>
<feBlend mode="normal" in2="BackgroundImageFix" result="effect1_dropShadow_3550_9146"/>
<feBlend mode="normal" in="SourceGraphic" in2="effect1_dropShadow_3550_9146" result="shape"/>
</filter>
<filter id="filter4_d_3550_9146" x="295" y="108" width="176" height="189" filterUnits="userSpaceOnUse" color-interpolation-filters="sRGB">
<feFlood flood-opacity="0" result="BackgroundImageFix"/>
<feColorMatrix in="SourceAlpha" type="matrix" values="0 0 0 0 0 0 0 0 0 0 0 0 0 0 0 0 0 0 127 0" result="hardAlpha"/>
<feOffset/>
<feGaussianBlur stdDeviation="25"/>
<feComposite in2="hardAlpha" operator="out"/>
<feColorMatrix type="matrix" values="0 0 0 0 0 0 0 0 0 0 0 0 0 0 0 0 0 0 1 0"/>
<feBlend mode="normal" in2="BackgroundImageFix" result="effect1_dropShadow_3550_9146"/>
<feBlend mode="normal" in="SourceGraphic" in2="effect1_dropShadow_3550_9146" result="shape"/>
</filter>
<filter id="filter5_d_3550_9146" x="372" y="108" width="174" height="189" filterUnits="userSpaceOnUse" color-interpolation-filters="sRGB">
<feFlood flood-opacity="0" result="BackgroundImageFix"/>
<feColorMatrix in="SourceAlpha" type="matrix" values="0 0 0 0 0 0 0 0 0 0 0 0 0 0 0 0 0 0 127 0" result="hardAlpha"/>
<feOffset/>
<feGaussianBlur stdDeviation="25"/>
<feComposite in2="hardAlpha" operator="out"/>
<feColorMatrix type="matrix" values="0 0 0 0 0 0 0 0 0 0 0 0 0 0 0 0 0 0 1 0"/>
<feBlend mode="normal" in2="BackgroundImageFix" result="effect1_dropShadow_3550_9146"/>
<feBlend mode="normal" in="SourceGraphic" in2="effect1_dropShadow_3550_9146" result="shape"/>
</filter>
<filter id="filter6_d_3550_9146" x="164" y="0" width="159" height="190" filterUnits="userSpaceOnUse" color-interpolation-filters="sRGB">
<feFlood flood-opacity="0" result="BackgroundImageFix"/>
<feColorMatrix in="SourceAlpha" type="matrix" values="0 0 0 0 0 0 0 0 0 0 0 0 0 0 0 0 0 0 127 0" result="hardAlpha"/>
<feOffset/>
<feGaussianBlur stdDeviation="25"/>
<feComposite in2="hardAlpha" operator="out"/>
<feColorMatrix type="matrix" values="0 0 0 0 0 0 0 0 0 0 0 0 0 0 0 0 0 0 1 0"/>
<feBlend mode="normal" in2="BackgroundImageFix" result="effect1_dropShadow_3550_9146"/>
<feBlend mode="normal" in="SourceGraphic" in2="effect1_dropShadow_3550_9146" result="shape"/>
</filter>
<filter id="filter7_d_3550_9146" x="2" y="0" width="167" height="190" filterUnits="userSpaceOnUse" color-interpolation-filters="sRGB">
<feFlood flood-opacity="0" result="BackgroundImageFix"/>
<feColorMatrix in="SourceAlpha" type="matrix" values="0 0 0 0 0 0 0 0 0 0 0 0 0 0 0 0 0 0 127 0" result="hardAlpha"/>
<feOffset/>
<feGaussianBlur stdDeviation="25"/>
<feComposite in2="hardAlpha" operator="out"/>
<feColorMatrix type="matrix" values="0 0 0 0 0 0 0 0 0 0 0 0 0 0 0 0 0 0 1 0"/>
<feBlend mode="normal" in2="BackgroundImageFix" result="effect1_dropShadow_3550_9146"/>
<feBlend mode="normal" in="SourceGraphic" in2="effect1_dropShadow_3550_9146" result="shape"/>
</filter>
<filter id="filter8_d_3550_9146" x="64" y="0" width="189" height="190" filterUnits="userSpaceOnUse" color-interpolation-filters="sRGB">
<feFlood flood-opacity="0" result="BackgroundImageFix"/>
<feColorMatrix in="SourceAlpha" type="matrix" values="0 0 0 0 0 0 0 0 0 0 0 0 0 0 0 0 0 0 127 0" result="hardAlpha"/>
<feOffset/>
<feGaussianBlur stdDeviation="25"/>
<feComposite in2="hardAlpha" operator="out"/>
<feColorMatrix type="matrix" values="0 0 0 0 0 0 0 0 0 0 0 0 0 0 0 0 0 0 1 0"/>
<feBlend mode="normal" in2="BackgroundImageFix" result="effect1_dropShadow_3550_9146"/>
<feBlend mode="normal" in="SourceGraphic" in2="effect1_dropShadow_3550_9146" result="shape"/>
</filter>
<filter id="filter9_d_3550_9146" x="468" y="41" width="141" height="107" filterUnits="userSpaceOnUse" color-interpolation-filters="sRGB">
<feFlood flood-opacity="0" result="BackgroundImageFix"/>
<feColorMatrix in="SourceAlpha" type="matrix" values="0 0 0 0 0 0 0 0 0 0 0 0 0 0 0 0 0 0 127 0" result="hardAlpha"/>
<feOffset/>
<feGaussianBlur stdDeviation="25"/>
<feComposite in2="hardAlpha" operator="out"/>
<feColorMatrix type="matrix" values="0 0 0 0 0 0 0 0 0 0 0 0 0 0 0 0 0 0 1 0"/>
<feBlend mode="normal" in2="BackgroundImageFix" result="effect1_dropShadow_3550_9146"/>
<feBlend mode="normal" in="SourceGraphic" in2="effect1_dropShadow_3550_9146" result="shape"/>
</filter>
<filter id="filter10_d_3550_9146" x="452" y="0" width="159" height="190" filterUnits="userSpaceOnUse" color-interpolation-filters="sRGB">
<feFlood flood-opacity="0" result="BackgroundImageFix"/>
<feColorMatrix in="SourceAlpha" type="matrix" values="0 0 0 0 0 0 0 0 0 0 0 0 0 0 0 0 0 0 127 0" result="hardAlpha"/>
<feOffset/>
<feGaussianBlur stdDeviation="25"/>
<feComposite in2="hardAlpha" operator="out"/>
<feColorMatrix type="matrix" values="0 0 0 0 0 0 0 0 0 0 0 0 0 0 0 0 0 0 1 0"/>
<feBlend mode="normal" in2="BackgroundImageFix" result="effect1_dropShadow_3550_9146"/>
<feBlend mode="normal" in="SourceGraphic" in2="effect1_dropShadow_3550_9146" result="shape"/>
</filter>
<filter id="filter11_d_3550_9146" x="237" y="0" width="159" height="190" filterUnits="userSpaceOnUse" color-interpolation-filters="sRGB">
<feFlood flood-opacity="0" result="BackgroundImageFix"/>
<feColorMatrix in="SourceAlpha" type="matrix" values="0 0 0 0 0 0 0 0 0 0 0 0 0 0 0 0 0 0 127 0" result="hardAlpha"/>
<feOffset/>
<feGaussianBlur stdDeviation="25"/>
<feComposite in2="hardAlpha" operator="out"/>
<feColorMatrix type="matrix" values="0 0 0 0 0 0 0 0 0 0 0 0 0 0 0 0 0 0 1 0"/>
<feBlend mode="normal" in2="BackgroundImageFix" result="effect1_dropShadow_3550_9146"/>
<feBlend mode="normal" in="SourceGraphic" in2="effect1_dropShadow_3550_9146" result="shape"/>
</filter>
<filter id="filter12_d_3550_9146" x="253" y="41" width="139" height="107" filterUnits="userSpaceOnUse" color-interpolation-filters="sRGB">
<feFlood flood-opacity="0" result="BackgroundImageFix"/>
<feColorMatrix in="SourceAlpha" type="matrix" values="0 0 0 0 0 0 0 0 0 0 0 0 0 0 0 0 0 0 127 0" result="hardAlpha"/>
<feOffset/>
<feGaussianBlur stdDeviation="25"/>
<feComposite in2="hardAlpha" operator="out"/>
<feColorMatrix type="matrix" values="0 0 0 0 0 0 0 0 0 0 0 0 0 0 0 0 0 0 1 0"/>
<feBlend mode="normal" in2="BackgroundImageFix" result="effect1_dropShadow_3550_9146"/>
<feBlend mode="normal" in="SourceGraphic" in2="effect1_dropShadow_3550_9146" result="shape"/>
</filter>
<filter id="filter13_d_3550_9146" x="345" y="0" width="190" height="190" filterUnits="userSpaceOnUse" color-interpolation-filters="sRGB">
<feFlood flood-opacity="0" result="BackgroundImageFix"/>
<feColorMatrix in="SourceAlpha" type="matrix" values="0 0 0 0 0 0 0 0 0 0 0 0 0 0 0 0 0 0 127 0" result="hardAlpha"/>
<feOffset/>
<feGaussianBlur stdDeviation="25"/>
<feComposite in2="hardAlpha" operator="out"/>
<feColorMatrix type="matrix" values="0 0 0 0 0 0 0 0 0 0 0 0 0 0 0 0 0 0 1 0"/>
<feBlend mode="normal" in2="BackgroundImageFix" result="effect1_dropShadow_3550_9146"/>
<feBlend mode="normal" in="SourceGraphic" in2="effect1_dropShadow_3550_9146" result="shape"/>
</filter>
<filter id="filter14_d_3550_9146" x="411.791" y="143.418" width="118.297" height="118.285" filterUnits="userSpaceOnUse" color-interpolation-filters="sRGB">
<feFlood flood-opacity="0" result="BackgroundImageFix"/>
<feColorMatrix in="SourceAlpha" type="matrix" values="0 0 0 0 0 0 0 0 0 0 0 0 0 0 0 0 0 0 127 0" result="hardAlpha"/>
<feOffset/>
<feGaussianBlur stdDeviation="25"/>
<feComposite in2="hardAlpha" operator="out"/>
<feColorMatrix type="matrix" values="0 0 0 0 0 0 0 0 0 0 0 0 0 0 0 0 0 0 1 0"/>
<feBlend mode="normal" in2="BackgroundImageFix" result="effect1_dropShadow_3550_9146"/>
<feBlend mode="normal" in="SourceGraphic" in2="effect1_dropShadow_3550_9146" result="shape"/>
</filter>
</defs>
</svg>
