<svg width="220" height="51" viewBox="0 0 220 51" fill="none" xmlns="http://www.w3.org/2000/svg">
<g clip-path="url(#clip0)">
<path d="M32.1894 4.22487C28.6698 1.49298 24.2566 -0.000194362 19.7023 3.49632e-05C15.1423 -0.00833301 10.7217 1.48561 7.20102 4.22487C4.68906 6.16935 2.72488 8.67084 1.4834 11.5066C0.241913 14.3423 -0.238329 17.4242 0.085442 20.4778C0.409213 23.5314 1.52695 26.4619 3.33909 29.0084C5.15124 31.5549 7.60155 33.6382 10.4718 35.0728C10.5427 35.2874 10.6137 35.502 10.6988 35.7435C11.01 36.5576 11.4347 37.3289 11.9617 38.0369C12.3622 38.5705 12.9552 38.9473 13.629 39.0965C13.9976 39.1814 14.3802 39.1967 14.755 39.1414C15.1298 39.0862 15.4893 38.9615 15.813 38.7746C16.1367 38.5877 16.4181 38.3421 16.6411 38.0521C16.8642 37.7621 17.0244 37.4334 17.1127 37.0847C17.3123 36.24 17.3958 35.3744 17.361 34.5095C17.3382 33.6787 17.2433 32.8511 17.0772 32.035C16.9796 31.4856 16.7401 30.9674 16.38 30.5264C16.0198 30.0854 15.5501 29.7352 15.0126 29.5068H14.899C12.2824 28.4264 10.1347 26.5336 8.81157 24.1419C8.03935 22.6654 7.6062 21.0512 7.54055 19.4053C7.47489 17.7593 7.77822 16.1189 8.43063 14.5916C9.08303 13.0643 10.0698 11.6846 11.3261 10.5432C12.5824 9.40174 14.0798 8.52431 15.7202 7.96846C17.3606 7.41261 19.1068 7.19092 20.8442 7.31793C22.5816 7.44494 24.271 7.91778 25.8014 8.70543C27.3319 9.49307 28.6688 10.5777 29.7245 11.8882C30.7802 13.1986 31.5307 14.7053 31.9269 16.3092C32.5425 18.9682 32.1691 21.7464 30.8697 24.1755C29.5492 26.6202 27.4014 28.5772 24.7681 29.7348H24.7184L24.3992 29.8823C24.2927 29.936 24.1934 29.9963 24.0941 30.0567L23.867 30.2243C23.7698 30.2996 23.6775 30.3802 23.5903 30.4658C23.3443 30.6977 23.1384 30.9647 22.9802 31.2571L22.8808 31.4314L22.8312 31.5454L22.7035 31.7869C22.6476 31.9182 22.6002 32.0525 22.5616 32.1892C22.4624 32.5692 22.3866 32.9544 22.3345 33.3427C22.2707 34.0133 22.2423 34.5766 22.221 35.1399L22.1713 38.3454C22.1713 39.3849 22.1359 40.4176 22.1217 41.4436C22.0894 42.5162 21.8162 43.57 21.32 44.5351C20.9761 45.1696 20.8139 45.8781 20.8496 46.5902C20.8852 47.3023 21.1175 47.9932 21.5232 48.5941C21.929 49.1951 22.4941 49.6852 23.1623 50.0157C23.8306 50.3462 24.5787 50.5056 25.3324 50.4781C26.0861 50.4506 26.819 50.237 27.4583 49.8588C28.0976 49.4805 28.621 48.9506 28.9764 48.3219C29.3319 47.6931 29.507 46.9874 29.4844 46.2748C29.4619 45.5623 29.2423 44.8677 28.8477 44.2602C28.2769 43.3812 27.9386 42.3852 27.8615 41.3564C27.8047 40.3774 27.7622 39.405 27.7976 38.446C27.8112 37.5134 27.8989 36.5831 28.0602 35.663C28.0956 35.4618 28.1382 35.274 28.1808 35.093C31.9368 33.435 35.027 30.6764 36.9927 27.2267C39.1437 23.4623 39.8408 19.1074 38.9643 14.9099C38.0878 10.7125 35.6924 6.93452 32.1894 4.22487Z" fill="#F6F6FE"/>
<path d="M24.7543 23.4176L19.7453 18.6831L14.7292 13.9419L14.3248 13.5597C12.9386 14.9273 12.1743 16.7538 12.1958 18.6477C12.2172 20.5415 13.0227 22.3521 14.4396 23.6913C15.8565 25.0306 17.7721 25.7919 19.7758 25.8122C21.7794 25.8325 23.7118 25.1101 25.1587 23.7999L24.7543 23.4176Z" fill="#F6F6FE"/>
<path d="M156.692 30.0567H142.502V7.14872C142.502 6.34836 142.165 5.58079 141.567 5.01486C140.968 4.44892 140.156 4.13098 139.309 4.13098C138.462 4.13098 137.65 4.44892 137.051 5.01486C136.453 5.58079 136.116 6.34836 136.116 7.14872V33.0744C136.118 33.8742 136.455 34.6408 137.053 35.2063C137.652 35.7719 138.463 36.0904 139.309 36.0922H156.677C157.524 36.0922 158.336 35.7742 158.935 35.2083C159.534 34.6424 159.87 33.8748 159.87 33.0744C159.87 32.2741 159.534 31.5065 158.935 30.9406C158.336 30.3746 157.524 30.0567 156.677 30.0567H156.692Z" fill="#F6F6FE"/>
<path d="M184.532 4.13098H166.731C165.884 4.13098 165.072 4.44892 164.473 5.01486C163.874 5.58079 163.538 6.34836 163.538 7.14872C163.538 7.94907 163.874 8.71665 164.473 9.28258C165.072 9.84852 165.884 10.1665 166.731 10.1665H184.567C185.414 10.1665 186.226 9.84852 186.825 9.28258C187.424 8.71665 187.76 7.94907 187.76 7.14872C187.76 6.34836 187.424 5.58079 186.825 5.01486C186.226 4.44892 185.414 4.13098 184.567 4.13098H184.532Z" fill="#F6F6FE"/>
<path d="M180.332 23.1293C181.179 23.1293 181.991 22.8114 182.59 22.2455C183.189 21.6795 183.525 20.912 183.525 20.1116C183.525 19.3113 183.189 18.5437 182.59 17.9777C181.991 17.4118 181.179 17.0939 180.332 17.0939H170.896C170.049 17.0939 169.237 17.4118 168.638 17.9777C168.04 18.5437 167.703 19.3113 167.703 20.1116C167.703 20.912 168.04 21.6795 168.638 22.2455C169.237 22.8114 170.049 23.1293 170.896 23.1293H180.332Z" fill="#F6F6FE"/>
<path d="M184.532 30.0566H166.731C165.884 30.0566 165.072 30.3746 164.473 30.9405C163.874 31.5065 163.538 32.274 163.538 33.0744C163.538 33.8747 163.874 34.6423 164.473 35.2082C165.072 35.7742 165.884 36.0921 166.731 36.0921H184.567C185.414 36.0921 186.226 35.7742 186.825 35.2082C187.424 34.6423 187.76 33.8747 187.76 33.0744C187.76 32.274 187.424 31.5065 186.825 30.9405C186.226 30.3746 185.414 30.0566 184.567 30.0566H184.532Z" fill="#F6F6FE"/>
<path d="M96.3281 4.13099C95.4813 4.13099 94.6692 4.44893 94.0705 5.01486C93.4717 5.5808 93.1353 6.34837 93.1353 7.14873V17.0067H79.5059V7.14873C79.5069 6.75218 79.4249 6.35937 79.2648 5.99284C79.1047 5.62631 78.8696 5.29329 78.5729 5.01289C78.2762 4.73249 77.9239 4.51024 77.5361 4.3589C77.1483 4.20756 76.7328 4.1301 76.3132 4.13099H47.4652C46.6184 4.13099 45.8063 4.44893 45.2076 5.01486C44.6088 5.5808 44.2725 6.34837 44.2725 7.14873C44.2725 7.94908 44.6088 8.71665 45.2076 9.28259C45.8063 9.84852 46.6184 10.1665 47.4652 10.1665H56.4616V33.0744C56.4616 33.4707 56.5442 33.8631 56.7046 34.2293C56.8651 34.5954 57.1002 34.9281 57.3967 35.2083C57.6932 35.4885 58.0451 35.7108 58.4325 35.8625C58.8199 36.0141 59.235 36.0922 59.6543 36.0922C60.0736 36.0922 60.4887 36.0141 60.8761 35.8625C61.2635 35.7108 61.6154 35.4885 61.9119 35.2083C62.2084 34.9281 62.4435 34.5954 62.604 34.2293C62.7644 33.8631 62.847 33.4707 62.847 33.0744V10.1665H73.1205V33.0744C73.1205 33.8748 73.4569 34.6424 74.0556 35.2083C74.6544 35.7742 75.4665 36.0922 76.3132 36.0922C77.16 36.0922 77.9721 35.7742 78.5708 35.2083C79.1696 34.6424 79.5059 33.8748 79.5059 33.0744V23.0153H93.1353V33.0744C93.1353 33.8748 93.4717 34.6424 94.0705 35.2083C94.6692 35.7742 95.4813 36.0922 96.3281 36.0922C97.1748 36.0922 97.9869 35.7742 98.5857 35.2083C99.1844 34.6424 99.5208 33.8748 99.5208 33.0744V7.14873C99.5217 6.75218 99.4398 6.35937 99.2797 5.99284C99.1195 5.62631 98.8844 5.29329 98.5877 5.01289C98.2911 4.73249 97.9388 4.51024 97.551 4.3589C97.1632 4.20756 96.7476 4.1301 96.3281 4.13099Z" fill="#F6F6FE"/>
<path d="M211.486 17.0938H200.134C199.569 17.0938 199.028 16.8819 198.629 16.5046C198.23 16.1273 198.005 15.6156 198.005 15.082V12.1716C198.005 11.638 198.23 11.1263 198.629 10.749C199.028 10.3717 199.569 10.1597 200.134 10.1597H211.94C212.787 10.1597 213.599 9.8418 214.198 9.27587C214.796 8.70993 215.133 7.94236 215.133 7.142C215.133 6.34165 214.796 5.57408 214.198 5.00814C213.599 4.44221 212.787 4.12427 211.94 4.12427H200.162C197.904 4.12427 195.739 4.97211 194.142 6.48127C192.545 7.99043 191.648 10.0373 191.648 12.1716V15.082C191.648 17.2163 192.545 19.2631 194.142 20.7723C195.739 22.2815 197.904 23.1293 200.162 23.1293H211.514C212.079 23.1293 212.62 23.3413 213.019 23.7186C213.419 24.0958 213.643 24.6076 213.643 25.1411V28.0516C213.643 28.5851 213.419 29.0969 213.019 29.4741C212.62 29.8514 212.079 30.0634 211.514 30.0634H194.848C194.001 30.0634 193.189 30.3813 192.591 30.9473C191.992 31.5132 191.656 32.2808 191.656 33.0811C191.656 33.8815 191.992 34.6491 192.591 35.215C193.189 35.7809 194.001 36.0989 194.848 36.0989H211.486C213.744 36.0989 215.909 35.251 217.506 33.7419C219.103 32.2327 220 30.1858 220 28.0516V25.1344C219.998 23.0013 219.1 20.9562 217.504 19.4485C215.907 17.9407 213.743 17.0938 211.486 17.0938Z" fill="#F6F6FE"/>
<path d="M120.415 5.96845C120.17 5.42409 119.76 4.9599 119.238 4.63364C118.716 4.30737 118.104 4.13342 117.478 4.13342C116.852 4.13342 116.24 4.30737 115.717 4.63364C115.195 4.9599 114.786 5.42409 114.54 5.96845L102.876 31.8942C102.67 32.353 102.587 32.8529 102.635 33.3494C102.683 33.8458 102.861 34.3233 103.152 34.7391C103.443 35.1549 103.838 35.4961 104.303 35.7322C104.767 35.9683 105.286 36.092 105.814 36.0922H129.128C129.655 36.092 130.174 35.9683 130.639 35.7322C131.103 35.4961 131.499 35.1549 131.79 34.7391C132.081 34.3233 132.258 33.8458 132.306 33.3494C132.354 32.8529 132.271 32.353 132.065 31.8942L120.415 5.96845ZM110.681 30.0567L117.499 14.8674L124.317 30.0567H110.681Z" fill="#F6F6FE"/>
</g>
<defs>
<clipPath id="clip0">
<rect width="220" height="50.5102" fill="white"/>
</clipPath>
</defs>
</svg>
