<svg width="36" height="36" viewBox="0 0 36 36" fill="none" xmlns="http://www.w3.org/2000/svg">
<circle cx="18.3535" cy="17.5381" r="17.5" fill="#27283F"/>
<path d="M17.5461 20.8459C17.6042 20.9039 17.6503 20.9729 17.6817 21.0488C17.7132 21.1246 17.7294 21.206 17.7294 21.2881C17.7294 21.3702 17.7132 21.4516 17.6817 21.5274C17.6503 21.6033 17.6042 21.6722 17.5461 21.7303L15.0461 24.2303C14.988 24.2884 14.9191 24.3345 14.8432 24.3659C14.7673 24.3974 14.686 24.4136 14.6039 24.4136C14.5217 24.4136 14.4404 24.3974 14.3645 24.3659C14.2887 24.3345 14.2197 24.2884 14.1617 24.2303L11.6617 21.7303C11.6036 21.6722 11.5575 21.6033 11.5261 21.5274C11.4947 21.4515 11.4785 21.3702 11.4785 21.2881C11.4785 21.206 11.4947 21.1246 11.5261 21.0488C11.5575 20.9729 11.6036 20.904 11.6617 20.8459C11.779 20.7286 11.938 20.6627 12.1039 20.6627C12.186 20.6627 12.2673 20.6789 12.3432 20.7103C12.419 20.7418 12.488 20.7878 12.5461 20.8459L13.9789 22.2795V11.2881C13.9789 11.1223 14.0447 10.9634 14.1619 10.8461C14.2791 10.7289 14.4381 10.6631 14.6039 10.6631C14.7696 10.6631 14.9286 10.7289 15.0458 10.8461C15.163 10.9634 15.2289 11.1223 15.2289 11.2881V22.2795L16.6617 20.8459C16.7197 20.7878 16.7887 20.7417 16.8645 20.7102C16.9404 20.6788 17.0217 20.6626 17.1039 20.6626C17.186 20.6626 17.2673 20.6788 17.3432 20.7102C17.4191 20.7417 17.488 20.7878 17.5461 20.8459ZM25.0461 13.3459L22.5461 10.8459C22.488 10.7878 22.4191 10.7417 22.3432 10.7102C22.2673 10.6788 22.186 10.6626 22.1039 10.6626C22.0217 10.6626 21.9404 10.6788 21.8645 10.7102C21.7887 10.7417 21.7197 10.7878 21.6617 10.8459L19.1617 13.3459C19.0444 13.4632 18.9785 13.6222 18.9785 13.7881C18.9785 13.9539 19.0444 14.113 19.1617 14.2303C19.279 14.3476 19.438 14.4134 19.6039 14.4134C19.7697 14.4134 19.9288 14.3476 20.0461 14.2303L21.4789 12.7967V23.7881C21.4789 23.9538 21.5447 24.1128 21.6619 24.23C21.7791 24.3472 21.9381 24.4131 22.1039 24.4131C22.2696 24.4131 22.4286 24.3472 22.5458 24.23C22.663 24.1128 22.7289 23.9538 22.7289 23.7881V12.7967L24.1617 14.2303C24.279 14.3476 24.438 14.4134 24.6039 14.4134C24.7697 14.4134 24.9288 14.3476 25.0461 14.2303C25.1633 14.113 25.2292 13.9539 25.2292 13.7881C25.2292 13.6222 25.1633 13.4632 25.0461 13.3459Z" fill="#6BD6D6"/>
</svg>
