<?xml version="1.0" encoding="utf-8"?>
<!-- Generator: Adobe Illustrator 16.0.0, SVG Export Plug-In . SVG Version: 6.00 Build 0)  -->
<!DOCTYPE svg PUBLIC "-//W3C//DTD SVG 1.1//EN" "http://www.w3.org/Graphics/SVG/1.1/DTD/svg11.dtd">
<svg version="1.1" id="Layer_1" xmlns="http://www.w3.org/2000/svg" xmlns:xlink="http://www.w3.org/1999/xlink" x="0px" y="0px"
	 width="512px" height="512px" viewBox="0 0 512 512" enable-background="new 0 0 512 512" xml:space="preserve">
<path fill="#FFFFFF" d="M346.115,191.927v-9.055v-8v-8.016c0.252-48.768-40.397-88.234-90.113-88.234
	c-49.917,0-90.314,39.467-90.314,88.234v8.016v8v9.055c-17.531,3.102-35.109,7.234-35.109,12.598v50.879v14.886v53v10.666v50.152
	c0,0,0,4.772,5.49,7.036c19.896,7.875,98.173,34.941,116.156,41.141c2.316,0.838,2.972,0.838,3.576,0.838
	c0.855,0,1.259,0,3.576-0.838c17.983-6.199,96.461-33.266,116.357-41.141c5.088-2.065,5.288-6.839,5.288-6.839v-50.35v-10.666v-53
	v-14.886v-50.879C381.022,199.161,363.695,194.831,346.115,191.927z M221.745,182.095v-5.896v-5.158
	c0-19.934,12.897-31.926,34.194-31.926c21.334,0,34.229,12.026,34.229,31.926v5.158v5.896v4.766
	c-23.396-1.216-44.908-1.213-68.424,0.011V182.095z M313.81,340.268c0,1.318-0.154,1.474-1.32,1.939
	c-1.125,0.505-53.934,19.557-53.934,19.557s-2.134,0.659-2.755,0.659c-0.66,0-2.756-0.814-2.756-0.814s-52.809-19.051-53.934-19.557
	c-1.125-0.505-1.319-0.659-1.319-1.94v-84.898c-0.311-4.384,26.229-6.675,57.854-6.675s58.164,2.446,58.164,6.831V340.268z"/>
<path id="path7_2_" fill="#010101" d="M255.985,89.06c-45.767,0-82.805,37.039-82.805,82.806V202.9
	c-16.072,2.909-32.189,6.789-32.189,11.822v161.963c0,0,0,4.479,5.033,6.604c18.242,7.39,90.01,32.791,106.498,38.609
	c2.124,0.785,2.725,0.785,3.278,0.785c0.785,0,1.154,0,3.279-0.785c16.487-5.818,88.439-31.22,106.682-38.609
	c4.665-1.939,4.849-6.418,4.849-6.418V214.723c0-5.033-15.887-9.098-32.004-11.822v-31.035
	C338.837,126.099,301.567,89.06,255.985,89.06z M255.985,128.639c26.971,0,43.273,16.302,43.273,43.273v26.97
	c-30.25-2.124-56.066-2.124-86.5,0v-26.97C212.759,144.895,229.062,128.639,255.985,128.639z M255.801,238.599
	c37.639,0,69.228,2.91,69.228,8.129v101.049c0,1.568-0.184,1.754-1.57,2.308c-1.34,0.601-64.193,23.276-64.193,23.276
	s-2.54,0.785-3.279,0.785c-0.785,0-3.279-0.97-3.279-0.97s-62.854-22.675-64.193-23.276c-1.34-0.601-1.57-0.786-1.57-2.31V246.542
	C186.573,241.324,218.162,238.599,255.801,238.599z"/>
</svg>
