<svg width="29" height="24" viewBox="0 0 29 24" fill="none" xmlns="http://www.w3.org/2000/svg">
<path d="M28.5538 3.17122C27.51 3.63372 26.3888 3.94622 25.21 4.08747C26.4263 3.35971 27.3362 2.21431 27.77 0.864974C26.6273 1.54371 25.3767 2.02147 24.0725 2.27747C23.1955 1.34106 22.0338 0.720382 20.7679 0.511817C19.502 0.303251 18.2026 0.518464 17.0716 1.12404C15.9405 1.72962 15.041 2.69168 14.5127 3.86085C13.9844 5.03003 13.8569 6.34091 14.15 7.58997C11.8346 7.47372 9.56955 6.87191 7.50179 5.82361C5.43404 4.7753 3.60982 3.30393 2.14751 1.50497C1.64751 2.36747 1.36001 3.36747 1.36001 4.43247C1.35946 5.39122 1.59556 6.33528 2.04736 7.18089C2.49917 8.0265 3.15272 8.74752 3.95001 9.27997C3.02536 9.25055 2.12111 9.0007 1.31251 8.55122V8.62622C1.31242 9.9709 1.77756 11.2742 2.62899 12.315C3.48043 13.3557 4.66573 14.0699 5.98376 14.3362C5.12599 14.5684 4.22669 14.6026 3.35376 14.4362C3.72564 15.5932 4.45001 16.605 5.42547 17.3299C6.40094 18.0548 7.57866 18.4564 8.79377 18.4787C6.73106 20.098 4.18362 20.9763 1.56126 20.9725C1.09674 20.9726 0.63261 20.9455 0.171265 20.8912C2.83311 22.6027 5.93169 23.511 9.09626 23.5075C19.8088 23.5075 25.665 14.635 25.665 6.93997C25.665 6.68997 25.6588 6.43747 25.6475 6.18747C26.7866 5.36369 27.7699 4.34359 28.5513 3.17497L28.5538 3.17122Z" fill="#F6F6FE"/>
</svg>
