<svg width="50" height="50" viewBox="0 0 50 50" fill="none" xmlns="http://www.w3.org/2000/svg">
<path d="M24.9998 49.9996C38.8068 49.9996 49.9996 38.8068 49.9996 24.9998C49.9996 11.1928 38.8068 0 24.9998 0C11.1928 0 0 11.1928 0 24.9998C0 38.8068 11.1928 49.9996 24.9998 49.9996Z" fill="#55ACEE"/>
<path d="M40.3139 17.9668C39.2426 18.4418 38.0902 18.7631 36.8816 18.9066C38.1156 18.1673 39.0626 16.9975 39.5096 15.6013C38.3549 16.2862 37.0754 16.7831 35.7149 17.051C34.6248 15.8901 33.0718 15.1646 31.352 15.1646C28.0525 15.1646 25.3764 17.8406 25.3764 21.1402C25.3764 21.6086 25.4294 22.0645 25.5319 22.5021C20.5656 22.253 16.1622 19.8741 13.2147 16.2577C12.7005 17.1401 12.4054 18.1673 12.4054 19.2623C12.4054 21.3349 13.4612 23.1648 15.0637 24.2361C14.0846 24.2053 13.1626 23.9366 12.3573 23.4879C12.3569 23.5133 12.3569 23.5387 12.3569 23.5636C12.3569 26.459 14.4175 28.8739 17.1507 29.4225C16.6498 29.5598 16.1208 29.6324 15.5767 29.6324C15.1907 29.6324 14.8168 29.5954 14.4523 29.5259C15.2126 31.8994 17.419 33.6272 20.0344 33.6757C17.9889 35.2787 15.4127 36.2337 12.6122 36.2337C12.1309 36.2337 11.6541 36.2057 11.1875 36.15C13.8306 37.8461 16.9724 38.835 20.3468 38.835C31.3382 38.835 37.3491 29.7296 37.3491 21.8323C37.3491 21.5734 37.3433 21.3153 37.3317 21.0595C38.5002 20.2173 39.5131 19.1651 40.3139 17.9668Z" fill="#F1F2F2"/>
</svg>
