<svg width="30" height="26" viewBox="0 0 30 26" fill="none" xmlns="http://www.w3.org/2000/svg">
<g clip-path="url(#clip0)">
<path d="M28.7051 16.6613C28.1059 16.118 27.1715 16.1535 26.5418 16.6613L21.8496 20.4141C21.2737 20.8761 20.5568 21.127 19.8184 21.125H13.8125C13.597 21.125 13.3903 21.0394 13.238 20.887C13.0856 20.7347 13 20.528 13 20.3125C13 20.097 13.0856 19.8903 13.238 19.738C13.3903 19.5856 13.597 19.5 13.8125 19.5H17.7882C18.5956 19.5 19.3477 18.9465 19.4766 18.1492C19.4925 18.0577 19.5004 17.9649 19.5 17.872C19.4992 17.4415 19.3276 17.029 19.023 16.7249C18.7183 16.4208 18.3054 16.25 17.875 16.25H9.75C8.37972 16.2504 7.05121 16.7217 5.98711 17.585L3.62578 19.5H0.8125C0.597012 19.5 0.390349 19.5856 0.237976 19.738C0.0856024 19.8903 0 20.097 0 20.3125L0 25.1875C0 25.403 0.0856024 25.6097 0.237976 25.762C0.390349 25.9144 0.597012 26 0.8125 26H18.9297C19.6679 26.0006 20.3843 25.7498 20.961 25.2891L28.6406 19.1445C28.8254 18.9968 28.9756 18.8105 29.0809 18.5986C29.1861 18.3868 29.2439 18.1545 29.2501 17.918C29.2563 17.6816 29.2107 17.4466 29.1167 17.2295C29.0227 17.0125 28.8819 16.8185 28.7051 16.6613Z" fill="#848E9C"/>
<path d="M21.6176 4.50215C21.2223 4.17745 20.7265 3.99998 20.2148 4C19.7025 3.99901 19.2059 4.17657 18.8104 4.50215C18.5282 4.73327 18.3075 5.03058 18.1681 5.36763C18.0286 5.70467 17.9747 6.07097 18.011 6.43391C18.0474 6.79686 18.173 7.14517 18.3765 7.44783C18.5801 7.75049 18.8554 7.99811 19.1778 8.16863C19.1858 8.19413 19.1938 8.21964 19.2034 8.24833C19.2383 8.34511 19.286 8.43678 19.3452 8.52093C19.3902 8.58434 19.4568 8.62913 19.5325 8.64686C19.5739 8.65696 19.6169 8.65877 19.659 8.6522C19.7011 8.64564 19.7415 8.63082 19.7779 8.6086C19.8143 8.58639 19.8459 8.55721 19.8709 8.52274C19.896 8.48827 19.914 8.44919 19.9239 8.40775C19.9463 8.30735 19.9557 8.20447 19.9518 8.10168C19.9492 8.00293 19.9386 7.90456 19.9199 7.80756C19.9089 7.74226 19.882 7.68067 19.8416 7.62826C19.8011 7.57584 19.7484 7.53421 19.688 7.50707H19.6752C19.3813 7.37865 19.14 7.15369 18.9913 6.86942C18.9046 6.69392 18.8559 6.50207 18.8485 6.30644C18.8412 6.11081 18.8752 5.91583 18.9485 5.7343C19.0218 5.55277 19.1327 5.38879 19.2738 5.25312C19.415 5.11746 19.5832 5.01317 19.7675 4.9471C19.9518 4.88104 20.1479 4.85469 20.3431 4.86978C20.5383 4.88488 20.7281 4.94108 20.9 5.03469C21.0719 5.12831 21.2221 5.25723 21.3407 5.41298C21.4593 5.56874 21.5436 5.74781 21.5882 5.93845C21.6573 6.25449 21.6154 6.5847 21.4694 6.87341C21.321 7.16398 21.0797 7.39658 20.7839 7.53417H20.7783L20.7425 7.5517C20.7305 7.55808 20.7194 7.56525 20.7082 7.57243L20.6827 7.59235C20.6718 7.6013 20.6614 7.61088 20.6516 7.62105C20.624 7.64861 20.6008 7.68035 20.5831 7.7151L20.5719 7.73583L20.5663 7.74938L20.552 7.77807C20.5457 7.79367 20.5404 7.80964 20.536 7.82589C20.5249 7.87106 20.5164 7.91683 20.5105 7.96299C20.5034 8.04269 20.5002 8.10965 20.4978 8.1766L20.4922 8.55759C20.4922 8.68114 20.4882 8.80389 20.4866 8.92584C20.483 9.05332 20.4523 9.17857 20.3966 9.29328C20.3579 9.36869 20.3397 9.4529 20.3437 9.53754C20.3477 9.62218 20.3738 9.70429 20.4194 9.77572C20.465 9.84714 20.5285 9.90539 20.6035 9.94468C20.6786 9.98396 20.7627 10.0029 20.8473 9.99964C20.932 9.99637 21.0143 9.97099 21.0861 9.92603C21.158 9.88107 21.2168 9.81809 21.2567 9.74336C21.2966 9.66863 21.3163 9.58475 21.3138 9.50005C21.3112 9.41536 21.2866 9.33281 21.2422 9.2606C21.1781 9.15613 21.1401 9.03775 21.1314 8.91547C21.1251 8.7991 21.1203 8.68353 21.1243 8.56955C21.1258 8.45871 21.1356 8.34813 21.1538 8.23877C21.1577 8.21486 21.1625 8.19254 21.1673 8.17102C21.5893 7.97396 21.9364 7.64609 22.1573 7.23607C22.3989 6.78864 22.4772 6.27103 22.3788 5.77214C22.2803 5.27325 22.0112 4.82421 21.6176 4.50215Z" fill="#848E9C"/>
<path d="M20.782 6.7835L20.2193 6.22077L19.6558 5.65725L19.6103 5.61182C19.4546 5.77437 19.3687 5.99145 19.3711 6.21655C19.3736 6.44165 19.464 6.65685 19.6232 6.81603C19.7824 6.9752 19.9976 7.06569 20.2227 7.06811C20.4478 7.07052 20.6649 6.98466 20.8274 6.82893L20.782 6.7835Z" fill="#848E9C"/>
<circle cx="20" cy="7" r="5.25" stroke="#848E9C" stroke-width="1.5"/>
</g>
<defs>
<clipPath id="clip0">
<rect width="29.25" height="26" fill="white"/>
</clipPath>
</defs>
</svg>
