<?xml version="1.0" encoding="utf-8"?>
<!-- Generator: Adobe Illustrator 24.1.2, SVG Export Plug-In . SVG Version: 6.00 Build 0)  -->
<svg version="1.1" id="Layer_1" xmlns="http://www.w3.org/2000/svg" xmlns:xlink="http://www.w3.org/1999/xlink" x="0px" y="0px"
	 viewBox="0 0 120 120" style="enable-background:new 0 0 120 120;" xml:space="preserve">
<style type="text/css">
	.st0{fill:#8b2030;}
	.st1{fill:#FFFFFF;}
</style>
<path class="st0" d="M120,60c0,33.1-26.9,60-60,60S0,93.1,0,60C0,26.9,26.9,0,60,0S120,26.9,120,60"/>
<path class="st1" d="M51.1,91.4c1-0.9,4.1-4,7.3-7.2c-0.1,2.7-0.1,5.3-0.1,7.3c-8,2.7-26.6,9.4-27.3,9.7c-0.6,0.3-1,0.7-1.2,1.3
	c-0.4,1.2,0.2,2.5,1.4,3c0.4,0.1,0.7,0.2,1.1,0.1c0.1,0,0.2,0,0.3-0.1c3.5-0.7,28.3-6.4,31.2-7.2c1.2-0.3,2.3-1.4,2.7-2.7
	c0-0.1,0-0.1,0.1-0.2c0.5-1.7,3.6-19.7,4-23.1c0-0.2,0-0.3,0.1-0.5c0.2-3.2-2.2-6-5.5-6.3c-1.8-0.1-3.6,0.6-4.7,1.9
	c-3.5,4-9.9,12.1-13.1,16.3c-7-2.6-21.8-7.5-23.1-7.9c-1-0.3-2.1,0.1-2.6,1c-0.5,1-0.2,2.2,0.9,2.8c2,1.1,23.8,12,24.6,12.3
	C48.5,92.6,50,92.3,51.1,91.4"/>
<path class="st1" d="M57.1,42.8c3.4,0.4,6.4-2.1,6.7-5.4c0.4-3.4-2.1-6.4-5.4-6.7c-3.4-0.4-6.4,2.1-6.7,5.4
	C51.3,39.5,53.7,42.5,57.1,42.8"/>
<path class="st1" d="M80.9,23.5c3.4,0.4,6.4-2.1,6.7-5.4c0.4-3.4-2.1-6.4-5.4-6.7c-3.4-0.4-6.4,2.1-6.7,5.4
	C75.1,20.1,77.5,23.1,80.9,23.5"/>
<path class="st1" d="M92.7,27c0.5-0.6,0.6-1.4,0.2-2.1c-0.5-0.8-1.6-1.1-2.4-0.6c0,0-0.1,0.1-0.1,0.1c-2.2,1.6-10,7.4-14.1,10.6
	c-1.7,0.9-8.2,4.8-12,7.2c0.2,0.2,0.5,0.3,0.7,0.5c2.1,1.5,3.8,3.8,5,6.5c3-2.8,9.1-8.9,10.2-10c0,0,0.1-0.1,0.1-0.1
	c1.4-1.3,10.2-10,12.3-12L92.7,27"/>
<path class="st1" d="M58,56.1c3-0.5,5-3.3,4.5-6.2c-0.5-2.9-3.3-4.9-6.2-4.3c-0.3,0.1-0.6,0.1-0.9,0.2c-1.8,0.6-6.2,2.4-10.1,3.9
	c1.6-5.5,3.5-12.1,4.1-14.4c0.2-0.8,0-1.6-0.6-2c-0.8-0.6-2-0.5-2.7,0.3c-0.1,0.2-0.2,0.3-0.3,0.5c0,0-6.1,13.7-8.6,20.1
	c-0.1,0.2-0.1,0.4-0.2,0.6c-0.3,1.7,0.8,3.4,2.6,3.7c0.3,0.1,0.7,0.1,1,0C42.2,58.2,56.5,56.3,58,56.1"/>
</svg>
