<svg width="25" height="24" viewBox="0 0 25 24" fill="none" xmlns="http://www.w3.org/2000/svg">
<path d="M23.25 19.5V20.75C23.25 22.125 22.125 23.25 20.75 23.25H3.25C1.8625 23.25 0.75 22.125 0.75 20.75V3.25C0.75 1.875 1.8625 0.75 3.25 0.75H20.75C22.125 0.75 23.25 1.875 23.25 3.25V4.5H12C10.6125 4.5 9.5 5.625 9.5 7V17C9.5 18.375 10.6125 19.5 12 19.5H23.25ZM12 17H24.5V7H12V17ZM17 13.875C15.9625 13.875 15.125 13.0375 15.125 12C15.125 10.9625 15.9625 10.125 17 10.125C18.0375 10.125 18.875 10.9625 18.875 12C18.875 13.0375 18.0375 13.875 17 13.875Z" fill="#04045A"/>
</svg>
