<?xml version="1.0" encoding="utf-8"?>
<!-- Generator: Adobe Illustrator 16.0.0, SVG Export Plug-In . SVG Version: 6.00 game 0)  -->
<!DOCTYPE svg PUBLIC "-//W3C//DTD SVG 1.1//EN" "http://www.w3.org/Graphics/SVG/1.1/DTD/svg11.dtd">
<svg version="1.1" id="Layer_1" xmlns="http://www.w3.org/2000/svg" xmlns:xlink="http://www.w3.org/1999/xlink" x="0px" y="0px"
	 width="512px" height="512px" viewBox="0 0 512 512" enable-background="new 0 0 512 512" xml:space="preserve">
<path fill="#FFFFFF" d="M378.856,220.17l-1.389-1.544l-5.386-5.988c-69.253-70.373-168.323-67.643-231.193,0l-6.47,7.193
	l-1.963,2.184c-0.179,0.2-0.341,0.411-0.501,0.622c-0.646,1.194-1.013,2.561-1.013,4.014c0,2.234,0.874,4.261,2.291,5.771
	l0.384,0.385l27.723,27.723l2.107,2.108c0.166,0.113,0.337,0.22,0.51,0.321c0.947,0.468,2.12,0.87,3.289,1.127
	c0.336,0.041,0.676,0.067,1.023,0.067c1.851,0,3.557-0.603,4.949-1.612l1.344-1.215l4.253-3.844
	c48.31-47.784,106.433-50.7,150.968-1.182l3.949,4.253l1.834,1.974c1.434,1.125,3.236,1.801,5.2,1.801
	c2.245,0,4.28-0.881,5.793-2.311l0.345-0.344l29.586-29.586l2.533-2.535c0.849-1.317,1.348-2.881,1.348-4.565
	C380.371,223.195,379.809,221.537,378.856,220.17z"/>
<path fill="#FFFFFF" d="M442.063,281.312l-32.939-33.714c-2.416-2.471-5.864-3.021-7.703-1.227l-71.043,69.416l-70.372-68.781
	c-0.861-0.842-2.095-1.136-3.41-0.957c-1.184-0.068-2.285,0.244-3.081,1.021l-71.472,69.835l-71.456-69.84
	c-1.836-1.794-5.283-1.249-7.702,1.223l-32.946,33.708c-2.414,2.469-2.884,5.932-1.046,7.729l94.017,91.892l14.312,14.647
	c0.954,0.977,2.069,1.641,3.185,1.99c0.518,0.196,1.08,0.289,1.674,0.272c0.208,0.002,0.406-0.015,0.605-0.038
	c0.059-0.008,0.116-0.016,0.175-0.025c0.257-0.04,0.501-0.101,0.738-0.186c1.138-0.344,2.28-1.011,3.257-2.008l14.536-14.871
	l55.397-54.127l35.834,35.025l32.504,33.269c2.414,2.471,5.865,3.021,7.703,1.225l110.279-107.751
	C444.946,287.246,444.478,283.788,442.063,281.312z"/>
<g id="Page-1_2_">
	<g id="walletconnect-logo-alt_2_">
		<path id="WalletConnect_2_" fill="#5A91CC" d="M151.293,211.893c57.639-56.432,151.089-56.432,208.727,0l6.938,6.793
			c2.881,2.821,2.881,7.396,0,10.218l-23.73,23.233c-1.44,1.411-3.776,1.411-5.219,0l-9.545-9.347
			c-40.209-39.37-105.402-39.37-145.613,0l-10.222,10.01c-1.44,1.41-3.777,1.41-5.218,0l-23.73-23.233
			c-2.883-2.822-2.883-7.397,0-10.219L151.293,211.893z M409.094,259.942l21.121,20.678c2.881,2.82,2.881,7.396,0,10.218
			l-95.229,93.238c-2.882,2.822-7.554,2.822-10.435,0l0,0l-67.589-66.174c-0.721-0.706-1.888-0.706-2.608,0l0,0l-67.587,66.174
			c-2.882,2.822-7.554,2.822-10.437,0l0,0L81.1,290.835c-2.883-2.82-2.883-7.395,0-10.216l21.119-20.678
			c2.881-2.822,7.555-2.822,10.436,0l67.59,66.175c0.72,0.705,1.889,0.705,2.609,0l0,0l67.584-66.175
			c2.883-2.822,7.555-2.822,10.436,0l0,0l67.59,66.175c0.72,0.705,1.889,0.705,2.607,0l67.588-66.174
			C401.541,257.121,406.213,257.121,409.094,259.942z"/>
	</g>
</g>
</svg>
