<?xml version="1.0" encoding="utf-8"?>
<!-- Generator: Adobe Illustrator 16.0.0, SVG Export Plug-In . SVG Version: 6.00 game 0)  -->
<!DOCTYPE svg PUBLIC "-//W3C//DTD SVG 1.1//EN" "http://www.w3.org/Graphics/SVG/1.1/DTD/svg11.dtd">
<svg version="1.1" id="Layer_1" xmlns="http://www.w3.org/2000/svg" xmlns:xlink="http://www.w3.org/1999/xlink" x="0px" y="0px"
	 width="512px" height="512px" viewBox="0 0 512 512" enable-background="new 0 0 512 512" xml:space="preserve">
<circle fill="#FFFFFF" cx="256" cy="256" r="175"/>
<g>
	<path fill="#4364AE" d="M255.8,92.757c-90.156,0-163.243,73.086-163.243,163.243S165.644,419.243,255.8,419.243
		S419.043,346.157,419.043,256S345.956,92.757,255.8,92.757z M255.8,351.666c-52.836,0-95.666-42.831-95.666-95.666
		s42.83-95.666,95.666-95.666s95.666,42.831,95.666,95.666S308.636,351.666,255.8,351.666z"/>
	<path fill="#4364AE" d="M281.998,226.116h-52.396c-2.618,0-4.739,2.121-4.739,4.738v50.289c0,2.618,2.121,4.74,4.739,4.74h52.396
		c2.617,0,4.739-2.122,4.739-4.74v-50.289C286.737,228.237,284.615,226.116,281.998,226.116z"/>
</g>
</svg>
