<svg width="17" height="17" viewBox="0 0 17 17" fill="none" xmlns="http://www.w3.org/2000/svg">
<path d="M7.63398 1.5C8.01888 0.833332 8.98113 0.833333 9.36603 1.5L14.9952 11.25C15.3801 11.9167 14.899 12.75 14.1292 12.75H2.87083C2.10103 12.75 1.61991 11.9167 2.00481 11.25L7.63398 1.5Z" fill="#F7B91A"/>
<path d="M8.59961 4C8.79492 4 8.96094 4.06999 9.09766 4.20996C9.23763 4.34668 9.30762 4.51269 9.30762 4.70801C9.30762 4.90332 9.23763 5.07096 9.09766 5.21094C8.96094 5.34766 8.79492 5.41602 8.59961 5.41602C8.4043 5.41602 8.23666 5.34766 8.09668 5.21094C7.95996 5.07096 7.8916 4.90332 7.8916 4.70801C7.8916 4.51269 7.95996 4.34668 8.09668 4.20996C8.23666 4.06999 8.4043 4 8.59961 4ZM7.96973 11.2559V7.02734H7.30078V6.02637H9.20508V11.2559H7.96973Z" fill="#FFFFFF"/>
</svg>
