<svg width="20" height="20" viewBox="0 0 20 20" fill="none" xmlns="http://www.w3.org/2000/svg">
<circle cx="10.0715" cy="9.99922" r="9.8" fill="white"/>
<mask id="path-2-inside-1_1788_5317" fill="white">
<path fill-rule="evenodd" clip-rule="evenodd" d="M14.993 8.94829V8.97336V8.99844V9.02351V9.04858C14.9791 9.06112 14.9791 9.06112 14.9791 9.07366C14.9651 9.08619 14.9651 9.08619 14.9651 9.09873C14.9651 9.105 14.9616 9.10813 14.9581 9.11127C14.9547 9.1144 14.9512 9.11754 14.9512 9.12381C14.9512 9.13007 14.9477 9.13321 14.9442 9.13634C14.9407 9.13948 14.9372 9.14261 14.9372 9.14888L14.9233 9.16142L14.8953 9.18649L14.8814 9.19903C14.8744 9.19903 14.8709 9.20216 14.8674 9.20529C14.8639 9.20843 14.8604 9.21156 14.8535 9.21156L9.66148 11.932H9.64752C9.64054 11.932 9.63357 11.9352 9.62659 11.9383C9.61961 11.9414 9.61263 11.9446 9.60565 11.9446H9.59169C9.56378 11.9571 9.54982 11.9571 9.52191 11.9571C9.50795 11.9571 9.49749 11.954 9.48702 11.9508C9.47655 11.9477 9.46608 11.9446 9.45212 11.9446H9.43817C9.42421 11.9446 9.41025 11.9446 9.3963 11.932H9.38234L4.17639 9.19903C4.17639 9.18649 4.16244 9.18649 4.16244 9.18649L4.12057 9.14888L4.10661 9.13634C4.09265 9.12381 4.0787 9.11127 4.06474 9.08619V9.07366C4.05078 9.06112 4.05078 9.06112 4.05078 9.04858V8.94829C4.06474 8.93575 4.06474 8.93575 4.06474 8.92322V8.89814C4.06474 8.89188 4.06823 8.88874 4.07172 8.88561C4.07521 8.88247 4.0787 8.87934 4.0787 8.87307C4.09265 8.87307 4.09265 8.86053 4.09265 8.86053L9.28464 1.11283C9.2986 1.08776 9.31256 1.07522 9.32651 1.06268H9.34047C9.34745 1.05642 9.35443 1.05328 9.3614 1.05015C9.36838 1.04701 9.37536 1.04388 9.38234 1.03761C9.38234 1.02507 9.3963 1.02507 9.3963 1.02507C9.40328 1.02507 9.41025 1.02194 9.41723 1.01881C9.42421 1.01567 9.43119 1.01254 9.43817 1.01254H9.45212C9.48004 1 9.494 1 9.52191 1C9.54982 1 9.56378 1 9.59169 1.02507H9.60565C9.61961 1.02507 9.63357 1.02507 9.64752 1.03761C9.64752 1.05015 9.66148 1.05015 9.66148 1.05015C9.67544 1.05015 9.68939 1.06268 9.70335 1.07522H9.71731C9.72429 1.08149 9.73126 1.09089 9.73824 1.10029C9.74522 1.1097 9.7522 1.1191 9.75918 1.12537L14.9512 8.86053C14.9651 8.86053 14.9651 8.87307 14.9651 8.87307C14.9651 8.87934 14.9686 8.88247 14.9721 8.88561C14.9756 8.88874 14.9791 8.89188 14.9791 8.89814V8.92322C14.993 8.93575 14.993 8.93575 14.993 8.94829ZM5.73421 7.9395L9.10105 6.47855V2.82618L5.73421 7.9395ZM9.10105 10.8614V7.57427L5.48316 8.89814L9.10105 10.8614ZM13.4137 8.92322L9.94277 7.57427V10.8614L13.4137 8.92322ZM9.94277 2.82618V6.47855L13.3096 7.9395L9.94277 2.82618ZM9.52054 13.0314L14.5708 10.8401C14.6233 10.8838 14.7599 10.8541 14.865 10.8312C14.9566 10.8113 15.0243 10.7966 14.9917 10.8401L9.72846 18.0396L9.71444 18.0513L9.68641 18.0746L9.67239 18.0863C9.67239 18.098 9.65838 18.1097 9.64436 18.1097C9.64436 18.1214 9.63035 18.1214 9.63035 18.1214C9.62334 18.1214 9.61633 18.1243 9.60933 18.1272C9.60232 18.1301 9.59531 18.133 9.5883 18.133H9.57429C9.56027 18.1447 9.54626 18.1447 9.51823 18.1447C9.51122 18.1447 9.50071 18.1418 9.49019 18.1389C9.47968 18.136 9.46917 18.133 9.46216 18.133H9.44815C9.44114 18.133 9.43413 18.1301 9.42713 18.1272C9.42012 18.1243 9.41311 18.1214 9.4061 18.1214C9.4061 18.1097 9.39209 18.1097 9.39209 18.1097C9.39209 18.1025 9.38673 18.0997 9.37934 18.0959C9.37476 18.0935 9.36941 18.0908 9.36406 18.0863L9.35004 18.0746C9.34138 18.0746 9.33807 18.0702 9.3335 18.064C9.33067 18.0602 9.32736 18.0557 9.32201 18.0513L9.30799 18.0396L4.04943 11.2053C4.01923 10.9554 3.99157 10.9135 4.00239 10.8878C4.00765 10.8754 4.02195 10.8667 4.04942 10.84C4.32863 10.1903 4.62952 10.5456 4.79544 10.7416C4.8363 10.7898 4.86897 10.8284 4.89112 10.8399L9.52054 13.0314ZM9.09968 16.3185L9.0997 14.1272L5.73285 11.9358L9.09968 16.3185ZM9.94141 14.1272L9.94139 16.3185L13.3083 11.9358L9.94141 14.1272Z"/>
</mask>
<path fill-rule="evenodd" clip-rule="evenodd" d="M14.993 8.94829V8.97336V8.99844V9.02351V9.04858C14.9791 9.06112 14.9791 9.06112 14.9791 9.07366C14.9651 9.08619 14.9651 9.08619 14.9651 9.09873C14.9651 9.105 14.9616 9.10813 14.9581 9.11127C14.9547 9.1144 14.9512 9.11754 14.9512 9.12381C14.9512 9.13007 14.9477 9.13321 14.9442 9.13634C14.9407 9.13948 14.9372 9.14261 14.9372 9.14888L14.9233 9.16142L14.8953 9.18649L14.8814 9.19903C14.8744 9.19903 14.8709 9.20216 14.8674 9.20529C14.8639 9.20843 14.8604 9.21156 14.8535 9.21156L9.66148 11.932H9.64752C9.64054 11.932 9.63357 11.9352 9.62659 11.9383C9.61961 11.9414 9.61263 11.9446 9.60565 11.9446H9.59169C9.56378 11.9571 9.54982 11.9571 9.52191 11.9571C9.50795 11.9571 9.49749 11.954 9.48702 11.9508C9.47655 11.9477 9.46608 11.9446 9.45212 11.9446H9.43817C9.42421 11.9446 9.41025 11.9446 9.3963 11.932H9.38234L4.17639 9.19903C4.17639 9.18649 4.16244 9.18649 4.16244 9.18649L4.12057 9.14888L4.10661 9.13634C4.09265 9.12381 4.0787 9.11127 4.06474 9.08619V9.07366C4.05078 9.06112 4.05078 9.06112 4.05078 9.04858V8.94829C4.06474 8.93575 4.06474 8.93575 4.06474 8.92322V8.89814C4.06474 8.89188 4.06823 8.88874 4.07172 8.88561C4.07521 8.88247 4.0787 8.87934 4.0787 8.87307C4.09265 8.87307 4.09265 8.86053 4.09265 8.86053L9.28464 1.11283C9.2986 1.08776 9.31256 1.07522 9.32651 1.06268H9.34047C9.34745 1.05642 9.35443 1.05328 9.3614 1.05015C9.36838 1.04701 9.37536 1.04388 9.38234 1.03761C9.38234 1.02507 9.3963 1.02507 9.3963 1.02507C9.40328 1.02507 9.41025 1.02194 9.41723 1.01881C9.42421 1.01567 9.43119 1.01254 9.43817 1.01254H9.45212C9.48004 1 9.494 1 9.52191 1C9.54982 1 9.56378 1 9.59169 1.02507H9.60565C9.61961 1.02507 9.63357 1.02507 9.64752 1.03761C9.64752 1.05015 9.66148 1.05015 9.66148 1.05015C9.67544 1.05015 9.68939 1.06268 9.70335 1.07522H9.71731C9.72429 1.08149 9.73126 1.09089 9.73824 1.10029C9.74522 1.1097 9.7522 1.1191 9.75918 1.12537L14.9512 8.86053C14.9651 8.86053 14.9651 8.87307 14.9651 8.87307C14.9651 8.87934 14.9686 8.88247 14.9721 8.88561C14.9756 8.88874 14.9791 8.89188 14.9791 8.89814V8.92322C14.993 8.93575 14.993 8.93575 14.993 8.94829ZM5.73421 7.9395L9.10105 6.47855V2.82618L5.73421 7.9395ZM9.10105 10.8614V7.57427L5.48316 8.89814L9.10105 10.8614ZM13.4137 8.92322L9.94277 7.57427V10.8614L13.4137 8.92322ZM9.94277 2.82618V6.47855L13.3096 7.9395L9.94277 2.82618ZM9.52054 13.0314L14.5708 10.8401C14.6233 10.8838 14.7599 10.8541 14.865 10.8312C14.9566 10.8113 15.0243 10.7966 14.9917 10.8401L9.72846 18.0396L9.71444 18.0513L9.68641 18.0746L9.67239 18.0863C9.67239 18.098 9.65838 18.1097 9.64436 18.1097C9.64436 18.1214 9.63035 18.1214 9.63035 18.1214C9.62334 18.1214 9.61633 18.1243 9.60933 18.1272C9.60232 18.1301 9.59531 18.133 9.5883 18.133H9.57429C9.56027 18.1447 9.54626 18.1447 9.51823 18.1447C9.51122 18.1447 9.50071 18.1418 9.49019 18.1389C9.47968 18.136 9.46917 18.133 9.46216 18.133H9.44815C9.44114 18.133 9.43413 18.1301 9.42713 18.1272C9.42012 18.1243 9.41311 18.1214 9.4061 18.1214C9.4061 18.1097 9.39209 18.1097 9.39209 18.1097C9.39209 18.1025 9.38673 18.0997 9.37934 18.0959C9.37476 18.0935 9.36941 18.0908 9.36406 18.0863L9.35004 18.0746C9.34138 18.0746 9.33807 18.0702 9.3335 18.064C9.33067 18.0602 9.32736 18.0557 9.32201 18.0513L9.30799 18.0396L4.04943 11.2053C4.01923 10.9554 3.99157 10.9135 4.00239 10.8878C4.00765 10.8754 4.02195 10.8667 4.04942 10.84C4.32863 10.1903 4.62952 10.5456 4.79544 10.7416C4.8363 10.7898 4.86897 10.8284 4.89112 10.8399L9.52054 13.0314ZM9.09968 16.3185L9.0997 14.1272L5.73285 11.9358L9.09968 16.3185ZM9.94141 14.1272L9.94139 16.3185L13.3083 11.9358L9.94141 14.1272Z" fill="white"/>
<path d="M14.993 9.04858L15.4812 9.59203L15.7235 9.37435V9.04858H14.993ZM14.9791 9.07366L15.4672 9.6171L15.7096 9.39942V9.07366H14.9791ZM14.9581 9.11127L15.4463 9.65468L15.4464 9.65461L14.9581 9.11127ZM14.9442 9.13634L14.4561 8.59286L14.456 8.59293L14.9442 9.13634ZM14.9372 9.14888L15.4253 9.69234L15.6677 9.47466V9.14888H14.9372ZM14.9233 9.16142L14.4352 8.61795L14.4351 8.61799L14.9233 9.16142ZM14.8953 9.18649L14.4072 8.64306L14.4072 8.64308L14.8953 9.18649ZM14.8814 9.19903V9.9295H15.1613L15.3695 9.74244L14.8814 9.19903ZM14.8535 9.21156V8.48109H14.6737L14.5144 8.56453L14.8535 9.21156ZM9.66148 11.932V12.6625H9.84126L10.0005 12.5791L9.66148 11.932ZM9.62659 11.9383L9.92583 12.6047L9.9259 12.6046L9.62659 11.9383ZM9.59169 11.9446V11.2141H9.43519L9.29242 11.2782L9.59169 11.9446ZM9.3963 11.932L9.88443 11.3886L9.6762 11.2016H9.3963V11.932ZM9.38234 11.932L9.0428 12.5788L9.20225 12.6625H9.38234V11.932ZM4.17639 9.19903H3.44592V9.64056L3.83686 9.84579L4.17639 9.19903ZM4.16244 9.18649L3.67431 9.72992L3.88254 9.91696H4.16244V9.18649ZM4.12057 9.14888L3.63242 9.6923L3.63243 9.69231L4.12057 9.14888ZM4.10661 9.13634L4.59475 8.59292L4.59473 8.5929L4.10661 9.13634ZM4.06474 9.08619H3.33426V9.2758L3.42648 9.44147L4.06474 9.08619ZM4.06474 9.07366H4.79521V8.74791L4.55288 8.53023L4.06474 9.07366ZM4.05078 8.94829L3.56265 8.40486L3.32031 8.62254V8.94829H4.05078ZM4.07172 8.88561L3.58362 8.34214L3.58358 8.34218L4.07172 8.88561ZM4.0787 8.87307V8.1426H3.34822V8.87307H4.0787ZM4.09265 8.86053L3.48583 8.45388L3.36218 8.63841L3.36218 8.86053L4.09265 8.86053ZM9.28464 1.11283L9.89146 1.51948L9.90824 1.49444L9.9229 1.4681L9.28464 1.11283ZM9.32651 1.06268V0.33221H9.04661L8.83838 0.519251L9.32651 1.06268ZM9.34047 1.06268V1.79316H9.62037L9.8286 1.60612L9.34047 1.06268ZM9.3614 1.05015L9.06213 0.383793L9.06211 0.3838L9.3614 1.05015ZM9.38234 1.03761L9.87047 1.58104L10.1128 1.36336V1.03761H9.38234ZM9.3963 1.02507V0.2946V1.02507ZM9.45212 1.01254V1.74301H9.60863L9.7514 1.67889L9.45212 1.01254ZM9.59169 1.02507L9.10356 1.56851L9.31179 1.75555H9.59169V1.02507ZM9.64752 1.03761H10.378V0.711858L10.1357 0.494178L9.64752 1.03761ZM9.70335 1.07522L9.21522 1.61865L9.42345 1.80569H9.70335V1.07522ZM9.71731 1.07522L10.2054 0.531788L9.99721 0.344747H9.71731V1.07522ZM9.75918 1.12537L10.3657 0.718264L10.315 0.642728L10.2473 0.581935L9.75918 1.12537ZM14.9512 8.86053L14.3447 9.26764L14.5617 9.59101H14.9512V8.86053ZM14.9651 8.87307L14.2346 8.87301V8.87307H14.9651ZM14.9721 8.88561L15.4602 8.34216L15.4602 8.34213L14.9721 8.88561ZM14.9791 8.92322H14.2486V9.24897L14.491 9.46665L14.9791 8.92322ZM9.10105 6.47855L9.39183 7.14866L9.83153 6.95787V6.47855H9.10105ZM5.73421 7.9395L5.12411 7.53779L3.77573 9.58561L6.02498 8.60961L5.73421 7.9395ZM9.10105 2.82618H9.83153V0.388513L8.49096 2.42447L9.10105 2.82618ZM9.10105 7.57427H9.83153V6.52912L8.85003 6.88828L9.10105 7.57427ZM9.10105 10.8614L8.75265 11.5034L9.83153 12.0889V10.8614H9.10105ZM5.48316 8.89814L5.23214 8.21215L3.71233 8.76829L5.13476 9.54018L5.48316 8.89814ZM9.94277 7.57427L10.2074 6.8934L9.21229 6.50667V7.57427H9.94277ZM13.4137 8.92322L13.7698 9.561L15.1247 8.80446L13.6783 8.24236L13.4137 8.92322ZM9.94277 10.8614H9.21229V12.1059L10.2989 11.4992L9.94277 10.8614ZM9.94277 6.47855H9.21229V6.95787L9.65199 7.14866L9.94277 6.47855ZM9.94277 2.82618L10.5529 2.42447L9.21229 0.388513V2.82618H9.94277ZM13.3096 7.9395L13.0188 8.60961L15.2681 9.58561L13.9197 7.53779L13.3096 7.9395ZM14.5708 10.8401L15.0385 10.2789L14.6929 9.99083L14.2801 10.1699L14.5708 10.8401ZM9.52054 13.0314L9.208 13.6916L9.50741 13.8334L9.8113 13.7015L9.52054 13.0314ZM14.865 10.8312L15.0203 11.545L15.0203 11.545L14.865 10.8312ZM14.9917 10.8401L14.4072 10.4018L14.402 10.409L14.9917 10.8401ZM9.72846 18.0396L10.1962 18.6007L10.2652 18.5432L10.3182 18.4707L9.72846 18.0396ZM9.71444 18.0513L10.1821 18.6124L10.1822 18.6124L9.71444 18.0513ZM9.68641 18.0746L10.1541 18.6358L10.1541 18.6357L9.68641 18.0746ZM9.67239 18.0863L9.20472 17.5252L8.94192 17.7442V18.0863H9.67239ZM9.64436 18.1097V17.3792H8.91389V18.1097H9.64436ZM9.60933 18.1272L9.8903 18.8015L9.89046 18.8014L9.60933 18.1272ZM9.57429 18.133V17.4026H9.3098L9.10662 17.5719L9.57429 18.133ZM9.42713 18.1272L9.14601 18.8014L9.14616 18.8015L9.42713 18.1272ZM9.4061 18.1214H8.67563V18.8518H9.4061V18.1214ZM9.39209 18.1097H8.66161V18.8401L9.39199 18.8402L9.39209 18.1097ZM9.37934 18.0959L9.0448 18.7453L9.04495 18.7453L9.37934 18.0959ZM9.36406 18.0863L9.83179 17.5252L9.83172 17.5252L9.36406 18.0863ZM9.35004 18.0746L9.81771 17.5135L9.61453 17.3442H9.35004V18.0746ZM9.3335 18.064L8.74673 18.4991L8.74675 18.4991L9.3335 18.064ZM9.32201 18.0513L9.78977 17.4902L9.78972 17.4902L9.32201 18.0513ZM9.30799 18.0396L8.72906 18.485L8.77828 18.549L8.84028 18.6007L9.30799 18.0396ZM4.04943 11.2053L3.32423 11.2929L3.34827 11.4919L3.4705 11.6507L4.04943 11.2053ZM4.00239 10.8878L4.67549 11.1716L4.67549 11.1716L4.00239 10.8878ZM4.04942 10.84L4.55867 11.3637L4.66306 11.2622L4.72055 11.1284L4.04942 10.84ZM4.79544 10.7416L4.23799 11.2136L4.238 11.2136L4.79544 10.7416ZM4.89112 10.8399L4.55363 11.4878L4.56599 11.4942L4.57858 11.5002L4.89112 10.8399ZM9.0997 14.1272L9.83018 14.1272L9.83018 13.7311L9.49818 13.515L9.0997 14.1272ZM9.09968 16.3185L8.5204 16.7635L9.83014 18.4685L9.83016 16.3185L9.09968 16.3185ZM5.73285 11.9358L6.13132 11.3236L5.15357 12.3808L5.73285 11.9358ZM9.94139 16.3185L9.21092 16.3185L9.2109 18.4685L10.5207 16.7635L9.94139 16.3185ZM9.94141 14.1272L9.54293 13.515L9.21094 13.7311L9.21094 14.1272L9.94141 14.1272ZM13.3083 11.9358L13.8875 12.3808L12.9098 11.3236L13.3083 11.9358ZM15.7235 8.97336V8.94829H14.2626V8.97336H15.7235ZM15.7235 8.99844V8.97336H14.2626V8.99844H15.7235ZM15.7235 9.02351V8.99844H14.2626V9.02351H15.7235ZM15.7235 9.04858V9.02351H14.2626V9.04858H15.7235ZM15.7096 9.07366C15.7096 9.05549 15.7106 9.0996 15.7053 9.147C15.6974 9.21762 15.6758 9.31447 15.6191 9.41635C15.571 9.50287 15.5164 9.55772 15.501 9.57305C15.4861 9.58787 15.4718 9.60044 15.4812 9.59203L14.5049 8.50514C14.504 8.50599 14.4995 8.51003 14.4949 8.51425C14.4903 8.51841 14.4805 8.52744 14.4689 8.53901C14.4497 8.55826 14.3924 8.61624 14.3425 8.70589C14.2841 8.81091 14.2616 8.91089 14.2533 8.98543C14.2498 9.0167 14.2491 9.04171 14.2488 9.05325C14.2487 9.05966 14.2486 9.06489 14.2486 9.06786C14.2486 9.07068 14.2486 9.07329 14.2486 9.07366H15.7096ZM15.6956 9.09873C15.6956 9.08059 15.6966 9.12471 15.6913 9.17214C15.6835 9.24279 15.6618 9.33965 15.6051 9.44152C15.5569 9.52801 15.5023 9.58285 15.487 9.59816C15.4722 9.61296 15.4578 9.62552 15.4672 9.6171L14.491 8.53021C14.49 8.53106 14.4855 8.53509 14.4809 8.53931C14.4764 8.54347 14.4666 8.55248 14.455 8.56405C14.4358 8.58327 14.3785 8.64124 14.3286 8.73087C14.2702 8.83587 14.2477 8.93586 14.2394 9.01043C14.2359 9.04171 14.2351 9.06674 14.2349 9.07829C14.2347 9.0847 14.2347 9.08994 14.2347 9.09292C14.2346 9.09575 14.2346 9.09836 14.2346 9.09873H15.6956ZM15.4464 9.65461C15.4464 9.65458 15.4477 9.65343 15.4491 9.65213C15.4507 9.65072 15.4531 9.6485 15.4561 9.64578C15.4618 9.64046 15.471 9.63178 15.4819 9.6207C15.5034 9.59878 15.5367 9.56226 15.5704 9.51188C15.6475 9.39645 15.6956 9.25405 15.6956 9.09873H14.2346C14.2346 8.94968 14.281 8.81199 14.3555 8.70047C14.4136 8.61344 14.4833 8.55586 14.4699 8.56793L15.4464 9.65461ZM15.6816 9.12381C15.6816 9.27288 15.6353 9.41057 15.5608 9.52209C15.5026 9.60914 15.4329 9.66671 15.4463 9.65468L14.47 8.56786C14.4699 8.5679 14.4687 8.56904 14.4672 8.57035C14.4657 8.57176 14.4632 8.57398 14.4603 8.5767C14.4545 8.58203 14.4453 8.59072 14.4345 8.6018C14.4129 8.62373 14.3796 8.66025 14.3459 8.71063C14.2688 8.82607 14.2207 8.96847 14.2207 9.12381H15.6816ZM15.4323 9.67982C15.4323 9.67978 15.4336 9.67864 15.435 9.67733C15.4366 9.67591 15.439 9.67369 15.442 9.67097C15.4477 9.66563 15.457 9.65694 15.4678 9.64586C15.4894 9.62392 15.5227 9.58739 15.5564 9.537C15.6335 9.42154 15.6816 9.27913 15.6816 9.12381H14.2207C14.2207 8.97475 14.2671 8.83704 14.3416 8.7255C14.3997 8.63842 14.4695 8.58085 14.4561 8.59286L15.4323 9.67982ZM15.6677 9.14888C15.6677 9.29795 15.6213 9.43565 15.5468 9.54717C15.4887 9.63421 15.419 9.69178 15.4323 9.67975L14.456 8.59293C14.456 8.59297 14.4547 8.59412 14.4533 8.59542C14.4517 8.59684 14.4493 8.59905 14.4463 8.60178C14.4406 8.60711 14.4314 8.61579 14.4205 8.62687C14.399 8.6488 14.3656 8.68532 14.332 8.7357C14.2549 8.85114 14.2067 8.99354 14.2067 9.14888H15.6677ZM15.4114 9.70488L15.4253 9.69234L14.4491 8.60542L14.4352 8.61795L15.4114 9.70488ZM15.3835 9.72992L15.4114 9.70484L14.4351 8.61799L14.4072 8.64306L15.3835 9.72992ZM15.3695 9.74244L15.3835 9.7299L14.4072 8.64308L14.3932 8.65561L15.3695 9.74244ZM15.3555 9.74877C15.3658 9.7395 15.3059 9.79752 15.2197 9.84401C15.1147 9.90058 14.9981 9.9295 14.8814 9.9295V8.46855C14.583 8.46855 14.4008 8.64256 14.3793 8.66181L15.3555 9.74877ZM14.8535 9.94204C15.1518 9.94204 15.334 9.76805 15.3555 9.74877L14.3793 8.66181C14.369 8.67109 14.4289 8.61306 14.5152 8.56657C14.6202 8.51 14.7367 8.48109 14.8535 8.48109V9.94204ZM10.0005 12.5791L15.1925 9.85859L14.5144 8.56453L9.32245 11.285L10.0005 12.5791ZM9.64752 12.6625H9.66148V11.2016H9.64752V12.6625ZM9.9259 12.6046C9.93575 12.6002 9.90639 12.6141 9.87027 12.6262C9.83098 12.6395 9.75149 12.6625 9.64752 12.6625V11.2016C9.53658 11.2016 9.45011 11.2262 9.40384 11.2417C9.37953 11.2499 9.36009 11.2578 9.34832 11.2628C9.33728 11.2674 9.32764 11.2718 9.32727 11.272L9.9259 12.6046ZM9.60565 12.675C9.71659 12.675 9.80306 12.6504 9.84931 12.6349C9.87362 12.6267 9.89305 12.6188 9.90481 12.6138C9.91584 12.6092 9.92547 12.6048 9.92583 12.6047L9.32735 11.2719C9.31746 11.2764 9.34682 11.2625 9.38292 11.2504C9.4222 11.2371 9.50169 11.2141 9.60565 11.2141V12.675ZM9.59169 12.675H9.60565V11.2141H9.59169V12.675ZM9.52191 12.6876C9.52285 12.6876 9.59053 12.6891 9.66494 12.678C9.75611 12.6643 9.83143 12.6377 9.89097 12.6109L9.29242 11.2782C9.32404 11.264 9.37843 11.2436 9.44866 11.2331C9.47912 11.2286 9.50313 11.2273 9.51545 11.2269C9.52484 11.2265 9.53212 11.2266 9.52191 11.2266V12.6876ZM9.27752 12.6506C9.28925 12.6541 9.39069 12.6876 9.52191 12.6876V11.2266C9.62521 11.2266 9.70572 11.2538 9.69651 11.2511L9.27752 12.6506ZM9.45212 12.675C9.3488 12.675 9.26826 12.6479 9.27752 12.6506L9.69651 11.2511C9.68484 11.2476 9.58336 11.2141 9.45212 11.2141V12.675ZM9.43817 12.675H9.45212V11.2141H9.43817V12.675ZM8.90816 12.4755C9.14705 12.69 9.42326 12.675 9.43817 12.675V11.2141C9.41875 11.2141 9.49253 11.2112 9.57731 11.2303C9.68387 11.2542 9.79208 11.3057 9.88443 11.3886L8.90816 12.4755ZM9.38234 12.6625H9.3963V11.2016H9.38234V12.6625ZM3.83686 9.84579L9.0428 12.5788L9.72188 11.2853L4.51593 8.55226L3.83686 9.84579ZM4.16244 9.18649C4.16244 9.91696 4.16212 9.91696 4.1618 9.91696C4.16169 9.91696 4.16137 9.91696 4.16115 9.91696C4.16072 9.91696 4.16029 9.91696 4.15986 9.91696C4.15899 9.91695 4.15812 9.91695 4.15724 9.91694C4.15548 9.91693 4.1537 9.91691 4.1519 9.91689C4.14829 9.91683 4.14456 9.91675 4.14073 9.91664C4.1331 9.91641 4.12492 9.91604 4.11627 9.91549C4.0992 9.91439 4.07902 9.91249 4.05647 9.90911C4.01507 9.90291 3.94752 9.88916 3.87016 9.85442C3.79189 9.81927 3.68019 9.75182 3.58765 9.62714C3.48873 9.49386 3.44592 9.34093 3.44592 9.19903H4.90687C4.90687 9.05085 4.86231 8.89322 4.76077 8.75641C4.66562 8.62821 4.55043 8.55841 4.46867 8.5217C4.38782 8.48539 4.31678 8.47085 4.27276 8.46426C4.24891 8.46069 4.22764 8.45868 4.20981 8.45754C4.20077 8.45696 4.1923 8.45658 4.18445 8.45635C4.18052 8.45623 4.17672 8.45615 4.17306 8.45609C4.17123 8.45607 4.16942 8.45605 4.16765 8.45603C4.16677 8.45603 4.16589 8.45602 4.16502 8.45602C4.16459 8.45602 4.16416 8.45602 4.16372 8.45602C4.16351 8.45602 4.16319 8.45602 4.16308 8.45602C4.16276 8.45602 4.16244 8.45602 4.16244 9.18649ZM3.63243 9.69231L3.67431 9.72992L4.65057 8.64306L4.6087 8.60545L3.63243 9.69231ZM3.61847 9.67976L3.63242 9.6923L4.60871 8.60546L4.59475 8.59292L3.61847 9.67976ZM3.42648 9.44147C3.50152 9.57627 3.59064 9.65478 3.61849 9.67979L4.59473 8.5929C4.58524 8.58438 4.60736 8.60342 4.63117 8.63014C4.65895 8.66134 4.68332 8.69557 4.703 8.73092L3.42648 9.44147ZM3.33426 9.07366V9.08619H4.79521V9.07366H3.33426ZM3.32031 9.04858C3.32031 9.04896 3.32031 9.05157 3.32032 9.05439C3.32033 9.05736 3.32037 9.0626 3.32052 9.06901C3.32077 9.08056 3.32153 9.10558 3.32501 9.13685C3.33331 9.21141 3.35582 9.31139 3.41426 9.41639C3.46415 9.50602 3.52137 9.56399 3.54064 9.58323C3.55223 9.5948 3.562 9.60382 3.56655 9.60798C3.57115 9.6122 3.57565 9.61623 3.5766 9.61709L4.55288 8.53023C4.54352 8.52183 4.55786 8.53439 4.5727 8.5492C4.58805 8.56452 4.64264 8.61936 4.69079 8.70586C4.74749 8.80772 4.76912 8.90457 4.77699 8.9752C4.78227 9.02263 4.78126 9.06674 4.78126 9.04858H3.32031ZM3.32031 8.94829V9.04858H4.78126V8.94829H3.32031ZM3.33426 8.92322C3.33426 8.94137 3.33325 8.89726 3.33853 8.84983C3.3464 8.7792 3.36804 8.68234 3.42474 8.58047C3.47289 8.49397 3.5275 8.43913 3.54284 8.42381C3.55768 8.40901 3.57202 8.39644 3.56265 8.40486L4.53891 9.49173C4.53986 9.49088 4.54436 9.48684 4.54896 9.48263C4.5535 9.47847 4.56327 9.46945 4.57486 9.45788C4.59413 9.43865 4.65135 9.38068 4.70124 9.29104C4.75969 9.18604 4.78221 9.08605 4.79051 9.01149C4.79399 8.98021 4.79475 8.95519 4.795 8.94364C4.79515 8.93723 4.79519 8.932 4.7952 8.92903C4.79521 8.9262 4.79521 8.92359 4.79521 8.92322H3.33426ZM3.33426 8.89814V8.92322H4.79521V8.89814H3.33426ZM3.58358 8.34218C3.58354 8.34222 3.58226 8.34336 3.58082 8.34467C3.57926 8.34608 3.57682 8.3483 3.57388 8.35102C3.56813 8.35635 3.55892 8.36504 3.54804 8.37612C3.5265 8.39805 3.49315 8.43458 3.45949 8.48496C3.38238 8.60041 3.33426 8.74282 3.33426 8.89814H4.79521C4.79521 9.0472 4.74885 9.18491 4.67435 9.29644C4.6162 9.38349 4.54646 9.44107 4.55986 9.42903L3.58358 8.34218ZM3.34822 8.87307C3.34822 8.72401 3.39459 8.58631 3.46909 8.47477C3.52725 8.3877 3.597 8.33013 3.58362 8.34214L4.55981 9.42907C4.55986 9.42903 4.56113 9.42789 4.56258 9.42658C4.56414 9.42516 4.56658 9.42295 4.56952 9.42022C4.57528 9.41489 4.58449 9.4062 4.59537 9.39512C4.61692 9.37318 4.65028 9.33665 4.68394 9.28626C4.76106 9.1708 4.80917 9.0284 4.80917 8.87307H3.34822ZM4.09265 8.86053C3.36218 8.86053 3.36218 8.86013 3.36218 8.85974C3.36218 8.8596 3.36218 8.8592 3.36218 8.85894C3.36218 8.8584 3.36218 8.85787 3.36219 8.85733C3.36219 8.85626 3.3622 8.85518 3.36221 8.85409C3.36223 8.85191 3.36226 8.8497 3.3623 8.84745C3.36238 8.84297 3.3625 8.83834 3.36268 8.83358C3.36303 8.82409 3.36359 8.81392 3.36445 8.80316C3.36614 8.7819 3.36908 8.75695 3.37422 8.72922C3.38394 8.67683 3.40461 8.59783 3.45266 8.51152C3.50307 8.42095 3.58553 8.31983 3.71148 8.24441C3.83847 8.16837 3.96939 8.1426 4.0787 8.1426V9.60354C4.19498 9.60354 4.33113 9.57621 4.46204 9.49781C4.59193 9.42004 4.677 9.31578 4.72916 9.22209C4.77895 9.13264 4.80049 9.05051 4.81065 8.99576C4.81601 8.96687 4.81905 8.94093 4.8208 8.91898C4.82168 8.90788 4.82226 8.89745 4.82262 8.88777C4.8228 8.88292 4.82293 8.87822 4.82301 8.87369C4.82305 8.87142 4.82308 8.86919 4.8231 8.867C4.82311 8.8659 4.82311 8.86482 4.82312 8.86374C4.82312 8.8632 4.82312 8.86267 4.82312 8.86213C4.82312 8.86187 4.82313 8.86147 4.82313 8.86133C4.82313 8.86093 4.82313 8.86054 4.09265 8.86053ZM8.67782 0.706182L3.48583 8.45388L4.69947 9.26718L9.89146 1.51948L8.67782 0.706182ZM8.83838 0.519251C8.81056 0.544241 8.72142 0.622748 8.64638 0.757559L9.9229 1.4681C9.90322 1.50346 9.87885 1.53769 9.85107 1.56889C9.82727 1.59561 9.80515 1.61465 9.81464 1.60612L8.83838 0.519251ZM9.34047 0.33221H9.32651V1.79316H9.34047V0.33221ZM9.06211 0.3838C9.05734 0.385946 8.95343 0.42845 8.85234 0.519251L9.8286 1.60612C9.74147 1.68438 9.65152 1.72062 9.66069 1.71649L9.06211 0.3838ZM8.89421 0.494178C8.98134 0.41591 9.0713 0.379677 9.06213 0.383793L9.66068 1.7165C9.66547 1.71435 9.76938 1.67185 9.87047 1.58104L8.89421 0.494178ZM9.3963 1.02507C9.3963 0.2946 9.39598 0.2946 9.39565 0.2946C9.39555 0.2946 9.39523 0.2946 9.39501 0.294601C9.39458 0.294602 9.39415 0.294603 9.39371 0.294604C9.39284 0.294607 9.39196 0.294612 9.39108 0.294618C9.38931 0.294631 9.38751 0.29465 9.38567 0.294677C9.38201 0.29473 9.37821 0.294812 9.37428 0.29493C9.36644 0.295165 9.35796 0.295543 9.34893 0.296123C9.33109 0.297267 9.30982 0.299274 9.28596 0.302846C9.24195 0.309436 9.1709 0.323974 9.09005 0.360286C9.00829 0.397006 8.8931 0.46681 8.79795 0.595014C8.69641 0.73182 8.65187 0.889445 8.65187 1.03761H10.1128C10.1128 1.17951 10.07 1.33243 9.97109 1.46571C9.87855 1.59039 9.76686 1.65784 9.68859 1.69299C9.61123 1.72774 9.54367 1.74149 9.50227 1.74769C9.47972 1.75107 9.45954 1.75298 9.44247 1.75407C9.43381 1.75463 9.42564 1.75499 9.418 1.75522C9.41417 1.75534 9.41045 1.75542 9.40684 1.75547C9.40503 1.7555 9.40325 1.75552 9.40149 1.75553C9.40062 1.75554 9.39974 1.75554 9.39888 1.75554C9.39844 1.75554 9.39801 1.75555 9.39758 1.75555C9.39737 1.75555 9.39705 1.75555 9.39694 1.75555C9.39662 1.75555 9.3963 1.75555 9.3963 1.02507ZM9.11796 0.352451C9.10811 0.356875 9.13747 0.343023 9.17359 0.330858C9.21287 0.317625 9.29235 0.2946 9.3963 0.2946V1.75555C9.50722 1.75555 9.59368 1.73095 9.63994 1.71537C9.66425 1.70718 9.68369 1.69929 9.69546 1.69434C9.7065 1.68969 9.71613 1.68533 9.71651 1.68516L9.11796 0.352451ZM9.43817 0.282063C9.32724 0.282063 9.24078 0.306656 9.19452 0.322239C9.17021 0.330427 9.15077 0.338316 9.139 0.343272C9.12797 0.347918 9.11833 0.352283 9.11796 0.352451L9.71651 1.68516C9.72636 1.68074 9.697 1.69459 9.66088 1.70675C9.62159 1.71999 9.54211 1.74301 9.43817 1.74301V0.282063ZM9.45212 0.282063H9.43817V1.74301H9.45212V0.282063ZM9.52191 0.269526C9.52096 0.269526 9.45328 0.268004 9.37887 0.279144C9.2877 0.292792 9.21238 0.319446 9.15285 0.346183L9.7514 1.67889C9.71978 1.69309 9.6654 1.71348 9.59517 1.72399C9.56471 1.72855 9.54071 1.72981 9.52838 1.73023C9.51899 1.73056 9.51171 1.73047 9.52191 1.73047V0.269526ZM10.0798 0.481641C10.0224 0.430054 9.91873 0.348985 9.76633 0.303355C9.69498 0.281991 9.63339 0.274583 9.59102 0.271655C9.55532 0.269189 9.52247 0.269526 9.52191 0.269526V1.73047C9.55975 1.73047 9.45802 1.73607 9.34728 1.70291C9.21581 1.66355 9.13308 1.59502 9.10356 1.56851L10.0798 0.481641ZM9.60565 0.2946H9.59169V1.75555H9.60565V0.2946ZM10.1357 0.494178C9.89675 0.279584 9.62051 0.2946 9.60565 0.2946V1.75555C9.62509 1.75555 9.55131 1.7584 9.46654 1.73937C9.35997 1.71543 9.25175 1.664 9.15939 1.58104L10.1357 0.494178ZM9.66148 1.05015C9.66148 0.319673 9.6618 0.319673 9.66212 0.319673C9.66223 0.319674 9.66255 0.319674 9.66277 0.319674C9.6632 0.319675 9.66363 0.319676 9.66406 0.319678C9.66493 0.319681 9.6658 0.319685 9.66668 0.319692C9.66843 0.319704 9.67021 0.319723 9.67202 0.319749C9.67563 0.319802 9.67936 0.319883 9.68318 0.319997C9.69082 0.320226 9.699 0.320592 9.70765 0.321148C9.72473 0.322243 9.7449 0.324152 9.76745 0.327528C9.80885 0.333727 9.87642 0.347482 9.95378 0.382229C10.0321 0.417384 10.1437 0.48484 10.2363 0.609519C10.3352 0.742799 10.378 0.895719 10.378 1.03761H8.91705C8.91705 1.18577 8.96159 1.34339 9.06313 1.4802C9.15828 1.6084 9.27346 1.67821 9.35522 1.71493C9.43607 1.75124 9.50712 1.76578 9.55114 1.77237C9.575 1.77595 9.59627 1.77795 9.61411 1.7791C9.62314 1.77968 9.63162 1.78006 9.63946 1.78029C9.64339 1.78041 9.64719 1.78049 9.65086 1.78054C9.65269 1.78057 9.65449 1.78059 9.65626 1.7806C9.65715 1.78061 9.65802 1.78061 9.65889 1.78062C9.65933 1.78062 9.65976 1.78062 9.66019 1.78062C9.66041 1.78062 9.66073 1.78062 9.66084 1.78062C9.66116 1.78062 9.66148 1.78062 9.66148 1.05015ZM10.1915 0.531788C10.1896 0.530115 10.1774 0.519023 10.1634 0.507261C10.149 0.495164 10.1236 0.474461 10.0905 0.452156C10.0372 0.416222 9.8831 0.319673 9.66148 0.319673V1.78062C9.45381 1.78062 9.31367 1.69034 9.27429 1.66381C9.23099 1.63464 9.19881 1.60392 9.21522 1.61865L10.1915 0.531788ZM9.71731 0.344747H9.70335V1.80569H9.71731V0.344747ZM10.3248 0.664965C10.3232 0.662817 10.3104 0.645348 10.2955 0.626925C10.2812 0.609326 10.2501 0.571903 10.2054 0.531788L9.22918 1.61865C9.20898 1.60052 9.19355 1.58444 9.18321 1.57312C9.17271 1.56163 9.16483 1.55213 9.16005 1.54624C9.15212 1.53643 9.14627 1.52837 9.15166 1.53562L10.3248 0.664965ZM10.2473 0.581935C10.2675 0.600071 10.2829 0.616146 10.2933 0.627467C10.3038 0.638958 10.3117 0.648455 10.3164 0.654349C10.3244 0.664153 10.3302 0.67222 10.3248 0.664965L9.15166 1.53562C9.15325 1.53777 9.16607 1.55524 9.18099 1.57366C9.19524 1.59126 9.22638 1.62868 9.27105 1.6688L10.2473 0.581935ZM15.5577 8.45343L10.3657 0.718264L9.15266 1.53247L14.3447 9.26764L15.5577 8.45343ZM14.9651 8.87307C15.6956 8.87313 15.6956 8.87273 15.6956 8.87233C15.6956 8.8722 15.6956 8.8718 15.6956 8.87153C15.6956 8.871 15.6956 8.87046 15.6956 8.86992C15.6956 8.86884 15.6956 8.86776 15.6956 8.86666C15.6955 8.86447 15.6955 8.86224 15.6955 8.85998C15.6954 8.85544 15.6953 8.85075 15.6951 8.8459C15.6947 8.83622 15.6942 8.82578 15.6933 8.81468C15.6915 8.79274 15.6885 8.7668 15.6831 8.7379C15.673 8.68315 15.6514 8.60102 15.6017 8.51155C15.5495 8.41785 15.4644 8.31358 15.3345 8.2358C15.2036 8.1574 15.0674 8.13006 14.9512 8.13006V9.59101C14.8419 9.59101 14.7109 9.56524 14.5839 9.48919C14.458 9.41376 14.3755 9.31262 14.3251 9.22205C14.2771 9.13572 14.2564 9.05672 14.2467 9.00432C14.2415 8.9766 14.2386 8.95164 14.2369 8.93038C14.2361 8.91962 14.2355 8.90946 14.2351 8.89996C14.235 8.8952 14.2348 8.89058 14.2348 8.88609C14.2347 8.88385 14.2347 8.88164 14.2347 8.87946C14.2347 8.87837 14.2347 8.87729 14.2347 8.87621C14.2347 8.87568 14.2347 8.87514 14.2347 8.87461C14.2347 8.87434 14.2346 8.87394 14.2346 8.87381C14.2346 8.87341 14.2346 8.87301 14.9651 8.87307ZM15.4602 8.34213C15.4468 8.33011 15.5165 8.38768 15.5747 8.47475C15.6492 8.58629 15.6956 8.724 15.6956 8.87307H14.2346C14.2346 9.02841 14.2828 9.17082 14.3599 9.28628C14.3936 9.33667 14.4269 9.3732 14.4485 9.39513C14.4593 9.40622 14.4686 9.4149 14.4743 9.42024C14.4773 9.42296 14.4797 9.42518 14.4813 9.42659C14.4827 9.4279 14.484 9.42905 14.484 9.42909L15.4602 8.34213ZM15.7096 8.89814C15.7096 8.7428 15.6614 8.60039 15.5843 8.48494C15.5507 8.43456 15.5173 8.39803 15.4958 8.3761C15.4849 8.36502 15.4757 8.35633 15.4699 8.35101C15.467 8.34828 15.4645 8.34607 15.463 8.34465C15.4615 8.34334 15.4603 8.3422 15.4602 8.34216L14.484 9.42905C14.4974 9.44109 14.4276 9.38351 14.3695 9.29646C14.295 9.18493 14.2486 9.04722 14.2486 8.89814H15.7096ZM15.7096 8.92322V8.89814H14.2486V8.92322H15.7096ZM15.7235 8.94829C15.7235 8.94792 15.7235 8.94531 15.7235 8.94249C15.7235 8.93952 15.7234 8.93429 15.7233 8.92788C15.723 8.91634 15.7223 8.89132 15.7188 8.86005C15.7105 8.78551 15.688 8.68552 15.6296 8.58051C15.5797 8.49086 15.5224 8.43288 15.5032 8.41364C15.4916 8.40207 15.4818 8.39305 15.4773 8.38888C15.4727 8.38467 15.4682 8.38063 15.4672 8.37978L14.491 9.46665C14.5003 9.47506 14.486 9.4625 14.4711 9.44768C14.4558 9.43236 14.4012 9.37751 14.353 9.291C14.2963 9.18912 14.2747 9.09226 14.2668 9.02164C14.2616 8.97423 14.2626 8.93012 14.2626 8.94829H15.7235ZM8.81028 5.80845L5.44343 7.2694L6.02498 8.60961L9.39183 7.14866L8.81028 5.80845ZM8.37058 2.82618V6.47855H9.83153V2.82618H8.37058ZM6.3443 8.34122L9.71115 3.2279L8.49096 2.42447L5.12411 7.53779L6.3443 8.34122ZM8.37058 7.57427V10.8614H9.83153V7.57427H8.37058ZM5.73418 9.58413L9.35207 8.26025L8.85003 6.88828L5.23214 8.21215L5.73418 9.58413ZM9.44945 10.2194L5.83156 8.25611L5.13476 9.54018L8.75265 11.5034L9.44945 10.2194ZM9.67815 8.25513L13.1491 9.60408L13.6783 8.24236L10.2074 6.8934L9.67815 8.25513ZM10.6732 10.8614V7.57427H9.21229V10.8614H10.6732ZM13.0576 8.28544L9.58663 10.2236L10.2989 11.4992L13.7698 9.561L13.0576 8.28544ZM10.6732 6.47855V2.82618H9.21229V6.47855H10.6732ZM13.6004 7.2694L10.2335 5.80845L9.65199 7.14866L13.0188 8.60961L13.6004 7.2694ZM9.33267 3.2279L12.6995 8.34122L13.9197 7.53779L10.5529 2.42447L9.33267 3.2279ZM14.2801 10.1699L9.22977 12.3613L9.8113 13.7015L14.8616 11.5102L14.2801 10.1699ZM14.7098 10.1174C14.6467 10.1311 14.6329 10.133 14.633 10.133C14.6346 10.1329 14.6698 10.1293 14.7237 10.1367C14.7705 10.1431 14.9046 10.1673 15.0385 10.2789L14.1031 11.4012C14.2633 11.5347 14.4342 11.5715 14.5246 11.584C14.6221 11.5974 14.7079 11.5931 14.7633 11.5881C14.8712 11.5785 14.9782 11.5541 15.0203 11.545L14.7098 10.1174ZM15.5761 11.2783C15.6021 11.2436 15.6635 11.1575 15.7003 11.0321C15.7414 10.892 15.7666 10.634 15.5912 10.3905C15.4387 10.1788 15.2309 10.1186 15.1531 10.1008C15.0626 10.0801 14.9874 10.0807 14.953 10.0817C14.8434 10.085 14.719 10.1154 14.7098 10.1174L15.0203 11.545C15.1027 11.5271 15.0579 11.5401 14.9969 11.542C14.9746 11.5427 14.9096 11.5438 14.8271 11.5249C14.7572 11.5089 14.5552 11.4518 14.4059 11.2445C14.2336 11.0054 14.2595 10.7533 14.2984 10.6207C14.3331 10.5027 14.3894 10.4256 14.4073 10.4018L15.5761 11.2783ZM10.3182 18.4707L15.5814 11.2712L14.402 10.409L9.13876 17.6085L10.3182 18.4707ZM10.1822 18.6124L10.1962 18.6007L9.26074 17.4785L9.24673 17.4902L10.1822 18.6124ZM10.1541 18.6357L10.1821 18.6124L9.24674 17.4902L9.21871 17.5135L10.1541 18.6357ZM10.1401 18.6474L10.1541 18.6358L9.21873 17.5135L9.20472 17.5252L10.1401 18.6474ZM9.64436 18.8402C9.84585 18.8402 10.0141 18.7612 10.1313 18.6635C10.2387 18.574 10.4029 18.3807 10.4029 18.0863H8.94192C8.94192 17.8036 9.09909 17.622 9.19596 17.5412C9.30266 17.4523 9.4569 17.3792 9.64436 17.3792V18.8402ZM9.63035 18.1214C9.63035 18.8518 9.63065 18.8518 9.63094 18.8518C9.63104 18.8518 9.63134 18.8518 9.63154 18.8518C9.63194 18.8518 9.63234 18.8518 9.63275 18.8518C9.63355 18.8518 9.63437 18.8518 9.63519 18.8518C9.63683 18.8518 9.63851 18.8518 9.64021 18.8518C9.64361 18.8517 9.64714 18.8517 9.65079 18.8515C9.65808 18.8513 9.66596 18.851 9.67436 18.8505C9.69095 18.8495 9.71077 18.8478 9.73305 18.8447C9.77382 18.839 9.84099 18.8264 9.91836 18.7942C9.99504 18.7622 10.1124 18.6981 10.2126 18.5727C10.322 18.4359 10.3748 18.2711 10.3748 18.1097H8.91389C8.91389 17.9541 8.96493 17.7937 9.07172 17.6602C9.16937 17.5381 9.28317 17.4761 9.35636 17.4456C9.43021 17.4149 9.49388 17.403 9.53203 17.3976C9.55299 17.3947 9.57172 17.3931 9.58754 17.3922C9.59556 17.3917 9.60314 17.3914 9.61022 17.3912C9.61377 17.3911 9.61722 17.391 9.62057 17.391C9.62224 17.3909 9.6239 17.3909 9.62553 17.3909C9.62634 17.3909 9.62715 17.3909 9.62795 17.3909C9.62836 17.3909 9.62876 17.3909 9.62915 17.3909C9.62935 17.3909 9.62965 17.3909 9.62975 17.3909C9.63005 17.3909 9.63035 17.3909 9.63035 18.1214ZM9.89046 18.8014C9.89988 18.7975 9.872 18.8097 9.83779 18.8204C9.80044 18.8321 9.7265 18.8518 9.63035 18.8518V17.3909C9.52719 17.3909 9.44624 17.4121 9.40188 17.426C9.3787 17.4332 9.36008 17.4402 9.34868 17.4447C9.338 17.4489 9.32866 17.4528 9.32819 17.453L9.89046 18.8014ZM9.5883 18.8635C9.69146 18.8635 9.7724 18.8423 9.81672 18.8284C9.83989 18.8212 9.8585 18.8142 9.86988 18.8097C9.88054 18.8056 9.88986 18.8017 9.8903 18.8015L9.32835 17.4529C9.31887 17.4569 9.34674 17.4447 9.38091 17.434C9.41822 17.4223 9.49216 17.4026 9.5883 17.4026V18.8635ZM9.57429 18.8635H9.5883V17.4026H9.57429V18.8635ZM9.51823 18.8752C9.52178 18.8752 9.54107 18.8753 9.56118 18.8746C9.58225 18.8739 9.62263 18.872 9.67161 18.8638C9.79355 18.8435 9.92439 18.7922 10.042 18.6942L9.10662 17.5719C9.15098 17.5349 9.205 17.4996 9.26869 17.4715C9.33134 17.4438 9.3881 17.4299 9.43141 17.4227C9.47163 17.416 9.50237 17.4148 9.5125 17.4145C9.52166 17.4142 9.52869 17.4142 9.51823 17.4142V18.8752ZM9.29468 18.8427C9.29591 18.843 9.31868 18.8495 9.34362 18.8552C9.36071 18.8591 9.43014 18.8752 9.51823 18.8752V17.4142C9.5642 17.4142 9.6004 17.4188 9.62044 17.4218C9.64188 17.425 9.65844 17.4285 9.66743 17.4306C9.68273 17.4341 9.69499 17.4376 9.68571 17.4351L9.29468 18.8427ZM9.46216 18.8635C9.41619 18.8635 9.37999 18.859 9.35995 18.856C9.33851 18.8528 9.32195 18.8492 9.31296 18.8472C9.29766 18.8437 9.2854 18.8401 9.29468 18.8427L9.68571 17.4351C9.68447 17.4347 9.66171 17.4282 9.63677 17.4226C9.61968 17.4187 9.55025 17.4026 9.46216 17.4026V18.8635ZM9.44815 18.8635H9.46216V17.4026H9.44815V18.8635ZM9.14616 18.8015C9.1466 18.8017 9.15593 18.8056 9.16658 18.8097C9.17796 18.8142 9.19657 18.8212 9.21974 18.8284C9.26406 18.8423 9.34499 18.8635 9.44815 18.8635V17.4026C9.5443 17.4026 9.61823 17.4223 9.65554 17.434C9.6897 17.4447 9.71757 17.4569 9.70809 17.4529L9.14616 18.8015ZM9.4061 18.8518C9.30995 18.8518 9.23601 18.8321 9.19867 18.8204C9.16446 18.8097 9.13659 18.7975 9.14601 18.8014L9.70824 17.453C9.70777 17.4528 9.69844 17.4489 9.68776 17.4447C9.67636 17.4402 9.65774 17.4332 9.63456 17.426C9.59021 17.4121 9.50926 17.3909 9.4061 17.3909V18.8518ZM9.39209 18.1097C9.39199 18.8402 9.39169 18.8402 9.39139 18.8401C9.39129 18.8401 9.39099 18.8401 9.39079 18.8401C9.3904 18.8401 9.39 18.8401 9.38959 18.8401C9.38879 18.8401 9.38798 18.8401 9.38717 18.8401C9.38554 18.8401 9.38388 18.8401 9.38221 18.8401C9.37886 18.84 9.37541 18.84 9.37186 18.8399C9.36478 18.8397 9.3572 18.8394 9.34918 18.8389C9.33336 18.8379 9.31464 18.8363 9.29368 18.8334C9.25554 18.8281 9.19188 18.8162 9.11804 18.7854C9.04487 18.7549 8.93109 18.6929 8.83346 18.5709C8.72668 18.4374 8.67563 18.2769 8.67563 18.1214H10.1366C10.1366 17.96 10.0838 17.7951 9.97436 17.6583C9.87411 17.533 9.75682 17.4689 9.68015 17.4369C9.6028 17.4047 9.53565 17.392 9.49487 17.3863C9.4726 17.3832 9.45278 17.3815 9.4362 17.3805C9.42779 17.38 9.41991 17.3797 9.41263 17.3795C9.40898 17.3794 9.40545 17.3793 9.40204 17.3793C9.40034 17.3792 9.39867 17.3792 9.39703 17.3792C9.39621 17.3792 9.39539 17.3792 9.39459 17.3792C9.39418 17.3792 9.39378 17.3792 9.39338 17.3792C9.39318 17.3792 9.39288 17.3792 9.39278 17.3792C9.39248 17.3792 9.39219 17.3792 9.39209 18.1097ZM9.04495 18.7453C9.05121 18.7486 9.03364 18.7398 9.01413 18.7283C8.99361 18.7162 8.94707 18.6877 8.89571 18.6407C8.84079 18.5905 8.77636 18.5158 8.72828 18.412C8.67949 18.3066 8.66161 18.2017 8.66161 18.1097H10.1226C10.1226 17.8816 10.0201 17.6892 9.88127 17.5623C9.82764 17.5133 9.77837 17.4829 9.75477 17.469C9.74175 17.4613 9.73097 17.4555 9.72482 17.4522C9.71902 17.4492 9.71381 17.4465 9.71373 17.4464L9.04495 18.7453ZM8.89632 18.6474C8.97031 18.7091 9.04181 18.7437 9.0448 18.7453L9.71387 17.4465C9.70772 17.4434 9.76851 17.4725 9.83179 17.5252L8.89632 18.6474ZM8.88237 18.6358L8.89639 18.6475L9.83172 17.5252L9.81771 17.5135L8.88237 18.6358ZM8.74675 18.4991C8.74689 18.4993 8.74798 18.5008 8.7492 18.5024C8.7505 18.5041 8.75256 18.5069 8.75509 18.5102C8.75994 18.5165 8.76839 18.5274 8.77936 18.5403C8.80079 18.5657 8.84028 18.6092 8.89821 18.6532C9.03881 18.76 9.20045 18.8051 9.35004 18.8051V17.3442C9.41128 17.3442 9.48642 17.3522 9.56814 17.3785C9.65178 17.4054 9.72339 17.4453 9.78226 17.4901C9.87856 17.5633 9.93854 17.6536 9.92024 17.6289L8.74675 18.4991ZM8.85425 18.6123C8.78685 18.5561 8.74595 18.498 8.74673 18.4991L9.92026 17.6289C9.9154 17.6224 9.86788 17.5553 9.78977 17.4902L8.85425 18.6123ZM8.84028 18.6007L8.8543 18.6124L9.78972 17.4902L9.77571 17.4785L8.84028 18.6007ZM3.4705 11.6507L8.72906 18.485L9.88693 17.5941L4.62836 10.7598L3.4705 11.6507ZM3.3293 10.604C3.2495 10.7933 3.27014 10.9598 3.27701 11.0107C3.28307 11.0557 3.29499 11.1094 3.29534 11.1111C3.30149 11.1407 3.31214 11.1928 3.32423 11.2929L4.77463 11.1177C4.76576 11.0442 4.75674 10.9834 4.74808 10.9321C4.73934 10.8804 4.73142 10.8412 4.72572 10.8138C4.7224 10.7978 4.72175 10.7949 4.7208 10.7902C4.71989 10.7856 4.72242 10.7974 4.72485 10.8155C4.72719 10.8328 4.7327 10.8783 4.72948 10.9379C4.72778 10.9695 4.7236 11.0065 4.71477 11.0473C4.70583 11.0886 4.69289 11.1303 4.67549 11.1716L3.3293 10.604ZM3.54017 10.3163C3.54214 10.3144 3.54341 10.3133 3.54239 10.3142C3.54122 10.3152 3.54073 10.3157 3.53725 10.3188C3.53482 10.321 3.5292 10.326 3.52295 10.3317C3.51296 10.3409 3.48242 10.3691 3.44942 10.4082C3.41298 10.4515 3.36623 10.5164 3.3293 10.604L4.67549 11.1716C4.64119 11.253 4.59819 11.3122 4.56677 11.3494C4.53879 11.3827 4.51453 11.4046 4.5122 11.4068C4.50979 11.409 4.50835 11.4103 4.51046 11.4084C4.51152 11.4074 4.51594 11.4035 4.52005 11.3998C4.52961 11.3912 4.54297 11.379 4.55867 11.3637L3.54017 10.3163ZM5.35289 10.2695C5.31583 10.2257 5.23605 10.13 5.13893 10.0419C5.04819 9.95956 4.87801 9.82288 4.63897 9.76423C4.35295 9.69406 4.05397 9.75643 3.80944 9.94836C3.60119 10.1118 3.46962 10.3391 3.3783 10.5516L4.72055 11.1284C4.76883 11.0161 4.77957 11.0441 4.71145 11.0976C4.67071 11.1296 4.60641 11.1665 4.52019 11.1854C4.43361 11.2042 4.3538 11.1985 4.29085 11.1831C4.18268 11.1566 4.13629 11.1048 4.15735 11.1239C4.17204 11.1373 4.19209 11.1594 4.23799 11.2136L5.35289 10.2695ZM5.22861 10.1921C5.26581 10.2115 5.29411 10.2306 5.31247 10.244C5.33135 10.2577 5.34568 10.2698 5.35492 10.2779C5.37244 10.2933 5.38273 10.3044 5.38328 10.305C5.38466 10.3065 5.38314 10.3049 5.37695 10.2977C5.37079 10.2906 5.36368 10.2822 5.35289 10.2695L4.238 11.2136C4.25446 11.2331 4.28597 11.2706 4.31732 11.304C4.3306 11.3182 4.41967 11.418 4.55363 11.4878L5.22861 10.1921ZM9.83308 12.3712L5.20366 10.1797L4.57858 11.5002L9.208 13.6916L9.83308 12.3712ZM8.36923 14.1272L8.36921 16.3185L9.83016 16.3185L9.83018 14.1272L8.36923 14.1272ZM5.33437 12.548L8.70122 14.7394L9.49818 13.515L6.13132 11.3236L5.33437 12.548ZM9.67896 15.8735L6.31213 11.4908L5.15357 12.3808L8.5204 16.7635L9.67896 15.8735ZM10.6719 16.3185L10.6719 14.1272L9.21094 14.1272L9.21092 16.3185L10.6719 16.3185ZM12.729 11.4908L9.36212 15.8735L10.5207 16.7635L13.8875 12.3808L12.729 11.4908ZM10.3399 14.7394L13.7067 12.548L12.9098 11.3236L9.54293 13.515L10.3399 14.7394Z" fill="#04045A" mask="url(#path-2-inside-1_1788_5317)"/>
</svg>
