<svg width="20" height="20" viewBox="0 0 20 20" fill="none" xmlns="http://www.w3.org/2000/svg">
<circle cx="10.0715" cy="9.99922" r="9.8" fill="white"/>
<path d="M6.96253 13.552C6.37017 13.552 5.85041 13.4213 5.40324 13.16C4.96188 12.8986 4.61924 12.5328 4.37533 12.0624C4.13142 11.5861 4.00946 11.0286 4.00946 10.3898C4.00946 9.7452 4.13142 9.18769 4.37533 8.71729C4.61924 8.24689 4.96188 7.88392 5.40324 7.6284C5.8446 7.36707 6.36437 7.2364 6.96253 7.2364C7.56069 7.2364 8.08046 7.36707 8.52182 7.6284C8.96318 7.88392 9.30582 8.24689 9.54973 8.71729C9.79364 9.18769 9.9156 9.7423 9.9156 10.3811C9.9156 11.0257 9.79364 11.5861 9.54973 12.0624C9.30582 12.5328 8.96318 12.8986 8.52182 13.16C8.08046 13.4213 7.56069 13.552 6.96253 13.552ZM6.96253 12.5937C7.52585 12.5937 7.96431 12.3992 8.27791 12.0101C8.59151 11.621 8.74831 11.0809 8.74831 10.3898C8.74831 9.69293 8.59151 9.15284 8.27791 8.76955C7.97011 8.38627 7.53166 8.19462 6.96253 8.19462C6.39921 8.19462 5.96075 8.38627 5.64715 8.76955C5.33355 9.15284 5.17675 9.69293 5.17675 10.3898C5.17675 11.0809 5.33355 11.621 5.64715 12.0101C5.96075 12.3992 6.39921 12.5937 6.96253 12.5937ZM11.9118 13.5345C11.5401 13.5345 11.3543 13.3429 11.3543 12.9596V7.88973C11.3543 7.51225 11.543 7.32351 11.9205 7.32351H14.0199C14.6935 7.32351 15.2133 7.49192 15.5792 7.82875C15.945 8.16558 16.128 8.63598 16.128 9.23995C16.128 9.84393 15.945 10.3172 15.5792 10.6599C15.2133 10.9967 14.6935 11.1651 14.0199 11.1651H12.4693V12.9596C12.4693 13.3429 12.2835 13.5345 11.9118 13.5345ZM12.4693 10.2853H13.8457C14.6471 10.2853 15.0478 9.93684 15.0478 9.23995C15.0478 8.54887 14.6471 8.20333 13.8457 8.20333H12.4693V10.2853Z" fill="#04045A"/>
</svg>
