<svg width="44" height="44" viewBox="0 0 44 44" fill="none" xmlns="http://www.w3.org/2000/svg">
<circle cx="22" cy="22" r="21" stroke="black" stroke-width="2"/>
<path d="M22.35 25.475C21.7833 25.475 21.475 25.1583 21.425 24.525L20.7 15.325C20.6667 14.8083 20.8 14.375 21.1 14.025C21.4167 13.675 21.825 13.5 22.325 13.5C22.825 13.5 23.2333 13.675 23.55 14.025C23.8667 14.375 24 14.8083 23.95 15.325L23.25 24.525C23.2 25.1583 22.9 25.475 22.35 25.475ZM22.175 31C21.6917 31 21.3167 30.875 21.05 30.625C20.8 30.3583 20.675 29.9833 20.675 29.5V29.075C20.675 28.5917 20.8 28.225 21.05 27.975C21.3167 27.7083 21.6917 27.575 22.175 27.575H22.5C22.9833 27.575 23.35 27.7083 23.6 27.975C23.8667 28.225 24 28.5917 24 29.075V29.5C24 29.9833 23.8667 30.3583 23.6 30.625C23.35 30.875 22.9833 31 22.5 31H22.175Z" fill="black"/>
</svg>
