<svg width="44" height="44" viewBox="0 0 44 44" fill="none" xmlns="http://www.w3.org/2000/svg">
<path d="M23.45 29.475C23.45 29.9083 23.3083 30.275 23.025 30.575C22.7417 30.8583 22.3833 31 21.95 31C21.5167 31 21.1583 30.8583 20.875 30.575C20.5917 30.275 20.45 29.9083 20.45 29.475V19.15C20.45 18.7167 20.5917 18.3583 20.875 18.075C21.1583 17.775 21.5167 17.625 21.95 17.625C22.3833 17.625 22.7417 17.775 23.025 18.075C23.3083 18.3583 23.45 18.7167 23.45 19.15V29.475ZM21.925 16C21.3583 16 20.9583 15.9083 20.725 15.725C20.4917 15.5417 20.375 15.2167 20.375 14.75V14.275C20.375 13.7917 20.5 13.4667 20.75 13.3C21.0167 13.1167 21.4167 13.025 21.95 13.025C22.5333 13.025 22.9417 13.1167 23.175 13.3C23.4083 13.4833 23.525 13.8083 23.525 14.275V14.75C23.525 15.2333 23.4 15.5667 23.15 15.75C22.9 15.9167 22.4917 16 21.925 16Z" fill="black"/>
<circle cx="22" cy="22" r="21" stroke="black" stroke-width="2"/>
</svg>
