<svg width="44" height="44" viewBox="0 0 44 44" fill="none" xmlns="http://www.w3.org/2000/svg">
<path d="M30.3269 14.414C30.4554 14.2829 30.6087 14.1788 30.7779 14.1077C30.9472 14.0366 31.1289 14 31.3124 14C31.4959 14 31.6776 14.0366 31.8469 14.1077C32.0161 14.1788 32.1694 14.2829 32.2979 14.414C32.8363 14.9581 32.8438 15.8372 32.3167 16.3906L21.1856 29.5492C21.0592 29.688 20.9058 29.7995 20.7349 29.877C20.5639 29.9545 20.3789 29.9962 20.1913 29.9998C20.0036 30.0033 19.8172 29.9685 19.6434 29.8975C19.4697 29.8265 19.3122 29.7208 19.1807 29.5869L12.4075 22.7233C12.1463 22.4569 12 22.0987 12 21.7256C12 21.3525 12.1463 20.9943 12.4075 20.7279C12.536 20.5968 12.6893 20.4927 12.8586 20.4216C13.0278 20.3505 13.2095 20.3139 13.393 20.3139C13.5766 20.3139 13.7583 20.3505 13.9275 20.4216C14.0967 20.4927 14.25 20.5968 14.3785 20.7279L20.1238 26.5504L30.2893 14.4554C30.301 14.4409 30.3135 14.4271 30.3269 14.414Z" fill="black"/>
<circle cx="22" cy="22" r="21" stroke="black" stroke-width="2"/>
</svg>
