<svg width="44" height="44" viewBox="0 0 44 44" fill="none" xmlns="http://www.w3.org/2000/svg">
<circle cx="22" cy="22" r="22" fill="#04045A"/>
<path d="M21.6682 24.2772C23.1234 24.2772 24.546 23.844 25.7559 23.0323C26.9659 22.2204 27.909 21.0667 28.4659 19.7169C29.0228 18.3671 29.1685 16.8819 28.8845 15.4489C28.6007 14.0159 27.9001 12.6997 26.871 11.6666C25.8419 10.6334 24.5309 9.92988 23.1037 9.64493C21.6764 9.3598 20.197 9.50613 18.8526 10.0653C17.5081 10.6242 16.3589 11.5711 15.5505 12.7859C14.742 14.0007 14.3105 15.4289 14.3105 16.89C14.3105 18.8491 15.0856 20.7281 16.4656 22.1134C17.8453 23.499 19.7168 24.2772 21.6682 24.2772ZM18.5466 13.756C19.3745 12.9247 20.4973 12.4579 21.6682 12.4579C22.5413 12.4579 23.3949 12.7178 24.1209 13.2047C24.8468 13.6918 25.4127 14.3841 25.7469 15.194C26.0811 16.0038 26.1684 16.8949 25.9979 17.7548C25.8276 18.6146 25.4071 19.4044 24.7899 20.0243C24.1724 20.644 23.3857 21.0661 22.5295 21.2372C21.673 21.4082 20.7853 21.3204 19.9788 20.9849C19.1722 20.6494 18.4824 20.0814 17.9976 19.3526C17.5124 18.6237 17.2537 17.7666 17.2537 16.8901C17.2537 15.7146 17.7185 14.5872 18.5466 13.756Z" fill="#64D9FE"/>
<path d="M22 0C9.8497 0 0 9.8497 0 22C0 29.2935 3.55003 35.7567 9.01545 39.7595C9.61547 40.1989 10.2385 40.6087 10.8826 40.9865C14.1449 42.901 17.9439 44 22 44C26.3272 44 30.362 42.7499 33.7646 40.5923C34.0761 40.3947 34.3825 40.19 34.6831 39.9774C40.3194 35.9938 44 29.4269 44 22C43.9999 9.84969 34.1502 0 22 0ZM12.3332 38.8705C12.607 36.5301 13.716 34.3664 15.4595 32.7829C17.2436 31.1626 19.5636 30.2654 21.9692 30.2654C24.3749 30.2654 26.695 31.1626 28.479 32.7829C30.2313 34.3744 31.3432 36.5522 31.6098 38.9063C28.7761 40.5203 25.4977 41.4429 22.0033 41.4429C18.483 41.4429 15.1812 40.507 12.3332 38.8705ZM34.5489 36.8515C33.8413 34.084 32.2447 31.6262 30.0036 29.861C27.7254 28.0666 24.9135 27.0914 22.0179 27.0914C19.1222 27.0914 16.3104 28.0666 14.0321 29.861C11.7857 31.6304 10.1866 34.0957 9.48156 36.8714C5.25207 33.3055 2.56431 27.9689 2.56431 22.0037C2.56431 11.2678 11.2675 2.56456 22.0034 2.56456C32.7396 2.56456 41.4426 11.2678 41.4426 22.0037C41.4426 27.9578 38.7647 33.2857 34.5489 36.8515Z" fill="#64D9FE"/>
</svg>
