<svg width="58" height="44" viewBox="0 0 58 44" fill="none" xmlns="http://www.w3.org/2000/svg">
<circle cx="28" cy="22" r="22" fill="#133326"/>
<path d="M28.3577 19.7742C29.8128 19.7742 31.2355 19.3411 32.4454 18.5293C33.6554 17.7175 34.5984 16.5638 35.1553 15.214C35.7122 13.8642 35.8579 12.3789 35.5739 10.946C35.2902 9.51302 34.5895 8.19676 33.5605 7.16363C32.5314 6.13042 31.2204 5.42695 29.7932 5.142C28.3658 4.85687 26.8865 5.0032 25.542 5.56237C24.1976 6.12127 23.0484 7.06813 22.24 8.28301C21.4315 9.49781 21 10.926 21 12.3871C21 14.3462 21.7751 16.2252 23.155 17.6105C24.5348 18.996 26.4062 19.7742 28.3577 19.7742ZM25.236 9.25303C26.0639 8.42174 27.1867 7.95495 28.3577 7.95495C29.2308 7.95495 30.0843 8.21484 30.8103 8.70181C31.5362 9.18886 32.1021 9.88115 32.4363 10.691C32.7705 11.5009 32.8579 12.3919 32.6874 13.2519C32.5171 14.1117 32.0965 14.9014 31.4793 15.5214C30.8618 16.1411 30.0752 16.5632 29.2189 16.7342C28.3625 16.9053 27.4748 16.8174 26.6682 16.482C25.8616 16.1465 25.1719 15.5784 24.687 14.8496C24.2019 14.1208 23.9431 13.2636 23.9431 12.3871C23.9431 11.2116 24.408 10.0842 25.236 9.25303Z" fill="#A1E0B4"/>
<path d="M28 0C15.8497 0 6 9.8497 6 22C6 29.2935 9.55003 35.7567 15.0154 39.7595C15.6155 40.1989 16.2385 40.6087 16.8826 40.9865C20.1449 42.901 23.9439 44 28 44C32.3272 44 36.362 42.7499 39.7646 40.5923C40.0761 40.3947 40.3825 40.19 40.6831 39.9774C46.3194 35.9938 50 29.4269 50 22C49.9999 9.84969 40.1502 0 28 0ZM18.3332 38.8705C18.607 36.5301 19.716 34.3664 21.4595 32.7829C23.2436 31.1626 25.5636 30.2654 27.9692 30.2654C30.3749 30.2654 32.695 31.1626 34.479 32.7829C36.2313 34.3744 37.3432 36.5522 37.6098 38.9063C34.7761 40.5203 31.4977 41.4429 28.0033 41.4429C24.483 41.4429 21.1812 40.507 18.3332 38.8705ZM40.5489 36.8515C39.8413 34.084 38.2447 31.6262 36.0036 29.861C33.7254 28.0666 30.9135 27.0914 28.0179 27.0914C25.1222 27.0914 22.3104 28.0666 20.0321 29.861C17.7857 31.6304 16.1866 34.0957 15.4816 36.8714C11.2521 33.3055 8.56431 27.9689 8.56431 22.0037C8.56431 11.2678 17.2675 2.56456 28.0034 2.56456C38.7396 2.56456 47.4426 11.2678 47.4426 22.0037C47.4426 27.9578 44.7647 33.2857 40.5489 36.8515Z" fill="#A1E0B4"/>
<rect x="58" y="25" width="58" height="2.99999" rx="1.5" transform="rotate(-180 58 25)" fill="#A1E1B4"/>
</svg>
