<svg width="35" height="28" viewBox="0 0 35 28" fill="none" xmlns="http://www.w3.org/2000/svg">
<path fill-rule="evenodd" clip-rule="evenodd" d="M27.5372 13.5484C27.5372 19.3682 22.8194 24.086 16.9996 24.086C13.8132 24.086 10.9572 22.6718 9.02489 20.4367L26.9548 10.0849C27.3322 11.1696 27.5372 12.3351 27.5372 13.5484ZM25.5722 7.41903L7.40357 17.9087C6.79883 16.5799 6.46197 15.1035 6.46197 13.5484C6.46197 7.72861 11.1798 3.01075 16.9996 3.01075C20.5331 3.01075 23.6604 4.74996 25.5722 7.41903ZM28.1896 5.90787C25.7493 2.34079 21.6478 0 16.9996 0C9.51703 0 3.45121 6.06582 3.45121 13.5484C3.45121 15.652 3.93062 17.6436 4.78613 19.4199L0.75025 21.75C0.0328116 22.1642 -0.213001 23.0816 0.201212 23.799C0.615426 24.5165 1.53281 24.7623 2.25025 24.3481L6.38068 21.9634C8.86249 25.091 12.6968 27.0968 16.9996 27.0968C24.4822 27.0968 30.548 21.031 30.548 13.5484C30.548 11.7861 30.2115 10.1024 29.5993 8.55807L33.4272 6.34808C34.1446 5.93386 34.3904 5.01648 33.9762 4.29904C33.562 3.5816 32.6446 3.33579 31.9272 3.75L28.1896 5.90787Z" fill="#A1E0B4"/>
</svg>
