<svg width="24" height="18" viewBox="0 0 24 18" fill="none" xmlns="http://www.w3.org/2000/svg">
<path d="M19.9913 1.4921C18.4861 0.801473 16.8721 0.292648 15.1845 0.00122249C15.1538 -0.00440192 15.1231 0.00965379 15.1072 0.0377659C14.8996 0.406965 14.6697 0.888616 14.5087 1.26719C12.6936 0.99545 10.8878 0.99545 9.10989 1.26719C8.94884 0.880201 8.71056 0.406965 8.50205 0.0377659C8.48622 0.0105918 8.45551 -0.00346397 8.42478 0.00122249C6.73812 0.291716 5.12407 0.800541 3.61799 1.4921C3.60495 1.49772 3.59377 1.5071 3.58635 1.51928C0.52484 6.09311 -0.313837 10.5545 0.0975901 14.9606C0.0994517 14.9822 0.111552 15.0028 0.128307 15.0159C2.14821 16.4993 4.10483 17.3998 6.02511 17.9967C6.05584 18.0061 6.08841 17.9949 6.10796 17.9695C6.56221 17.3492 6.96712 16.6952 7.3143 16.0073C7.33479 15.967 7.31523 15.9192 7.27336 15.9033C6.63109 15.6597 6.01952 15.3626 5.43124 15.0253C5.3847 14.9981 5.38098 14.9316 5.42379 14.8997C5.54758 14.8069 5.67141 14.7104 5.78962 14.613C5.81101 14.5952 5.84081 14.5914 5.86596 14.6026C9.73074 16.3672 13.9148 16.3672 17.734 14.6026C17.7592 14.5905 17.789 14.5942 17.8113 14.612C17.9295 14.7095 18.0533 14.8069 18.178 14.8997C18.2208 14.9316 18.2181 14.9981 18.1715 15.0253C17.5832 15.3692 16.9717 15.6597 16.3285 15.9024C16.2866 15.9183 16.268 15.967 16.2885 16.0073C16.6431 16.6942 17.048 17.3483 17.4939 17.9686C17.5125 17.9949 17.546 18.0061 17.5767 17.9967C19.5063 17.3998 21.4629 16.4993 23.4828 15.0159C23.5005 15.0028 23.5117 14.9831 23.5135 14.9616C24.0059 9.86763 22.6888 5.4428 20.022 1.52021C20.0155 1.5071 20.0043 1.49772 19.9913 1.4921ZM7.89144 12.2778C6.72788 12.2778 5.76913 11.2095 5.76913 9.89763C5.76913 8.58572 6.70929 7.51748 7.89144 7.51748C9.08288 7.51748 10.0323 8.5951 10.0137 9.89763C10.0137 11.2095 9.07357 12.2778 7.89144 12.2778ZM15.7383 12.2778C14.5748 12.2778 13.616 11.2095 13.616 9.89763C13.616 8.58572 14.5562 7.51748 15.7383 7.51748C16.9298 7.51748 17.8792 8.5951 17.8606 9.89763C17.8606 11.2095 16.9298 12.2778 15.7383 12.2778Z" fill="#04045A"/>
</svg>
