<svg width="127" height="31" viewBox="0 0 127 31" fill="none" xmlns="http://www.w3.org/2000/svg">
<path d="M18.5883 2.58052C16.5567 0.911901 14.0092 -0.000118715 11.3803 2.13553e-05C8.74804 -0.00508975 6.1963 0.907401 4.16404 2.58052C2.71404 3.7682 1.58023 5.2961 0.863602 7.02813C0.14697 8.76016 -0.130244 10.6426 0.0566487 12.5077C0.243542 14.3728 0.888741 16.1628 1.93478 17.7181C2.98082 19.2735 4.39524 20.546 6.05205 21.4223C6.09301 21.5533 6.13396 21.6844 6.18311 21.8319C6.36272 22.3292 6.60788 22.8003 6.9121 23.2327C7.14328 23.5586 7.48556 23.7888 7.87454 23.8799C8.08727 23.9317 8.30814 23.9411 8.52448 23.9073C8.74082 23.8736 8.94837 23.7974 9.13521 23.6833C9.32205 23.5691 9.4845 23.4191 9.61325 23.242C9.74199 23.0649 9.83448 22.8641 9.88542 22.6511C10.0007 22.1351 10.0488 21.6065 10.0288 21.0782C10.0156 20.5708 9.96082 20.0652 9.86494 19.5668C9.80861 19.2312 9.67038 18.9147 9.46249 18.6453C9.2546 18.376 8.98348 18.1621 8.67316 18.0226H8.60763C7.09721 17.3626 5.85747 16.2066 5.09371 14.7457C4.64795 13.8439 4.39792 12.8579 4.36003 11.8526C4.32213 10.8473 4.49722 9.84531 4.87382 8.91244C5.25041 7.97957 5.81999 7.1369 6.54518 6.43971C7.27037 5.74253 8.13477 5.20659 9.08166 4.86708C10.0285 4.52758 11.0365 4.39217 12.0394 4.46975C13.0423 4.54732 14.0175 4.83613 14.9009 5.31722C15.7844 5.79831 16.5561 6.4608 17.1655 7.26121C17.7748 8.06163 18.2081 8.98188 18.4368 9.96157C18.7921 11.5856 18.5766 13.2826 17.8266 14.7662C17.0643 16.2595 15.8245 17.4548 14.3044 18.1618H14.2758L14.0915 18.2519C14.03 18.2847 13.9727 18.3216 13.9154 18.3584L13.7843 18.4608C13.7282 18.5068 13.6749 18.556 13.6246 18.6083C13.4826 18.7499 13.3637 18.913 13.2724 19.0916L13.215 19.1981L13.1864 19.2678L13.1127 19.4152C13.0804 19.4954 13.0531 19.5775 13.0307 19.661C12.9735 19.8931 12.9297 20.1283 12.8997 20.3655C12.8628 20.7751 12.8465 21.1192 12.8342 21.4632L12.8055 23.4211C12.8055 24.056 12.785 24.6868 12.7768 25.3135C12.7582 25.9686 12.6005 26.6123 12.314 27.2018C12.1155 27.5893 12.0219 28.0221 12.0425 28.457C12.0631 28.8919 12.1972 29.3139 12.4314 29.681C12.6656 30.048 12.9918 30.3474 13.3775 30.5492C13.7633 30.7511 14.1951 30.8485 14.6302 30.8317C15.0652 30.8149 15.4883 30.6845 15.8573 30.4534C16.2263 30.2224 16.5285 29.8987 16.7337 29.5147C16.9388 29.1307 17.0399 28.6996 17.0269 28.2644C17.0139 27.8291 16.8871 27.4049 16.6593 27.0338C16.3299 26.497 16.1346 25.8886 16.0901 25.2602C16.0573 24.6622 16.0327 24.0683 16.0532 23.4826C16.061 22.913 16.1117 22.3447 16.2047 21.7827C16.2252 21.6598 16.2498 21.5451 16.2744 21.4346C18.4425 20.4219 20.2263 18.737 21.361 16.6299C22.6026 14.3306 23.005 11.6706 22.4991 9.10688C21.9931 6.54312 20.6104 4.23556 18.5883 2.58052Z" fill="#A1E0B4"/>
<path d="M14.2964 14.3024L11.405 11.4106L8.50952 8.51472L8.27608 8.28125C7.4759 9.11659 7.03474 10.2322 7.04713 11.3889C7.05952 12.5457 7.52449 13.6516 8.34238 14.4696C9.16027 15.2876 10.266 15.7526 11.4226 15.765C12.5792 15.7774 13.6947 15.3362 14.5299 14.5359L14.2964 14.3024Z" fill="#A1E0B4"/>
<path d="M90.456 18.3587H82.265V4.36665C82.265 3.8778 82.0709 3.40897 81.7252 3.0633C81.3796 2.71763 80.9109 2.52344 80.4221 2.52344C79.9333 2.52344 79.4645 2.71763 79.1189 3.0633C78.7733 3.40897 78.5791 3.8778 78.5791 4.36665V20.2019C78.5802 20.6904 78.7747 21.1586 79.1201 21.5041C79.4655 21.8495 79.9336 22.044 80.4221 22.0451H90.4478C90.9366 22.0451 91.4054 21.8509 91.751 21.5053C92.0966 21.1596 92.2908 20.6908 92.2908 20.2019C92.2908 19.7131 92.0966 19.2442 91.751 18.8986C91.4054 18.5529 90.9366 18.3587 90.4478 18.3587H90.456Z" fill="#A1E0B4"/>
<path d="M106.527 2.52344H96.2512C95.7624 2.52344 95.2936 2.71763 94.948 3.0633C94.6024 3.40897 94.4082 3.8778 94.4082 4.36665C94.4082 4.8555 94.6024 5.32433 94.948 5.67C95.2936 6.01567 95.7624 6.20987 96.2512 6.20987H106.547C107.036 6.20987 107.505 6.01567 107.85 5.67C108.196 5.32433 108.39 4.8555 108.39 4.36665C108.39 3.8778 108.196 3.40897 107.85 3.0633C107.505 2.71763 107.036 2.52344 106.547 2.52344H106.527Z" fill="#A1E0B4"/>
<path d="M104.102 14.1278C104.591 14.1278 105.06 13.9336 105.406 13.588C105.751 13.2423 105.945 12.7735 105.945 12.2846C105.945 11.7958 105.751 11.3269 105.406 10.9813C105.06 10.6356 104.591 10.4414 104.102 10.4414H98.6555C98.1667 10.4414 97.6979 10.6356 97.3523 10.9813C97.0067 11.3269 96.8125 11.7958 96.8125 12.2846C96.8125 12.7735 97.0067 13.2423 97.3523 13.588C97.6979 13.9336 98.1667 14.1278 98.6555 14.1278H104.102Z" fill="#A1E0B4"/>
<path d="M106.527 18.3594H96.2512C95.7624 18.3594 95.2936 18.5536 94.948 18.8992C94.6024 19.2449 94.4082 19.7137 94.4082 20.2026C94.4082 20.6914 94.6024 21.1603 94.948 21.5059C95.2936 21.8516 95.7624 22.0458 96.2512 22.0458H106.547C107.036 22.0458 107.505 21.8516 107.85 21.5059C108.196 21.1603 108.39 20.6914 108.39 20.2026C108.39 19.7137 108.196 19.2449 107.85 18.8992C107.505 18.5536 107.036 18.3594 106.547 18.3594H106.527Z" fill="#A1E0B4"/>
<path d="M55.611 2.52344C55.1222 2.52344 54.6535 2.71764 54.3079 3.06331C53.9622 3.40898 53.7681 3.87781 53.7681 4.36666V10.3878H45.9007V4.36666C45.9012 4.12445 45.8539 3.88452 45.7615 3.66065C45.669 3.43678 45.5333 3.23337 45.3621 3.0621C45.1908 2.89084 44.9874 2.75509 44.7636 2.66265C44.5398 2.57021 44.2999 2.5229 44.0577 2.52344H27.4055C26.9167 2.52344 26.4479 2.71764 26.1023 3.06331C25.7567 3.40898 25.5625 3.87781 25.5625 4.36666C25.5625 4.85551 25.7567 5.32434 26.1023 5.67001C26.4479 6.01568 26.9167 6.20987 27.4055 6.20987H32.5985V20.2019C32.5985 20.444 32.6462 20.6837 32.7388 20.9073C32.8314 21.1309 32.9672 21.3341 33.1383 21.5053C33.3095 21.6764 33.5126 21.8122 33.7362 21.9048C33.9598 21.9975 34.1995 22.0451 34.4415 22.0451C34.6835 22.0451 34.9232 21.9975 35.1468 21.9048C35.3704 21.8122 35.5735 21.6764 35.7447 21.5053C35.9158 21.3341 36.0516 21.1309 36.1442 20.9073C36.2368 20.6837 36.2845 20.444 36.2845 20.2019V6.20987H42.2147V20.2019C42.2147 20.6908 42.4089 21.1596 42.7545 21.5053C43.1001 21.8509 43.5689 22.0451 44.0577 22.0451C44.5465 22.0451 45.0152 21.8509 45.3609 21.5053C45.7065 21.1596 45.9007 20.6908 45.9007 20.2019V14.0579H53.7681V20.2019C53.7681 20.6908 53.9622 21.1596 54.3079 21.5053C54.6535 21.8509 55.1222 22.0451 55.611 22.0451C56.0998 22.0451 56.5686 21.8509 56.9142 21.5053C57.2598 21.1596 57.454 20.6908 57.454 20.2019V4.36666C57.4545 4.12445 57.4072 3.88452 57.3148 3.66065C57.2224 3.43678 57.0867 3.23337 56.9154 3.0621C56.7442 2.89084 56.5408 2.75509 56.3169 2.66265C56.0931 2.57021 55.8532 2.5229 55.611 2.52344Z" fill="#A1E0B4"/>
<path d="M122.086 10.4413H115.533C115.207 10.4413 114.895 10.3118 114.664 10.0813C114.434 9.8509 114.304 9.53835 114.304 9.21245V7.43477C114.304 7.10887 114.434 6.79632 114.664 6.56587C114.895 6.33542 115.207 6.20596 115.533 6.20596H122.348C122.837 6.20596 123.305 6.01176 123.651 5.66609C123.997 5.32043 124.191 4.8516 124.191 4.36275C124.191 3.87389 123.997 3.40507 123.651 3.0594C123.305 2.71373 122.837 2.51953 122.348 2.51953H115.549C114.246 2.51953 112.996 3.03739 112.074 3.95917C111.153 4.88096 110.635 6.13117 110.635 7.43477V9.21245C110.635 10.516 111.153 11.7663 112.074 12.688C112.996 13.6098 114.246 14.1277 115.549 14.1277H122.102C122.428 14.1277 122.74 14.2571 122.971 14.4876C123.201 14.718 123.331 15.0306 123.331 15.3565V17.1342C123.331 17.4601 123.201 17.7726 122.971 18.0031C122.74 18.2335 122.428 18.363 122.102 18.363H112.482C111.993 18.363 111.524 18.5572 111.179 18.9028C110.833 19.2485 110.639 19.7173 110.639 20.2062C110.639 20.695 110.833 21.1639 111.179 21.5095C111.524 21.8552 111.993 22.0494 112.482 22.0494H122.086C123.389 22.0494 124.639 21.5316 125.561 20.6098C126.483 19.688 127 18.4378 127 17.1342V15.3524C126.999 14.0495 126.481 12.8003 125.559 11.8794C124.638 10.9585 123.388 10.4413 122.086 10.4413Z" fill="#A1E0B4"/>
<path d="M69.5159 3.64622C69.3743 3.31372 69.1381 3.0302 68.8366 2.83092C68.5352 2.63164 68.1818 2.52539 67.8204 2.52539C67.4591 2.52539 67.1057 2.63164 66.8042 2.83092C66.5027 3.0302 66.2665 3.31372 66.1249 3.64622L59.3919 19.4815C59.2728 19.7617 59.225 20.0671 59.2528 20.3703C59.2805 20.6735 59.3829 20.9652 59.5509 21.2191C59.7188 21.4731 59.9471 21.6815 60.2152 21.8257C60.4833 21.9699 60.783 22.0455 61.0874 22.0456H74.5452C74.8496 22.0455 75.1493 21.9699 75.4175 21.8257C75.6856 21.6815 75.9138 21.4731 76.0818 21.2191C76.2497 20.9652 76.3521 20.6735 76.3799 20.3703C76.4076 20.0671 76.3598 19.7617 76.2407 19.4815L69.5159 3.64622ZM63.8969 18.3592L67.8327 9.08165L71.7685 18.3592H63.8969Z" fill="#A1E0B4"/>
</svg>
