<svg width="44" height="44" viewBox="0 0 44 44" fill="none" xmlns="http://www.w3.org/2000/svg">
<circle cx="22" cy="22" r="22" fill="#133326"/>
<path d="M22 0C9.8497 0 0 9.8497 0 22C0 29.2935 3.55003 35.7567 9.01545 39.7595C9.61547 40.1989 10.2385 40.6087 10.8826 40.9865C14.1449 42.901 17.9439 44 22 44C26.3272 44 30.362 42.7498 33.7646 40.5923C34.0761 40.3947 34.3825 40.19 34.6831 39.9774C40.3194 35.9938 44 29.4269 44 22C43.9999 9.84969 34.1502 0 22 0ZM12.3332 38.8705C12.607 36.5301 13.716 34.3664 15.4595 32.7829C17.2436 31.1626 19.5636 30.2654 21.9692 30.2654C24.3749 30.2654 26.695 31.1626 28.479 32.7829C30.2313 34.3744 31.3432 36.5522 31.6098 38.9063C28.7761 40.5203 25.4977 41.4429 22.0033 41.4429C18.483 41.4429 15.1812 40.507 12.3332 38.8705ZM34.5489 36.8515C33.8413 34.084 32.2447 31.6262 30.0036 29.861C27.7254 28.0666 24.9135 27.0914 22.0179 27.0914C19.1222 27.0914 16.3104 28.0666 14.0321 29.861C11.7857 31.6304 10.1866 34.0957 9.48156 36.8714C5.25207 33.3055 2.56431 27.9689 2.56431 22.0037C2.56431 11.2678 11.2675 2.56456 22.0034 2.56456C32.7396 2.56456 41.4426 11.2678 41.4426 22.0037C41.4426 27.9578 38.7647 33.2857 34.5489 36.8515Z" fill="#A1E0B4"/>
<circle cx="21.5" cy="15.5" r="9.15" fill="#133326" stroke="#A1E1B4" stroke-width="2.7"/>
<path fill-rule="evenodd" clip-rule="evenodd" d="M18.728 11.2965C18.3327 10.9012 17.6918 10.9012 17.2965 11.2965C16.9012 11.6918 16.9012 12.3327 17.2965 12.728L20.2702 15.7017L17.2965 18.6754C16.9012 19.0707 16.9012 19.7116 17.2965 20.1069C17.6918 20.5022 18.3328 20.5022 18.7281 20.1069L21.7017 17.1333L24.6753 20.1068C25.0706 20.5021 25.7115 20.5021 26.1068 20.1068C26.5021 19.7115 26.5021 19.0706 26.1068 18.6753L23.1333 15.7017L26.1069 12.7281C26.5022 12.3328 26.5022 11.6919 26.1069 11.2966C25.7116 10.9013 25.0706 10.9013 24.6753 11.2966L21.7017 14.2702L18.728 11.2965Z" fill="#A1E1B4"/>
</svg>
