<svg width="44" height="44" viewBox="0 0 44 44" fill="none" xmlns="http://www.w3.org/2000/svg">
<circle cx="22" cy="22" r="22" fill="#133326"/>
<path d="M22 0C9.8497 0 0 9.8497 0 22C0 29.2935 3.55003 35.7567 9.01545 39.7595C9.61547 40.1989 10.2385 40.6087 10.8826 40.9865C14.1449 42.901 17.9439 44 22 44C26.3272 44 30.362 42.7498 33.7646 40.5923C34.0761 40.3947 34.3825 40.19 34.6831 39.9774C40.3194 35.9938 44 29.4269 44 22C43.9999 9.84969 34.1502 0 22 0ZM12.3332 38.8705C12.607 36.5301 13.716 34.3664 15.4595 32.7829C17.2436 31.1626 19.5636 30.2654 21.9692 30.2654C24.3749 30.2654 26.695 31.1626 28.479 32.7829C30.2313 34.3744 31.3432 36.5522 31.6098 38.9063C28.7761 40.5203 25.4977 41.4429 22.0033 41.4429C18.483 41.4429 15.1812 40.507 12.3332 38.8705ZM34.5489 36.8515C33.8413 34.084 32.2447 31.6262 30.0036 29.861C27.7254 28.0666 24.9135 27.0914 22.0179 27.0914C19.1222 27.0914 16.3104 28.0666 14.0321 29.861C11.7857 31.6304 10.1866 34.0957 9.48156 36.8714C5.25207 33.3055 2.56431 27.9689 2.56431 22.0037C2.56431 11.2678 11.2675 2.56456 22.0034 2.56456C32.7396 2.56456 41.4426 11.2678 41.4426 22.0037C41.4426 27.9578 38.7647 33.2857 34.5489 36.8515Z" fill="#A1E0B4"/>
<circle cx="21.5" cy="15.5" r="9.15" fill="#133326" stroke="#A1E1B4" stroke-width="2.7"/>
<path d="M21.5 10C22.3284 10 23 10.6716 23 11.5V15.9744C23 16.8028 22.3284 17.4744 21.5 17.4744C20.6716 17.4744 20 16.8028 20 15.9744V11.5C20 10.6716 20.6716 10 21.5 10ZM21.6779 18.3558C22.4081 18.3558 23 18.9477 23 19.6779C23 20.4081 22.4081 21 21.6779 21H21.3221C20.5919 21 20 20.4081 20 19.6779C20 18.9477 20.5919 18.3558 21.3221 18.3558H21.6779Z" fill="#A1E1B4"/>
</svg>
