<svg id="Layer_1" data-name="Layer 1" xmlns="http://www.w3.org/2000/svg" xmlns:xlink="http://www.w3.org/1999/xlink" viewBox="0 0 279.4 438.8"><defs><style>.cls-1{fill:none;}.cls-2{fill:#1c1328;}.cls-3{fill:url(#New_Gradient_Swatch_1);}.cls-4{fill:url(#New_Gradient_Swatch_1-2);}.cls-5{fill:url(#New_Gradient_Swatch_1-3);}.cls-6{fill:url(#New_Gradient_Swatch_1-4);}.cls-7{clip-path:url(#clip-path);}.cls-8{fill:url(#New_Gradient_Swatch_1-5);}.cls-9{clip-path:url(#clip-path-2);}.cls-10{fill:url(#New_Gradient_Swatch_1-6);}.cls-11{clip-path:url(#clip-path-3);}.cls-12{fill:url(#New_Gradient_Swatch_1-7);}.cls-13{fill:url(#New_Gradient_Swatch_1-8);}.cls-14{fill:url(#New_Gradient_Swatch_1-9);}.cls-15{fill:url(#New_Gradient_Swatch_1-10);}.cls-16{fill:url(#New_Gradient_Swatch_1-11);}.cls-17{clip-path:url(#clip-path-4);}.cls-18{fill:url(#New_Gradient_Swatch_1-12);}.cls-19{fill:url(#New_Gradient_Swatch_1-13);}.cls-20{fill:url(#New_Gradient_Swatch_1-14);}.cls-21{fill:url(#New_Gradient_Swatch_1-15);}.cls-22{fill:url(#New_Gradient_Swatch_1-16);}</style><linearGradient id="New_Gradient_Swatch_1" x1="-280.75" y1="2447.89" x2="177.25" y2="1937.89" gradientTransform="translate(-41.6 -2030.02)" gradientUnits="userSpaceOnUse"><stop offset="0" stop-color="#917039"/><stop offset="0.11" stop-color="#c3b171"/><stop offset="0.22" stop-color="#e9e199"/><stop offset="0.23" stop-color="#eae199"/><stop offset="0.31" stop-color="#f7e89b"/><stop offset="0.38" stop-color="#fcea9c"/><stop offset="0.44" stop-color="#e1cf87"/><stop offset="0.49" stop-color="#cdba78"/><stop offset="0.55" stop-color="#c1ae6f"/><stop offset="0.6" stop-color="#bdaa6c"/><stop offset="0.7" stop-color="#c1af6f"/><stop offset="0.8" stop-color="#cebd79"/><stop offset="0.87" stop-color="#d8c881"/><stop offset="1" stop-color="#977640"/></linearGradient><linearGradient id="New_Gradient_Swatch_1-2" x1="19.67" y1="2750.31" x2="477.62" y2="2240.36" xlink:href="#New_Gradient_Swatch_1"/><linearGradient id="New_Gradient_Swatch_1-3" x1="199.92" y1="330.83" x2="67.91" y2="462.84" gradientTransform="matrix(1, 0, 0, -1, 0, 616)" xlink:href="#New_Gradient_Swatch_1"/><linearGradient id="New_Gradient_Swatch_1-4" x1="316.4" y1="1798.53" x2="-55.02" y2="1699.01" gradientTransform="translate(0 -1530.06)" xlink:href="#New_Gradient_Swatch_1"/><clipPath id="clip-path"><rect class="cls-1" x="12.2" y="-2.9" width="257.7" height="444.1"/></clipPath><linearGradient id="New_Gradient_Swatch_1-5" x1="246.74" y1="404.81" x2="32.64" y2="33.97" gradientTransform="matrix(1, 0, 0, 1, 0, 0)" xlink:href="#New_Gradient_Swatch_1"/><clipPath id="clip-path-2"><rect class="cls-1" x="11.9" y="41.5" width="258.4" height="365.1"/></clipPath><linearGradient id="New_Gradient_Swatch_1-6" x1="-31.66" y1="219.4" x2="311.06" y2="219.4" gradientTransform="matrix(1, 0, 0, 1, 0, 0)" xlink:href="#New_Gradient_Swatch_1"/><clipPath id="clip-path-3"><rect class="cls-1" x="12.1" y="56.8" width="258.6" height="323.4"/></clipPath><linearGradient id="New_Gradient_Swatch_1-7" x1="274.53" y1="142.75" x2="4.87" y2="298.45" gradientTransform="matrix(1, 0, 0, -1, 0, 440)" xlink:href="#New_Gradient_Swatch_1"/><linearGradient id="New_Gradient_Swatch_1-8" x1="-80.21" y1="2498.6" x2="424.46" y2="2334.29" xlink:href="#New_Gradient_Swatch_1"/><linearGradient id="New_Gradient_Swatch_1-9" x1="115.9" y1="565.4" x2="466.52" y2="174.97" gradientTransform="matrix(0.16, 0.99, 0.99, -0.16, -194.35, -156.37)" xlink:href="#New_Gradient_Swatch_1"/><linearGradient id="New_Gradient_Swatch_1-10" x1="-107.28" y1="177.58" x2="243.34" y2="-212.85" gradientTransform="matrix(1, 0, 0, -1, 0, 440)" xlink:href="#New_Gradient_Swatch_1"/><linearGradient id="New_Gradient_Swatch_1-11" x1="133.27" y1="232.31" x2="148.56" y2="232.31" gradientTransform="matrix(1, 0, 0, 1, 0, 0)" xlink:href="#New_Gradient_Swatch_1"/><clipPath id="clip-path-4"><rect class="cls-1" x="12.59" y="16.15" width="256.3" height="401.93"/></clipPath><linearGradient id="New_Gradient_Swatch_1-12" x1="235.79" y1="385.84" x2="43.59" y2="52.94" gradientTransform="matrix(1, 0, 0, 1, 0, 0)" xlink:href="#New_Gradient_Swatch_1"/><linearGradient id="New_Gradient_Swatch_1-13" x1="207.84" y1="337.43" x2="71.56" y2="101.37" gradientTransform="matrix(1, 0, 0, 1, 0, 0)" xlink:href="#New_Gradient_Swatch_1"/><linearGradient id="New_Gradient_Swatch_1-14" x1="769.3" y1="2253.94" x2="124.86" y2="2081.27" xlink:href="#New_Gradient_Swatch_1"/><linearGradient id="New_Gradient_Swatch_1-15" x1="-320.51" y1="2838.52" x2="157.8" y2="2305.91" xlink:href="#New_Gradient_Swatch_1"/><linearGradient id="New_Gradient_Swatch_1-16" x1="-54.42" y1="2188.99" x2="470.05" y2="1886.19" xlink:href="#New_Gradient_Swatch_1"/></defs><path class="cls-2" d="M277.9,417.3A20.06,20.06,0,0,1,258,437.4H23.2a20.06,20.06,0,0,1-20-20V23.4A20.12,20.12,0,0,1,23.1,3.3H257.9a20.06,20.06,0,0,1,20,20Z"/><rect class="cls-3" x="24.7" y="23.6" width="7.4" height="7.4"/><polygon class="cls-4" points="249.3 419.6 244.7 419.6 247 415.8 249.3 411.9 251.5 415.8 253.8 419.6 249.3 419.6"/><path class="cls-5" d="M100.3,191.3H94.5v-1.7h14.2v1.7h-5.8v13.9h-2.5Zm12.9-1.6v6.5h9.2v-6.5h2.5v15.6h-2.5V198h-9.2v7.3h-2.5V189.7Zm33.4,0h2.5v13.9h8.2v1.7H146.7l-.1-15.6Zm23.3,8.3h-7.4v5.6h8.3v1.7H160V189.7h10.3v1.7h-7.9v4.9h7.4Zm3.7,4.8a9.76,9.76,0,0,0,4.4,1c2.5,0,4-1.1,4-2.7s-1-2.3-3.6-3.1c-3.1-.9-5.1-2.2-5.1-4.4,0-2.4,2.5-4.2,6.2-4.2a10.13,10.13,0,0,1,4.2.8l-.7,1.6a7.49,7.49,0,0,0-3.6-.7c-2.6,0-3.6,1.3-3.6,2.3,0,1.5,1.2,2.2,3.8,3,3.2,1,4.9,2.3,4.9,4.6s-2.2,4.5-6.7,4.5a11.62,11.62,0,0,1-4.9-1ZM116.8,270,114,259.1h1.5l1.3,5.5c.3,1.4.6,2.7.8,3.8h0c.2-1.1.5-2.4.9-3.8l1.4-5.5h1.5l1.3,5.5c.3,1.3.6,2.6.8,3.7h0a23.39,23.39,0,0,1,.9-3.8l1.4-5.5h1.4l-3.1,10.9h-1.5l-1.4-5.6c-.3-1.2-.5-2.4-.7-3.5h0c-.2,1.2-.5,2.3-.8,3.5l-1.6,5.6-1.3.1Zm13.3-10.9V270h-1.4V259.1Zm2.4,10.9V259.1H134l3.5,5.5a39.72,39.72,0,0,1,2,3.5h0c-.1-1.5-.2-2.8-.2-4.5v-4.5h1.3V270h-1.4l-3.4-5.5c-.7-1.2-1.4-2.4-2-3.6h0c.1,1.4.1,2.7.1,4.5V270Zm10.4-.1.4-10.9,1.5.1,3.2,5.6a30.21,30.21,0,0,1,1.8,3.6h0c-.1-1.5,0-2.8,0-4.5l.2-4.5,1.3.1-.4,10.9-1.4-.1-3.2-5.6c-.7-1.2-1.3-2.4-1.9-3.7h-.1c0,1.4,0,2.7-.1,4.5L144,270Zm16.4-4.9h-4.2v3.9h4.7v1.2h-6.1V259.3h5.9v1.2h-4.5v3.4h4.2Zm2.4-5.6a12.29,12.29,0,0,1,2.7-.2,4.37,4.37,0,0,1,3.1.9,2.72,2.72,0,0,1,.9,2.1,2.91,2.91,0,0,1-2,2.8h0a2.65,2.65,0,0,1,1.6,2.2c.2,1,.5,2,.8,3h-1.4a11.07,11.07,0,0,1-.7-2.6c-.3-1.5-.9-2.1-2.2-2.1h-1.4v4.7h-1.4Zm1.3,4.9h1.4c1.5,0,2.4-.8,2.4-2.1s-1-2-2.5-2a6.6,6.6,0,0,0-1.4.1Zm-25.7-74.6h-3l-6.5,15.6h2.6s5-12.9,5.3-13.8h.1c.3.9,5.4,13.8,5.4,13.8h2.6ZM95.9,208.5a38.66,38.66,0,0,1,4.8-.3c2.7,0,4.4.4,5.6,1.3a3.56,3.56,0,0,1,1.5,3c0,2.1-1.6,3.4-3.6,4v.1a3.86,3.86,0,0,1,2.8,3.2,16.91,16.91,0,0,0,1.5,4.3h-2.6a16.27,16.27,0,0,1-1.3-3.7c-.6-2.2-1.6-3-3.9-3.1H98.4V224H95.9Zm2.5,7.2h2.5c2.7,0,4.3-1.2,4.3-3,0-2-1.8-2.9-4.4-2.9a9.74,9.74,0,0,0-2.4.2Zm29.4.3c0,5.4-4,8.2-8.9,8.2-5.1,0-8.7-3.2-8.7-7.9,0-5,3.8-8.2,8.9-8.2s8.7,3.2,8.7,7.9Zm-15,.1a5.94,5.94,0,0,0,5.6,6.3h.5c3.9,0,6.2-2.9,6.2-6.5,0-3.1-2-6.4-6.1-6.4s-6.2,3.3-6.2,6.6Zm21.7,7.9v-6.6l-6.1-9h2.8l2.7,4.3c.7,1.2,1.3,2.1,1.9,3.2h.1c.5-1,1.2-2,1.9-3.2l2.8-4.3h2.8l-6.5,9V224Zm26.3-15.7h2.5v14h8.2v1.6H160.8Zm23.5,8.4h-7.5v5.6h8.3V224H174.3V208.4h10.4v1.7h-7.9V215h7.5Zm-32.9-8.4h-3l-6.6,15.6h2.6s5.1-13,5.4-13.9h.1c.3.9,5.5,13.9,5.5,13.9h2.7ZM90.9,239.5a38.66,38.66,0,0,1,4.8-.3c2.7,0,4.4.4,5.6,1.29a3.54,3.54,0,0,1,1.5,3c0,2.09-1.6,3.38-3.6,4v.1a3.83,3.83,0,0,1,2.8,3.18,16.71,16.71,0,0,0,1.5,4.27h-2.6a16,16,0,0,1-1.3-3.68c-.6-2.18-1.6-3-3.9-3.08H93.4v6.66H90.9Zm2.5,7.2h2.5c2.7,0,4.3-1.2,4.3-3,0-2-1.8-2.9-4.4-2.9a9.74,9.74,0,0,0-2.4.2Zm29.4.3c0,5.4-4,8.2-8.9,8.2-5.1,0-8.7-3.2-8.7-7.9,0-5,3.8-8.2,8.9-8.2s8.7,3.2,8.7,7.9Zm-15,.1a5.94,5.94,0,0,0,5.6,6.3h.5c3.9,0,6.2-2.9,6.2-6.5,0-3.1-2-6.4-6.1-6.4s-6.2,3.3-6.2,6.6Zm21.7,7.9v-6.6l-6.1-9h2.8l2.7,4.3c.7,1.2,1.3,2.1,1.9,3.2h.1c.5-1,1.2-2,1.9-3.2l2.8-4.3h2.8l-6.5,9V255Zm26.3-15.7h2.5v14h8.2v1.6H155.8Zm23.5,8.4h-7.5v5.6h8.3V255H169.3V239.4h10.4v1.7h-7.9V246h7.5Zm-32.9-8.4h-3l-6.6,15.6h2.6s5.1-13,5.4-13.9h.1c.3.9,5.5,13.9,5.5,13.9h2.7Zm36.65,13.49a9.76,9.76,0,0,0,4.4,1c2.5,0,4-1.1,4-2.7s-1-2.3-3.6-3.1c-3.1-.9-5.1-2.2-5.1-4.4,0-2.4,2.5-4.2,6.2-4.2a10.13,10.13,0,0,1,4.2.8l-.7,1.6a7.49,7.49,0,0,0-3.6-.7c-2.6,0-3.6,1.3-3.6,2.3,0,1.5,1.2,2.2,3.8,3,3.2,1,4.9,2.3,4.9,4.6s-2.2,4.5-6.7,4.5a11.62,11.62,0,0,1-4.9-1Z"/><path class="cls-6" d="M166.7,307.3c8.7,3.2,18,2.5,27.6-.5a22.65,22.65,0,0,0-4-2.9c-8.3-4.2-16.9-5.5-26-2.9-7.2,2.1-14.3,4.5-21.4,6.7-.9.3-1.9.8-2.7.5-6.1-1.7-12.5-2.9-18.3-5.5-10.5-4.7-20.4-3.5-30.4.8-1.6.7-2.9,1.9-4.9,3.2,12,3.7,23,2.9,34-.5a7.06,7.06,0,0,1,3.8-.5c4.1,1.1,8.2,2.5,12.9,4-4.2,3.4-8.8,5.9-12.9,9l5.6,1.8c2-2.2,4-4.4,6.2-6.4,3.2-3.1,6-2.9,9.4,0a72.34,72.34,0,0,1,6.1,6.3l5.1-1.7L145,309.6C151.8,306.8,158.5,304.3,166.7,307.3Zm4.9-12.9c13.4,8.3,26.6,5.2,40.4,1.1C204.9,287.9,183.2,286.9,171.6,294.4Zm19-8c10.5,3.4,35-4.4,38-12.1C214.5,271.5,194.4,277.9,190.6,286.4Zm-81.5,8.5c-9.6-7.5-35.4-7.3-39.7.2C82.5,298.7,95.5,303.1,109.1,294.9Zm100.2-99.8c-4.6-12.4-20.5-23-31.8-21.1C178.9,182.5,201.4,197,209.3,195.1ZM90.5,286.3c-4.1-8.2-23.7-14.4-38.2-12C58.2,283,80.7,290,90.5,286.3Zm13-112.5c-12.7-.7-29.2,10.5-31.7,21.5C82.5,195.3,100.5,183.3,103.5,173.8Zm124.7,77.3c-11.6-.9-24.2,13.1-28.4,23.8,10.2.8,28.8-15.1,28.4-23.8Zm-175.4.2c-.1,8.9,19,25.2,28.5,23.3C74.3,259.9,60.7,249.5,52.8,251.3Zm56.3-104.4c-10,1-22.8,15.8-25.9,30.2C96.7,174.5,109.7,159.1,109.1,146.9ZM197.7,177c-2-13.3-15.8-31-23.5-30.1.7,13.4,11.5,27.6,23.5,30.1ZM68.9,165c-7.9,8.6-9.8,26-3.9,36C72.7,192.9,75,170.5,68.9,165Zm133.2,86c-10.6,9-16.6,19.7-16.1,34C195.2,283.9,203.5,262.8,202.1,251Zm-19.4,23.8c-12.3,1.4-26.3,15.4-26.4,26.4C168.6,296.8,180.7,284.8,182.7,274.8Zm33.5-74c5.5-10.6,3.4-28.2-4.6-36.5-5.3,9.7-2.4,31.7,4.6,36.5ZM124.8,301.1c.6-9.3-14.8-26.1-26.7-26.4,4.9,13.1,14.1,21.4,26.7,26.4ZM94.3,284.9c1.8-11.8-5.4-27.4-15.6-33.4-.8,11.4,6.8,32,15.6,33.4ZM62.4,236.6c.9-12.8-7.1-29.6-17-30.4-.8,10.8,8.2,27.1,17,30.4Zm156.4-.2c8.2-2.6,17-18.1,16.9-30.3-10,1.9-18.5,17.4-16.9,30.3Zm.3-21.4c10.1-5.5,14.5-23.1,10.8-33.6-8.4,5.7-13.1,20.1-10.8,33.6Zm-157.4-.2c3.6-10-2-27.7-10.5-33.3-3.3,11.5.6,28,10.5,33.3ZM40.4,227c4.7,12.4,12.4,21.7,25.8,25.7C62.4,239,51.1,227.8,40.4,227Zm174.9,25.9c12.6-4.7,20.6-13.5,25.5-26.1-12.3,2-24.7,14.7-25.5,26.1Zm-15.2-57.5c-1.8,8.9,10,30.1,16.9,29.5C218.2,213,209.6,198,200.1,195.4ZM73,257.4c5.5-11.3,4.3-27.9-2.3-33.1C64.1,233,65.4,252.5,73,257.4Zm135.1,0c7.3-5.1,8.6-24.1,2.3-33.3C203.6,229.3,202.4,247.5,208.1,257.4ZM64.2,225.1c8.9-3.3,19.7-23.5,16.1-29.6C71.2,198.5,62.6,214.1,64.2,225.1Zm142.4-41.8c1.1-11.8,1-23.3-8.2-33.1-5.2,10.6.4,32.3,8.2,33.1ZM82.7,150.2c-9.2,9.8-9.7,21.1-8.2,33C82.7,181,87.4,162,82.7,150.2Zm69.4-26a19,19,0,0,0-26.6,2.6,17.22,17.22,0,0,0-2.8,4.7,18.91,18.91,0,0,0,8.6,23.9l.2.7a10.08,10.08,0,0,0,1.2,2.3,3.55,3.55,0,0,0,1.6,1.1,2.05,2.05,0,0,0,1.1,0,3,3,0,0,0,1-.4,2.59,2.59,0,0,0,1.2-1.7,7.44,7.44,0,0,0,.2-2.6,10.68,10.68,0,0,0-.3-2.5,2.63,2.63,0,0,0-.7-1.5,3.25,3.25,0,0,0-1.3-1h-.1a11.36,11.36,0,0,1-7-10.2,12,12,0,0,1,7.8-11.6,11.8,11.8,0,0,1,15.2,6.9,11.29,11.29,0,0,1-.6,9.5,11.9,11.9,0,0,1-5.9,5.6h-.1l-.3.1-.3.2-.2.2-.3.2c-.2.3-.4.5-.6.8l-.1.2v.1l-.1.2a.6.6,0,0,0-.1.4,5,5,0,0,0-.2,1.2,10.87,10.87,0,0,0-.1,1.8l-.1,3.2v3.1a6.81,6.81,0,0,1-.8,3.1h0a3.78,3.78,0,0,0-.4,2.1,4.66,4.66,0,0,0,.6,2,4.18,4.18,0,0,0,3.7,1.9,3.61,3.61,0,0,0,2-.6,4.37,4.37,0,0,0,1.9-3.6,3.61,3.61,0,0,0-.6-2,7.54,7.54,0,0,1-.9-2.9c-.1-1-.1-2-.1-3a26.35,26.35,0,0,1,.2-2.8c0-.2.1-.4.1-.6a18.74,18.74,0,0,0,8.8-24.9,16.24,16.24,0,0,0-4.8-6.2ZM145,143.7l-4.8-4.8-4.8-4.8-.4-.4a7.32,7.32,0,0,0,10.3,10.4Z"/><g class="cls-7"><path class="cls-8" d="M351.71,249.18l-10.6-1.47.89-7-3.55-.37-.88,6.92-3.53-.5.65-5.1c.1-.85.24-1.7.3-2.55l.2-2.57,10.66.92c-.1,1.21-.16,2.41-.3,3.61l-.46,3.59,3.55.43c.18-1.52.4-3,.55-4.56l.35-4.58.35-4.58c.15-1.53.11-3.06.17-4.59l-3.56-.13-.1,3.61-.28,3.6-10.67-.73.26-3.42.09-3.42.18-6.85h3.56l-.27,10.46,3.56.18.19-7.1,10.7.19-.16,6.53c-.1,2.18-.31,4.35-.46,6.52l-.25,3.26c-.07,1.09-.16,2.18-.32,3.26Zm-4.45,22.93,1.47-6.38.73-3.19.58-3.22,1.15-6.44-10.57-1.66-1.25,7-3.5-.68.91-5.15.46-2.57.33-2.59-3.53-.5c-.24,2.28-.67,4.52-1.08,6.76l-.6,3.37c-.2,1.13-.38,2.26-.66,3.36l10.47,2.22c.29-1.17.49-2.36.7-3.54l.64-3.56L347,256c-.55,3-1,6-1.77,9l-1,4.48-.51,2.24c-.18.74-.41,1.47-.62,2.21l-3.44-.92.49-1.74.41-1.76.82-3.52-10.43-2.4-1.16,5-1.41,4.94,3.43,1,.95-3.35.48-1.68.4-1.69,3.46.86-.4,1.72-.49,1.71-1,3.41,10.29,3C346.09,276.31,346.74,274.22,347.26,272.11Zm-7,22.28c.42-1,.78-2,1.12-3.07l1.05-3.1c.67-2.07,1.44-4.12,2-6.22l-10.24-3.12c-.66,2.27-1.49,4.49-2.22,6.74l-3.38-1.17,1.68-4.95c.54-1.65,1-3.35,1.46-5l-3.43-1c-1.14,4.42-2.75,8.7-4.17,13l10.05,3.66,2.32-6.84,3.39,1.1-1.47,4.35c-.5,1.45-1,2.92-1.54,4.33-1.13,2.85-2.23,5.71-3.39,8.54l-3.28-1.39c.91-2.23,1.77-4.49,2.67-6.73l-10-3.83c-1.26,3.18-2.46,6.4-3.94,9.49l3.26,1.45,1.44-3.17c.46-1.07.86-2.16,1.29-3.24l3.31,1.34c-.44,1.1-.85,2.21-1.32,3.29l-1.46,3.24,9.78,4.36C337.18,302.55,338.65,298.44,340.28,294.39ZM323,330.09l1.63-2.83,3.26-5.68,3-5.81c1-1.94,2-3.88,2.87-5.88l-9.7-4.53c-.93,2.18-2.06,4.26-3.13,6.37l-3.18-1.62c.78-1.56,1.62-3.09,2.36-4.67l2.15-4.77L319,299.22c-1,2.07-1.83,4.18-2.86,6.22L313,311.53l9.44,5,3.29-6.42L329,311.7l-4.2,8.18-4.58,8L317.13,326l3.6-6.28-9.35-5.19L308.81,319l-1.28,2.22-1.39,2.17,3,1.89c1.3-1.93,2.43-4,3.59-6l3.09,1.79c-1.18,2.05-2.33,4.12-3.65,6.08l9.07,5.68C321.84,331.93,322.45,331,323,330.09Zm-15.2,21.84c1.33-1.73,2.72-3.41,4-5.17l3.79-5.33c.62-.9,1.28-1.77,1.88-2.68l1.76-2.75-9-5.84-1.91,3L306.3,336,303.38,334c2.08-2.8,3.89-5.78,5.78-8.71l-3-1.89-3.7,5.76-4,5.58,8.66,6.3,4.18-5.88,3,2-5.33,7.49c-1.82,2.46-3.76,4.84-5.64,7.25l-2.77-2.24L305,344l-8.54-6.45-3.18,4c-1.07,1.35-2.09,2.73-3.24,4l2.73,2.29,1.14-1.32,1.08-1.37,2.15-2.74,2.81,2.2-2.19,2.79-1.1,1.4-1.16,1.34,8.2,6.88C305.16,355.39,306.44,353.63,307.81,351.93ZM287.72,374c1.56-1.52,3.2-3,4.67-4.57,3-3.16,6.07-6.26,8.86-9.62l-8.07-7c-1.55,1.79-3.08,3.6-4.74,5.28l-2.61-2.43,1.8-1.9,1.71-2,3.43-4L290,345.54l-4.49,5.18c-1.51,1.7-3.13,3.31-4.7,5l7.7,7.44c1.65-1.76,3.36-3.46,4.95-5.26l2.65,2.39c-2,2.27-4.2,4.45-6.3,6.68-1,1.13-2.15,2.18-3.27,3.23l-3.32,3.17-2.44-2.61,5.24-5-7.57-7.57c-2.49,2.35-4.94,4.76-7.47,7.07l2.39,2.65c1.73-1.54,3.38-3.19,5.07-4.78l2.48,2.56c-1.73,1.62-3.4,3.3-5.17,4.87L283,378.5C284.6,377.06,286.13,375.51,287.72,374ZM280.14,381l-7-8.08-2.68,2.33-1.34,1.16-1.4,1.1-2.24-2.77c1.39-1.05,2.68-2.23,4-3.37l4-3.42L271,365.25l-5.18,4.48-1.29,1.13-1.35,1.05L260.51,374l6.59,8.43,2.84-2.23,1.42-1.12,1.36-1.18,2.3,2.73c-4.72,3.91-9.54,7.7-14.58,11.18l-2.05-2.92c2-1.41,4-2.76,5.87-4.23l-6.45-8.54c-2.74,2.05-5.57,4-8.35,6l2,3,5.69-4,2.1,2.88-5.79,4.12,6,8.86A222.23,222.23,0,0,0,280.14,381Zm-40.75,27.93c1-.51,2-1,2.9-1.52l2.84-1.62,5.66-3.27,5.51-3.53-5.84-9c-2,1.26-4,2.59-6,3.8l-1.84-3.06c3-1.82,5.88-3.74,8.82-5.61l-2-3c-3.87,2.43-7.63,5-11.64,7.22l5.36,9.26c2.09-1.19,4.19-2.37,6.19-3.71l1.89,3c-2.54,1.71-5.25,3.15-7.89,4.7-1.34.75-2.64,1.56-4,2.26L235.28,407l-1.63-3.17,3.22-1.65,1.61-.83,1.57-.91-5.2-9.35c-1.47.89-3,1.64-4.53,2.42l-4.58,2.35,1.57,3.2,6.2-3.18,1.68,3.15-6.32,3.24,4.7,9.61ZM212.06,421c1-.34,2.05-.74,3.07-1.14l3-1.2,3-1.2c1-.4,2-.79,3-1.26l6-2.7-4.53-9.69-6.46,2.92-1.4-3.28c3.17-1.46,6.38-2.83,9.51-4.36l-1.57-3.2c-2,1-4.15,1.9-6.22,2.86l-3.11,1.41c-1,.45-2.13.85-3.18,1.27l4,9.93c1.12-.45,2.25-.87,3.35-1.35l3.29-1.48,1.45,3.26c-1.4.62-2.78,1.28-4.19,1.86l-4.28,1.69L212.59,417c-1.44.54-2.9,1-4.35,1.5l-1.16-3.37,3.43-1.16c1.13-.41,2.24-.88,3.37-1.31l-3.84-10c-3.16,1.34-6.45,2.3-9.69,3.44l1.11,3.39,6.6-2.23,1.22,3.35-6.72,2.27,3.3,10.18Zm-28.76,8.11,6.37-1.47,3.19-.74c1.06-.26,2.1-.58,3.15-.87l6.3-1.79L199.18,414l-6.83,1.94-.92-3.45,5-1.42,2.52-.72,2.48-.83-1.11-3.39c-2.14.78-4.35,1.35-6.55,2l-3.29.94-1.64.47-1.67.39,2.58,10.38,1.76-.41,1.74-.49,3.47-1,1,3.43L193.31,423c-1.47.44-3,.71-4.47,1.08l-4.47,1-2.24.52-2.26.4-.68-3.5c2.38-.37,4.72-1,7.07-1.52l-2.4-10.43c-1.67.38-3.33.8-5,1.14l-5.06.9.61,3.52,3.43-.61c1.15-.21,2.3-.4,3.42-.68l.74,3.49c-1.15.29-2.31.48-3.48.69l-3.49.62,1.84,10.54C179,429.84,181.16,429.49,183.3,429.06Zm-32.87,4.18c1.09-.05,2.17-.15,3.26-.23l6.52-.5c1.09-.06,2.17-.2,3.25-.34l3.25-.41c2.16-.29,4.33-.51,6.48-.87l-1.66-10.57c-2.34.38-4.7.62-7,.93l-.43-3.54,5.19-.66c1.73-.21,3.43-.59,5.15-.87l-.61-3.52c-4.48.92-9,1.32-13.56,1.94l1.11,10.65,7.16-.91.5,3.53-4.56.58c-1.52.18-3,.43-4.57.51l-9.16.7-.18-3.56,7.21-.55-.92-10.66c-3.42.23-6.83.61-10.27.61l.12,3.57,3.49-.1,3.48-.27.24,3.56-3.54.27-3.54.1.36,10.7Zm-26.59-.37,3.26.25,1.63.12,1.63,0,6.54.17c1.09,0,2.18.07,3.26.05l3.27-.08-.18-10.7-3.55.09-3.55-.09.06-3.57c3.49.17,7,0,10.46-.08l-.12-3.57-6.85.18-6.85-.18-.37,10.7,7.22.18V430l-9.18-.23c-1.54,0-3.06-.16-4.59-.27l-4.58-.35.31-3.55,7.21.55.55-10.69c-3.42-.28-6.84-.5-10.25-.81l-.37,3.55c2.31.23,4.63.37,7,.55l-.25,3.56c-2.35-.19-4.72-.33-7.07-.56l-1.11,10.65C119.49,432.56,121.67,432.69,123.84,432.87Zm-23.15-3,6.44,1.14,6.49.83,1.29-10.63c-2.35-.31-4.7-.55-7-.93l.56-3.53c3.44.53,6.91.9,10.37,1.36l.37-3.55c-4.53-.62-9.08-1-13.56-1.94l-1.85,10.55c2.37.42,4.74.88,7.13,1.13l-.49,3.53c-3.05-.31-6.05-1-9.07-1.47-1.5-.28-3-.52-4.51-.83l-4.48-1,.8-3.47c2.35.52,4.68,1.14,7.07,1.51l2-10.51c-.84-.16-1.69-.27-2.53-.47l-2.5-.58-5-1.15-.86,3.46,6.79,1.57-.74,3.49-6.91-1.6L87.9,427.17C92.15,428.12,96.38,429.23,100.69,429.91Zm-35.12-9.59c2.05.75,4.13,1.42,6.19,2.13,4.1,1.48,8.33,2.58,12.52,3.78L87,415.89,80.22,414l1-3.41,5,1.43c1.68.46,3.34,1,5,1.35l.86-3.46-1.67-.39L88.89,409l-3.3-.94c-2.19-.63-4.4-1.2-6.55-2l-3.3,10.18c2.26.82,4.6,1.43,6.91,2.09l-1,3.43-4.42-1.25-4.36-1.47c-2.9-1-5.82-1.91-8.65-3.1l1.28-3.33c1.12.44,2.24.9,3.37,1.31l3.43,1.16L75.8,405c-3.27-1-6.44-2.34-9.63-3.59l-1.34,3.3c2.17.85,4.32,1.73,6.5,2.54l-1.22,3.36c-2.22-.84-4.41-1.73-6.61-2.59l-4,9.92ZM38.34,408l5.82,3c1,.49,1.93,1,2.91,1.48l3,1.35,6,2.69,4.18-9.85-6.47-2.92,1.51-3.23c3.2,1.4,6.32,3,9.59,4.16l1.34-3.3c-1.06-.43-2.13-.82-3.18-1.27l-3.12-1.42c-2.06-1-4.18-1.83-6.21-2.86L49,405.46c2.14,1.09,4.37,2,6.56,3l-1.46,3.26c-2.78-1.28-5.61-2.46-8.31-3.92l-4.09-2.09-2-1.05c-.68-.36-1.34-.76-2-1.13l1.73-3.12,1.57.9,1.6.83,3.22,1.65,4.87-9.53L46,391.93l-4.46-2.57-1.79,3.09,3,1.74,1.51.87,1.55.8L44.2,399l-1.58-.82-1.54-.88L38,395.54l-5.36,9.26C34.54,405.88,36.41,407,38.34,408ZM18.43,395.84c1.75,1.3,3.63,2.41,5.45,3.61s3.65,2.38,5.53,3.49l5.52-9.17c-2-1.21-4-2.53-6-3.8l1.95-3,4.4,2.83c1.47.94,3,1.76,4.51,2.64l1.79-3.09c-4-2.18-7.77-4.79-11.64-7.21L24,391l6.08,3.9-1.9,3-3.86-2.48c-1.3-.82-2.59-1.65-3.82-2.56-2.49-1.79-5-3.51-7.46-5.36l2.15-2.85c1.91,1.47,3.91,2.82,5.87,4.23l6.14-8.76-4.19-3c-1.4-1-2.71-2.1-4.07-3.15l-2.2,2.81c1.83,1.44,3.64,2.9,5.56,4.21l-2.1,2.89c-2-1.34-3.8-2.82-5.66-4.29L7.9,388.08C11.28,390.85,14.88,393.31,18.43,395.84ZM-12,370.46c.76.79,1.57,1.52,2.35,2.28l4.73,4.51c1.59,1.49,3.28,2.87,4.91,4.31s3.26,2.9,5,4.21l6.74-8.31-1.39-1.1L9,375.2l-2.68-2.32,2.34-2.69,3.95,3.42,4.11,3.23,2.2-2.81-2.69-2.11-1.35-1.06-1.29-1.12-5.18-4.49-7.17,8,5.46,4.72-2.29,2.74c-2.3-2-4.66-4-6.92-6.05l-6.65-6.34,2.53-2.53,5.23,5,7.3-7.83c-2.47-2.38-5-4.68-7.33-7.21L-4,358.18l2.4,2.53,2.53,2.4-2.48,2.57-2.57-2.45-2.45-2.57-7.7,7.44Zm-19.56-22.57,2,2.57,4,5.14,4.28,4.94L-19.1,363c.72.82,1.49,1.59,2.23,2.39L-9,358.09c-1.67-1.68-3.19-3.49-4.74-5.28l2.69-2.34c1.16,1.31,2.25,2.67,3.46,3.93L-4,358.18l2.56-2.47c-1.56-1.67-3.18-3.28-4.7-5l-4.48-5.18-8.2,6.89,4.73,5.45-2.65,2.39-6-6.94-5.68-7.23L-25.6,344l4.47,5.69,8.31-6.74-3.18-4-1.59-2-1.49-2.1-2.88,2.1c1.31,1.92,2.77,3.73,4.21,5.56l-2.81,2.2c-1.47-1.87-3-3.71-4.29-5.66l-8.65,6.3C-32.86,346.12-32.25,347-31.59,347.89Zm-17-26.51.81,1.42,1.63,2.84c1.11,1.88,2.14,3.8,3.31,5.64l3.52,5.51c.6.91,1.16,1.85,1.79,2.74l1.89,2.66,8.77-6.14-2.06-2.9-1.92-3,3-1.95c1.82,3,3.92,5.76,5.93,8.62l2.88-2.1-4-5.58-3.7-5.77-9.07,5.68,3.9,6.08-2.95,2-5-7.74c-1.61-2.6-3.08-5.29-4.63-7.94l3.12-1.73,3.61,6.27,9.17-5.52L-31.12,316c-.85-1.49-1.76-2.95-2.5-4.49l-3.15,1.68.8,1.54.87,1.52,1.74,3-3.09,1.78L-38.22,318l-.88-1.54-.82-1.58-9.44,5Zm-2.45-4.78,9.53-4.87c-1.07-2.11-2.2-4.19-3.12-6.36l3.23-1.51c.36.79.71,1.59,1.08,2.37l1.2,2.33,2.38,4.66,3.15-1.68-3.12-6.1c-1-2-1.91-4.14-2.87-6.21l-9.77,4.36c1,2.18,1.93,4.41,3,6.55l-3.2,1.57c-1.37-2.74-2.56-5.57-3.84-8.35l-.94-2.1-.85-2.13-1.68-4.28,3.33-1.28c.89,2.24,1.75,4.49,2.67,6.72l9.85-4.18q-1.92-4.77-3.77-9.57l-3.35,1.22c.82,2.18,1.69,4.33,2.54,6.49l-3.31,1.34c-.86-2.2-1.75-4.39-2.59-6.61l-10,3.67A220.37,220.37,0,0,0-51.07,316.6Zm-17.22-46.31c.26,1,.47,2.13.77,3.17l.89,3.15,1.79,6.3,2.09,6.2,10.12-3.49c-.74-2.25-1.57-4.46-2.23-6.74l3.41-1c1,3.33,2.21,6.61,3.31,9.92l3.35-1.22c-1.43-4.33-3-8.61-4.18-13l-10.29,2.94c.67,2.32,1.28,4.65,2.1,6.91l-3.4,1.1-.73-2.17c-.24-.73-.43-1.47-.65-2.21l-1.25-4.42c-.4-1.48-.88-2.94-1.22-4.43l-1-4.48L-62,266l.81,3.53.41,1.76.5,1.74,10.34-2.77c-.51-1.63-.86-3.31-1.25-5l-1.16-5-3.49.74,1.57,6.79-3.46.86-1.6-6.91-10.47,2.21Zm-5.06-29.45c.23,2.17.53,4.33.8,6.49.46,4.34,1.31,8.62,2.07,12.92l10.5-2-1.24-7,3.52-.56.92,5.15.46,2.58.23,1.28.29,1.28,3.49-.74c-.28-1.11-.46-2.24-.66-3.36l-.6-3.37c-.4-2.25-.84-4.49-1.08-6.76l-10.6,1.48c.26,2.39.71,4.76,1.14,7.13l-3.52.61-.8-4.52-.58-4.56c-.38-3-.83-6.07-1-9.13l3.55-.31c.11,1.2.16,2.41.3,3.61l.46,3.58,10.62-1.29-.32-2.55-.17-1.27-.09-1.29-.39-5.13-3.56.25c.19,2.32.33,4.64.55,6.95l-3.55.37c-.23-2.35-.37-4.72-.56-7.07l-10.68.73Zm-.75-33.11c-.09,1.09-.07,2.18-.11,3.27l-.17,6.53c-.1,2.18,0,4.36.07,6.53l.18,6.54,10.69-.55-.19-7.1,3.57-.06c.1,3.49.1,7,.45,10.45l3.56-.25-.27-3.41-.09-3.43-.17-6.85H-67.29l.18,7.22-3.56.12-.12-4.59c0-1.53-.09-3.06,0-4.59l.24-9.18,3.57.18-.2,7.23,10.7.19c.1-3.43.11-6.87.45-10.28l-3.56-.25-.27,3.48-.09,3.49-3.57-.13.1-3.54.27-3.54-10.68-.74Zm3.7-29.64-.58,3.22c-.36,2.15-.81,4.28-1.1,6.45l-.82,6.48-.41,3.25-.26,3.26,10.67.92c.1-1.18.15-2.36.29-3.54l.45-3.52,3.54.43-.33,2.6-.17,1.29-.1,1.31-.39,5.21,3.56.25c.18-2.28.32-4.56.54-6.83l.86-6.79-10.6-1.48-.91,7.16-3.55-.37,1.16-9.11c.44-3,1-6,1.57-9.06l3.5.68L-64.75,187l10.57,1.66.91-5.06.45-2.53.22-1.26.29-1.26-3.49-.73c-.28,1.12-.47,2.27-.67,3.41l-.62,3.44-3.51-.62.62-3.49c.21-1.17.4-2.34.69-3.48l-10.47-2.22C-70,175.94-70.22,177-70.4,178.09Zm6.75-25.75-1.05,3.1c-.33,1-.6,2.1-.91,3.15l-1.78,6.29c-.6,2.1-1,4.24-1.53,6.36l10.43,2.4.8-3.46.4-1.73.49-1.7,3.45.92c-.52,1.67-.87,3.37-1.27,5.07l-1.18,5.1,3.49.73,1.54-6.67.39-1.66.47-1.65.94-3.29-10.29-3-1,3.48-.49,1.73-.41,1.76-3.47-.86c.32-1.5.76-3,1.18-4.44l1.25-4.42c.78-3,1.85-5.84,2.81-8.75L-56,152c-.75,2.29-1.59,4.55-2.26,6.87L-48,162c1-3.27,2.18-6.5,3.25-9.75L-48.14,151l-2.24,6.6-3.39-1.1,2.27-6.72-10-3.66Zm8.52-21.73c-.89,2-1.82,4-2.67,6l-2.4,6.08,10,3.84c.87-2.2,1.72-4.41,2.62-6.59l3.28,1.39q-1.95,4.84-3.83,9.73l3.35,1.22c.8-2.14,1.67-4.25,2.49-6.37.43-1.06.82-2.14,1.27-3.18l1.42-3.12-9.78-4.36-1.49,3.29c-.47,1.11-.89,2.24-1.34,3.35l-3.31-1.34c1.07-2.87,2.38-5.64,3.64-8.43L-50,127.9l2.09-4.09,3.18,1.63c-1.09,2.15-2.24,4.27-3.19,6.49l9.7,4.53c.35-.78.69-1.57,1.06-2.34l1.18-2.29,2.34-4.58-3.15-1.67-3.18,6.2-3.2-1.56,3.23-6.32-9.44-5C-51.34,122.76-53.42,126.59-55.13,130.61Zm17.84-31.72c-1.25,1.78-2.38,3.65-3.57,5.48-2.43,3.62-4.54,7.44-6.72,11.22l9.36,5.19,3.54-6.15,3.06,1.84L-34.23,121c-.86,1.51-1.78,3-2.54,4.57l3.15,1.67.78-1.52.86-1.48,1.71-3c1.13-2,2.24-4,3.52-5.87l-9.07-5.68c-1.34,2-2.52,4.1-3.72,6.19l-3.09-1.78,2.3-4,2.48-3.86,2.48-3.87c.82-1.3,1.75-2.51,2.62-3.77l2.93,2-2.1,3-1.95,3,9,5.84c1.78-2.93,3.85-5.67,5.82-8.48L-22,102-26,107.64l-2.95-2,4.11-5.79-8.65-6.29ZM-18.8,75.43l-4.28,4.94-2.14,2.47c-.71.83-1.36,1.71-2,2.56l-4,5.14L-22.76,97l4.39-5.58,2.77,2.24-3.23,4.12-1.62,2L-22,102l2.88,2.1c1.29-1.89,2.73-3.66,4.14-5.46l2.11-2.69,1.06-1.35,1.12-1.29-8.2-6.88L-20,87.74l-1.11,1.42L-23.37,92l-2.81-2.2,2.84-3.61c.93-1.21,2-2.33,3-3.5,2-2.3,3.95-4.69,6.11-6.86l2.61,2.43c-1.7,1.72-3.25,3.56-4.83,5.39l8.07,7c1.14-1.28,2.22-2.62,3.4-3.86l3.55-3.72L-4,80.61c-1.59,1.69-3.24,3.33-4.79,5.07l-2.65-2.38c1.57-1.77,3.25-3.44,4.87-5.17l-7.7-7.44ZM-11.71,68l7.57,7.57L1,70.66l2.43,2.61C.92,75.69-1.67,78-4,80.61l2.56,2.48L.9,80.61l2.48-2.37c1.67-1.56,3.28-3.18,5-4.69l-7.17-8c-1.8,1.59-3.5,3.3-5.25,5L-6.53,68c4.37-4.29,9-8.3,13.74-12.19l2.25,2.77L8,59.68,6.67,60.86,3.93,63.23l7,8.07,3.89-3.37,4-3.17L16.69,62,14,64.1l-1.37,1.08-1.32,1.14L9,63.59l1.34-1.16,1.39-1.1,2.79-2.19L7.9,50.71A223.3,223.3,0,0,0-11.71,68ZM21.52,40.86c-1.86,1.14-3.59,2.47-5.38,3.72s-3.58,2.49-5.3,3.82L17.28,57c1.88-1.44,3.85-2.77,5.76-4.15l2.05,2.92-4.26,3c-1.42,1-2.76,2.14-4.14,3.2l2.2,2.81c3.53-2.91,7.34-5.43,11-8.11l-6-8.86L18.05,52,16,49.09l3.75-2.67c1.24-.89,2.48-1.78,3.79-2.59,2.59-1.64,5.14-3.34,7.76-4.92L33.09,42C31,43.2,29,44.55,27,45.83l5.83,9L37.14,52c1.44-.93,3-1.73,4.44-2.6l-1.79-3.09c-2,1.16-4,2.29-6,3.59l-1.89-3c2-1.32,4-2.47,6.09-3.65L32.65,34C28.82,36.09,25.19,38.51,21.52,40.86ZM56.44,22.07l-3,1.34-6,2.7c-2,.93-3.89,2-5.84,2.95S37.75,31,35.88,32.13l5.2,9.35,1.54-.88,1.58-.82,3.15-1.61L49,41.34l-4.66,2.39-4.53,2.61,1.79,3.09,3-1.71L46,46.87l1.52-.79L53.65,43,49,33.34l-6.43,3.3-1.68-3.15c2.73-1.39,5.44-2.83,8.2-4.16l8.37-3.79,1.4,3.29-6.6,3,4.53,9.69c3.14-1.38,6.21-2.91,9.43-4.09L64.83,34.1c-1.07.43-2.16.83-3.23,1.29l-3.18,1.44L57,33.57l3.23-1.46c1.09-.47,2.2-.88,3.3-1.32l-4-9.92ZM86.3,12l-1.57.44-3.15.9c-2.09.61-4.21,1.15-6.28,1.82l-6.2,2.1L66,18.3l-3,1.2,3.84,10c1.1-.43,2.19-.89,3.3-1.29l3.37-1.13,1.16,3.37c-3.33,1-6.55,2.38-9.8,3.66l1.34,3.31c2.13-.83,4.24-1.7,6.38-2.5L79,32.72l-3.3-10.18-6.85,2.31L67.66,21.5l8.71-2.95c2.93-.91,5.89-1.69,8.83-2.54l.92,3.44-7,2,3.13,10.24,4.94-1.41c1.66-.45,3.29-1,5-1.32l-.86-3.47-1.7.4L88,26.35l-3.36.95-1-3.43,3.41-1,1.71-.49,1.73-.4L87.9,11.62Zm5.24-1.21,2.4,10.43c2.3-.51,4.59-1.12,6.93-1.48l.68,3.5c-.86.16-1.72.28-2.57.48l-2.55.59-5.09,1.17.86,3.47,6.67-1.54c1.11-.29,2.23-.47,3.36-.67l3.37-.6-1.85-10.54-3.55.63c-1.19.21-2.38.41-3.54.7l-.74-3.49c6-1.19,12-2.3,18.13-3l.43,3.55c-2.39.32-4.79.56-7.17.95L109,25.53c3.39-.52,6.8-.89,10.2-1.34l-.37-3.55-6.92.88L111.39,18l7-.9L117.32,6.44A222.62,222.62,0,0,0,91.54,10.78ZM140.63,5.3c-2.18,0-4.36.08-6.54.12s-4.35,0-6.53.22L121,6.13,122,16.8l7.08-.54.19,3.56c-3.48.28-7,.51-10.43.82l.37,3.55c2.27-.22,4.55-.36,6.82-.54l3.42-.26,3.42-.1-.36-10.69-3.61.1-3.6.27L125,9.41c1.53-.1,3-.27,4.58-.31l4.6-.12,4.59-.11c1.53-.06,3.06.05,4.59.07l-.06,3.56-3.62-.09-3.61.09.18,10.71c3.43-.17,6.86,0,10.29.08l.12-3.56-7-.18V16l7.1.18.36-10.7Zm23.29,1.38c-2.16-.32-4.33-.45-6.51-.62l-6.52-.49-.55,10.69,7.08.54-.31,3.55c-3.48-.23-7-.62-10.44-.62l-.12,3.56,3.43.09,3.41.27c2.28.18,4.56.32,6.83.54l1.11-10.65c-2.4-.23-4.8-.38-7.2-.57l.24-3.56,4.58.35,2.29.18,2.28.28c3,.41,6.09.73,9.11,1.21L172.08,15c-2.38-.39-4.78-.63-7.17-.95l-1.29,10.62,5.1.65c1.7.21,3.38.58,5.07.86l.61-3.52c-2.29-.41-4.57-.85-6.88-1.09L168,18c2.36.24,4.68.69,7,1.11l1.84-10.54C172.58,7.7,168.25,7.24,163.92,6.68Zm38.83,8.05-3.14-.89-6.3-1.79-6.37-1.48c-2.13-.48-4.24-1-6.4-1.35l-2,10.5c2.34.37,4.63,1,6.94,1.49l-.8,3.48c-1.7-.38-3.39-.81-5.1-1.16l-5.15-.92-.61,3.52,3.37.6c1.12.2,2.25.38,3.35.66l6.68,1.54,2.58-10.38-7-1.63.74-3.49,8.95,2.08L201.26,18l-1,3.41-7-2L190.5,29.79l4.94,1.41,2.48.7,2.43.81,1.11-3.39c-2.19-.79-4.44-1.38-6.67-2l1-3.43c2.27.65,4.56,1.25,6.79,2.06l3.3-10.18C204.83,15.41,203.81,15,202.75,14.73Zm24.89,9.45-3-1.35c-1-.45-2-.89-3-1.27-4.07-1.58-8.08-3.3-12.25-4.61l-3.48,10.12,3.36,1.13c1.11.4,2.2.86,3.31,1.29l-1.28,3.33c-3.22-1.36-6.57-2.35-9.85-3.5l-1.11,3.39,6.49,2.2c2.13.8,4.25,1.67,6.37,2.49l4-9.92c-2.25-.87-4.48-1.78-6.73-2.63l1.22-3.35c2.87,1.08,5.71,2.23,8.56,3.35,1.44.53,2.81,1.21,4.21,1.83l4.19,1.89-1.51,3.23-6.59-3-4.19,9.85c3.11,1.44,6.27,2.78,9.35,4.29l1.57-3.21c-2.07-1-4.23-1.94-6.33-2.92l1.45-3.26c2.14,1,4.33,1.9,6.44,3l4.7-9.62C231.63,25.93,229.61,25.1,227.64,24.18Zm9.26,4.45L232,38.16l3.16,1.62,1.58.81,1.53.89-1.73,3.12c-1.49-.9-3.06-1.67-4.61-2.46l-4.65-2.39L225.74,43l6.09,3.12,1.53.78,1.48.86,3,1.7,5.36-9.26L240,38.36l-1.57-.9-1.6-.83,1.67-3.15c5.39,2.93,10.71,6,15.82,9.36l-2,3c-2-1.29-4-2.64-6.11-3.87l-5.52,9.17c2.92,1.79,5.78,3.68,8.68,5.52l2-3-5.87-3.76,1.9-3,6,3.83,6-8.87A221.18,221.18,0,0,0,236.9,28.63ZM278,56c-.83-.71-1.64-1.45-2.49-2.13l-2.57-2-5.14-4L262.49,44l-6.15,8.76c1.92,1.39,3.88,2.71,5.76,4.15L260,59.79c-2.79-2.09-5.67-4.06-8.5-6.1l-2,3c3.69,2.68,7.51,5.2,11,8.1l6.59-8.43c-1.89-1.48-3.77-3-5.76-4.35l2.1-2.89c2.54,1.72,4.88,3.7,7.31,5.57,1.19,1,2.43,1.86,3.58,2.88l3.47,3-2.34,2.7-2.73-2.37-1.37-1.19-1.42-1.11-6.74,8.31c1.37,1,2.64,2.19,3.94,3.31L271,73.54l2.39-2.65-5.28-4.56,2.3-2.74,5.36,4.65L283,60.29Zm17,16c-1.52-1.57-3-3.19-4.55-4.7l-4.73-4.52-7.3,7.83,5.14,4.9L281,78.08c-2.54-2.39-5-4.84-7.6-7.19L271,73.54c1.71,1.52,3.32,3.14,5,4.7l2.48,2.36,2.37,2.48,7.69-7.43L286.05,73l-2.61-2.49L285.92,68c1.09,1.07,2.24,2.08,3.29,3.2l3.17,3.32,3.17,3.33,3,3.47-2.69,2.34c-1.58-1.82-3.14-3.67-4.84-5.38l-7.82,7.3L285,87.42l1.68,2L290,93.25,292.77,91l-4.57-5.27,2.65-2.39,4.65,5.37,8.2-6.89C300.84,78.49,298,75.14,295,72.05Zm22.76,28.38c-1.19-1.82-2.51-3.57-3.75-5.35-2.46-3.61-5.22-7-7.91-10.42l-8.31,6.74L302.14,97l-2.84,2.15L296.06,95c-1.08-1.37-2.12-2.77-3.29-4.06L290,93.25l1.12,1.3,1.06,1.35,2.11,2.69c1.41,1.79,2.85,3.57,4.14,5.46l8.65-6.3c-1.36-2-2.87-3.86-4.36-5.76l2.81-2.19,2.84,3.61,2.66,3.74,2.66,3.75c.91,1.24,1.68,2.56,2.52,3.84l-3,1.94-1.95-3-2.1-3-8.76,6.15c2.05,2.75,3.82,5.69,5.69,8.57l3-1.9-3.76-5.87,3-2,3.83,6,9.07-5.68Zm14.86,25.92-3-5.82-1.5-2.91c-.51-1-1.07-1.9-1.61-2.85l-3.26-5.66-9.17,5.52,3.54,6.15-3.12,1.73L311.88,118l-1.3-2.27-1.42-2.2-3,1.9c1.27,1.89,2.39,3.89,3.52,5.87l1.71,3,.85,1.49.79,1.52,9.44-5-.82-1.61-.9-1.56-1.8-3.13,3.08-1.79,2.29,4c.79,1.32,1.43,2.72,2.14,4.07l2.1,4.09c.34.68.71,1.36,1,2l.94,2.09-3.23,1.51c-1-2.22-2.1-4.34-3.19-6.49l-9.53,4.87c.77,1.53,1.59,3,2.32,4.59l2.11,4.68,3.26-1.45c-1-2.11-1.86-4.26-2.92-6.33l3.21-1.57c1.07,2.11,2,4.3,3,6.45l9.78-4.36Zm4.24,9.36L327,139.9c.9,2.19,1.75,4.4,2.62,6.59l-3.33,1.28c-1.28-3.24-2.5-6.5-4-9.65L319,139.57l1.42,3.12c.44,1.05.84,2.12,1.26,3.18.83,2.12,1.7,4.24,2.5,6.37l10.06-3.66c-.85-2.25-1.76-4.48-2.63-6.72l3.3-1.34,1.69,4.27.84,2.14.74,2.18c1,2.91,2,5.79,2.9,8.72l-3.42,1c-.67-2.31-1.51-4.58-2.26-6.87l-10.12,3.49,1.65,4.87c.53,1.62.95,3.29,1.43,4.93l3.43-1c-.64-2.23-1.22-4.49-2-6.67l3.39-1.1c.81,2.22,1.41,4.51,2.06,6.79l10.29-3A218.69,218.69,0,0,0,336.83,135.71Zm14.44,50.66-.57-3.22-1.15-6.44c-.45-2.14-1-4.26-1.45-6.38s-.93-4.27-1.57-6.35l-10.34,2.76.49,1.71.4,1.73.8,3.45-3.48.8-1.18-5.09-1.43-5-3.43,1,.94,3.29.47,1.65.39,1.67,1.54,6.67,10.47-2.22-1.63-7,3.47-.87c.68,3,1.4,6,2,9l1.62,9.05-3.53.56-1.27-7.13-10.51,2,.9,5.07.46,2.53.32,2.55,3.53-.49c-.24-2.32-.68-4.6-1.09-6.89l3.51-.61c.42,2.33.87,4.65,1.12,7l10.6-1.47C351.56,188.53,351.45,187.44,351.27,186.37Zm2.38,26.49c-.07-2.18-.06-4.36-.27-6.53-.36-4.34-.56-8.7-1.2-13l-10.63,1.29.45,3.53c.14,1.17.19,2.35.29,3.53l-3.55.31-.2-2.61c-.07-.87-.21-1.73-.31-2.6l-.66-5.18-3.53.49.86,6.79c.22,2.27.36,4.56.54,6.83l10.68-.74c-.19-2.39-.34-4.8-.57-7.19l3.55-.37c.28,3.05.48,6.1.72,9.16.05.76.13,1.52.16,2.29l.06,2.29.12,4.6-3.57.06-.2-7.23-10.68.55L336,219.4h3.56l-.17-7,3.56-.12.18,7.1h10.7Z"/></g><g class="cls-9"><path class="cls-10" d="M310.67,230.44l-3.63-.23c.1-1.2.2-2.39.2-3.6l3.64.16C310.87,228,310.77,229.22,310.67,230.44Zm.39-11h-3.63l-.09,3.61,3.63.07Zm-.67,14.72-3.62-.31m2.83,7.63L306,241l-.45,3.57,3.59.55Zm.79-7.32-3.62-.31c-.11,1.19-.14,2.4-.32,3.59l3.62.39C310.25,236.57,310.28,235.34,310.39,234.12Zm-1.89,14.61-3.58-.62M307.1,256l-3.55-.77-.81,3.51,3.53.85Zm1.4-7.23-3.58-.62-.63,3.55,3.57.69Zm-3.11,14.4-3.51-.93m1.5,8-3.48-1.08-1.15,3.41,3.45,1.16Zm2-7.09-3.51-.93-1,3.47,3.5,1ZM301,277.2,297.59,276m.77,8.1L295,282.7c-.43,1.12-.88,2.23-1.39,3.32l3.33,1.45C297.46,286.36,297.92,285.22,298.36,284.07ZM301,277.2,297.59,276c-.36,1.15-.84,2.25-1.27,3.37l3.39,1.3C300.15,279.5,300.65,278.37,301,277.2Zm-5.6,13.63-3.3-1.53m.07,8.15L289,295.78,287.3,299l3.2,1.74Zm3.23-6.62-3.3-1.53c-.51,1.09-1,2.21-1.52,3.28l3.27,1.59C294.43,293.08,294.89,291.94,295.41,290.83Zm-6.74,13.1-3.16-1.81m-.62,8.13-3.08-1.94-1.95,3,3,2Zm3.78-6.32-3.16-1.81-1.8,3.13,3.12,1.87Zm-7.83,12.47-3-2.06m-1.31,8-2.9-2.19L271.41,323l2.85,2.25Zm4.3-6-3-2.06-2.09,2.94,2.95,2.13ZM272,328.18l-2.8-2.32m-2,7.88-2.7-2.43c-.76.93-1.64,1.76-2.46,2.64l2.65,2.49C265.48,335.54,266.37,334.69,267.15,333.74Zm4.83-5.56-2.8-2.32-2.36,2.73,2.75,2.37ZM262.1,339.1l-2.6-2.54m-2.68,7.68-2.48-2.65c-.88.82-1.72,1.68-2.65,2.45l2.43,2.71C255.06,346,255.92,345.08,256.82,344.24Zm4-3.81,1.28-1.33-2.6-2.54-1.24,1.3L257,339.1l2.54,2.6Zm-9.49,8.73L249,346.4m-3.32,7.43L243.39,351l-2.84,2.22,2.19,2.91Zm5.69-4.67L249,346.4l-2.73,2.35,2.31,2.81Zm-11.58,9.11-2.12-3m-3.94,7.14-2-3-3,1.94,1.92,3.08Zm6.06-4.18-2.12-3-2.94,2.09,2.06,3Zm-12.3,8.1-1.86-3.13M221.05,370l-1.73-3.2-3.21,1.64,1.66,3.24Zm6.4-3.65-1.86-3.13-3.13,1.8,1.79,3.16Zm-13,7-1.59-3.27m-5.12,6.33-1.44-3.34c-1.09.52-2.21,1-3.33,1.39l1.37,3.37C205.53,377.4,206.67,377,207.78,376.43Zm6.71-3.06-1.59-3.27c-1.07.55-2.18,1-3.27,1.51l1.51,3.31C212.26,374.4,213.39,373.93,214.49,373.37ZM201,379.2l-1.29-3.4M194,381.67l-1.15-3.44-3.41,1.14,1.07,3.48ZM201,379.2l-1.29-3.4c-1.13.44-2.23.91-3.38,1.27l1.23,3.42C198.68,380.13,199.81,379.64,201,379.2Zm-14,4.65-1-3.49m-6.13,5.37-.85-3.54-3.51.81.77,3.56Zm7.13-1.88-1-3.49-3.47,1,.92,3.52Zm-14.33,3.46-.69-3.57m-6.56,4.84-.54-3.6-3.58.46.46,3.6Zm7.25-1.27-.69-3.57-3.55.63L169,388Zm-14.56,2.2-.39-3.62m-7,4.22-.23-3.63c-1.2.09-2.39.2-3.6.2l.16,3.63C148.29,390.31,149.52,390.21,150.74,390.11Zm7.35-.6-.39-3.62c-1.19.18-2.39.21-3.59.32l.31,3.62C155.64,389.72,156.87,389.69,158.09,389.51Zm-14.71.9-.07-3.64M136,390.41l.07-3.64-3.6-.09-.16,3.63Zm7.36,0-.07-3.64-3.61.09v3.64Zm-14.72-.3.23-3.63m-7.58,3,.39-3.62-3.58-.45-.46,3.6Zm7.35.6.23-3.63-3.6-.27-.31,3.62ZM114,388.58l.54-3.6m-7.79,2.33.69-3.57c-1.19-.19-2.36-.46-3.53-.74l-.77,3.56C104.33,386.84,105.53,387.11,106.75,387.31Zm7.25,1.27.54-3.6c-1.19-.17-2.36-.41-3.55-.61l-.62,3.58C111.58,388.16,112.79,388.4,114,388.58Zm-14.45-2.85.85-3.54m-8,1.66,1-3.49-3.47-1-1.07,3.48Zm7.13,1.88.85-3.54c-1.17-.28-2.36-.49-3.51-.85L96,384.86C97.14,385.22,98.36,385.44,99.55,385.73Zm-14.16-4.06,1.15-3.45m-8.09,1,1.29-3.4-3.35-1.32L75,377.85Zm6.94,2.47,1.15-3.45-3.42-1.15-1.23,3.42Zm-13.77-5.24,1.44-3.34m-8.15.28,1.59-3.27-3.21-1.64-1.66,3.24Zm6.71,3.06,1.44-3.34-3.29-1.48-1.51,3.31ZM58.35,370l1.73-3.2M52,366.37l1.86-3.13c-1.05-.57-2.05-1.24-3.07-1.89l-1.92,3.08C49.85,365.09,50.87,365.78,52,366.37Zm6.4,3.65,1.73-3.2C59,366.25,58,365.63,56.94,365l-1.79,3.16C56.22,368.81,57.27,369.44,58.35,370Zm-12.64-7.57,2-3m-8.07-1.14,2.13-3c-1-.7-2-1.36-2.92-2.11l-2.19,2.91C37.62,356.87,38.65,357.54,39.64,358.27Zm6.07,4.18,2-3c-1-.65-2-1.29-3-2l-2.06,3C43.64,361.13,44.67,361.79,45.71,362.45Zm-12-8.62L36,351m-7.94-1.82,2.37-2.76L27.71,344l-2.43,2.71Zm5.69,4.67L36,351l-2.84-2.23-2.31,2.81Zm-11.18-9.59,2.48-2.65M17.3,339.1l2.6-2.54L17.41,334l-2.65,2.49Zm5.28,5.14,2.48-2.65-2.61-2.49-2.54,2.6Zm-10.33-10.5,2.7-2.43m-7.53-3.14,2.8-2.31L8,323l-2.85,2.25Zm4.83,5.57,2.7-2.43-2.37-2.72L9.83,331ZM2.86,322.38l2.9-2.19m-7.2-3.79,3-2.06c-.72-1-1.37-2-2-3l-3,2C-2.84,314.39-2.17,315.42-1.44,316.4Zm4.3,6,2.9-2.19c-.75-.93-1.41-1.94-2.12-2.91L.69,319.41C1.42,320.4,2.09,321.43,2.86,322.38Zm-8.35-12.13,3.08-1.94m-6.86-4.39,3.16-1.8c-.6-1-1.21-2.07-1.79-3.13l-3.2,1.74C-10.51,301.8-9.88,302.86-9.27,303.92Zm3.78,6.33,3.08-1.94c-.64-1-1.33-2-1.9-3.06l-3.12,1.87C-6.84,308.2-6.15,309.21-5.49,310.25Zm-7.29-12.8,3.23-1.67M-16,290.83l3.3-1.53L-14.2,286l-3.33,1.45Zm3.23,6.62,3.23-1.67-1.64-3.2-3.27,1.59ZM-19,284.07l3.37-1.38m-6-5.49,3.42-1.23-1.16-3.42-3.45,1.16Zm2.65,6.87,3.37-1.38-1.33-3.35-3.39,1.3Zm-5-13.85,3.48-1.08m-5.49-6,3.51-.93c-.35-1.15-.57-2.33-.86-3.5l-3.53.85C-26.58,260.74-26.36,262-26,263.13Zm2,7.09,3.48-1.08-1-3.47-3.5,1ZM-27.7,256l3.55-.77m-5-6.46,3.58-.62c-.21-1.19-.44-2.37-.62-3.56l-3.59.55C-29.55,246.31-29.31,247.52-29.1,248.73Zm1.4,7.23,3.55-.77c-.28-1.17-.55-2.34-.74-3.53l-3.57.69C-28.26,253.57-28,254.77-27.7,256Zm-2.5-14.52,3.61-.46m-4.4-6.86,3.62-.31-.27-3.6-3.63.23Zm.79,7.32,3.61-.46L-27,237.4l-3.62.39Zm-1.28-14.67,3.64-.16m-3.82-7.21H-28l.09-3.61-3.63-.07Zm.18,7.37,3.64-.16-.1-3.6-3.63.07Zm0-14.74,3.64.16M-31,204.68l3.62.31c.11-1.19.14-2.4.32-3.59l-3.62-.39C-30.85,202.23-30.88,203.46-31,204.68Zm-.49,7.35,3.64.16c0-1.2.1-2.4.2-3.6l-3.63-.23C-31.37,209.58-31.47,210.81-31.48,212Zm1.28-14.67,3.61.46m-2.51-7.75,3.58.62.63-3.55-3.57-.69Zm-1.1,7.29,3.61.46.45-3.57-3.59-.55Zm2.5-14.52,3.55.77M-26,175.67l3.51.93,1-3.47-3.5-1Zm-1.71,7.17,3.55.77.81-3.51-3.53-.85ZM-24,168.58l3.48,1.08m-1.11-8.06,3.42,1.23c.36-1.15.84-2.25,1.27-3.37l-3.39-1.3C-20.75,159.3-21.25,160.43-21.61,161.6Zm-2.37,7,3.48,1.08,1.15-3.41-3.45-1.16Zm5-13.85,3.37,1.38M-16,148l3.3,1.53c.51-1.09,1-2.21,1.52-3.28l-3.27-1.59C-15,145.72-15.49,146.86-16,148ZM-19,154.73l3.37,1.38c.43-1.13.88-2.24,1.39-3.33l-3.33-1.45C-18.06,152.44-18.52,153.58-19,154.73Zm6.18-13.38L-9.55,143m.28-8.15,3.16,1.81,1.8-3.13-3.12-1.87Zm-3.51,6.48L-9.55,143l1.65-3.21-3.2-1.74Zm7.29-12.8,3.08,1.94m1-8.09,3,2.06,2.09-2.94L.69,119.39Zm-4.05,6.15,3.08,1.94,2-3-3-2Zm8.35-12.13,2.9,2.19m1.66-8,2.8,2.32,2.36-2.73-2.75-2.37Zm-4.56,5.8,2.9,2.19L8,115.77l-2.85-2.25Zm9.39-11.36,2.7,2.43m3.63-9.12L17.3,99.7l2.6,2.54,1.25-1.3,1.3-1.24-2.54-2.6Zm-6.33,6.69,2.7,2.43c.76-.93,1.64-1.76,2.46-2.64l-2.65-2.49C13.92,103.26,13,104.11,12.25,105.06Zm10.33-10.5,2.48,2.65m3-7.57,2.37,2.76,2.73-2.35-2.31-2.81Zm-5.49,4.92,2.48,2.65c.88-.82,1.72-1.68,2.65-2.45l-2.43-2.71C24.34,92.84,23.48,93.72,22.58,94.56ZM33.76,85,36,87.82m3.64-7.29,2.12,3,2.94-2.08-2.06-3ZM33.76,85,36,87.82l2.84-2.22-2.19-2.91Zm12-8.62,2,3m4.24-7,1.86,3.13,3.13-1.8L55.15,70.6Zm-6.24,3.92,2,3,3-1.94-1.92-3.08Zm12.64-7.57L60.08,72m4.83-6.55L66.5,68.7c1.07-.55,2.18-1,3.27-1.51l-1.51-3.31C67.14,64.4,66,64.87,64.91,65.43Zm-6.56,3.35L60.08,72l3.21-1.64L61.63,67.1Zm13.27-6.41,1.44,3.34m5.39-6.11L79.74,63c1.13-.44,2.23-.91,3.38-1.27l-1.23-3.42C80.72,58.67,79.59,59.16,78.45,59.6Zm-6.83,2.77,1.44,3.34c1.09-.52,2.21-1,3.33-1.39L75,61C73.87,61.4,72.73,61.84,71.62,62.37Zm13.77-5.24,1.15,3.45M92.42,55l1,3.49,3.47-1L96,53.94Zm-7,2.18,1.15,3.45L90,59.43,88.88,56Zm14.16-4.06.85,3.54m6.35-5.12.69,3.57,3.55-.63-.62-3.58Zm-7.2,1.58.85,3.54,3.51-.81-.77-3.56ZM114,50.22l.54,3.6m6.77-4.53.39,3.62c1.19-.18,2.39-.21,3.59-.32L125,49C123.76,49.08,122.53,49.11,121.31,49.29Zm-7.31.93.54,3.6,3.58-.46-.46-3.6Zm14.66-1.53.23,3.63M136,48.39l.07,3.64,3.61-.09V48.3Zm-7.36.3.23,3.63c1.2-.09,2.39-.2,3.6-.2l-.16-3.63C131.11,48.49,129.88,48.59,128.66,48.69Zm14.72-.3L143.31,52m7.43-3.34-.23,3.63,3.6.27.31-3.62Zm-7.36-.3L143.31,52l3.6.09.16-3.63Zm14.71.9-.39,3.62m7.7-2.69-.54,3.6c1.19.17,2.37.41,3.55.61l.62-3.58C167.82,50.64,166.61,50.4,165.4,50.22Zm-7.31-.93-.39,3.62,3.58.45.46-3.6Zm14.56,2.2L172,55.06m7.89-2L179,56.61c1.17.28,2.36.49,3.51.85l.92-3.52C182.26,53.58,181,53.36,179.85,53.07Zm-7.2-1.58L172,55.06c1.19.19,2.36.46,3.53.74l.77-3.56C175.07,52,173.87,51.69,172.65,51.49ZM187,55l-1,3.49m8-1.31-1.15,3.45,3.42,1.15,1.23-3.42ZM187,55l-1,3.49,3.47,1L190.52,56Zm14,4.65L199.66,63m8.12-.63-1.44,3.34,3.29,1.48,1.51-3.31ZM201,59.6,199.66,63,203,64.32,204.38,61Zm13.54,5.83L212.9,68.7m8.15.08L219.32,72c1.06.57,2.09,1.19,3.14,1.78l1.79-3.16C223.19,70,222.13,69.36,221.05,68.78Zm-6.56-3.35L212.9,68.7l3.21,1.64,1.66-3.24Zm13,7-1.86,3.13m8.1.79-2,3c1,.65,2,1.29,3,2l2.06-3C235.76,77.67,234.73,77,233.69,76.35Zm-6.24-3.92-1.86,3.13c1,.57,2,1.24,3.07,1.89l1.92-3.08C229.55,73.71,228.53,73,227.45,72.43Zm12.3,8.1-2.12,3m8,1.48-2.25,2.85,2.84,2.23,2.31-2.81Zm-5.89-4.44-2.12,3c1,.7,2,1.36,2.92,2.11l2.19-2.91C241.78,81.93,240.75,81.26,239.75,80.53Zm11.58,9.11L249,92.4m7.86,2.16-2.48,2.65L257,99.7l2.54-2.6Zm-5.49-4.92L249,92.4l2.73,2.36,2.43-2.71ZM262.1,99.7l-2.6,2.54m7.65,2.82-2.7,2.43,2.37,2.72,2.75-2.37Zm-5-5.36-2.6,2.54,2.49,2.61,2.65-2.49ZM272,110.62l-2.8,2.32m7.36,3.48-2.9,2.19c.75.93,1.41,1.94,2.12,2.91l2.95-2.13C278,118.4,277.31,117.37,276.54,116.42Zm-4.56-5.8-2.8,2.32,2.23,2.83,2.85-2.25Zm8.86,11.78-3,2.06m7,4.09-3.08,1.94c.64,1,1.33,2,1.9,3.06l3.12-1.87C286.24,130.6,285.55,129.59,284.89,128.55Zm-4.05-6.15-3,2.06c.72,1,1.37,2,2,3l3-2C282.24,124.41,281.57,123.38,280.84,122.4Zm7.83,12.47-3.16,1.81m6.67,4.67L289,143l1.64,3.2,3.27-1.59Zm-3.51-6.48-3.16,1.81c.6,1,1.21,2.07,1.79,3.13l3.2-1.74C289.91,137,289.28,135.94,288.67,134.87Zm6.74,13.1-3.3,1.53m6.25,5.23L295,156.11l1.33,3.35,3.39-1.3ZM295.41,148l-3.3,1.53,1.49,3.28,3.33-1.45ZM301,161.6l-3.42,1.23m5.79,5.75-3.48,1.08,1,3.47,3.5-1Zm-2.37-7-3.42,1.23,1.16,3.42,3.45-1.16Zm4.38,14.07-3.51.93m5.22,6.24-3.55.77c.28,1.17.55,2.35.74,3.53l3.57-.69C307.66,185.23,307.39,184,307.1,182.84Zm-1.71-7.17-3.51.93c.35,1.15.57,2.33.86,3.5l3.53-.85C306,178.06,305.76,176.85,305.39,175.67Zm3.11,14.4-3.58.62m4.68,6.67-3.61.46.46,3.58,3.62-.39Zm-1.1-7.29-3.58.62c.21,1.19.44,2.37.62,3.56l3.59-.55C309,192.49,308.71,191.28,308.5,190.07Zm1.89,14.61-3.62.31m4.11,7-3.64.16.1,3.6,3.63-.07Zm-.49-7.35-3.62.31.27,3.6,3.63-.23Zm.67,14.72h-3.63"/></g><g class="cls-11"><path class="cls-12" d="M294,239.7l-6.7-.9c.3-2.1.6-4.3.7-6.5l6.7.6C294.6,235.2,294.3,237.5,294,239.7Zm1.4-20.3h-6.7l-.2,6.5,6.7.3Zm-2.4,27-6.6-1.2m3.7,14.5-6.5-1.7c-.6,2.1-1.2,4.2-1.8,6.2l6.4,2C288.9,264.1,289.4,261.9,290.1,259.7Zm2.9-13.3-6.6-1.2c-.4,2.1-.7,4.3-1.3,6.4l6.6,1.5C292.2,250.9,292.6,248.7,293,246.4Zm-7,26.3-6.3-2.3m1.1,14.8-6.1-2.8a62.73,62.73,0,0,1-2.9,5.8l6,3.1C278.8,289.2,279.9,287.3,280.8,285.2Zm5.2-12.5-6.3-2.3-2.4,6,6.2,2.6Zm-11.5,24.5-5.8-3.4m-1.5,14.9-5.5-3.9c-1.3,1.8-2.5,3.6-3.8,5.2l5.3,4.1C264.6,312.4,265.9,310.5,267.2,308.7Zm5.6-8.5,1.7-2.9-5.8-3.4-1.6,2.8-1.8,2.7L271,303Zm-13.9,19.2-5.2-4.3m-3.9,14.4-4.8-4.8-4.7,4.5,4.5,5Zm9.1-10.1-5.2-4.3c-1.4,1.6-2.8,3.3-4.3,4.9l5,4.5C256,322.9,257.4,321.1,258.9,319.4Zm-19.2,19.2-4.3-5.2m-9.2,15.4c1-.6,1.9-1.3,2.8-1.9l-3.9-5.5c-.9.6-1.7,1.3-2.7,1.9l-2.7,1.8,3.6,5.7Zm10.9-8c.9-.7,1.8-1.4,2.6-2.1l-4.3-5.2c-.8.7-1.7,1.4-2.5,2.1l-2.6,2,4.1,5.3Zm-19.6,13.4-3.4-5.8m-8.6,12.1-2.8-6.1c-2,.9-3.9,1.8-5.9,2.6l2.6,6.2C201.4,362.4,203.4,361.4,205.5,360.5Zm12-6.3-3.4-5.8a62.84,62.84,0,0,1-5.7,3.1l3.1,6C213.6,356.5,215.6,355.3,217.5,354.2ZM193,365.7l-2.3-6.3m-14,11.2c1.1-.2,2.2-.5,3.3-.8l-1.7-6.5c-1,.3-2.1.6-3.1.8l-3.2.7,1.5,6.6Zm16.3-4.9-2.3-6.3-6.2,2.1,2,6.4Zm-26.3,7-1.2-6.6m-12.2,8.3-.6-6.7c-2.2.1-4.3.4-6.5.4l.3,6.7C148.8,374.8,151,374.6,153.3,374.4Zm10.1-1.1,3.3-.6-1.2-6.6-3.2.6-3.2.4.9,6.7Zm-23.7,1.8v-6.7m-13.6,6,.6-6.7c-2.2-.1-4.3-.4-6.5-.7l-.9,6.7C121.6,374,123.9,374.3,126.1,374.4Zm13.6.7v-6.7l-6.5-.2-.3,6.7Zm-27-2.4,1.2-6.6m-14.5,3.7,1.7-6.5c-2.1-.6-4.2-1.2-6.2-1.8l-2,6.4C95,368.6,97.2,369.1,99.4,369.8Zm13.3,2.9,1.2-6.6c-2.1-.4-4.3-.7-6.4-1.3l-1.5,6.6C108.2,371.9,110.4,372.3,112.7,372.7Zm-26.3-7,2.3-6.3m-14.8,1.1,2.8-6.1a62.73,62.73,0,0,1-5.8-2.9l-3.1,6C69.9,358.5,71.8,359.6,73.9,360.5Zm12.5,5.2,2.3-6.3-6-2.4-2.6,6.2ZM61.9,354.2l3.4-5.8m-14.9-1.5,3.9-5.5c-1.8-1.3-3.6-2.5-5.2-3.8L45,342.9C46.7,344.3,48.6,345.6,50.4,346.9Zm8.5,5.6,2.9,1.7,3.4-5.8-2.8-1.6L59.7,345l-3.6,5.7ZM39.7,338.6l4.3-5.2m-14.4-3.9,4.8-4.8L29.9,320l-5,4.5Zm10.1,9.1,4.3-5.2c-1.6-1.4-3.3-2.8-4.9-4.3l-4.5,5C36.2,335.7,38,337.1,39.7,338.6ZM20.5,319.4l5.2-4.3m-15.4-9.2c.6,1,1.3,1.9,1.9,2.8l5.5-3.9c-.6-.9-1.3-1.7-1.9-2.7L14,299.4,8.4,303Zm8,10.9c.7.9,1.4,1.8,2.1,2.6l5.2-4.3c-.7-.8-1.4-1.7-2.1-2.5l-2-2.6-5.3,4.1ZM4.9,297.2l5.8-3.4m-12.1-8.6,6.1-2.8c-.9-2-1.8-3.9-2.6-5.9l-6.2,2.6C-3.3,281.1-2.3,283.1-1.4,285.2Zm6.3,12,5.8-3.4a62.84,62.84,0,0,1-3.1-5.7l-6,3.1C2.6,293.3,3.8,295.3,4.9,297.2ZM-6.6,272.7l6.3-2.3m-11.2-14c.2,1.1.5,2.2.8,3.3l6.5-1.7c-.3-1-.6-2.1-.8-3.1l-.7-3.2-6.6,1.5Zm4.9,16.3,6.3-2.3-2.1-6.2-6.4,2Zm-7-26.3,6.6-1.2M-15.3,233l6.7-.6c-.1-2.2-.4-4.3-.4-6.5l-6.7.3C-15.7,228.5-15.5,230.7-15.3,233Zm1.1,10.1.6,3.3,6.6-1.2-.6-3.2-.4-3.2-6.7.9ZM-16,219.4h6.7m-6-13.6,6.7.6c.1-2.2.4-4.3.7-6.5l-6.7-.9C-14.9,201.3-15.2,203.6-15.3,205.8Zm-.7,13.6h6.7l.2-6.5-6.7-.3Zm2.4-27,6.6,1.2m-3.7-14.5,6.5,1.7c.6-2.1,1.2-4.2,1.8-6.2l-6.4-2C-9.5,174.7-10,176.9-10.7,179.1Zm-2.9,13.3,6.6,1.2c.4-2.1.7-4.3,1.3-6.4l-6.6-1.5C-12.8,187.9-13.2,190.1-13.6,192.4Zm7-26.3,6.3,2.3m-1.1-14.8,6.1,2.8a62.73,62.73,0,0,1,2.9-5.8l-6-3.1C.6,149.6-.5,151.5-1.4,153.6Zm-5.2,12.5,6.3,2.3,2.4-6-6.2-2.6ZM4.9,141.6l5.8,3.4m1.5-14.9,5.5,3.9c1.3-1.8,2.5-3.6,3.8-5.2l-5.3-4.1C14.8,126.4,13.5,128.3,12.2,130.1Zm-5.6,8.5-1.7,2.9,5.8,3.4,1.6-2.8,1.8-2.7-5.7-3.6Zm13.9-19.2,5.2,4.3m3.9-14.4,4.8,4.8,4.7-4.5-4.5-5Zm-9.1,10.1,5.2,4.3c1.4-1.6,2.8-3.3,4.3-4.9l-5-4.5C23.4,115.9,22,117.7,20.5,119.4Zm19.2-19.2,4.3,5.2M53.2,90c-1,.6-1.9,1.3-2.8,1.9l3.9,5.5c.9-.6,1.7-1.3,2.7-1.9l2.7-1.8L56.1,88ZM42.3,98c-.9.7-1.8,1.4-2.6,2.1l4.3,5.2c.8-.7,1.7-1.4,2.5-2.1l2.6-2L45,95.9ZM61.9,84.6l3.4,5.8m8.6-12.1,2.8,6.1c2-.9,3.9-1.8,5.9-2.6L80,75.6C78,76.4,76,77.4,73.9,78.3Zm-12,6.3,3.4,5.8A62.84,62.84,0,0,1,71,87.3l-3.1-6C65.8,82.3,63.8,83.5,61.9,84.6ZM86.4,73.1l2.3,6.3m14-11.2c-1.1.2-2.2.5-3.3.8l1.7,6.5c1-.3,2.1-.6,3.1-.8l3.2-.7-1.5-6.6ZM86.4,73.1l2.3,6.3,6.2-2.1-2-6.4Zm26.3-7,1.2,6.6m12.2-8.3.6,6.7c2.2-.1,4.3-.4,6.5-.4l-.3-6.7C130.6,64,128.4,64.2,126.1,64.4ZM116,65.5l-3.3.6,1.2,6.6,3.2-.6,3.2-.4-.9-6.7Zm23.7-1.8v6.7m13.6-6-.6,6.7c2.2.1,4.3.4,6.5.7l.9-6.7C157.8,64.8,155.5,64.5,153.3,64.4Zm-13.6-.7v6.7l6.5.2.3-6.7Zm27,2.4-1.2,6.6M180,69l-1.7,6.5c2.1.6,4.2,1.2,6.2,1.8l2-6.4C184.4,70.2,182.2,69.7,180,69Zm-13.3-2.9-1.2,6.6c2.1.4,4.3.7,6.4,1.3l1.5-6.6C171.2,66.9,169,66.5,166.7,66.1Zm26.3,7-2.3,6.3m14.8-1.1-2.8,6.1a62.73,62.73,0,0,1,5.8,2.9l3.1-6C209.5,80.3,207.6,79.2,205.5,78.3ZM193,73.1l-2.3,6.3,6,2.4,2.6-6.2Zm24.5,11.5-3.4,5.8M229,91.9l-3.9,5.5c1.8,1.3,3.6,2.5,5.2,3.8l4.1-5.3C232.7,94.5,230.8,93.2,229,91.9Zm-8.5-5.6-2.9-1.7-3.4,5.8L217,92l2.7,1.8,3.6-5.7Zm19.2,13.9-4.3,5.2m14.4,3.9-4.8,4.8,4.5,4.7,5-4.5Zm-10.1-9.1-4.3,5.2c1.6,1.4,3.3,2.8,4.9,4.3l4.5-5C243.2,103.1,241.4,101.7,239.7,100.2Zm19.2,19.2-5.2,4.3m15.4,9.2c-.6-1-1.3-1.9-1.9-2.8l-5.5,3.9c.6.9,1.3,1.7,1.9,2.7l1.8,2.7,5.7-3.6Zm-8-10.9c-.7-.9-1.4-1.8-2.1-2.6l-5.2,4.3c.7.8,1.4,1.7,2.1,2.5l2,2.6,5.3-4.1Zm13.4,19.6-5.8,3.4m12.1,8.6-6.1,2.8c.9,2,1.8,3.9,2.6,5.9l6.2-2.6C282.7,157.7,281.7,155.7,280.8,153.6Zm-6.3-12-5.8,3.4a62.84,62.84,0,0,1,3.1,5.7l6-3.1C276.8,145.5,275.6,143.5,274.5,141.6ZM286,166.1l-6.3,2.3m11.2,14c-.2-1.1-.5-2.2-.8-3.3l-6.5,1.7c.3,1,.6,2.1.8,3.1l.7,3.2,6.6-1.5ZM286,166.1l-6.3,2.3,2.1,6.2,6.4-2Zm7,26.3-6.6,1.2m8.3,12.2-6.7.6c.1,2.2.4,4.3.4,6.5l6.7-.3C295.1,210.3,294.9,208.1,294.7,205.8Zm-1.1-10.1-.6-3.3-6.6,1.2.6,3.2.4,3.2,6.7-.9Zm1.8,23.7h-6.7"/></g><path class="cls-13" d="M265.81,271.8V406.3c0,10.7-9.49,19.4-21.4,19.5H197.09c-2,.6-4,1.1-6,1.7-3.38.8-6.75,1.5-10.12,2.3,22.76,0,45.53.1,68.29.1,12.12,0,22.13-8.8,22.24-19.8L271,257.3Z"/><circle class="cls-14" cx="253.3" cy="27.6" r="4" transform="translate(185.48 273.21) rotate(-80.78)"/><circle class="cls-15" cx="30.1" cy="415.4" r="4"/><path class="cls-16" d="M141.9,232.21c0,3.25-2,5-4.39,5s-4.24-1.93-4.24-4.79,1.86-5,4.38-5S141.9,229.41,141.9,232.21Zm-7.33.15c0,2,1.09,3.83,3,3.83s3-1.78,3-3.93c0-1.87-1-3.83-3-3.83S134.57,230.29,134.57,232.36Zm8.9-4.78h5.09v1h-3.87v3.14h3.57v1h-3.57V237h-1.22Z"/><g class="cls-17"><path class="cls-18" d="M330,246.14l-9.51-1.33.8-6.32-3.18-.33-.79,6.21-3.18-.44.59-4.58c.09-.77.21-1.53.27-2.29l.17-2.31,9.58.83c-.1,1.08-.15,2.16-.27,3.24l-.41,3.22,3.18.38c.16-1.36.36-2.72.5-4.09l.31-4.11c.21-2.74.45-5.48.47-8.23l-3.2-.11-.09,3.24-.25,3.23-9.58-.66.23-3.07.09-3.07.15-6.15h3.21l-.25,9.39,3.2.16.17-6.37,9.6.17-.15,5.86c-.08,2-.27,3.9-.41,5.86l-.22,2.92c-.07,1-.15,2-.29,2.92Zm-4,20.57,1.32-5.72.66-2.86.52-2.89,1-5.78L320.06,248l-1.12,6.27-3.15-.61.83-4.62.41-2.31.3-2.33-3.18-.44c-.21,2-.6,4-1,6.07s-.66,4-1.14,6l9.4,2c.5-2.1.8-4.24,1.2-6.37l3.16.56c-.49,2.7-.92,5.42-1.59,8.09l-.93,4c-.3,1.34-.62,2.68-1,4l-3.09-.83.44-1.56.37-1.58.73-3.17L311.36,259l-1,4.5L309.06,268l3.08.88.85-3,.43-1.51.36-1.52,3.1.77-.36,1.55-.43,1.53-.87,3.07,9.23,2.64C325,270.48,325.56,268.61,326,266.71Zm-6.26,20c.37-.91.69-1.83,1-2.76l.94-2.78c.61-1.86,1.3-3.7,1.84-5.58l-9.19-2.81c-.59,2-1.34,4-2,6l-3-1,1.51-4.45c.48-1.48.87-3,1.31-4.5l-3.08-.88c-1,4-2.47,7.81-3.75,11.7l9,3.28,2.08-6.14,3,1-1.32,3.91c-.45,1.3-.85,2.62-1.38,3.89-1,2.55-2,5.12-3,7.66l-3-1.25c.82-2,1.59-4,2.39-6l-9-3.45c-1.14,2.86-2.21,5.75-3.54,8.52l2.92,1.31,1.29-2.85c.41-1,.77-1.94,1.16-2.91l3,1.2c-.39,1-.76,2-1.18,3l-1.31,2.9,8.77,3.91C317,294,318.29,290.35,319.76,286.72Zm-15.51,32,1.47-2.54,2.92-5.09,2.68-5.22c.9-1.74,1.81-3.48,2.58-5.28l-8.7-4.07c-.84,2-1.85,3.83-2.81,5.72l-2.86-1.45c.71-1.4,1.46-2.78,2.12-4.19l1.93-4.28-2.92-1.31c-.87,1.86-1.65,3.76-2.58,5.58l-2.8,5.48,8.48,4.51,3-5.77,2.87,1.41-3.76,7.34-4.11,7.15L299,315.1l3.24-5.63-8.4-4.67-2.3,4-1.15,2-1.25,1.94,2.71,1.7c1.17-1.74,2.19-3.56,3.22-5.37l2.78,1.6c-1.06,1.85-2.1,3.7-3.28,5.47l8.14,5.1C303.2,320.42,303.75,319.61,304.25,318.76Zm-13.64,19.61c1.19-1.55,2.44-3.06,3.59-4.64l3.4-4.79c.56-.8,1.15-1.58,1.69-2.4l1.58-2.47-8.05-5.24-1.72,2.68-1.85,2.6-2.62-1.84c1.87-2.52,3.49-5.2,5.19-7.82l-2.71-1.7-3.32,5.17-3.56,5,7.77,5.66,3.75-5.29,2.66,1.8-4.78,6.72c-1.64,2.21-3.38,4.34-5.07,6.51l-2.49-2,4-5.11-7.67-5.78-2.86,3.63c-.95,1.2-1.87,2.44-2.91,3.58l2.46,2.06,1-1.18,1-1.23,1.93-2.46,2.52,2-2,2.5-1,1.26-1,1.2,7.36,6.18C288.23,341.48,289.38,339.89,290.61,338.37Zm-18,19.83c1.4-1.36,2.87-2.66,4.19-4.1,2.69-2.84,5.45-5.63,8-8.63l-7.25-6.31c-1.39,1.6-2.76,3.23-4.25,4.74l-2.34-2.19L272.5,340l1.53-1.78,3.08-3.55-2.46-2.06-4,4.65c-1.36,1.53-2.82,3-4.22,4.47l6.91,6.68c1.48-1.58,3-3.1,4.45-4.72l2.38,2.14c-1.84,2-3.78,4-5.67,6-.93,1-1.93,2-2.92,2.9l-3,2.85-2.18-2.34,4.7-4.48-6.8-6.8c-2.24,2.11-4.43,4.28-6.71,6.35l2.15,2.38c1.56-1.39,3-2.87,4.55-4.3l2.23,2.31c-1.55,1.45-3.05,3-4.64,4.37l6.43,7.13C269.77,360.93,271.15,359.54,272.58,358.2Zm-6.81,6.22-6.31-7.25-2.41,2.09-1.2,1-1.25,1-2-2.48c1.25-.94,2.41-2,3.6-3l3.55-3.07-2.15-2.38-4.65,4-1.16,1-1.21.95-2.41,1.9,5.92,7.57,2.54-2,1.28-1,1.22-1.06,2.06,2.45c-4.23,3.51-8.56,6.91-13.08,10l-1.84-2.63c1.75-1.26,3.55-2.47,5.27-3.79l-5.79-7.67c-2.47,1.84-5,3.58-7.5,5.38l1.79,2.65,5.1-3.62,1.88,2.59-5.19,3.69,5.38,8A198.43,198.43,0,0,0,265.77,364.42Zm-31.43,22.25,5.09-2.93,4.94-3.17-5.24-8.05c-1.8,1.13-3.56,2.32-5.38,3.41l-1.65-2.75c2.67-1.63,5.28-3.36,7.92-5l-1.79-2.65c-3.48,2.18-6.85,4.52-10.45,6.48l4.81,8.32c1.88-1.08,3.76-2.14,5.56-3.34l1.7,2.72c-2.29,1.53-4.72,2.82-7.09,4.21-1.2.68-2.37,1.4-3.59,2l-3.67,1.88L224,384.94c1.91-1,3.89-1.91,5.74-3l-4.66-8.4c-1.32.8-2.71,1.47-4.08,2.18l-4.1,2.1,1.4,2.88,5.57-2.85,1.51,2.82-5.67,2.91,4.22,8.63C227.43,390.36,231,388.69,234.34,386.67Zm-29.68,13.65c1.86-.61,3.65-1.4,5.48-2.09s3.66-1.39,5.44-2.21l5.35-2.42-4.06-8.71-5.81,2.63-1.25-2.95c2.84-1.31,5.72-2.53,8.53-3.91l-1.4-2.88c-1.83.93-3.73,1.71-5.58,2.58l-2.8,1.26c-.94.41-1.91.76-2.86,1.14l3.61,8.91c1-.4,2-.78,3-1.2l3-1.34,1.3,2.93c-1.25.55-2.49,1.15-3.77,1.67L209,395.25l-3.84,1.51c-1.29.48-2.6.89-3.9,1.34l-1-3,3.07-1.05c1-.36,2-.78,3-1.17l-3.45-9c-2.83,1.2-5.79,2.07-8.69,3.09l1,3,5.93-2,1.09,3-6,2,3,9.14Zm-25.82,7.29,5.72-1.32,2.86-.66c1-.24,1.89-.53,2.83-.79l5.65-1.61-2.8-9.18L187,395.79l-.83-3.1,4.51-1.28,2.26-.64,2.23-.75-1-3c-1.93.7-3.91,1.21-5.88,1.78l-3,.84-1.48.42-1.49.35,2.32,9.32,1.57-.37,1.56-.44,3.12-.89.88,3.08-4,1.13c-1.31.4-2.67.64-4,1l-4,.93-2,.46-2,.37-.61-3.15c2.14-.33,4.23-.89,6.35-1.36l-2.16-9.36c-1.5.34-3,.71-4.5,1l-4.54.81.55,3.15c2.05-.39,4.12-.67,6.15-1.15l.66,3.13c-2.06.49-4.17.78-6.26,1.18l1.66,9.46C175,408.31,176.92,408,178.84,407.61Zm-29.51,3.75c1-.05,1.95-.14,2.93-.2l5.85-.45c1.95-.13,3.89-.46,5.83-.68s3.89-.45,5.82-.78l-1.49-9.49c-2.1.34-4.21.55-6.32.84l-.38-3.18,4.65-.59c1.56-.19,3.09-.53,4.63-.79l-.55-3.15c-4,.82-8.11,1.18-12.17,1.74l1,9.56,6.43-.82.44,3.17c-2.73.32-5.45.76-8.19,1l-8.23.63-.16-3.2,6.47-.49-.82-9.58c-3.07.21-6.14.55-9.22.56l.11,3.2,3.13-.09,3.12-.24.22,3.2-3.18.24-3.18.09.33,9.6ZM125.46,411l2.93.22,1.46.11,1.47,0,5.86.15c1,0,2,.06,2.94.05l2.93-.08-.17-9.6-3.18.08-3.19-.08.06-3.2c3.13.15,6.26,0,9.39-.08l-.11-3.2-6.15.15-6.15-.15-.33,9.6,6.48.16v3.2l-8.24-.2c-1.38,0-2.75-.14-4.12-.24l-4.11-.31.27-3.19L130,405l.49-9.6c-3.06-.24-6.14-.45-9.2-.72l-.33,3.19c2.07.2,4.16.32,6.24.49l-.22,3.2c-2.12-.17-4.24-.3-6.36-.51l-1,9.56C121.56,410.75,123.51,410.87,125.46,411Zm-20.78-2.66,5.78,1,5.83.74,1.15-9.54c-2.1-.28-4.22-.5-6.31-.84l.5-3.16c3.09.46,6.2.8,9.31,1.22l.33-3.19c-4.06-.56-8.15-.92-12.17-1.74l-1.66,9.46c2.13.39,4.25.79,6.4,1l-.44,3.17c-2.74-.28-5.43-.86-8.14-1.32-1.35-.25-2.71-.47-4.06-.75l-4-.93.72-3.12c2.11.47,4.21,1,6.35,1.36l1.82-9.43c-1.52-.24-3-.59-4.51-.94l-4.5-1-.77,3.11,6.1,1.41-.67,3.13-6.21-1.43-2.31,9.32C97,406.77,100.81,407.76,104.68,408.37Zm-31.52-8.61c1.83.68,3.7,1.27,5.55,1.91C82.4,403,86.19,404,90,405.07l2.48-9.28-6.13-1.74.94-3.07,4.51,1.29c1.51.41,3,.89,4.54,1.21l.77-3.11-1.5-.35-1.47-.42-3-.84c-2-.57-3.95-1.08-5.88-1.78l-3,9.14c2,.73,4.13,1.28,6.21,1.88l-.89,3.08-4-1.13-3.91-1.32c-2.61-.88-5.23-1.72-7.77-2.78l1.15-3c1,.39,2,.81,3,1.18l3.07,1L82.34,386c-2.94-.92-5.78-2.1-8.65-3.22l-1.2,3c2,.76,3.88,1.55,5.83,2.29l-1.09,3c-2-.75-4-1.55-5.94-2.33l-3.6,8.91Zm-24.45-11,5.22,2.68c.88.44,1.74.9,2.62,1.32L59.23,394l5.35,2.41,3.76-8.84-5.81-2.62L63.89,382c2.86,1.26,5.66,2.66,8.6,3.74l1.2-3c-1-.39-1.91-.74-2.85-1.14L68,380.36c-1.86-.87-3.75-1.64-5.58-2.57l-4.22,8.63c1.93,1,3.93,1.8,5.89,2.71l-1.31,2.93c-2.49-1.15-5-2.21-7.46-3.52l-3.67-1.88c-1.23-.62-2.45-1.25-3.63-2l1.56-2.8c1.85,1.12,3.82,2,5.74,3l4.37-8.56-4.11-2.1-4-2.31L50,374.75l2.72,1.56c.9.53,1.81,1,2.74,1.49L54,380.63c-1-.47-1.88-1-2.8-1.52l-2.76-1.59-4.81,8.31C45.3,386.8,47,387.81,48.71,388.73ZM30.83,377.79c1.58,1.17,3.26,2.16,4.9,3.24s3.28,2.14,5,3.13l5-8.23c-1.83-1.09-3.59-2.28-5.38-3.41L42,369.84l4,2.53c1.31.85,2.7,1.58,4,2.38L51.62,372c-3.6-2-7-4.3-10.45-6.48l-5.38,8,5.46,3.5-1.7,2.71-3.47-2.23c-1.16-.73-2.32-1.47-3.43-2.29-2.23-1.61-4.51-3.15-6.7-4.81l1.93-2.56c1.72,1.32,3.52,2.53,5.27,3.8l5.52-7.87L34.9,361c-1.25-.89-2.43-1.89-3.65-2.83l-2,2.52c1.64,1.29,3.26,2.61,5,3.78l-1.89,2.59c-1.75-1.19-3.4-2.53-5.07-3.84l-5.92,7.56C24.42,373.3,27.65,375.52,30.83,377.79ZM3.49,355c.68.7,1.41,1.36,2.11,2l4.25,4.05c1.43,1.34,2.94,2.58,4.41,3.87s2.92,2.6,4.49,3.78l6.05-7.46-1.25-1-1.21-1-2.4-2.08,2.1-2.42,3.55,3.07,3.69,2.9,2-2.52-2.42-1.9-1.21-.95-1.16-1-4.64-4-6.44,7.14,4.9,4.24-2.06,2.46c-2.06-1.82-4.18-3.58-6.2-5.43l-6-5.7,2.26-2.26,4.7,4.48,6.56-7c-2.22-2.14-4.51-4.2-6.59-6.48L10.68,344l2.16,2.27,2.27,2.16-2.23,2.3-2.3-2.19-2.2-2.31-6.91,6.67Zm-17.55-20.27,1.81,2.31,3.63,4.61,3.84,4.44,1.92,2.22c.65.73,1.35,1.42,2,2.14l7-6.56c-1.5-1.51-2.87-3.13-4.26-4.74l2.42-2.1c1,1.17,2,2.39,3.1,3.53L10.68,344l2.3-2.22c-1.4-1.5-2.85-2.94-4.21-4.48l-4-4.64-7.35,6.18,4.24,4.9-2.38,2.14-5.4-6.24-5.1-6.48,2.56-1.93,4,5.11,7.47-6.05-2.86-3.64-1.43-1.81-1.33-1.88-2.59,1.88c1.17,1.73,2.49,3.35,3.78,5l-2.53,2c-1.31-1.67-2.65-3.33-3.84-5.08l-7.77,5.65C-15.21,333.15-14.66,334-14.06,334.74Zm-13.1-20c1,1.68,1.92,3.41,3,5.06l3.16,4.95c.54.82,1,1.66,1.61,2.46l1.7,2.39,7.86-5.52-1.84-2.59-1.72-2.69,2.68-1.74c1.63,2.67,3.52,5.17,5.32,7.73l2.59-1.88-3.57-5-3.31-5.18-8.15,5.1,3.5,5.46L-17,325.1l-4.45-6.94c-1.45-2.34-2.77-4.76-4.15-7.13l2.8-1.56,3.23,5.63,8.23-5-2.3-4c-.75-1.34-1.57-2.64-2.24-4l-2.82,1.51c.46.93,1,1.84,1.5,2.74l1.56,2.72-2.78,1.6L-20,307.92c-.54-.92-1.06-1.84-1.53-2.8L-30,309.64C-29.16,311.4-28.11,313.06-27.16,314.77Zm-4.39-8.11,8.56-4.37c-1-1.9-2-3.76-2.81-5.72l2.9-1.36c.33.72.64,1.44,1,2.14l1.07,2.09,2.14,4.18,2.82-1.51-2.8-5.47c-.93-1.83-1.71-3.72-2.57-5.58L-30,295c.91,2,1.74,4,2.72,5.89l-2.88,1.4c-1.22-2.46-2.29-5-3.44-7.49l-.85-1.88-.76-1.92-1.51-3.84,3-1.15c.8,2,1.57,4,2.4,6l8.84-3.76c-1.15-2.85-2.28-5.72-3.38-8.59l-3,1.1c.73,2,1.52,3.88,2.28,5.83l-3,1.2c-.77-2-1.58-3.95-2.32-5.94l-9,3.29A195.6,195.6,0,0,0-31.55,306.66ZM-47,265.08c.24.95.42,1.91.69,2.85l.8,2.83,1.61,5.65L-42,282l9.09-3.12c-.67-2-1.41-4-2-6.05l3.06-.94c.92,3,2,5.94,3,8.91l3-1.1c-1.29-3.89-2.73-7.73-3.75-11.7l-9.24,2.65c.6,2.07,1.14,4.16,1.88,6.2l-3,1-.66-2c-.21-.65-.38-1.32-.57-2l-1.13-4c-.36-1.32-.79-2.63-1.09-4l-.93-4,3.12-.72.73,3.16.37,1.58.44,1.57L-30.5,265c-.46-1.48-.77-3-1.12-4.48l-1-4.5-3.13.66,1.4,6.1-3.1.78-1.44-6.21-9.4,2Zm-4.54-26.43c.2,1.94.48,3.88.72,5.82.41,3.9,1.17,7.74,1.85,11.6l9.43-1.83L-40.67,248l3.17-.5c.58,3.08,1,6.18,1.71,9.23l3.13-.66c-.48-2-.75-4-1.14-6s-.75-4-1-6.07l-9.52,1.33c.23,2.15.64,4.27,1,6.4l-3.15.55-.73-4.06-.52-4.09c-.34-2.73-.74-5.45-.89-8.2l3.19-.27c.09,1.07.14,2.16.27,3.23l.4,3.22,9.54-1.16c-.17-1.53-.45-3-.53-4.58l-.34-4.61-3.2.22c.17,2.08.3,4.17.5,6.24l-3.19.34c-.2-2.12-.33-4.24-.5-6.36l-9.59.66Zm-.92-20.93c-.1,2,0,3.91.06,5.87l.16,5.86,9.59-.49-.17-6.37,3.21-.06c.09,3.13.09,6.27.4,9.38l3.2-.22-.24-3.06-.08-3.08-.16-6.15h-9.61l.16,6.48-3.2.11-.1-4.12c0-1.37-.08-2.75,0-4.12l.22-8.24,3.2.16-.18,6.49,9.61.17c.09-3.08.09-6.16.4-9.23l-3.2-.22-.24,3.12-.08,3.13-3.2-.11.08-3.18.25-3.18L-52,206C-52.38,209.9-52.34,213.81-52.47,217.72Zm3-32.51c-.33,1.93-.73,3.84-1,5.78l-.74,5.83-.37,2.91-.22,2.93,9.57.82c.09-1.06.14-2.12.26-3.17l.4-3.16,3.18.38c-.17,1.56-.45,3.1-.53,4.67l-.36,4.68,3.2.22c.16-2,.29-4.09.48-6.13l.78-6.1-9.52-1.32L-45.1,200l-3.18-.33,1-8.19c.4-2.72.94-5.42,1.41-8.13l3.14.61-1.14,6.4,9.49,1.49c.57-3,1-6.07,1.68-9.08l-3.13-.66c-.49,2-.77,4.1-1.16,6.15l-3.16-.55c.4-2.09.69-4.2,1.18-6.26l-9.4-2C-48.79,181.34-49,183.28-49.42,185.21Zm1.85-9,9.36,2.15.72-3.1.36-1.55.43-1.54,3.1.83c-.46,1.5-.78,3-1.14,4.55l-1,4.58,3.13.66,1.38-6,.35-1.49.42-1.48.84-3-9.23-2.64-.89,3.12-.44,1.56-.37,1.58-3.11-.78c1.38-5.32,2.86-10.62,4.7-15.81l3,1c-.68,2.06-1.44,4.09-2,6.17l9.19,2.81c.9-2.94,1.95-5.84,2.92-8.76l-3-1.1-2,5.93-3-1,2-6-9-3.29A194.35,194.35,0,0,0-47.57,176.17Zm12.37-36.48c-.8,1.79-1.63,3.56-2.39,5.36l-2.16,5.47,9,3.44c.78-2,1.54-4,2.35-5.92l2.95,1.25c-1.17,2.9-2.32,5.82-3.44,8.73l3,1.1c.72-1.92,1.49-3.81,2.24-5.72.38-1,.73-1.91,1.13-2.86l1.27-2.8L-30,143.83l-1.34,3c-.42,1-.8,2-1.2,3l-3-1.2c1-2.59,2.14-5.07,3.26-7.58l1.71-3.75,1.88-3.68,2.86,1.46c-1,1.93-2,3.84-2.87,5.83l8.71,4.06c.32-.7.62-1.4,1-2.1l1.05-2.05,2.1-4.11-2.82-1.5-2.86,5.57-2.87-1.41,2.9-5.67L-30,129.15C-31.79,132.64-33.66,136.09-35.2,139.69Zm16-28.47c-1.13,1.6-2.13,3.28-3.21,4.92-2.17,3.25-4.07,6.68-6,10.07l8.4,4.67,3.17-5.53L-14.1,127l-2.33,4.07c-.77,1.37-1.6,2.7-2.28,4.11l2.82,1.5c.45-.92,1-1.81,1.47-2.69l1.54-2.67c1-1.78,2-3.57,3.16-5.27l-8.14-5.1c-1.21,1.8-2.26,3.68-3.34,5.56l-2.77-1.6,2.06-3.58,2.22-3.47,2.23-3.47c.73-1.17,1.58-2.26,2.36-3.39l2.62,1.84-1.88,2.65-1.75,2.73,8,5.24c1.6-2.63,3.46-5.09,5.23-7.61L-5.42,114-9,119.07l-2.65-1.79L-8,112.09l-7.77-5.66Zm16.6-21.06-3.85,4.43-1.92,2.22c-.63.75-1.22,1.54-1.83,2.3l-3.62,4.62,7.67,5.78,3.93-5,2.49,2-2.9,3.69-1.45,1.85L-5.42,114l2.59,1.88c1.15-1.69,2.44-3.28,3.71-4.9l1.9-2.41,1-1.21,1-1.16L-2.62,100l-1.06,1.22-1,1.28-2,2.54-2.52-2,2.55-3.24c.84-1.09,1.78-2.09,2.67-3.14,1.82-2.07,3.54-4.21,5.49-6.16l2.34,2.19C2.31,94.24.92,95.9-.5,97.54l7.25,6.3c1-1.15,2-2.35,3.05-3.46L13,97l-2.3-2.22c-1.43,1.52-2.91,3-4.29,4.56L4,97.22c1.41-1.59,2.91-3.09,4.37-4.64L1.47,85.91Zm6.36-6.68,6.8,6.8,4.61-4.4,2.18,2.34c-2.25,2.18-4.58,4.28-6.69,6.59L13,97l2.12-2.22,2.23-2.12c1.5-1.4,2.94-2.86,4.48-4.22l-6.44-7.14c-1.61,1.44-3.14,3-4.71,4.45L8.43,83.47c3.93-3.85,8.09-7.45,12.34-10.94l2,2.49-1.27,1-1.23,1.06-2.46,2.13,6.31,7.25,3.49-3,3.63-2.85-2-2.52L26.82,80l-1.23,1L24.4,82l-2.06-2.45,1.21-1,1.25-1,2.51-2L21.39,68A199.48,199.48,0,0,0,3.78,83.48ZM33.61,59.13c-1.67,1-3.22,2.22-4.83,3.33S25.57,64.7,24,65.9l5.79,7.67c1.68-1.29,3.45-2.48,5.17-3.73l1.84,2.63L33,75.19c-1.27.9-2.47,1.92-3.71,2.87l2,2.52c3.17-2.61,6.59-4.87,9.91-7.27l-5.38-8L30.5,69.1l-1.89-2.59L32,64.12c1.11-.8,2.23-1.6,3.4-2.32,2.32-1.48,4.61-3,7-4.42L44,60.12c-1.86,1.11-3.66,2.32-5.49,3.47l5.24,8.06,3.89-2.5c1.29-.83,2.65-1.55,4-2.33L50,64.05c-1.81,1-3.63,2-5.36,3.22L43,64.55c1.76-1.18,3.62-2.22,5.46-3.27L43.6,53C40.17,54.84,36.91,57,33.61,59.13ZM65,42.26l-2.68,1.21-5.35,2.42c-1.77.83-3.49,1.76-5.24,2.64s-3.51,1.75-5.18,2.76l4.66,8.4c1.82-1.11,3.76-2,5.63-3l1.46,2.85-4.18,2.15L50,64.05l1.61,2.77,2.66-1.53c.88-.53,1.78-1,2.7-1.48L62.45,61l-4.22-8.63-5.77,3L51,52.51c2.45-1.24,4.88-2.54,7.35-3.73l7.52-3.4,1.25,2.94L61.16,51l4.07,8.7c2.82-1.23,5.57-2.61,8.46-3.67l-1.2-3c-1,.39-1.94.75-2.9,1.16l-2.85,1.29-1.31-2.93,2.91-1.31c1-.42,2-.78,3-1.18l-3.6-8.91Zm22.57-7.85c-1.88.55-3.78,1-5.64,1.64l-5.57,1.88-2.78,1L70.81,40l3.45,9c1-.38,2-.79,3-1.15l3-1,1.05,3c-3,.94-5.88,2.13-8.8,3.28l1.2,3c1.91-.75,3.81-1.52,5.73-2.24l5.82-2-3-9.14-6.14,2.08-1.1-3,7.82-2.65c2.63-.81,5.29-1.52,7.93-2.28l.82,3.09-6.24,1.78,2.8,9.18,4.44-1.25c1.49-.41,3-.89,4.46-1.2l-.77-3.1-1.53.35-1.5.43-3,.86-.88-3.08L92.43,43,94,42.57l1.55-.36L93.2,32.88C91.28,33.28,89.42,33.9,87.53,34.41Zm8.94-2.28,2.15,9.36c2.07-.46,4.13-1,6.23-1.33l.6,3.14c-1.54.24-3.07.6-4.59,1l-4.57,1.06.77,3.1,6-1.38c2-.48,4-.75,6-1.14l-1.66-9.46c-2.12.41-4.27.7-6.37,1.2l-.66-3.13c5.39-1.08,10.8-2.07,16.27-2.68l.39,3.18c-2.15.29-4.3.51-6.44.86l1.49,9.49c3-.46,6.11-.79,9.16-1.2L120.94,41l-6.21.79-.45-3.18,6.32-.8-1-9.56A196.75,196.75,0,0,0,96.47,32.13Zm44.06-4.92c-1.95,0-3.91.07-5.86.1s-3.91.05-5.87.2L123,28l.83,9.57,6.35-.49.17,3.2c-3.12.25-6.25.46-9.36.74l.33,3.18c2-.19,4.08-.32,6.13-.48l3.06-.24,3.08-.08-.33-9.6-3.24.09-3.23.24-.22-3.19c1.37-.09,2.74-.24,4.11-.28l4.12-.11,4.12-.1c1.38-.05,2.75,0,4.12.06l-.05,3.2-3.25-.08-3.24.08.16,9.61c3.08-.15,6.16,0,9.24.08l.11-3.2L139.7,40V36.79l6.37.17.33-9.61Zm9.22.24-.5,9.59,6.36.49-.28,3.19c-3.12-.21-6.24-.56-9.37-.56l-.11,3.2,3.07.08,3.07.24c2,.16,4.09.29,6.13.48l1-9.56c-2.15-.2-4.31-.34-6.46-.51l.22-3.19c5.49.32,10.95,1,16.39,1.81l-.49,3.16c-2.14-.35-4.3-.57-6.44-.86l-1.16,9.54,4.58.58c1.53.19,3,.52,4.55.77l.55-3.15c-2-.37-4.1-.77-6.18-1l.44-3.18c2.12.23,4.2.63,6.29,1l1.66-9.46A200.63,200.63,0,0,0,149.75,27.45Zm43.73,7.42-5.65-1.6-5.72-1.33c-1.91-.44-3.81-.91-5.75-1.22l-1.82,9.43c2.1.33,4.16.88,6.23,1.34l-.72,3.12c-1.53-.34-3-.72-4.58-1l-4.62-.82-.55,3.15c2,.39,4,.66,6,1.14l6,1.38,2.31-9.32-6.31-1.46.66-3.13,8,1.86L195,38.62,194,41.68l-6.25-1.77-2.48,9.28,4.44,1.26,2.22.63,2.19.74,1-3c-2-.71-4-1.24-6-1.81l.88-3.08c2,.58,4.1,1.12,6.1,1.84l3-9.13C197.25,35.92,195.36,35.4,193.48,34.87Zm25.16,9.29L216,43c-.89-.42-1.78-.81-2.7-1.15-3.65-1.41-7.25-3-11-4.14l-3.13,9.08,3,1c1,.35,2,.77,3,1.15l-1.15,3c-2.88-1.22-5.89-2.11-8.84-3.14l-1,3,5.82,2c1.92.73,3.81,1.5,5.72,2.25l3.6-8.91c-2-.79-4-1.6-6-2.36l1.09-3c2.57,1,5.12,2,7.68,3,1.29.47,2.53,1.08,3.79,1.64l3.76,1.7L218.22,51l-5.92-2.68-3.75,8.84c2.79,1.29,5.62,2.5,8.39,3.85l1.4-2.88c-1.86-.94-3.79-1.74-5.68-2.62l1.3-2.92c1.93.89,3.9,1.7,5.79,2.66L224,46.62C222.23,45.73,220.41,45,218.64,44.16Zm8.31,4-4.37,8.56,2.84,1.45,1.41.73,1.39.79-1.56,2.8c-1.34-.81-2.75-1.49-4.14-2.21l-4.18-2.14L216.94,61l5.47,2.8,1.36.71,1.33.76,2.67,1.54,4.81-8.32-2.81-1.62-1.41-.8-1.43-.75,1.5-2.82c4.83,2.62,9.61,5.36,14.19,8.4l-1.74,2.68c-1.83-1.15-3.63-2.37-5.49-3.47l-5,8.23c2.63,1.6,5.2,3.3,7.8,5L240,70.65l-5.27-3.38,1.7-2.71L241.81,68l5.38-8A199.9,199.9,0,0,0,227,48.15Zm36.91,24.58c-.74-.64-1.46-1.3-2.23-1.91L259.33,69l-4.62-3.63L249.93,62l-5.52,7.86c1.72,1.25,3.48,2.43,5.17,3.72l-1.93,2.56c-2.51-1.87-5.09-3.64-7.63-5.47l-1.79,2.65c3.31,2.41,6.74,4.67,9.91,7.28L254.06,73c-1.7-1.33-3.38-2.69-5.17-3.91l1.88-2.59c2.28,1.54,4.38,3.32,6.56,5,1.07.86,2.19,1.67,3.22,2.58l3.12,2.7-2.11,2.42-2.45-2.13L257.88,76l-1.28-1-6.05,7.47c1.24.92,2.37,2,3.54,3l3.49,3,2.15-2.38L255,82l2.06-2.45,4.82,4.17,6.43-7.14Zm15.22,14.39c-1.36-1.4-2.67-2.86-4.08-4.22l-4.25-4.05-6.55,7,4.61,4.39-2.26,2.27c-2.28-2.15-4.51-4.35-6.82-6.45l-2.15,2.38c1.54,1.36,3,2.81,4.48,4.21l2.22,2.12L266.4,97l6.91-6.68L271.08,88l-2.35-2.24,2.23-2.3c1,1,2,1.87,3,2.87l2.85,3,2.84,3,2.71,3.12-2.42,2.1c-1.42-1.63-2.81-3.29-4.34-4.83l-7,6.56,1.59,1.67,1.51,1.74,3,3.49,2.46-2.06L273,99.37l2.38-2.14,4.17,4.81,7.36-6.18C284.35,92.91,281.84,89.9,279.08,87.12Zm20.43,25.49c-1.07-1.64-2.25-3.21-3.37-4.81-2.2-3.24-4.68-6.27-7.09-9.35l-7.46,6,3.93,5L283,111.44l-2.9-3.69c-1-1.23-1.91-2.49-3-3.65l-2.46,2.06,1,1.16.95,1.21,1.9,2.42c1.27,1.61,2.56,3.2,3.71,4.9L290,110.2c-1.22-1.79-2.58-3.47-3.91-5.17l2.52-2,2.55,3.24,2.39,3.36,2.39,3.36c.81,1.11,1.5,2.3,2.26,3.45l-2.69,1.75-1.75-2.74-1.88-2.64L284,118.36c1.84,2.47,3.43,5.1,5.11,7.69l2.71-1.7-3.37-5.27,2.65-1.8,3.44,5.37,8.14-5.1Zm13.34,23.26-2.67-5.22L308.84,128c-.47-.86-1-1.7-1.45-2.55l-2.93-5.09-8.23,5,3.17,5.52-2.8,1.56-2.34-4.07-1.17-2-1.27-2-2.71,1.7c1.14,1.7,2.14,3.49,3.16,5.27L293.8,134c.53.88,1,1.78,1.48,2.7l8.48-4.52c-.48-1-1-1.91-1.56-2.85l-1.61-2.81,2.77-1.6c1.37,2.38,2.77,4.75,4,7.23l1.88,3.67c.31.61.63,1.22.93,1.84l.85,1.88-2.9,1.35c-.85-2-1.89-3.89-2.87-5.83l-8.55,4.37c.69,1.38,1.43,2.73,2.08,4.12l1.9,4.21,2.92-1.3c-.88-1.9-1.67-3.83-2.62-5.69l2.88-1.4c1,1.89,1.77,3.86,2.67,5.78l8.77-3.91Zm3.81,8.41L307.82,148c.81,2,1.57,3.95,2.35,5.92l-3,1.15c-1.15-2.91-2.25-5.84-3.6-8.66l-2.92,1.3,1.26,2.8c.41.94.76,1.9,1.14,2.85.75,1.91,1.52,3.81,2.25,5.72l9-3.28c-.76-2-1.57-4-2.36-6l3-1.2,1.51,3.84.76,1.92.66,2c.87,2.61,1.81,5.2,2.6,7.83l-3.06.94c-.6-2.08-1.36-4.11-2-6.17L306.29,162l1.48,4.37c.48,1.46.85,2.95,1.29,4.43l3.08-.88c-.58-2-1.1-4-1.82-6l3.05-1c.72,2,1.26,4.05,1.85,6.09l9.23-2.64A195,195,0,0,0,316.66,144.28Zm13,45.47-.51-2.89-1-5.78c-.39-1.92-.86-3.82-1.29-5.73s-.84-3.83-1.41-5.7l-9.28,2.48.43,1.53.36,1.55.72,3.11-3.12.71-1.06-4.57L312.14,170l-3.08.88.84,2.95.42,1.48.35,1.5,1.38,6,9.4-2L320,174.44l3.11-.77c.61,2.68,1.26,5.35,1.84,8l1.45,8.12-3.17.5-1.14-6.39-9.43,1.82.81,4.54.41,2.27.28,2.3,3.18-.45c-.22-2.07-.62-4.12-1-6.18l3.16-.55c.37,2.09.78,4.18,1,6.29l9.51-1.32C329.88,191.69,329.79,190.71,329.62,189.75Zm2.14,23.78c-.06-1.95-.05-3.91-.24-5.86-.32-3.9-.5-7.81-1.08-11.69l-9.54,1.16.4,3.16c.13,1.06.17,2.12.26,3.18l-3.19.27-.17-2.34c-.06-.78-.19-1.55-.28-2.33l-.59-4.66-3.18.45.78,6.09c.2,2,.32,4.09.49,6.13l9.58-.66c-.17-2.15-.31-4.31-.51-6.46l3.18-.33c.26,2.74.43,5.48.65,8.22.05.69.12,1.37.14,2.06l.06,2.06.1,4.12-3.2.06-.17-6.5-9.6.5.24,9.24h3.21l-.16-6.26,3.2-.11.16,6.37h9.61Z"/></g><path class="cls-19" d="M271.08,241.92l-1.47-.25-17.65-3c.12-.74.28-1.47.38-2.21l.28-2.23c.17-1.49.43-3,.5-4.46l.34-4.48.12-4.5L270,221c-.09,2.37-.05,4.74-.28,7.1s-.32,4.73-.67,7.08l-10.37-1.25c.37-2.4.46-4.83.67-7.24l4.47.26-.23,3,1.49.13c.11-1.53.25-3,.33-4.57l-7.46-.35c-.22,3.34-.44,6.69-.93,10l13.31,1.77c.18-1.46.39-2.91.54-4.37l.33-4.38c.05-.73.12-1.46.16-2.19l.06-2.2.11-4.39H273a145.54,145.54,0,0,1-1.42,19.33l-16.24-2.36a120.47,120.47,0,0,0,1.14-12.71l10.43.37-.05,1.93-.14,1.93-.29,3.85-4.46-.43.22-3-1.48-.11c-.14,1.47-.19,2.95-.38,4.41l7.42.8c.22-1.81.3-3.63.46-5.45s.19-3.64.23-5.46L255,222.2a117.33,117.33,0,0,1-1.35,15.33l17.68,2.79ZM249,238.16l1.47.25a118.5,118.5,0,0,0,1.63-19h-1.49A117.79,117.79,0,0,1,249,238.16Zm27-18.76H274.5a141.4,141.4,0,0,1-1.95,22.77l1.47.25A143.36,143.36,0,0,0,276,219.4Zm-10.07,42.88-17-5.76a113.66,113.66,0,0,0,4-14.85l13.18,2.57c-.31,1.8-.79,3.56-1.18,5.35s-.9,3.53-1.39,5.29l-7.18-2.06c.38-1.42.85-2.82,1.15-4.26l1.45.35c-.21,1-.48,1.94-.76,2.89l4.32,1.18.53-1.86.43-1.88.87-3.77-10.23-2.13c-.5,2.07-.91,4.16-1.48,6.21l-.87,3.07-.43,1.53-.52,1.51,15.61,5.09a129.73,129.73,0,0,0,4.64-18.83l-1.47-.25-.78,4.33-1,4.28-.5,2.14-.6,2.12-1.21,4.23-12.82-4,1.38-4.83c.48-1.61.78-3.26,1.18-4.88l7.29,1.61c-.35,1.48-.68,3-1.05,4.45l-1.44-.37c.25-1,.46-2,.69-2.94l-4.36-1c-.5,2.38-1.2,4.7-1.86,7l10,3c.62-2.29,1.36-4.55,1.84-6.88s1.1-4.61,1.47-7L251.71,240a107.93,107.93,0,0,1-4.6,17.33l16.88,6,1.41.49Zm-21.62-5.92,1.41.49a106.55,106.55,0,0,0,4.78-18.44l-1.47-.25A104.92,104.92,0,0,1,244.3,256.36ZM274,242.42l-1.47-.25a129.36,129.36,0,0,1-5.75,22.14l1.41.5A130.18,130.18,0,0,0,274,242.42ZM256.87,283l-15.72-8.55L242.9,271l.88-1.71.79-1.76c.52-1.17,1.07-2.33,1.57-3.51l1.41-3.58,12.55,4.78c-.68,1.69-1.3,3.41-2.05,5.08l-2.25,5-6.72-3.24,1.82-4,1.36.6L251,271.36l4.06,1.9,1.59-3.52c.55-1.17,1-2.39,1.46-3.58l-9.71-3.84c-.4,1-.76,2-1.19,3l-1.32,2.91c-.83,2-1.86,3.82-2.81,5.72l14.51,7.67,2.21-4.32,2-4.42c.7-1.47,1.26-3,1.86-4.49s1.22-3,1.71-4.54l-1.41-.49c-.44,1.39-1,2.75-1.54,4.11s-1,2.75-1.66,4.08c-1.2,2.67-2.38,5.36-3.76,7.95l-11.95-6.13,1.15-2.24c.38-.74.7-1.52,1.05-2.28.67-1.53,1.43-3,2-4.6l6.9,2.82c-.53,1.43-1.2,2.81-1.82,4.2l-1.36-.61,1.25-2.75-4.13-1.75-1.5,3.31c-.49,1.11-1,2.22-1.56,3.29l9.35,4.65.8-1.59.74-1.62,1.46-3.24c.95-2.18,1.77-4.41,2.65-6.61l-15.4-5.65a118.78,118.78,0,0,1-7.52,16.28l15.62,8.75,1.3.73Zm-20.32-9.52,1.3.72a113.41,113.41,0,0,0,7.86-17.36l-1.41-.49A113.64,113.64,0,0,1,236.55,273.49Zm31.66-8.68-1.41-.5a135.92,135.92,0,0,1-9.43,20.83l1.3.73A138,138,0,0,0,268.21,264.81ZM244.4,301.87l-14.06-11.09a110.8,110.8,0,0,0,8.71-12.68l11.56,6.84c-.88,1.6-1.93,3.09-2.89,4.64s-2,3-3.09,4.52l-6.07-4.33c.84-1.21,1.74-2.38,2.51-3.64l1.24.82c-.52.85-1.09,1.66-1.67,2.47l3.67,2.55c.77-1,1.47-2.11,2.16-3.2l2.08-3.26-8.92-5.43c-1.17,1.78-2.26,3.61-3.48,5.35L234.3,288l-.92,1.31-1,1.25,13,10a130.66,130.66,0,0,0,10.67-16.18l-1.3-.73-2.19,3.81c-.77,1.25-1.58,2.47-2.36,3.71L249,293.06l-1.27,1.79-2.56,3.58-10.74-8.06,2.92-4.09c1-1.37,1.83-2.81,2.75-4.21l6.32,3.95L244,289.88l-1.24-.84,1.64-2.54-3.77-2.42c-1.27,2.07-2.7,4-4.11,6l8.43,6.16c1.36-1.94,2.8-3.83,4-5.85l1.92-3c.63-1,1.19-2,1.79-3.07l-14.22-8.19a109.14,109.14,0,0,1-10.14,14.8l13.92,11.26,1.16.94ZM226,289.07l1.16.94a108.2,108.2,0,0,0,10.69-15.8l-1.3-.72A107.12,107.12,0,0,1,226,289.07Zm32.67-3.2-1.3-.73a129.71,129.71,0,0,1-12.81,18.93l1.16.94A131.77,131.77,0,0,0,258.67,285.87ZM229,318.39,217,305.1c1-.86,1.87-1.77,2.8-2.65l1.4-1.33c.45-.45.88-.92,1.33-1.39l2.66-2.78,2.52-2.92,10.23,8.7c-1.21,1.36-2.35,2.79-3.62,4.09s-2.5,2.66-3.79,3.95l-5.26-5.29c1.05-1.05,2-2.13,3.07-3.19l1.09,1-2.06,2.16,3.19,3.14c1.78-1.87,3.59-3.7,5.24-5.68l-7.88-6.86c-.71.8-1.37,1.63-2.12,2.39l-2.2,2.31c-1.43,1.58-3,3-4.56,4.47l11.14,12.05a135.21,135.21,0,0,0,13.24-14.15l-1.16-.94a129.9,129.9,0,0,1-11.93,12.89l-9.24-9.75c1.21-1.16,2.45-2.29,3.58-3.53s2.36-2.39,3.43-3.67l5.57,5c-1,1.18-2.08,2.24-3.12,3.35l-1.07-1,2.08-2.18-3.31-3-2.51,2.63-1.25,1.32-1.32,1.25,7.27,7.5c1.75-1.6,3.32-3.39,5-5.08s3.13-3.57,4.69-5.34L227.46,292a119.74,119.74,0,0,1-12.52,12.86l11.83,13.44,1,1.12Zm-16-15.74,1,1.12A115.29,115.29,0,0,0,227.16,290l-1.16-.94A113,113,0,0,1,213,302.65ZM245.72,305l-1.16-.94a137,137,0,0,1-15.82,16.49l1,1.12A139.19,139.19,0,0,0,245.72,305ZM211,332l-9.58-15.12a114.82,114.82,0,0,0,12.43-9.07l8.63,10.28c-2.82,2.32-5.68,4.59-8.68,6.66l-4.3-6.1c1.19-.87,2.43-1.67,3.58-2.6l.9,1.19c-.77.63-1.6,1.18-2.4,1.76l2.62,3.63,1.57-1.12c.52-.38,1-.79,1.53-1.18l3-2.39-6.61-8.08a120,120,0,0,1-10.31,7.51l8.95,13.76a129.45,129.45,0,0,0,15.43-11.72l-1-1.12-3.33,2.87L220,323.92c-1.14.92-2.34,1.77-3.54,2.61s-2.37,1.73-3.6,2.52l-7.46-11.16c2.76-1.9,5.5-3.83,8.1-5.95l4.66,5.83c-1.21.93-2.38,1.91-3.62,2.81l-.88-1.2c.82-.58,1.59-1.23,2.38-1.84L213.28,314c-1.87,1.55-3.89,2.89-5.86,4.31l5.91,8.61a129.65,129.65,0,0,0,11.26-8.68l-10.7-12.44a113.86,113.86,0,0,1-14.47,10.61l9.4,15.23.78,1.27Zm-13.11-18.17.78,1.27A108.92,108.92,0,0,0,214,303.77l-1-1.12A108.22,108.22,0,0,1,197.85,313.87Zm31.88,7.81-1-1.12a131.43,131.43,0,0,1-18.36,13.62l.78,1.27A132.8,132.8,0,0,0,229.73,321.68ZM190.91,342.5,184,326a114.61,114.61,0,0,0,13.76-6.87l6.77,11.6c-3.13,1.87-6.39,3.52-9.66,5.12l-3.2-6.74c1.34-.61,2.63-1.32,4-2l.69,1.32-2.66,1.36,2,4c2.28-1.19,4.62-2.29,6.82-3.62l-5.16-9.08a117.73,117.73,0,0,1-11.41,5.69l6.5,15.07a137.51,137.51,0,0,0,17.2-8.95l-.78-1.27a132.51,132.51,0,0,1-15.55,8.2l-5.47-12.27c3.08-1.33,6.06-2.88,9-4.46l3.6,6.53c-1.32.77-2.7,1.42-4,2.13l-.68-1.33,2.69-1.38-2.12-3.95c-2.17,1.08-4.28,2.28-6.52,3.22l4.37,9.49a132.18,132.18,0,0,0,12.58-6.62l-8.44-14.07a113.84,113.84,0,0,1-16.07,8l6.68,16.61.56,1.38Zm-9.85-20.17.55,1.39a114,114,0,0,0,17-8.58l-.78-1.27A112.79,112.79,0,0,1,181.06,322.33Zm30.1,13.12-.78-1.27A136.5,136.5,0,0,1,190,344.47l.56,1.39A138.06,138.06,0,0,0,211.16,335.45Zm-41.81,13.91-4-17.46a112.76,112.76,0,0,0,14.73-4.39l4.71,12.58c-3.43,1.23-6.88,2.43-10.41,3.37l-2-7.19c1.41-.42,2.85-.76,4.24-1.25l.46,1.42c-.94.34-1.91.58-2.86.86l1.26,4.3,1.85-.53c.62-.18,1.23-.4,1.84-.61l3.66-1.23-3.54-9.83A118.89,118.89,0,0,1,167.1,333l3.83,16a127.71,127.71,0,0,0,18.48-5.9l-.56-1.38a132.61,132.61,0,0,1-16.71,5.47l-3.3-13c3.24-.87,6.47-1.77,9.62-2.9l2.45,7.05c-1.45.48-2.89,1-4.35,1.44l-.44-1.42c1-.27,1.91-.63,2.87-.94l-1.42-4.25c-2.27.83-4.63,1.41-7,2.09l2.69,10.1a127.87,127.87,0,0,0,13.52-4.43l-5.94-15.29a110.14,110.14,0,0,1-17.17,5.15l3.75,17.5.32,1.46Zm-6.27-21.52.32,1.46a107,107,0,0,0,18.21-5.58l-.55-1.39A105.49,105.49,0,0,1,163.08,327.84Zm27.44,18-.56-1.39a129.41,129.41,0,0,1-21.87,6.71l.31,1.45A130.49,130.49,0,0,0,190.52,345.86ZM147,352.5l-1-17.87,3.84-.3c.64-.05,1.29-.08,1.92-.15l1.91-.25,3.82-.49,3.79-.68L163.77,346c-1.79.3-3.58.69-5.39.92l-5.43.69-.76-7.43,4.39-.56.21,1.48-3,.38.51,4.45c2.56-.32,5.12-.62,7.65-1.12l-1.82-10.29c-1,.18-2.09.4-3.14.54l-3.17.4c-2.1.32-4.23.43-6.35.6l1.08,16.37,4.83-.37,4.81-.61c1.61-.18,3.2-.48,4.79-.77s3.2-.51,4.77-.91l-.32-1.46c-1.42.36-2.87.56-4.31.84s-2.88.55-4.34.72c-2.91.36-5.81.79-8.74.95l-1-13.38,2.5-.19c.84-.08,1.67-.21,2.5-.31,1.66-.24,3.33-.36,5-.7l1.21,7.37c-1.5.3-3,.44-4.54.64l-.18-1.48,3-.38-.67-4.42-3.61.45c-1.2.16-2.4.33-3.62.39l.94,10.41c1.18-.07,2.36-.22,3.54-.38l3.53-.45c2.34-.32,4.67-.8,7-1.2l-3.25-16.09a121.08,121.08,0,0,1-17.82,2.14l.75,17.89.06,1.49C145.89,352.54,146.43,352.55,147,352.5Zm-2.54-22.29.06,1.49a118.1,118.1,0,0,0,18.92-2.4l-.32-1.46A115.72,115.72,0,0,1,144.42,330.21Zm24,22.42-.31-1.45a140.84,140.84,0,0,1-22.68,2.88l.07,1.49A140.62,140.62,0,0,0,168.4,352.63Zm-44-.82,2-17.79c1.27.19,2.55.27,3.83.37s2.56.21,3.85.27l3.85.1c.64,0,1.28,0,1.93,0l1.92-.05.24,13.42c-.91,0-1.82.07-2.73.05l-2.73-.07c-1.82,0-3.65-.06-5.46-.23l.49-7.45c1.46.14,2.94.18,4.41.21l0,1.49c-1,0-2,0-3-.1l-.24,4.48c2.57.08,5.15.18,7.72.17l-.06-10.44c-2.13,0-4.26-.09-6.39-.13s-4.24-.31-6.36-.47L126,352a145.52,145.52,0,0,0,19.36.56l-.06-1.49c-2.93.07-5.86.19-8.78.06-1.47-.06-2.93,0-4.39-.16l-4.39-.33,1.21-13.37c1.67.12,3.34.27,5,.36l5,.13,0,7.46-4.58-.12.07-1.49,3,.08.08-4.48-3.64-.09c-1.21-.05-2.42-.17-3.63-.26l-.81,10.42,3.55.26,3.55.1c1.19,0,2.37.07,3.55.06l3.56-.08-.49-16.41c-1.5,0-3,.14-4.5.07l-4.49-.12c-3-.22-6-.36-8.95-.81L123,350.12l-.19,1.48Zm1.22-22.4-.19,1.47a109.47,109.47,0,0,0,19.07.82l-.06-1.49A109.52,109.52,0,0,1,125.6,329.41Zm19.88,26.14-.07-1.49a134,134,0,0,1-22.82-1l-.18,1.48A134.8,134.8,0,0,0,145.48,355.55Zm-43.26-8.22,5-17.19,3.71,1.05,3.75.87,1.87.42,1.9.34,3.79.67-2,13.28-5.38-1c-1.8-.3-3.57-.78-5.35-1.17l1.75-7.26c1.43.33,2.86.68,4.31,1l-.3,1.46c-1-.19-1.94-.43-2.91-.65l-1,4.37c2.5.63,5,1,7.58,1.49l1.69-10.31c-2.09-.4-4.2-.68-6.27-1.21s-4.15-.92-6.18-1.55l-4.42,15.81,2.34.66c.78.21,1.57.37,2.36.56,1.58.36,3.15.75,4.73,1.07,3.19.57,6.36,1.2,9.58,1.54l.19-1.48a129.88,129.88,0,0,1-17.26-3.35l3.46-13c1.6.48,3.26.78,4.88,1.18s3.28.68,4.93,1l-1.3,7.35c-1.49-.29-3-.48-4.49-.86l.31-1.46c1,.25,2,.41,3,.59l.83-4.4-1.79-.32-1.77-.41-3.54-.82-2.57,10.12c2.32.52,4.62,1.13,6.95,1.55l3.5.62,1.75.32,1.77.22,2.26-16.25a116.78,116.78,0,0,1-17.52-3.85l-5.23,17.12-.44,1.42Zm5-21.84-.44,1.42a109.85,109.85,0,0,0,18.64,4l.19-1.47A108.65,108.65,0,0,1,107.21,325.49Zm15.2,29.07.18-1.48a132.45,132.45,0,0,1-22.36-4.77l-.44,1.43A134.54,134.54,0,0,0,122.41,354.56Zm-41.29-15.4L89,323.08a112.76,112.76,0,0,0,14.24,5.81L99,341.63c-3.47-1.11-6.86-2.47-10.23-3.88l3-6.85c1.34.61,2.74,1.1,4.1,1.66L95.28,334l-2.78-1.1L90.78,337c2.41.92,4.77,2,7.23,2.73l3.42-9.87A117.32,117.32,0,0,1,89.62,325l-7,14.82a137.69,137.69,0,0,0,18.08,7l.44-1.42a131.31,131.31,0,0,1-16.42-6.28L90.29,327c3,1.43,6.15,2.64,9.29,3.82l-2.53,7c-1.44-.5-2.85-1.1-4.27-1.65l.56-1.38,2.8,1.11,1.57-4.2c-2.25-.91-4.53-1.72-6.72-2.77l-4.25,9.54A126.25,126.25,0,0,0,100,343.55l5-15.63a111.4,111.4,0,0,1-16.59-6.81l-8.07,16-.68,1.33Zm8.65-20.71-.67,1.33a113.94,113.94,0,0,0,17.67,7.13l.44-1.42A113,113,0,0,1,89.77,318.45Zm10,31.29.44-1.43A137.24,137.24,0,0,1,79,339.75l-.67,1.34A138.8,138.8,0,0,0,99.79,349.74Zm-38-22.23L72.23,313a117.08,117.08,0,0,0,13,8.17L78.92,333c-3.19-1.76-6.36-3.57-9.4-5.58l4.07-6.26c1.25.79,2.46,1.62,3.74,2.36l-.77,1.28c-.87-.48-1.69-1.06-2.53-1.58L71.63,327c2.14,1.44,4.42,2.65,6.64,3.95l5-9.14A117.25,117.25,0,0,1,72.51,315l-9.45,13.42a128.27,128.27,0,0,0,16.62,10l.68-1.33a130.77,130.77,0,0,1-15.14-8.94l7.6-11.07c2.78,1.86,5.6,3.69,8.53,5.31l-3.68,6.49c-1.32-.77-2.67-1.48-4-2.31l.78-1.27c.84.56,1.73,1,2.6,1.54L79.35,323c-2.13-1.16-4.12-2.56-6.17-3.84l-5.81,8.68A133.39,133.39,0,0,0,79.62,335l7.58-14.56A114.6,114.6,0,0,1,72,311L61.32,325.37l-.89,1.2Zm12-18.92-.89,1.2a110.44,110.44,0,0,0,16.24,10l.67-1.33A108,108,0,0,1,73.75,308.59Zm4.59,32.5.67-1.34a132.67,132.67,0,0,1-19.47-12l-.89,1.2A135.71,135.71,0,0,0,78.34,341.09ZM44.6,312.79l12.77-12.55a114,114,0,0,0,11.5,10.24l-8.25,10.59c-2.9-2.21-5.65-4.62-8.35-7.07l5.07-5.48c1,1,2.21,2,3.31,2.93l-1,1.13-2.26-1.95-3,3.33,2.92,2.53,1.46,1.25,1.52,1.2,6.52-8.16a121.86,121.86,0,0,1-9.54-8.48L45.73,313.94a142.5,142.5,0,0,0,14.7,12.63l.89-1.2c-1.19-.86-2.32-1.79-3.48-2.69s-2.31-1.81-3.4-2.78L51.12,317l-3.18-3,9.35-9.64c2.39,2.35,4.92,4.55,7.49,6.7l-4.73,5.78c-1.18-1-2.31-2-3.47-3l1-1.12,2.28,2,2.88-3.44c-1.82-1.59-3.7-3.13-5.42-4.85L50.12,314A128.71,128.71,0,0,0,61,323.22l9.92-13.07A112.5,112.5,0,0,1,57.48,298.2L44.56,310.58l-1.08,1Zm15-16.66-1.08,1a115.06,115.06,0,0,0,14.3,12.63l.89-1.2A112.81,112.81,0,0,1,59.64,296.13Zm-1,32.84.89-1.2a138.28,138.28,0,0,1-17.13-15.12l-1.08,1A140.54,140.54,0,0,0,58.65,329ZM30.19,295.38l14.7-10.22,2.23,3.14,2.37,3,1.19,1.52,1.26,1.45c.85,1,1.67,1.95,2.53,2.9l-9.91,9.06c-1.22-1.36-2.4-2.75-3.59-4.13s-2.28-2.84-3.42-4.26l5.91-4.55,2.74,3.47-1.15.95c-.63-.77-1.23-1.56-1.85-2.34l-3.52,2.77c1.56,2.06,3.27,4,5,5.93l7.79-7c-1.37-1.63-2.83-3.18-4.11-4.89l-2-2.51c-.66-.83-1.24-1.72-1.87-2.58l-13.36,9.52C33,299.37,35,301.86,37,304.4s4.2,4.92,6.47,7.22l1.08-1a128.48,128.48,0,0,1-11.3-13.45L44.1,289.2l.73,1,.78,1,1.55,2c1,1.34,2.12,2.6,3.22,3.86L44.75,302c-1-1.16-2-2.28-3-3.5l1.16-.94c.61.81,1.27,1.57,1.93,2.32l3.41-2.9-1.18-1.38L46,294.12l-2.24-2.86-8.36,6.27c1.48,1.85,2.89,3.76,4.43,5.56l2.33,2.69,1.17,1.34,1.23,1.29,12-11.21a120.07,120.07,0,0,1-11.22-14l-14.82,10-1.24.84Zm17.59-13.87-1.24.84a113.89,113.89,0,0,0,12,14.81l1.08-1A111.76,111.76,0,0,1,47.78,281.51Zm-6.45,32.17,1.08-1A135.58,135.58,0,0,1,28,294.89l-1.24.84A137.86,137.86,0,0,0,41.33,313.68ZM18.9,275.78l16.22-7.58c.5,1.18,1.11,2.31,1.7,3.46s1.13,2.3,1.78,3.4c1.28,2.23,2.53,4.47,4,6.61l-11.3,7.25c-1-1.53-2-3.06-2.86-4.66s-1.87-3.13-2.66-4.78l6.6-3.48c.64,1.33,1.42,2.58,2.14,3.86l-1.29.75L31.7,278l-3.94,2.14,1.93,3.35c.63,1.12,1.28,2.24,2,3.31l8.86-5.54-.86-1.35-.79-1.38-1.59-2.76c-1-1.86-2-3.78-2.95-5.67l-14.78,7.13a146.71,146.71,0,0,0,9.68,16.81l1.24-.84-2.39-3.69-1.18-1.86-1.09-1.9c-.73-1.28-1.48-2.54-2.18-3.83l-2-3.91,12-6c.78,1.48,1.49,3,2.32,4.46l2.51,4.35-6.38,3.88-2.28-4,1.3-.73,1.5,2.61,3.86-2.28-1.82-3.15c-.62-1.05-1.12-2.15-1.69-3.22l-9.29,4.76c.55,1.05,1.06,2.12,1.64,3.16L27.11,285c1.14,2.09,2.48,4.05,3.75,6.05l13.7-9a109.1,109.1,0,0,1-8.66-15.71L19.59,273.7l-1.36.61Zm19.72-10.7-1.36.62a114.39,114.39,0,0,0,9.28,16.65l1.24-.84A112.33,112.33,0,0,1,38.62,265.08ZM26.78,295.73l1.24-.84a135.37,135.37,0,0,1-11.14-20l-1.36.61A137.94,137.94,0,0,0,26.78,295.73ZM11.11,254.55l17.27-4.71,1.05,3.7,1.23,3.65.61,1.82L32,260.8l1.41,3.58L21,269.62l-2-5.09c-.66-1.7-1.19-3.45-1.79-5.17l7.09-2.31,1.42,4.18-1.4.51-1-2.82-4.24,1.44c.78,2.46,1.75,4.84,2.7,7.24l9.66-4c-.76-2-1.61-3.93-2.24-6l-1-3c-.34-1-.59-2-.89-3.06L11.55,256.1c.82,3.14,1.95,6.17,3,9.24,1.19,3,2.31,6.05,3.7,9l1.36-.61c-1.26-2.66-2.3-5.4-3.37-8.13-.55-1.36-1-2.77-1.45-4.15s-1-2.77-1.35-4.19l12.87-3.85.34,1.21.4,1.19.81,2.38c.5,1.6,1.13,3.16,1.75,4.71l-6.94,2.74c-.55-1.42-1.16-2.82-1.62-4.28l1.41-.5c.31,1,.66,1.9,1,2.83l4.19-1.59c-.47-1.12-.86-2.27-1.24-3.42l-1.17-3.44-10,3.11c.78,2.24,1.48,4.51,2.33,6.73l1.3,3.31.66,1.66.72,1.62,15-6.59a117.76,117.76,0,0,1-5.89-16.93l-17.33,4.5-1.44.37Zm21.22-7.18-1.45.37a113.13,113.13,0,0,0,6.38,18l1.36-.62A111,111,0,0,1,32.33,247.37ZM15.52,275.54l1.36-.61a134.13,134.13,0,0,1-7.65-21.56l-1.45.37A136.8,136.8,0,0,0,15.52,275.54ZM7,232.3l17.82-1.71a114.42,114.42,0,0,0,2.51,15.18l-13.08,3c-.87-3.54-1.48-7.14-2-10.74L19.62,237c.17,1.46.49,2.9.73,4.35l-1.47.27-.52-2.94-4.43.7.68,3.81.34,1.9.44,1.88,10.2-2.25a118.85,118.85,0,0,1-2.08-12.59L7.19,233.91A141.91,141.91,0,0,0,10.67,253l1.44-.37c-.35-1.43-.67-2.86-1-4.29l-.49-2.14c-.16-.72-.27-1.44-.4-2.16l-.78-4.33c-.2-1.45-.37-2.91-.56-4.36l13.33-1.61c.36,3.33,1,6.63,1.6,9.92l-7.31,1.52c-.31-1.49-.55-3-.82-4.5l1.47-.25.53,3,4.39-.86c-.4-2.39-.91-4.77-1.16-7.18l-10.35,1.38a127.75,127.75,0,0,0,2.63,14l15.93-3.93a110.16,110.16,0,0,1-2.89-17.7l-17.84,1.5-1.49.12Zm22.17-3.48-1.49.13a116,116,0,0,0,3.17,18.79l1.45-.37A114.09,114.09,0,0,1,29.2,228.82ZM7.78,253.74l1.45-.37a136.9,136.9,0,0,1-3.81-22.55l-1.49.12A139.94,139.94,0,0,0,7.78,253.74Zm-1-44L24.63,211c-.25,2.56-.23,5.13-.32,7.7,0,1.28.05,2.57.07,3.85s0,2.57.15,3.85l-13.41.8c-.16-1.81-.12-3.64-.19-5.46,0-.91-.07-1.82,0-2.73l.07-2.73,7.46.17c0,1.48-.11,3,0,4.42l-1.49,0,0-1.49,0-1.49-4.48-.06c-.06,1.29,0,2.58,0,3.86l.1,3.87,10.43-.5c0-2.13-.15-4.26-.13-6.39s.05-4.26.22-6.38l-16.38-1a134.53,134.53,0,0,0,.24,19.36l1.49-.12-.33-4.38-.12-4.4-.05-2.19c0-.73,0-1.46,0-2.2L8.05,213l13.41.64-.13,5c0,1.68.07,3.35.09,5L14,224l-.12-4.58h1.49l.08,3,4.48-.11c0-1.21-.1-2.42-.06-3.64l.09-3.63-10.44-.38c0,2.37-.17,4.74-.06,7.11s.1,4.74.32,7.1l16.37-1.18a109.9,109.9,0,0,1,.11-18l-17.84-1.5-1.49-.12Zm22.11,14.4-.12-4.72.12-4.72c0-1.57.22-3.13.31-4.7l-1.49-.13c-.09,1.59-.3,3.18-.31,4.77l-.12,4.78.12,4.78c0,1.59.22,3.18.31,4.77l1.49-.13C29.11,227.25,28.9,225.69,28.89,224.12Zm-25,6.82,1.49-.12c-.12-1.9-.35-3.8-.38-5.71L4.9,219.4,5,213.69c0-1.91.26-3.81.38-5.71l-1.49-.12c-.12,1.92-.35,3.84-.38,5.76l-.14,5.78.14,5.78C3.58,227.1,3.81,229,3.93,230.94Zm6.36-43.56,17.38,4.29-.86,3.75c-.3,1.25-.47,2.52-.71,3.78-.52,2.52-.77,5.07-1.11,7.62l-13.35-1.45.69-5.43,1-5.39L20.61,196l-.78,4.35-1.47-.23.52-2.94-4.4-.81-.67,3.81L13.32,204l10.37,1.25.4-3.17c.14-1.05.36-2.09.54-3.14l.56-3.14.72-3.11L9.93,189c-.34,1.58-.78,3.14-1,4.74L8,198.48c-.27,1.59-.43,3.2-.64,4.8l-.31,2.41-.19,2.42,1.49.12L8.56,206l.27-2.18.55-4.36.77-4.34.38-2.16.49-2.15,13.11,2.9c-.41,1.63-.68,3.28-1,4.93l-.45,2.47c-.12.83-.21,1.67-.32,2.5l-7.4-1,.29-2.27.39-2.25,1.47.25c-.16,1-.38,2-.48,3l4.43.65c.13-1.21.41-2.39.6-3.59s.4-2.39.66-3.57l-10.23-2.13c-.46,2.32-.85,4.66-1.26,7s-.64,4.7-.87,7.06l16.34,1.57a123.08,123.08,0,0,1,3.11-17.67l-17.33-4.5-1.44-.37C10.52,186.33,10.42,186.86,10.29,187.38Zm22,4.05-1.45-.37a116,116,0,0,0-3.17,18.79l1.49.13A114.09,114.09,0,0,1,32.33,191.43ZM3.93,207.86l1.49.12a136.9,136.9,0,0,1,3.81-22.55l-1.45-.37A139.94,139.94,0,0,0,3.93,207.86ZM17.57,166,34,173.15c-.56,1.16-1,2.36-1.48,3.55s-1,2.37-1.39,3.59c-.8,2.43-1.69,4.84-2.34,7.33l-12.91-3.69.75-2.64c.27-.87.58-1.73.87-2.59.6-1.72,1.12-3.47,1.83-5.16l7,2.66c-.57,1.36-1,2.77-1.49,4.16l-1.41-.48,1-2.82-4.2-1.55-1.25,3.66c-.41,1.22-.84,2.43-1.17,3.68l10,3c.26-1,.62-2,1-3l1-3c.73-2,1.55-4,2.32-5.94l-15.12-6.4a146.51,146.51,0,0,0-6.23,18.37l1.44.37c.83-2.81,1.53-5.66,2.53-8.42.48-1.39.92-2.79,1.43-4.16l1.62-4.09,12.42,5.08c-.6,1.57-1.25,3.11-1.81,4.69L26.69,184l-7.13-2.23L21,177.47l1.41.5-1,2.86,4.26,1.39,1.16-3.45c.39-1.15.88-2.26,1.31-3.39l-9.71-3.84c-.43,1.11-.89,2.2-1.29,3.32l-1.15,3.37c-.8,2.23-1.41,4.53-2.06,6.81l15.83,4.32a108.44,108.44,0,0,1,6.08-16.87L19.59,165.1l-1.36-.61Zm21,7.76-1.36-.62a113.13,113.13,0,0,0-6.38,18l1.45.37A111,111,0,0,1,38.62,173.72ZM7.78,185.06l1.45.37a134.13,134.13,0,0,1,7.65-21.56l-1.36-.61A136.8,136.8,0,0,0,7.78,185.06Zm20.59-39L43.31,156l-2.07,3.25c-.68,1.09-1.29,2.22-1.94,3.32l-1,1.67c-.31.56-.59,1.14-.89,1.71l-1.75,3.42-12.1-5.83,2.5-4.87c.85-1.61,1.8-3.17,2.69-4.76l6.42,3.8L33,161.49l-1.31-.71,1.49-2.59L29.31,156c-.63,1.12-1.32,2.21-1.9,3.36l-1.76,3.44L35,167.41c1-1.88,1.9-3.8,3-5.62L39.59,159c.55-.91,1.15-1.79,1.71-2.69l-13.8-8.87c-1.8,2.69-3.36,5.53-5,8.33s-3,5.72-4.3,8.7l1.36.61c1.16-2.69,2.54-5.28,3.88-7.89.67-1.3,1.44-2.55,2.16-3.83s1.45-2.55,2.26-3.77l11.38,7.12c-.93,1.39-1.71,2.88-2.56,4.32-.42.73-.85,1.45-1.25,2.19l-1.14,2.23-6.64-3.4c.7-1.36,1.37-2.73,2.15-4l1.31.73-.76,1.31-.69,1.34,4,2.09c.53-1.09,1.14-2.14,1.75-3.19l1.81-3.15-8.92-5.43c-1.18,2.06-2.4,4.1-3.52,6.18l-1.62,3.17c-.55,1-1.09,2.11-1.56,3.2l14.87,6.95a120,120,0,0,1,8.84-15.61l-14.82-10-1.24-.84Zm19.41,11.19-1.24-.84a114.39,114.39,0,0,0-9.28,16.65l1.36.62A112.33,112.33,0,0,1,47.78,157.29Zm-32.26,6,1.36.61a135.37,135.37,0,0,1,11.14-20l-1.24-.84A137.94,137.94,0,0,0,15.52,163.26Zm26.85-34.91,13.07,12.24c-.44.46-.89.92-1.32,1.4l-1.26,1.45c-.83,1-1.7,1.93-2.51,2.93-1.57,2-3.21,4-4.65,6.13l-10.94-7.8,1.59-2.22L38,140.32c1.14-1.43,2.23-2.89,3.45-4.25l5.69,4.83c-1,1.1-1.89,2.27-2.8,3.43l-1.17-.93c.62-.78,1.22-1.57,1.85-2.34l-3.44-2.85c-.82,1-1.6,2-2.4,3s-1.61,2-2.34,3.08l8.43,6.17c.6-.88,1.27-1.71,1.93-2.55l2-2.51c1.36-1.63,2.77-3.23,4.17-4.83L41.26,129.52a147.9,147.9,0,0,0-12,15.22l1.24.84c1.71-2.38,3.33-4.83,5.19-7.09.91-1.15,1.79-2.33,2.74-3.44l2.88-3.32,10,8.93c-1.09,1.28-2.21,2.52-3.27,3.82l-3.11,4L39,144l2.83-3.6,1.16.94-1.87,2.37,3.55,2.73,2.25-2.86c.76-.94,1.58-1.84,2.37-2.76l-7.88-6.86-2.33,2.7-2.19,2.79c-1.51,1.84-2.85,3.79-4.23,5.73l13.48,9.36A109.69,109.69,0,0,1,57.48,140.6L44.56,128.22l-1.08-1Zm17.27,14.32-1.08-1a113.89,113.89,0,0,0-12,14.81l1.24.84A111.76,111.76,0,0,1,59.64,142.67Zm-32.86.4,1.24.84a135.58,135.58,0,0,1,14.39-17.76l-1.08-1A137.86,137.86,0,0,0,26.78,143.07ZM59.14,113.2,70,127.46l-3,2.38c-1,.78-2,1.66-2.93,2.49-2,1.64-3.79,3.47-5.66,5.23L48.88,128l4-3.77c1.36-1.22,2.75-2.4,4.13-3.59l4.79,5.71-3.34,2.9-1-1.11,2.26-1.95-2.92-3.4c-1,.85-2,1.67-2.91,2.54L51.05,128l7.28,7.5,2.31-2.2c.76-.75,1.59-1.41,2.39-2.11l2.41-2.09,2.51-2-10.08-13c-1.26,1-2.57,2-3.78,3l-3.66,3.17c-1.21,1.09-2.36,2.22-3.53,3.33s-2.31,2.27-3.42,3.44l1.08,1c2-2.17,4.16-4.13,6.27-6.16,1.09-1,2.21-1.93,3.31-2.89l1.66-1.44,1.73-1.36,8.38,10.49c-1.34,1-2.6,2.12-3.86,3.22l-1.9,1.65-1.82,1.73L53.2,128l1.65-1.58c.56-.52,1.15-1,1.72-1.51l1,1.12c-.76.66-1.53,1.3-2.25,2l3,3.29c.86-.86,1.81-1.61,2.72-2.41s1.82-1.61,2.76-2.37l-6.61-8.08c-1.82,1.52-3.61,3.08-5.38,4.65s-3.47,3.23-5.11,4.94l11.71,11.5A121.31,121.31,0,0,1,72,127.81L61.32,113.43l-.89-1.2C60,112.53,59.57,112.87,59.14,113.2Zm14.61,17-.89-1.2a115.06,115.06,0,0,0-14.3,12.63l1.08,1A112.81,112.81,0,0,1,73.75,130.21Zm-32.42-5.09,1.08,1A138.28,138.28,0,0,1,59.54,111l-.89-1.2A140.54,140.54,0,0,0,41.33,125.12Zm36.91-24L86.51,117l-1.71.88-1.67,1-3.34,1.92c-2.14,1.41-4.37,2.7-6.42,4.24l-7.73-11c.74-.52,1.48-1.06,2.24-1.57l2.3-1.48c1.53-1,3.06-2,4.66-2.86l3.76,6.44-1.91,1.11-1.86,1.19-.8-1.26c.84-.52,1.66-1.1,2.53-1.58l-2.31-3.84c-1.11.64-2.18,1.37-3.27,2.06s-2.19,1.35-3.22,2.12l5.9,8.61c1.75-1.21,3.58-2.31,5.35-3.48s3.68-2.15,5.55-3.15l-7.75-14.47a140.94,140.94,0,0,0-16.38,10.38l.89,1.2c2.39-1.7,4.75-3.44,7.25-5s5-3.06,7.54-4.52l6.49,11.76-4.36,2.51L74,120.91l-4.15-6.2,3.85-2.47.79,1.27L72,115.13l2.44,3.76,3.06-2,3.15-1.81L75.46,106l-3.09,1.77c-1,.62-2,1.27-3,1.91s-2,1.26-3,1.94l-2.9,2.06L73.1,127c1.23-.85,2.41-1.77,3.69-2.57L80.57,122c2.59-1.5,5.16-3,7.86-4.33l-8.07-16-.68-1.33Zm11.53,19.24L89.1,119a110.44,110.44,0,0,0-16.24,10l.89,1.2A108,108,0,0,1,89.77,120.35ZM58.65,109.83l.89,1.2A132.67,132.67,0,0,1,79,99.05l-.67-1.34A135.71,135.71,0,0,0,58.65,109.83ZM99.12,92.41l5.45,17c-2.43.82-4.88,1.61-7.25,2.6s-4.72,2-7.06,3L84.5,103l5-2.26,5.09-2,2.62,7-4.11,1.62L92.5,106l2.78-1.1-1.62-4.17-3.59,1.42-3.52,1.59,4.36,9.49,2.91-1.32c1-.43,2-.79,3-1.19s2-.79,3-1.16l3-1L97.59,92.92a127.42,127.42,0,0,0-17.91,7.46l.68,1.33,2-1c.66-.33,1.34-.61,2-.92l4-1.81,4.09-1.62,2-.8,2.08-.71,4.4,12.69c-1.6.5-3.16,1.13-4.71,1.75l-2.34.92c-.77.32-1.53.68-2.29,1l-3-6.82,2.09-.94,2.12-.84.56,1.38c-.93.38-1.88.71-2.79,1.15l1.77,4.11c1.1-.52,2.25-.91,3.37-1.37s2.24-.92,3.39-1.31l-3.54-9.82c-2.23.81-4.42,1.71-6.63,2.58s-4.34,1.92-6.46,3l7.22,14.74a120.13,120.13,0,0,1,16.67-6.6L101.1,93.34l-.44-1.42C100.14,92.06,99.63,92.23,99.12,92.41Zm8.09,20.9-.44-1.42A113.94,113.94,0,0,0,89.1,119l.67,1.33A113,113,0,0,1,107.21,113.31ZM78.34,97.71,79,99.05a137.24,137.24,0,0,1,21.22-8.56l-.44-1.43A138.8,138.8,0,0,0,78.34,97.71ZM121.18,87.4l2.46,17.73c-1.27.14-2.53.37-3.8.6s-2.53.43-3.78.7c-2.49.6-5,1.08-7.47,1.84L105,95.34l2.63-.74,2.67-.62c1.78-.4,3.55-.85,5.35-1.13l1.38,7.33c-1.45.23-2.89.57-4.32.9l-.33-1.45c1-.22,1.93-.46,2.91-.65l-.88-4.4c-1.27.26-2.52.57-3.77.86s-2.52.54-3.76.92l2.69,10.09c2-.57,4.14-1,6.2-1.48s4.19-.77,6.28-1.14l-2.46-16.22a142.54,142.54,0,0,0-18.91,4.31l.44,1.42c2.82-.79,5.63-1.66,8.5-2.26,1.43-.32,2.85-.69,4.29-1l4.33-.78,2.18,13.25c-1.65.31-3.31.57-5,.91l-4.9,1.13-1.83-7.24,4.46-1,.32,1.46-2.94.68,1,4.36,3.55-.82c1.18-.26,2.38-.44,3.57-.66L116.91,91.1l-3.5.63-3.47.8c-1.16.28-2.32.5-3.46.84l-3.43,1,4.61,15.75c1.45-.39,2.87-.86,4.33-1.19l4.37-1c3-.54,5.88-1.14,8.86-1.45L123,88.68l-.19-1.48Zm4.42,22-.19-1.47a109.85,109.85,0,0,0-18.64,4l.44,1.42A108.65,108.65,0,0,1,125.6,109.39ZM99.79,89.06l.44,1.43a132.45,132.45,0,0,1,22.36-4.77l-.18-1.48A134.54,134.54,0,0,0,99.79,89.06Zm44-2.87-.54,17.9a119.82,119.82,0,0,0-15.39.51l-1.37-13.36,5.46-.42c1.81-.16,3.64-.12,5.46-.19l.13,7.46c-1.47,0-2.94,0-4.42.13L133,96.73c1-.07,2-.06,3-.1l-.14-4.47c-2.57,0-5.14.26-7.71.45l.94,10.4a115.6,115.6,0,0,1,12.76-.45l.29-16.41-2.42-.06-2.42.06c-1.62,0-3.23.06-4.84.15-3.23.25-6.46.42-9.66.9l.19,1.48A133.51,133.51,0,0,1,140.5,87.6L140.42,101c-3.35,0-6.71.07-10,.38L129.79,94c1.52-.09,3-.28,4.57-.28l.06,1.49c-1,0-2,.09-3,.17l.29,4.47,1.82-.14,1.82-.05,3.63-.09-.06-10.44c-2.37.08-4.74.06-7.1.24l-3.55.26-1.77.14-1.77.22,1.87,16.3a117,117,0,0,1,17.95-.65l.75-17.89.06-1.49Zm.68,22.4.06-1.49a109.47,109.47,0,0,0-19.07.82l.19,1.47A109.52,109.52,0,0,1,144.42,108.59Zm-22-24.35.18,1.48a134,134,0,0,1,22.82-1l.07-1.49A134.8,134.8,0,0,0,122.41,84.24Zm43.79,4.5-3.54,17.55c-2.53-.42-5-1-7.6-1.24-1.27-.16-2.54-.34-3.82-.48l-3.84-.29.88-13.4c1.82.16,3.64.24,5.45.46l5.43.69L158,99.41l-4.39-.56.17-1.48,3,.38.61-4.44-3.83-.49c-1.28-.18-2.56-.22-3.85-.33l-.81,10.41c1.06.09,2.13.14,3.18.26l3.17.41c2.12.22,4.2.64,6.3,1l3.05-16.13-4.78-.84L155,87c-1.61-.23-3.22-.32-4.83-.45s-3.22-.3-4.84-.31l-.06,1.49c1.46,0,2.92.19,4.38.28s2.93.18,4.38.38c2.91.37,5.83.68,8.7,1.25l-2.33,13.23-2.47-.45c-.83-.12-1.67-.21-2.5-.32-1.66-.19-3.31-.48-5-.57l.67-7.43c1.52.08,3,.32,4.55.51l-.19,1.47-3-.38-.46,4.46,3.61.46c1.2.16,2.41.28,3.6.52l1.69-10.3c-1.17-.23-2.34-.38-3.52-.52l-3.53-.45c-2.35-.27-4.72-.39-7.09-.58l-.88,16.38A120.89,120.89,0,0,1,163.71,108l3.75-17.5.32-1.46C167.25,89,166.73,88.82,166.2,88.74ZM163.08,111l.32-1.46a117,117,0,0,0-18.92-2.4l-.06,1.49A115.72,115.72,0,0,1,163.08,111Zm-17.6-27.71-.07,1.49a140.84,140.84,0,0,1,22.68,2.88l.31-1.45A140.62,140.62,0,0,0,145.48,83.25ZM187.9,95.12l-6.48,16.68c-2.36-1-4.83-1.71-7.25-2.57l-3.7-1-1.85-.53-1.87-.43,3.13-13.06c1.79.37,3.54.9,5.29,1.39l2.64.75c.87.28,1.73.58,2.59.87l-2.35,7.08-2.1-.71-2.12-.61.42-1.43c.95.28,1.92.52,2.86.86l1.36-4.27c-1.21-.44-2.47-.73-3.71-1.1s-2.47-.73-3.72-1l-2.56,10.12c2.05.54,4.09,1.15,6.14,1.73s4,1.33,6,2.08l5.75-15.37a136.87,136.87,0,0,0-18.62-5.44l-.32,1.46,4.29,1c1.43.32,2.83.77,4.24,1.16,2.84.74,5.6,1.74,8.38,2.68L179.82,108l-4.76-1.61L170.23,105l1.92-7.21,4.4,1.25-.43,1.42-2.9-.82L172,104l3.5,1,3.44,1.17,3.42-9.87L179,95.12c-1.12-.38-2.28-.66-3.42-1l-3.42-1-3.47-.81-3.64,16c2.94.61,5.8,1.48,8.68,2.3L178,112.1c1.42.46,2.79,1.07,4.19,1.6l6.68-16.61.56-1.38Zm-6.84,21.35.55-1.39a107,107,0,0,0-18.21-5.58l-.32,1.46A105.49,105.49,0,0,1,181.06,116.47ZM168.4,86.17l-.31,1.45A130.3,130.3,0,0,1,190,94.32l.56-1.38A130.49,130.49,0,0,0,168.4,86.17Zm39.82,18.88L199,120.39c-2.23-1.27-4.43-2.6-6.74-3.72s-4.62-2.23-7-3.29l5.32-12.33,5,2.25,4.87,2.5L197,112.37l-3.94-2,.66-1.34,2.66,1.36,2.06-4L195,104.65l-3.52-1.6-4.24,9.54,2.9,1.31c1,.46,1.9,1,2.85,1.45s1.9,1,2.83,1.47l2.76,1.59,8.28-14.17a128.1,128.1,0,0,0-17.41-8.53l-.56,1.38,2,.81,2,.9,4,1.82,3.91,2c.65.34,1.31.66,2,1l1.91,1.09-6.63,11.68c-.73-.42-1.44-.85-2.18-1.25L193.63,114l-2.24-1.15c-.74-.38-1.52-.7-2.28-1.05l3.12-6.78,2.08.95,2,1-.67,1.33c-.9-.44-1.78-.94-2.7-1.34l-1.92,4c1.11.5,2.16,1.09,3.25,1.63s2.18,1.07,3.22,1.69l5-9.14c-2.07-1.15-4.21-2.19-6.31-3.28s-4.31-2-6.5-2.9l-6.31,15.15a119.55,119.55,0,0,1,16,8.18l9.4-15.23.78-1.27C209.15,105.6,208.69,105.31,208.22,105.05Zm-10.37,19.88.78-1.27a114,114,0,0,0-17-8.58l-.55,1.39A112.79,112.79,0,0,1,197.85,124.93Zm-7.33-32L190,94.33a136.5,136.5,0,0,1,20.42,10.29l.78-1.27A138.06,138.06,0,0,0,190.52,92.94Zm36,25.36-11.67,13.57c-1.9-1.73-4-3.24-6-4.84l-3.13-2.24-1.57-1.12-1.63-1,7.33-11.26c1.55,1,3,2,4.52,3.09l2.23,1.58,2.15,1.68-4.58,5.89-1.74-1.37c-.59-.44-1.2-.85-1.8-1.28l.88-1.21c.8.58,1.63,1.13,2.4,1.76l2.71-3.56c-1-.82-2.08-1.52-3.12-2.28s-2.08-1.52-3.16-2.21l-5.81,8.68c1.76,1.19,3.48,2.45,5.21,3.68s3.38,2.6,5,4l10.55-12.57a136.85,136.85,0,0,0-15.71-11.35l-.78,1.27c2.47,1.58,5,3.13,7.31,4.88s4.69,3.51,7,5.32l-8.51,10.39-4-3.11-4.09-2.92,4.22-6.15,3.73,2.65-.89,1.2-2.46-1.75-2.57,3.66,2.95,2.12,2.86,2.24,6.52-8.16-2.8-2.19c-.93-.74-1.92-1.39-2.88-2.09s-1.92-1.38-2.9-2l-3-1.92-8.78,13.86c2.55,1.57,5,3.34,7.4,5.08l3.54,2.78c1.18.91,2.27,1.94,3.42,2.91l11.83-13.44,1-1.12ZM213,136.15l1-1.12a108.92,108.92,0,0,0-15.32-11.37l-.78,1.27A108.22,108.22,0,0,1,213,136.15Zm-1.81-32.8-.78,1.27a131.43,131.43,0,0,1,18.36,13.62l1-1.12A132.8,132.8,0,0,0,211.16,103.35Zm31.23,31.05-13.78,11.42c-1.71-1.92-3.32-3.92-5.13-5.74-.9-.92-1.75-1.89-2.68-2.77L218,134.66l9.11-9.86c1.32,1.26,2.66,2.5,3.95,3.78l3.77,4-5.51,5-3.05-3.2,1.07-1,2.06,2.16,3.27-3.06L230,129.64c-.91-.92-1.86-1.79-2.78-2.68l-7.18,7.58,2.31,2.2,2.2,2.31c1.5,1.51,2.87,3.14,4.26,4.75l12.51-10.62a130.39,130.39,0,0,0-13.58-13.83l-1,1.12,1.65,1.45,1.6,1.51c1,1,2.13,2,3.16,3,2,2.13,4.09,4.2,6,6.46L229,141.75l-1.64-1.9L225.64,138c-1.16-1.21-2.29-2.45-3.53-3.58l5.2-5.36c1.12,1,2.17,2.14,3.22,3.25l-1.08,1c-.7-.72-1.37-1.46-2.09-2.17l-3.16,3.18c.86.85,1.68,1.75,2.52,2.62s1.7,1.74,2.47,2.67l7.8-6.95c-1.55-1.79-3.24-3.46-4.86-5.19s-3.41-3.29-5.15-4.9l-11,12.18a120.79,120.79,0,0,1,12.34,13.05l13.92-11.26,1.16-.94C243.06,135.24,242.74,134.81,242.39,134.4ZM226,149.73l1.16-.94A115.29,115.29,0,0,0,214,135l-1,1.12A113,113,0,0,1,226,149.73Zm3.73-32.61-1,1.12a137,137,0,0,1,15.82,16.49l1.16-.94A139.19,139.19,0,0,0,229.73,117.12ZM255.27,153l-15.52,8.94c-1.23-2.26-2.67-4.39-4-6.55-.7-1.08-1.48-2.1-2.21-3.16s-1.48-2.1-2.29-3.09l10.64-8.19c1.16,1.41,2.17,2.93,3.24,4.41.52.75,1.06,1.48,1.57,2.24l1.48,2.3-6.28,4c-.8-1.24-1.57-2.49-2.45-3.68l1.23-.85c.58.81,1.15,1.62,1.67,2.47l3.74-2.47c-.67-1.09-1.44-2.13-2.18-3.18l-2.25-3.14-8.35,6.26c1.23,1.74,2.49,3.45,3.68,5.22l1.72,2.68c.58.9,1.16,1.79,1.67,2.72l14.12-8.36a134.17,134.17,0,0,0-11.06-15.92l-1.16.94,2.72,3.46c.89,1.16,1.71,2.38,2.57,3.56,1.75,2.36,3.24,4.89,4.84,7.34l-11.47,7-2.71-4.23c-.93-1.4-1.93-2.74-2.89-4.12l6-4.4,2.65,3.73-1.23.84L241,147.3l-3.65,2.6c.7,1,1.43,2,2.09,3l2,3.06,8.86-5.54c-1.29-2-2.53-4-3.94-5.92l-2.06-2.9-2.19-2.8-12.89,10.16a109,109,0,0,1,10,14.92l15.62-8.75,1.3-.73Zm-18.72,12.33,1.3-.72a108.2,108.2,0,0,0-10.69-15.8l-1.16.94A107.12,107.12,0,0,1,236.55,165.31Zm9.17-31.52-1.16.94a129.71,129.71,0,0,1,12.81,18.93l1.3-.73A131.77,131.77,0,0,0,245.72,133.79Zm19.15,39.67-16.8,6.17-1.42-3.58c-.24-.6-.45-1.2-.71-1.79l-.8-1.75c-.53-1.16-1-2.35-1.6-3.5l-1.75-3.42,11.87-6.28c.82,1.63,1.69,3.24,2.46,4.89l2.26,5-6.87,2.91-1.83-4,1.35-.63,1.23,2.72,4.11-1.8-1.59-3.52c-.53-1.18-1.16-2.3-1.73-3.46l-9.3,4.77c.48.95,1,1.89,1.44,2.85l1.32,2.9c.92,1.92,1.65,3.92,2.44,5.9L264.28,172l-1.78-4.51-2-4.42c-.64-1.49-1.42-2.91-2.15-4.36s-1.45-2.89-2.28-4.28l-1.3.73c.75,1.26,1.41,2.57,2.08,3.88s1.36,2.59,2,3.93c1.2,2.67,2.46,5.32,3.48,8.08l-12.49,4.93-.92-2.34c-.32-.77-.68-1.53-1-2.29-.71-1.52-1.34-3.08-2.14-4.55l6.68-3.33c.73,1.35,1.33,2.75,2,4.14l-1.36.62-1.24-2.75-4,1.95,1.5,3.31c.5,1.1,1,2.2,1.44,3.34l9.66-4c-.41-1.11-.9-2.19-1.39-3.27l-1.47-3.24c-1-2.14-2.14-4.23-3.22-6.35l-14.41,7.84a120,120,0,0,1,7.27,16.4l16.88-6,1.41-.49Zm-20.57,9,1.41-.49a113.41,113.41,0,0,0-7.86-17.36l-1.3.72A113.64,113.64,0,0,1,244.3,182.44Zm14.37-29.51-1.3.73a135.92,135.92,0,0,1,9.43,20.83l1.41-.5A138,138,0,0,0,258.67,152.93Zm12.12,42.36-17.61,3.22c-.39-2.54-1.06-5-1.61-7.52-.31-1.25-.69-2.47-1-3.71s-.69-2.47-1.12-3.68l12.76-4.16c.62,1.72,1.07,3.49,1.58,5.24l.74,2.63.62,2.67-7.27,1.7c-.33-1.44-.65-2.88-1.08-4.29l1.44-.39c.28.95.55,1.91.76,2.89l4.35-1.08c-.27-1.26-.65-2.49-1-3.73l-1.06-3.72-10,3.12c.58,2.05,1.18,4.09,1.73,6.14s1,4.13,1.38,6.23l16.11-3.15c-.26-1.6-.7-3.16-1-4.74s-.71-3.16-1.18-4.71L267,179.59,265.4,175l-1.41.49,1.41,4.17c.46,1.4.82,2.82,1.23,4.23.86,2.8,1.43,5.68,2.11,8.54l-13.15,2.73-1.13-4.9c-.41-1.62-.9-3.22-1.35-4.84l7.15-2.13,1.25,4.4-1.44.38-.83-2.91-4.3,1.24c.32,1.16.68,2.32,1,3.5l.82,3.54,10.19-2.25c-.53-2.31-1-4.63-1.72-6.9l-1-3.43-1.13-3.37-15.54,5.28A106.15,106.15,0,0,1,252,200.14l17.65-3,1.47-.25ZM249,200.64l1.47-.25A106.55,106.55,0,0,0,245.71,182l-1.41.49A104.92,104.92,0,0,1,249,200.64ZM268.21,174l-1.41.5a129.36,129.36,0,0,1,5.75,22.14l1.47-.25A130.18,130.18,0,0,0,268.21,174Zm4.76,43.8-17.9.21-.1-3.85c0-1.29-.18-2.57-.26-3.85-.13-2.56-.52-5.1-.83-7.65l13.29-1.93.69,5.43.42,5.45-7.45.44-.34-4.4,1.49-.15.22,3,4.47-.32-.3-3.85-.48-3.84-10.36,1.38.41,3.17c.12,1.05.17,2.12.26,3.18l.24,3.18.08,3.19,16.41-.39c0-3.23-.31-6.45-.56-9.67-.13-1.62-.38-3.22-.57-4.82l-.31-2.41-.41-2.39-1.47.25.38,2.17.28,2.18.55,4.36.34,4.38.17,2.2c0,.73,0,1.46.07,2.19l-13.42.48c0-1.68-.17-3.35-.29-5l-.19-2.51c-.08-.83-.21-1.66-.31-2.49l7.41-.9.29,2.28.18,2.28-1.49.12c-.09-1-.12-2-.27-3l-4.45.48c.25,2.41.4,4.84.57,7.25l10.43-.49c-.14-2.37-.34-4.73-.52-7.1s-.57-4.71-.93-7.05L252.2,201.5a126,126,0,0,1,1.41,17.9H273Zm-22.34,1.61h1.49a118.5,118.5,0,0,0-1.63-19l-1.47.25A117.79,117.79,0,0,1,250.63,219.4Zm23.39-23-1.47.25a141.4,141.4,0,0,1,1.95,22.77H276A143.36,143.36,0,0,0,274,196.38Z"/><path class="cls-20" d="M271.68,34c0-10.6-7.47-19.4-16.63-19.4l-52,.2c2,.6,4,1.2,6.11,1.9s4.11,1.4,6,2.1l36.23.5c8.95,0,16.11,8.5,16.11,19q0,66.75-.1,133.6c1.47,4.4,3.16,8.7,4.63,13.1Z"/><path class="cls-21" d="M35.52,425.8c-11.28,0-20.32-8.6-20.32-19.1v-.1q0-66.3-.11-132.8l-4.68-11.1c-.11,48.6,0,98.7-.11,147.3,0,10.9,9.47,19.7,21,19.7h.11l64.7-.4-14.15-3.6Z"/><path class="cls-22" d="M14.51,35.1c0-10.4,7.89-18.9,17.78-18.9H71.21c3.26-1.1,7.05-2.1,10.73-3.1,2.52-.7,5.26-1.4,7.68-2.1l-61,.5c-10,0-18.3,8.6-18.3,19.3v145l4.31-9.7Z"/></svg>