<svg id="Layer_1" data-name="Layer 1" xmlns="http://www.w3.org/2000/svg" xmlns:xlink="http://www.w3.org/1999/xlink" viewBox="0 0 275 434.56"><defs><style>.cls-1{fill:none;}.cls-2{fill:#1a1127;}.cls-3{fill:url(#linear-gradient);}.cls-4{fill:url(#linear-gradient-2);}.cls-5{fill:url(#linear-gradient-3);}.cls-6{fill:url(#linear-gradient-4);}.cls-7{fill:url(#thales_royale);}.cls-8{clip-path:url(#clip-path);}.cls-9{fill:url(#thales_royale-2);}.cls-10{fill:url(#linear-gradient-5);}.cls-11{fill:url(#linear-gradient-6);}.cls-12{fill:url(#thales_royale-3);}.cls-13{fill:url(#linear-gradient-7);}.cls-14{fill:url(#radial-gradient);}.cls-15{fill:url(#linear-gradient-8);}.cls-16{fill:url(#linear-gradient-9);}.cls-17{fill:url(#linear-gradient-10);}.cls-18{fill:url(#linear-gradient-11);}.cls-19{fill:url(#linear-gradient-12);}.cls-20{fill:url(#linear-gradient-13);}.cls-21{fill:url(#linear-gradient-14);}.cls-22{fill:url(#linear-gradient-15);}.cls-23{fill:url(#linear-gradient-16);}.cls-24{fill:url(#linear-gradient-17);}.cls-25{fill:url(#linear-gradient-18);}.cls-26{fill:url(#linear-gradient-19);}.cls-27{fill:url(#linear-gradient-20);}.cls-28{fill:url(#linear-gradient-21);}.cls-29{fill:url(#linear-gradient-22);}.cls-30{fill:url(#linear-gradient-23);}.cls-31{fill:url(#linear-gradient-24);}.cls-32{fill:url(#linear-gradient-25);}.cls-33{fill:url(#linear-gradient-26);}.cls-34{fill:url(#linear-gradient-27);}.cls-35{fill:url(#linear-gradient-28);}.cls-36{fill:url(#linear-gradient-29);}.cls-37{fill:url(#linear-gradient-30);}.cls-38{fill:url(#linear-gradient-31);}.cls-39{fill:url(#linear-gradient-32);}.cls-40{fill:url(#linear-gradient-33);}.cls-41{fill:url(#linear-gradient-34);}.cls-42{fill:url(#linear-gradient-35);}</style><linearGradient id="linear-gradient" x1="-204.65" y1="825.86" x2="253.35" y2="315.86" gradientTransform="translate(-41.6 -499.96)" gradientUnits="userSpaceOnUse"><stop offset="0" stop-color="#6c301e"/><stop offset="0.31" stop-color="#c79233"/><stop offset="0.44" stop-color="#fbcc34"/><stop offset="0.49" stop-color="#f4e09c"/><stop offset="0.67" stop-color="#fbcc34"/><stop offset="0.82" stop-color="#cda349"/><stop offset="1" stop-color="#a16733"/></linearGradient><linearGradient id="linear-gradient-2" x1="113.62" y1="1109.14" x2="571.69" y2="599.06" xlink:href="#linear-gradient"/><linearGradient id="linear-gradient-3" x1="-77.79" y1="935.3" x2="380.21" y2="425.3" xlink:href="#linear-gradient"/><linearGradient id="linear-gradient-4" x1="-8.12" y1="1001.74" x2="449.83" y2="491.79" xlink:href="#linear-gradient"/><linearGradient id="thales_royale" x1="0.09" y1="217.28" x2="274.91" y2="217.28" gradientTransform="matrix(1, 0, 0, 1, 0, 0)" xlink:href="#linear-gradient"/><clipPath id="clip-path"><rect class="cls-1" x="10" y="-4.72" width="258" height="445"/></clipPath><linearGradient id="thales_royale-2" x1="-78.29" y1="217.28" x2="355.29" y2="217.28" gradientTransform="matrix(1, 0, 0, 1, 0, 0)" xlink:href="#linear-gradient"/><linearGradient id="linear-gradient-5" x1="-175.31" y1="845.45" x2="276.66" y2="342.17" xlink:href="#linear-gradient"/><linearGradient id="linear-gradient-6" x1="-61.95" y1="968.14" x2="408.5" y2="444.28" xlink:href="#linear-gradient"/><linearGradient id="thales_royale-3" x1="-35.13" y1="983.88" x2="430.21" y2="465.71" xlink:href="#linear-gradient"/><linearGradient id="linear-gradient-7" x1="78.75" y1="1095.97" x2="553.73" y2="567.06" xlink:href="#linear-gradient"/><radialGradient id="radial-gradient" cx="137.5" cy="217.28" r="100.24" gradientUnits="userSpaceOnUse"><stop offset="0" stop-color="#6c301e"/><stop offset="0.08" stop-color="#8c5225"/><stop offset="0.18" stop-color="#ac752d"/><stop offset="0.26" stop-color="#c08a31"/><stop offset="0.31" stop-color="#c79233"/><stop offset="0.44" stop-color="#fbcc34"/><stop offset="0.49" stop-color="#f4e09c"/><stop offset="0.67" stop-color="#fbcc34"/><stop offset="0.82" stop-color="#cda349"/><stop offset="1" stop-color="#a16733"/></radialGradient><linearGradient id="linear-gradient-8" x1="-79.12" y1="965.26" x2="370.02" y2="465.13" xlink:href="#linear-gradient"/><linearGradient id="linear-gradient-9" x1="-73.39" y1="980.31" x2="387.22" y2="467.39" xlink:href="#linear-gradient"/><linearGradient id="linear-gradient-10" x1="-38.02" y1="978.87" x2="393.98" y2="497.82" xlink:href="#linear-gradient"/><linearGradient id="linear-gradient-11" x1="-40.87" y1="997.02" x2="412.61" y2="492.06" xlink:href="#linear-gradient"/><linearGradient id="linear-gradient-12" x1="-34.24" y1="1004.71" x2="422.13" y2="496.52" xlink:href="#linear-gradient"/><linearGradient id="linear-gradient-13" x1="35.32" y1="897.85" x2="329.78" y2="569.95" xlink:href="#linear-gradient"/><linearGradient id="linear-gradient-14" x1="40.98" y1="902.93" x2="335.44" y2="575.04" xlink:href="#linear-gradient"/><linearGradient id="linear-gradient-15" x1="44.97" y1="906.53" x2="339.45" y2="578.62" xlink:href="#linear-gradient"/><linearGradient id="linear-gradient-16" x1="50.7" y1="911.84" x2="345.18" y2="583.92" gradientTransform="translate(-9.44 -507.09) rotate(2.4)" xlink:href="#linear-gradient"/><linearGradient id="linear-gradient-17" x1="56.15" y1="916.56" x2="350.62" y2="588.66" xlink:href="#linear-gradient"/><linearGradient id="linear-gradient-18" x1="60.84" y1="920.77" x2="355.31" y2="592.88" xlink:href="#linear-gradient"/><linearGradient id="linear-gradient-19" x1="9.81" y1="851.24" x2="326.8" y2="498.25" xlink:href="#linear-gradient"/><linearGradient id="linear-gradient-20" x1="15.01" y1="855.9" x2="331.99" y2="502.93" xlink:href="#linear-gradient"/><linearGradient id="linear-gradient-21" x1="26.13" y1="865.9" x2="343.13" y2="512.91" xlink:href="#linear-gradient"/><linearGradient id="linear-gradient-22" x1="32.14" y1="871.3" x2="349.14" y2="518.31" xlink:href="#linear-gradient"/><linearGradient id="linear-gradient-23" x1="39.01" y1="877.48" x2="356.02" y2="524.47" xlink:href="#linear-gradient"/><linearGradient id="linear-gradient-24" x1="47.69" y1="883.06" x2="364.66" y2="530.1" xlink:href="#linear-gradient"/><linearGradient id="linear-gradient-25" x1="78.65" y1="841.5" x2="327.36" y2="564.55" xlink:href="#linear-gradient"/><linearGradient id="linear-gradient-26" x1="-56.37" y1="984.96" x2="395.34" y2="481.96" xlink:href="#linear-gradient"/><linearGradient id="linear-gradient-27" x1="21.62" y1="861.85" x2="338.62" y2="508.86" xlink:href="#linear-gradient"/><linearGradient id="linear-gradient-28" x1="-70.4" y1="978.26" x2="385.22" y2="470.91" xlink:href="#linear-gradient"/><linearGradient id="linear-gradient-29" x1="-63.33" y1="989.07" x2="398.9" y2="474.36" xlink:href="#linear-gradient"/><linearGradient id="linear-gradient-30" x1="-48.95" y1="988.3" x2="401.49" y2="486.71" xlink:href="#linear-gradient"/><linearGradient id="linear-gradient-31" x1="-19.59" y1="992.88" x2="412.44" y2="511.8" xlink:href="#linear-gradient"/><linearGradient id="linear-gradient-32" x1="-22.17" y1="1010.83" x2="431.33" y2="505.84" xlink:href="#linear-gradient"/><linearGradient id="linear-gradient-33" x1="-37.78" y1="998.7" x2="413.92" y2="495.71" xlink:href="#linear-gradient"/><linearGradient id="linear-gradient-34" x1="44.72" y1="883.06" x2="361.69" y2="530.1" xlink:href="#linear-gradient"/><linearGradient id="linear-gradient-35" x1="78.95" y1="853.04" x2="327.67" y2="576.09" xlink:href="#linear-gradient"/></defs><path class="cls-2" d="M274.79,414.19a20.05,20.05,0,0,1-20,20.09H20.12a20.05,20.05,0,0,1-20-20.09V20.37A20.05,20.05,0,0,1,20.12.28H254.79a20.05,20.05,0,0,1,20,20.09Z"/><circle class="cls-3" cx="24.73" cy="24.15" r="4.17"/><circle class="cls-4" cx="249.29" cy="411.78" r="2.99"/><rect class="cls-5" x="246.87" y="19.64" width="7.44" height="7.44"/><polygon class="cls-6" points="28.35 416.24 23.83 416.24 26.09 412.32 28.35 408.41 30.61 412.32 32.87 416.24 28.35 416.24"/><path class="cls-7" d="M273.66,235.59l-6.53-.87c.18-1.45.39-2.89.54-4.34l-2.18-.21c-.16,1.42-.36,2.84-.53,4.26l-2.18-.29c.27-2.1.57-4.19.68-6.31l6.57.55-.17,2.22c-.07.73-.18,1.47-.27,2.21l2.18.25c.28-1.87.38-3.75.53-5.62l.21-2.82c.07-.94.06-1.88.09-2.82l-2.19-.08-.06,2.23c0,.73-.1,1.47-.16,2.21l-6.57-.43c.05-.71.12-1.41.15-2.11l.05-2.11.11-4.23h2.2l-.16,6.45,2.19.11.11-4.37,6.59.11-.11,4c0,1.34-.18,2.67-.26,4s-.19,2.67-.32,4Zm-3.08,16.06.45-2,.91-3.91c.31-1.31.49-2.64.74-3.95s.49-2.64.69-4l-6.51-1c-.23,1.44-.51,2.87-.75,4.3l-2.16-.4c.38-2.11.78-4.22,1-6.36l-2.18-.29-.27,2.1c-.09.69-.23,1.38-.35,2.08l-.74,4.15,6.45,1.31.79-4.38,2.16.37c-.35,1.85-.62,3.71-1,5.55l-1.27,5.51-2.13-.54,1-4.34L261,244.53c-.5,2.06-.89,4.14-1.52,6.16l2.12.58c.19-.69.4-1.38.57-2.07l.49-2.09,2.13.5-.49,2.13c-.17.71-.39,1.41-.58,2.11l6.35,1.73Zm-5.06,15.55c.48-1.25,1-2.48,1.42-3.75.84-2.55,1.79-5.06,2.46-7.66L263.08,254l-.6,2.1-.69,2.07-2.09-.68c.74-2,1.25-4.11,1.86-6.17l-2.12-.58-1.15,4.06-1.35,4,6.22,2.16,1.42-4.21,2.1.65-1.81,5.36c-.28.9-.63,1.77-1,2.65l-1,2.62-2-.82,1.63-4.14-6.19-2.27-2.33,5.9,2,.86,1.58-4,2.05.79L258,268.37l6.07,2.57Zm-5.91,13.08,1.82-3.58,1.66-3.67-6-2.67c-.61,1.32-1.18,2.66-1.81,4l-2-1c.92-1.94,1.78-3.91,2.67-5.86l-2-.86-1.74,3.85c-.3.63-.56,1.29-.89,1.91l-1,1.88,5.88,3,1-2c.34-.66.62-1.34.93-2l2,.93c-.74,1.73-1.64,3.39-2.49,5.07l-1.29,2.51L255,284.23l-1.9-1.09c.73-1.28,1.5-2.56,2.15-3.89l-5.83-3.08-.73,1.41-.79,1.38-1.58,2.75,1.89,1.12,2.14-3.73,1.93,1.06L250.06,284l5.66,3.36C257.05,285,258.44,282.69,259.61,280.28Zm-11.82,19,2.33-3.28,1.16-1.63c.38-.55.73-1.13,1.1-1.69l2.16-3.38-5.6-3.46-2.36,3.68-1.83-1.21,1.74-2.72c.58-.9,1.16-1.8,1.68-2.74l-1.89-1.12c-.67,1.23-1.47,2.39-2.22,3.59l-1.14,1.77c-.37.6-.77,1.19-1.18,1.75l5.42,3.74c.44-.6.86-1.21,1.25-1.84l1.2-1.87,1.85,1.18c-1,1.59-2,3.18-3.14,4.7l-1.64,2.3-.82,1.15-.87,1.11L243.24,298c.95-1.15,1.77-2.39,2.64-3.59l-5.37-3.83c-.62.86-1.21,1.74-1.85,2.58l-2,2.5,1.72,1.36c.88-1.14,1.81-2.23,2.63-3.4l1.77,1.3c-.84,1.19-1.79,2.3-2.67,3.46l5.17,4.09C246.14,301.37,247,300.33,247.79,299.26Zm-13.33,15.39c.48-.47.93-1,1.39-1.45l2.78-2.9c.93-1,1.77-2,2.66-3s1.77-2,2.61-3.06l-5.1-4.17c-.91,1.13-1.9,2.21-2.84,3.32l-1.66-1.45,2.11-2.43c.71-.81,1.34-1.68,2-2.52l-1.72-1.36c-1.69,2.25-3.61,4.32-5.43,6.46l4.88,4.43,2.91-3.36,1.68,1.42c-1.25,1.41-2.44,2.87-3.73,4.24l-3.9,4.09-1.55-1.55,3.07-3.23-4.81-4.5c-1.47,1.52-2.89,3.1-4.45,4.52l1.53,1.58,1.55-1.48,1.49-1.56,1.57,1.53-1.5,1.58-1.59,1.51L233,316Zm-12.27,10.8c1.05-.83,2.12-1.63,3.14-2.5l3-2.63,1.52-1.32,1.45-1.38-4.5-4.81c-.53.5-1,1-1.59,1.5l-1.65,1.43-1.45-1.66c1.66-1.37,3.19-2.88,4.75-4.36l-1.53-1.58c-1,1-2,2-3.07,2.91l-3.19,2.77,4.26,5,3.36-2.91,1.47,1.63-4.27,3.7c-1.45,1.21-3,2.34-4.43,3.51L218.17,323l3.5-2.75-4.17-5.1c-1.68,1.29-3.3,2.64-5,3.89l1.3,1.77c1.17-.83,2.27-1.76,3.4-2.63l1.36,1.72c-1.15.89-2.26,1.84-3.46,2.67l3.92,5.3C220.11,327.14,221.13,326.27,222.19,325.45ZM207,335.8l1.74-1,1.69-1.08,3.39-2.17c1.12-.73,2.19-1.54,3.29-2.31l-3.83-5.36-1.78,1.27-.89.63-.92.59-1.21-1.83c.92-.56,1.77-1.21,2.65-1.83l2.63-1.86-1.3-1.77L209,321.52l-.86.61-.89.57-1.77,1.14,3.55,5.55,1.87-1.2.93-.6.91-.65,1.24,1.81c-.76.56-1.55,1.07-2.35,1.57l-2.38,1.53c-1.56,1-3.21,1.95-4.84,2.9l-1.09-1.91c1.27-.75,2.59-1.44,3.83-2.25L203.74,325c-1.79,1.12-3.66,2.12-5.48,3.19l1.06,1.93L203,328l1.12,1.89L200.37,332l3.17,5.78ZM190.63,344c1.23-.52,2.44-1.09,3.67-1.64,2.46-1,4.83-2.3,7.22-3.53l-3.08-5.82-3.89,2-1-2c1.91-1,3.84-1.93,5.73-3l-1.06-1.93c-1.23.7-2.5,1.3-3.75,1.95s-2.5,1.3-3.79,1.85l2.77,6c1.37-.59,2.68-1.27,4-1.95l1,2L196,339.24l-2.57,1.16c-1.72.78-3.42,1.58-5.19,2.24l-.83-2c.69-.27,1.39-.53,2.07-.82l2-.92-2.68-6c-1.9.91-3.89,1.65-5.85,2.43l.79,2.05,4-1.58.86,2-4.06,1.61,2.37,6.15Zm-13.52,4.83c1.3-.34,2.56-.8,3.83-1.22l3.81-1.29-2.27-6.19-4.14,1.4-.68-2.09c2-.7,4.09-1.33,6.07-2.16l-.79-2.05-2,.78-2,.67-4,1.35,1.95,6.29,4.21-1.41.72,2.07-2.67.91c-.89.31-1.79.6-2.7.84-1.81.51-3.62,1-5.44,1.53l-.54-2.13c1.43-.38,2.86-.8,4.29-1.2l-1.85-6.32c-2,.57-4.06,1.18-6.13,1.61l.51,2.14,2.09-.48c.7-.17,1.38-.39,2.07-.58l.58,2.12c-.7.19-1.4.41-2.1.59l-2.13.49,1.52,6.41C172,350.4,174.53,349.59,177.11,348.87Zm-21.87,4.65c1.32-.18,2.66-.3,4-.55l3.95-.7,2-.36,2-.45L165.7,345c-.71.16-1.42.34-2.13.48l-2.16.38-.4-2.16c2.13-.33,4.22-.84,6.31-1.33l-.51-2.14c-1.37.31-2.74.65-4.12.94l-4.15.74,1.09,6.5,4.37-.78.44,2.15-5.57,1c-1.85.32-3.73.5-5.6.76l-.25-2.18,4.42-.57-1-6.51-6.3.79.22,2.18c1.42-.15,2.84-.35,4.26-.53l.29,2.18c-1.44.18-2.89.38-4.33.54l.65,6.55C152.58,353.87,153.91,353.68,155.24,353.52Zm-18.32,1.16c1.34,0,2.68-.05,4-.07s2.68-.05,4-.12l4-.3-.54-6.57-4.36.32-.11-2.19,6.43-.48-.22-2.18-4.21.31c-.7.05-1.41.12-2.11.16l-2.11.05.22,6.58,2.22-.05c.74,0,1.47-.11,2.21-.16l.15,2.19c-1.88.18-3.76.2-5.64.25l-2.83.07c-.94,0-1.88,0-2.82,0l0-2.2,2.23.06,2.22-.06-.1-6.59c-2.12.11-4.23,0-6.35-.05l-.07,2.19,4.3.11v2.2l-4.37-.11-.22,6.58Zm-20.29-1.56,2,.26,4,.5c2.66.29,5.34.44,8,.64l.32-6.58-4.36-.32.18-2.19c2.15.16,4.29.37,6.44.37l.07-2.19-2.11-.05c-.71,0-1.41-.11-2.11-.16l-4.21-.31-.65,6.55,4.43.34-.15,2.19c-1.87-.16-3.76-.24-5.63-.47l-5.6-.71.32-2.18,4.42.57.76-6.55c-2.09-.29-4.21-.46-6.28-.89l-.36,2.17c.71.12,1.41.27,2.12.36l2.13.27-.29,2.18-2.17-.28c-.72-.09-1.44-.24-2.15-.37l-1.09,6.5Zm-16-3.46c1.29.36,2.58.75,3.89,1,2.61.59,5.21,1.26,7.86,1.68l1.2-6.48-2.16-.38c-.71-.14-1.42-.32-2.13-.48l.47-2.15c2.09.54,4.22.82,6.33,1.23l.36-2.17-4.16-.74c-1.37-.29-2.74-.63-4.11-.93l-1.52,6.41c1.44.32,2.88.68,4.33,1l-.44,2.15c-1.84-.39-3.67-.84-5.51-1.25l-1.37-.32-1.36-.39-2.72-.77.61-2.11c1.43.4,2.86.82,4.29,1.21l1.63-6.39-6.1-1.72-.65,2.1,4.13,1.17-.58,2.12-4.2-1.19-2,6.29Zm-17.32-6.07c1.21.55,2.48,1,3.72,1.51s2.49,1,3.75,1.44l3.81,1.29,2.05-6.26-4.14-1.4.76-2.06,6.11,2.06.65-2.1-4-1.35-2-.67-2-.78-2.37,6.15,2.07.81,2.1.72L93.14,345c-.88-.31-1.79-.58-2.66-.93l-2.63-1-2.63-1c-.87-.36-1.72-.77-2.58-1.15l.89-2,2,.92c.68.29,1.38.55,2.06.82l2.48-6.1c-2-.73-3.88-1.68-5.82-2.53l-.92,2,3.91,1.77-.86,2-4-1.8-2.78,6ZM77.57,341,80.45,335l-3.89-2,1-1.95,2.87,1.47c.48.25,1,.5,1.44.73l1.47.66.92-2c-.64-.29-1.29-.56-1.92-.88l-1.87-1c-1.25-.65-2.52-1.25-3.75-1.94L73.57,334c1.29.73,2.63,1.37,3.94,2.05l-1,2c-3.38-1.66-6.64-3.56-9.87-5.5l1.15-1.87c1.25.81,2.56,1.5,3.84,2.25l3.27-5.72-2.75-1.58c-.9-.55-1.78-1.13-2.68-1.7l-1.18,1.85c1.21.76,2.39,1.58,3.65,2.26l-1.12,1.89c-1.28-.7-2.48-1.52-3.71-2.3l-3.55,5.55A140.25,140.25,0,0,0,77.57,341ZM51.9,324.75l3.16,2.48c1.08.8,2.18,1.56,3.27,2.34s2.16,1.58,3.3,2.28l3.65-5.49c-1.25-.76-2.39-1.66-3.6-2.49L63,322.08,65.59,324l2.71,1.74,1.18-1.85L67.7,322.7c-.59-.37-1.18-.76-1.75-1.18l-3.44-2.45-3.91,5.3L62.22,327,61,328.76c-1.54-1.1-3.08-2.18-4.6-3.29L51.94,322l1.39-1.7,3.5,2.75,4-5.23-2.5-2-1.24-1-1.2-1-1.42,1.67c1.06,1,2.2,1.83,3.33,2.72l-1.36,1.72c-1.15-.9-2.31-1.78-3.39-2.76l-4.26,5C49.79,323.09,50.84,323.92,51.9,324.75ZM38.35,312.37c.93,1,1.82,2,2.81,2.87,2,1.84,3.84,3.74,5.9,5.46l4.34-5-1.65-1.43c-.55-.48-1.06-1-1.59-1.5l1.5-1.6c1.52,1.52,3.2,2.86,4.81,4.28l1.42-1.67-3.2-2.77c-1-.95-2-1.94-3.06-2.9l-4.58,4.73c1.07,1,2.13,2.06,3.22,3.06l-1.47,1.63c-1.38-1.28-2.73-2.6-4.1-3.89-.69-.64-1.34-1.33-2-2l-2-2,1.61-1.5,3.07,3.22,4.66-4.66-4.37-4.6-1.63,1.47c1,1.06,2,2.08,3,3.12l-1.58,1.53c-1-1.06-2-2.1-3-3.17l-4.88,4.42C36.49,310.44,37.43,311.4,38.35,312.37ZM29,301.53l2.48,3.15,2.63,3,5-4.34c-.94-1.11-1.93-2.18-2.84-3.32l1.7-1.39c1.37,1.66,2.8,3.26,4.2,4.89l1.63-1.47c-1.83-2.15-3.74-4.21-5.44-6.47l-5.16,4.09c.91,1.16,1.81,2.34,2.8,3.44l-1.67,1.42c-1.27-1.4-2.38-2.92-3.56-4.39-.57-.75-1.17-1.48-1.73-2.23l-1.64-2.3,1.79-1.28c.87,1.2,1.69,2.44,2.63,3.59L37,294c-.67-.82-1.28-1.68-1.89-2.55l-1.84-2.58-1.81,1.24,2.49,3.5-1.76,1.31-2.54-3.56-5.43,3.73C25.78,297.22,27.27,299.45,29,301.53ZM16.7,282.83l2,3.49c1.29,2.35,2.8,4.56,4.23,6.83l5.49-3.64-2.36-3.68,1.87-1.16,1.74,2.72c.59.9,1.14,1.82,1.78,2.68l1.81-1.24-.61-.86-.57-.89-1.14-1.78c-.75-1.19-1.55-2.35-2.23-3.59l-5.66,3.36c.71,1.3,1.55,2.53,2.34,3.78L23.54,290,22,287.65c-.5-.8-.95-1.63-1.42-2.44-.93-1.64-1.93-3.24-2.75-4.94l1.94-1c.65,1.34,1.41,2.61,2.15,3.9l5.72-3.27c-.52-.92-1.07-1.82-1.56-2.76l-1.44-2.82-2,1c.66,1.27,1.28,2.56,2,3.81l-1.92,1.06c-.72-1.27-1.35-2.59-2-3.88l-5.88,3ZM8.33,264.26c.22.63.48,1.25.72,1.88l1.48,3.74c.47,1.25,1.08,2.45,1.61,3.68s1.09,2.45,1.67,3.65l5.93-2.87c-.63-1.32-1.21-2.66-1.82-4l2-.89,1.33,2.94c.43,1,1,1.92,1.44,2.88l2-1c-1.35-2.48-2.4-5.1-3.59-7.65L15,269.23l1.83,4-2,.92c-.76-1.72-1.59-3.41-2.28-5.16l-2.08-5.26,2.07-.76,1.63,4.14,6.11-2.47c-.77-2-1.6-3.91-2.23-5.93l-2.08.72.69,2,.79,2-2.05.79-.8-2-.7-2.07-6.23,2.16ZM3.7,248.57c.32,1.31.57,2.63,1,3.91l1.1,3.87.56,1.93.64,1.9,6.26-2.05-.7-2.07L11.92,254l2.11-.61c.54,2.08,1.27,4.1,2,6.14l2.08-.72-1.35-4-1.15-4.07L9.2,252.43l1.22,4.28-2.1.65-1.55-5.44c-.5-1.82-.87-3.67-1.31-5.5L7.61,246l1,4.34L15,248.66c-.47-2.06-1-4.12-1.41-6.18l-2.15.43c.29,1.4.63,2.8,1,4.19l-2.14.51c-.32-1.42-.67-2.84-1-4.26l-6.45,1.3C3.09,246,3.41,247.27,3.7,248.57Zm-3-18.11c.09,1.34.32,2.66.47,4s.32,2.66.52,4l.7,3.95,6.48-1.19c-.25-1.44-.53-2.87-.75-4.31l2.17-.32c.35,2.12.75,4.23,1.12,6.34l2.15-.43-.74-4.16c-.12-.69-.27-1.38-.36-2.08l-.26-2.1L5.69,235,6,237.22c.09.73.25,1.46.37,2.19l-2.17.36c-.37-1.85-.56-3.72-.8-5.59L3,231.38c-.1-.94-.15-1.88-.23-2.82L5,228.38l.17,2.22c.06.74.18,1.47.26,2.21l6.55-.76c-.32-2.09-.39-4.21-.57-6.32l-2.2.15.33,4.28-2.19.22L7,226l-6.57.43ZM.27,210.11l-.06,2-.1,4c-.06,1.33,0,2.67,0,4l.11,4,6.58-.33-.11-4.37,2.19,0c.08,2.14.05,4.3.26,6.44l2.2-.15c-.05-.7-.12-1.4-.16-2.11l-.05-2.11-.11-4.22H4.47l.12,4.44-2.2.07L2.32,219c0-.94-.06-1.89,0-2.83l.14-5.64,2.19.11-.11,4.45,6.59.1c.07-2.11,0-4.23.26-6.34l-2.2-.14c0,.71-.11,1.43-.15,2.14L9,213l-2.2-.07.06-2.19c0-.72.1-1.45.15-2.18l-6.57-.43Zm.32-4.29,6.57.55.16-2.18c.07-.73.18-1.45.27-2.17l2.18.25c-.33,2.13-.4,4.28-.59,6.42l2.2.14.31-4.21c.15-1.4.35-2.79.52-4.19l-6.53-.87C5.5,201,5.3,202.5,5.14,204L3,203.75c.45-3.74.89-7.48,1.62-11.18l2.16.4c-.25,1.46-.54,2.92-.77,4.38l6.52,1c.34-2.08.74-4.16,1.1-6.24l-2.15-.44-.76,4.23-2.16-.36.76-4.3-6.45-1.31A142.57,142.57,0,0,0,.59,205.82ZM6.4,176c-.41,1.27-.75,2.57-1.12,3.86s-.77,2.56-1.06,3.87l-.9,3.92,6.43,1.41,1-4.25,2.13.54c-.47,2.09-1,4.18-1.43,6.28l2.15.44c.29-1.38.63-2.75.93-4.12l.48-2.06c.17-.68.38-1.35.56-2L9.2,182.14c-.2.72-.42,1.42-.59,2.14l-.5,2.17L6,185.94c.22-.92.41-1.84.65-2.75l.77-2.72c.52-1.81,1-3.63,1.64-5.4l2.09.68-.7,2.11L9.81,180l6.32,1.85c.53-2,1.26-4,1.93-6L16,175.09l-1.37,4.07-2.1-.65,1.4-4.14-6.23-2.16Zm5-13.44c-.58,1.21-1,2.47-1.53,3.71L8.42,170l6.19,2.27,1.6-4.07,2,.83c-.78,2-1.62,4-2.27,6l2.08.72.67-2,.78-2,1.55-3.92L15,165.34l-1.64,4.14-2-.79,1-2.63.52-1.32.57-1.29c.79-1.71,1.54-3.44,2.35-5.14l2,1c-.65,1.34-1.24,2.7-1.86,4l6,2.68,1.31-2.89c.42-1,1-1.89,1.42-2.84l-2-1c-.66,1.27-1.32,2.54-1.88,3.86l-2-.93c.58-1.34,1.25-2.63,1.92-3.93l-5.88-3C13.59,157.67,12.54,160.14,11.43,162.58ZM22,142.87c-.72,1.13-1.46,2.25-2.16,3.39l-2,3.48c-.67,1.16-1.34,2.32-1.93,3.53l5.82,3.07c.64-1.31,1.39-2.56,2.11-3.83l1.91,1.09c-.52.94-1.09,1.85-1.58,2.81l-1.47,2.87,2,1c.65-1.25,1.25-2.52,1.94-3.75l2.11-3.66-5.66-3.36-2.22,3.85-1.92-1.06,2.81-4.89c1-1.6,2-3.18,3-4.77l1.83,1.22-2.4,3.74,5.61,3.46,1.71-2.67c.57-.89,1.12-1.79,1.75-2.64l-1.81-1.25-.62.88-.58.9-1.16,1.81-1.85-1.18,1.18-1.84.59-.92.63-.89-5.43-3.73C23.41,140.59,22.74,141.75,22,142.87Zm3.54-5.22,5.37,3.82c.85-1.18,1.66-2.4,2.58-3.53l1.75,1.34c-.68.83-1.3,1.71-1.92,2.59l-1.87,2.62,1.81,1.25,2.45-3.44c.81-1.16,1.72-2.23,2.58-3.35l-5.17-4.09c-.9,1.18-1.86,2.31-2.71,3.52l-1.77-1.3c2.27-3,4.59-6,7.1-8.79l1.65,1.45c-1,1.12-2,2.22-2.89,3.38l5.09,4.17c1.35-1.63,2.76-3.21,4.14-4.81L42.1,131l-2.81,3.25-1.68-1.42,2.86-3.3-4.88-4.42A139.31,139.31,0,0,0,25.54,137.65ZM45.76,115c-1,.86-2,1.83-2.94,2.74s-2,1.83-2.89,2.79l-2.77,2.91,4.81,4.5,3-3.16,1.55,1.55L42.1,131l1.63,1.48c1-1,1.94-2,2.91-3.07l1.45-1.53,1.53-1.46L45,121.69l-1.61,1.53-1.53,1.61-1.58-1.53c.66-.67,1.28-1.38,2-2l2-2,2.05-2c.69-.64,1.42-1.24,2.13-1.86L50,117.17l-1.68,1.46c-.56.49-1.08,1-1.62,1.53l4.5,4.81c1.5-1.5,3.16-2.82,4.74-4.22l-1.42-1.68-3.25,2.81-1.47-1.62,3.3-2.87-4.26-5ZM60.2,103.67,56.92,106l-1.63,1.16-1.58,1.24-3.16,2.48,4.17,5.1,3.44-2.7L59.49,115,57,117l-1.26,1-1.22,1,1.42,1.68c1-1,2.16-1.8,3.27-2.67s2.19-1.77,3.35-2.58l-3.92-5.3c-1.21.85-2.34,1.81-3.52,2.71l-1.36-1.72c1.49-1.16,2.94-2.36,4.5-3.42l2.3-1.63c.77-.55,1.54-1.1,2.34-1.6l1.21,1.83-.93.61-.91.64-1.82,1.29,3.83,5.37,2.58-1.84,2.67-1.72-1.18-1.84L66.49,110c-.61.38-1.2.78-1.78,1.21l-1.24-1.81c.58-.44,1.19-.84,1.81-1.23L67.12,107l-3.55-5.54C62.44,102.21,61.3,102.9,60.2,103.67Zm17.62-10.2L76,94.38l-3.57,1.84c-1.19.62-2.33,1.32-3.5,2s-2.34,1.3-3.46,2L69,105.85c1.22-.8,2.51-1.48,3.76-2.22l1.09,1.91L71,107.15c-.92.55-1.81,1.15-2.72,1.73l1.18,1.84c2.34-1.57,4.82-2.91,7.25-4.33l-3.17-5.77-3.85,2.21-1.12-1.89c1.64-.93,3.25-1.89,4.91-2.79l5-2.58,1,2-4,2,3.08,5.83L81.42,104c.47-.24.94-.49,1.42-.72l1.44-.65-.92-2c-.65.3-1.32.57-2,.9l-1.92,1-1-2,2-1c.64-.34,1.32-.61,2-.92l-2.78-6ZM93,87.29c-1.27.44-2.56.82-3.79,1.34-2.49,1-5,1.9-7.44,3.06l2.68,6,2-.9c.67-.28,1.36-.54,2-.81l.83,2c-2,.75-4,1.7-5.91,2.57l.92,2,3.85-1.74,3.92-1.55-2.37-6.15-4.13,1.64-.85-2L90,90.68c.87-.36,1.76-.66,2.66-1l2.67-.91L96,90.91l-4.22,1.42L94,98.52l6-2-.65-2.09L95.3,95.77l-.72-2.08,4.15-1.39-2-6.29Zm17.72-4.79c-1.32.21-2.62.58-3.93.86s-2.61.59-3.91.92L99,85.38l1.85,6.32c1.4-.39,2.8-.81,4.21-1.18l.54,2.13-6.2,1.75.65,2.09,4.06-1.15c.68-.19,1.35-.4,2-.57l2.06-.47-1.52-6.41-2.17.5c-.72.18-1.42.4-2.14.6l-.58-2.12c1.8-.55,3.65-.94,5.48-1.37l2.76-.64c.92-.18,1.85-.33,2.78-.5l.4,2.15-2.2.4c-.72.13-1.44.32-2.17.48l1.42,6.44c2.05-.53,4.15-.81,6.22-1.21l-.36-2.16-4.23.75-.44-2.15,4.31-.77-1.09-6.5Zm14.2-2c-1.34.07-2.66.26-4,.43l-4,.51,1,6.51,4.34-.55.25,2.18c-2.13.3-4.27.48-6.38.91l.36,2.16c.7-.11,1.38-.26,2.08-.35l2.1-.27c1.4-.17,2.79-.37,4.19-.52l-.65-6.56c-1.47.16-2.94.37-4.41.55l-.29-2.18,2.8-.35,1.4-.18,1.41-.11,5.63-.42.11,2.2-4.44.33.55,6.56c2.11-.15,4.21-.36,6.33-.36l-.07-2.2-2.15,0c-.72,0-1.43.11-2.14.16l-.15-2.19c.73,0,1.45-.12,2.18-.16l2.19-.05L132.91,80C130.23,80,127.56,80.28,124.89,80.47Zm22.35-.22c-1.33-.1-2.67-.23-4-.24l-4-.1c-.67,0-1.34,0-2,0l-2,0,.11,6.59,2.19-.06,2.18.06,0,2.2c-2.14-.11-4.29,0-6.44.05l.07,2.2,4.23-.11,4.22.11.22-6.59-4.44-.11v-2.2l5.64.14,1.41,0,1.41.1,2.82.22-.18,2.18-4.44-.32L143.83,91l6.33.47.22-2.19L146.09,89l.15-2.19,4.36.33.65-6.56Zm18.19,2.46c-1.31-.26-2.64-.48-4-.72s-2.63-.51-4-.66l-4-.5-.76,6.54,4.33.55-.33,2.17-6.39-.8-.22,2.19c1.4.15,2.8.35,4.19.52l2.1.26c.7.1,1.39.24,2.08.36l1.09-6.5c-.73-.12-1.46-.27-2.19-.37l-2.21-.28.29-2.18c.94.13,1.87.23,2.8.37l2.79.5c1.85.34,3.71.62,5.54,1.09l-.47,2.14c-.73-.16-1.44-.35-2.17-.48l-2.2-.4L160.61,93c2.09.33,4.14.83,6.2,1.31l.51-2.14c-1.4-.31-2.79-.66-4.19-1l.43-2.15c1.43.3,2.85.65,4.27,1l1.52-6.41ZM185,88.31c-.63-.24-1.27-.44-1.9-.66l-3.81-1.28c-1.26-.46-2.57-.76-3.85-1.15s-2.58-.74-3.87-1.09L170,90.52c1.4.37,2.8.79,4.2,1.18l-.61,2.11c-2.07-.59-4.13-1.21-6.23-1.65l-.51,2.14,2.06.47c.68.17,1.35.38,2,.57L175,96.49l1.95-6.29L172.64,89l.58-2.12c1.8.53,3.64,1,5.42,1.59L184,90.27l-.75,2.06L179,90.9,177,97.16c2,.69,4,1.31,6,2.13l.79-2-2-.79-2-.69.72-2.08,2.07.7,2,.81,2.37-6.15Zm15,6.6c-1.2-.6-2.37-1.26-3.59-1.8l-3.66-1.66-1.84-.82L189,89.89,186.55,96c.68.27,1.36.52,2,.81l2,.9-.89,2c-1.94-.92-4-1.67-6-2.46l-.79,2,3.92,1.56,3.85,1.74,2.78-6-4.05-1.83.86-2,5.15,2.33c1.7.8,3.36,1.7,5,2.54l-1,2-4-2-2.87,5.92c1.87,1,3.77,1.91,5.63,2.92l1.06-1.92c-1.25-.71-2.55-1.32-3.82-2l1-2c1.29.68,2.6,1.31,3.87,2l3.17-5.77C202.38,96.1,201.17,95.53,200,94.91Zm15.75,9.42c-.55-.38-1.08-.78-1.64-1.15l-1.7-1.09L209,99.93c-1.15-.7-2.32-1.35-3.48-2l-3.26,5.72c1.25.74,2.54,1.42,3.77,2.21l-1.16,1.87c-1.82-1.14-3.71-2.16-5.56-3.24l-1.06,1.92c2.43,1.42,4.91,2.76,7.25,4.33l3.55-5.55c-1.25-.79-2.48-1.63-3.78-2.34l1.12-1.89,1.23.71,1.19.76,2.38,1.52c.78.52,1.6,1,2.36,1.55l2.3,1.64-1.27,1.79c-1.22-.84-2.39-1.77-3.66-2.54l-3.64,5.49c.9.55,1.75,1.19,2.61,1.8l2.59,1.84,1.3-1.77-3.5-2.49,1.24-1.81,3.56,2.53,3.92-5.3Zm14.37,11.43c-1-.9-2-1.76-3-2.64-2-1.8-4.13-3.42-6.23-5.07l-4,5.23,3.43,2.7-1.39,1.7c-1.7-1.31-3.35-2.69-5.09-4l-1.3,1.77c1.15.8,2.22,1.72,3.34,2.58s2.23,1.72,3.27,2.66l4.26-5c-1.1-1-2.28-1.89-3.44-2.8l1.36-1.72,2.22,1.74,2.14,1.85c1.42,1.24,2.87,2.44,4.2,3.77l-1.5,1.6c-.54-.5-1.06-1-1.62-1.52L225,117.17l-4.34,5c1.63,1.35,3.14,2.83,4.67,4.29l1.53-1.58c-1-1-2.07-2-3.12-3l1.47-1.63c1.07,1,2.12,2,3.17,3l4.58-4.73Zm4.56,4.35L230,124.77l3,3.17-1.6,1.5c-1.49-1.55-2.93-3.15-4.52-4.6l-1.53,1.58,1.53,1.46,1.46,1.53c1,1,1.95,2,2.9,3.06l4.89-4.42c-1-1.09-2-2.15-3.06-3.22l1.58-1.53c2.65,2.68,5.1,5.54,7.53,8.42l-1.7,1.39c-.93-1.15-1.93-2.25-2.9-3.38l-4.95,4.34,2.07,2.4c.7.8,1.32,1.65,2,2.48l1.72-1.36c-.88-1.13-1.75-2.27-2.71-3.34l1.68-1.41c1,1.08,1.86,2.24,2.76,3.38l5.17-4.08A144.74,144.74,0,0,0,234.66,120.11Zm19,23.72-2.17-3.38-2.32-3.27c-.78-1.09-1.54-2.2-2.39-3.24l-5.23,4c.92,1.13,1.73,2.34,2.58,3.52l-1.79,1.28c-.62-.87-1.23-1.76-1.87-2.62l-2-2.53L236.7,139c.86,1.12,1.78,2.19,2.58,3.34l2.45,3.44,5.43-3.73-2.58-3.62,1.77-1.3,3.27,4.6,3,4.76-1.87,1.15-2.4-3.75-5.49,3.64,1.71,2.67c.58.89,1.15,1.78,1.66,2.71l1.89-1.12c-.69-1.26-1.5-2.44-2.26-3.65l1.85-1.19c.77,1.24,1.6,2.44,2.3,3.72l5.66-3.37C255.08,146.08,254.33,145,253.61,143.83Zm3.26,5.41-5.72,3.27c.72,1.26,1.47,2.51,2.11,3.83l-1.94,1-.74-1.43-.8-1.4-1.61-2.79-1.89,1.12,2.11,3.66c.69,1.22,1.29,2.5,2,3.74l5.87-3c-.68-1.31-1.32-2.65-2-3.94l1.93-1.06c1.76,3.33,3.5,6.67,5,10.13l-2,.9c-.62-1.35-1.21-2.72-1.85-4l-5.93,2.87c.9,1.92,1.75,3.85,2.63,5.77l2-.85-1.77-3.92,2-.92,1.8,4,6.07-2.58A142.67,142.67,0,0,0,256.87,149.24Zm12.06,27.87c-.36-1.29-.84-2.54-1.25-3.82s-.84-2.54-1.32-3.79l-1.47-3.74-6.11,2.47,1.6,4.06-2.06.76-2.37-6-2,.85,1.55,3.93.78,2,.68,2,6.22-2.16-.71-2.1-.82-2.07,2.05-.79c.34.88.72,1.75,1,2.64l.91,2.68.9,2.67c.3.9.53,1.81.8,2.72l-2.11.61-.61-2.14-.71-2.11-6.26,2.05c.73,2,1.23,4,1.83,6.08l2.12-.58-1.18-4.14,2.1-.65,1.2,4.21L270,181Zm1.71,6.08-6.38,1.63,1,4.26-2.14.47c-.51-2.09-.91-4.2-1.54-6.25l-2.12.58c.19.67.4,1.35.57,2l.47,2.06c.31,1.37.65,2.74.94,4.11l6.45-1.3c-.3-1.45-.65-2.89-1-4.34l2.14-.5c.91,3.65,1.54,7.37,2.17,11.08l-2.17.33c-.23-1.47-.51-2.92-.77-4.39l-6.47,1.2c.37,2.08.77,4.16,1,6.26l2.18-.29-.27-2.13c-.1-.71-.25-1.41-.37-2.11l2.17-.37c.12.72.27,1.43.37,2.16l.27,2.16,6.53-.87A138.94,138.94,0,0,0,270.64,183.19Zm4,26.06-.3-4-.16-2-.25-2-6.54.76c.08.73.2,1.45.26,2.17l.17,2.18-2.19.18c-.12-2.15-.42-4.27-.69-6.41l-2.18.29c.17,1.4.37,2.8.52,4.2l.32,4.21,6.57-.43-.33-4.44,2.18-.21.43,5.63c.14,1.88.12,3.76.19,5.65l-2.19,0-.12-4.45-6.58.33.16,6.34h2.2L266,213l2.19-.07.12,4.37h6.58C274.83,214.61,274.83,211.93,274.66,209.25Z"/><g class="cls-8"><path class="cls-9" d="M343.81,264.13l-3-.69-36.2-8.23a171.32,171.32,0,0,0,4.22-35.2l34,.54-.19,7.36-.56,7.35c-.11,1.23-.15,2.46-.32,3.67l-.46,3.66-.47,3.66c-.15,1.22-.3,2.44-.54,3.64l-21.39-3.43c.25-1.19.38-2.41.53-3.62l.47-3.64c.14-1.21.33-2.42.44-3.63l.27-3.66,9.26.74c-.17,2-.25,4.09-.56,6.13l3.08.34c.22-1.55.34-3.11.45-4.67l.35-4.68-15.44-1c-.28,3.35-.42,6.71-.93,10l-.63,5c-.21,1.67-.57,3.31-.85,5l27.42,4.85A212.46,212.46,0,0,0,346,217.28h3.1a213.35,213.35,0,0,1-3.89,40.24l-33.41-6.47,1.12-6.27c.33-2.09.55-4.21.83-6.31l.41-3.16.23-3.18c.15-2.12.36-4.23.46-6.35l21.64,1c-.37,5.28-.66,10.58-1.43,15.82l-9.22-1.17c.23-2,.57-4,.71-6l-3.08-.29c-.26,3-.72,5.92-1.07,8.88l15.32,2.21a202.05,202.05,0,0,0,1.94-22.5l-27.83-.87a177.75,177.75,0,0,1-3.6,30.34l36.33,7.64Zm-45.24-10.29,3,.69a169.44,169.44,0,0,0,4.21-37.25h-3.09A166.14,166.14,0,0,1,298.57,253.84Zm56.72-36.56H352.2a216.21,216.21,0,0,1-5.37,47.53l3,.69A218.32,218.32,0,0,0,355.29,217.28Zm-25.61,88.33L296,290a169.94,169.94,0,0,0,10.35-28.72l26.93,7.05a205.48,205.48,0,0,1-7,21.49l-14.43-5.58c1.15-2.76,2.06-5.6,3-8.42l2.94,1c-.66,1.92-1.28,3.84-2,5.74l8.72,3.21c1.73-5,3.48-10,4.84-15.14l-20.87-5.82-.87,3.07c-.29,1-.56,2-.92,3l-2,6c-.67,2-1.53,4-2.29,5.94l-1.16,3L300,288.75l31.11,13.79a208.72,208.72,0,0,0,12.74-38.41l-3-.69a208.55,208.55,0,0,1-11.19,34.81L304,287.38l1.85-4.69c.59-1.57,1.29-3.1,1.8-4.7l1.61-4.78.81-2.38.7-2.43,14.83,4.4-.64,2.26c-.23.75-.49,1.48-.74,2.22l-1.5,4.45-2.92-1,2-5.83-8.86-2.79L310.54,279c-.79,2.31-1.76,4.55-2.63,6.83L328,294A197.23,197.23,0,0,0,337,266L304,257.87a169.44,169.44,0,0,1-11.93,33.34l33.44,16.13,2.78,1.35Zm-43.19-17.08,2.79,1.34a169,169,0,0,0,12.31-35.34l-3-.69A165.51,165.51,0,0,1,286.49,288.53Zm63.35-23-3-.69A215.32,215.32,0,0,1,331.07,310l2.78,1.34A217.9,217.9,0,0,0,349.84,265.5ZM305.2,345.92l-29.37-22.7a175,175,0,0,0,16.48-25.72L317,310.4l-1.29,2.51c-.44.84-.93,1.64-1.39,2.46l-2.82,4.9c-.91,1.65-2,3.2-3,4.8l-3.05,4.75-12.83-8.66,4.83-7.53,2.64,1.6-3.27,5.11,7.78,5.08,2.15-3.35c.71-1.11,1.43-2.22,2.07-3.38l4-6.9-19-10.34A200.42,200.42,0,0,1,280,322.89l27.25,20.37a209.28,209.28,0,0,0,21-34.57l-2.78-1.35a208.71,208.71,0,0,1-18.76,31.36l-22.57-16.31,2.92-4.11c1-1.37,1.83-2.82,2.75-4.22s1.85-2.81,2.69-4.26l2.51-4.38L308.52,313c-1.57,2.7-3.06,5.46-4.8,8.05l-2.62-1.64,1.66-2.59,1.53-2.67-8-4.7c-.63,1-1.19,2.14-1.86,3.16l-2,3.09-2,3.08c-.65,1-1.4,2-2.1,3l17.76,12.4a196.86,196.86,0,0,0,15.09-25.3l-30.41-15.28a170.78,170.78,0,0,1-19.12,29.84l29,23.16,2.42,1.93Zm-38.34-26.3,2.42,1.93a171.2,171.2,0,0,0,20-31.68l-2.79-1.34A167.75,167.75,0,0,1,266.86,319.62Zm67-8.25L331.07,310a217.65,217.65,0,0,1-25.53,40.47l2.41,1.93A220.38,220.38,0,0,0,333.85,311.37Zm-61.41,68.44-23.62-28.63a177.24,177.24,0,0,0,21.75-21.48l21.2,18.06-3.7,4.27c-1.24,1.41-2.58,2.74-3.87,4.11s-2.57,2.75-3.92,4.06l-4.09,3.9L265.6,352.81c2.15-2.07,4.37-4.07,6.38-6.27l2.22,2.15-2.09,2.2-2.2,2.09,6.46,6.67c.95-.92,1.94-1.8,2.85-2.77L282,354l2.74-2.88c.92-.95,1.75-2,2.63-3l-16.26-14.31a171.09,171.09,0,0,1-18.15,17.87L275,377.61a211.51,211.51,0,0,0,28.12-29l-2.42-1.93a210,210,0,0,1-25.2,26.44l-18.39-20.91,1.91-1.64c.63-.56,1.22-1.16,1.83-1.73l3.65-3.48c1.25-1.13,2.36-2.4,3.53-3.6l3.48-3.65L283,348.47l-6.47,6.79-2.19-2.18,4.25-4.46-6.77-6.35-2.53,2.65c-.84.89-1.68,1.78-2.58,2.6l-5.3,5.06,14.56,16a228.7,228.7,0,0,0,20.33-21.32L270,325.63a172.29,172.29,0,0,1-25.31,24.84l23.16,29,1.93,2.42Zm-7-58.37c-.47.6-1,1.16-1.5,1.75l-3,3.48c-1,1.19-2.09,2.26-3.14,3.38l-3.18,3.34-3.34,3.18c-1.12,1.05-2.19,2.16-3.38,3.14l-3.48,3c-.59.5-1.15,1-1.75,1.5l-1.82,1.42,1.93,2.42,1.85-1.45c.62-.48,1.19-1,1.78-1.52L250,342c1.22-1,2.3-2.13,3.45-3.19l3.4-3.24,3.24-3.4c1.06-1.15,2.2-2.23,3.19-3.45l3.08-3.55c.5-.59,1-1.16,1.52-1.78l1.45-1.85-2.42-1.93Zm42.51,31-2.41-1.93-1.86,2.35c-.62.79-1.29,1.52-1.94,2.29l-3.92,4.52c-1.28,1.54-2.71,2.94-4.07,4.4l-4.14,4.33-4.33,4.14c-1.46,1.36-2.86,2.79-4.4,4.07l-4.52,3.92c-.77.65-1.5,1.32-2.29,1.94l-2.35,1.86,1.93,2.41,2.39-1.88c.79-.63,1.54-1.31,2.31-2l4.59-4c1.56-1.3,3-2.74,4.46-4.13l4.39-4.2,4.2-4.39c1.39-1.48,2.83-2.9,4.13-4.46l4-4.59c.66-.77,1.34-1.52,2-2.31Zm-75,53.1-16.66-33.17a175.47,175.47,0,0,0,26-16l16.67,22.3-4.6,3.28c-1.55,1.07-3,2.22-4.65,3.2l-4.76,3.05c-.79.5-1.57,1-2.39,1.51l-2.44,1.41-7.82-13.35c2.62-1.43,5.08-3.11,7.6-4.71l1.69,2.59-5.11,3.27,4.83,7.94,6.69-4.28c1.13-.7,2.2-1.47,3.28-2.24l3.24-2.3L241.8,360.44a169.07,169.07,0,0,1-21.65,13.39L235.92,404a210.9,210.9,0,0,0,33.87-22.09l-1.93-2.42a209.11,209.11,0,0,1-30.42,20.25l-13.29-24.47,4.37-2.51c1.44-.86,2.94-1.63,4.33-2.57l4.25-2.73c.7-.46,1.42-.89,2.11-1.37l2.06-1.46,8.86,12.68c-2.51,1.87-5.19,3.49-7.82,5.19l-1.64-2.62,5.18-3.32-5.2-7.7-6.17,4c-1,.68-2.08,1.28-3.14,1.88l-3.18,1.83,10.65,18.86a197.87,197.87,0,0,0,24.55-16.29l-20.81-26.93a171,171,0,0,1-30.12,18.68l16.13,33.44,1.35,2.78Zm-23.16-40.26,1.34,2.79a171.2,171.2,0,0,0,31.68-20l-1.93-2.42A167.75,167.75,0,0,1,209.75,365.27Zm63.9,21.46-1.93-2.41a217.65,217.65,0,0,1-40.47,25.53l1.34,2.78A220.38,220.38,0,0,0,273.65,386.73Zm-85,35.1-8.82-36.06a174.14,174.14,0,0,0,28.89-9.85L220,401.37c-3.4,1.63-7,2.89-10.45,4.3-1.74.73-3.54,1.29-5.32,1.9l-5.36,1.81-4.63-14.76,8.47-2.88,1.06,2.9c-1.9.68-3.82,1.3-5.74,2l2.93,8.82,3.76-1.28,1.89-.64,1.85-.72,7.39-2.93-8.46-19.94a193.44,193.44,0,0,1-24.08,8.2L191.92,421a209,209,0,0,0,38-14l-1.35-2.78a208,208,0,0,1-34.22,12.85l-7.48-26.82,4.84-1.37,4.78-1.61c1.58-.56,3.2-1,4.76-1.66l4.68-1.85,5.81,14.34c-2.92,1.12-5.78,2.38-8.77,3.31l-1-2.91c1-.34,1.95-.65,2.91-1l2.86-1.13-3.35-8.66c-1.14.44-2.26.92-3.41,1.33l-3.47,1.17c-2.32.77-4.61,1.62-7,2.23l6.16,20.77a199.71,199.71,0,0,0,27.58-10.41L210,372a169.68,169.68,0,0,1-33.52,11.41l8.23,36.2.69,3Zm-13.58-44.48.69,3a169,169,0,0,0,35.34-12.31l-1.34-2.79A165.51,165.51,0,0,1,175.06,377.35Zm57.53,35.28-1.34-2.78A215.32,215.32,0,0,1,186,425.61l.69,3A217.9,217.9,0,0,0,232.59,412.63Zm-90.72,15.18-.59-37.12,3.83-.1c1.28,0,2.56,0,3.83-.17l7.63-.59,7.58-1c2.52-.37,5-.88,7.53-1.3l5.3,27.33c-3.71.63-7.4,1.43-11.15,1.82l-5.6.71c-1.87.26-3.75.32-5.63.49l-1.22-15.42c1.48-.12,3-.21,4.46-.36l4.43-.56.4,3.06c-2,.23-4,.57-6,.71l.88,9.25c2.64-.21,5.26-.63,7.89-.94,1.31-.18,2.64-.3,3.94-.54l3.91-.69-3.77-21.33c-4.16.85-8.4,1.24-12.61,1.81-2.11.19-4.23.33-6.35.5-1.06.07-2.12.18-3.18.23l-3.19.08,1.08,34a210.45,210.45,0,0,0,40.11-5.13l-.69-3a211.57,211.57,0,0,1-36.2,5l-1.32-27.81c3.36-.2,6.71-.48,10.06-.75l5-.64c1.66-.24,3.35-.36,5-.7l2.45,15.28c-1.53.31-3.09.45-4.64.66l-4.65.6L160,408.1l6.1-.77-1.32-9.2-7.27.93-7.31.57,1.37,21.61,7.35-.56c2.44-.26,4.88-.6,7.32-.9,1.21-.16,2.44-.3,3.65-.48l3.63-.65c2.42-.45,4.85-.81,7.25-1.35l-7-33.3a171,171,0,0,1-35.27,3.67v40.22Zm-3.37-46.32v3.09a169.44,169.44,0,0,0,37.25-4.21l-.69-3A166.14,166.14,0,0,1,138.5,381.49Zm48.22,47.13-.69-3A216.21,216.21,0,0,1,138.5,431v3.09A218.32,218.32,0,0,0,186.72,428.62ZM95,423.35,102.59,387a177.75,177.75,0,0,0,30.34,3.6l-.87,27.83a202.05,202.05,0,0,1-22.5-1.94l2.21-15.32c3,.35,5.91.81,8.88,1.07l-.29,3.08c-2-.14-4-.48-6-.71l-1.17,9.22c5.24.77,10.54,1.06,15.82,1.43l1-21.64c-2.12-.1-4.23-.31-6.35-.46l-3.18-.23-3.16-.41c-2.1-.28-4.22-.5-6.31-.83l-6.27-1.12L98.26,424a213.35,213.35,0,0,0,40.24,3.89v-3.1a212.46,212.46,0,0,1-36.38-3.24L107,394.13c1.66.28,3.3.64,5,.85l5,.63c3.33.51,6.69.65,10,.93L126,412l-4.68-.35c-1.56-.11-3.12-.23-4.67-.45l.34-3.08c2,.31,4.09.39,6.13.56l.74-9.26-3.66-.27c-1.21-.11-2.42-.3-3.63-.44l-3.64-.47c-1.21-.15-2.43-.28-3.62-.53l-3.43,21.39c1.2.24,2.42.39,3.64.54l3.66.47,3.66.46c1.21.17,2.44.21,3.67.32l7.35.56,7.36.19.54-34a171.32,171.32,0,0,1-35.2-4.22l-8.23,36.2-.69,3Zm7-46-.69,3a169.44,169.44,0,0,0,37.25,4.21v-3.09A166.14,166.14,0,0,1,101.94,377.35Zm36.56,56.72V431A216.21,216.21,0,0,1,91,425.61l-.69,3A218.32,218.32,0,0,0,138.5,434.07ZM50.17,408.46l15.59-33.69a169.94,169.94,0,0,0,28.72,10.35l-7,26.93a205.48,205.48,0,0,1-21.49-7l5.58-14.43c2.76,1.15,5.6,2.06,8.42,3l-1,2.94c-1.92-.66-3.84-1.28-5.74-2L70,403.36c5,1.73,10,3.48,15.14,4.84L91,387.33l-3.07-.87c-1-.29-2-.56-3-.92l-6-2c-2-.67-4-1.53-5.94-2.29l-3-1.16L67,378.74,53.24,409.85a208.72,208.72,0,0,0,38.41,12.74l.69-3a208.55,208.55,0,0,1-34.81-11.19L68.4,382.76l4.69,1.85c1.57.59,3.1,1.29,4.7,1.8L82.57,388l2.38.81,2.43.7L83,404.36l-2.26-.64c-.75-.23-1.48-.49-2.22-.74l-4.45-1.5,1-2.92,5.83,2,2.79-8.86-6.94-2.35c-2.31-.79-4.55-1.76-6.83-2.63l-8.14,20.07a197.23,197.23,0,0,0,28.05,9.06l8.08-33.05a169.44,169.44,0,0,1-33.34-11.93L48.44,404.28l-1.35,2.78Zm17.08-43.19-1.34,2.79a169,169,0,0,0,35.34,12.31l.69-3A165.51,165.51,0,0,1,67.25,365.27Zm23,63.35.69-3a215.32,215.32,0,0,1-45.22-15.76l-1.34,2.78A217.9,217.9,0,0,0,90.28,428.62ZM9.86,384l22.7-29.37a175,175,0,0,0,25.72,16.48l-12.9,24.68-2.51-1.29c-.84-.44-1.64-.93-2.46-1.39l-4.9-2.82c-1.65-.91-3.2-2-4.8-3L26,384.24l8.66-12.83,7.53,4.83-1.6,2.64-5.11-3.27-5.08,7.78,3.35,2.15c1.11.71,2.22,1.43,3.38,2.07l6.9,4,10.34-19a200.42,200.42,0,0,1-21.44-13.73L12.52,386.06a209.28,209.28,0,0,0,34.57,21l1.35-2.78a208.71,208.71,0,0,1-31.36-18.76L33.39,363l4.11,2.92c1.37,1,2.82,1.83,4.22,2.75s2.81,1.85,4.26,2.69l4.38,2.51L42.75,387.3c-2.7-1.57-5.46-3.06-8-4.8l1.64-2.62,2.59,1.66,2.67,1.53,4.7-8c-1-.63-2.14-1.19-3.16-1.86l-3.09-2-3.08-2c-1-.65-2-1.4-3-2.1l-12.4,17.76A196.86,196.86,0,0,0,46.86,400l15.28-30.41A170.78,170.78,0,0,1,32.3,350.47l-23.16,29L7.21,381.9Zm26.3-38.34-1.93,2.42a171.2,171.2,0,0,0,31.68,20l1.34-2.79A167.75,167.75,0,0,1,36.16,345.64Zm8.25,67,1.34-2.78A217.65,217.65,0,0,1,5.28,384.32l-1.93,2.41A220.38,220.38,0,0,0,44.41,412.63ZM-24,351.22,4.6,327.6a177.24,177.24,0,0,0,21.48,21.75L8,370.55l-4.27-3.7C2.34,365.61,1,364.27-.36,363s-2.75-2.57-4.06-3.92L-8.32,355,3,344.38C5,346.53,7,348.75,9.24,350.76L7.09,353l-2.2-2.09-2.09-2.2-6.67,6.46c.92,1,1.8,1.94,2.77,2.85l2.87,2.74,2.88,2.74c.95.92,2,1.75,3,2.63l14.31-16.26A171.09,171.09,0,0,1,4.07,331.7l-25.9,22.08a211.51,211.51,0,0,0,29,28.12l1.93-2.42a210,210,0,0,1-26.44-25.2L3.61,335.89l1.64,1.91c.56.63,1.16,1.22,1.73,1.83l3.48,3.65c1.13,1.25,2.4,2.36,3.6,3.53l3.65,3.48L7.31,361.74.52,355.27l2.18-2.19,4.46,4.25,6.35-6.77L10.86,348c-.89-.84-1.78-1.68-2.6-2.58l-5.06-5.3-16,14.56A228.7,228.7,0,0,0,8.49,375l21.66-26.25A172.29,172.29,0,0,1,5.31,323.48l-29,23.16-2.42,1.93Zm58.37-7c-.6-.47-1.16-1-1.75-1.5l-3.48-3c-1.19-1-2.26-2.09-3.38-3.14l-3.34-3.18-3.18-3.34c-1.05-1.12-2.16-2.19-3.14-3.38l-3-3.48c-.5-.59-1-1.15-1.5-1.75l-1.42-1.82-2.42,1.93,1.45,1.85c.48.62,1,1.19,1.52,1.78l3.08,3.55c1,1.22,2.13,2.3,3.19,3.45l3.24,3.4,3.4,3.24c1.15,1.06,2.23,2.2,3.45,3.19l3.55,3.08c.59.5,1.16,1,1.78,1.52l1.85,1.45,1.93-2.42Zm-31,42.51,1.93-2.41-2.35-1.86c-.79-.62-1.52-1.29-2.29-1.94l-4.52-3.92c-1.54-1.28-2.94-2.71-4.4-4.07l-4.33-4.14-4.14-4.33c-1.36-1.46-2.79-2.86-4.07-4.4l-3.92-4.52c-.65-.77-1.32-1.5-1.94-2.29l-1.86-2.35-2.41,1.93,1.88,2.39c.63.79,1.31,1.54,2,2.31l4,4.59c1.3,1.56,2.74,3,4.13,4.46l4.2,4.39,4.39,4.2c1.48,1.39,2.9,2.83,4.46,4.13l4.59,4c.77.66,1.52,1.34,2.31,2Zm-53.1-75L-16.58,295a175.47,175.47,0,0,0,16,26l-22.3,16.67-3.28-4.6c-1.07-1.55-2.22-3-3.2-4.65l-3.05-4.76c-.5-.79-1-1.57-1.51-2.39l-1.41-2.44,13.35-7.82c1.43,2.62,3.11,5.08,4.71,7.6l-2.59,1.69-3.27-5.11L-31,320.06l4.28,6.69c.7,1.13,1.47,2.2,2.24,3.28l2.3,3.24,17.56-12.69A169.07,169.07,0,0,1-18,298.93L-48.21,314.7a210.9,210.9,0,0,0,22.09,33.87l2.42-1.93a209.11,209.11,0,0,1-20.25-30.42l24.47-13.29L-17,307.3c.86,1.44,1.63,2.94,2.57,4.33l2.73,4.25c.46.7.89,1.42,1.37,2.11l1.46,2.06-12.68,8.86c-1.87-2.51-3.49-5.19-5.19-7.82l2.62-1.64,3.32,5.18,7.7-5.2-4-6.17c-.68-1-1.28-2.08-1.88-3.14l-1.83-3.18L-39.6,317.59a197.87,197.87,0,0,0,16.29,24.55L3.62,321.33a171,171,0,0,1-18.68-30.12L-48.5,307.34l-2.78,1.35Zm40.26-23.16-2.79,1.34a171.2,171.2,0,0,0,20,31.68l2.42-1.93A167.75,167.75,0,0,1-9.49,288.53Zm-21.46,63.9,2.41-1.93A217.65,217.65,0,0,1-54.07,310l-2.78,1.34A220.38,220.38,0,0,0-30.95,352.43Zm-35.1-85L-30,258.6a174.14,174.14,0,0,0,9.85,28.89l-25.45,11.29c-1.63-3.4-2.89-7-4.3-10.45-.73-1.74-1.29-3.54-1.9-5.32l-1.81-5.36L-38.84,273l2.88,8.47-2.9,1.06c-.68-1.9-1.3-3.82-2-5.74l-8.82,2.93,1.28,3.76.64,1.89.72,1.85,2.93,7.39,19.94-8.46a193.44,193.44,0,0,1-8.2-24.08l-32.92,8.61a209,209,0,0,0,14,38l2.78-1.35a208,208,0,0,1-12.85-34.22l26.82-7.48,1.37,4.84,1.61,4.78c.56,1.58,1,3.2,1.66,4.76L-28,284.7l-14.34,5.81c-1.12-2.92-2.38-5.78-3.31-8.77l2.91-1c.34,1,.65,1.95,1,2.91l1.13,2.86,8.66-3.35c-.44-1.14-.92-2.26-1.33-3.41l-1.17-3.47c-.77-2.32-1.62-4.61-2.23-7l-20.77,6.16A199.71,199.71,0,0,0-47.07,303l30.88-14.29A169.68,169.68,0,0,1-27.6,255.21l-36.2,8.23-3,.69Zm44.48-13.58-3,.69a169,169,0,0,0,12.31,35.34l2.79-1.34A165.51,165.51,0,0,1-21.57,253.84Zm-35.28,57.53,2.78-1.34a215.32,215.32,0,0,1-15.76-45.22l-3,.69A217.9,217.9,0,0,0-56.85,311.37ZM-72,220.65l37.12-.59.1,3.83c0,1.28,0,2.56.17,3.83l.59,7.63,1,7.58c.37,2.52.88,5,1.3,7.53l-27.33,5.3c-.63-3.71-1.43-7.4-1.82-11.15l-.71-5.6c-.26-1.87-.32-3.75-.49-5.63l15.42-1.22c.12,1.48.21,3,.36,4.46l.56,4.43-3.06.4c-.23-2-.57-4-.71-6l-9.25.88c.21,2.64.63,5.26.94,7.89.18,1.31.3,2.64.54,3.94l.69,3.91,21.33-3.77c-.85-4.16-1.24-8.4-1.81-12.61-.19-2.11-.33-4.23-.5-6.35-.07-1.06-.18-2.12-.23-3.18l-.08-3.19-34,1.08a210.45,210.45,0,0,0,5.13,40.11l3-.69a211.57,211.57,0,0,1-5-36.2l27.81-1.32c.2,3.36.48,6.71.75,10.06l.64,5c.24,1.66.36,3.35.7,5l-15.28,2.45c-.31-1.53-.45-3.09-.66-4.64l-.6-4.65,3.08-.34.77,6.1,9.2-1.32-.93-7.27-.57-7.31-21.61,1.37.56,7.35c.26,2.44.6,4.88.9,7.32.16,1.21.3,2.44.48,3.65l.65,3.63c.45,2.42.81,4.85,1.35,7.25l33.3-7a171,171,0,0,1-3.67-35.27H-72.11Zm46.32-3.37H-28.8a169.44,169.44,0,0,0,4.21,37.25l3-.69A166.14,166.14,0,0,1-25.71,217.28ZM-72.84,265.5l3-.69a216.21,216.21,0,0,1-5.37-47.53h-3.09A218.32,218.32,0,0,0-72.84,265.5Zm5.27-91.77,36.33,7.64a177.75,177.75,0,0,0-3.6,30.34l-27.83-.87a201.85,201.85,0,0,1,1.94-22.5l15.32,2.21c-.35,3-.81,5.91-1.07,8.88l-3.08-.29c.14-2,.48-4,.71-6l-9.22-1.17c-.77,5.24-1.06,10.54-1.43,15.82l21.64,1c.1-2.12.31-4.23.46-6.35l.23-3.18.41-3.16c.28-2.1.5-4.22.83-6.31l1.12-6.27L-68.22,177a213.35,213.35,0,0,0-3.89,40.24H-69a212.46,212.46,0,0,1,3.24-36.38l27.42,4.85c-.28,1.66-.64,3.3-.85,5l-.63,5c-.51,3.33-.65,6.69-.93,10l-15.44-1,.35-4.68c.11-1.56.23-3.12.45-4.67l3.08.34c-.31,2-.39,4.09-.56,6.13l9.26.74.27-3.66c.11-1.21.3-2.42.44-3.63l.47-3.64c.15-1.21.28-2.43.53-3.62l-21.39-3.43c-.24,1.2-.39,2.42-.54,3.64l-.47,3.66-.46,3.66c-.17,1.21-.21,2.44-.32,3.67l-.56,7.35-.19,7.36,34,.54a171.32,171.32,0,0,1,4.22-35.2l-36.2-8.23-3-.69Zm46,7-3-.69a169.44,169.44,0,0,0-4.21,37.25h3.09A166.14,166.14,0,0,1-21.57,180.72Zm-56.72,36.56h3.09a216.21,216.21,0,0,1,5.37-47.53l-3-.69A218.32,218.32,0,0,0-78.29,217.28ZM-52.68,129-19,144.54a169.94,169.94,0,0,0-10.35,28.72l-26.93-7a205.48,205.48,0,0,1,7-21.49l14.43,5.58c-1.15,2.76-2.06,5.6-3,8.42l-2.94-1c.66-1.92,1.28-3.84,2-5.74l-8.72-3.21c-1.73,5-3.48,10-4.84,15.14l20.87,5.82.87-3.07c.29-1,.56-2,.92-3l2-6c.67-2,1.53-4,2.29-5.94l1.16-3,1.31-2.91L-54.07,132a208.72,208.72,0,0,0-12.74,38.41l3,.69a208.55,208.55,0,0,1,11.19-34.81L-27,147.18l-1.85,4.69c-.59,1.57-1.29,3.1-1.8,4.7l-1.61,4.78-.81,2.38-.7,2.43-14.83-4.4.64-2.26c.23-.75.49-1.48.74-2.22l1.5-4.45,2.92,1-2,5.83,8.86,2.79,2.35-6.94c.79-2.31,1.76-4.55,2.63-6.83L-51,140.56A197.23,197.23,0,0,0-60,168.61L-27,176.69a169.44,169.44,0,0,1,11.93-33.34L-48.5,127.22l-2.78-1.35ZM-9.49,146l-2.79-1.34A169,169,0,0,0-24.59,180l3,.69A165.51,165.51,0,0,1-9.49,146Zm-63.35,23,3,.69a215.32,215.32,0,0,1,15.76-45.22l-2.78-1.34A217.9,217.9,0,0,0-72.84,169.06ZM-28.2,88.64l29.37,22.7a175,175,0,0,0-16.48,25.72L-40,124.16l1.29-2.51c.44-.84.93-1.64,1.39-2.46l2.82-4.9c.91-1.65,2-3.2,3-4.8l3.05-4.75,12.83,8.66-4.83,7.53-2.64-1.6,3.27-5.11-7.78-5.08-2.15,3.35c-.71,1.11-1.43,2.22-2.07,3.38l-4,6.9,19,10.34A200.42,200.42,0,0,1-3,111.67L-30.28,91.3a209.28,209.28,0,0,0-21,34.57l2.78,1.35A208.71,208.71,0,0,1-29.74,95.86l22.57,16.31-2.92,4.11c-1,1.37-1.83,2.82-2.75,4.22s-1.85,2.81-2.69,4.26L-18,129.14l-13.48-7.61c1.57-2.7,3.06-5.46,4.8-8l2.62,1.64-1.66,2.59-1.53,2.67,8,4.7c.63-1,1.19-2.14,1.86-3.16l2-3.09,2-3.08c.65-1,1.4-2,2.1-3l-17.76-12.4a196.86,196.86,0,0,0-15.09,25.3l30.41,15.28A170.78,170.78,0,0,1,5.31,111.08l-29-23.16L-26.12,86Zm38.34,26.3L7.72,113a171.2,171.2,0,0,0-20,31.68L-9.49,146A167.75,167.75,0,0,1,10.14,114.94Zm-67,8.25,2.78,1.34A217.65,217.65,0,0,1-28.54,84.06l-2.41-1.93A220.38,220.38,0,0,0-56.85,123.19ZM4.56,54.75,28.18,83.38A177.24,177.24,0,0,0,6.43,104.86L-14.77,86.8l3.7-4.27c1.24-1.41,2.58-2.74,3.87-4.11s2.57-2.75,3.92-4.06l4.09-3.9L11.4,81.75C9.25,83.82,7,85.82,5,88L2.8,85.87l2.09-2.2,2.2-2.09L.63,74.91c-.95.92-1.94,1.8-2.85,2.77L-5,80.55-7.7,83.43c-.92.95-1.75,2-2.63,3L5.93,100.72A171.09,171.09,0,0,1,24.08,82.85L2,57A211.51,211.51,0,0,0-26.12,86l2.42,1.93A210,210,0,0,1,1.5,61.48L19.89,82.39,18,84c-.63.56-1.22,1.16-1.83,1.73L12.5,89.24c-1.25,1.13-2.36,2.4-3.53,3.6L5.49,96.49-6,86.09.51,79.3,2.7,81.48l-4.25,4.46,6.77,6.35,2.53-2.65c.84-.89,1.68-1.78,2.58-2.6L15.63,82,1.07,66A228.7,228.7,0,0,0-19.26,87.27L7,108.93A172.29,172.29,0,0,1,32.3,84.09l-23.16-29L7.21,52.66Zm7,58.37c.47-.6,1-1.16,1.5-1.75l3-3.48c1-1.19,2.09-2.26,3.14-3.38l3.18-3.34L25.73,98c1.12-1,2.19-2.16,3.38-3.14l3.48-3c.59-.5,1.15-1,1.75-1.5l1.82-1.42L34.23,86.5,32.38,88c-.62.48-1.19,1-1.78,1.52l-3.55,3.08c-1.22,1-2.3,2.13-3.45,3.19L20.2,99,17,102.38c-1.06,1.15-2.2,2.23-3.19,3.45l-3.08,3.55c-.5.59-1,1.16-1.52,1.78L7.72,113l2.42,1.93Zm-42.51-31,2.41,1.93,1.86-2.35c.62-.79,1.29-1.52,1.94-2.29l3.92-4.52c1.28-1.54,2.71-2.94,4.07-4.4l4.14-4.33L-8.28,62c1.46-1.36,2.86-2.79,4.4-4.07L.64,54c.77-.65,1.5-1.32,2.29-1.94l2.35-1.86L3.35,47.83,1,49.71c-.79.63-1.54,1.31-2.31,2l-4.59,4c-1.56,1.3-3,2.74-4.46,4.13L-14.79,64-19,68.38c-1.39,1.48-2.83,2.9-4.13,4.46l-4,4.59c-.66.77-1.34,1.52-2,2.31Zm75-53.1L60.75,62.2a175.47,175.47,0,0,0-26,16L18.07,55.93l4.6-3.28c1.55-1.07,3-2.22,4.65-3.2l4.76-3.05c.79-.5,1.57-1,2.39-1.51l2.44-1.41,7.82,13.35c-2.62,1.43-5.08,3.11-7.6,4.71L35.44,59l5.11-3.27-4.83-7.94L29,52c-1.13.7-2.2,1.47-3.28,2.24l-3.24,2.3L35.2,74.12A169.07,169.07,0,0,1,56.85,60.73L41.08,30.57A210.9,210.9,0,0,0,7.21,52.66l1.93,2.42A209.11,209.11,0,0,1,39.56,34.83L52.85,59.3l-4.37,2.51c-1.44.86-2.94,1.63-4.33,2.57L39.9,67.11c-.7.46-1.42.89-2.11,1.37l-2.06,1.46L26.87,57.26c2.51-1.87,5.19-3.49,7.82-5.19l1.64,2.62L31.15,58l5.2,7.7,6.17-4c1-.68,2.08-1.28,3.14-1.88L48.84,58,38.19,39.18A197.87,197.87,0,0,0,13.64,55.47L34.45,82.4A171,171,0,0,1,64.57,63.72L48.44,30.28,47.09,27.5ZM67.25,69.29,65.91,66.5a171.2,171.2,0,0,0-31.68,20l1.93,2.42A167.75,167.75,0,0,1,67.25,69.29ZM3.35,47.83l1.93,2.41A217.65,217.65,0,0,1,45.75,24.71l-1.34-2.78A220.38,220.38,0,0,0,3.35,47.83Zm85-35.1,8.82,36.06a174.14,174.14,0,0,0-28.89,9.85L57,33.19c3.4-1.63,7-2.89,10.45-4.3,1.74-.73,3.54-1.29,5.32-1.9l5.36-1.81,4.63,14.76-8.47,2.88-1.06-2.9c1.9-.68,3.82-1.3,5.74-2L76,29.14l-3.76,1.28-1.89.64-1.85.72-7.39,2.93,8.46,19.94a193.44,193.44,0,0,1,24.08-8.2L85.08,13.53a209,209,0,0,0-38,14l1.35,2.78A208,208,0,0,1,82.66,17.43l7.48,26.82L85.3,45.62l-4.78,1.61c-1.58.56-3.2,1-4.76,1.66l-4.68,1.85L65.27,36.4C68.19,35.28,71.05,34,74,33.09l1,2.91c-1,.34-2,.65-2.91,1l-2.86,1.13,3.35,8.66c1.14-.44,2.26-.92,3.41-1.33l3.47-1.17c2.32-.77,4.61-1.62,7-2.23L80.34,21.3A199.71,199.71,0,0,0,52.76,31.71L67.05,62.59a169.68,169.68,0,0,1,33.52-11.41L92.34,15l-.69-3Zm13.58,44.48-.69-3A169,169,0,0,0,65.91,66.5l1.34,2.79A165.51,165.51,0,0,1,101.94,57.21ZM44.41,21.93l1.34,2.78A215.32,215.32,0,0,1,91,9l-.69-3A217.9,217.9,0,0,0,44.41,21.93ZM135.13,6.75l.59,37.12-3.83.1c-1.28,0-2.56,0-3.83.17l-7.63.59-7.58,1c-2.52.37-5,.88-7.53,1.3L100,19.67c3.71-.63,7.4-1.43,11.15-1.82l5.6-.71c1.87-.26,3.75-.32,5.63-.49l1.22,15.42c-1.48.12-3,.21-4.46.36l-4.43.56-.4-3.06c2-.23,4-.57,6-.71L119.48,20c-2.64.21-5.26.63-7.89.94-1.31.18-2.64.3-3.94.54l-3.91.69,3.77,21.33c4.16-.85,8.4-1.24,12.61-1.81,2.11-.19,4.23-.33,6.35-.5,1.06-.07,2.12-.18,3.18-.23l3.19-.08-1.08-34A210.45,210.45,0,0,0,91.65,12l.69,3a211.57,211.57,0,0,1,36.2-5l1.32,27.81c-3.36.2-6.71.48-10.06.75l-5,.64c-1.66.24-3.35.36-5,.7l-2.45-15.28c1.53-.31,3.09-.45,4.64-.66l4.65-.6.34,3.08-6.1.77,1.32,9.2,7.27-.93,7.31-.57-1.37-21.61-7.35.56c-2.44.26-4.88.6-7.32.9-1.21.16-2.44.3-3.65.48l-3.63.65c-2.42.45-4.85.81-7.25,1.35l7,33.3a171,171,0,0,1,35.27-3.67V6.67Zm3.37,46.32V50a169.44,169.44,0,0,0-37.25,4.21l.69,3A166.14,166.14,0,0,1,138.5,53.07ZM90.28,5.94,91,9A216.21,216.21,0,0,1,138.5,3.58V.49A218.32,218.32,0,0,0,90.28,5.94Zm91.77,5.27-7.64,36.33a177.75,177.75,0,0,0-30.34-3.6l.87-27.83a202.05,202.05,0,0,1,22.5,1.94l-2.21,15.32c-3-.35-5.91-.81-8.88-1.07l.29-3.08c2,.14,4,.48,6,.71l1.17-9.22c-5.24-.77-10.54-1.06-15.82-1.43l-1,21.64c2.12.1,4.23.31,6.35.46l3.18.23,3.16.41c2.1.28,4.22.5,6.31.83L172.27,44l6.47-33.41A213.35,213.35,0,0,0,138.5,6.67v3.1A212.46,212.46,0,0,1,174.88,13L170,40.43c-1.66-.28-3.3-.64-5-.85l-5-.63c-3.33-.51-6.69-.65-10-.93l1-15.44,4.68.35c1.56.11,3.12.23,4.67.45L160,26.46c-2-.31-4.09-.39-6.13-.56l-.74,9.26,3.66.27c1.21.11,2.42.3,3.63.44l3.64.47c1.21.15,2.43.28,3.62.53l3.43-21.39c-1.2-.24-2.42-.39-3.64-.54l-3.66-.47L160.15,14c-1.21-.17-2.44-.21-3.67-.32l-7.35-.56-7.36-.19-.54,34a171.32,171.32,0,0,1,35.2,4.22L184.66,15l.69-3Zm-7,46,.69-3A169.44,169.44,0,0,0,138.5,50v3.09A166.14,166.14,0,0,1,175.06,57.21ZM138.5.49V3.58A216.21,216.21,0,0,1,186,9l.69-3A218.32,218.32,0,0,0,138.5.49ZM226.83,26.1,211.24,59.79a169.94,169.94,0,0,0-28.72-10.35l7-26.93a205.48,205.48,0,0,1,21.49,7l-5.58,14.43c-2.76-1.15-5.6-2.06-8.42-3L198,38c1.92.66,3.84,1.28,5.74,2L207,31.2c-5-1.73-10-3.48-15.14-4.84L186,47.23l3.07.87c1,.29,2,.56,3,.92l6,2c2,.67,4,1.53,5.94,2.29l3,1.16L210,55.82l13.79-31.11A208.72,208.72,0,0,0,185.35,12l-.69,3a208.55,208.55,0,0,1,34.81,11.19L208.6,51.8,203.91,50c-1.57-.59-3.1-1.29-4.7-1.8l-4.78-1.61-2.38-.81-2.43-.7L194,30.2l2.26.64c.75.23,1.48.49,2.22.74l4.45,1.5-1,2.92-5.83-2-2.79,8.86,6.94,2.35c2.31.79,4.55,1.76,6.83,2.63l8.14-20.07a197.23,197.23,0,0,0-28.05-9.06l-8.08,33.05a169.44,169.44,0,0,1,33.34,11.93l16.13-33.44,1.35-2.78ZM209.75,69.29l1.34-2.79a169,169,0,0,0-35.34-12.31l-.69,3A165.51,165.51,0,0,1,209.75,69.29Zm-23-63.35L186,9a215.32,215.32,0,0,1,45.22,15.76l1.34-2.78A217.9,217.9,0,0,0,186.72,5.94Zm80.42,44.64L244.44,80a175,175,0,0,0-25.72-16.48l12.9-24.68,2.51,1.29c.84.44,1.64.93,2.46,1.39l4.9,2.82c1.65.91,3.2,2,4.8,3l4.75,3-8.66,12.83-7.53-4.83,1.6-2.64L241.56,59l5.08-7.78L243.29,49c-1.11-.71-2.22-1.43-3.38-2.07L233,43,222.67,62a200.42,200.42,0,0,1,21.44,13.73L264.48,48.5a209.28,209.28,0,0,0-34.57-21l-1.35,2.78A208.71,208.71,0,0,1,259.92,49L243.61,71.61l-4.11-2.92c-1.37-1-2.82-1.83-4.22-2.75s-2.81-1.85-4.26-2.69l-4.38-2.51,7.61-13.48c2.7,1.57,5.46,3.06,8.05,4.8l-1.64,2.62L238.07,53l-2.67-1.53-4.7,8c1.05.63,2.14,1.19,3.16,1.86l3.09,2,3.08,2c1,.65,2,1.4,3,2.1l12.4-17.76a196.86,196.86,0,0,0-25.3-15.09L214.86,65A170.78,170.78,0,0,1,244.7,84.09l23.16-29,1.93-2.42Zm-26.3,38.34,1.93-2.42a171.2,171.2,0,0,0-31.68-20l-1.34,2.79A167.75,167.75,0,0,1,240.84,88.92Zm-8.25-67-1.34,2.78a217.65,217.65,0,0,1,40.47,25.53l1.93-2.41A220.38,220.38,0,0,0,232.59,21.93ZM301,83.34,272.4,107a177.24,177.24,0,0,0-21.48-21.75L269,64l4.27,3.7c1.41,1.24,2.74,2.58,4.11,3.87s2.75,2.57,4.06,3.92l3.9,4.09L274,90.18C272,88,270,85.81,267.76,83.8l2.15-2.22,2.2,2.09,2.09,2.2,6.67-6.46c-.92-1-1.8-1.94-2.77-2.85l-2.87-2.74-2.88-2.74c-1-.92-2-1.75-3-2.63L255.06,84.71a171.09,171.09,0,0,1,17.87,18.15l25.9-22.08a211.51,211.51,0,0,0-29-28.12l-1.93,2.42a210,210,0,0,1,26.44,25.2L273.39,98.67l-1.64-1.91c-.56-.63-1.16-1.22-1.73-1.83l-3.48-3.65c-1.13-1.25-2.4-2.36-3.6-3.53l-3.65-3.48,10.4-11.45,6.79,6.47-2.18,2.19-4.46-4.25L263.49,84l2.65,2.53c.89.84,1.78,1.68,2.6,2.58l5.06,5.3,16-14.56a228.7,228.7,0,0,0-21.32-20.33L246.85,85.77a172.29,172.29,0,0,1,24.84,25.31l29-23.16L303.12,86Zm-58.37,7c.6.47,1.16,1,1.75,1.5l3.48,3c1.19,1,2.26,2.09,3.38,3.14l3.34,3.18,3.18,3.34c1,1.12,2.16,2.19,3.14,3.38l3,3.48c.5.59,1,1.15,1.5,1.75l1.42,1.82,2.42-1.93-1.45-1.85c-.48-.62-1-1.19-1.52-1.78l-3.08-3.55c-1-1.22-2.13-2.3-3.19-3.45L256.8,99l-3.4-3.24c-1.15-1.06-2.23-2.2-3.45-3.19l-3.55-3.08c-.59-.5-1.16-1-1.78-1.52l-1.85-1.45-1.93,2.42Zm31-42.51-1.93,2.41,2.35,1.86c.79.62,1.52,1.29,2.29,1.94L280.88,58c1.54,1.28,2.94,2.71,4.4,4.07l4.33,4.14,4.14,4.33c1.36,1.46,2.79,2.86,4.07,4.4l3.92,4.52c.65.77,1.32,1.5,1.94,2.29l1.86,2.35L308,82.13l-1.88-2.39c-.63-.79-1.31-1.54-2-2.31l-4-4.59c-1.3-1.56-2.74-3-4.13-4.46L291.79,64l-4.39-4.2c-1.48-1.39-2.9-2.83-4.46-4.13l-4.59-4c-.77-.66-1.52-1.34-2.31-2Zm53.1,75-33.17,16.66a175.47,175.47,0,0,0-16-26l22.3-16.67,3.28,4.6c1.07,1.55,2.22,3,3.2,4.65l3.05,4.76c.5.79,1,1.57,1.51,2.39l1.41,2.44L299,123.51c-1.43-2.62-3.11-5.08-4.71-7.6l2.59-1.69,3.27,5.11L308,114.5l-4.28-6.69c-.7-1.13-1.47-2.2-2.24-3.28l-2.3-3.24L281.66,114a169.07,169.07,0,0,1,13.39,21.65l30.16-15.77A210.9,210.9,0,0,0,303.12,86l-2.42,1.93A209.11,209.11,0,0,1,321,118.34l-24.47,13.29L294,127.26c-.86-1.44-1.63-2.94-2.57-4.33l-2.73-4.25c-.46-.7-.89-1.42-1.37-2.11l-1.46-2.06,12.68-8.86c1.87,2.51,3.49,5.19,5.19,7.82l-2.62,1.64-3.32-5.18-7.7,5.2,4,6.17c.68,1,1.28,2.08,1.88,3.14l1.83,3.18L316.6,117a197.87,197.87,0,0,0-16.29-24.55l-26.93,20.81a171,171,0,0,1,18.68,30.12l33.44-16.13,2.78-1.35ZM286.49,146l2.79-1.34a171.2,171.2,0,0,0-20-31.68l-2.42,1.93A167.75,167.75,0,0,1,286.49,146ZM308,82.13l-2.41,1.93a217.65,217.65,0,0,1,25.53,40.47l2.78-1.34A220.38,220.38,0,0,0,308,82.13Zm35.1,85L307,176a174.14,174.14,0,0,0-9.85-28.89l25.45-11.29c1.63,3.4,2.89,7,4.3,10.45.73,1.74,1.29,3.54,1.9,5.32l1.81,5.36-14.76,4.63L313,153.07l2.9-1.06c.68,1.9,1.3,3.82,2,5.74l8.82-2.93-1.28-3.76-.64-1.89-.72-1.85-2.93-7.39-19.94,8.46a193.44,193.44,0,0,1,8.2,24.08l32.92-8.61a209,209,0,0,0-14-38l-2.78,1.35a208,208,0,0,1,12.85,34.22l-26.82,7.48-1.37-4.84-1.61-4.78c-.56-1.58-1-3.2-1.66-4.76L305,149.86l14.34-5.81c1.12,2.92,2.38,5.78,3.31,8.77l-2.91,1c-.34-1-.65-2-1-2.91l-1.13-2.86L309,151.42c.44,1.14.92,2.26,1.33,3.41l1.17,3.47c.77,2.32,1.62,4.61,2.23,7l20.77-6.16a199.71,199.71,0,0,0-10.41-27.58l-30.88,14.29a169.68,169.68,0,0,1,11.41,33.52l36.2-8.23,3-.69Zm-44.48,13.58,3-.69a169,169,0,0,0-12.31-35.34L286.49,146A165.51,165.51,0,0,1,298.57,180.72Zm35.28-57.53-2.78,1.34a215.32,215.32,0,0,1,15.76,45.22l3-.69A217.9,217.9,0,0,0,333.85,123.19ZM349,213.91l-37.12.59-.1-3.83c0-1.28,0-2.56-.17-3.83l-.59-7.63-1-7.58c-.37-2.52-.88-5-1.3-7.53l27.33-5.3c.63,3.71,1.43,7.4,1.82,11.15l.71,5.6c.26,1.87.32,3.75.49,5.63l-15.42,1.22c-.12-1.48-.21-3-.36-4.46l-.56-4.43,3.06-.4c.23,2,.57,4,.71,6l9.25-.88c-.21-2.64-.63-5.26-.94-7.89-.18-1.31-.3-2.64-.54-3.94l-.69-3.91-21.33,3.77c.85,4.16,1.24,8.4,1.81,12.61.19,2.11.33,4.23.5,6.35.07,1.06.18,2.12.23,3.18l.08,3.19,34-1.08a210.45,210.45,0,0,0-5.13-40.11l-3,.69a211.57,211.57,0,0,1,5,36.2L318,208.64c-.2-3.36-.48-6.71-.75-10.06l-.64-5c-.24-1.67-.36-3.35-.7-5l15.28-2.45c.31,1.53.45,3.09.66,4.64l.6,4.65-3.08.34-.77-6.1-9.2,1.32.93,7.27.57,7.31,21.61-1.37-.56-7.35c-.26-2.44-.6-4.88-.9-7.32-.16-1.21-.3-2.44-.48-3.65l-.65-3.63c-.45-2.42-.81-4.85-1.35-7.25l-33.3,7a171,171,0,0,1,3.67,35.27h40.22Zm-46.32,3.37h3.09A169.44,169.44,0,0,0,301.59,180l-3,.69A166.14,166.14,0,0,1,302.71,217.28Zm47.13-48.22-3,.69a216.21,216.21,0,0,1,5.37,47.53h3.09A218.32,218.32,0,0,0,349.84,169.06Z"/></g><path class="cls-10" d="M11.45,32.21c0-10.32,7.78-18.69,17.38-18.69H67L79,8.94H25.31c-9.95,0-18,8.54-18,19.07V171.28l4.16-9.63Z"/><path class="cls-11" d="M269.47,28.56c0-10.84-7.9-19.62-17.63-19.62H198l12.25,4.72H248c9.39,0,17,8.6,17,19.22V167.34l4.49,8.94Z"/><path class="cls-12" d="M31.08,423.89a19.15,19.15,0,0,1-19.2-19.1V272.94l-4.59-7.66v143a19.7,19.7,0,0,0,19.9,19.5H86l-11.18-3.9Z"/><path class="cls-13" d="M263.34,272.35V404.74a19.3,19.3,0,0,1-19.43,19.15H202.65L191,427.8h57.32c11.13,0,20.15-8.75,20.15-19.55v-147Z"/><path class="cls-14" d="M163.56,304.3c8.74,3.22,18,2.53,27.57-.55a34.58,34.58,0,0,0-4-2.94c-8.28-4.21-16.94-5.51-26-2.85-7.16,2.12-14.26,4.46-21.39,6.67-.89.28-1.93.77-2.73.54-6.13-1.71-12.51-2.93-18.26-5.52-10.46-4.71-20.42-3.49-30.41.84-1.56.67-2.88,1.88-4.9,3.24,12,3.7,23,2.93,34-.47a7.27,7.27,0,0,1,3.76-.53c4.13,1.12,8.18,2.55,12.86,4-4.22,3.36-8.85,5.86-12.95,9l5.64,1.81c2-2.21,4-4.38,6.18-6.41,3.25-3.07,6-2.9,9.36,0a72.26,72.26,0,0,1,6.1,6.27l5.15-1.66-11.82-9.13C148.67,303.75,155.43,301.31,163.56,304.3Zm4.9-12.89c13.39,8.26,26.65,5.17,40.39,1.08C201.81,285,180.11,283.88,168.46,291.41Zm19-8.05c10.54,3.42,35-4.4,38-12.1C211.45,268.56,191.31,275,187.51,283.36ZM106,291.91c-9.59-7.47-35.42-7.32-39.73.22C79.38,295.71,92.37,300.23,106,291.91Zm100.21-99.78c-4.57-12.39-20.54-23-31.77-21.13C175.78,179.65,198.31,194,206.21,192.13ZM87.38,283.26c-4.12-8.22-23.72-14.43-38.15-11.95C55.09,280.12,77.64,287.06,87.38,283.26Zm13.06-112.42c-12.73-.74-29.22,10.52-31.69,21.46C79.4,192.4,97.38,180.35,100.44,170.84Zm124.65,77.34c-11.6-.9-24.17,13.07-28.38,23.8C206.89,272.73,225.46,256.93,225.09,248.18Zm-175.37.21c-.06,8.86,19,25.18,28.48,23.34C71.24,256.9,57.6,246.62,49.72,248.39ZM106,144c-10,1-22.82,15.79-25.92,30.16C93.55,171.61,106.59,156.25,106,144Zm88.65,30.14c-2-13.32-15.82-31-23.53-30.13C171.75,157.43,182.64,171.52,194.65,174.15ZM65.85,162c-7.87,8.6-9.82,26-3.91,36C69.58,189.87,71.91,167.55,65.85,162ZM199,248.12c-10.65,9-16.65,19.73-16.05,34C192.09,280.94,200.43,259.77,199,248.12Zm-19.45,23.69c-12.27,1.41-26.32,15.41-26.43,26.35C165.5,293.79,177.56,281.75,179.58,271.81Zm33.59-74.06c5.53-10.62,3.41-28.16-4.56-36.51C203.22,171.05,206.06,193,213.17,197.75ZM121.7,298.21c.55-9.31-14.78-26.14-26.71-26.43C99.94,284.82,109.07,293.24,121.7,298.21ZM91.19,281.9c1.84-11.83-5.36-27.36-15.63-33.36C74.83,260,82.36,280.61,91.19,281.9ZM59.3,233.64c.91-12.76-7.07-29.58-17-30.42C41.55,214,50.48,230.27,59.3,233.64Zm156.42-.21c8.24-2.58,17-18.06,16.94-30.31C222.63,205,214.09,220.47,215.72,233.43ZM216,212c10.08-5.54,14.5-23.14,10.76-33.58C218.38,184.18,213.72,198.5,216,212Zm-157.4-.24c3.56-10-2-27.71-10.49-33.26C44.79,190,48.73,206.47,58.58,211.78ZM37.31,224c4.66,12.45,12.35,21.67,25.75,25.74C59.33,236,48.05,224.78,37.31,224Zm174.85,25.91c12.61-4.66,20.58-13.51,25.53-26.07C225.44,225.79,213,238.61,212.16,249.89ZM197,192.45c-1.75,8.93,10,30.07,16.93,29.46C215.1,210.15,206.53,195,197,192.45ZM69.91,254.39c5.46-11.34,4.3-27.92-2.31-33.09C61,230.1,62.32,249.64,69.91,254.39Zm135.1.05c7.33-5.15,8.63-24.09,2.28-33.29C200.54,226.43,199.3,244.51,205,254.44ZM61.08,222.14c8.9-3.27,19.72-23.5,16.1-29.63C68.1,195.52,59.48,211.21,61.08,222.14Zm142.38-41.82c1.12-11.84,1-23.27-8.25-33.1C190.13,157.79,195.67,179.52,203.46,180.32ZM79.6,147.24c-9.16,9.78-9.69,21.11-8.15,33C79.6,178.15,84.35,159,79.6,147.24Zm69.37-26a18.88,18.88,0,0,0-29.41,7.38,19.11,19.11,0,0,0-1.34,9.09,18.85,18.85,0,0,0,9.95,14.79l.22.68a10.11,10.11,0,0,0,1.21,2.33,2.7,2.7,0,0,0,1.59,1.07,2.81,2.81,0,0,0,1.08,0,2.84,2.84,0,0,0,1-.37,2.8,2.8,0,0,0,1.24-1.72,10.36,10.36,0,0,0,.24-2.61,15.17,15.17,0,0,0-.27-2.51,3.53,3.53,0,0,0-.67-1.52,3.41,3.41,0,0,0-1.31-1h-.11a11.48,11.48,0,0,1-7-10.23,11.85,11.85,0,0,1,7.84-11.59,11.68,11.68,0,0,1,4.9-.66,11.48,11.48,0,0,1,4.75,1.41,11.65,11.65,0,0,1,3.76,3.22,11.85,11.85,0,0,1,2.11,4.48,12,12,0,0,1-1,8,12.47,12.47,0,0,1-5.85,5.63h-.05l-.3.15-.29.18-.22.17-.27.24a3.33,3.33,0,0,0-.58.81l-.1.17,0,.12-.12.24a2.83,2.83,0,0,0-.14.41,11.49,11.49,0,0,0-.22,1.17c-.06.68-.09,1.25-.1,1.82l-.05,3.25c0,1.05,0,2.1,0,3.14a7.56,7.56,0,0,1-.77,3.13h0a4.16,4.16,0,0,0-.45,2.08,4.12,4.12,0,0,0,.64,2,4.18,4.18,0,0,0,3.66,1.91,4,4,0,0,0,2-.63A4.1,4.1,0,0,0,145.9,166a4.16,4.16,0,0,0,.48-2.08,4.12,4.12,0,0,0-.61-2,6.41,6.41,0,0,1-.94-2.94,29.16,29.16,0,0,1-.06-3,17.7,17.7,0,0,1,.25-2.82c0-.2.07-.4.11-.58a18.46,18.46,0,0,0,8.44-8,18.66,18.66,0,0,0-4.6-23.31Zm-7.12,19.45-4.8-4.79-4.8-4.81-.39-.38a7.34,7.34,0,0,0,10.38,10.37Z"/><path class="cls-15" d="M97.19,218.43H91.37v-1.71h14.16v1.71H99.68v13.85H97.19V218.43Z"/><path class="cls-16" d="M110.13,216.72v6.51h9.25v-6.51h2.49v15.56h-2.49V225h-9.25v7.29h-2.47V216.72Z"/><path class="cls-17" d="M143.53,216.72H146V230.6h8.17v1.68H143.53Z"/><path class="cls-18" d="M166.82,225h-7.43v5.6h8.28v1.69H156.92V216.72h10.33v1.68h-7.86v4.92h7.43Z"/><path class="cls-19" d="M170.54,229.83a10.23,10.23,0,0,0,4.43,1c2.52,0,4-1.08,4-2.66s-1-2.28-3.61-3.09c-3.12-.9-5.05-2.21-5.05-4.41,0-2.42,2.47-4.22,6.19-4.22a10.29,10.29,0,0,1,4.23.76l-.69,1.64a8.92,8.92,0,0,0-3.63-.74c-2.61,0-3.6,1.27-3.6,2.33,0,1.46,1.16,2.17,3.8,3,3.23,1,4.88,2.29,4.88,4.57s-2.19,4.48-6.7,4.48a11.81,11.81,0,0,1-4.88-1Z"/><path class="cls-20" d="M113.7,267.11l-2.76-10.86h1.49l1.28,5.5c.33,1.35.62,2.7.81,3.75h0c.18-1.08.52-2.37.89-3.77l1.45-5.48h1.46l1.33,5.51c.3,1.29.59,2.58.75,3.72h0c.23-1.19.54-2.39.87-3.75l1.44-5.48h1.43l-3.07,10.86h-1.47l-1.37-5.65a33.63,33.63,0,0,1-.71-3.55h0c-.2,1.08-.44,2.14-.84,3.55l-1.55,5.65Z"/><path class="cls-21" d="M127,256.25v10.86h-1.4V256.25Z"/><path class="cls-22" d="M129.41,267.11V256.25h1.53l3.48,5.5a29.22,29.22,0,0,1,2,3.53l0,0c-.13-1.45-.16-2.77-.16-4.46v-4.55h1.32v10.86h-1.41l-3.45-5.51a35.11,35.11,0,0,1-2-3.62h0c.08,1.37.11,2.68.11,4.48v4.64Z"/><path class="cls-23" d="M139.79,266.94l.45-10.85,1.53.06,3.25,5.64a30.91,30.91,0,0,1,1.8,3.6h0c-.06-1.46,0-2.78,0-4.47l.19-4.54,1.32.06-.45,10.85-1.42-.06-3.22-5.65a35.84,35.84,0,0,1-1.87-3.71l-.05,0c0,1.37,0,2.67-.07,4.48l-.2,4.63-1.32-.05Z"/><path class="cls-24" d="M156.24,262H152v3.92h4.7v1.17h-6.1V256.25h5.86v1.18H152v3.43h4.22V262Z"/><path class="cls-25" d="M158.55,256.4a14.12,14.12,0,0,1,2.69-.23,4.45,4.45,0,0,1,3.14.89,2.68,2.68,0,0,1,.85,2.06,2.84,2.84,0,0,1-2,2.77v.05a2.72,2.72,0,0,1,1.59,2.19,17.18,17.18,0,0,0,.84,3h-1.45a13.86,13.86,0,0,1-.73-2.59c-.32-1.5-.9-2.07-2.17-2.11H160v4.7h-1.41V256.4Zm1.4,4.94h1.43c1.5,0,2.45-.82,2.45-2.06,0-1.4-1-2-2.5-2a5.94,5.94,0,0,0-1.38.13v4Z"/><path class="cls-26" d="M107.14,203.5c0-1.83-1.07-2.84-3.17-3.65-1.72-.67-2.48-1.24-2.48-2.41,0-.85.65-1.86,2.35-1.86a4.93,4.93,0,0,1,2.36.59l.45-1.31a5.74,5.74,0,0,0-2.76-.61c-2.41,0-4,1.44-4,3.38,0,1.75,1.26,2.8,3.29,3.52,1.68.65,2.34,1.32,2.34,2.48s-1,2.12-2.6,2.12a5.71,5.71,0,0,1-2.88-.81l-.41,1.35a6.5,6.5,0,0,0,3.18.79C105.72,207.08,107.14,205.42,107.14,203.5Z"/><polygon class="cls-27" points="116.06 195.8 116.06 194.45 109.34 194.45 109.34 206.9 116.34 206.9 116.34 205.55 110.95 205.55 110.95 201.06 115.78 201.06 115.78 199.73 110.95 199.73 110.95 195.8 116.06 195.8"/><path class="cls-28" d="M132.38,205.75a5.74,5.74,0,0,1-2.88-.81l-.4,1.35a6.43,6.43,0,0,0,3.17.79c2.94,0,4.36-1.66,4.36-3.58s-1.07-2.84-3.18-3.65c-1.71-.67-2.47-1.24-2.47-2.41,0-.85.65-1.86,2.35-1.86a5,5,0,0,1,2.36.59l.44-1.31a5.66,5.66,0,0,0-2.75-.61c-2.42,0-4,1.44-4,3.38,0,1.75,1.25,2.8,3.28,3.52,1.68.65,2.35,1.32,2.35,2.48S134,205.75,132.38,205.75Z"/><path class="cls-29" d="M143.68,207.1c3.18,0,5.78-2.27,5.78-6.56,0-3.69-2.2-6.29-5.59-6.29s-5.78,2.58-5.78,6.53C138.09,204.55,140.4,207.1,143.68,207.1Zm.11-11.54c2.68,0,4,2.58,4,5.06,0,2.83-1.44,5.17-4,5.17s-4-2.38-4-5S141.13,195.56,143.79,195.56Z"/><path class="cls-30" d="M153.06,201.58c0-2.07,0-3.56-.13-5.13l.06,0a38.82,38.82,0,0,0,2.33,4.15l4,6.32h1.62V194.45h-1.51v5.21c0,1.94,0,3.45.18,5.11l0,0a36,36,0,0,0-2.23-4l-4-6.3h-1.75V206.9h1.51v-5.32Z"/><rect class="cls-31" x="169.14" y="196.59" width="1.61" height="8.1"/><rect class="cls-32" x="164.94" y="194.45" width="7.23" height="1.28"/><path class="cls-33" d="M134.19,216.72h-3l-6.49,15.56h2.55s5-12.86,5.33-13.78h.06c.28.9,5.42,13.78,5.42,13.78h2.64Z"/><path class="cls-34" d="M123.65,194.45h-1.94l-4.23,12.45h1.66s3.29-10.28,3.48-11h0c.19.72,3.53,11,3.53,11h1.72Z"/><path class="cls-35" d="M92.77,235.56a31.69,31.69,0,0,1,4.77-.32c2.66,0,4.37.39,5.57,1.28a3.58,3.58,0,0,1,1.52,3c0,2.07-1.6,3.44-3.63,4v.07a4.12,4.12,0,0,1,2.83,3.16,21.49,21.49,0,0,0,1.48,4.3h-2.57a17.69,17.69,0,0,1-1.28-3.74c-.58-2.16-1.6-3-3.86-3.05H95.26V251H92.77Zm2.49,7.14H97.8c2.66,0,4.34-1.18,4.34-3,0-2-1.8-2.91-4.43-2.93a12.8,12.8,0,0,0-2.45.18Z"/><path class="cls-36" d="M124.68,243c0,5.39-4,8.25-8.94,8.25-5.09,0-8.66-3.21-8.66-7.95,0-5,3.8-8.23,8.94-8.23S124.68,238.38,124.68,243Zm-14.94.25a6,6,0,0,0,6.14,6.35c3.94,0,6.17-2.95,6.17-6.51,0-3.12-2-6.37-6.14-6.37S109.74,239.84,109.74,243.28Z"/><path class="cls-37" d="M131.39,251v-6.64l-6.09-9h2.83l2.72,4.33c.74,1.18,1.31,2.14,1.91,3.23h.06c.54-1,1.2-2,1.94-3.23l2.77-4.33h2.83l-6.46,9V251Z"/><path class="cls-38" d="M157.72,235.35h2.49v14h8.22V251H157.72V235.35Z"/><path class="cls-39" d="M181.17,243.68h-7.48v5.65H182V251H171.2V235.35h10.4v1.7h-7.91V242h7.48v1.68Z"/><path class="cls-40" d="M148.33,235.35h-3L138.78,251h2.57s5.09-13,5.38-13.88h.05c.29.91,5.46,13.88,5.46,13.88h2.66Z"/><rect class="cls-41" x="166.17" y="196.59" width="1.61" height="8.1"/><rect class="cls-42" x="165.25" y="206" width="7.23" height="1.28"/></svg>