<svg width="15" height="15" viewBox="0 0 15 15" fill="none" xmlns="http://www.w3.org/2000/svg">
<path d="M1.46341 0C0.659012 0 0 0.71104 0 1.57895V12.8289C0 13.5875 0.577427 14.2105 1.28049 14.2105H13.7195C14.4226 14.2105 15 13.5875 15 12.8289V3.75C15 2.99143 14.4226 2.36842 13.7195 2.36842L11.6623 2.3868L12.8049 0.394737C12.8049 0.190815 12.6306 1.97368e-05 12.439 0H1.46341ZM2.03954 1.33224H11.1837L10.6311 2.36842H2.03954C1.62784 2.36842 1.46341 2.12683 1.46341 1.84576C1.46341 1.56468 1.62784 1.33224 2.03954 1.33224ZM1.46341 3.55263C1.46341 3.55263 1.49866 3.55263 1.76471 3.55263C5.88497 3.54868 10.1782 3.55263 13.7195 3.55263V6.11842H8.96341C8.46304 6.11842 8.04878 6.56538 8.04878 7.10526V9.47368C8.04878 10.0136 8.46304 10.4605 8.96341 10.4605H13.7195V12.8783L1.46341 12.8289V3.55263ZM8.96341 7.08792L13.6765 7.10526V9.67105H8.96341V7.10526V7.08792Z" fill="#64D9FE"/>
</svg>
