<svg width="71" height="19" viewBox="0 0 345 88" fill="none" xmlns="http://www.w3.org/2000/svg">
<path fill-rule="evenodd" clip-rule="evenodd" d="M178.825 0L189.582 7.84421L179.684 21.4173C185.034 27.3231 188.292 35.1581 188.292 43.7544C188.292 62.1359 173.391 77.037 155.01 77.037C150.114 77.037 145.465 75.9799 141.279 74.0815L131.212 87.8858L120.455 80.0416L130.498 66.2697C125.052 60.3437 121.727 52.4373 121.727 43.7544C121.727 25.3729 136.628 10.4718 155.01 10.4718C159.991 10.4718 164.717 11.5662 168.96 13.5277L178.825 0ZM154.842 25.0446C156.643 25.0446 158.384 25.2969 160.034 25.7682L139.162 54.3892C137.153 51.391 135.982 47.7847 135.982 43.9047C135.982 33.4885 144.426 25.0446 154.842 25.0446ZM170.715 33.7154L149.991 62.135C151.539 62.5459 153.165 62.7649 154.842 62.7649C165.258 62.7649 173.702 54.3209 173.702 43.9047C173.702 40.1512 172.606 36.6538 170.715 33.7154ZM317.441 77.3527C328.903 77.3527 339.012 71.5588 344.998 62.74L332.969 54.6815C329.587 59.7454 323.82 63.0805 317.274 63.0805C306.857 63.0805 298.413 54.6366 298.413 44.2204C298.413 33.8042 306.857 25.3602 317.274 25.3602C323.757 25.3602 329.477 28.6318 332.871 33.6142L344.843 25.1738C338.838 16.4823 328.805 10.7875 317.441 10.7875C299.06 10.7875 284.159 25.6886 284.159 44.0701C284.159 62.4515 299.06 77.3527 317.441 77.3527ZM50.0887 11.7257V25.0387H13.313V37.0988H50.0887V50.4119H13.313V62.7729L50.0887 62.7729V76.0859H0.00625934L0.00625934 76.0721H0V11.7257L0.323235 11.7257L13.313 11.7257H50.0887ZM212.412 11.7734H193.564L193.564 23.5544H212.412V76.1198H225.725V23.5544H234.797L247.756 11.7734H225.725H212.412ZM80.1902 44.1889L56.1307 11.7295H72.7021L88.4085 32.9194L103.861 11.7295H120.338L96.7141 44.1247L120.383 76.0573H103.812L88.4958 55.3943L73.4274 76.0573H56.9504L80.1902 44.1889ZM275.38 11.7714H262.067V11.7776H262.064L237.974 32.6924L246.707 42.7413L262.067 29.3809V76.1178H275.38V11.7714Z" fill="white"/>
</svg>