<svg width="83" height="13" viewBox="0 0 83 13" fill="none" xmlns="http://www.w3.org/2000/svg">
<path fill-rule="evenodd" clip-rule="evenodd" d="M37.7599 7.34167C37.7599 6.52452 38.4224 5.8621 39.2395 5.8621H39.6383C40.38 5.8621 40.9514 5.66857 41.3526 5.28151C41.7538 4.89445 41.9544 4.37004 41.9544 3.70829C41.9544 3.084 41.7538 2.56584 41.3526 2.1538C40.9636 1.74177 40.4038 1.57979 39.6621 1.57979H37.0258C36.9449 1.57979 36.8669 1.56763 36.7933 1.545V12.1317C36.7933 12.6103 36.4054 12.9982 35.9268 12.9982C35.4482 12.9982 35.0603 12.6103 35.0603 12.1317V0.866996C35.0603 0.457088 35.3449 0.113657 35.7273 0.0235552V0.00183985H35.8778C35.894 0.000937033 35.9104 0.000479604 35.9268 0.000479604C35.9432 0.000479605 35.9596 0.000937035 35.9758 0.00183985H36.9714C36.9894 0.000619996 37.0075 0 37.0258 0H39.7113C40.5137 0 41.2128 0.162316 41.8086 0.486947C42.4043 0.799093 42.8602 1.22985 43.1763 1.77923C43.5046 2.32861 43.6687 2.95914 43.6687 3.67083C43.6687 4.4075 43.5046 5.05052 43.1763 5.5999C42.8602 6.14927 42.4043 6.58003 41.8086 6.89218C41.2128 7.19184 40.5137 7.34167 39.7113 7.34167H39.6774C39.991 7.48629 40.2749 7.70332 40.5022 7.98645L43.4196 11.62C43.8649 12.1745 43.4701 12.9978 42.7589 12.9978C42.5038 12.9978 42.2622 12.8828 42.1014 12.6848L37.7599 7.34167ZM13.765 0.00112872C14.1476 0.00104545 14.4933 0.234306 14.6344 0.587803L18.4849 10.234L22.4067 0.573019C22.5466 0.228481 22.8843 0.0017787 23.2577 0.0017787C23.8989 0.00177871 24.3308 0.642902 24.0873 1.23319L19.4885 12.3802C19.3982 12.5992 19.2283 12.7627 19.0261 12.851C18.8717 12.9362 18.6942 12.9847 18.5054 12.9847H18.458C18.3199 12.9847 18.1878 12.9587 18.0664 12.9114C17.8066 12.8429 17.5807 12.6577 17.472 12.3919L12.9189 1.25097C12.6736 0.650853 13.1134 0.00127053 13.765 0.00112872ZM6.59079 1.5994C7.00497 1.56918 7.3316 1.22357 7.3316 0.801685C7.3316 0.379794 7.00497 0.0341935 6.59079 0.00396974V0.00268645L6.5607 0.00233773C6.55109 0.00199555 6.54143 0.00182301 6.53174 0.00182301L6.51197 0.00206262L6.49887 0.00204972C2.90965 0.00204972 0 2.9117 0 6.50092C0 10.0902 2.90965 12.9998 6.49887 12.9998C10.0877 12.9998 12.9971 10.0908 12.9977 6.50203H12.9973C12.9978 6.49078 12.998 6.47947 12.998 6.4681C12.998 6.02635 12.6399 5.66824 12.1982 5.66824C11.7564 5.66824 11.3983 6.02635 11.3983 6.4681C11.3983 6.47947 11.3985 6.49078 11.399 6.50203H11.3979C11.3971 9.20704 9.20396 11.3996 6.49876 11.3996C3.79303 11.3996 1.5996 9.20619 1.5996 6.50046C1.5996 3.79473 3.79303 1.60131 6.49876 1.60131L6.51298 1.60133L6.53174 1.60155L6.54125 1.60149L6.59079 1.60216V1.5994ZM8.79824 1.66762C9.23999 1.66762 9.5981 1.30951 9.5981 0.867759C9.5981 0.426008 9.23999 0.0678979 8.79824 0.0678979C8.35649 0.0678979 7.99838 0.426008 7.99838 0.867759C7.99838 1.30951 8.35649 1.66762 8.79824 1.66762ZM12.9981 4.13385C12.9981 4.57561 12.64 4.93372 12.1982 4.93372C11.7565 4.93372 11.3983 4.57561 11.3983 4.13385C11.3983 3.6921 11.7565 3.33399 12.1982 3.33399C12.64 3.33399 12.9981 3.6921 12.9981 4.13385ZM11.0644 2.73403C11.5061 2.73403 11.8642 2.37592 11.8642 1.93417C11.8642 1.49241 11.5061 1.1343 11.0644 1.1343C10.6226 1.1343 10.2645 1.49241 10.2645 1.93417C10.2645 2.37592 10.6226 2.73403 11.0644 2.73403ZM27.9284 6.39484C27.9284 5.95711 28.2832 5.60226 28.7209 5.60226H32.5517C32.9895 5.60226 33.3443 5.95711 33.3443 6.39484C33.3443 6.83257 32.9895 7.18742 32.5517 7.18742H28.7209C28.2832 7.18742 27.9284 6.83257 27.9284 6.39484ZM24.9957 12.1662C24.9957 12.121 24.9993 12.0766 25.0063 12.0334C24.9993 11.9899 24.9956 11.9452 24.9956 11.8997V0.968304C24.9956 0.9455 24.9965 0.922911 24.9983 0.90057C24.9966 0.878714 24.9957 0.856621 24.9957 0.834323C24.9957 0.374165 25.3688 0.00113351 25.8289 0.00113351H32.4944C32.9546 0.00113351 33.3276 0.374165 33.3276 0.834323C33.3276 1.29448 32.9546 1.66751 32.4944 1.66751H26.662V11.3331H32.4944C32.9546 11.3331 33.3276 11.7061 33.3276 12.1662C33.3276 12.6264 32.9546 12.9994 32.4944 12.9994H25.8289C25.3688 12.9994 24.9957 12.6264 24.9957 12.1662ZM78.3125 5.60226C77.8748 5.60226 77.5199 5.95711 77.5199 6.39484C77.5199 6.83257 77.8748 7.18742 78.3125 7.18742H82.1433C82.581 7.18742 82.9359 6.83257 82.9359 6.39484C82.9359 5.95711 82.581 5.60226 82.1433 5.60226H78.3125ZM74.5866 12.1662C74.5866 12.1202 74.5903 12.075 74.5975 12.0309C74.5908 11.9882 74.5872 11.9444 74.5872 11.8997L74.5872 0.968304C74.5872 0.947204 74.588 0.926287 74.5896 0.905581C74.5876 0.882092 74.5866 0.858326 74.5866 0.834323C74.5866 0.374165 74.9596 0.00113351 75.4198 0.00113351H82.0853C82.5454 0.00113351 82.9185 0.374165 82.9185 0.834323C82.9185 1.29448 82.5454 1.66751 82.0853 1.66751H76.2536V11.3331H82.0853C82.5454 11.3331 82.9185 11.7061 82.9185 12.1662C82.9185 12.6264 82.5454 12.9994 82.0853 12.9994H75.4198C74.9596 12.9994 74.5866 12.6264 74.5866 12.1662ZM56.8696 0.223106C57.0323 0.0984737 57.2259 0.0465937 57.4129 0.0620467C57.5095 0.0249075 57.6143 0.00455143 57.7239 0.00455143C58.2025 0.00455145 58.5905 0.392504 58.5905 0.871068V12.1324C58.5905 12.6109 58.2025 12.9989 57.7239 12.9989C57.2454 12.9989 56.8574 12.6109 56.8574 12.1324V2.26196L54.5797 4.00638C54.2263 4.277 53.7276 4.20461 53.4658 3.84468C53.2039 3.48476 53.2781 2.9736 53.6315 2.70298L56.8696 0.223106ZM50.1246 12.1312V1.64594H52.3546C52.4297 1.64594 52.503 1.62315 52.5649 1.58059L53.8721 0.681822C54.1726 0.475234 54.0264 0.00455147 53.6617 0.00455147H45.6301L45.6212 0.0046561H44.8132C44.3599 0.0046561 43.9925 0.372093 43.9925 0.82535C43.9925 1.27861 44.3599 1.64604 44.8132 1.64604H48.3916L48.3916 12.1312C48.3916 12.6098 48.7795 12.9977 49.2581 12.9977C49.7367 12.9977 50.1246 12.6098 50.1246 12.1312ZM61.3219 0.0054583C61.4708 0.0054583 61.611 0.0430145 61.7334 0.109171C61.9459 0.162309 62.138 0.297809 62.2599 0.503559L66.6556 7.92191L71.0512 0.500544C71.144 0.34385 71.2775 0.227883 71.4297 0.157996C71.5693 0.0617878 71.7385 0.00545829 71.9209 0.0054583C72.3995 0.00545832 72.7874 0.393411 72.7874 0.871974V12.1333C72.7874 12.6118 72.3995 12.9998 71.9209 12.9998C71.4423 12.9998 71.0544 12.6118 71.0544 12.1333V3.91911L67.6183 9.7206C67.4467 10.1238 67.08 10.4024 66.6553 10.4024C66.2287 10.4024 65.8606 10.1213 65.6901 9.71523L62.1885 3.80579V12.1333C62.1885 12.6118 61.8005 12.9998 61.3219 12.9998C60.8434 12.9998 60.4554 12.6118 60.4554 12.1333V0.871974C60.4554 0.39341 60.8434 0.00545827 61.3219 0.0054583Z" fill="white"/>
</svg>
