<svg width="242" height="272" viewBox="0 0 242 272" fill="none" xmlns="http://www.w3.org/2000/svg">
<path d="M186.602 255.882H52.6626C48.2117 255.882 44.6035 259.49 44.6035 263.941C44.6035 268.392 48.2117 272 52.6626 272H186.602C191.053 272 194.661 268.392 194.661 263.941C194.661 259.49 191.053 255.882 186.602 255.882Z" fill="#F6F6FE"/>
<path d="M0 55.4242V18.7219H43.8635L44.0222 34.2024L15.4274 34.2303V55.4242C15.5189 82.4625 28.1328 101.644 43.8635 101.644L45.2281 117.376C17.0463 117.377 0 94.8338 0 55.4242Z" fill="#F6F6FE"/>
<path d="M196.771 117.384L198.137 101.652C213.868 101.652 226.481 82.4706 226.572 55.4323V34.2384L197.977 34.2105L198.137 18.73H242V55.4323C242 94.8419 224.953 117.384 196.771 117.384Z" fill="#F6F6FE"/>
<path d="M42.4824 0V101.383H42.6433C44.7538 134.395 67.4898 161.717 98.1322 170.631C95.6533 174.581 94.2151 179.249 94.2151 184.256C94.2151 192.218 97.8423 199.332 103.534 204.045H103.341C100.832 219.948 81.6367 231.997 58.0277 231.997C58.0067 231.997 57.9949 232.012 57.9825 232.026C53.8938 232.114 50.606 235.445 50.606 239.551C50.606 243.711 53.982 247.084 58.147 247.084C58.4988 247.084 58.8425 247.051 59.1819 247.005C90.6347 244.668 111.576 225.843 115.863 209.63C115.865 209.622 115.867 209.615 115.87 209.607V195.9C111.063 194.209 107.619 189.635 107.619 184.256C107.619 179.629 110.172 175.603 113.943 173.49C114.556 173.146 115.197 172.848 115.87 172.611V158.88C84.5512 155.646 57.4247 128.482 57.4247 96.3537V16.3906L184.575 16.3987V96.3623C184.575 128.49 157.448 155.654 126.13 158.888V172.62C126.802 172.856 127.443 173.155 128.057 173.498C131.828 175.612 134.381 179.637 134.381 184.264C134.381 189.644 130.936 194.217 126.13 195.909V209.616C126.133 209.624 126.134 209.631 126.136 209.639C130.424 225.852 151.365 244.677 182.817 247.013C183.157 247.06 183.5 247.092 183.852 247.092C188.017 247.092 191.393 243.72 191.393 239.559C191.393 235.454 188.105 232.123 184.017 232.034C184.004 232.021 183.992 232.006 183.971 232.006C160.362 232.006 141.168 219.956 138.658 204.054H138.465C144.158 199.341 147.784 192.227 147.784 184.264C147.784 179.258 146.346 174.589 143.867 170.64C174.509 161.726 197.246 134.405 199.356 101.391H199.518V0.00750951L42.4824 0Z" fill="#F6F6FE"/>
</svg>
