<svg width="23" height="18" viewBox="0 0 26 20" fill="none" xmlns="http://www.w3.org/2000/svg">
<g clip-path="url(#clip0)">
<path d="M4.66018 14.4072L4.66023 14.4072L4.66023 14.4001C4.66025 14.3603 4.67213 14.3214 4.69437 14.2884C4.71661 14.2554 4.74819 14.2298 4.78507 14.2149C4.82195 14.1999 4.86245 14.1963 4.9014 14.2045C4.94034 14.2127 4.97596 14.2323 5.00369 14.2608C5.03142 14.2894 5.05 14.3256 5.05706 14.3647C5.06412 14.4039 5.05933 14.4443 5.04331 14.4807C5.0273 14.5171 5.00078 14.5479 4.96714 14.5692C4.93351 14.5905 4.8943 14.6013 4.85452 14.6001L4.84023 15.0999L4.84742 14.6C4.82247 14.5996 4.79783 14.5943 4.77492 14.5845C4.75201 14.5746 4.73126 14.5603 4.71387 14.5424C4.69649 14.5245 4.68279 14.5033 4.67358 14.4801C4.66437 14.4569 4.65981 14.4322 4.66018 14.4072Z" fill="#04045A" stroke="#04045A"/>
<path d="M4.98156 10.3414C4.94405 10.3789 4.89318 10.4 4.84014 10.4C4.78709 10.4 4.73622 10.3789 4.69872 10.3414C4.66121 10.3039 4.64014 10.253 4.64014 10.2C4.64014 10.147 4.66121 10.0961 4.69872 10.0586C4.73622 10.0211 4.78709 10 4.84014 10C4.89318 10 4.94405 10.0211 4.98156 10.0586C5.01907 10.0961 5.04014 10.147 5.04014 10.2C5.04014 10.253 5.01907 10.3039 4.98156 10.3414Z" fill="#04045A" stroke="#04045A"/>
<path d="M4.65975 6.01432L4.6598 6.01432L4.65991 6.00712C4.66049 5.96745 4.67286 5.92885 4.69544 5.89623C4.71802 5.86361 4.74979 5.83844 4.78671 5.82393C4.82363 5.80941 4.86404 5.8062 4.90279 5.81472C4.94154 5.82323 4.97688 5.84307 5.00432 5.87172C5.03177 5.90037 5.05007 5.93654 5.0569 5.97562C5.06373 6.0147 5.05878 6.05493 5.04269 6.09119C5.02659 6.12746 5.00008 6.15811 4.96651 6.17926C4.93295 6.20042 4.89385 6.21111 4.85419 6.20998L4.83996 6.70978L4.84699 6.20982C4.82181 6.20947 4.79694 6.20411 4.77384 6.19406C4.75074 6.184 4.72988 6.16946 4.71245 6.15126C4.69503 6.13307 4.68139 6.11159 4.67235 6.08808C4.6633 6.06457 4.65902 6.0395 4.65975 6.01432Z" fill="#04045A" stroke="#04045A"/>
<path d="M10.8612 14.2C10.8941 14.2585 10.911 14.3248 10.91 14.3922L10.9099 14.3994L10.91 14.4065C10.9108 14.4738 10.8955 14.5401 10.8656 14.6H7.21087C7.17597 14.5438 7.15814 14.4785 7.15977 14.4122L7.16007 14.3999L7.15977 14.3876C7.1581 14.3205 7.17825 14.2547 7.21717 14.2L7.21723 14.2H10.8612Z" fill="#04045A" stroke="#04045A"/>
<path d="M13.7102 6.70981C13.8001 6.70829 13.8889 6.68894 13.9713 6.65289C14.0536 6.61685 14.1281 6.56481 14.1902 6.49981C14.3221 6.36683 14.3961 6.18711 14.3961 5.99981C14.3961 5.81251 14.3221 5.63279 14.1902 5.49981C14.1276 5.43617 14.0528 5.38569 13.9704 5.35134C13.888 5.317 13.7995 5.29948 13.7102 5.29981H7.34021C7.25091 5.29948 7.16245 5.317 7.08002 5.35134C6.99759 5.38569 6.92286 5.43617 6.86021 5.49981C6.72831 5.63279 6.6543 5.81251 6.6543 5.99981C6.6543 6.18711 6.72831 6.36683 6.86021 6.49981C6.92236 6.56481 6.99678 6.61685 7.07918 6.65289C7.16157 6.68894 7.25029 6.70829 7.34021 6.70981M13.7102 6.70981V6.20981H13.7046M13.7102 6.70981H7.34021M13.7102 6.70981L13.7017 6.20988C13.7027 6.20986 13.7037 6.20984 13.7046 6.20981M13.7046 6.20981C13.7274 6.20906 13.7499 6.20397 13.7708 6.19482C13.7926 6.18527 13.8124 6.1715 13.8288 6.15429L13.8352 6.14764L13.8352 6.1477C13.8742 6.10836 13.8961 6.05521 13.8961 5.99981C13.8961 5.94441 13.8742 5.89126 13.8352 5.85192L13.8339 5.85055L13.8339 5.85055C13.818 5.8344 13.799 5.8216 13.7781 5.81288C13.7572 5.80417 13.7347 5.79972 13.7121 5.79981L13.7102 5.79981L7.34021 5.79981H7.33835V5.79981C7.31569 5.79972 7.29324 5.80417 7.27233 5.81288C7.25141 5.8216 7.23245 5.8344 7.21656 5.85055L7.2152 5.85192L7.2152 5.85192C7.17619 5.89125 7.1543 5.94441 7.1543 5.99981C7.1543 6.05521 7.17619 6.10836 7.2152 6.1477L7.22169 6.15423L7.22163 6.15429C7.23808 6.1715 7.25778 6.18527 7.27959 6.19482C7.30052 6.20397 7.32299 6.20906 7.34581 6.20981M13.7046 6.20981H7.34581M7.34581 6.20981H7.34021V6.70981M7.34581 6.20981C7.34677 6.20984 7.34772 6.20986 7.34868 6.20988L7.34021 6.70981" fill="#04045A" stroke="#04045A"/>
<path d="M7.20984 9.36987L7.2148 9.85716L14.1498 9.56987C14.1033 9.51016 14.0443 9.46132 13.9769 9.42678C13.9096 9.39223 13.8355 9.37281 13.7598 9.36987H7.20984ZM7.20984 9.36987V9.85012V9.85356L6.81984 9.56987C6.86486 9.50855 6.92354 9.45855 6.99123 9.42384C7.05892 9.38912 7.13377 9.37065 7.20984 9.36987ZM13.7344 10.2799H7.22718L7.22419 10.2758C7.18067 10.2159 7.15723 10.1439 7.15723 10.0699C7.15723 9.9983 7.17917 9.92851 7.22 9.86987H13.7436C13.7454 9.87023 13.7471 9.87084 13.7488 9.87168C13.7502 9.87242 13.7516 9.87332 13.7528 9.87438C13.7916 9.93207 13.8125 10.0001 13.8125 10.0699C13.8125 10.1418 13.7903 10.2119 13.7491 10.2707C13.7467 10.2734 13.7439 10.2756 13.7408 10.2773C13.7388 10.2784 13.7366 10.2793 13.7344 10.2799Z" fill="#04045A" stroke="#04045A"/>
<path d="M24.2539 4.80225L18.1046 14.9201C18.0977 14.9314 18.0866 14.9396 18.0737 14.9427C18.0608 14.9459 18.0472 14.9438 18.0359 14.9369L14.31 12.6724C14.2987 12.6655 14.2906 12.6544 14.2874 12.6415C14.2843 12.6287 14.2864 12.6151 14.2933 12.6037L20.4426 2.48586C20.4578 2.46093 20.4822 2.44304 20.5105 2.43613C20.5389 2.42921 20.5688 2.43384 20.5937 2.44899L24.217 4.65112C24.242 4.66627 24.2599 4.69071 24.2668 4.71905C24.2737 4.74739 24.2691 4.77732 24.2539 4.80225V4.80225Z" fill="#04045A" stroke="#04045A" stroke-width="0.18" stroke-miterlimit="10"/>
<path d="M25.2308 3.26032L24.6803 4.16614C24.672 4.17974 24.6587 4.1895 24.6432 4.19327C24.6278 4.19704 24.6114 4.19452 24.5978 4.18625L20.8891 1.93219C20.8755 1.92392 20.8657 1.91059 20.862 1.89513C20.8582 1.87967 20.8607 1.86335 20.869 1.84975L21.4195 0.943927C21.5738 0.69009 21.8226 0.507934 22.1112 0.437533C22.3997 0.367131 22.7045 0.414252 22.9583 0.568527L24.8554 1.72153C25.1092 1.8758 25.2914 2.12459 25.3618 2.41317C25.4322 2.70175 25.3851 3.00648 25.2308 3.26032V3.26032Z" fill="#04045A" stroke="#04045A" stroke-width="0.18" stroke-miterlimit="10"/>
<path d="M14.11 17.2098L14 13.2898H14.07L17.67 15.4798V15.5698L14.19 17.2898L14.11 17.2098Z" fill="#04045A" stroke="#04045A" stroke-width="0.18" stroke-miterlimit="10"/>
<path d="M19.5 15.177V18.578C19.4979 18.823 19.3992 19.0573 19.2253 19.2299C19.0511 19.4029 18.8155 19.5 18.57 19.5H2.71C2.12387 19.5 1.56175 19.2672 1.14729 18.8527C0.732838 18.4382 0.5 17.8761 0.5 17.29V2.71C0.5 2.12387 0.732839 1.56175 1.14729 1.14729C1.56175 0.732839 2.12387 0.5 2.71 0.5L17.28 0.5L17.2802 0.5C17.7231 0.499796 18.1557 0.632629 18.5222 0.881279C18.8223 1.08495 19.0667 1.35864 19.2351 1.67718L18.6779 2.59542C18.4971 2.26624 18.259 1.96848 17.9716 1.71746C17.3872 1.20691 16.6385 0.923823 15.8625 0.92H15.86H4.12C3.26805 0.919994 2.45082 1.25762 1.84729 1.85893C1.24377 2.46024 0.903136 3.27622 0.9 4.12816V4.13V15.86C0.9 16.714 1.23925 17.533 1.84312 18.1369C2.44698 18.7408 3.266 19.08 4.12 19.08H15.86C16.2825 19.08 16.7009 18.9966 17.0912 18.8345C17.4814 18.6725 17.8358 18.435 18.134 18.1356C18.4322 17.8363 18.6684 17.481 18.8291 17.0902C18.9868 16.7063 19.0686 16.2956 19.07 15.8807L19.5 15.177Z" fill="#04045A" stroke="#04045A"/>
</g>
<defs>
<clipPath id="clip0">
<rect width="25.48" height="20" fill="white"/>
</clipPath>
</defs>
</svg>
