<?xml version="1.0" encoding="UTF-8"?>
<svg xmlns="http://www.w3.org/2000/svg" xmlns:xlink="http://www.w3.org/1999/xlink" width="19pt" height="19pt" viewBox="0 0 19 19" version="1.1">
<g id="surface1">
<path style=" stroke:none;fill-rule:nonzero;fill:rgb(100%,100%,100%);fill-opacity:1;" d="M 5.304688 2.242188 C 4.695312 2.289062 4.515625 2.316406 4.207031 2.367188 C 3.253906 2.523438 2.492188 2.785156 1.941406 3.152344 C 1.640625 3.34375 1.363281 3.644531 1.238281 3.894531 L 1.140625 4.089844 L 1.128906 8.179688 C 1.125 12.257812 1.125 12.273438 1.175781 12.425781 C 1.417969 13.140625 2.429688 13.738281 3.914062 14.035156 C 5.089844 14.269531 6.289062 14.285156 7.609375 14.097656 L 7.726562 14.082031 L 7.753906 14.222656 C 7.796875 14.460938 7.914062 14.660156 8.121094 14.886719 C 8.75 15.550781 10.0625 16.011719 11.722656 16.144531 C 12.203125 16.179688 13.328125 16.152344 13.785156 16.097656 C 14.527344 16.011719 15.171875 15.859375 15.703125 15.648438 C 16.667969 15.269531 17.222656 14.761719 17.316406 14.175781 C 17.332031 14.058594 17.335938 13.222656 17.335938 11.597656 L 17.332031 9.195312 L 17.265625 9.046875 C 16.949219 8.183594 15.621094 7.535156 13.738281 7.316406 C 13.257812 7.261719 12.261719 7.242188 11.757812 7.28125 C 11.367188 7.308594 10.847656 7.371094 10.753906 7.394531 C 10.710938 7.40625 10.710938 7.320312 10.710938 5.824219 C 10.710938 4.566406 10.703125 4.214844 10.671875 4.117188 C 10.550781 3.664062 10.125 3.234375 9.464844 2.914062 C 8.863281 2.617188 8.015625 2.398438 7.085938 2.285156 C 6.761719 2.253906 5.554688 2.21875 5.304688 2.242188 Z M 7.203125 2.746094 C 8.8125 2.96875 9.960938 3.519531 10.207031 4.179688 C 10.308594 4.433594 10.230469 4.707031 9.976562 4.972656 C 9.464844 5.519531 8.355469 5.917969 6.949219 6.070312 C 6.492188 6.121094 5.410156 6.125 4.964844 6.082031 C 3.671875 5.949219 2.679688 5.640625 2.050781 5.179688 C 1.296875 4.613281 1.394531 3.972656 2.335938 3.425781 C 2.875 3.109375 3.773438 2.847656 4.679688 2.742188 C 5.195312 2.683594 5.191406 2.683594 6.042969 2.691406 C 6.675781 2.699219 6.921875 2.707031 7.203125 2.746094 Z M 10.25 5.734375 C 10.238281 6.097656 10.203125 6.210938 10.050781 6.414062 C 9.160156 7.542969 5.859375 8.011719 3.449219 7.347656 C 2.507812 7.089844 1.816406 6.664062 1.609375 6.210938 C 1.542969 6.082031 1.539062 6.035156 1.53125 5.707031 C 1.523438 5.515625 1.527344 5.355469 1.539062 5.355469 C 1.546875 5.355469 1.613281 5.40625 1.683594 5.46875 C 2.125 5.863281 3.09375 6.234375 4.164062 6.417969 C 4.785156 6.527344 5.074219 6.542969 5.894531 6.542969 C 6.710938 6.542969 7.003906 6.523438 7.617188 6.417969 C 8.382812 6.292969 9.050781 6.082031 9.597656 5.796875 C 9.792969 5.691406 10.140625 5.457031 10.207031 5.371094 C 10.246094 5.320312 10.246094 5.324219 10.257812 5.375 C 10.257812 5.390625 10.257812 5.554688 10.25 5.734375 Z M 2.109375 7.289062 C 2.515625 7.515625 3.230469 7.761719 3.867188 7.894531 C 4.445312 8.011719 4.902344 8.058594 5.628906 8.074219 C 6.863281 8.101562 7.839844 7.976562 8.78125 7.664062 C 9.328125 7.480469 9.960938 7.15625 10.15625 6.941406 C 10.191406 6.90625 10.222656 6.878906 10.238281 6.878906 C 10.25 6.878906 10.257812 7.015625 10.257812 7.179688 L 10.257812 7.476562 L 10.15625 7.507812 C 9.875 7.574219 9.171875 7.820312 8.964844 7.914062 C 8.675781 8.054688 8.414062 8.222656 8.210938 8.402344 C 8.042969 8.542969 7.84375 8.804688 7.804688 8.925781 C 7.78125 9 7.761719 9.003906 7.558594 9.042969 C 7.03125 9.140625 6.675781 9.167969 5.917969 9.167969 C 5.117188 9.167969 4.789062 9.148438 4.191406 9.046875 C 2.863281 8.816406 1.867188 8.320312 1.589844 7.75 C 1.523438 7.613281 1.519531 7.578125 1.511719 7.230469 L 1.492188 6.855469 L 1.699219 7.011719 C 1.8125 7.101562 1.996094 7.230469 2.109375 7.289062 Z M 13.472656 7.734375 C 15.429688 7.925781 16.867188 8.640625 16.867188 9.417969 C 16.867188 10.121094 15.664062 10.796875 14 11.03125 C 13.007812 11.179688 11.792969 11.167969 10.847656 11.007812 C 9.238281 10.730469 8.097656 10.035156 8.164062 9.367188 C 8.246094 8.554688 9.859375 7.832031 11.882812 7.703125 C 12.265625 7.683594 13.09375 7.695312 13.472656 7.734375 Z M 2.171875 8.855469 C 2.914062 9.238281 3.890625 9.492188 5.019531 9.585938 C 5.683594 9.640625 6.90625 9.597656 7.589844 9.496094 L 7.703125 9.476562 L 7.703125 10.558594 L 7.578125 10.582031 C 7.316406 10.632812 6.847656 10.683594 6.367188 10.710938 C 5.667969 10.75 4.796875 10.703125 4.101562 10.574219 C 2.847656 10.34375 1.863281 9.832031 1.605469 9.28125 C 1.542969 9.15625 1.539062 9.109375 1.53125 8.773438 L 1.523438 8.402344 L 1.726562 8.566406 C 1.839844 8.65625 2.039062 8.78125 2.171875 8.855469 Z M 2.113281 10.371094 C 2.671875 10.6875 3.578125 10.953125 4.554688 11.082031 C 5.058594 11.148438 6.179688 11.179688 6.71875 11.136719 C 7.058594 11.105469 7.511719 11.054688 7.652344 11.023438 L 7.703125 11.007812 L 7.703125 12.101562 L 7.453125 12.144531 C 6.339844 12.320312 5.105469 12.304688 4.054688 12.109375 C 2.96875 11.90625 2.074219 11.484375 1.722656 11.015625 C 1.5625 10.800781 1.523438 10.667969 1.523438 10.277344 L 1.523438 9.957031 L 1.722656 10.109375 C 1.824219 10.191406 2.003906 10.308594 2.113281 10.371094 Z M 16.886719 10.808594 C 16.878906 11.097656 16.871094 11.132812 16.804688 11.261719 C 16.488281 11.863281 15.320312 12.394531 13.902344 12.582031 C 13.261719 12.667969 12.230469 12.691406 11.625 12.632812 C 10.445312 12.527344 9.429688 12.230469 8.804688 11.816406 C 8.574219 11.65625 8.324219 11.402344 8.246094 11.230469 C 8.191406 11.105469 8.179688 11.066406 8.179688 10.734375 L 8.179688 10.386719 L 8.390625 10.539062 C 8.644531 10.742188 8.894531 10.878906 9.257812 11.023438 C 10.953125 11.703125 13.550781 11.769531 15.402344 11.167969 C 15.941406 10.992188 16.496094 10.710938 16.757812 10.46875 L 16.878906 10.359375 L 16.886719 10.429688 C 16.886719 10.46875 16.886719 10.636719 16.886719 10.808594 Z M 1.914062 11.777344 C 2.582031 12.226562 3.742188 12.558594 5.019531 12.660156 C 5.714844 12.722656 7.019531 12.667969 7.589844 12.566406 L 7.703125 12.542969 L 7.703125 13.085938 C 7.703125 13.628906 7.703125 13.628906 7.652344 13.644531 C 7.546875 13.671875 7.070312 13.734375 6.804688 13.761719 C 5.554688 13.875 4.222656 13.75 3.199219 13.40625 C 2.554688 13.199219 2.117188 12.953125 1.820312 12.644531 C 1.578125 12.375 1.542969 12.296875 1.53125 11.847656 L 1.523438 11.472656 L 1.640625 11.578125 C 1.710938 11.632812 1.828125 11.722656 1.914062 11.777344 Z M 8.585938 12.226562 C 9.050781 12.527344 9.894531 12.828125 10.710938 12.972656 C 12.03125 13.210938 13.621094 13.167969 14.878906 12.859375 C 15.652344 12.667969 16.347656 12.355469 16.773438 12.003906 L 16.890625 11.90625 L 16.886719 12.277344 C 16.878906 12.628906 16.875 12.652344 16.804688 12.800781 C 16.464844 13.484375 15.078125 14.046875 13.34375 14.191406 C 12.832031 14.230469 11.707031 14.203125 11.21875 14.136719 C 9.9375 13.96875 8.917969 13.574219 8.449219 13.0625 C 8.222656 12.8125 8.199219 12.738281 8.191406 12.285156 L 8.175781 11.902344 L 8.292969 12.003906 C 8.355469 12.058594 8.488281 12.160156 8.585938 12.226562 Z M 16.839844 14.238281 C 16.726562 14.554688 16.371094 14.859375 15.847656 15.113281 C 15.183594 15.433594 14.421875 15.621094 13.40625 15.714844 C 13.035156 15.753906 12.003906 15.753906 11.625 15.714844 C 10.175781 15.582031 8.988281 15.160156 8.457031 14.597656 C 8.222656 14.347656 8.199219 14.269531 8.191406 13.828125 L 8.175781 13.457031 L 8.386719 13.621094 C 9.03125 14.105469 10.113281 14.457031 11.445312 14.605469 C 11.96875 14.660156 13.105469 14.660156 13.628906 14.605469 C 14.34375 14.523438 14.929688 14.398438 15.464844 14.222656 C 15.964844 14.050781 16.625 13.695312 16.816406 13.496094 L 16.878906 13.433594 L 16.886719 13.769531 C 16.886719 14.058594 16.886719 14.128906 16.839844 14.238281 Z M 16.839844 14.238281 "/>
<path style=" stroke:none;fill-rule:nonzero;fill:rgb(100%,100%,100%);fill-opacity:1;" d="M 6.464844 3.417969 C 6.230469 3.46875 6.011719 3.574219 5.863281 3.707031 C 5.695312 3.863281 5.65625 3.972656 5.65625 4.257812 L 5.65625 4.5 L 5.566406 4.574219 C 5.253906 4.828125 4.453125 4.828125 4.167969 4.578125 L 4.078125 4.496094 L 4.078125 3.578125 L 3.628906 3.578125 L 3.628906 4.078125 L 3.054688 4.078125 L 3.054688 4.5 L 3.625 4.5 L 3.652344 4.597656 C 3.722656 4.859375 4.035156 5.078125 4.445312 5.164062 C 4.664062 5.214844 5.089844 5.214844 5.320312 5.164062 C 5.570312 5.113281 5.828125 4.976562 5.96875 4.828125 C 6.09375 4.683594 6.128906 4.5625 6.128906 4.28125 C 6.128906 4.085938 6.128906 4.085938 6.214844 4.003906 C 6.394531 3.851562 6.824219 3.773438 7.171875 3.835938 C 7.402344 3.882812 7.515625 3.925781 7.625 4.019531 L 7.703125 4.085938 L 7.703125 5.007812 L 8.15625 5.007812 L 8.15625 4.5 L 8.730469 4.5 L 8.730469 4.078125 L 8.441406 4.078125 C 8.195312 4.078125 8.15625 4.074219 8.144531 4.035156 C 8.066406 3.800781 7.921875 3.644531 7.671875 3.527344 C 7.367188 3.382812 6.859375 3.339844 6.464844 3.417969 Z M 6.464844 3.417969 "/>
<path style=" stroke:none;fill-rule:nonzero;fill:rgb(100%,100%,100%);fill-opacity:1;" d="M 13.261719 8.40625 C 12.914062 8.453125 12.699219 8.550781 12.507812 8.722656 C 12.339844 8.886719 12.308594 8.957031 12.308594 9.238281 C 12.308594 9.515625 12.28125 9.570312 12.089844 9.667969 C 11.917969 9.753906 11.753906 9.785156 11.5 9.785156 C 11.160156 9.78125 10.804688 9.675781 10.730469 9.53125 C 10.71875 9.507812 10.710938 9.296875 10.710938 9.046875 L 10.710938 8.601562 L 10.285156 8.601562 L 10.285156 9.105469 L 9.683594 9.105469 L 9.683594 9.53125 L 10.273438 9.53125 L 10.304688 9.648438 C 10.359375 9.863281 10.640625 10.074219 11.007812 10.171875 C 11.234375 10.238281 11.785156 10.238281 12.007812 10.171875 C 12.25 10.109375 12.417969 10.023438 12.550781 9.902344 C 12.722656 9.75 12.761719 9.644531 12.761719 9.355469 C 12.761719 9.128906 12.761719 9.117188 12.832031 9.050781 C 13.109375 8.78125 13.917969 8.765625 14.253906 9.019531 L 14.335938 9.085938 L 14.335938 10.03125 L 14.789062 10.03125 L 14.789062 9.53125 L 15.359375 9.53125 L 15.359375 9.105469 L 14.800781 9.105469 L 14.75 8.972656 C 14.667969 8.734375 14.398438 8.542969 14.035156 8.445312 C 13.847656 8.402344 13.46875 8.378906 13.261719 8.40625 Z M 13.261719 8.40625 "/>
</g>
</svg>
