<svg width="25" height="25" viewBox="0 0 25 25" fill="none" xmlns="http://www.w3.org/2000/svg">
<path fill-rule="evenodd" clip-rule="evenodd" d="M22.4826 22.5392V20.2603H17.9686C21.1981 18.3763 23.3684 14.8755 23.3684 10.8675C23.3684 4.86525 18.5031 0 12.5014 0C6.49988 0 1.63438 4.86525 1.63438 10.8675C1.63438 14.8755 3.80463 18.3763 7.03438 20.2603H2.52113V22.5392H0.546875V25H24.4564V22.5392H22.4826ZM3.40438 10.8675C3.40438 5.84325 7.47763 1.77 12.5014 1.77C17.5256 1.77 21.5984 5.84325 21.5984 10.8675C21.5984 15.8915 17.5256 19.9645 12.5014 19.9645C7.47763 19.9645 3.40438 15.8913 3.40438 10.8675Z" fill="#F6F6FE"/>
<path fill-rule="evenodd" clip-rule="evenodd" d="M7.81212 13.0038C7.98462 13.211 8.16737 13.4515 8.55812 13.297C7.67187 11.5608 7.36562 9.75529 7.90012 7.87604C8.46087 5.90404 9.93137 4.80404 11.7514 4.01104C10.7096 3.36679 10.0401 3.38854 9.08912 4.08779C7.03287 5.60004 6.24112 7.64854 6.57312 10.1448C6.71437 11.2048 7.11962 12.1738 7.81212 13.0038Z" fill="#F6F6FE"/>
<path fill-rule="evenodd" clip-rule="evenodd" d="M13.1452 15.8753C13.3874 15.7778 13.6517 15.6751 13.6244 15.2826C11.6952 15.5718 9.89042 15.2848 8.27667 14.1818C6.58092 13.0226 6.00792 11.2798 5.83767 9.29883C4.95742 9.99433 4.71217 10.7108 5.02342 11.7303C5.74517 14.0936 7.31842 15.5513 9.72617 16.1013C10.8859 16.3656 12.0314 16.3221 13.1452 15.8753Z" fill="#F6F6FE"/>
<path fill-rule="evenodd" clip-rule="evenodd" d="M8.87317 7.11703C8.73642 7.34178 8.61142 7.57903 8.82817 7.89703C10.2292 6.49478 11.8514 5.63103 13.8244 5.56028C15.8767 5.48678 17.3704 6.54678 18.6627 8.00778C19.0369 6.72603 18.4769 5.90428 17.4284 5.26428C15.3217 3.97803 13.1972 3.98453 11.0442 5.10528C10.1419 5.57503 9.40542 6.24053 8.87317 7.11703Z" fill="#F6F6FE"/>
<path fill-rule="evenodd" clip-rule="evenodd" d="M14.8857 6.09382C14.6405 6.03132 14.365 6.08782 14.1035 6.08907C14.0898 6.15507 14.0765 6.22082 14.0625 6.28682C15.8307 7.14157 17.153 8.42382 17.8515 10.2633C18.582 12.1871 18.0355 13.9518 17.0525 15.6666C17.9145 15.5251 18.6805 15.3021 19.0085 14.4103C19.6873 12.5633 19.6625 10.7553 18.6377 9.03382C17.7702 7.57657 16.5632 6.52157 14.8857 6.09382Z" fill="#F6F6FE"/>
<path fill-rule="evenodd" clip-rule="evenodd" d="M17.1379 13.9912C17.4349 13.1604 17.6226 12.2997 17.4284 11.4107C17.3929 11.2489 17.2511 11.1102 17.1576 10.9609C17.1184 10.9747 17.0794 10.9882 17.0401 11.0019C16.7551 12.9404 15.9414 14.5959 14.3936 15.8159C12.7869 17.0822 10.9486 17.1144 9.04688 16.6922C9.47163 17.7667 10.0899 18.1962 11.1951 18.1897C13.9581 18.1729 16.2079 16.5952 17.1379 13.9912Z" fill="#F6F6FE"/>
</svg>
