<svg id="Layer_1" data-name="Layer 1" xmlns="http://www.w3.org/2000/svg" viewBox="0 0 52 52"><defs><style>.cls-1{fill:#f6f6fa;}.cls-2,.cls-3{fill:#f6f6fe;}.cls-3{stroke:#f6f6fe;stroke-miterlimit:10;stroke-width:0.5px;}</style></defs><path class="cls-1" d="M26,.91A25.09,25.09,0,1,0,51,26.09V26A25,25,0,0,0,26.09.91Zm0,47.27A22.18,22.18,0,1,1,48.09,25.91V26A22.13,22.13,0,0,1,26,48.18Z"/><path class="cls-2" d="M33.84,33.05h4.88a2,2,0,0,1,1.36.55,1.8,1.8,0,0,1,.09,2.54l-.09.09a2,2,0,0,1-1.36.55H11.79a2,2,0,0,1-1.36-.55,1.82,1.82,0,0,1-.06-2.57l.06-.06a2,2,0,0,1,1.36-.55h2.92a3.65,3.65,0,0,1-.48-4.36l9.62-16.14a3.82,3.82,0,0,1,2.34-1.74,3.94,3.94,0,0,1,2.91.38l10,5.59A3.75,3.75,0,0,1,40.89,19a3.64,3.64,0,0,1-.38,2.83L33.84,33.05Zm4.78-13.78L27.13,13.11,16.07,30.89l5.13,2.76h8.49Z"/><path class="cls-3" d="M26,31.65a1,1,0,0,1-.57-.19l-4.13-3.07a.88.88,0,0,1-.19-1.23l0,0A1,1,0,0,1,22.5,27l3.38,2.52,5.36-6.64a1,1,0,0,1,1.32-.16A.88.88,0,0,1,32.75,24l0,0-5.93,7.35A1,1,0,0,1,26,31.65Z"/></svg>