<svg width="50" height="58" viewBox="0 0 50 58" fill="none" xmlns="http://www.w3.org/2000/svg">
<path d="M48.4454 52.1005L37.2456 38.3624C36.3872 37.3096 34.8414 37.1561 33.7928 38.0197C32.7442 38.8833 32.59 40.4369 33.4483 41.4897L44.6482 55.2278C45.5065 56.2807 47.0524 56.4341 48.101 55.5706C49.1495 54.707 49.3038 53.1534 48.4454 52.1005Z" fill="#F6F6FE"/>
<path d="M49.3336 1.80219C49.1497 1.35922 48.7992 1.00726 48.3584 0.822448C48.1402 0.725414 47.9046 0.672651 47.6659 0.66748H42.5343C42.0511 0.66748 41.588 0.860458 41.2463 1.20386C41.0769 1.37388 40.9428 1.57564 40.8512 1.79796C40.7596 2.01992 40.7124 2.25799 40.7124 2.49847C40.7127 2.73895 40.7597 2.97692 40.8512 3.19924C40.9428 3.4212 41.0767 3.62332 41.2461 3.7931C41.5876 4.13639 42.0511 4.32925 42.5343 4.32925L43.4486 4.33585L39.4688 8.336C40.2309 9.28903 40.9168 10.3064 41.517 11.3787L45.8547 7.01853L45.8442 7.65616C45.843 7.89688 45.8898 8.13546 45.9807 8.3579C46.0721 8.58083 46.2065 8.78271 46.3756 8.95297C46.545 9.12323 46.7463 9.25802 46.9677 9.34988C47.189 9.44151 47.4264 9.48814 47.6659 9.48706C47.9056 9.48826 48.1429 9.44175 48.3642 9.34988C48.5858 9.25802 48.7869 9.12323 48.9563 8.95297C49.1255 8.78271 49.2598 8.58071 49.351 8.3579C49.4421 8.13546 49.4886 7.89688 49.4877 7.65616V2.49847C49.4824 2.25871 49.4299 2.02174 49.3336 1.80219Z" fill="#F6F6FE"/>
<path d="M39.4335 29.2446C39.422 29.2723 39.41 29.2998 39.3984 29.3273L39.4015 29.328C39.4128 29.3003 39.4225 29.2724 39.4335 29.2446Z" fill="#F6F6FE"/>
<path d="M36.9141 10.9043C37.0514 11.0837 37.1865 11.2653 37.3176 11.4496C37.1889 11.2628 37.0573 11.078 36.9222 10.896L36.9141 10.9043Z" fill="#F6F6FE"/>
<path d="M41.5175 11.3784C40.9172 10.3061 40.2315 9.28876 39.4693 8.33574C35.4044 3.25344 29.1691 0 22.1765 0C9.92887 0 0 9.97919 0 22.2895C0 24.3594 0.281856 26.3633 0.807274 28.265L3.82005 25.2369C3.6686 24.2767 3.58892 23.2924 3.58892 22.2894C3.58892 11.9714 11.9108 3.60708 22.1765 3.60708C24.4559 3.60708 26.6387 4.02022 28.6565 4.77449C31.9524 6.00695 34.8057 8.15203 36.9135 10.9042L36.9216 10.896C37.0567 11.078 37.1883 11.2629 37.317 11.4496C37.8985 12.2689 38.4155 13.1379 38.8612 14.0479C40.0793 16.534 40.7643 19.3311 40.7643 22.2895C40.7643 24.7478 40.2909 27.0949 39.4324 29.2446C39.4219 29.2723 39.4126 29.3003 39.4018 29.3279L39.3988 29.3272C36.6333 36.1567 29.9651 40.9717 22.1764 40.9717C15.7131 40.9717 10.0213 37.6555 6.69082 32.6242L18.5688 20.6857L22.3078 26.5947C22.3078 26.5947 23.0295 27.8694 24.2408 27.8394C24.8235 27.8251 25.3513 27.6038 25.7361 27.2227L36.1078 16.8155C35.6615 15.619 35.0792 14.4936 34.3785 13.4521L24.5169 23.3639C24.5169 23.3639 20.5723 17.1351 20.4868 17.026C20.0965 16.5274 19.4925 16.2062 18.8124 16.2062C18.3054 16.2062 17.8402 16.3848 17.4742 16.6822C17.357 16.7775 2.21856 32.0177 2.21856 32.0177C2.76132 33.1405 3.39476 34.2106 4.10991 35.2184C8.13094 40.8844 14.7243 44.5791 22.1764 44.5791C34.4243 44.5791 44.3532 34.5999 44.3532 22.2896C44.3533 18.3254 43.3225 14.6037 41.5175 11.3784Z" fill="#F6F6FE"/>
</svg>
