<svg width="24" height="22" viewBox="0 0 24 22" fill="none" xmlns="http://www.w3.org/2000/svg">
<path d="M14.3564 18.718H9.62653C9.38313 18.718 9.18597 18.5215 9.18461 18.2781C9.17442 16.2175 10.9727 15.163 11.9823 15.1521C11.9877 15.1521 11.9931 15.1521 11.9986 15.1521C12.5839 15.1521 13.3121 15.4988 13.8587 16.0393C14.2877 16.4636 14.7983 17.1958 14.7983 18.2761C14.7983 18.393 14.752 18.5059 14.6691 18.5888C14.5862 18.6711 14.4733 18.718 14.3564 18.718ZM10.1052 17.8342H13.8723C13.7669 17.2957 13.4827 16.9116 13.2366 16.6675C12.8158 16.2514 12.297 16.0352 11.9986 16.0352C11.9965 16.0352 11.9945 16.0352 11.9918 16.0352C11.4962 16.0414 10.3275 16.5887 10.1052 17.8342Z" fill="#04045A"/>
<path d="M12.0126 15.0123C12.0038 15.0123 11.995 15.0123 11.9868 15.0123C11.071 15.0021 9.60931 14.4779 8.25298 13.0352C6.78991 11.4797 5.10384 8.49233 5.37578 3.09282C5.38734 2.85758 5.58178 2.67334 5.81702 2.67334H18.1661C18.4014 2.67334 18.5958 2.85758 18.6073 3.09282C18.725 5.42272 18.4809 7.51536 17.8833 9.31225C17.3761 10.8372 16.6289 12.1201 15.6628 13.1249C14.3242 14.518 12.9053 15.0123 12.0126 15.0123ZM6.5 4C7 9 7.69194 10.6097 9 12C10.168 13.2414 11.3004 13.4918 12 13.5C12.6731 13.5054 13.8422 13.2047 15 12C16.0959 10.8599 17.5 9 17.5 4H12.0126H6.5Z" fill="#04045A"/>
<path d="M22.546 4.08802C22.4637 3.96836 22.3277 3.89697 22.1822 3.89697H19.1779C19.182 4.19543 19.1861 4.87774 19.1779 5.16804H21.5C21 6 20.5 7 20 7.5C19.5 8 19.2009 7.92959 18.5 8.5C18.4592 8.63733 18.4443 9.34952 18.4001 9.48345C18.2893 9.81659 18.1669 10.1388 18.0337 10.4502C19.2411 9.8601 20.5159 8.44121 21.0645 7.59342C21.9096 6.28807 22.5677 4.568 22.5956 4.49594C22.6466 4.35996 22.6282 4.20767 22.546 4.08802Z" fill="#04045A"/>
<path d="M1.38762 4.09095C1.46989 3.97129 1.60586 3.8999 1.75135 3.8999H4.75569C4.75161 4.19836 4.74753 4.88067 4.75569 5.17097H2.43359C2.93359 6.00293 3.43359 7.00293 3.93359 7.50293C4.43359 8.00293 4.73265 7.93252 5.43359 8.50293C5.47439 8.64026 5.48926 9.35245 5.53345 9.48638C5.64427 9.81952 5.76665 10.1418 5.8999 10.4532C4.69246 9.86303 3.41771 8.44414 2.86905 7.59635C2.02398 6.291 1.36587 4.57093 1.33799 4.49887C1.287 4.36289 1.30536 4.2106 1.38762 4.09095Z" fill="#04045A"/>
</svg>
