<svg width="271" height="272" viewBox="0 0 271 272" fill="none" xmlns="http://www.w3.org/2000/svg">
<path d="M135.5 0C60.6653 0 0 60.8891 0 136C0 211.111 60.6653 272 135.5 272C210.335 272 271 211.111 271 136C271 60.8891 210.335 0 135.5 0ZM135.522 256.193C69.3981 256.193 15.7938 202.391 15.7938 136.023C15.7938 69.6558 69.3981 15.8537 135.522 15.8537C201.647 15.8537 255.249 69.6558 255.249 136.023C255.249 202.391 201.647 256.193 135.522 256.193Z" fill="#04045A"/>
<path d="M226.558 116.664C231.861 111.431 228.874 102.39 221.498 101.346L172.771 94.4498C169.835 94.0343 167.292 92.1993 165.973 89.5438L144.033 45.3952C140.708 38.7043 131.149 38.7444 127.88 45.463L106.312 89.7956C105.015 92.4617 102.488 94.3179 99.5555 94.7583L50.8851 102.069C43.5183 103.175 40.6084 112.241 45.9551 117.428L81.3808 151.797C83.5012 153.854 84.477 156.821 83.9917 159.735L75.8735 208.476C74.6473 215.838 82.3988 221.407 88.9848 217.897L132.384 194.762C135.007 193.364 138.15 193.351 140.784 194.726L184.376 217.492C190.991 220.947 198.695 215.312 197.407 207.961L188.878 159.289C188.368 156.379 189.319 153.404 191.422 151.329L226.558 116.664ZM140.927 180.27C138.293 178.894 135.149 178.907 132.527 180.305L106.711 194.067C100.125 197.578 92.3738 192.008 93.6001 184.646L98.4358 155.615C98.9212 152.701 97.9454 149.734 95.8249 147.677L74.7136 127.196C69.3668 122.008 72.2767 112.942 79.6436 111.836L108.624 107.483C111.556 107.043 114.083 105.186 115.381 102.52L128.214 76.1426C131.483 69.4241 141.041 69.3839 144.367 76.0748L157.42 102.342C158.74 104.997 161.283 106.832 164.218 107.248L193.232 111.355C200.609 112.399 203.595 121.441 198.292 126.673L177.354 147.33C175.25 149.405 174.299 152.381 174.809 155.291L179.89 184.281C181.178 191.632 173.474 197.267 166.859 193.812L140.927 180.27Z" fill="#04045A"/>
</svg>
