<svg width="20" height="22" viewBox="0 0 22 22" fill="none" xmlns="http://www.w3.org/2000/svg">
<path fill-rule="evenodd" clip-rule="evenodd" d="M15.2853 1H18.5519C19.9035 1 20.9998 2.1059 20.9998 3.47018V6.7641C20.9998 8.12735 19.9035 9.23429 18.5519 9.23429H15.2853C13.9328 9.23429 12.8364 8.12735 12.8364 6.7641V3.47018C12.8364 2.1059 13.9328 1 15.2853 1Z" stroke="#04045A" stroke-width="1.5" stroke-linecap="round" stroke-linejoin="round"/>
<path fill-rule="evenodd" clip-rule="evenodd" d="M3.44892 1H6.71449C8.06703 1 9.16341 2.1059 9.16341 3.47018V6.7641C9.16341 8.12735 8.06703 9.23429 6.71449 9.23429H3.44892C2.09638 9.23429 1 8.12735 1 6.7641V3.47018C1 2.1059 2.09638 1 3.44892 1Z" stroke="#04045A" stroke-width="1.5" stroke-linecap="round" stroke-linejoin="round"/>
<path fill-rule="evenodd" clip-rule="evenodd" d="M3.44892 12.7656H6.71449C8.06703 12.7656 9.16341 13.8715 9.16341 15.2368V18.5297C9.16341 19.894 8.06703 20.9999 6.71449 20.9999H3.44892C2.09638 20.9999 1 19.894 1 18.5297V15.2368C1 13.8715 2.09638 12.7656 3.44892 12.7656Z" stroke="#04045A" stroke-width="1.5" stroke-linecap="round" stroke-linejoin="round"/>
<path fill-rule="evenodd" clip-rule="evenodd" d="M15.2853 12.7656H18.5519C19.9035 12.7656 20.9998 13.8715 20.9998 15.2368V18.5297C20.9998 19.894 19.9035 20.9999 18.5519 20.9999H15.2853C13.9328 20.9999 12.8364 19.894 12.8364 18.5297V15.2368C12.8364 13.8715 13.9328 12.7656 15.2853 12.7656Z" stroke="#04045A" stroke-width="1.5" stroke-linecap="round" stroke-linejoin="round"/>
</svg>
