<svg width="24" height="24" viewBox="0 0 24 24" fill="none" xmlns="http://www.w3.org/2000/svg">
<path d="M5.33336 13.6667C7.17432 13.6667 8.66672 12.1743 8.66672 10.3334C8.66672 8.4924 7.17432 7 5.33336 7C3.4924 7 2 8.4924 2 10.3334C2 12.1743 3.4924 13.6667 5.33336 13.6667Z" stroke="#04045A" stroke-width="1.2" stroke-linecap="round" stroke-linejoin="round"/>
<path d="M18.6669 13.6667C20.5078 13.6667 22.0002 12.1743 22.0002 10.3334C22.0002 8.4924 20.5078 7 18.6669 7C16.8259 7 15.3335 8.4924 15.3335 10.3334C15.3335 12.1743 16.8259 13.6667 18.6669 13.6667Z" stroke="#04045A" stroke-width="1.2" stroke-linecap="round" stroke-linejoin="round"/>
<path d="M11.9999 13.6667C13.8408 13.6667 15.3332 12.1743 15.3332 10.3334C15.3332 8.4924 13.8408 7 11.9999 7C10.1589 7 8.6665 8.4924 8.6665 10.3334C8.6665 12.1743 10.1589 13.6667 11.9999 13.6667Z" stroke="#04045A" stroke-width="1.2" stroke-linecap="round" stroke-linejoin="round"/>
<path d="M9.33336 17.6667C11.1743 17.6667 12.6667 16.1743 12.6667 14.3334C12.6667 12.4924 11.1743 11 9.33336 11C7.4924 11 6 12.4924 6 14.3334C6 16.1743 7.4924 17.6667 9.33336 17.6667Z" stroke="#04045A" stroke-width="1.2" stroke-linecap="round" stroke-linejoin="round"/>
<path d="M14.3334 17.6667C16.1743 17.6667 17.6667 16.1743 17.6667 14.3334C17.6667 12.4924 16.1743 11 14.3334 11C12.4924 11 11 12.4924 11 14.3334C11 16.1743 12.4924 17.6667 14.3334 17.6667Z" stroke="#04045A" stroke-width="1.2" stroke-linecap="round" stroke-linejoin="round"/>
</svg>
