<svg width="25" height="25" viewBox="0 0 25 25" fill="none" xmlns="http://www.w3.org/2000/svg">
<path fill-rule="evenodd" clip-rule="evenodd" d="M12.595 0.000353178C12.6221 0.000554911 12.6492 0.000842965 12.6762 0.00121708V0.00420184C13.4724 0.0628143 14.1001 0.727331 14.1001 1.53846C14.1001 2.34959 13.4724 3.01411 12.6762 3.07272V3.07783C12.6481 3.07731 12.62 3.07691 12.5919 3.07663C12.5818 3.07683 12.5718 3.07692 12.5617 3.07692C12.5456 3.07692 12.5295 3.07668 12.5135 3.07618C12.5083 3.07618 12.503 3.07617 12.4977 3.07617C7.2935 3.07617 3.07465 7.29503 3.07465 12.4993C3.07465 17.7035 7.2935 21.9223 12.4977 21.9223C17.6974 21.9223 21.9135 17.7108 21.9208 12.5128C21.9196 12.488 21.919 12.463 21.919 12.4378C21.919 11.5881 22.6078 10.8994 23.4575 10.8994C24.3071 10.8994 24.9959 11.5881 24.9959 12.4378C24.9959 12.4594 24.9955 12.4808 24.9946 12.5022H25C24.9988 19.4047 19.4028 25 12.5 25C5.59644 25 0 19.4036 0 12.5C0 5.59644 5.59644 0 12.5 0C12.5152 0 12.5304 2.72164e-05 12.5457 8.16032e-05C12.551 2.72448e-05 12.5563 0 12.5617 0C12.5728 0 12.5839 0.000118122 12.595 0.000353178ZM16.9196 3.20433C17.7692 3.20433 18.458 2.51554 18.458 1.66587C18.458 0.816204 17.7692 0.127411 16.9196 0.127411C16.0699 0.127411 15.3811 0.816204 15.3811 1.66587C15.3811 2.51554 16.0699 3.20433 16.9196 3.20433ZM24.9977 7.94715C24.9977 8.79682 24.3089 9.48561 23.4592 9.48561C22.6096 9.48561 21.9208 8.79682 21.9208 7.94715C21.9208 7.09748 22.6096 6.40869 23.4592 6.40869C24.3089 6.40869 24.9977 7.09748 24.9977 7.94715ZM21.2775 5.25512C22.1272 5.25512 22.8159 4.56632 22.8159 3.71665C22.8159 2.86698 22.1272 2.17819 21.2775 2.17819C20.4278 2.17819 19.739 2.86698 19.739 3.71665C19.739 4.56632 20.4278 5.25512 21.2775 5.25512Z" fill="white"/>
</svg>
