<?xml version="1.0" encoding="utf-8"?>
<!-- Generator: Adobe Illustrator 16.0.0, SVG Export Plug-In . SVG Version: 6.00 game 0)  -->
<!DOCTYPE svg PUBLIC "-//W3C//DTD SVG 1.1//EN" "http://www.w3.org/Graphics/SVG/1.1/DTD/svg11.dtd">
<svg version="1.1" id="Layer_1" xmlns="http://www.w3.org/2000/svg" xmlns:xlink="http://www.w3.org/1999/xlink" x="0px" y="0px"
	 width="20px" height="22px" viewBox="0 0 20 22" enable-background="new 0 0 20 22" xml:space="preserve">
<path fill="#04045A" d="M18.667,1.948c-5.767,0-11.532,0-17.298,0c-0.58,0-0.784,0.2-0.784,0.773c0,5.521,0,11.042,0,16.563
	c0,0.007,0,0.015,0,0.021c0,0.534,0.212,0.747,0.748,0.747c1.983,0,3.967,0,5.951,0c0.818,0,1.635,0,2.453,0h0.483
	c0.939,0,1.88,0,2.82,0c1.863,0,3.727,0,5.59,0c0.579,0,0.783-0.2,0.783-0.769c0-3.049,0-6.098,0-9.146c0-2.481,0-4.962,0-7.443
	C19.414,2.161,19.202,1.948,18.667,1.948z M10.805,3.544c2.479,0.343,4.409,1.555,5.649,3.755c1.206,2.14,1.251,4.366,0.338,6.617
	c-0.021,0.005-0.042,0.009-0.063,0.013c-1.989-3.446-3.979-6.893-5.967-10.34C10.776,3.575,10.791,3.559,10.805,3.544z
	 M15.205,14.402c-3.434,0-6.828,0-10.254,0c1.709-2.962,3.405-5.901,5.126-8.885C11.793,8.489,13.49,11.43,15.205,14.402z
	 M3.344,14.074c-0.022-0.002-0.045-0.004-0.067-0.007c-0.979-2.27-0.95-4.519,0.235-6.714c1.322-2.45,3.81-3.7,5.902-3.799
	C7.384,7.074,5.364,10.574,3.344,14.074z M2.165,3.53c0.898,0,1.801,0,2.755,0C3.77,4.343,2.87,5.326,2.165,6.563
	C2.165,5.519,2.165,4.532,2.165,3.53z M2.155,18.473c0-1.001,0-1.98,0-2.961c0.717,1.162,1.611,2.149,2.77,2.961
	C3.968,18.473,3.07,18.473,2.155,18.473z M4.624,15.996c3.586,0,7.161,0,10.761,0C12.516,19.146,7.395,19.078,4.624,15.996z
	 M17.836,18.47c-0.898,0-1.803,0-2.756,0c1.15-0.812,2.051-1.796,2.756-3.032C17.836,16.482,17.836,17.469,17.836,18.47z
	 M17.844,6.488c-0.717-1.161-1.609-2.149-2.77-2.959c0.957,0,1.855,0,2.77,0C17.844,4.529,17.844,5.509,17.844,6.488z"/>
</svg>
