<?xml version="1.0" encoding="utf-8"?>
<!-- Generator: Adobe Illustrator 16.0.0, SVG Export Plug-In . SVG Version: 6.00 Build 0)  -->
<!DOCTYPE svg PUBLIC "-//W3C//DTD SVG 1.1//EN" "http://www.w3.org/Graphics/SVG/1.1/DTD/svg11.dtd">
<svg version="1.1" id="Layer_1" xmlns="http://www.w3.org/2000/svg" xmlns:xlink="http://www.w3.org/1999/xlink" x="0px" y="0px"
	 width="20px" height="20px" viewBox="0 0 20 20" enable-background="new 0 0 20 20" xml:space="preserve">
<path fill="#F6F6FE" d="M18.667,0.948c-5.767,0-11.532,0-17.298,0c-0.58,0-0.784,0.2-0.784,0.773c0,5.521,0,11.043,0,16.563
	c0,0.008,0,0.016,0,0.021c0,0.535,0.212,0.748,0.748,0.748c1.983,0,3.968,0,5.951,0c0.817,0,1.636,0,2.453,0h0.483
	c0.939,0,1.88,0,2.82,0c1.863,0,3.727,0,5.59,0c0.579,0,0.783-0.201,0.783-0.77c0-3.049,0-6.098,0-9.146c0-2.481,0-4.962,0-7.443
	C19.414,1.16,19.202,0.948,18.667,0.948z M10.805,2.544c2.479,0.343,4.409,1.555,5.649,3.755c1.206,2.14,1.251,4.367,0.338,6.617
	c-0.021,0.006-0.042,0.01-0.063,0.014c-1.989-3.447-3.979-6.894-5.967-10.341C10.776,2.574,10.791,2.559,10.805,2.544z
	 M15.205,13.402c-3.434,0-6.828,0-10.254,0C6.66,10.439,8.355,7.5,10.078,4.517C11.793,7.488,13.49,10.429,15.205,13.402z
	 M3.344,13.074c-0.021-0.002-0.045-0.004-0.066-0.008c-0.979-2.27-0.95-4.519,0.234-6.713c1.322-2.45,3.811-3.7,5.902-3.799
	C7.384,6.073,5.364,9.574,3.344,13.074z M2.165,2.53c0.898,0,1.801,0,2.755,0C3.77,3.342,2.869,4.326,2.165,5.563
	C2.165,4.519,2.165,3.531,2.165,2.53z M2.155,17.473c0-1.002,0-1.98,0-2.961c0.718,1.162,1.61,2.148,2.77,2.961
	C3.969,17.473,3.07,17.473,2.155,17.473z M4.624,14.996c3.587,0,7.161,0,10.761,0C12.516,18.146,7.395,18.078,4.624,14.996z
	 M17.836,17.469c-0.898,0-1.803,0-2.756,0c1.15-0.811,2.051-1.795,2.756-3.031C17.836,15.482,17.836,16.469,17.836,17.469z
	 M17.844,5.488c-0.717-1.161-1.609-2.149-2.77-2.959c0.957,0,1.855,0,2.77,0C17.844,3.528,17.844,4.508,17.844,5.488z"/>
</svg>
