<svg width="56" height="51" viewBox="0 0 56 51" fill="none" xmlns="http://www.w3.org/2000/svg">
<path d="M6.24343 25.5044C6.24343 13.0605 16.1208 2.97257 28.3049 2.97257C34.369 2.97257 39.861 5.47187 43.849 9.51626H47.7539C43.1773 3.71369 36.1643 0 28.301 0C14.5116 0 3.33319 11.4167 3.33319 25.5C3.33319 26.4014 3.37966 27.2917 3.46902 28.169H6.39768C6.29682 27.2949 6.24343 26.4061 6.24343 25.5044Z" fill="#04045A"/>
<path d="M50.3664 25.5044C50.3664 37.9484 40.4894 48.0361 28.3049 48.0361C22.0909 48.0361 16.4779 45.4112 12.4681 41.1889H8.61761C13.1872 47.1606 20.3048 51 28.3009 51C42.0903 51 53.2687 39.5833 53.2687 25.5C53.2687 24.4973 53.2101 23.5087 53.1 22.5361H50.1756C50.3008 23.5075 50.3664 24.498 50.3664 25.5044Z" fill="#04045A"/>
<path d="M30.8338 28.1415L30.7649 28.2118C30.2484 28.9504 30.3867 29.9354 31.1101 30.4635L34.9007 33.3498L15.8171 33.342C14.9213 33.3416 14.1981 34.08 14.1987 34.9949C14.1989 35.9095 14.9227 36.6487 15.8183 36.649L35.6254 36.6223L31.1485 40.1384C30.4598 40.7011 30.3226 41.6861 30.874 42.4604C31.4253 43.1642 32.4242 43.2701 33.0785 42.7426L40.5857 36.7649C41.6189 35.9212 41.6183 34.3029 40.5157 33.458L33.0383 27.7903C32.3492 27.2274 31.3501 27.4029 30.8338 28.1415ZM24.7347 23.5302C24.184 24.2336 23.1851 24.3387 22.5302 23.8108L14.9495 17.8267C13.9156 16.9818 13.9154 15.3635 15.0173 14.5196L22.4555 8.8936C23.1787 8.3663 24.1431 8.50726 24.6602 9.24615L24.6947 9.28137C25.212 10.0206 25.0742 11.0056 24.3512 11.5331L20.3221 14.592L39.7504 14.6001C40.646 14.6006 41.3697 15.3397 41.3699 16.2543C41.3703 17.1691 40.6471 17.9077 39.7514 17.9073L20.1855 17.8991L24.4239 21.2432C25.1475 21.7712 25.2858 22.8269 24.7347 23.5302Z" fill="#04045A"/>
<path d="M54.4798 14.6052H45.3251C44.4712 14.6052 43.7596 15.3312 43.7596 16.2026C43.7596 17.0737 44.4712 17.7996 45.3251 17.7996H54.4322C55.2862 17.7996 55.9978 17.0737 55.9978 16.2026C56.045 15.3311 55.3335 14.6052 54.4798 14.6052Z" fill="#04045A"/>
<path d="M10.72 33.2917H1.56543C0.711475 33.2917 0 34.0177 0 34.8891C0 35.7602 0.711475 36.4861 1.56543 36.4861H10.6726C11.5266 36.4861 12.2382 35.7602 12.2382 34.8891C12.2854 34.0176 11.5739 33.2917 10.72 33.2917Z" fill="#04045A"/>
</svg>
