<svg width="22" height="22" viewBox="0 0 32 32" fill="none" xmlns="http://www.w3.org/2000/svg">
<path d="M16.0047 28.9437C8.86548 28.9437 3.05469 23.1347 3.05469 15.9937C3.05469 8.85268 8.86367 3.0437 16.0047 3.0437C23.1457 3.0437 28.9547 8.85449 28.9547 15.9955C28.9547 23.1366 23.1457 28.9437 16.0047 28.9437ZM16.0047 3.14311C8.91789 3.14311 3.15229 8.90871 3.15229 15.9955C3.15229 23.0823 8.91789 28.8479 16.0047 28.8479C23.0915 28.8479 28.8571 23.0823 28.8571 15.9955C28.8589 8.90871 23.0933 3.14311 16.0047 3.14311Z" fill="#F6F6FE"/>
<path d="M16.1196 28.1197L16.1087 27.1997H16.2063L16.2154 28.0221C22.7383 27.9082 28.0394 22.5186 28.0394 15.983C28.0394 9.34083 22.6407 3.93671 16.0039 3.93671C9.9491 3.93671 4.81608 8.45521 4.0624 14.4467L4.06059 14.4594L3.72622 14.8895L3.14062 14.8859V14.7883L3.67742 14.7919L3.9648 14.4196C4.73475 8.38834 9.90753 3.83911 16.0039 3.83911C22.6931 3.83911 28.1351 9.28661 28.1351 15.983C28.1351 19.1894 26.8917 22.2167 24.6324 24.5067C22.375 26.7949 19.3693 28.0781 16.1684 28.1197H16.1196Z" fill="#F6F6FE"/>
<path d="M16.5823 27.6766L16.1611 27.3133L16.2135 27.2302L16.6166 27.5772C22.7943 27.2573 27.6291 22.1731 27.6291 15.9936C27.6291 9.58456 22.4147 4.37021 16.0057 4.37021C10.128 4.37021 5.16672 8.76761 4.46545 14.5965L4.46364 14.6091L4.00456 15.2001L3.14062 15.1983V15.1007L3.95757 15.1025L4.37146 14.573C5.08358 8.70074 10.0828 4.27441 16.0057 4.27441C22.469 4.27441 27.7267 9.53214 27.7267 15.9954C27.7267 22.2327 22.8395 27.364 16.6021 27.6766H16.5823Z" fill="#F6F6FE"/>
<path d="M9.81361 14.5641L9.73047 14.5135L12.6277 9.7564C11.5921 10.3203 10.7065 11.1354 10.0612 12.1259L10.439 12.3446L10.3902 12.4277L9.92386 12.1584L9.95097 12.1151C10.6414 11.0415 11.6047 10.1685 12.738 9.58651L12.8898 9.50879L9.81361 14.5641Z" fill="#F6F6FE"/>
<path d="M3.26102 16.9931H2.98991L2.9375 16.9425V16.8557L2.98991 16.8032H3.26102L3.31344 16.8557V16.9425L3.26102 16.9931Z" fill="#F6F6FE"/>
<path d="M3.26298 16.6859H2.99187L2.93945 16.6335V16.5467L2.99187 16.4961H3.26298L3.31539 16.5467V16.6335L3.26298 16.6859Z" fill="#F6F6FE"/>
<path d="M3.2454 16.4036H2.97429L2.92188 16.3512V16.2663L2.97429 16.2139H3.2454L3.29781 16.2663V16.3512L3.2454 16.4036Z" fill="#F6F6FE"/>
<path d="M3.23578 16.1112H2.96467L2.91406 16.0588V15.9738L2.96467 15.9214H3.23578L3.28819 15.9738V16.0588L3.23578 16.1112Z" fill="#F6F6FE"/>
<path d="M3.25531 15.8327H2.9842L2.93359 15.7803V15.6935L2.9842 15.6411H3.25531L3.30773 15.6935V15.7803L3.25531 15.8327Z" fill="#F6F6FE"/>
<path d="M3.24931 15.533H2.9782L2.92578 15.4806V15.3939L2.9782 15.3433H3.24931L3.29991 15.3939V15.4806L3.24931 15.533Z" fill="#F6F6FE"/>
<path d="M3.26312 15.2435H2.99201L2.94141 15.1929V15.1061L2.99201 15.0537H3.26312L3.31554 15.1061V15.1929L3.26312 15.2435Z" fill="#F6F6FE"/>
<path d="M3.26312 14.931H2.99201L2.94141 14.8786V14.7936L2.99201 14.7412H3.26312L3.31554 14.7936V14.8786L3.26312 14.931Z" fill="#F6F6FE"/>
<path d="M24.1849 15.8003H23.9137L23.8613 15.7497V15.6629L23.9137 15.6123H24.1849L24.2355 15.6629V15.7497L24.1849 15.8003Z" fill="#F6F6FE"/>
<path d="M24.1849 15.4896H23.9137L23.8613 15.4372V15.3522L23.9137 15.2998H24.1849L24.2373 15.3522V15.4372L24.1849 15.4896Z" fill="#F6F6FE"/>
<path d="M24.1829 15.1784H23.9118L23.8594 15.126V15.0392L23.9118 14.9868H24.1829L24.2335 15.0392V15.126L24.1829 15.1784Z" fill="#F6F6FE"/>
<path d="M24.177 14.9163H23.9059L23.8535 14.8639V14.779L23.9059 14.7266H24.177L24.2295 14.779V14.8639L24.177 14.9163Z" fill="#F6F6FE"/>
<path d="M24.1751 14.6453H23.904L23.8516 14.5929V14.508L23.904 14.4556H24.1751L24.2257 14.508V14.5929L24.1751 14.6453Z" fill="#F6F6FE"/>
<path d="M24.1849 16.1077H23.9137L23.8613 16.0553V15.9704L23.9137 15.918H24.1849L24.2355 15.9704V16.0553L24.1849 16.1077Z" fill="#F6F6FE"/>
<path d="M24.1712 16.4022H23.9001L23.8477 16.3516V16.2648L23.9001 16.2124H24.1712L24.2218 16.2648V16.3516L24.1712 16.4022Z" fill="#F6F6FE"/>
<path d="M24.1655 16.7112H23.8944L23.8438 16.6606V16.5739L23.8944 16.5215H24.1655L24.2179 16.5739V16.6606L24.1655 16.7112Z" fill="#F6F6FE"/>
<path d="M21.3468 11.9975L21.0956 12.1005L21.0378 12.0951L21.0215 12.0535L21.0576 12.0083L21.3089 11.9053L21.3667 11.9107L21.3848 11.9523L21.3468 11.9975Z" fill="#F6F6FE"/>
<path d="M20.8096 11.0141L20.5583 11.1171L20.5005 11.1117L20.4824 11.0701L20.5204 11.0249L20.7716 10.9219L20.8294 10.9273L20.8475 10.9689L20.8096 11.0141Z" fill="#F6F6FE"/>
<path d="M6.50523 15.4027H5.84734L5.79492 15.3503V15.2653L5.84734 15.2129H6.50523L6.55764 15.2653V15.3503L6.50523 15.4027Z" fill="#F6F6FE"/>
<path d="M6.50523 15.7982H5.84734L5.79492 15.7458V15.6608L5.84734 15.6084H6.50523L6.55764 15.6608V15.7458L6.50523 15.7982Z" fill="#F6F6FE"/>
<path d="M6.50523 16.1942H5.84734L5.79492 16.1436V16.0568L5.84734 16.0044H6.50523L6.55764 16.0568V16.1436L6.50523 16.1942Z" fill="#F6F6FE"/>
<path d="M6.50523 16.5901H5.84734L5.79492 16.5395V16.4528L5.84734 16.4004H6.50523L6.55764 16.4528V16.5395L6.50523 16.5901Z" fill="#F6F6FE"/>
<path d="M2.9753 15.4729H1.5583L1.55469 15.4277H2.9735L2.9753 15.4729Z" fill="#F6F6FE"/>
<path d="M2.9753 15.762H1.5583L1.55469 15.7168H2.9735L2.9753 15.762Z" fill="#F6F6FE"/>
<path d="M2.9753 16.0334H1.5583L1.55469 15.9991L2.9735 15.9937L2.9753 16.0334Z" fill="#F6F6FE"/>
<path d="M2.94405 16.323H1.52705L1.52344 16.2868L2.94405 16.2832V16.323Z" fill="#F6F6FE"/>
<path d="M2.95383 16.6119H1.53682L1.5332 16.5739L2.95202 16.5703L2.95383 16.6119Z" fill="#F6F6FE"/>
<path d="M2.96359 16.919H1.54658L1.54297 16.8811L2.96359 16.8774V16.919Z" fill="#F6F6FE"/>
<path d="M3.02023 15.1659H1.60322L1.59961 15.1244L3.01842 15.1226L3.02023 15.1659Z" fill="#F6F6FE"/>
<path d="M2.99679 14.8585H1.57979L1.57617 14.8187L2.99679 14.8169V14.8585Z" fill="#F6F6FE"/>
<path d="M10.3168 12.453C10.3807 12.453 10.4325 12.4012 10.4325 12.3374C10.4325 12.2735 10.3807 12.2217 10.3168 12.2217C10.253 12.2217 10.2012 12.2735 10.2012 12.3374C10.2012 12.4012 10.253 12.453 10.3168 12.453Z" fill="#F6F6FE"/>
<path d="M20.7817 12.2919C20.8456 12.2919 20.8974 12.2401 20.8974 12.1762C20.8974 12.1123 20.8456 12.0605 20.7817 12.0605C20.7178 12.0605 20.666 12.1123 20.666 12.1762C20.666 12.2401 20.7178 12.2919 20.7817 12.2919Z" fill="#F6F6FE"/>
<path d="M9.78169 14.6742C9.84557 14.6742 9.89736 14.6224 9.89736 14.5585C9.89736 14.4947 9.84557 14.4429 9.78169 14.4429C9.7178 14.4429 9.66602 14.4947 9.66602 14.5585C9.66602 14.6224 9.7178 14.6742 9.78169 14.6742Z" fill="#F6F6FE"/>
<path d="M9.94115 16.5957C10.05 16.5957 10.1382 16.5075 10.1382 16.3987C10.1382 16.2899 10.05 16.2017 9.94115 16.2017C9.83234 16.2017 9.74414 16.2899 9.74414 16.3987C9.74414 16.5075 9.83234 16.5957 9.94115 16.5957Z" fill="#F6F6FE"/>
<path d="M10.281 18.3071C10.3898 18.3071 10.478 18.2189 10.478 18.1101C10.478 18.0013 10.3898 17.9131 10.281 17.9131C10.1722 17.9131 10.084 18.0013 10.084 18.1101C10.084 18.2189 10.1722 18.3071 10.281 18.3071Z" fill="#F6F6FE"/>
<path d="M11.0544 19.791C11.1632 19.791 11.2514 19.7028 11.2514 19.594C11.2514 19.4852 11.1632 19.397 11.0544 19.397C10.9456 19.397 10.8574 19.4852 10.8574 19.594C10.8574 19.7028 10.9456 19.791 11.0544 19.791Z" fill="#F6F6FE"/>
<path d="M12.2536 20.9912C12.3625 20.9912 12.4507 20.903 12.4507 20.7942C12.4507 20.6854 12.3625 20.5972 12.2536 20.5972C12.1448 20.5972 12.0566 20.6854 12.0566 20.7942C12.0566 20.903 12.1448 20.9912 12.2536 20.9912Z" fill="#F6F6FE"/>
<path d="M11.1776 11.8401C11.2185 11.8401 11.2517 11.8069 11.2517 11.766C11.2517 11.7251 11.2185 11.6919 11.1776 11.6919C11.1367 11.6919 11.1035 11.7251 11.1035 11.766C11.1035 11.8069 11.1367 11.8401 11.1776 11.8401Z" fill="#F6F6FE"/>
<path d="M11.2889 11.6555C11.3299 11.6555 11.3631 11.6224 11.3631 11.5814C11.3631 11.5405 11.3299 11.5073 11.2889 11.5073C11.248 11.5073 11.2148 11.5405 11.2148 11.5814C11.2148 11.6224 11.248 11.6555 11.2889 11.6555Z" fill="#F6F6FE"/>
<path d="M11.4003 11.4695C11.4412 11.4695 11.4744 11.4363 11.4744 11.3954C11.4744 11.3545 11.4412 11.3213 11.4003 11.3213C11.3593 11.3213 11.3262 11.3545 11.3262 11.3954C11.3262 11.4363 11.3593 11.4695 11.4003 11.4695Z" fill="#F6F6FE"/>
<path d="M11.5116 11.2835C11.5525 11.2835 11.5857 11.2503 11.5857 11.2094C11.5857 11.1684 11.5525 11.1353 11.5116 11.1353C11.4707 11.1353 11.4375 11.1684 11.4375 11.2094C11.4375 11.2503 11.4707 11.2835 11.5116 11.2835Z" fill="#F6F6FE"/>
<path d="M10.9921 11.7297C11.033 11.7297 11.0662 11.6966 11.0662 11.6556C11.0662 11.6147 11.033 11.5815 10.9921 11.5815C10.9511 11.5815 10.918 11.6147 10.918 11.6556C10.918 11.6966 10.9511 11.7297 10.9921 11.7297Z" fill="#F6F6FE"/>
<path d="M11.1034 11.5437C11.1443 11.5437 11.1775 11.5105 11.1775 11.4696C11.1775 11.4287 11.1443 11.3955 11.1034 11.3955C11.0625 11.3955 11.0293 11.4287 11.0293 11.4696C11.0293 11.5105 11.0625 11.5437 11.1034 11.5437Z" fill="#F6F6FE"/>
<path d="M11.2128 11.3577C11.2537 11.3577 11.2869 11.3245 11.2869 11.2836C11.2869 11.2426 11.2537 11.2095 11.2128 11.2095C11.1718 11.2095 11.1387 11.2426 11.1387 11.2836C11.1387 11.3245 11.1718 11.3577 11.2128 11.3577Z" fill="#F6F6FE"/>
<path d="M11.3261 11.1731C11.367 11.1731 11.4002 11.1399 11.4002 11.099C11.4002 11.0581 11.367 11.0249 11.3261 11.0249C11.2851 11.0249 11.252 11.0581 11.252 11.099C11.252 11.1399 11.2851 11.1731 11.3261 11.1731Z" fill="#F6F6FE"/>
<path d="M20.6874 11.3665C20.7283 11.3665 20.7615 11.3333 20.7615 11.2924C20.7615 11.2514 20.7283 11.2183 20.6874 11.2183C20.6465 11.2183 20.6133 11.2514 20.6133 11.2924C20.6133 11.3333 20.6465 11.3665 20.6874 11.3665Z" fill="#F6F6FE"/>
<path d="M20.8788 11.2654C20.9197 11.2654 20.9529 11.2322 20.9529 11.1913C20.9529 11.1504 20.9197 11.1172 20.8788 11.1172C20.8379 11.1172 20.8047 11.1504 20.8047 11.1913C20.8047 11.2322 20.8379 11.2654 20.8788 11.2654Z" fill="#F6F6FE"/>
<path d="M20.787 11.5589C20.8279 11.5589 20.8611 11.5257 20.8611 11.4847C20.8611 11.4438 20.8279 11.4106 20.787 11.4106C20.7461 11.4106 20.7129 11.4438 20.7129 11.4847C20.7129 11.5257 20.7461 11.5589 20.787 11.5589Z" fill="#F6F6FE"/>
<path d="M20.9784 11.4573C21.0193 11.4573 21.0525 11.4241 21.0525 11.3832C21.0525 11.3423 21.0193 11.3091 20.9784 11.3091C20.9375 11.3091 20.9043 11.3423 20.9043 11.3832C20.9043 11.4241 20.9375 11.4573 20.9784 11.4573Z" fill="#F6F6FE"/>
<path d="M20.8886 11.7498C20.9295 11.7498 20.9627 11.7166 20.9627 11.6757C20.9627 11.6347 20.9295 11.6016 20.8886 11.6016C20.8476 11.6016 20.8145 11.6347 20.8145 11.6757C20.8145 11.7166 20.8476 11.7498 20.8886 11.7498Z" fill="#F6F6FE"/>
<path d="M21.08 11.6487C21.1209 11.6487 21.1541 11.6155 21.1541 11.5746C21.1541 11.5337 21.1209 11.5005 21.08 11.5005C21.039 11.5005 21.0059 11.5337 21.0059 11.5746C21.0059 11.6155 21.039 11.6487 21.08 11.6487Z" fill="#F6F6FE"/>
<path d="M20.9901 11.9417C21.031 11.9417 21.0642 11.9085 21.0642 11.8676C21.0642 11.8266 21.031 11.7935 20.9901 11.7935C20.9492 11.7935 20.916 11.8266 20.916 11.8676C20.916 11.9085 20.9492 11.9417 20.9901 11.9417Z" fill="#F6F6FE"/>
<path d="M21.1815 11.8406C21.2225 11.8406 21.2556 11.8074 21.2556 11.7665C21.2556 11.7256 21.2225 11.6924 21.1815 11.6924C21.1406 11.6924 21.1074 11.7256 21.1074 11.7665C21.1074 11.8074 21.1406 11.8406 21.1815 11.8406Z" fill="#F6F6FE"/>
<path d="M22.1828 18.8964C22.2148 18.8964 22.2407 18.8705 22.2407 18.8386C22.2407 18.8067 22.2148 18.7808 22.1828 18.7808C22.1509 18.7808 22.125 18.8067 22.125 18.8386C22.125 18.8705 22.1509 18.8964 22.1828 18.8964Z" fill="#F6F6FE"/>
<path d="M22.3508 18.9072C22.3827 18.9072 22.4086 18.8813 22.4086 18.8493C22.4086 18.8174 22.3827 18.7915 22.3508 18.7915C22.3189 18.7915 22.293 18.8174 22.293 18.8493C22.293 18.8813 22.3189 18.9072 22.3508 18.9072Z" fill="#F6F6FE"/>
<path d="M22.1242 19.0336C22.1562 19.0336 22.1821 19.0077 22.1821 18.9758C22.1821 18.9439 22.1562 18.918 22.1242 18.918C22.0923 18.918 22.0664 18.9439 22.0664 18.9758C22.0664 19.0077 22.0923 19.0336 22.1242 19.0336Z" fill="#F6F6FE"/>
<path d="M22.2922 19.0444C22.3242 19.0444 22.35 19.0185 22.35 18.9865C22.35 18.9546 22.3242 18.9287 22.2922 18.9287C22.2603 18.9287 22.2344 18.9546 22.2344 18.9865C22.2344 19.0185 22.2603 19.0444 22.2922 19.0444Z" fill="#F6F6FE"/>
<path d="M16.0138 30.2433C15.6252 30.2433 15.233 30.227 14.839 30.1945C11.573 29.927 8.47516 28.5244 6.1165 26.2453C3.79038 23.9987 2.28301 21.0075 1.87092 17.8228L1.82031 17.4397L2.58846 17.3403L2.63906 17.7234C3.44878 23.9861 8.60529 28.9058 14.9023 29.4227C22.309 30.0282 28.8265 24.4994 29.4338 17.0945C30.041 9.68954 24.5104 3.17025 17.1055 2.56297C10.138 1.99002 3.96208 6.74529 2.73847 13.6206L2.66979 14.002L1.90707 13.8664L1.97575 13.4851C2.59388 10.0131 4.47719 6.90434 7.28227 4.73185C10.1054 2.54489 13.6154 1.50022 17.1687 1.79121C25.0002 2.43464 30.8489 9.32806 30.2055 17.1577C29.5946 24.5934 23.3464 30.2433 16.0138 30.2433Z" fill="#F6F6FE"/>
<path d="M16.004 29.3088H15.91C15.816 29.3088 15.7238 29.307 15.6317 29.3034L15.2449 29.2926L15.2666 28.519L15.6533 28.5298C15.7401 28.5316 15.8287 28.5335 15.9154 28.5335H16.004C16.2624 28.5335 16.5245 28.5262 16.7812 28.51L17.1679 28.4865L17.2149 29.26L16.8282 29.2835C16.5552 29.3016 16.2769 29.3088 16.004 29.3088ZM14.9232 29.2727L14.5382 29.2311C14.1424 29.1877 13.7447 29.1263 13.3561 29.0468L12.9766 28.9708L13.1302 28.2117L13.5098 28.2876C13.8767 28.3618 14.2508 28.4196 14.6231 28.4612L15.0081 28.5027L14.9232 29.2727ZM17.5348 29.2275L17.4246 28.4612L17.8078 28.4051C18.1783 28.3509 18.5506 28.2804 18.9139 28.1937L19.2898 28.1033L19.4688 28.857L19.0928 28.9473C18.706 29.0395 18.312 29.1154 17.918 29.1715L17.5348 29.2275ZM12.6639 28.8913L12.2916 28.7829C11.9102 28.6726 11.5289 28.5425 11.1583 28.3979L10.7969 28.2569L11.0788 27.5358L11.4403 27.6767C11.7891 27.8141 12.147 27.9352 12.5067 28.04L12.879 28.1485L12.6639 28.8913ZM19.7796 28.7702L19.5374 28.0346L19.9062 27.9135C20.2622 27.796 20.6165 27.6623 20.9581 27.5141L21.3141 27.3605L21.6214 28.0708L21.2653 28.2244C20.9002 28.3816 20.5243 28.5244 20.1483 28.6491L19.7796 28.7702ZM10.5023 28.1268L10.1552 27.9569C9.79918 27.7816 9.44673 27.5882 9.10694 27.3821L8.77619 27.1815L9.17924 26.52L9.50999 26.7206C9.8299 26.9158 10.1625 27.0966 10.4986 27.261L10.8457 27.4309L10.5023 28.1268ZM21.9106 27.9316L21.5455 27.2484L21.8871 27.0658C22.216 26.8887 22.5431 26.6971 22.8558 26.4911L23.1794 26.2796L23.6041 26.9267L23.2806 27.1381C22.948 27.3568 22.6028 27.5611 22.2522 27.749L21.9106 27.9316ZM8.50689 27.0008L8.19421 26.773C7.87249 26.5399 7.558 26.2887 7.25978 26.0284L6.96879 25.7736L7.47848 25.1898L7.76947 25.4446C8.05142 25.6904 8.34783 25.9272 8.65148 26.1477L8.96416 26.3754L8.50689 27.0008ZM23.8662 26.7387L23.3908 26.1278L23.6963 25.8892C23.9909 25.6597 24.2801 25.4139 24.553 25.1572L24.8367 24.8934L25.3645 25.4591L25.0807 25.7229C24.7897 25.9941 24.4843 26.2543 24.1716 26.4983L23.8662 26.7387ZM6.73202 25.5531L6.46272 25.2747C6.18619 24.9891 5.91869 24.6891 5.66746 24.3819L5.42346 24.0818L6.02352 23.5938L6.26752 23.8939C6.50429 24.1849 6.75552 24.4668 7.01578 24.7361L7.28508 25.0144L6.73202 25.5531ZM25.5922 25.2313L25.0193 24.7108L25.2795 24.4252C25.5308 24.1487 25.773 23.8559 25.9989 23.5595L26.232 23.2504L26.8502 23.7185L26.617 24.0276C26.3766 24.3439 26.12 24.653 25.8525 24.9476L25.5922 25.2313ZM5.23007 23.8234L5.01138 23.5035C4.78726 23.1745 4.57399 22.8329 4.38059 22.4877L4.19082 22.1497L4.86678 21.7702L5.05656 22.1082C5.23911 22.4335 5.43973 22.7552 5.6512 23.0643L5.86989 23.3842L5.23007 23.8234ZM27.0345 23.451L26.3803 23.0353L26.5881 22.7082C26.7887 22.3919 26.9785 22.063 27.1502 21.7322L27.3273 21.3888L28.016 21.7449L27.8388 22.0883C27.6563 22.4407 27.4557 22.7895 27.2424 23.1257L27.0345 23.451ZM4.04442 21.8623L3.88356 21.5099C3.71909 21.1484 3.56726 20.7743 3.43532 20.4002L3.307 20.0351L4.03719 19.7784L4.16551 20.1435C4.29022 20.496 4.4312 20.8466 4.58664 21.1882L4.7475 21.5406L4.04442 21.8623ZM28.1533 21.4503L27.4376 21.152L27.5858 20.7942C27.7286 20.449 27.8587 20.0929 27.9708 19.735L28.0864 19.3663L28.8257 19.5977L28.71 19.9664C28.5907 20.3459 28.4533 20.7237 28.3015 21.0906L28.1533 21.4503ZM3.21301 19.7278L3.11541 19.3537C3.0142 18.9687 2.93106 18.5747 2.86599 18.1843L2.80273 17.8029L3.56726 17.6764L3.63052 18.0578C3.69197 18.4265 3.7715 18.797 3.86548 19.1585L3.96308 19.5326L3.21301 19.7278ZM28.9106 19.2868L28.1551 19.1169L28.2401 18.7392C28.3214 18.3741 28.3883 18.0017 28.4371 17.6312L28.4877 17.2481L29.2558 17.3493L29.2052 17.7324C29.1528 18.1265 29.0841 18.5223 28.9974 18.9109L28.9106 19.2868ZM29.2829 17.0276L28.5094 16.9914L28.5274 16.6046C28.5365 16.4311 28.5401 16.2558 28.5419 16.0823V15.9937C28.5419 15.822 28.5383 15.6485 28.5311 15.4768L28.5148 15.09L29.2884 15.0593L29.3046 15.4461C29.3119 15.6286 29.3155 15.813 29.3155 15.9937V16.0877C29.3137 16.2703 29.31 16.4564 29.301 16.6408L29.2829 17.0276ZM28.4949 14.8316L28.4479 14.4466C28.4027 14.0743 28.3377 13.7019 28.26 13.3368L28.1768 12.9591L28.9341 12.7946L29.0154 13.1724C29.1004 13.561 29.1673 13.9568 29.2161 14.3508L29.2631 14.7358L28.4949 14.8316ZM3.57992 14.2261L2.81719 14.0941L2.88407 13.7128C2.95275 13.3206 3.0395 12.9284 3.14072 12.5452L3.24193 12.1711L3.9902 12.3717L3.88898 12.7458C3.79138 13.1073 3.71005 13.476 3.64679 13.8447L3.57992 14.2261ZM28.1117 12.7079L27.9979 12.3374C27.8894 11.9795 27.7611 11.6234 27.6201 11.2764L27.4737 10.9185L28.1913 10.6257L28.3377 10.9836C28.4877 11.3505 28.6232 11.7301 28.7389 12.1096L28.8528 12.4801L28.1117 12.7079ZM4.06611 12.1241L3.33772 11.862L3.46786 11.4969C3.6016 11.1228 3.75523 10.7523 3.92332 10.3908L4.08599 10.0401L4.78907 10.3673L4.6264 10.7179C4.46735 11.0577 4.32456 11.4083 4.19805 11.759L4.06611 12.1241ZM27.3671 10.6836L27.1918 10.3384C27.0219 10.0058 26.8357 9.67505 26.6369 9.35876L26.4309 9.02981L27.0869 8.61773L27.293 8.94667C27.5045 9.28285 27.7015 9.63348 27.8822 9.98773L28.0575 10.3329L27.3671 10.6836ZM4.90835 10.1377L4.236 9.75458L4.42759 9.4184C4.62459 9.07319 4.83967 8.7334 5.0656 8.40626L5.2861 8.08816L5.92231 8.53097L5.7018 8.84907C5.48853 9.15633 5.2861 9.47624 5.09994 9.80157L4.90835 10.1377ZM26.2863 8.81654L26.0549 8.50567C25.8308 8.20564 25.5904 7.91284 25.341 7.6345L25.0825 7.34532L25.6591 6.8284L25.9176 7.11758C26.1832 7.414 26.4381 7.72487 26.6749 8.04297L26.9062 8.35385L26.2863 8.81654ZM6.07955 8.32493L5.48311 7.83151L5.72891 7.53329C5.98195 7.22784 6.25125 6.92781 6.52959 6.64585L6.8007 6.37113L7.35196 6.91516L7.08085 7.18988C6.81877 7.45557 6.56393 7.73752 6.32536 8.02671L6.07955 8.32493ZM24.9018 7.16096L24.6198 6.89527C24.3487 6.63862 24.0614 6.3892 23.7686 6.15786L23.4649 5.91747L23.9457 5.31019L24.2493 5.55057C24.5602 5.79638 24.8638 6.06026 25.153 6.33317L25.435 6.59886L24.9018 7.16096ZM7.54354 6.73622L7.03928 6.14882L7.33208 5.89578C7.63391 5.63733 7.95021 5.3879 8.27192 5.15656L8.58641 4.93063L9.03645 5.56141L8.72197 5.78734C8.41832 6.00423 8.1201 6.23919 7.83634 6.48319L7.54354 6.73622ZM23.2571 5.76384L22.9354 5.54876C22.6245 5.34091 22.2991 5.14571 21.9702 4.96678L21.6304 4.78243L22.0009 4.10104L22.3407 4.28539C22.6895 4.47517 23.0348 4.68302 23.3655 4.90352L23.6872 5.1186L23.2571 5.76384ZM9.25334 5.42224L8.85571 4.75712L9.18828 4.55831C9.52987 4.35407 9.88412 4.16429 10.242 3.99078L10.5908 3.8227L10.927 4.52035L10.5782 4.68844C10.242 4.85111 9.90762 5.03004 9.5859 5.22162L9.25334 5.42224ZM21.3955 4.66856L21.0412 4.51312C20.6978 4.3613 20.3453 4.22575 19.9911 4.10646L19.6242 3.98355L19.8718 3.24975L20.2387 3.37265C20.6147 3.49917 20.9906 3.64557 21.3539 3.80462L21.7081 3.96006L21.3955 4.66856ZM11.1638 4.41914L10.8872 3.69618L11.2487 3.55701C11.6192 3.41422 12.0024 3.28771 12.3838 3.17926L12.7561 3.07443L12.9675 3.81908L12.5952 3.92391C12.2356 4.02512 11.8759 4.14441 11.527 4.27816L11.1638 4.41914ZM19.3766 3.90945L19.0006 3.81727C18.6374 3.72871 18.2668 3.65461 17.8963 3.59858L17.5132 3.54074L17.6306 2.7744L18.0138 2.83224C18.406 2.89189 18.8018 2.9696 19.1868 3.0654L19.5627 3.15757L19.3766 3.90945ZM13.2188 3.75944L13.0706 2.99852L13.4501 2.92442C13.8387 2.84851 14.2381 2.78886 14.634 2.7491L15.0189 2.70934L15.0985 3.47929L14.7135 3.51905C14.3412 3.55701 13.967 3.61304 13.6001 3.68353L13.2188 3.75944ZM17.2565 3.51002L16.8697 3.48291C16.6113 3.46483 16.3492 3.45579 16.0889 3.45399H16.0004C15.9154 3.45399 15.8287 3.45579 15.7437 3.45579L15.3569 3.46302L15.3407 2.68946L15.7274 2.68223C15.8178 2.68042 15.9082 2.68042 16.0004 2.68042H16.0943C16.3709 2.68223 16.6492 2.69307 16.9239 2.71115L17.3107 2.73826L17.2565 3.51002Z" fill="#F6F6FE"/>
<path d="M16.0043 31.1794C7.6324 31.1794 0.820312 24.3674 0.820312 15.9955C0.820312 7.62361 7.6324 0.811523 16.0043 0.811523C24.3761 0.811523 31.1882 7.62361 31.1882 15.9955C31.19 24.3674 24.378 31.1794 16.0043 31.1794ZM16.0043 1.58509C8.05895 1.58509 1.59569 8.05016 1.59569 15.9955C1.59569 23.9408 8.05894 30.4059 16.0061 30.4059C23.9532 30.4059 30.4165 23.9408 30.4165 15.9955C30.4165 8.05016 23.9514 1.58509 16.0043 1.58509Z" fill="#F6F6FE"/>
<path d="M5.12941 15.2437L4.77696 15.6919L3.125 15.6883V15.7859L4.82396 15.7895L5.22339 15.2798L5.2252 15.2654C5.59391 9.79439 10.0148 5.48193 15.5039 5.23251L15.7099 5.23432L15.7678 5.13853L15.5021 5.13672C9.96601 5.38614 5.50896 9.72932 5.12941 15.2437Z" fill="#F6F6FE"/>
<path d="M16.7788 6.01848L16.748 5.96606L16.7788 6.01848Z" fill="#F6F6FE"/>
<path d="M15.773 4.69019C10.0707 4.80586 5.3353 9.16711 4.75694 14.8369L4.31593 15.3954L3.12305 15.3918V15.4894L4.36473 15.493L4.85273 14.8749L4.85454 14.8604C5.42387 9.23218 10.1195 4.90165 15.7766 4.78598L15.9827 4.78778L16.017 4.72995L15.9827 4.78778L16.017 4.72995L15.9935 4.69019H15.773Z" fill="#F6F6FE"/>
<path d="M22.6839 18.6634L22.711 18.5965L22.0223 18.5947L20.6162 20.7293L20.6975 20.7817L22.0748 18.6923L22.5682 18.6941C21.9988 20.0714 20.9885 21.2588 19.7161 22.0414C19.6474 22.0794 19.5787 22.1192 19.5083 22.1571L19.3926 22.3306C19.5571 22.2403 19.7071 22.1553 19.7649 22.1228C21.0753 21.3167 22.1127 20.0876 22.6839 18.6634Z" fill="#F6F6FE"/>
<path d="M24.1199 8.12776C22.0649 6.00949 19.3176 4.78949 16.3788 4.6937L15.9902 4.69189L16.0481 4.78949L16.377 4.7913C22.4553 4.99012 27.2159 9.91347 27.2159 15.9972C27.2159 21.9995 22.336 27.0277 16.3391 27.2031H16.1782L16.1149 27.3007H16.3427C19.2869 27.2139 22.045 25.9975 24.109 23.8774C26.1767 21.7519 27.3135 18.9541 27.3135 15.9972C27.3117 13.0457 26.1785 10.2515 24.1199 8.12776Z" fill="#F6F6FE"/>
<path d="M15.7513 27.3567L15.755 28.0218C9.68029 27.9187 4.63223 23.2918 4.00687 17.2389L4.00506 17.2262L3.73395 16.8503L3.12305 16.8467V16.9443L3.68515 16.9479L3.91288 17.2624C4.21833 20.1885 5.59738 22.9087 7.79698 24.9239C10.0038 26.9464 12.8487 28.0832 15.8056 28.1194L15.8544 28.1176L15.8489 27.2934H15.8218L15.7513 27.3567Z" fill="#F6F6FE"/>
<path d="M15.8475 27.2015L15.8457 27.1997V27.2015H15.8475Z" fill="#F6F6FE"/>
<path d="M15.75 27.2993V27.359L15.8205 27.2993H15.75Z" fill="#F6F6FE"/>
<path d="M15.7513 27.299H15.6827C15.679 27.299 15.6754 27.299 15.6718 27.299L15.3465 27.5773C9.60619 27.2556 5.02082 22.8673 4.44426 17.1342L4.44245 17.1197L3.97975 16.5414L3.12305 16.5396V16.6372L3.93276 16.639L4.34846 17.1577C4.63042 19.9266 5.8956 22.513 7.90904 24.4415C9.92971 26.3754 12.5757 27.5231 15.3628 27.6749L15.3826 27.6767L15.7532 27.3604L15.8236 27.3008L15.7513 27.299Z" fill="#F6F6FE"/>
<path d="M5.21074 16.4691V16.4528L4.83841 15.972L3.125 15.9702V16.0678H4.78961L5.11314 16.4871C5.22881 19.1874 6.34398 21.7376 8.2544 23.6715C10.1684 25.6073 12.7078 26.7532 15.4117 26.8978L15.4135 26.802C9.91901 26.5074 5.43666 21.969 5.21074 16.4691Z" fill="#F6F6FE"/>
<path d="M14.828 25.8964C9.81242 25.3017 6.02953 21.0435 6.02953 15.9918C6.02953 10.8371 9.88833 6.56442 15.0015 6.05293L15.2274 6.03666L15.2888 5.93726L15.0015 5.95533C12.5326 6.20114 10.2444 7.35787 8.5617 9.20865C6.86817 11.0703 5.93555 13.4795 5.93555 15.9918C5.93555 21.0923 9.75458 25.3903 14.8207 25.9922L15.0647 26.0084L14.9978 25.9072L14.828 25.8964Z" fill="#F6F6FE"/>
<path d="M5.62646 16.2068C5.62646 15.9754 5.42765 15.9393 5.31921 15.9158C5.3174 15.9158 5.31378 15.914 5.31017 15.914C5.32101 15.9122 5.33186 15.9122 5.33909 15.9104C5.44753 15.8995 5.62827 15.8832 5.62646 15.6971C5.77648 10.3381 9.92085 6.01123 15.2617 5.63168L15.4659 5.63349L15.5238 5.5377L15.2545 5.53589C12.6699 5.72024 10.2516 6.85529 8.44782 8.73499C6.64042 10.6201 5.60297 13.0908 5.53067 15.6971C5.53067 15.782 5.47284 15.8001 5.33186 15.8146C5.25053 15.8218 5.16016 15.8308 5.16016 15.914C5.16016 15.9808 5.23065 15.9953 5.29933 16.0098C5.42946 16.0369 5.52887 16.0694 5.52887 16.2122C5.58851 18.8058 6.60427 21.2747 8.38636 23.1671C10.1685 25.0558 12.556 26.1999 15.1171 26.3897L15.1207 26.283C9.91723 25.9197 5.74756 21.4753 5.62646 16.2068Z" fill="#F6F6FE"/>
<path d="M15.7843 27.2012H15.75V27.2319L15.7843 27.2012Z" fill="#F6F6FE"/>
<path d="M15.8203 27.2985H15.8474L15.8456 27.2769L15.8203 27.2985Z" fill="#F6F6FE"/>
<path d="M15.7496 27.2988V27.2319L15.6719 27.2988C15.6755 27.2988 15.6791 27.2988 15.6827 27.2988H15.7496Z" fill="#F6F6FE"/>
<path d="M15.8457 27.2772L15.8475 27.2031H15.8457V27.2772Z" fill="#F6F6FE"/>
<path d="M15.7843 27.2012L15.75 27.2319V27.2988H15.8205L15.8458 27.2771V27.2012H15.7843Z" fill="#F6F6FE"/>
<path d="M15.7843 27.2012L15.75 27.2319V27.2988H15.8205L15.8458 27.2771V27.2012H15.7843Z" fill="#F6F6FE"/>
<path d="M15.8457 27.2028H15.7824H15.7463H15.6776C9.94455 27.0402 5.27604 22.6084 4.82057 16.8934L4.81154 16.8772C4.80792 16.8699 4.79527 16.8627 4.33981 16.2861L4.30547 16.2681H3.03125V16.3657H4.25847C4.42295 16.5753 4.69948 16.8735 4.7302 16.9115C4.95251 19.6732 6.18697 22.2542 8.20403 24.1772C10.2301 26.1075 12.8798 27.2155 15.6668 27.2968C15.6704 27.2968 15.674 27.2968 15.6776 27.2968L15.7463 27.2932L15.8168 27.2896H15.8439L15.8457 27.2028Z" fill="#F6F6FE"/>
<path d="M26.8645 15.1406C26.6494 12.509 25.4962 10.0509 23.6165 8.21644C21.7405 6.38554 19.2661 5.29387 16.6418 5.14205L16.2586 5.14024C16.0037 5.1294 16.0236 5.1294 15.7688 5.13663L15.7109 5.23242C15.964 5.22519 16.0634 5.22519 16.3164 5.23604L16.6399 5.23784C21.9718 5.5451 26.3222 9.79611 26.7669 15.1297L26.3746 15.6412L24.0304 15.6611L24.0322 15.7587L26.4235 15.7388L26.8681 15.1605L26.8645 15.1406Z" fill="#F6F6FE"/>
<path d="M26.4358 14.8768C25.9207 9.88297 21.9029 5.95911 16.8784 5.54521L16.4952 5.54341C16.2386 5.53798 16.2277 5.53798 15.9674 5.53798C15.7795 5.53798 15.7108 5.53437 15.5246 5.53798L15.4668 5.63378C15.653 5.63016 15.7813 5.62835 15.9674 5.62835C16.2259 5.62835 16.2964 5.63378 16.5512 5.64101L16.8784 5.64281C21.8469 6.05129 25.8286 9.92996 26.3473 14.8678L25.9731 15.3504L24.2128 15.3485V15.4461L26.0183 15.448L26.434 14.8985L26.4358 14.8768Z" fill="#F6F6FE"/>
<path d="M25.9987 14.6977C25.7167 12.4927 24.6775 10.4051 23.0743 8.82185C21.4639 7.23133 19.3529 6.21919 17.1243 5.96796C16.4701 5.93362 16.0923 5.9282 16.0037 5.92639C15.776 5.92458 15.7182 5.92639 15.288 5.93724L15.2266 6.03664C15.767 6.02399 15.776 6.01857 16.0037 6.01857C16.1212 6.01857 16.4285 6.02399 17.1117 6.06556C21.6193 6.57163 25.301 10.1973 25.8848 14.6887L25.5757 15.0411H23.9256V15.1387H25.6209L26.0005 14.7194L25.9987 14.6977Z" fill="#F6F6FE"/>
<path d="M19.3991 12.7745C18.6074 11.972 17.5646 11.4677 16.444 11.3502C15.3216 11.2291 14.1938 11.5039 13.2521 12.1238C11.0019 13.6005 10.3766 16.6206 11.8514 18.869C12.2075 19.4113 12.6683 19.8776 13.2069 20.2391C13.2178 20.2969 13.2304 20.3547 13.2449 20.4198C13.2991 20.6403 13.3823 20.8518 13.4925 21.0488C13.5757 21.1988 13.7112 21.3109 13.8739 21.3687C14.2444 21.5024 14.6529 21.309 14.7848 20.9385C14.7848 20.9367 14.7848 20.9367 14.7866 20.9349C14.8589 20.7198 14.9041 20.4975 14.9185 20.2716C14.9366 20.0547 14.9348 19.836 14.9167 19.6191C14.8987 19.3227 14.7342 19.057 14.4793 18.907L14.4522 18.9034C13.8377 18.5546 13.3624 18.0051 13.1021 17.349C12.5165 15.7639 13.328 14.0053 14.9113 13.4215C16.4946 12.8377 18.255 13.6474 18.8388 15.2307C18.9201 15.4512 18.9761 15.679 19.005 15.9121C19.0828 16.6206 18.9147 17.3346 18.5279 17.9328C18.1357 18.5347 17.5537 18.9883 16.8741 19.2215L16.8615 19.2197L16.7783 19.2504C16.7512 19.2613 16.7241 19.2739 16.6988 19.2884L16.6392 19.3263C16.6139 19.3426 16.5886 19.3625 16.5651 19.3824C16.4982 19.4366 16.4404 19.4998 16.3934 19.5721L16.3645 19.6155L16.35 19.6444L16.312 19.7041C16.294 19.7366 16.2795 19.7709 16.2669 19.8053C16.2325 19.9011 16.2036 20.0005 16.1801 20.0999C16.1458 20.2734 16.1241 20.418 16.1024 20.5644L16.0012 21.3976C15.9722 21.6687 15.9361 21.9362 15.9036 22.2037C15.8656 22.4821 15.7698 22.7496 15.6216 22.9881C15.2981 23.4816 15.4373 24.1449 15.9325 24.4684C16.4277 24.7919 17.0892 24.6528 17.4127 24.1575C17.617 23.8448 17.6441 23.449 17.4832 23.1128C17.3676 22.8688 17.3115 22.6013 17.3206 22.332C17.3332 22.0754 17.3495 21.8224 17.3856 21.5729C17.4145 21.3307 17.4615 21.0904 17.5266 20.8554C17.5411 20.8048 17.5573 20.756 17.5718 20.7108C18.5424 20.3764 19.3774 19.7384 19.9575 18.8925C21.2534 16.9821 21.0239 14.4174 19.3991 12.7745Z" fill="#F6F6FE"/>
<path d="M17.0424 17.5769L15.9399 16.2141L14.8355 14.8495L14.747 14.7393C13.9463 15.4152 13.8469 16.6117 14.521 17.4106C15.1771 18.186 16.3267 18.3089 17.1292 17.6872L17.0424 17.5769Z" fill="#F6F6FE"/>
<path d="M25.5425 14.4971C25.2136 12.462 24.2611 10.613 22.7862 9.15262C21.3096 7.68863 19.4516 6.75782 17.4183 6.45779L16.9881 6.38188C16.6194 6.3385 16.3718 6.34211 15.9977 6.34211C15.5964 6.34211 15.3271 6.36561 15.009 6.40357L14.7036 6.44333C9.94106 7.08676 6.35156 11.2004 6.35156 16.0099C6.35156 18.3306 7.1902 20.5754 8.71383 22.3358C10.2212 24.0781 12.2943 25.2276 14.5517 25.5746C14.6295 25.5855 14.718 25.5981 14.8048 25.6108L14.7343 25.5024C14.6656 25.4915 14.6041 25.4843 14.5662 25.4789C9.93925 24.7667 6.44916 20.6965 6.44916 16.0099C6.44916 11.2492 10.0043 7.17713 14.718 6.53731L14.9476 6.5084C15.2638 6.47225 15.6036 6.43068 16.0013 6.43068C16.3718 6.43068 16.6917 6.44875 17.0568 6.49032L17.4056 6.54635C21.4759 7.14641 24.7798 10.4033 25.4485 14.479L25.2226 14.7845H24.2213V14.8568H25.2696L25.5516 14.4935L25.5425 14.4971Z" fill="#F6F6FE"/>
<path d="M24.6058 13.9767C23.8413 10.7036 21.2387 8.13707 17.96 7.38519L17.5498 7.3129C16.44 7.09601 15.5923 7.0689 14.4808 7.28217L14.4121 7.39784C15.511 7.18457 16.5159 7.20807 17.6148 7.42134L17.942 7.47918C21.1754 8.22021 23.7437 10.7487 24.5082 13.9749L24.36 14.1792L24.4106 14.2695L24.6131 13.9984L24.6058 13.9767Z" fill="#F6F6FE"/>
<path d="M18.2477 7.87133L17.8067 7.74119C17.1849 7.5966 16.6499 7.54419 16.0065 7.54419C15.3486 7.54419 14.8299 7.61287 14.1955 7.76288L14.125 7.87856C14.7522 7.73035 15.354 7.63456 16.0065 7.63456C16.6445 7.63456 17.2663 7.72312 17.8808 7.86591L18.2151 7.96531C21.0329 8.75514 23.256 10.9927 24.0314 13.8104L23.9374 13.9333L23.9898 14.0237L24.147 13.8068C23.3662 10.9475 21.107 8.672 18.2477 7.87133Z" fill="#F6F6FE"/>
<path d="M23.6273 13.5412C22.8538 11.1337 20.9651 9.21605 18.5721 8.41176L18.122 8.27259C17.39 8.05751 16.7755 7.97437 16.0056 7.97437C15.2483 7.97437 14.6211 8.04305 13.9 8.2509L13.8223 8.38284C14.5362 8.17679 15.2573 8.06474 16.0056 8.06474C16.7683 8.06474 17.4696 8.18041 18.1943 8.39368L18.5432 8.49851C20.8964 9.28834 22.7598 11.168 23.5279 13.5375L23.4647 13.6261L23.5153 13.7201L23.6328 13.5719L23.6273 13.5412Z" fill="#F6F6FE"/>
<path d="M23.0893 13.2648C22.3429 11.3272 20.8192 9.76742 18.9052 8.97939L18.4497 8.82576C17.6274 8.53296 16.8863 8.4209 16.0043 8.4209C15.1314 8.4209 14.3867 8.51127 13.5716 8.79865L13.4902 8.9342C14.2963 8.64863 15.1422 8.50946 16.0043 8.50946C16.8755 8.50946 17.7123 8.66128 18.5256 8.95047L18.8709 9.06795C20.7487 9.83972 22.2489 11.3724 22.9881 13.272L22.952 13.3118L23.0098 13.4021L23.0984 13.2864L23.0893 13.2648Z" fill="#F6F6FE"/>
<path d="M26.8458 16.5503L26.374 15.9611L23.9286 15.9575V16.0551L26.3252 16.0587L26.7717 16.5811C26.4825 22.0846 22.1212 26.4694 16.6213 26.7838C16.3881 26.7983 16.2399 26.8128 16.0049 26.8128C15.779 26.8128 15.638 26.8164 15.4139 26.8019L15.4121 26.8977C15.638 26.9122 15.7772 26.9013 16.0049 26.9013C16.2417 26.9013 16.3863 26.8941 16.6213 26.8796C19.2962 26.7278 21.8121 25.591 23.7081 23.6823C25.6059 21.7737 26.7193 19.247 26.8548 16.5666L26.8458 16.5503Z" fill="#F6F6FE"/>
<path d="M25.9939 16.2572L24.0763 16.25V16.3458L25.9487 16.3512L26.3789 16.8555C25.9469 21.853 21.8803 25.9196 16.9154 26.2811C16.5919 26.3119 16.3316 26.3245 16.0045 26.3245C15.6936 26.3245 15.4279 26.3082 15.1188 26.2811L15.1152 26.3878C15.4261 26.4149 15.69 26.4149 16.0045 26.4149C16.3334 26.4149 16.5919 26.4185 16.919 26.3878C19.3662 26.1998 21.6815 25.1298 23.4383 23.373C25.1896 21.6216 26.2686 19.3027 26.4765 16.8483L26.4783 16.8284L25.9939 16.2572Z" fill="#F6F6FE"/>
<path d="M25.6162 16.5596L24.1251 16.5704V16.668L25.5674 16.6572L25.9271 17.1253C25.4066 21.6636 21.7412 25.3507 17.2046 25.8947L17.0311 25.9074C16.6732 25.9453 16.3641 25.9652 16.0027 25.9652C15.652 25.9652 15.3412 25.9453 14.9941 25.9092L15.061 26.0104C15.4098 26.0465 15.6484 26.0556 16.0027 26.0556C16.3678 26.0556 16.6045 26.0484 16.9642 26.0104L17.2154 25.9923C19.4494 25.7248 21.5604 24.691 23.1564 23.0824C24.7541 21.4739 25.7735 19.3556 26.0247 17.1181L26.0265 17.0982L25.6162 16.5596Z" fill="#F6F6FE"/>
<path d="M19.4069 9.76353C20.5582 10.3871 21.9607 11.439 22.4686 13.0277H21.8776C21.8939 13.0602 21.9101 13.0928 21.9264 13.1253H22.5988L22.5771 13.062C22.0565 11.336 20.5058 10.2244 19.2966 9.59725L19.1484 9.51953L19.7865 10.6112C19.8533 10.6582 19.9202 10.707 19.9853 10.7558L19.4069 9.76353Z" fill="#F6F6FE"/>
<path d="M24.8811 17.2442L25.042 17.4647C24.4329 21.2006 21.5338 24.2081 17.8196 24.96C17.7564 24.9762 17.6895 24.9925 17.6244 25.0088L17.5449 25.1299C17.6281 25.11 17.7257 25.0865 17.8413 25.0576C21.6007 24.2967 24.5341 21.244 25.1414 17.4556L25.145 17.4358L24.9227 17.1538H22.4719C22.4664 17.1845 22.461 17.2135 22.4538 17.2442H24.8811Z" fill="#F6F6FE"/>
<path d="M24.3846 17.526L24.5599 17.7556C23.8912 21.0216 21.3734 23.6586 18.1382 24.4737L17.9448 24.5225L17.8652 24.6418L18.1617 24.5659C21.4403 23.7381 23.9906 21.0631 24.6593 17.7501L24.6629 17.7285L24.4316 17.4248L22.4272 17.4266C22.4199 17.4591 22.4127 17.4917 22.4055 17.5242L24.3846 17.526Z" fill="#F6F6FE"/>
<path d="M24.0704 17.8154L24.13 17.8949C23.4577 20.7578 21.2942 23.0767 18.4819 23.9496L18.2903 24.0038L18.209 24.1268L18.5108 24.0418C21.3647 23.1544 23.5571 20.7994 24.2312 17.8931L24.2367 17.8714L24.1192 17.7178L22.357 17.7214C22.3479 17.7539 22.3389 17.7865 22.3299 17.819L24.0704 17.8154Z" fill="#F6F6FE"/>
<path d="M23.7264 18.1574L23.7336 18.1339L23.6414 18.0165L22.2714 18.0146C22.2606 18.0472 22.2497 18.0797 22.2389 18.1104L23.5944 18.1122L23.627 18.1538C22.9546 20.5414 21.1689 22.4969 18.8518 23.3916L18.6512 23.4585L18.5645 23.5886L18.8826 23.4838C21.2394 22.5765 23.0486 20.5847 23.7264 18.1574Z" fill="#F6F6FE"/>
<path d="M23.2077 18.457L23.2167 18.4317L23.1155 18.2998L22.1702 18.3016C22.1576 18.3341 22.1467 18.3667 22.1323 18.3992L23.0685 18.3974L23.1082 18.4498C22.4594 20.3313 21.055 21.9056 19.2531 22.7713L19.0326 22.8779L18.9277 23.0352L19.2946 22.8581C21.1273 21.9797 22.5534 20.3747 23.2077 18.457Z" fill="#F6F6FE"/>
<path d="M25.4395 16.8774H22.5259C22.5223 16.91 22.5169 16.9425 22.5115 16.975H25.3907L25.5298 17.201C25.0201 21.4321 21.7126 24.8354 17.4742 25.4806C17.4742 25.4806 16.5254 25.5872 16.0048 25.5872C15.5801 25.5872 15.1499 25.5565 14.7324 25.5023L14.8029 25.6107C15.224 25.6668 15.5765 25.6776 16.0048 25.6776C16.5308 25.6776 16.9808 25.6595 17.4959 25.5764C21.7813 24.9239 25.1304 21.4754 25.6365 17.1919L25.6491 17.172L25.4395 16.8774Z" fill="#F6F6FE"/>
<path d="M23.0189 13.4053V13.3149H22.0176C22.0302 13.3457 22.0447 13.3746 22.0573 13.4053H23.0189Z" fill="#F6F6FE"/>
<path d="M23.5145 13.7183V13.6279H22.1445C22.1554 13.6587 22.168 13.6876 22.1789 13.7183H23.5145Z" fill="#F6F6FE"/>
<path d="M23.9876 14.0235V13.9332L22.2598 13.9277C22.2688 13.9585 22.2796 13.9874 22.2887 14.0181L23.9876 14.0235Z" fill="#F6F6FE"/>
<path d="M24.4105 14.271V14.1807H22.332C22.3411 14.2114 22.3483 14.2403 22.3573 14.271H24.4105Z" fill="#F6F6FE"/>
<path d="M24.03 14.5948V14.5044H22.416C22.4232 14.5351 22.4305 14.564 22.4359 14.5948H24.03Z" fill="#F6F6FE"/>
<path d="M24.0287 14.8623V14.772H22.4707C22.4761 14.8027 22.4815 14.8316 22.487 14.8623H24.0287Z" fill="#F6F6FE"/>
<path d="M24.0013 15.128V15.0376H22.5156C22.5192 15.0683 22.5247 15.0972 22.5283 15.128H24.0013Z" fill="#F6F6FE"/>
<path d="M24.0024 15.439V15.3486H22.5547C22.5583 15.3794 22.5601 15.4083 22.5619 15.439H24.0024Z" fill="#F6F6FE"/>
<path d="M24.0024 15.7515V15.6611H22.5781C22.5799 15.6919 22.5817 15.7208 22.5817 15.7515H24.0024Z" fill="#F6F6FE"/>
<path d="M22.5859 16.0586H24.0029V15.9683H22.5859C22.5859 15.9773 22.5859 15.9863 22.5859 15.9954C22.5859 16.0153 22.5859 16.0369 22.5859 16.0586Z" fill="#F6F6FE"/>
<path d="M24.0022 16.3531V16.2627H22.5798C22.578 16.2934 22.5762 16.3223 22.5762 16.3531H24.0022Z" fill="#F6F6FE"/>
<path d="M24.0023 16.6626V16.5723H22.5618C22.56 16.603 22.5563 16.6319 22.5527 16.6626H24.0023Z" fill="#F6F6FE"/>
<path d="M20.8102 12.164L19.9879 10.7579C19.9228 10.7073 19.8559 10.6603 19.7891 10.6133L20.7253 12.2146L20.8102 12.164Z" fill="#F6F6FE"/>
<path d="M22.2701 18.0146H22.2429L22.1797 18.1104H22.2393C22.2502 18.0797 22.261 18.0472 22.2701 18.0146Z" fill="#F6F6FE"/>
<path d="M22.0496 18.3037L21.9863 18.4012H22.1309C22.1436 18.3687 22.1562 18.3362 22.1689 18.3037H22.0496Z" fill="#F6F6FE"/>
<path d="M14.9424 8.5166H14.834V11.4699H14.9424V8.5166Z" fill="#F6F6FE"/>
<path d="M15.3897 8.4624H15.2812V11.4157H15.3897V8.4624Z" fill="#F6F6FE"/>
<path d="M15.837 8.4624H15.7285V11.4157H15.837V8.4624Z" fill="#F6F6FE"/>
<path d="M16.2842 8.4624H16.1758V11.4157H16.2842V8.4624Z" fill="#F6F6FE"/>
<path d="M16.7295 8.5166H16.6211V11.4699H16.7295V8.5166Z" fill="#F6F6FE"/>
<path d="M17.1788 8.58887H17.0703V11.5422H17.1788V8.58887Z" fill="#F6F6FE"/>
<path d="M14.9462 9.8285H14.8287L14.7637 9.74898V9.47245L14.8287 9.39111H14.9462L15.0113 9.47245V9.74898L14.9462 9.8285Z" fill="#F6F6FE"/>
<path d="M15.3935 9.8285H15.276L15.2109 9.74898V9.47245L15.276 9.39111H15.3935L15.4586 9.47245V9.74898L15.3935 9.8285Z" fill="#F6F6FE"/>
<path d="M15.8388 9.8285H15.7213L15.6562 9.74898V9.47245L15.7213 9.39111H15.8388L15.9039 9.47245V9.74898L15.8388 9.8285Z" fill="#F6F6FE"/>
<path d="M16.2879 9.8285H16.1704L16.1035 9.74898V9.47245L16.1704 9.39111H16.2879L16.3529 9.47245V9.74898L16.2879 9.8285Z" fill="#F6F6FE"/>
<path d="M16.7333 9.8285H16.6158L16.5508 9.74898V9.47245L16.6158 9.39111H16.7333L16.7984 9.47245V9.74898L16.7333 9.8285Z" fill="#F6F6FE"/>
<path d="M17.1806 9.8285H17.0631L16.998 9.74898V9.47245L17.0631 9.39111H17.1806L17.2457 9.47245V9.74898L17.1806 9.8285Z" fill="#F6F6FE"/>
<path d="M13.9329 22.7044C13.4359 22.5598 12.9569 22.3773 12.5484 22.173C12.4273 22.1098 12.3315 22.061 12.3044 22.0465C10.1789 20.7397 8.9101 18.4787 8.9101 15.9953C8.9101 14.7338 9.24628 13.4957 9.88249 12.4131L9.79935 12.3643C9.1541 13.4632 8.8125 14.7175 8.8125 15.9971C8.8125 18.5148 10.0976 20.8066 12.2538 22.1314C12.3713 22.1929 12.5159 22.267 12.6551 22.3393C13.0744 22.549 13.5353 22.7243 14.0106 22.8562L13.9329 22.7044Z" fill="#F6F6FE"/>
<path d="M14.2369 23.2758C13.8231 23.189 13.4164 23.0607 13.0115 22.8781L12.7892 22.7823C10.1847 21.5388 8.50023 18.8765 8.50023 15.9992C8.50023 12.9194 10.351 10.1884 13.2176 9.04248L13.4923 8.93585L13.5736 8.80029L13.1832 8.95392C10.2805 10.1161 8.40625 12.8814 8.40625 16.001C8.40625 18.9163 10.1106 21.6129 12.7513 22.8727L13.1091 23.0263C13.5248 23.2125 13.9152 23.3354 14.3111 23.4149L14.2369 23.2758Z" fill="#F6F6FE"/>
<path d="M14.4806 23.7382C14.1281 23.6768 13.7883 23.5936 13.3961 23.4671L13.1973 23.4075C10.141 22.2435 8.08603 19.2667 8.08603 16.0007C8.08603 12.5667 10.2838 9.54473 13.557 8.48017L13.8209 8.38438L13.9004 8.25244L13.5263 8.388C10.2151 9.4652 7.99023 12.5233 7.99023 15.9989C7.99023 19.3065 10.0687 22.3194 13.1666 23.4978L13.4793 23.5918C13.9221 23.7472 14.2438 23.8358 14.5619 23.89L14.4806 23.7382Z" fill="#F6F6FE"/>
<path d="M14.7377 24.221C14.4666 24.1812 14.1919 24.1161 13.7472 24.0005L13.5538 23.9517C10.0403 22.8654 7.67978 19.6663 7.67978 15.9937C7.67978 12.2162 10.2282 8.90326 13.8774 7.9363L14.125 7.87666L14.1955 7.76099L13.8557 7.84232C10.1632 8.82012 7.58398 12.171 7.58398 15.9937C7.58398 17.8282 8.16597 19.5723 9.26668 21.0381C10.3312 22.4569 11.844 23.5233 13.5304 24.0457L13.8286 24.1198C14.2298 24.2246 14.4919 24.2842 14.7955 24.3258L14.7377 24.221Z" fill="#F6F6FE"/>
<path d="M15.0045 24.7252C14.6611 24.6836 14.4334 24.6186 14.0972 24.5336L13.8984 24.483C9.99082 23.5142 7.26166 20.0241 7.26166 15.9955C7.26166 11.9035 10.1661 8.31039 14.1695 7.45369L14.4135 7.39766L14.4822 7.28198L14.1478 7.3597C10.1011 8.22725 7.16406 11.8601 7.16406 15.9973C7.16406 20.0711 9.92395 23.5992 13.8749 24.5788L14.1749 24.6547C14.531 24.7505 14.7479 24.7975 15.0569 24.8282L15.0045 24.7252Z" fill="#F6F6FE"/>
<path d="M25.0666 14.1791C24.3382 10.4974 21.3668 7.56944 17.6725 6.88986L17.255 6.81395C16.8122 6.74888 16.4579 6.76695 16.0061 6.76695C15.5579 6.76695 15.1873 6.7778 14.7463 6.84286L14.421 6.90432C9.98025 7.6815 6.75586 11.5023 6.75586 15.9919C6.75586 20.3929 9.88807 24.2065 14.2041 25.0614L14.4752 25.1121C14.7355 25.1645 14.8692 25.1825 15.2578 25.206L15.2018 25.0994C14.9397 25.0777 14.7536 25.0488 14.4029 25L14.224 24.9675C9.95314 24.1216 6.85346 20.3459 6.85346 15.9919C6.85346 11.5493 10.0435 7.76825 14.4337 7.00011L14.6813 6.95131C15.1187 6.88805 15.5615 6.85732 16.0061 6.85732C16.4543 6.85732 16.8827 6.86455 17.3237 6.92781L17.6544 6.99288C21.3036 7.66342 24.2388 10.5625 24.9672 14.1954C24.9328 14.2424 24.8153 14.4249 24.7322 14.5153H24.2171V14.5876H24.7792L24.7936 14.5641C25.0647 14.2189 25.0648 14.2116 25.0666 14.1936V14.1863V14.1791Z" fill="#F6F6FE"/>
</svg>
