<svg width="22" height="22" viewBox="0 0 22 22" fill="none" xmlns="http://www.w3.org/2000/svg">
<path fill-rule="evenodd" clip-rule="evenodd" d="M15.5911 1C15.5911 1 6.37774 1.00435 6.36334 1.00435C3.051 1.02281 1 2.99565 1 6.00489V15.9951C1 19.0196 3.06661 21 6.40774 21C6.40774 21 15.6199 20.9967 15.6355 20.9967C18.9478 20.9783 21 19.0043 21 15.9951V6.00489C21 2.98045 18.9322 1 15.5911 1Z" fill="#F6F6FE" stroke="#F6F6FE" stroke-width="1.5" stroke-linecap="round" stroke-linejoin="round"/>
<path fill-rule="evenodd" clip-rule="evenodd" d="M14.9144 14.7932H6.24951Z" fill="#F6F6FE"/>
<path d="M14.9144 14.7932H6.24951" stroke="#04045A" stroke-width="2" stroke-linecap="round" stroke-linejoin="round"/>
<path fill-rule="evenodd" clip-rule="evenodd" d="M13.2495 10.75H6.24951Z" fill="#F6F6FE"/>
<path d="M13.2495 10.75H6.24951" stroke="#04045A" stroke-width="2" stroke-linecap="round" stroke-linejoin="round"/>
<path fill-rule="evenodd" clip-rule="evenodd" d="M15.2495 6.75H6.24951Z" fill="#F6F6FE"/>
<path d="M15.2495 6.75H6.24951" stroke="#04045A" stroke-width="2" stroke-linecap="round" stroke-linejoin="round"/>
</svg>
