<svg width="20" height="20" viewBox="0 0 20 20" fill="none" xmlns="http://www.w3.org/2000/svg">
<path d="M0.833333 0C1.05435 0 1.26631 0.0877975 1.42259 0.244078C1.57887 0.400358 1.66667 0.61232 1.66667 0.833333V17.5C1.66667 17.721 1.75446 17.933 1.91074 18.0893C2.06702 18.2455 2.27899 18.3333 2.5 18.3333H19.1667C19.3877 18.3333 19.5996 18.4211 19.7559 18.5774C19.9122 18.7337 20 18.9457 20 19.1667C20 19.3877 19.9122 19.5996 19.7559 19.7559C19.5996 19.9122 19.3877 20 19.1667 20H2.5C1.83696 20 1.20107 19.7366 0.732233 19.2678C0.263392 18.7989 0 18.163 0 17.5V0.833333C0 0.61232 0.0877975 0.400358 0.244078 0.244078C0.400358 0.0877975 0.61232 0 0.833333 0V0ZM14.1667 5C13.9457 5 13.7337 4.9122 13.5774 4.75592C13.4211 4.59964 13.3333 4.38768 13.3333 4.16667C13.3333 3.94565 13.4211 3.73369 13.5774 3.57741C13.7337 3.42113 13.9457 3.33333 14.1667 3.33333H19.1667C19.3877 3.33333 19.5996 3.42113 19.7559 3.57741C19.9122 3.73369 20 3.94565 20 4.16667V9.295C20 9.51601 19.9122 9.72798 19.7559 9.88426C19.5996 10.0405 19.3877 10.1283 19.1667 10.1283C18.9457 10.1283 18.7337 10.0405 18.5774 9.88426C18.4211 9.72798 18.3333 9.51601 18.3333 9.295V6.17833L12.2567 12.2567C12.1793 12.3343 12.0873 12.3958 11.9861 12.4379C11.8848 12.4799 11.7763 12.5015 11.6667 12.5015C11.5571 12.5015 11.4485 12.4799 11.3473 12.4379C11.246 12.3958 11.1541 12.3343 11.0767 12.2567L8.33333 9.51167L4.75667 13.09C4.60019 13.2465 4.38796 13.3344 4.16667 13.3344C3.94537 13.3344 3.73314 13.2465 3.57667 13.09C3.42019 12.9335 3.33228 12.7213 3.33228 12.5C3.33228 12.2787 3.42019 12.0665 3.57667 11.91L7.74333 7.74333C7.82074 7.66573 7.9127 7.60416 8.01394 7.56215C8.11519 7.52013 8.22372 7.49851 8.33333 7.49851C8.44295 7.49851 8.55148 7.52013 8.65272 7.56215C8.75396 7.60416 8.84592 7.66573 8.92333 7.74333L11.6667 10.4883L17.155 5H14.1667Z" fill="#04045A"/>
</svg>
