<svg width="293" height="83" viewBox="0 0 293 83" fill="none" xmlns="http://www.w3.org/2000/svg">
<path d="M16.2891 50.8568C14.9964 50.5103 13.8761 50.0771 13.0143 49.5572C12.6696 49.2973 12.4111 49.0374 12.2388 48.6909C12.1526 48.3443 12.0664 47.9977 12.0664 47.6512C12.0664 47.1314 12.2388 46.6982 12.4973 46.3516C12.7558 46.005 13.1867 45.8318 13.7038 45.8318C14.1346 45.8318 14.4793 45.9184 14.9102 46.1783C15.5996 46.6115 16.4614 46.9581 17.4955 47.3046C18.5296 47.5645 19.6499 47.7378 20.8564 47.7378C22.1491 47.7378 23.1832 47.5645 23.8726 47.1314C24.562 46.6982 24.9067 46.1783 24.9067 45.3986C24.9067 44.8787 24.7343 44.4455 24.3896 44.099C24.0449 43.7524 23.5279 43.4925 22.9246 43.2326C22.3214 42.9727 21.5458 42.7128 20.5117 42.4529C19.0467 42.0197 17.8402 41.5865 16.8923 41.1533C15.9443 40.7201 15.1688 40.1136 14.4793 39.2472C13.7899 38.3808 13.4452 37.3412 13.4452 36.0416C13.4452 34.742 13.7899 33.5291 14.5655 32.576C15.2549 31.5364 16.2891 30.7566 17.6679 30.2368C19.0467 29.7169 20.5117 29.457 22.3214 29.457C23.7864 29.457 25.1652 29.6303 26.4579 29.9769C27.7505 30.3234 28.7846 30.8433 29.5602 31.4497C30.0773 31.7963 30.3358 32.4028 30.3358 33.0092C30.3358 33.5291 30.1635 33.9622 29.8188 34.3088C29.4741 34.6554 29.0432 34.9153 28.6123 34.9153C28.1814 34.9153 27.7505 34.742 27.3196 34.4821C26.7164 34.0489 25.9408 33.789 24.9929 33.4424C24.0449 33.1825 23.1832 33.0092 22.1491 33.0092C20.8564 33.0092 19.9085 33.2691 19.1329 33.7023C18.4435 34.1355 18.0988 34.742 18.0988 35.5217C18.0988 36.0416 18.2711 36.5614 18.702 36.908C19.1329 37.2545 19.5638 37.6011 20.167 37.7744C20.7702 38.0343 21.5458 38.2942 22.6661 38.5541C24.1311 38.9873 25.3376 39.4205 26.1993 39.8537C27.1473 40.2869 27.9229 40.8934 28.6123 41.6731C29.3017 42.4529 29.5602 43.4925 29.5602 44.7921C29.5602 46.8714 28.7846 48.4309 27.2335 49.6439C25.6823 50.7702 23.4417 51.3767 20.6841 51.3767C19.0467 51.3767 17.6679 51.2034 16.2891 50.8568Z" fill="white"/>
<path d="M48.9473 31.3636C50.2399 32.4899 50.8432 34.0494 50.8432 35.9555C50.8432 38.2081 50.1537 40.0275 48.8611 41.2405C47.4823 42.4534 45.5864 43.0599 43.0873 43.0599H37.9167L37.4858 48.9513C37.3996 49.6444 37.1411 50.2509 36.7102 50.6841C36.2793 51.1173 35.6761 51.2906 34.9005 51.2906C34.2111 51.2906 33.6079 51.1173 33.2632 50.6841C32.9184 50.2509 32.7461 49.6444 32.7461 48.9513L34.0387 31.8835C34.1249 31.1904 34.2973 30.5839 34.7282 30.2373C35.159 29.8908 35.6761 29.6309 36.3655 29.6309H43.6043C45.9311 29.6309 47.6546 30.2373 48.9473 31.3636ZM46.4482 36.2154C46.4482 35.2624 46.1896 34.4826 45.6726 34.0494C45.1555 33.6162 44.2937 33.3563 43.1734 33.3563H38.6923L38.1752 39.5077H42.6564C45.1555 39.421 46.4482 38.3814 46.4482 36.2154Z" fill="white"/>
<path d="M104.273 50.5968C103.928 50.2502 103.756 49.6437 103.842 48.9506L105.135 31.9694C105.221 31.2763 105.393 30.6698 105.824 30.3233C106.255 29.9767 106.772 29.7168 107.462 29.7168H113.494C115.648 29.7168 117.458 30.15 119.009 30.9297C120.561 31.7095 121.767 32.9224 122.629 34.3953C123.491 35.8682 123.921 37.6876 123.921 39.6803C123.921 42.1061 123.491 44.0988 122.543 45.8316C121.595 47.5644 120.302 48.864 118.578 49.7304C116.855 50.5968 114.701 51.1166 112.288 51.1166H105.824C105.221 51.2032 104.618 51.03 104.273 50.5968ZM111.943 47.3911C114.442 47.3911 116.252 46.7846 117.458 45.4851C118.665 44.1855 119.268 42.2794 119.268 39.7669C119.268 37.7742 118.751 36.2147 117.631 35.175C116.596 34.1354 114.959 33.6155 112.891 33.6155H109.702L108.668 47.3911H111.943Z" fill="white"/>
<path d="M157.442 30.2354C157.787 30.6686 157.959 31.1884 157.873 31.8815L156.494 49.2093C156.408 49.9024 156.236 50.4222 155.805 50.7688C155.374 51.1153 154.943 51.3753 154.254 51.3753C153.651 51.3753 153.133 51.202 152.789 50.7688C152.444 50.3356 152.272 49.8158 152.358 49.2093L153.22 38.4661L148.308 46.5235C147.963 47.0433 147.618 47.4765 147.273 47.7364C146.929 47.9963 146.498 48.083 146.067 48.083C145.636 48.083 145.205 47.9963 144.861 47.7364C144.516 47.4765 144.257 47.1299 143.999 46.5235L140.293 38.6393L139.604 49.2093C139.604 49.8158 139.345 50.4222 138.914 50.7688C138.483 51.1153 137.966 51.3753 137.363 51.3753C136.76 51.3753 136.243 51.202 135.898 50.7688C135.553 50.4222 135.381 49.8158 135.467 49.2093L136.846 31.8815C136.932 31.1884 137.191 30.6686 137.622 30.2354C138.053 29.8022 138.656 29.6289 139.259 29.6289C140.207 29.6289 140.896 30.1487 141.327 31.1884L146.498 42.7114L153.564 31.1884C154.168 30.1487 155.029 29.6289 155.891 29.6289C156.494 29.6289 157.011 29.8022 157.442 30.2354Z" fill="white"/>
<path d="M180.797 49.2959C180.797 49.9024 180.539 50.3356 180.108 50.7688C179.591 51.202 179.074 51.3753 178.471 51.3753C178.04 51.3753 177.695 51.2886 177.35 51.0287C177.006 50.8554 176.747 50.5089 176.661 50.0757L175.368 46.5235H165.458L163.648 50.0757C163.39 50.5089 163.131 50.8554 162.786 51.0287C162.442 51.202 162.097 51.3753 161.666 51.3753C161.063 51.3753 160.632 51.202 160.201 50.8554C159.77 50.5089 159.512 49.989 159.512 49.4692C159.512 49.1226 159.598 48.7761 159.856 48.4295L169.077 31.1884C169.336 30.6686 169.681 30.322 170.198 30.0621C170.628 29.8022 171.146 29.6289 171.663 29.6289C172.18 29.6289 172.697 29.8022 173.128 30.0621C173.558 30.322 173.903 30.6686 174.076 31.1884L180.711 48.6894C180.797 48.8627 180.797 49.1226 180.797 49.2959ZM167.268 42.8846H174.162L171.318 34.8272L167.268 42.8846Z" fill="white"/>
<path d="M200.617 48.3436C200.79 48.6901 200.876 49.0367 200.876 49.2966C200.876 49.9031 200.617 50.4229 200.1 50.7695C199.583 51.116 199.066 51.376 198.463 51.376C198.032 51.376 197.687 51.2893 197.256 51.0294C196.912 50.7695 196.653 50.5096 196.395 49.9897L193.551 44.1849C193.292 43.6651 192.948 43.3185 192.603 43.0586C192.258 42.7987 191.741 42.7121 191.138 42.7121H188.725L188.294 48.8634C188.208 49.5565 187.949 50.163 187.519 50.5962C187.088 51.0294 186.484 51.2027 185.795 51.2027C185.106 51.2027 184.502 51.0294 184.158 50.5962C183.813 50.163 183.641 49.5565 183.641 48.8634L184.933 31.7956C185.019 31.1025 185.192 30.496 185.623 30.1494C186.054 29.8029 186.571 29.543 187.26 29.543H194.93C197.17 29.543 198.894 30.0628 200.1 31.1891C201.307 32.3154 201.91 33.7883 201.91 35.6943C201.91 37.6004 201.479 39.0732 200.531 40.1995C199.583 41.3259 198.204 42.019 196.309 42.3655C196.826 42.5388 197.257 42.7987 197.601 43.1453C197.946 43.4918 198.291 44.0117 198.635 44.6181L200.617 48.3436ZM193.982 39.2465C195.188 39.2465 196.05 38.9866 196.653 38.4668C197.256 37.9469 197.601 37.1672 197.601 36.1275C197.601 35.1745 197.343 34.4814 196.826 34.0482C196.309 33.615 195.533 33.3551 194.413 33.3551H189.414L188.984 39.2465H193.982Z" fill="white"/>
<path d="M221.558 47.9963C221.817 48.3429 221.989 48.6894 221.989 49.1226C221.989 49.7291 221.731 50.1623 221.3 50.6821C220.869 51.1153 220.352 51.3753 219.749 51.3753C219.145 51.3753 218.542 51.1153 218.111 50.5955L210.097 41.4984L209.494 49.2093C209.407 49.9024 209.149 50.5089 208.718 50.9421C208.287 51.3753 207.684 51.5485 206.908 51.5485C206.219 51.5485 205.616 51.3753 205.271 50.9421C204.926 50.5089 204.754 49.9024 204.754 49.2093L206.047 32.1414C206.133 31.4483 206.391 30.8418 206.822 30.4953C207.253 30.0621 207.856 29.8888 208.546 29.8888C209.321 29.8888 209.838 30.0621 210.269 30.4953C210.7 30.9285 210.786 31.4483 210.786 32.2281L210.183 39.5057L219.232 30.322C219.749 29.8022 220.266 29.6289 220.783 29.6289C221.3 29.6289 221.731 29.8022 222.162 30.2354C222.506 30.5819 222.679 31.1018 222.679 31.6216C222.679 32.2281 222.42 32.8345 221.903 33.3544L214.75 40.2855L221.558 47.9963Z" fill="white"/>
<path d="M231.124 33.4423L230.693 38.4673H238.449C239.138 38.4673 239.655 38.6406 240 38.9005C240.345 39.1604 240.517 39.5936 240.517 40.2001C240.517 41.4997 239.742 42.1928 238.19 42.1928H230.434L230.004 47.5644H238.363C239.052 47.5644 239.569 47.7377 239.914 47.9976C240.259 48.3441 240.431 48.6907 240.431 49.2972C240.431 50.5968 239.655 51.2032 238.018 51.2032H227.332C226.643 51.2032 226.126 51.03 225.781 50.5968C225.436 50.2502 225.264 49.6437 225.35 48.9506L226.643 31.9694C226.729 31.2763 226.901 30.6698 227.332 30.3233C227.763 29.9767 228.28 29.7168 228.97 29.7168H239.655C240.345 29.7168 240.862 29.8901 241.207 30.15C241.551 30.4965 241.724 30.8431 241.724 31.3629C241.724 32.6625 240.948 33.3556 239.397 33.3556H231.124V33.4423Z" fill="white"/>
<path d="M249.049 50.6834C248.618 50.2502 248.445 49.7304 248.532 48.9506L249.738 33.5289H244.826C244.137 33.5289 243.62 33.3556 243.275 33.0957C242.93 32.7492 242.758 32.316 242.758 31.7961C242.758 31.103 242.93 30.4965 243.361 30.2366C243.792 29.9767 244.309 29.7168 245.171 29.7168H259.735C261.113 29.7168 261.803 30.3233 261.803 31.5362C261.803 32.2293 261.63 32.7492 261.2 33.0957C260.855 33.4423 260.252 33.6155 259.39 33.6155H254.478L253.271 49.0373C253.185 49.7304 252.927 50.3368 252.496 50.6834C252.065 51.1166 251.462 51.2899 250.772 51.2899C249.997 51.3765 249.393 51.1166 249.049 50.6834Z" fill="white"/>
<path d="M265.078 50.9428C263.786 50.5962 262.665 50.163 261.804 49.6432C261.459 49.3833 261.2 49.1233 261.028 48.7768C260.856 48.4302 260.77 48.0837 260.77 47.7371C260.77 47.2173 260.942 46.7841 261.2 46.4375C261.459 46.091 261.89 45.9177 262.407 45.9177C262.838 45.9177 263.182 46.0043 263.613 46.2643C264.303 46.6975 265.165 47.044 266.199 47.3906C267.233 47.6505 268.353 47.8238 269.56 47.8238C270.852 47.8238 271.886 47.6505 272.576 47.2173C273.265 46.7841 273.61 46.2643 273.61 45.4845C273.61 44.9647 273.437 44.5315 273.093 44.1849C272.748 43.8384 272.231 43.5785 271.628 43.3185C271.025 43.0586 270.249 42.7987 269.215 42.5388C267.75 42.1056 266.543 41.6724 265.595 41.2392C264.647 40.806 263.872 40.1995 263.182 39.3332C262.493 38.4668 262.148 37.4271 262.148 36.1275C262.148 34.8279 262.493 33.615 263.269 32.662C263.958 31.6223 264.992 30.8426 266.371 30.3227C267.75 29.8029 269.215 29.543 271.025 29.543C272.49 29.543 273.868 29.7162 275.161 30.0628C276.454 30.4094 277.488 30.9292 278.263 31.5357C278.78 31.8822 279.039 32.4887 279.039 33.0952C279.039 33.615 278.867 34.0482 278.522 34.3947C278.177 34.7413 277.746 35.0012 277.315 35.0012C276.885 35.0012 276.454 34.8279 276.023 34.568C275.42 34.1348 274.644 33.7883 273.696 33.5284C272.748 33.2684 271.886 33.0952 270.852 33.0952C269.56 33.0952 268.612 33.3551 267.836 33.7883C267.147 34.2215 266.802 34.8279 266.802 35.6077C266.802 36.1275 266.974 36.6474 267.405 36.9939C267.836 37.3405 268.267 37.687 268.87 37.8603C269.473 38.1202 270.249 38.3801 271.369 38.64C272.834 39.0732 274.041 39.5064 274.902 39.9396C275.85 40.3728 276.626 40.9793 277.315 41.759C278.005 42.5388 278.263 43.5785 278.263 44.878C278.263 46.9574 277.488 48.5169 275.937 49.7298C274.385 50.8561 272.145 51.4626 269.387 51.4626C267.922 51.4626 266.457 51.2893 265.078 50.9428Z" fill="white"/>
<path d="M67.0468 38.6417C67.0468 38.9016 67.0468 39.1615 66.9606 39.3348C66.9606 39.4214 66.8744 39.5081 66.8744 39.5947C66.7882 39.768 66.6159 39.9413 66.4435 40.1145C66.0988 40.3745 65.7541 40.5477 65.1509 40.5477C65.0647 40.5477 64.9785 40.5477 64.8924 40.5477C64.8062 40.5477 64.72 40.5477 64.6338 40.5477C64.6338 40.5477 63.255 40.5477 61.0144 40.5477C61.0144 40.5477 59.6356 40.5477 58.9462 40.5477C57.7397 40.3745 57.2227 39.768 57.2227 38.6417C57.2227 38.3818 57.2227 38.2085 57.3088 37.9486C57.3088 37.9486 57.3088 37.8619 57.395 37.7753C57.4812 37.6887 57.5674 37.5154 57.6535 37.4287C57.9982 37.0822 58.4291 36.9089 59.0324 36.8223C59.1185 36.8223 59.2047 36.8223 59.2909 36.8223H64.8062C64.8924 36.8223 64.9785 36.8223 65.0647 36.8223C65.6679 36.8223 66.0988 36.9955 66.4435 37.2555C66.6159 37.4287 66.7021 37.5154 66.7882 37.6887L66.8744 37.7753C66.9606 38.1218 67.0468 38.3818 67.0468 38.6417Z" fill="white"/>
<path d="M81.6097 11.8698C81.6097 11.2633 81.5235 10.8302 81.265 10.4836C81.1788 10.3103 81.0064 10.2237 80.8341 10.137C80.8341 10.137 80.7479 10.0504 80.6617 10.0504C80.4894 9.96377 80.2308 9.87713 79.9723 9.87713C79.2829 9.79049 78.7658 9.96377 78.4211 10.397C78.5073 10.397 78.4211 10.4836 78.4211 10.5702L62.0476 29.7174C61.9614 29.8041 61.9614 29.8041 61.9614 29.8907L61.8752 29.9773C61.7891 30.1506 61.7891 30.4105 61.7891 30.6704C61.7891 31.97 62.5647 32.6631 64.1158 32.6631H64.4605H69.9758C71.527 32.6631 72.3026 31.97 72.3026 30.6704C72.3026 30.4105 72.3026 30.1506 72.1302 29.9773C72.1302 29.8907 72.1302 29.8907 72.0441 29.8907C71.9579 29.7174 71.8717 29.5441 71.6994 29.4575C71.3547 29.1976 70.9238 29.0243 70.4067 29.0243C70.3205 29.0243 70.2344 29.0243 70.1482 29.0243H67.6491L77.5594 17.7613L77.387 20.4471L76.6976 30.4105H78.1626C78.5935 30.4105 79.0244 30.3239 79.3691 30.1506C79.3691 30.1506 79.4552 30.1506 79.5414 30.064C79.6276 29.9773 79.7999 29.8907 79.8861 29.8041C80.2308 29.4575 80.4894 29.0243 80.5755 28.4178C80.5755 28.3312 80.5755 28.2446 80.5755 28.1579L81.6097 13.1694L81.6958 12.1297C81.6097 12.0431 81.6097 11.9565 81.6097 11.8698Z" fill="white"/>
<path d="M76.0083 48.0843C76.0083 47.5645 75.836 47.218 75.6636 46.8714L75.5774 46.7848C75.4913 46.6981 75.4913 46.6115 75.4051 46.5249L75.3189 46.4382C74.9742 46.0917 74.4571 45.9184 73.9401 45.8317C73.8539 45.8317 73.7677 45.8317 73.6816 45.8317H66.8736H58.6868L61.186 42.9727H55.7568C54.8951 44.0123 54.0333 44.9654 53.2577 45.8317C53.0854 46.005 52.913 46.2649 52.7407 46.4382C52.4821 46.6981 52.3098 46.958 52.0513 47.218C51.9651 47.3912 51.8789 47.5645 51.8789 47.7378C51.8789 47.8244 51.8789 47.9977 51.8789 48.0843C51.9651 48.4309 52.0513 48.6908 52.3098 48.9507C52.6545 49.2973 53.1716 49.5572 53.861 49.5572H69.4589H73.2507H76.0945L76.0083 48.0843Z" fill="white"/>
<path d="M85.7461 44.7928C85.7461 44.5329 85.7461 44.2729 85.8323 44.0997C85.8323 44.013 85.9184 43.9264 85.9184 43.8397C86.0046 43.6665 86.177 43.4932 86.3493 43.3199C86.694 43.06 87.0387 42.8867 87.642 42.8867C87.7281 42.8867 87.8143 42.8867 87.9005 42.8867C87.9867 42.8867 88.0729 42.8867 88.159 42.8867C88.159 42.8867 89.5379 42.8867 91.7784 42.8867C91.7784 42.8867 93.1573 42.8867 93.8467 42.8867C95.0532 43.06 95.5702 43.6665 95.5702 44.7928C95.5702 45.0527 95.5702 45.226 95.484 45.4859C95.484 45.4859 95.484 45.5725 95.3979 45.6592C95.3117 45.7458 95.2255 45.9191 95.1393 46.0057C94.7946 46.3523 94.3637 46.5255 93.7605 46.6122C93.6743 46.6122 93.5882 46.6122 93.502 46.6122H87.9005C87.8143 46.6122 87.7281 46.6122 87.642 46.6122C87.0387 46.6122 86.6079 46.4389 86.2632 46.179C86.0908 46.0057 86.0046 45.9191 85.9184 45.7458L85.8323 45.6592C85.7461 45.226 85.7461 45.0527 85.7461 44.7928Z" fill="white"/>
<path d="M100.225 35.0015C100.139 34.7415 100.053 34.395 99.7942 34.2217C99.4495 33.8752 98.9324 33.6152 98.243 33.6152H96.8642H77.4745C77.3883 33.6152 77.3021 33.6152 77.216 33.6152C76.6127 33.7019 76.1818 33.8752 75.8371 34.2217C75.751 34.3083 75.6648 34.395 75.5786 34.5683C75.5786 34.5683 75.4924 34.6549 75.4924 34.7415C75.4062 34.9148 75.4062 35.1747 75.4062 35.4347C75.4062 36.7342 76.1818 37.4273 77.733 37.4273H93.4171L90.918 40.2864H96.3471C97.2089 39.2468 98.0707 38.2937 98.8462 37.4273C99.0186 37.2541 99.191 36.9941 99.3633 36.8209C99.6218 36.561 99.8804 36.301 100.053 36.0411C100.139 35.8678 100.225 35.6946 100.225 35.5213C100.225 35.2614 100.225 35.1747 100.225 35.0015Z" fill="white"/>
<path d="M88.6738 50.6836H88.329H82.8137C81.2626 50.6836 80.487 51.3767 80.487 52.6763C80.487 52.9362 80.487 53.1961 80.6593 53.3694C80.6593 53.456 80.6593 53.456 80.7455 53.456C80.8317 53.6293 80.9179 53.8026 81.0902 53.8892C81.4349 54.1491 81.8658 54.3224 82.3829 54.3224C82.469 54.3224 82.5552 54.3224 82.6414 54.3224H85.1405L75.2302 65.5855L75.4026 62.8997L76.092 52.9362H74.627C74.1961 52.9362 73.7652 53.0228 73.4205 53.1961C73.4205 53.1961 73.3343 53.1961 73.2482 53.2828C73.162 53.3694 72.9896 53.456 72.9035 53.5427C72.5587 53.8892 72.3002 54.3224 72.214 54.9289C72.214 55.0155 72.214 55.1022 72.214 55.1888L71.1799 70.1773L71.0938 71.217C71.0938 71.3036 71.0938 71.3903 71.0938 71.4769C71.0938 72.0834 71.1799 72.5166 71.4385 72.8631C71.5246 73.0364 71.697 73.1231 71.8693 73.2097C71.8693 73.2097 71.9555 73.2963 72.0417 73.2963C72.214 73.383 72.4726 73.4696 72.7311 73.4696C73.4205 73.5562 73.9376 73.383 74.2823 72.9498C74.3685 72.8631 74.3685 72.8631 74.4546 72.7765L90.8282 53.6293C90.9143 53.5427 90.9143 53.5427 90.9143 53.456L91.0005 53.3694C91.0867 53.1961 91.0867 52.9362 91.0867 52.6763C91.0867 51.3767 90.3111 50.6836 88.6738 50.6836Z" fill="white"/>
</svg>
