<?xml version="1.0" encoding="utf-8"?>
<!-- Generator: Adobe Illustrator 26.0.3, SVG Export Plug-In . SVG Version: 6.00 Build 0)  -->
<!DOCTYPE svg PUBLIC "-//W3C//DTD SVG 1.1//EN" "http://www.w3.org/Graphics/SVG/1.1/DTD/svg11.dtd" [
	<!ENTITY ns_extend "http://ns.adobe.com/Extensibility/1.0/">
	<!ENTITY ns_ai "http://ns.adobe.com/AdobeIllustrator/10.0/">
	<!ENTITY ns_graphs "http://ns.adobe.com/Graphs/1.0/">
	<!ENTITY ns_vars "http://ns.adobe.com/Variables/1.0/">
	<!ENTITY ns_imrep "http://ns.adobe.com/ImageReplacement/1.0/">
	<!ENTITY ns_sfw "http://ns.adobe.com/SaveForWeb/1.0/">
	<!ENTITY ns_custom "http://ns.adobe.com/GenericCustomNamespace/1.0/">
	<!ENTITY ns_adobe_xpath "http://ns.adobe.com/XPath/1.0/">
]>
<svg version="1.1" id="Layer_1" xmlns:x="&ns_extend;" xmlns:i="&ns_ai;" xmlns:graph="&ns_graphs;"
	 xmlns="http://www.w3.org/2000/svg" xmlns:xlink="http://www.w3.org/1999/xlink" x="0px" y="0px" viewBox="0 0 321 81.1"
	 style="enable-background:new 0 0 321 81.1;" xml:space="preserve">
<style type="text/css">
	.st0{fill:#FFFFFF;}
</style>
<metadata>
	<sfw  xmlns="&ns_sfw;">
		<slices></slices>
		<sliceSourceBounds  bottomLeftOrigin="true" height="68.2" width="313.8" x="3.6" y="-84.6"></sliceSourceBounds>
	</sfw>
</metadata>
<g>
	<path class="st0" d="M23.9,31.5c-0.9-0.7-2.1-1.3-3.6-1.7c-1.5-0.4-3.1-0.6-4.8-0.6c-2.1,0-3.8,0.3-5.4,0.9
		c-1.6,0.6-2.8,1.5-3.6,2.7c-0.9,1.1-1.3,2.5-1.3,4s0.4,2.7,1.2,3.7c0.8,1,1.7,1.7,2.8,2.2c1.1,0.5,2.5,1,4.2,1.5
		c1.2,0.3,2.1,0.6,2.8,0.9c0.7,0.3,1.3,0.6,1.7,1c0.4,0.4,0.6,0.9,0.6,1.5c0,0.9-0.4,1.5-1.2,2s-2,0.7-3.5,0.7
		c-1.4,0-2.7-0.2-3.9-0.5c-1.2-0.4-2.2-0.8-3-1.3c-0.5-0.3-0.9-0.4-1.4-0.4c-0.6,0-1.1,0.2-1.4,0.6c-0.3,0.4-0.5,0.9-0.5,1.5
		c0,0.4,0.1,0.8,0.2,1.2c0.2,0.4,0.5,0.7,0.9,1c1,0.6,2.3,1.1,3.8,1.5c1.6,0.4,3.2,0.6,5.1,0.6c3.2,0,5.8-0.7,7.6-2
		c1.8-1.4,2.7-3.2,2.7-5.6c0-1.5-0.3-2.7-1.1-3.6c-0.8-0.9-1.7-1.6-2.8-2.1c-1-0.5-2.4-1-4.1-1.5c-1.3-0.3-2.2-0.6-2.9-0.9
		c-0.7-0.2-1.2-0.6-1.7-1c-0.5-0.4-0.7-1-0.7-1.6c0-0.9,0.4-1.6,1.2-2.1c0.9-0.5,2-0.8,3.5-0.8c1.2,0,2.2,0.2,3.3,0.5
		c1.1,0.4,2,0.7,2.7,1.2c0.5,0.3,1,0.5,1.5,0.5s1-0.3,1.4-0.7c0.4-0.4,0.6-0.9,0.6-1.5C24.8,32.6,24.5,31.9,23.9,31.5z"/>
	<path class="st0" d="M46.4,31.4c-1.5-1.3-3.5-2-6.2-2h-8.4c-0.8,0-1.4,0.3-1.9,0.7c-0.5,0.4-0.7,1.1-0.8,1.9l-1.5,19.7
		c0,0.8,0.2,1.5,0.6,2c0.4,0.5,1.1,0.7,1.9,0.7c0.9,0,1.6-0.2,2.1-0.7s0.8-1.2,0.9-2l0.5-6.8h6c2.9,0,5.1-0.7,6.7-2.1
		c1.5-1.4,2.3-3.5,2.3-6.1C48.6,34.5,47.9,32.7,46.4,31.4z M39.1,40.8h-5.2l0.6-7.1h5.2c1.3,0,2.3,0.3,2.9,0.8
		c0.6,0.5,0.9,1.4,0.9,2.5C43.5,39.5,42,40.7,39.1,40.8z"/>
	<path class="st0" d="M131.7,30.9c-1.8-0.9-3.9-1.4-6.4-1.4h-7c-0.8,0-1.4,0.3-1.9,0.7c-0.5,0.4-0.7,1.1-0.8,1.9l-1.5,19.6
		c-0.1,0.8,0.1,1.5,0.5,1.9c0.4,0.5,1.1,0.7,1.8,0.6h7.5c2.8,0,5.3-0.6,7.3-1.6s3.5-2.5,4.6-4.5c1.1-2,1.6-4.3,1.6-7.1
		c0-2.3-0.5-4.4-1.5-6.1S133.5,31.8,131.7,30.9z M129.9,47.7c-1.4,1.5-3.5,2.2-6.4,2.2h-3.8l1.2-15.9h3.7c2.4,0,4.3,0.6,5.5,1.8
		c1.3,1.2,1.9,3,1.9,5.3C132,44,131.3,46.2,129.9,47.7z"/>
	<path class="st0" d="M174.5,29.4c-1,0-2,0.6-2.7,1.8l-8.2,13.3l-6-13.3c-0.5-1.2-1.3-1.8-2.4-1.8c-0.7,0-1.4,0.2-1.9,0.7
		s-0.8,1.1-0.9,1.9l-1.6,20c-0.1,0.7,0.1,1.4,0.5,1.8c0.4,0.5,1,0.7,1.7,0.7c0.7,0,1.3-0.3,1.8-0.7c0.5-0.4,0.8-1.1,0.8-1.8
		l0.8-12.2l4.3,9.1c0.3,0.7,0.6,1.1,1,1.4c0.4,0.3,0.9,0.4,1.4,0.4s1-0.1,1.4-0.4c0.4-0.3,0.8-0.8,1.2-1.4l5.7-9.3l-1,12.4
		c-0.1,0.7,0.1,1.3,0.5,1.8c0.4,0.5,1,0.7,1.7,0.7c0.8,0,1.3-0.3,1.8-0.7c0.5-0.4,0.7-1,0.8-1.8l1.6-20c0.1-0.8-0.1-1.4-0.5-1.9
		C175.8,29.6,175.2,29.4,174.5,29.4z"/>
	<path class="st0" d="M195.6,31.2c-0.2-0.6-0.6-1-1.1-1.3s-1.1-0.5-1.7-0.5c-0.6,0-1.2,0.2-1.7,0.5c-0.6,0.3-1,0.7-1.3,1.3
		l-10.7,19.9c-0.3,0.4-0.4,0.8-0.4,1.2c0,0.6,0.3,1.2,0.8,1.6s1,0.6,1.7,0.6c0.5,0,0.9-0.2,1.3-0.4c0.4-0.2,0.7-0.6,1-1.1l2.1-4.1
		h11.5l1.5,4.1c0.1,0.5,0.4,0.9,0.8,1.1c0.4,0.3,0.8,0.4,1.3,0.4c0.7,0,1.3-0.2,1.9-0.7c0.5-0.5,0.8-1,0.8-1.7c0-0.2,0-0.5-0.1-0.7
		L195.6,31.2z M187.7,44.7l4.7-9.3l3.3,9.3H187.7z"/>
	<path class="st0" d="M227.9,36.4c0-2.2-0.7-3.9-2.1-5.2c-1.4-1.3-3.4-1.9-6-1.9h-8.9c-0.8,0-1.4,0.3-1.9,0.7
		c-0.5,0.4-0.7,1.1-0.8,1.9l-1.5,19.7c0,0.8,0.2,1.5,0.6,2c0.4,0.5,1.1,0.7,1.9,0.7c0.8,0,1.5-0.2,2-0.7s0.8-1.2,0.9-2l0.5-7.1h2.8
		c0.7,0,1.3,0.1,1.7,0.4c0.4,0.3,0.8,0.7,1.1,1.3l3.3,6.7c0.3,0.6,0.6,0.9,1,1.2c0.5,0.3,0.9,0.4,1.4,0.4c0.7,0,1.3-0.3,1.9-0.7
		c0.6-0.4,0.9-1,0.9-1.7c0-0.3-0.1-0.7-0.3-1.1l-2.3-4.3c-0.4-0.7-0.8-1.3-1.2-1.7c-0.4-0.4-0.9-0.7-1.5-0.9
		c2.2-0.4,3.8-1.2,4.9-2.5C227.4,40.3,227.9,38.6,227.9,36.4z M221.8,39.6c-0.7,0.6-1.7,0.9-3.1,0.9h-5.8l0.5-6.8h5.8
		c1.3,0,2.2,0.3,2.8,0.8s0.9,1.3,0.9,2.4C222.9,38.1,222.5,39,221.8,39.6z"/>
	<path class="st0" d="M252,31.7c0-0.6-0.2-1.2-0.6-1.6c-0.5-0.5-1-0.7-1.6-0.7c-0.6,0-1.2,0.2-1.8,0.8l-10.5,10.6l0.7-8.4
		c0-0.9-0.1-1.5-0.6-2s-1.1-0.7-2-0.7c-0.8,0-1.5,0.2-2,0.7c-0.5,0.4-0.8,1.1-0.9,1.9L231.2,52c0,0.8,0.2,1.5,0.6,2
		c0.4,0.5,1.1,0.7,1.9,0.7c0.9,0,1.6-0.2,2.1-0.7s0.8-1.2,0.9-2l0.7-8.9l9.3,10.5c0.5,0.6,1.2,0.9,1.9,0.9c0.7,0,1.3-0.3,1.8-0.8
		c0.5-0.6,0.8-1.1,0.8-1.8c0-0.5-0.2-0.9-0.5-1.3l-7.9-8.9l8.3-8C251.7,33.1,252,32.4,252,31.7z"/>
	<path class="st0" d="M271.7,29.5h-12.4c-0.8,0-1.4,0.3-1.9,0.7s-0.7,1.1-0.8,1.9l-1.5,19.6c-0.1,0.8,0.1,1.5,0.5,1.9
		c0.4,0.5,1,0.7,1.8,0.7h12.4c1.9,0,2.8-0.7,2.8-2.2c0-0.7-0.2-1.1-0.6-1.5c-0.4-0.3-1-0.5-1.8-0.5h-9.7l0.5-6.2h9
		c1.8,0,2.7-0.8,2.7-2.3c0-0.7-0.2-1.2-0.6-1.5c-0.4-0.3-1-0.5-1.8-0.5h-9l0.5-5.8v-0.1h9.6c1.8,0,2.7-0.8,2.7-2.3
		c0-0.6-0.2-1-0.6-1.4C273.1,29.7,272.5,29.5,271.7,29.5z"/>
	<path class="st0" d="M297.4,31.6c0-1.4-0.8-2.1-2.4-2.1h-16.9c-1,0-1.6,0.3-2.1,0.6s-0.7,1-0.7,1.8c0,0.6,0.2,1.1,0.6,1.5
		c0.4,0.3,1,0.5,1.8,0.5h5.7L282,51.7c-0.1,0.9,0.1,1.5,0.6,2c0.4,0.5,1.1,0.8,2,0.7c0.8,0,1.5-0.2,2-0.7c0.5-0.4,0.8-1.1,0.9-1.9
		l1.4-17.8h5.7c1,0,1.7-0.2,2.1-0.6C297.2,33,297.4,32.4,297.4,31.6z"/>
	<path class="st0" d="M304.4,34.2c0.9-0.5,2-0.8,3.5-0.8c1.2,0,2.2,0.2,3.3,0.5c1.1,0.3,2,0.7,2.7,1.2c0.5,0.3,1,0.5,1.5,0.5
		s1-0.3,1.4-0.7c0.4-0.4,0.6-0.9,0.6-1.5c0-0.7-0.3-1.4-0.9-1.8c-0.9-0.7-2.1-1.3-3.6-1.7c-1.5-0.4-3.1-0.6-4.8-0.6
		c-2.1,0-3.8,0.3-5.4,0.9c-1.6,0.6-2.8,1.5-3.6,2.7c-0.9,1.1-1.3,2.5-1.3,4s0.4,2.7,1.2,3.7s1.7,1.7,2.8,2.2c1.1,0.5,2.5,1,4.2,1.5
		c1.2,0.3,2.1,0.6,2.8,0.9s1.3,0.6,1.7,1c0.4,0.4,0.6,0.9,0.6,1.5c0,0.9-0.4,1.5-1.2,2s-2,0.7-3.5,0.7c-1.4,0-2.7-0.2-3.9-0.5
		c-1.2-0.4-2.2-0.8-3-1.3c-0.5-0.3-0.9-0.4-1.4-0.4c-0.6,0-1.1,0.2-1.4,0.6c-0.3,0.4-0.5,0.9-0.5,1.5c0,0.4,0.1,0.8,0.3,1.2
		c0.2,0.4,0.5,0.7,0.9,1c1,0.6,2.3,1.1,3.8,1.5c1.6,0.4,3.3,0.6,5,0.6c3.2,0,5.8-0.7,7.6-2c1.8-1.4,2.7-3.2,2.7-5.6
		c0-1.5-0.3-2.7-1.1-3.6c-0.8-0.9-1.7-1.6-2.8-2.1c-1-0.5-2.4-1-4.1-1.5c-1.3-0.3-2.2-0.6-2.9-0.9c-0.7-0.2-1.2-0.6-1.7-1
		c-0.5-0.4-0.7-1-0.7-1.6C303.2,35.4,303.6,34.7,304.4,34.2z"/>
	<path class="st0" d="M56,42c0.8,0.1,19.2,0,19.3,0c1.1,0,2.1-0.7,2.2-1.9c0.1-0.7-0.1-1.5-0.7-1.9c-0.4-0.3-0.9-0.5-1.6-0.5
		c-0.1,0-16.4-0.1-17.7-0.1c-1,0-2.2,0-3,0.8c-0.6,0.6-0.6,1.7-0.3,2.4C54.5,41.6,55.2,41.9,56,42z"/>
	<path class="st0" d="M75.3,49.3c-0.5-0.7-1.2-1.3-2.2-1.3h-7.9h-9.5l2.9-3.3c0,0-6.3,0-6.3,0c-1,1.1-2.1,2.2-3,3.3
		c-0.8,1-2.2,2.4-1,3.6c0.4,0.4,1,0.7,1.8,0.7h18.1h4.4c0,0,3.3,0,3.3,0c0.1,0-0.1-1.6-0.2-1.8C75.7,50.2,75.5,49.7,75.3,49.3z"/>
	<path class="st0" d="M103.3,37.6c-0.8-0.1-17.9,0.2-18,0.2c-0.7,0-1.1,0.2-1.5,0.5c-0.7,0.6-0.9,1.8-0.5,2.6
		c0.4,0.8,1.3,1.2,2.1,1.2c0.1,0,0.2,0,0.3,0l17.2-0.2c0.1,0,0.2,0,0.3,0c1,0,1.9-0.8,2.1-1.8C105.5,38.8,104.6,37.8,103.3,37.6z"/>
	<path class="st0" d="M97,48.2h-0.4c0,0-13.4,0-13.4,0c-0.9,0-2,0.2-2.4,1.1c-0.8,1.5,0.3,3.1,1.9,3.1c0.1,0,0.2,0,0.3,0l7.1,0
		c-0.2,0.3-10,17.5-11.3,19.6c-1.2,2-0.5,3.5,1.2,2.2c0.1-0.1,0.2-0.2,0.3-0.3c0,0,0.2-0.3,0.2-0.3c0.2-0.3,0.5-0.5,0.7-0.8
		c0.4-0.4,0.7-0.8,1.1-1.3c0.5-0.5,0.9-1.1,1.4-1.6c0.5-0.6,1.1-1.3,1.6-1.9c0.6-0.7,1.2-1.4,1.8-2.1c0.6-0.7,1.3-1.5,1.9-2.2
		c0.6-0.7,1.3-1.5,1.9-2.2c0.6-0.7,1.3-1.5,1.9-2.2c0.6-0.7,1.2-1.4,1.8-2.1c0.5-0.6,1.1-1.2,1.6-1.9c0.4-0.5,0.9-1,1.3-1.6
		c0.8-0.9,2.1-2,2.1-3.2C99.7,49,98.8,48.2,97,48.2z"/>
	<path class="st0" d="M62,32.9h0.4c0,0,13.4,0,13.4,0c1,0,2-0.3,2.5-1.2c0.7-1.5-0.4-3-2-3c-0.1,0-0.2,0-0.3,0l-7.1,0
		c0.2-0.3,10-17.5,11.3-19.6c1.2-2,0.5-3.5-1.2-2.2c-0.1,0.1-0.2,0.2-0.3,0.3c0,0-0.2,0.3-0.2,0.3c-0.2,0.3-0.5,0.5-0.7,0.8
		c-0.4,0.4-0.7,0.8-1.1,1.3c-0.5,0.5-0.9,1.1-1.4,1.6c-0.5,0.6-1.1,1.3-1.6,1.9c-0.6,0.7-1.2,1.4-1.8,2.1c-0.6,0.7-1.3,1.5-1.9,2.2
		c-0.6,0.7-1.3,1.5-1.9,2.2c-0.6,0.7-1.3,1.5-1.9,2.2c-0.6,0.7-1.2,1.4-1.8,2.1c-0.5,0.6-1.1,1.2-1.6,1.9c-0.4,0.5-0.9,1-1.3,1.6
		c-0.8,0.9-2.1,2-2.1,3.2C59.3,32.1,60.2,32.9,62,32.9z"/>
	<path class="st0" d="M87.6,28.6c0.2,0,16.8-0.1,21-0.1c0.8,0,1.7,0,2.5,0c0.1,0-0.2,2.3-0.3,2.5c-0.3,1-1.2,1.8-2.2,1.8
		c-0.1,0-20.8,0-20.9,0c-1,0-1.9-0.8-2.1-1.8C85.4,29.7,86.4,28.7,87.6,28.6z"/>
</g>
</svg>
