<svg width="97" height="82" viewBox="0 0 97 82" fill="none" xmlns="http://www.w3.org/2000/svg">
<g filter="url(#filter0_d_403_1191)">
<path fill-rule="evenodd" clip-rule="evenodd" d="M33.7064 15.015C31.0956 15.18 28.9879 15.7114 26.8461 16.7449C22.8042 18.6953 19.5353 22.0894 16.8229 27.152C16.2177 28.2817 15.8438 29.1212 15.4932 30.1368C14.5799 32.7835 14.9463 34.8862 16.4981 35.9035L16.9002 36.167L16.9417 37.6575C16.9887 39.347 17.1367 40.2047 17.5741 41.3229C18.1971 42.9155 18.8993 43.758 20.8884 45.299C22.5533 46.5888 26.0254 47.6398 30.4486 48.1929C31.1653 48.2824 31.7636 48.3676 31.7782 48.3821C31.793 48.3965 31.9187 48.7429 32.0579 49.1516C32.197 49.5604 32.3961 50.0849 32.5005 50.3172L32.6901 50.7396L29.8447 52.7912C28.2798 53.9196 26.8884 54.9561 26.7527 55.0945C26.4682 55.3849 23.6935 60.6406 23.5923 61.0809C23.3365 62.1941 24.7583 62.9323 25.5555 62.1002C25.6858 61.9641 26.3535 60.7629 27.0392 59.4309C27.7249 58.0989 28.3586 56.9146 28.4475 56.7991C28.593 56.61 33.6762 52.8894 33.7938 52.8858C33.8839 52.8831 35.0901 54.5575 35.0473 54.6259C35.0242 54.6629 33.9429 55.4592 32.6445 56.3955C31.3462 57.3318 30.1784 58.2044 30.0493 58.3346C29.7662 58.6206 27.2013 63.5097 27.1406 63.8793C27.0868 64.2066 27.3303 64.7801 27.596 64.952C28.0999 65.278 28.6895 65.241 29.1045 64.8575C29.2339 64.7377 29.8197 63.695 30.5186 62.3399C31.1748 61.0675 31.7897 59.9569 31.885 59.8717C32.0441 59.7295 36.4533 56.5485 36.6799 56.4124C36.7828 56.3506 37.95 57.3146 37.9063 57.4252C37.894 57.4562 37.0182 58.1626 35.9601 58.995C34.9019 59.8274 33.9495 60.6236 33.8436 60.7644C33.7377 60.9051 33.1768 62.0392 32.5972 63.2845C31.5986 65.4299 31.545 65.5691 31.576 65.9387C31.6305 66.5866 32.0493 66.9748 32.7046 66.9845C32.9549 66.9882 33.1539 66.9367 33.3492 66.8175C33.6566 66.63 33.7112 66.5281 35.0526 63.6423L35.7335 62.1775L37.7451 60.5983C38.8514 59.7298 39.8198 58.9803 39.8969 58.9328C40.0131 58.861 40.1544 58.9104 40.7236 59.2216C42.8317 60.3742 44.9476 61.0165 47.2955 61.2163C48.494 61.3182 50.0112 61.2263 51.2598 60.9758C52.9124 60.6445 54.8759 59.9128 56.2566 59.1139C56.5068 58.9691 56.7525 58.8675 56.8026 58.8882C56.8527 58.9089 57.8209 59.6571 58.954 60.5509L61.0143 62.1761L62.0392 64.3606C62.6597 65.683 63.1403 66.6113 63.257 66.7128C64.0418 67.395 65.2951 66.776 65.1927 65.7568C65.1605 65.4349 64.0746 63.0007 63.1811 61.2473L62.8726 60.6418L60.8637 59.0525C59.7589 58.1783 58.8448 57.4441 58.8324 57.4208C58.8202 57.3974 59.0789 57.1469 59.4074 56.864L60.0048 56.3496L60.2889 56.5462C60.4452 56.6544 61.5561 57.4499 62.7576 58.314L64.9422 59.8851L65.615 61.1717C65.985 61.8792 66.5433 62.9521 66.8555 63.5556C67.1678 64.1592 67.5251 64.7495 67.6497 64.8672C68.09 65.2836 68.8469 65.2747 69.279 64.8481C69.5252 64.605 69.6829 64.107 69.6095 63.8044C69.5121 63.4027 66.9558 58.6022 66.6945 58.3302C66.5528 58.1828 65.3686 57.2973 64.063 56.3625C62.7574 55.4277 61.6882 54.6375 61.6869 54.6066C61.6848 54.5569 62.7497 53.1016 62.9121 52.9321C62.9467 52.896 64.1672 53.7243 65.6241 54.7728L68.2732 56.6794L69.2449 58.5471C70.9814 61.8849 71.1249 62.133 71.4134 62.2988C71.9783 62.6234 72.797 62.4046 73.0592 61.859C73.3237 61.3088 73.2644 61.1239 72.1131 58.912C70.4632 55.7421 70.297 55.4387 70.0555 55.1548C69.893 54.9639 65.106 51.4354 64.182 50.8253C64.1265 50.7887 64.1335 50.6938 64.2045 50.5226C64.2613 50.3855 64.4612 49.8465 64.6486 49.3251L64.9894 48.3769L66.4067 48.2072C70.8656 47.6731 74.4243 46.6068 76.1122 45.299C78.1014 43.758 78.8036 42.9155 79.4265 41.3229C79.8639 40.2047 80.0119 39.347 80.0589 37.6575L80.1004 36.167L80.5025 35.9035C82.044 34.8929 82.4141 32.8228 81.5259 30.18C81.1789 29.1479 80.5889 27.8775 79.8156 26.4979C74.9601 17.8354 67.9744 14.0128 59.2316 15.2344C57.8102 15.433 57.3914 15.7215 57.3311 16.5432C57.2729 17.3381 57.6002 17.6871 58.7217 18.026C62.2763 19.1001 64.9347 21.2529 65.6323 23.6223C65.7463 24.0094 65.9094 25.1835 65.8578 25.2467C65.8216 25.2912 63.9921 24.7328 62.7799 24.307C60.173 23.3916 58.6406 22.6172 57.5305 21.6539C56.797 21.0175 55.7716 21.2445 55.4337 22.118C55.2627 22.5602 55.307 22.7689 55.8725 24.1861C58.2047 30.0298 62.2579 35.026 66.9759 37.873L67.748 38.3389L66.9583 38.5783C66.0413 38.8562 64.6538 39.5118 64.0915 39.9328L63.7008 40.2255L63.1966 39.5731C62.1856 38.2654 60.5935 36.885 59.1152 36.0347L58.4749 35.6664L58.5172 35.356C58.5865 34.8467 58.4003 34.0045 58.0776 33.3678C57.7247 32.6716 57.1028 32.0218 56.4387 31.655C54.6317 30.6573 52.2757 31.2006 51.1713 32.8697L50.8382 33.3731L50.3621 33.326C49.738 33.2641 47.0186 33.2652 46.4021 33.3276L45.9196 33.3764L45.7099 33.023C45.2508 32.2497 44.3236 31.5606 43.3698 31.284C42.8423 31.131 41.8448 31.1287 41.2599 31.2791C40.1632 31.5612 39.2219 32.3246 38.6989 33.3562C38.3729 33.9995 38.1838 34.8402 38.2522 35.3432C38.2894 35.6167 38.2727 35.6537 38.0609 35.7681C37.4449 36.1009 36.2038 36.9575 35.5844 37.4772C34.7965 38.1384 34.2815 38.6687 33.6122 39.5081C33.1675 40.0658 33.1359 40.0897 32.9844 39.9837C32.1752 39.4176 30.9028 38.8257 29.809 38.5066L29.246 38.3424L29.9881 37.8956C31.6212 36.9126 32.948 35.8642 34.4762 34.3496C36.7402 32.1056 38.4652 29.7 40.0275 26.608C40.6934 25.2899 41.5524 23.2342 41.6435 22.7402C41.7543 22.1405 41.3126 21.4922 40.6783 21.3235C40.2171 21.2009 39.865 21.3331 39.2002 21.8789C38.4883 22.4632 37.5479 22.9818 36.0863 23.5958C35.0657 24.0246 31.9271 25.1013 31.3517 25.2201L31.1049 25.271L31.1507 24.7925C31.3202 23.0193 32.1728 21.5833 33.8429 20.2578C34.9572 19.3736 36.6681 18.5127 38.2789 18.026C39.4005 17.6871 39.7277 17.3381 39.6695 16.5432C39.6183 15.8442 39.2658 15.4965 38.4542 15.3446C37.2474 15.1186 34.7789 14.9472 33.7064 15.015ZM33.6789 17.488C32.4428 18.27 31.0726 19.4747 30.4345 20.3406C29.291 21.8921 28.7803 23.4424 28.7893 25.3342C28.7967 26.9114 28.9608 27.3906 29.6303 27.7899C30.0349 28.0312 29.9469 28.0442 32.1734 27.413C33.933 26.9142 35.557 26.3618 36.9389 25.7922C37.5219 25.5519 37.999 25.3727 37.999 25.3938C37.999 25.4727 36.9364 27.3652 36.5135 28.0395C34.6983 30.934 32.3101 33.4751 29.7205 35.2675C28.9858 35.7761 27.4557 36.6234 26.6137 36.988C26.2081 37.1636 25.8684 37.2957 25.8586 37.2815C24.9042 35.8851 23.8696 35.0089 22.5679 34.4941C21.3962 34.031 20.3658 33.9001 19.0001 34.0412L18.0746 34.1368L17.8099 33.9375C17.4463 33.6637 17.3515 33.331 17.3987 32.495C17.4498 31.5895 17.809 30.5046 18.5547 29.0029C21.4932 23.086 25.5052 19.3241 30.3337 17.9582C31.3516 17.6703 32.7835 17.4212 33.5148 17.4047C33.7795 17.3988 33.8019 17.4102 33.6789 17.488ZM65.0189 17.5852C70.532 18.4888 75.1883 22.4431 78.433 28.9769C79.1911 30.5036 79.5505 31.5853 79.6019 32.495C79.649 33.3295 79.5541 33.6638 79.1928 33.9359L78.9302 34.1337L77.9534 34.0394C75.2855 33.782 72.9541 34.7667 71.5336 36.7509C71.0891 37.3718 71.2031 37.3676 70.0013 36.8069C66.2108 35.0385 62.8433 31.8874 60.2899 27.7197C59.87 27.0343 59.0017 25.4669 59.0017 25.3942C59.0017 25.3728 59.4933 25.5585 60.094 25.8069C61.9943 26.5927 66.2229 27.9089 66.8471 27.9089C67.1853 27.9089 67.6765 27.6453 67.8731 27.3581C68.111 27.0107 68.2062 26.4418 68.2114 25.3342C68.219 23.737 67.9003 22.5307 67.1147 21.1828C66.3017 19.7878 65.3543 18.8632 63.3217 17.4812C63.2024 17.4001 63.2727 17.3915 63.7541 17.4282C64.0703 17.4523 64.6395 17.5229 65.0189 17.5852ZM43.0339 33.6676C44.0063 34.1324 44.2813 35.4124 43.5785 36.2027C43.2316 36.5928 42.7945 36.7934 42.2915 36.7934C41.5934 36.7934 41.0709 36.4465 40.7649 35.7799C40.508 35.2205 40.595 34.6291 41.0142 34.0865C41.4426 33.5319 42.3544 33.3428 43.0339 33.6676ZM55.2528 33.684C55.9145 34.026 56.2905 34.8797 56.0903 35.5856C55.7591 36.7537 54.3314 37.1877 53.4024 36.4026C52.2006 35.3869 52.9039 33.5097 54.4863 33.5095C54.7853 33.5094 55.0171 33.5623 55.2528 33.684ZM50.3051 35.6722C50.4242 35.7038 50.4942 35.838 50.5969 36.2314C50.737 36.7686 51.1198 37.4745 51.4757 37.8525C51.8289 38.2274 52.5488 38.7154 52.9882 38.8778C54.4148 39.4048 55.8895 39.1532 57.1056 38.1752L57.5457 37.8213L58.0629 38.1396C60.8042 39.8272 62.506 42.0883 62.9139 44.585C63.0354 45.328 62.9743 46.5001 62.767 47.4044C61.873 51.3058 58.4585 55.4103 54.4409 57.4132C52.3762 58.4425 50.4966 58.8956 48.3087 58.8914C46.3045 58.8876 44.4595 58.4542 42.5808 57.5461C37.8366 55.2527 34.0658 50.2825 33.8086 45.9836C33.6312 43.0162 35.4017 40.1608 38.6642 38.153L39.2254 37.8077L39.5075 38.0522C40.8563 39.2215 42.5687 39.477 44.0928 38.7362C45.0777 38.2576 45.8987 37.2653 46.1768 36.2174C46.2583 35.9103 46.3581 35.6964 46.4287 35.6774C46.6073 35.6296 50.1265 35.6248 50.3051 35.6722ZM20.8672 36.4235C21.6827 36.5926 22.4486 37.0006 23.0498 37.5862C23.847 38.3627 23.8463 38.3113 23.0669 38.9301C22.3231 39.5206 21.5944 40.3167 20.9611 41.2308L20.5378 41.8417L20.3864 41.63C20.0701 41.1876 19.7333 40.4199 19.5491 39.7213C19.3107 38.8176 19.1939 36.4956 19.3808 36.3787C19.5429 36.2773 20.2672 36.2992 20.8672 36.4235ZM77.6198 36.3787C77.8068 36.4956 77.6899 38.8176 77.4516 39.7213C77.2674 40.4199 76.9306 41.1876 76.6142 41.63L76.4628 41.8417L76.0396 41.2308C75.3992 40.3067 74.6689 39.5082 73.9319 38.9264C73.1541 38.3125 73.1534 38.363 73.9509 37.5862C74.7729 36.7854 75.8881 36.3292 77.0533 36.3169C77.3062 36.3142 77.5612 36.342 77.6198 36.3787ZM26.7847 40.2861C28.8494 40.5522 30.474 41.1045 31.5819 41.9171C31.8911 42.1439 32.0113 42.2778 31.9793 42.36C31.7027 43.0711 31.4081 44.6616 31.4073 45.4484C31.4068 46.0058 31.4878 45.9815 30.2129 45.8066C28.3155 45.5465 26.4733 45.1466 24.9297 44.6599C24.0668 44.3878 22.5994 43.7288 22.4434 43.5433C22.3755 43.4624 22.4723 43.2698 22.8899 42.6562C23.7666 41.3678 25.1043 40.1695 25.6659 40.1695C25.7836 40.1695 26.2871 40.222 26.7847 40.2861ZM71.749 40.2934C72.5068 40.6761 73.4801 41.6573 74.2375 42.8026C74.5715 43.3077 74.6347 43.4511 74.5613 43.5383C74.4174 43.7096 72.985 44.3686 72.1889 44.6298C71.2329 44.9434 69.9353 45.2622 68.6599 45.4967C67.7748 45.6595 67.2188 45.7431 65.6129 45.9548L65.3638 45.9876V45.4323C65.3638 44.8089 65.1271 43.3313 64.9468 42.8296C64.8818 42.6484 64.8541 42.4561 64.8854 42.4022C65.0046 42.1969 65.732 41.6687 66.2836 41.3868C67.2857 40.8745 68.6336 40.493 70.1734 40.2858C71.1967 40.148 71.4636 40.1493 71.749 40.2934Z" fill="#64D9FE"/>
</g>
<defs>
<filter id="filter0_d_403_1191" x="0" y="0" width="97" height="82" filterUnits="userSpaceOnUse" color-interpolation-filters="sRGB">
<feFlood flood-opacity="0" result="BackgroundImageFix"/>
<feColorMatrix in="SourceAlpha" type="matrix" values="0 0 0 0 0 0 0 0 0 0 0 0 0 0 0 0 0 0 127 0" result="hardAlpha"/>
<feOffset/>
<feGaussianBlur stdDeviation="7.5"/>
<feComposite in2="hardAlpha" operator="out"/>
<feColorMatrix type="matrix" values="0 0 0 0 0.391435 0 0 0 0 0.850244 0 0 0 0 0.995131 0 0 0 1 0"/>
<feBlend mode="normal" in2="BackgroundImageFix" result="effect1_dropShadow_403_1191"/>
<feBlend mode="normal" in="SourceGraphic" in2="effect1_dropShadow_403_1191" result="shape"/>
</filter>
</defs>
</svg>
