<svg width="48" height="44" viewBox="0 0 48 44" fill="none" xmlns="http://www.w3.org/2000/svg">
<path fill-rule="evenodd" clip-rule="evenodd" d="M16.5122 0.899035C16.2877 1.01365 16.003 1.20938 15.8796 1.33392C15.6 1.61571 9.52788 7.48209 4.57606 12.2545C2.52767 14.2287 0.788866 15.9591 0.711845 16.0999C0.374892 16.7169 0.730724 17.602 1.40914 17.8338C1.68412 17.9276 3.14521 17.9823 5.38062 17.9823H8.91718V25.4044C8.91718 32.6386 8.92416 32.8353 9.19244 33.1695C9.53513 33.5964 10.171 33.746 10.7111 33.5267C11.5336 33.1929 11.5165 33.3849 11.5165 24.478C11.5165 17.0217 11.4969 16.3156 11.2806 15.9566C10.9429 15.3963 10.4241 15.3032 7.61753 15.2987L5.15502 15.2947L11.0377 9.60704C14.2731 6.47893 16.9793 3.91655 17.0514 3.91279C17.1855 3.90609 18.3872 5.04424 25.1469 11.58L28.9956 15.3011H26.4055C24.3219 15.3011 23.7343 15.3422 23.4011 15.5111C22.6348 15.8995 22.5978 16.1643 22.5978 21.2624V25.8917H18.8294H15.061L14.7253 26.2208C14.4755 26.4655 14.388 26.6974 14.3842 27.1257L14.3792 27.7015L17.7212 30.9189C27.9331 40.7499 30.1685 42.8606 30.4774 42.9637C30.6646 43.0262 30.9777 43.038 31.1729 42.99C31.391 42.9364 34.0957 40.4299 38.1783 36.4985C41.8361 32.9763 45.3119 29.6464 45.9025 29.0991C47.4528 27.6621 47.6795 27.089 47.0072 26.3062L46.6549 25.8959L42.8688 25.8604L39.0829 25.8247L39.0145 18.3175C38.9768 14.1885 38.896 10.7343 38.8348 10.6417C38.7735 10.5489 38.5328 10.3765 38.2995 10.2583C37.7132 9.96122 36.9111 10.1922 36.6212 10.7417C36.3158 11.3203 36.3112 27.1827 36.6163 27.7606C36.9234 28.3426 37.4293 28.4383 40.2319 28.4442L42.7766 28.4496L36.894 34.1387C33.6585 37.2676 30.9379 39.8139 30.8481 39.7972C30.6768 39.7653 29.7913 38.9305 23.0321 32.4292L18.8835 28.4388H21.4842C22.9145 28.4388 24.2427 28.38 24.4356 28.3081C24.6286 28.2363 24.9095 27.9798 25.0597 27.7384C25.3188 27.3219 25.3329 27.0603 25.3333 22.6408L25.3339 17.9823H28.8268C33.2027 17.9823 33.5354 17.8814 33.5465 16.55C33.5507 16.0606 33.4357 15.928 30.8946 13.4914C29.4338 12.0905 25.9185 8.7122 23.0827 5.98412C20.2472 3.25604 17.7929 0.950649 17.629 0.861098C17.2295 0.64312 16.9978 0.650894 16.5122 0.899035ZM28.085 0.875977C27.4453 1.22332 27.396 1.49278 27.3908 4.66673L27.386 7.63934L27.7402 8.0517C28.2328 8.62547 29.012 8.63418 29.5854 8.07234L29.9853 7.68049V4.64502C29.9853 2.72705 29.9308 1.50994 29.8375 1.33901C29.6931 1.07452 28.9368 0.684141 28.5874 0.693525C28.4909 0.696207 28.2649 0.778249 28.085 0.875977ZM32.3065 4.94517L31.8873 5.31383L31.8837 8.46259L31.88 11.6115L32.3029 11.9816C32.9992 12.5914 34.0537 12.3594 34.3483 11.5316C34.5421 10.9865 34.5512 5.9671 34.3591 5.42751C34.1985 4.97587 33.5976 4.57651 33.0786 4.57651C32.8846 4.57651 32.5371 4.74248 32.3065 4.94517ZM14.1573 31.5486C13.5338 31.8436 13.4318 32.3635 13.4318 35.2425C13.4318 36.8541 13.492 38.0863 13.5834 38.3432C13.7419 38.7888 14.3005 39.1635 14.8061 39.1635C15.17 39.1635 15.8594 38.7756 15.9623 38.513C16.0043 38.4056 16.0422 36.9256 16.0465 35.2243L16.0543 32.1309L15.6301 31.7594C15.1841 31.3691 14.6868 31.2977 14.1573 31.5486ZM18.3462 35.6676L17.9464 36.0595V39.1593C17.9464 42.2574 17.9465 42.2591 18.2766 42.5826C18.7082 43.0056 19.2204 43.1218 19.734 42.9133C20.4816 42.6098 20.5457 42.3034 20.5457 39.0258V36.0595L20.1458 35.6676C19.8497 35.3775 19.6161 35.2758 19.246 35.2758C18.876 35.2758 18.6423 35.3775 18.3462 35.6676Z" fill="#3FD1FF"/>
</svg>
