<svg width="71" height="71" viewBox="0 0 71 71" fill="none" xmlns="http://www.w3.org/2000/svg">
<g filter="url(#filter0_d_403_710)">
<path fill-rule="evenodd" clip-rule="evenodd" d="M28.7593 13.952C28.3609 14.3987 27.515 15.5936 26.8797 16.6069L25.7242 18.4492L22.5846 18.6699C20.8054 18.7952 19.3315 19.0739 19.1825 19.3141C19.0378 19.547 18.8065 21.0911 18.668 22.7449L18.4164 25.7522L15.9098 27.2927C13.0132 29.073 12.9671 29.2326 14.317 32.8039L15.2304 35.2211L14.317 37.7431C13.8145 39.1305 13.4033 40.5568 13.4033 40.9132C13.4033 41.3133 14.3602 42.1948 15.9088 43.22L18.4142 44.8793L18.6444 47.6966C18.7713 49.2461 19.0066 50.7577 19.1673 51.0556C19.3453 51.3853 20.0835 51.6323 21.0545 51.6868C25.5284 51.9374 25.5944 51.9688 27.3775 54.689C28.5008 56.4032 29.2477 57.1944 29.7419 57.1944C30.1393 57.1944 31.5777 56.6134 32.9388 55.9034L35.4131 54.6125L38.0077 55.9294C39.4348 56.6538 40.8858 57.1919 41.2321 57.1254C41.5787 57.059 42.5533 55.9504 43.3985 54.662C45.0798 52.0981 45.4812 51.8937 48.9826 51.8204C50.2868 51.7933 51.1817 51.5871 51.4634 51.2495C51.7056 50.9588 51.9931 49.4191 52.1026 47.828L52.3017 44.9352L54.6229 43.4291C55.8992 42.6007 57.0943 41.6434 57.2777 41.3014C57.5138 40.8623 57.2984 39.8689 56.5435 37.9168L55.4753 35.154L56.549 32.4619C57.1396 30.9814 57.5413 29.5623 57.442 29.3088C57.3423 29.0553 56.1443 28.1258 54.7792 27.2436L52.2973 25.6392L52.0805 22.5806C51.9612 20.8983 51.7212 19.3798 51.5468 19.2061C51.3724 19.0324 49.8347 18.7923 48.1295 18.6724L45.0294 18.4547L43.7013 16.3779C41.4638 12.8803 41.4609 12.8792 38.4671 14.3807C37.0559 15.0881 35.6839 15.6673 35.4185 15.6673C35.1527 15.6673 33.8025 15.0989 32.4181 14.4045C31.0334 13.7101 29.8068 13.1413 29.6919 13.1406C29.5773 13.1399 29.1574 13.5053 28.7593 13.952ZM32.6201 17.4728C33.8054 18.0686 35.0291 18.5561 35.3394 18.5561C35.6498 18.5561 36.8735 18.0686 38.0588 17.4728C39.2441 16.877 40.2898 16.3895 40.3829 16.3895C40.4761 16.3895 41.2495 17.4457 42.1019 18.7367C43.5834 20.9809 43.7154 21.0839 45.1153 21.0878C45.9206 21.09 47.1817 21.1911 47.9181 21.3121L49.2567 21.5327L49.5008 24.3201L49.7448 27.1078L52.0598 28.6129C53.3332 29.4406 54.3749 30.2729 54.3749 30.4625C54.3749 30.6521 54.0486 31.6314 53.6498 32.6392C53.2509 33.6471 52.9246 34.8582 52.9246 35.3309C52.9246 35.8036 53.2509 36.9487 53.6498 37.8753C54.0486 38.8019 54.3749 39.7559 54.3749 39.9953C54.3749 40.2347 53.3358 41.1108 52.0656 41.9424L49.7567 43.4543L49.5029 46.3522L49.2491 49.2501H47.1219C44.119 49.2501 43.4631 49.609 41.9214 52.0967L40.5588 54.2954L37.9645 52.9944L35.3706 51.6933L32.8003 52.9601L30.23 54.2268L28.8387 52.0862C28.0733 50.9094 27.1535 49.7896 26.7941 49.5982C26.4352 49.4068 25.0701 49.2501 23.7608 49.2501H21.3801L21.3761 47.7154C21.3667 44.148 21.0868 43.5446 18.7006 41.9511C17.482 41.1375 16.4233 40.4218 16.3475 40.3604C16.2721 40.2994 16.6172 39.1463 17.1147 37.7983C18.007 35.3807 18.011 35.323 17.3961 33.542C16.1332 29.8847 16.0328 30.2935 18.5929 28.683C20.7963 27.297 20.9316 27.1313 21.1499 25.5457C21.2764 24.6252 21.3801 23.348 21.3801 22.7074C21.3801 21.5959 21.4566 21.5327 23.0625 21.3135C23.9874 21.1871 25.2735 21.0839 25.9203 21.0839C26.9682 21.0839 27.2633 20.8286 28.6317 18.7367C29.4762 17.4457 30.2343 16.3895 30.3163 16.3895C30.3982 16.3895 31.4348 16.877 32.6201 17.4728ZM27.5567 24.8014C24.9704 25.697 23.7974 29.3683 25.3489 31.7123C26.309 33.1621 27.4109 33.6947 29.4838 33.7099C31.0008 33.7207 31.4076 33.5579 32.4464 32.5233C34.0218 30.9543 34.3775 29.1636 33.4732 27.3519C32.2909 24.9824 29.9493 23.9731 27.5567 24.8014ZM30.7347 27.656C31.8514 28.7682 30.8463 31.1948 29.2688 31.1948C27.5215 31.1948 26.5411 28.9953 27.751 27.7899C28.4254 27.1187 30.1186 27.0425 30.7347 27.656ZM34.3304 34.3751C30.3986 38.3089 27.1814 41.7969 27.1814 42.1262C27.1814 43.0401 28.5363 43.6349 29.2775 43.0459C31.2978 41.4404 43.4975 29.0701 43.4975 28.6273C43.4975 27.9239 42.7767 27.2227 42.0534 27.2227C41.7375 27.2227 38.2622 30.4412 34.3304 34.3751ZM39.6904 37.1007C35.0294 39.2236 36.4181 46.0001 41.5142 46.0001C46.1222 46.0001 47.9253 40.0155 44.0747 37.5026C42.8416 36.6981 40.9544 36.5251 39.6904 37.1007ZM43.0624 39.9336C44.1371 41.0039 43.0932 43.4724 41.5664 43.4724C40.5091 43.4724 39.5091 42.427 39.5091 41.322C39.5091 40.0646 40.1266 39.5002 41.5033 39.5002C42.1215 39.5002 42.8231 39.6952 43.0624 39.9336Z" fill="#64D9FE"/>
</g>
<defs>
<filter id="filter0_d_403_710" x="0.446331" y="0.183636" width="69.9677" height="69.9687" filterUnits="userSpaceOnUse" color-interpolation-filters="sRGB">
<feFlood flood-opacity="0" result="BackgroundImageFix"/>
<feColorMatrix in="SourceAlpha" type="matrix" values="0 0 0 0 0 0 0 0 0 0 0 0 0 0 0 0 0 0 127 0" result="hardAlpha"/>
<feOffset/>
<feGaussianBlur stdDeviation="6.47849"/>
<feComposite in2="hardAlpha" operator="out"/>
<feColorMatrix type="matrix" values="0 0 0 0 0.391435 0 0 0 0 0.850244 0 0 0 0 0.995131 0 0 0 1 0"/>
<feBlend mode="normal" in2="BackgroundImageFix" result="effect1_dropShadow_403_710"/>
<feBlend mode="normal" in="SourceGraphic" in2="effect1_dropShadow_403_710" result="shape"/>
</filter>
</defs>
</svg>
