<svg width="52" height="48" viewBox="0 0 52 48" fill="none" xmlns="http://www.w3.org/2000/svg">
<path fill-rule="evenodd" clip-rule="evenodd" d="M25.8916 22.6864C26.1177 22.9286 26.4083 23.0496 26.7635 23.0496C27.1186 23.0496 27.4092 22.9286 27.6353 22.6864C27.8613 22.4604 27.9743 22.1778 27.9743 21.8388V20.1093C28.8658 19.9747 29.6569 19.7278 30.3475 19.3687C31.1709 18.9328 31.8167 18.3597 32.2849 17.6493C32.7531 16.9228 32.9872 16.0914 32.9872 15.155C32.9872 13.9603 32.6239 12.9997 31.8974 12.2732C31.1709 11.5306 30.0327 10.9897 28.4828 10.6507L25.8432 10.0695C24.9876 9.87574 24.3821 9.61743 24.027 9.29454C23.6718 8.95551 23.4942 8.51153 23.4942 7.96262C23.4942 7.21998 23.7848 6.62263 24.366 6.17058C24.9633 5.70239 25.7786 5.4683 26.8119 5.4683C27.6191 5.4683 28.3133 5.55709 28.8945 5.73468C29.4757 5.89613 30.0004 6.11408 30.4686 6.38853C30.8076 6.58227 31.1063 6.67106 31.3646 6.65492C31.6391 6.62263 31.8651 6.52576 32.0427 6.36432C32.2203 6.20287 32.3414 6.00914 32.406 5.78312C32.4705 5.54095 32.4625 5.29878 32.3817 5.05661C32.301 4.7983 32.1396 4.57228 31.8974 4.37854C31.3001 3.91035 30.5816 3.5471 29.7421 3.28879C29.1154 3.09218 28.5262 2.96572 27.9743 2.9094V1.23037C27.9743 0.891335 27.8532 0.608806 27.611 0.382783C27.385 0.140615 27.1025 0.0195312 26.7635 0.0195312C26.4083 0.0195312 26.1177 0.140615 25.8916 0.382783C25.6656 0.608806 25.5526 0.891335 25.5526 1.23037V2.94838C24.6232 3.06354 23.7998 3.31424 23.0825 3.70048C22.243 4.15252 21.5891 4.75794 21.121 5.51673C20.6528 6.25938 20.4187 7.10696 20.4187 8.05949C20.4187 9.28647 20.7819 10.2794 21.5084 11.0381C22.2349 11.7969 23.3327 12.3378 24.8019 12.6607L27.3689 13.2177C27.9985 13.3468 28.499 13.5163 28.8703 13.7262C29.2416 13.9199 29.508 14.154 29.6695 14.4285C29.8309 14.6868 29.9116 14.9935 29.9116 15.3487C29.9116 15.7846 29.7905 16.1721 29.5484 16.5111C29.3224 16.8502 28.9591 17.1165 28.4586 17.3103C27.9581 17.504 27.3043 17.6009 26.4971 17.6009C25.4638 17.6009 24.5759 17.4879 23.8332 17.2618C23.1067 17.0197 22.5175 16.7694 22.0654 16.5111C21.7264 16.3174 21.4277 16.2528 21.1694 16.3174C20.9111 16.3658 20.6931 16.495 20.5155 16.7049C20.3541 16.8986 20.2572 17.1327 20.2249 17.4071C20.1926 17.6816 20.233 17.9561 20.346 18.2305C20.459 18.4888 20.6608 18.7068 20.9514 18.8844C21.5488 19.2234 22.2753 19.5221 23.1309 19.7804C23.8547 19.9948 24.6619 20.1314 25.5526 20.1901V21.8388C25.5526 22.1778 25.6656 22.4604 25.8916 22.6864ZM24.103 38.8193C25.1475 39.7239 26.6979 39.7239 27.7425 38.8193L45.563 23.3863C47.5085 21.7015 46.3169 18.5054 43.7433 18.5054H37.4891L37.4891 7.98156H34.7053L34.7053 20.5916L40.246 20.5916C41.5328 20.5916 42.1286 22.1896 41.1558 23.0321L26.8292 35.4393C26.307 35.8915 25.5318 35.8915 25.0095 35.4393L10.683 23.0321C9.7102 22.1896 10.306 20.5916 11.5928 20.5916L18.0273 20.5916V7.98156L15.2519 7.98156L15.2519 18.5054L8.10223 18.5054C5.52859 18.5054 4.33702 21.7015 6.28252 23.3863L24.103 38.8193ZM16.6225 34.3055L13.6264 31.9293C5.8589 33.3584 0.612305 36.0792 0.612305 39.2006C0.612305 43.8056 12.031 47.5386 26.1168 47.5386C40.2025 47.5386 51.6213 43.8056 51.6213 39.2006C51.6213 36.0384 46.2365 33.2873 38.3011 31.8739L35.3722 34.2797C43.2164 35.1247 48.6772 37.0105 48.6772 39.2013C48.6772 42.181 38.576 44.5965 26.1155 44.5965C13.6551 44.5965 3.55387 42.181 3.55387 39.2013C3.55387 37.0326 8.90517 35.1627 16.6225 34.3055ZM17.7921 35.871L20.6806 37.8447C15.2311 38.0684 11.4087 38.591 11.4087 39.1999C11.4087 40.0126 18.216 40.6713 26.6133 40.6713C35.0105 40.6713 41.8179 40.0126 41.8179 39.1999C41.8179 38.5538 37.5148 38.005 31.5309 37.8072L34.415 35.7661C40.5337 36.3461 44.7619 37.5873 44.7619 39.0247C44.7619 41.0174 36.6371 42.6328 26.6145 42.6328C16.592 42.6328 8.46711 41.0174 8.46711 39.0247C8.46711 37.6688 12.2296 36.4875 17.7921 35.871Z" fill="#3FD1FF"/>
</svg>
