<svg width="20" height="31" viewBox="0 0 20 31" fill="none" xmlns="http://www.w3.org/2000/svg">
<path fill-rule="evenodd" clip-rule="evenodd" d="M14.7978 0.0215204C14.63 0.0664488 14.5423 0.110804 14.4272 0.209115C14.2759 0.338378 0.0979933 17.1974 0.0462317 17.3097C-0.0658878 17.5528 0.0315103 17.8589 0.277884 18.0379C0.53338 18.2236 0.171153 18.208 4.39423 18.2144C6.45097 18.2175 8.13374 18.2279 8.13374 18.2374C8.13374 18.2469 7.42882 20.9544 6.56722 24.2541C4.84179 30.862 4.947 30.4071 5.0915 30.6371C5.17176 30.7649 5.3337 30.8889 5.5017 30.9512C5.68875 31.0206 5.99737 31.0153 6.18841 30.9395C6.26793 30.908 6.37589 30.8458 6.42837 30.8015C6.53809 30.7086 19.858 13.8965 19.9434 13.743C19.9838 13.6705 19.9999 13.5991 20 13.4929C20.0002 13.2305 19.8336 13.0108 19.5375 12.883L19.4245 12.8343L16.0514 12.8287C12.8643 12.8234 12.679 12.8211 12.6915 12.7862C12.6989 12.766 13.4055 10.068 14.262 6.79076C15.4904 2.09006 15.8195 0.798539 15.8209 0.672845C15.8231 0.482722 15.745 0.324379 15.5856 0.195584C15.3906 0.0380473 15.0321 -0.0411883 14.7978 0.0215204ZM12.0761 8.67304C10.7042 13.9185 10.7815 13.5715 10.9353 13.7999C11.0313 13.9424 11.2022 14.0638 11.384 14.1188C11.5247 14.1613 11.5745 14.162 14.5907 14.162C16.4209 14.162 17.6509 14.1698 17.6457 14.1813C17.631 14.2139 7.59659 26.8631 7.58983 26.8576C7.58636 26.8548 8.12801 24.7643 8.79349 22.212C10.1024 17.1921 10.0368 17.4808 9.9184 17.2635C9.84876 17.1356 9.65446 16.9796 9.49 16.9194L9.35614 16.8705L5.87744 16.8649C3.95472 16.8617 2.40263 16.8511 2.40739 16.841C2.43145 16.7902 13.3005 3.9064 13.3069 3.92106C13.311 3.93047 12.7572 6.06887 12.0761 8.67304Z" fill="#64D9FE"/>
</svg>
