<svg width="75" height="47" viewBox="0 0 75 47" fill="none" xmlns="http://www.w3.org/2000/svg">
<path fill-rule="evenodd" clip-rule="evenodd" d="M6.18421 0C2.76877 0 0 2.76876 0 6.18421V19.1711C0 22.5865 2.76876 25.3553 6.1842 25.3553H8.55498L9.91468 20.8717H8.65797C6.86486 20.8717 5.41125 19.4181 5.41125 17.625V7.88485C5.41125 6.09174 6.86486 4.63814 8.65796 4.63814H66.0165C67.8096 4.63814 69.2632 6.09174 69.2632 7.88485V17.625C69.2632 19.4181 67.8096 20.8717 66.0165 20.8717H64.9298L66.2868 25.3553H68.1809C71.5964 25.3553 74.3651 22.5865 74.3651 19.1711V6.18421C74.3651 2.76877 71.5964 0 68.1809 0H6.18421ZM15.682 14.1027C15.9481 13.0812 16.8705 12.3683 17.9262 12.3683H22.1086L15.6925 46.9998H10.1125C8.59436 46.9998 7.48563 45.5653 7.86836 44.0961L15.682 14.1027ZM27.9836 46.9998V12.3683H56.6111C57.6672 12.3683 58.5899 13.0817 58.8556 14.1038L66.6533 44.0972C67.0352 45.5661 65.9266 46.9998 64.4089 46.9998H27.9836Z" fill="#64D9FE"/>
</svg>
