<svg width="150" height="54" viewBox="0 0 150 54" fill="none" xmlns="http://www.w3.org/2000/svg">
<path fill-rule="evenodd" clip-rule="evenodd" d="M0.000321096 0L0.000321096 6.96182e-05C0.000321096 5.74523 3.15557 10.7535 7.82774 13.3864C3.15557 16.0193 0.000321096 21.0275 0.000321096 26.7727C0.000321096 32.5185 3.15625 37.5271 7.82925 40.1599C3.15651 42.7923 0.000585974 47.8003 0 53.5456H3.93698C3.93775 47.2404 9.04935 42.1293 15.3547 42.1293C21.6601 42.1293 26.7717 47.2404 26.7725 53.5456H30.7098C30.7092 47.8005 27.5534 42.7925 22.8808 40.16C27.554 37.5274 30.7101 32.5186 30.7101 26.7727C30.7101 21.0275 27.5549 16.0193 22.8827 13.3864C27.5549 10.7535 30.7101 5.74523 30.7101 6.96182e-05V0H26.7731V0.000242233C26.7731 6.28933 21.6884 11.3908 15.4056 11.4179L15.3552 11.4178L15.3056 11.4179C9.02264 11.391 3.93765 6.28947 3.93765 0.000242233V0H0.000321096ZM3.93765 26.7727C3.93765 20.471 9.04282 15.3617 15.3429 15.355L15.3552 15.355L15.3707 15.355C21.6695 15.3632 26.7731 20.472 26.7731 26.7727C26.7731 33.0785 21.6612 38.1904 15.3554 38.1904C9.04954 38.1904 3.93765 33.0785 3.93765 26.7727Z" fill="#59C7F2"/>
<path fill-rule="evenodd" clip-rule="evenodd" d="M42.543 8.63914V17.2266H43.5321H44.5211L44.6306 10.5364L44.7401 3.84615L47.2735 8.13987C48.6668 10.5012 49.9443 12.4336 50.1125 12.4336C50.2807 12.4336 51.4775 10.6171 52.7722 8.3971L55.1263 4.3606L55.326 10.6937L55.5257 17.0269L56.6243 17.1531L57.7228 17.2797V8.64034V0.000976562L56.4533 0.126393C55.3064 0.239428 54.9517 0.646033 52.7734 4.34542C51.4475 6.59733 50.2647 8.43944 50.1449 8.43944C50.025 8.43944 48.7951 6.5522 47.4117 4.24557C45.1283 0.438337 44.7884 0.0517024 43.7198 0.0517024H42.543V8.63914ZM60.9861 7.34104C61.1419 15.2567 61.3328 16.006 63.4109 16.8667C64.6852 17.3947 67.8354 17.1523 68.6667 16.4621C69.4472 15.8146 69.0094 14.2897 68.1566 14.6855C67.8006 14.8501 66.7077 14.995 65.7274 15.0074C63.3717 15.037 62.9295 14.175 62.9219 9.53783L62.9159 6.04294H65.7122C68.4286 6.04294 68.5085 6.01458 68.5085 5.0444C68.5085 4.07422 68.4286 4.04586 65.7122 4.04586H62.9159V2.04878C62.9159 0.165136 62.8568 0.0517024 61.8793 0.0517024H60.8423L60.9861 7.34104ZM84.0878 37.2102C84.0878 51.3087 84.1972 51.961 86.7403 53.0234C87.7449 53.4432 88.7776 53.5599 89.9412 53.3853C91.8814 53.0945 92.1307 52.8665 91.8179 51.6694C91.6206 50.9157 91.3921 50.849 89.6967 51.0499C86.467 51.4322 86.4846 51.5089 86.4846 37.1083V24.8155H85.2862H84.0878V37.2102ZM126.448 25.3954C125.386 26.674 126.945 28.6379 128.329 27.7664C129.712 26.8952 129.219 24.8155 127.63 24.8155C127.244 24.8155 126.712 25.0763 126.448 25.3954ZM42.543 39.9446V53.174H43.9411H45.3393V47.7819V42.3898H49.1146C51.1911 42.3898 53.8424 42.1865 55.0068 41.9384C61.9172 40.4646 63.0733 31.1662 56.7365 28.0264C54.9509 27.1417 54.1424 27.0271 48.6477 26.8793L42.543 26.7155V39.9446ZM54.3557 29.6572C56.9247 30.3039 58.1223 31.8688 58.1223 34.578C58.1223 38.6692 56.0255 39.9933 49.5465 39.9933H45.3393V34.6012V29.2091H48.9572C50.9474 29.2091 53.3766 29.4108 54.3557 29.6572ZM67.9093 33.5252C65.0243 35.3593 64.1567 37.477 64.1319 42.7429C64.1103 47.3777 64.6724 49.3384 66.5659 51.2317C68.9878 53.6533 73.6009 54.1666 77.8105 52.4826C79.1847 51.933 79.3245 51.7517 79.0912 50.8231C78.7393 49.4199 78.7541 49.4247 77.2373 50.2092C76.5047 50.5882 74.735 50.978 73.3053 51.0763C71.0575 51.2305 70.5162 51.1262 69.3074 50.309C67.672 49.203 66.5127 47.1201 66.5119 45.2855L66.5111 43.9874H73.1551H79.7987L79.6105 41.0533C79.3988 37.757 78.2707 35.2446 76.3708 33.8395C74.7422 32.6349 69.6094 32.4439 67.9093 33.5252ZM97.7293 33.4812C95.1918 34.7314 93.705 38.1827 93.6846 42.8695C93.6635 47.8466 95.1399 51.0327 98.2282 52.6755C101.301 54.3096 109.52 52.88 108.978 50.8063C108.662 49.5952 108.317 49.5098 106.806 50.2683C106.065 50.6405 104.381 51.0068 103.063 51.0823C99.0503 51.3127 96.908 49.6092 96.2752 45.685L96.0016 43.9874H102.883H109.764L109.493 41.3389C109.065 37.1654 107.726 34.6898 105.18 33.365C103.695 32.5925 99.3975 32.6596 97.7293 33.4812ZM115.147 33.4465L113.649 34.0875V43.6308V53.174H114.847H116.045V44.4056V35.6373L117.543 35.2215C119.398 34.7062 120.503 34.693 121.761 35.1711C122.595 35.4883 122.802 35.3944 123.2 34.5205C123.456 33.9589 123.554 33.3878 123.418 33.2515C122.834 32.668 116.623 32.8146 115.147 33.4465ZM135.919 33.4429L134.021 34.0264V43.6V53.174H135.22H136.418V44.4268V35.6792L138.43 35.1971C142.713 34.1694 146.168 35.8378 147.16 39.4129C147.402 40.2813 147.6 43.7326 147.601 47.0829L147.603 53.174H148.802H150V47.4368C150 44.2818 149.817 40.7362 149.594 39.5579C149.051 36.6965 147.555 34.5221 145.48 33.5799C143.432 32.6504 138.716 32.5829 135.919 33.4429ZM126.432 43.1886V53.174H127.63H128.828V43.1886V33.2032H127.63H126.432V43.1886ZM75.3838 36.2795C76.4911 37.3404 77.2904 39.3526 77.2944 41.0917C77.2968 41.9792 77.2309 41.9904 71.904 41.9904H66.5111V40.5764C66.5111 38.5442 67.9061 36.0539 69.4301 35.3653C71.282 34.5285 73.99 34.9447 75.3838 36.2795ZM103.843 35.3665C105.569 36.0878 106.409 37.3827 106.815 39.9494L107.138 41.9904H101.554H95.9696L96.2408 40.2948C96.616 37.9511 97.647 36.3247 99.2812 35.5007C100.96 34.6539 102.06 34.6215 103.843 35.3665Z" fill="white"/>
</svg>
