<svg width="153" height="80" viewBox="0 0 153 80" fill="none" xmlns="http://www.w3.org/2000/svg">
<g clip-path="url(#clip0_2854_7336)">
<path d="M12.5356 32.5359C16.7895 32.5359 20.2458 29.0863 20.2458 24.8257C20.2458 20.5651 16.7962 17.1221 12.5356 17.1221C8.28833 17.1221 4.84533 20.5519 4.83203 24.7991V24.8656C4.85197 29.1062 8.29497 32.5359 12.5356 32.5359Z" fill="#FF0080"/>
<path d="M84.9977 32.3135C89.1382 31.3358 91.7015 27.1838 90.723 23.0397C89.7444 18.8955 85.5946 16.3287 81.4541 17.3064C77.3136 18.2841 74.7503 22.4361 75.7288 26.5802C76.7073 30.7243 80.8572 33.2912 84.9977 32.3135Z" fill="#00D35F"/>
<path d="M12.5357 37.3679C19.4616 37.3679 25.0714 31.7514 25.0714 24.8322C25.0714 17.9129 19.455 12.2964 12.5357 12.2964C9.62445 12.2964 6.95911 13.2935 4.83216 14.9551V0H0V37.1884H4.83216V34.7092C6.95911 36.3709 9.6311 37.3679 12.5357 37.3679ZM12.5357 17.122C16.7896 17.122 20.2459 20.5716 20.2459 24.8255C20.2459 29.0794 16.7963 32.5357 12.5357 32.5357C8.28846 32.5357 4.84546 29.106 4.83216 24.8587V24.7923C4.8521 20.5583 8.2951 17.122 12.5357 17.122Z" fill="white"/>
<path d="M90.9404 14.9553C88.8135 13.2936 86.1415 12.29 83.2302 12.29C76.3043 12.29 70.6945 17.9064 70.6945 24.8257C70.6945 31.7449 76.311 37.3614 83.2302 37.3614C86.1415 37.3614 88.8068 36.3644 90.9404 34.6961V37.1753C90.9404 58.159 73.9315 75.168 52.9478 75.168C33.6058 75.168 17.647 60.7047 15.2741 42.0075H10.4087C12.8082 63.3833 30.9404 80.0002 52.9544 80.0002C76.6034 80.0002 95.7793 60.8243 95.7793 37.1753V12.4628H90.9471V14.9553H90.9404ZM83.2302 32.5359C78.9763 32.5359 75.5267 29.0862 75.5267 24.8257C75.5267 20.5651 78.9763 17.1221 83.2302 17.1221C87.4841 17.1221 90.9404 20.5718 90.9404 24.8257C90.9404 29.0796 87.4908 32.5359 83.2302 32.5359Z" fill="white"/>
<path d="M39.2686 37.3684C41.5684 37.3684 43.702 36.6638 45.47 35.4541V37.1889H50.3022V23.3239C50.3022 19.9074 53.0739 17.1291 56.497 17.1291C59.9134 17.1291 62.6917 19.9074 62.6917 23.3239V37.1889H67.5239V23.3239C67.5239 17.2355 62.5854 12.2969 56.497 12.2969C54.1972 12.2969 52.0702 13.0015 50.3022 14.2046V12.4764H45.47V26.3348C45.47 29.7579 42.6917 32.5362 39.2686 32.5362C35.8456 32.5362 33.0739 29.7579 33.0739 26.3348V12.4764H28.2417V26.3348C28.2417 32.4299 33.1802 37.3684 39.2686 37.3684Z" fill="white"/>
<path d="M111.479 12.2969C104.553 12.2969 98.9429 17.9134 98.9429 24.8327C98.9429 31.7519 104.56 37.3684 111.479 37.3684C116.61 37.3684 121.017 34.2843 122.958 29.8642H117.308C115.892 31.4993 113.812 32.5362 111.479 32.5362C107.511 32.5362 104.241 29.5319 103.822 25.6768H119.136H120.498H123.968C123.988 25.3976 124.008 25.1118 124.008 24.826C124.015 17.9068 118.398 12.2969 111.479 12.2969ZM111.479 17.1225C114.536 17.1225 117.168 18.9104 118.418 21.4894H104.54C105.783 18.9104 108.421 17.1225 111.479 17.1225Z" fill="white"/>
<path d="M148.74 25.6835H152.21C152.23 25.4043 152.25 25.1185 152.25 24.8327C152.25 17.9068 146.633 12.2969 139.714 12.2969C132.788 12.2969 127.178 17.9134 127.178 24.8327C127.178 31.7519 132.795 37.3684 139.714 37.3684C144.845 37.3684 149.252 34.2843 151.193 29.8642H145.543C144.128 31.4993 142.047 32.5362 139.714 32.5362C135.746 32.5362 132.476 29.5319 132.057 25.6768H147.371H148.74V25.6835ZM139.721 17.1225C142.778 17.1225 145.41 18.9104 146.66 21.4894H132.782C134.025 18.9104 136.663 17.1225 139.721 17.1225Z" fill="white"/>
</g>
<defs>
<clipPath id="clip0_2854_7336">
<rect width="153" height="80" fill="white"/>
</clipPath>
</defs>
</svg>
