<svg width="150" height="26" viewBox="0 0 150 26" fill="none" xmlns="http://www.w3.org/2000/svg">
<path fill-rule="evenodd" clip-rule="evenodd" d="M41.146 1.16901C40.8192 1.26428 40.2808 1.63179 39.9494 1.98614C39.618 2.34049 37.7989 5.32634 35.9072 8.62136C34.0152 11.9164 31.4379 16.3939 30.1798 18.5712C28.1519 22.0806 27.8923 22.6343 27.8923 23.4477C27.8923 24.7321 28.5941 25.4278 30.0687 25.6056C30.6542 25.6763 36.5014 25.7065 43.0623 25.6732L54.9916 25.6121L55.5991 25.0045C56.0098 24.5934 56.2416 24.1355 56.3149 23.5893C56.4267 22.7563 56.2249 22.3711 50.4575 12.4025C49.7176 11.1236 49.3098 10.4151 47.038 6.46069C45.7655 4.246 44.5832 2.26683 44.4108 2.06255C44.0276 1.60841 42.6693 0.964535 42.133 0.982802C41.917 0.990266 41.4729 1.07394 41.146 1.16901ZM0.136908 1.6752C0.0616773 1.75043 0 7.09769 0 13.5577C0 25.2363 0.00235711 25.3049 0.406795 25.5213C0.692003 25.6739 3.40364 25.7201 9.49143 25.6755L18.1693 25.6121L19.4831 24.9896C22.4798 23.57 24.0932 20.571 23.5747 17.3848C23.3354 15.9156 22.7624 14.7404 21.8033 13.752L21.0418 12.9674L21.668 11.8256C22.2596 10.7467 22.2942 10.5703 22.2942 8.62136C22.2942 6.75925 22.2425 6.46108 21.7632 5.55242C21.0502 4.20082 19.6859 2.87535 18.3144 2.20181L17.1871 1.64829L8.73048 1.59329C4.07934 1.56304 0.212138 1.59977 0.136908 1.6752ZM61.4877 1.92996C61.3544 2.17942 61.2844 6.22557 61.2844 13.7044V25.0988L61.7211 25.4044C62.0306 25.6215 62.6297 25.7103 63.7835 25.7103C66.3928 25.7103 66.1943 26.4412 66.1994 16.8221C66.2035 9.1132 66.2202 8.74 66.5431 9.1407C66.7299 9.37229 68.2084 11.0904 69.8289 12.9586C71.4494 14.8268 74.5317 18.3939 76.6782 20.8855C78.8249 23.3772 80.7253 25.4757 80.9013 25.5492C81.3967 25.7559 84.3763 25.7333 84.9408 25.5188L85.4446 25.3273V13.6744C85.4446 4.87299 85.3869 1.96375 85.2089 1.78579C85.0565 1.63336 84.2665 1.55008 82.9711 1.55008C81.3266 1.55008 80.9477 1.60566 80.8497 1.86082C80.7841 2.03171 80.7304 5.7072 80.7304 10.0287C80.7304 14.8429 80.659 17.8608 80.546 17.8205C80.4445 17.7846 79.4484 16.6944 78.3325 15.398C77.2164 14.1016 74.6305 11.0963 72.5861 8.71957C70.5417 6.34283 68.3007 3.75749 67.6061 2.97415L66.3433 1.55008H64.0173C61.9185 1.55008 61.6712 1.5872 61.4877 1.92996ZM92.8316 1.86082C92.766 2.03171 92.7123 2.33243 92.7123 2.52906C92.7123 2.72568 94.5695 5.1633 96.8394 7.94585C100.446 12.3664 100.933 13.0446 100.701 13.3177C100.556 13.4895 98.4332 16.0311 95.985 18.9657C91.2708 24.6162 90.9714 25.1133 92.0376 25.5188C92.5678 25.7203 96.2611 25.7806 96.9376 25.5987C97.1547 25.5404 98.8341 23.6013 100.67 21.2896C102.505 18.978 104.052 17.0823 104.107 17.077C104.162 17.0719 105.709 18.9609 107.544 21.275C109.38 23.5891 111.058 25.5325 111.274 25.5938C111.932 25.7798 115.635 25.723 116.172 25.5188C116.812 25.2756 116.838 24.5977 116.238 23.8217C115.91 23.3968 109.631 15.8423 107.513 13.3249C107.245 13.0063 107.837 12.2185 113.603 5.21221C115.247 3.21399 115.511 2.7956 115.459 2.26585L115.399 1.64829L112.728 1.59388L110.057 1.53947L107.133 5.27684C105.525 7.33242 104.163 9.01185 104.108 9.0091C104.052 9.00635 103.786 8.70484 103.516 8.33909C103.246 7.97335 101.936 6.29628 100.607 4.61214L98.1887 1.55008H95.5697C93.3627 1.55008 92.9319 1.59899 92.8316 1.86082ZM16.3789 6.28155C17.8599 7.44654 17.8599 9.79617 16.3789 10.9612C15.8791 11.3542 15.6352 11.3713 10.5215 11.3713C6.63325 11.3713 5.12157 11.3073 4.9499 11.1356C4.62481 10.8105 4.62481 6.43221 4.9499 6.10712C5.12157 5.93545 6.63325 5.87141 10.5215 5.87141C15.6352 5.87141 15.8791 5.8885 16.3789 6.28155ZM47.1519 15.9382L50.0704 20.9961H42.1097H34.149L34.7885 19.8667C35.1403 19.2454 36.2213 17.3672 37.1908 15.6926C38.1604 14.0181 39.6579 11.4257 40.5186 9.93151L42.0839 7.21515L43.1588 9.0476C43.75 10.0556 45.5469 13.1562 47.1519 15.9382ZM17.8805 16.4206C18.1899 16.7671 18.5511 17.4112 18.6831 17.8521C18.8919 18.5485 18.8738 18.7726 18.5464 19.5592C17.8232 21.2956 17.8758 21.2827 11.2832 21.3483C7.4219 21.3866 5.37417 21.3355 5.10979 21.1939C4.74581 20.9992 4.71419 20.7869 4.71419 18.5437C4.71419 16.4306 4.76015 16.0774 5.05793 15.8989C5.28264 15.7641 7.46432 15.7097 11.3598 15.7419L17.3182 15.7908L17.8805 16.4206Z" fill="white"/>
<path fill-rule="evenodd" clip-rule="evenodd" d="M137.786 1.47318C136.652 -0.491062 133.817 -0.49106 132.683 1.47318L121.2 21.3612C120.066 23.3254 121.484 25.7807 123.752 25.7807H146.717C148.985 25.7807 150.402 23.3254 149.268 21.3612L137.786 1.47318ZM143.484 21.1154L135.234 6.67824L126.984 21.1154H143.484Z" fill="url(#paint0_linear_2854_7314)"/>
<defs>
<linearGradient id="paint0_linear_2854_7314" x1="142.404" y1="10.0176" x2="120.797" y2="24.7495" gradientUnits="userSpaceOnUse">
<stop stop-color="#35E1CF"/>
<stop offset="1" stop-color="#0080D6"/>
</linearGradient>
</defs>
</svg>
