<svg width="159" height="36" viewBox="0 0 159 36" fill="none" xmlns="http://www.w3.org/2000/svg">
<g clip-path="url(#clip0_2854_7344)">
<path d="M33.6169 10.2471H12.4944C11.2532 10.2471 10.2471 11.2532 10.2471 12.4944V33.6169C10.2471 34.8581 11.2532 35.8642 12.4944 35.8642H33.6169C34.8581 35.8642 35.8642 34.8581 35.8642 33.6169V12.4944C35.8642 11.2532 34.8581 10.2471 33.6169 10.2471Z" fill="#F472B6" fill-opacity="0.7"/>
<path d="M28.4929 5.12305H7.3704C6.12922 5.12305 5.12305 6.12922 5.12305 7.3704V28.4929C5.12305 29.734 6.12922 30.7402 7.3704 30.7402H28.4929C29.734 30.7402 30.7402 29.734 30.7402 28.4929V7.3704C30.7402 6.12922 29.734 5.12305 28.4929 5.12305Z" fill="url(#paint0_linear_2854_7344)" fill-opacity="0.8"/>
<path d="M23.3698 0H2.24735C1.00617 0 0 1.00617 0 2.24735V23.3698C0 24.611 1.00617 25.6172 2.24735 25.6172H23.3698C24.611 25.6172 25.6172 24.611 25.6172 23.3698V2.24735C25.6172 1.00617 24.611 0 23.3698 0Z" fill="#818CF8" fill-opacity="0.9"/>
<path d="M48.0134 24.4396C47.7997 24.4396 47.6127 24.3661 47.4524 24.2192C47.3054 24.0723 47.2319 23.8852 47.2319 23.6581V9.57077C47.2319 9.35702 47.3054 9.17667 47.4524 9.02972C47.6127 8.86941 47.7997 8.78926 48.0134 8.78926C48.2272 8.78926 48.4076 8.86941 48.5545 9.02972C48.7148 9.17667 48.795 9.35702 48.795 9.57077V22.9567H56.6302C56.8439 22.9567 57.0243 23.0302 57.1712 23.1772C57.3315 23.3108 57.4117 23.4844 57.4117 23.6982C57.4117 23.912 57.3315 24.0923 57.1712 24.2392C57.0243 24.3728 56.8439 24.4396 56.6302 24.4396H48.0134ZM64.5418 24.5398C63.5131 24.5398 62.5914 24.2993 61.7764 23.8184C60.9615 23.3241 60.3136 22.6562 59.8326 21.8145C59.3651 20.9729 59.1313 20.0244 59.1313 18.969C59.1313 17.9003 59.3717 16.9451 59.8527 16.1034C60.347 15.2618 61.0149 14.6005 61.8566 14.1196C62.6982 13.6253 63.6467 13.3782 64.7021 13.3782C65.7575 13.3782 66.6993 13.6253 67.5276 14.1196C68.3692 14.6005 69.0305 15.2618 69.5114 16.1034C70.0057 16.9451 70.2595 17.9003 70.2729 18.969V23.6781C70.2729 23.9052 70.1994 24.0923 70.0525 24.2392C69.9055 24.3728 69.7185 24.4396 69.4914 24.4396C69.2643 24.4396 69.0772 24.3728 68.9303 24.2392C68.7834 24.0923 68.7099 23.9052 68.7099 23.6781V22.4558C68.2556 23.097 67.6678 23.6046 66.9464 23.9787C66.225 24.3528 65.4235 24.5398 64.5418 24.5398ZM64.7021 23.1371C65.477 23.1371 66.1649 22.9567 66.7661 22.596C67.3806 22.2353 67.8616 21.741 68.2089 21.1132C68.5696 20.4719 68.7499 19.7572 68.7499 18.969C68.7499 18.1674 68.5696 17.4527 68.2089 16.8248C67.8616 16.197 67.3806 15.7027 66.7661 15.342C66.1649 14.9679 65.477 14.7809 64.7021 14.7809C63.9406 14.7809 63.2526 14.9679 62.6381 15.342C62.0235 15.7027 61.5359 16.197 61.1752 16.8248C60.8145 17.4527 60.6342 18.1674 60.6342 18.969C60.6342 19.7572 60.8145 20.4719 61.1752 21.1132C61.5359 21.741 62.0235 22.2353 62.6381 22.596C63.2526 22.9567 63.9406 23.1371 64.7021 23.1371ZM75.1575 29.2089C75.0507 29.2089 74.9304 29.1822 74.7968 29.1287C74.3426 28.9283 74.2157 28.6077 74.4161 28.1668L76.42 23.7783L76.3999 23.7583L71.9312 14.5003C71.8377 14.2999 71.8244 14.1129 71.8912 13.9392C71.9579 13.7655 72.0916 13.632 72.2919 13.5385C72.7328 13.3381 73.0534 13.4517 73.2538 13.8791L77.1614 22.1151L80.8886 13.8992C81.089 13.4717 81.4096 13.3515 81.8505 13.5385C82.3047 13.7255 82.4316 14.0394 82.2312 14.4803L75.7386 28.748C75.605 29.0552 75.4114 29.2089 75.1575 29.2089ZM88.8305 24.5398C87.7484 24.5398 86.7865 24.306 85.9449 23.8384C85.1165 23.3575 84.462 22.6962 83.9811 21.8546C83.5134 21.013 83.2797 20.0511 83.2797 18.969C83.2797 17.8735 83.5001 16.9116 83.941 16.0834C84.3951 15.2418 85.0163 14.5805 85.8046 14.0996C86.5928 13.6186 87.5012 13.3782 88.5299 13.3782C89.5451 13.3782 90.4268 13.612 91.175 14.0795C91.9365 14.5338 92.5243 15.1683 92.9384 15.9832C93.3525 16.7982 93.5597 17.7266 93.5597 18.7686C93.5597 18.9824 93.4928 19.156 93.3593 19.2896C93.2256 19.4099 93.0519 19.47 92.8382 19.47H84.7425C84.8227 20.1914 85.0431 20.8326 85.4038 21.3937C85.7645 21.9414 86.2387 22.3756 86.8266 22.6962C87.4144 23.0035 88.0823 23.1571 88.8305 23.1571C89.3114 23.1571 89.7923 23.077 90.2733 22.9167C90.7675 22.743 91.1616 22.5293 91.4556 22.2754C91.6025 22.1552 91.7695 22.0951 91.9565 22.0951C92.1435 22.0817 92.3038 22.1285 92.4375 22.2353C92.6111 22.3956 92.698 22.5693 92.698 22.7563C92.7113 22.9433 92.6379 23.1037 92.4776 23.2373C92.0367 23.6114 91.4756 23.9252 90.7943 24.1791C90.113 24.4196 89.4583 24.5398 88.8305 24.5398ZM88.5299 14.7608C87.5012 14.7608 86.6529 15.0815 85.985 15.7227C85.3169 16.3506 84.9162 17.1722 84.7826 18.1875H92.1169C92.0099 17.1722 91.6359 16.3506 90.9947 15.7227C90.3667 15.0815 89.5451 14.7608 88.5299 14.7608ZM96.9311 24.4396C96.4236 24.4396 96.1699 24.1858 96.1699 23.6781V14.2398C96.1699 13.7322 96.4236 13.4784 96.9311 13.4784C97.4387 13.4784 97.6924 13.7322 97.6924 14.2398V15.1015C98.0932 14.5671 98.5876 14.1463 99.1757 13.8391C99.7637 13.5184 100.412 13.3581 101.12 13.3581C101.734 13.3581 102.209 13.4449 102.542 13.6186C102.876 13.7923 103.003 14.0461 102.923 14.3801C102.856 14.6873 102.696 14.8476 102.442 14.861C102.201 14.861 101.915 14.8476 101.58 14.821C100.832 14.7542 100.165 14.8343 99.5765 15.0614C99.0024 15.2752 98.5408 15.6091 98.1934 16.0634C97.86 16.5176 97.6924 17.0587 97.6924 17.6865V23.6781C97.6924 24.1858 97.4387 24.4396 96.9311 24.4396ZM110.357 24.64C109.075 24.64 107.939 24.3661 106.951 23.8184C105.976 23.2707 105.281 22.5426 104.867 21.6342C104.76 21.4204 104.753 21.2267 104.847 21.053C104.953 20.866 105.127 20.7391 105.368 20.6723C105.554 20.6188 105.735 20.6389 105.909 20.7324C106.096 20.826 106.236 20.9662 106.33 21.1532C106.637 21.741 107.144 22.2219 107.852 22.596C108.56 22.9701 109.396 23.1571 110.357 23.1571C111.413 23.1571 112.281 22.9033 112.962 22.3956C113.657 21.8746 114.004 21.1266 114.004 20.1513C114.004 19.3363 113.704 18.635 113.103 18.0472C112.502 17.4594 111.56 17.0853 110.278 16.925C108.715 16.738 107.492 16.2571 106.611 15.4822C105.729 14.6941 105.288 13.7322 105.288 12.5966C105.288 11.7817 105.501 11.0737 105.929 10.4725C106.37 9.87136 106.971 9.41046 107.732 9.08984C108.494 8.75585 109.369 8.58887 110.357 8.58887C111.466 8.58887 112.414 8.8427 113.203 9.35034C113.991 9.84467 114.599 10.4324 115.027 11.1138C115.16 11.3275 115.2 11.5346 115.147 11.735C115.107 11.9354 114.993 12.089 114.806 12.1959C114.606 12.2894 114.399 12.3027 114.185 12.2359C113.985 12.1692 113.831 12.0422 113.724 11.8552C113.416 11.3877 112.996 10.9801 112.461 10.6328C111.941 10.2721 111.233 10.0851 110.338 10.0717C109.282 10.0717 108.434 10.2988 107.792 10.7531C107.151 11.1939 106.831 11.8418 106.831 12.6968C106.831 13.3782 107.104 13.9727 107.652 14.4803C108.214 14.9879 109.202 15.342 110.618 15.5424C112.288 15.7828 113.524 16.2972 114.326 17.0853C115.14 17.8602 115.548 18.8755 115.548 20.1313C115.548 21.0931 115.314 21.9147 114.846 22.596C114.392 23.264 113.77 23.7717 112.983 24.119C112.194 24.4663 111.32 24.64 110.357 24.64ZM121.1 24.4396C120.727 24.4396 120.48 24.2727 120.359 23.9386L117.233 14.5605C117.059 13.8391 117.253 13.4784 117.814 13.4784C118.175 13.4784 118.429 13.6721 118.576 14.0595L121.141 21.8746L123.505 14.0795C123.558 13.9058 123.646 13.7655 123.765 13.6587C123.899 13.5385 124.066 13.4784 124.266 13.4784C124.654 13.4784 124.908 13.6787 125.028 14.0795L127.332 21.8346L129.877 14.0595C130.011 13.6721 130.258 13.4784 130.619 13.4784C130.913 13.4784 131.113 13.5919 131.22 13.819C131.327 14.0328 131.327 14.2799 131.22 14.5605L128.094 23.9386C127.988 24.2727 127.747 24.4396 127.372 24.4396C127.199 24.4396 127.039 24.3929 126.892 24.2993C126.758 24.2058 126.671 24.0856 126.631 23.9386L124.226 15.9632L121.821 23.9386C121.702 24.2727 121.461 24.4396 121.1 24.4396ZM137.887 24.5398C136.858 24.5398 135.937 24.2993 135.122 23.8184C134.306 23.3241 133.659 22.6562 133.178 21.8145C132.711 20.9729 132.477 20.0244 132.477 18.969C132.477 17.9003 132.717 16.9451 133.198 16.1034C133.692 15.2618 134.361 14.6005 135.202 14.1196C136.043 13.6253 136.992 13.3782 138.047 13.3782C139.103 13.3782 140.045 13.6253 140.873 14.1196C141.714 14.6005 142.376 15.2618 142.857 16.1034C143.351 16.9451 143.605 17.9003 143.618 18.969V23.6781C143.618 23.9052 143.545 24.0923 143.398 24.2392C143.251 24.3728 143.064 24.4396 142.837 24.4396C142.609 24.4396 142.422 24.3728 142.276 24.2392C142.129 24.0923 142.055 23.9052 142.055 23.6781V22.4558C141.601 23.097 141.013 23.6046 140.292 23.9787C139.571 24.3528 138.769 24.5398 137.887 24.5398ZM138.047 23.1371C138.823 23.1371 139.51 22.9567 140.111 22.596C140.726 22.2353 141.207 21.741 141.554 21.1132C141.915 20.4719 142.095 19.7572 142.095 18.969C142.095 18.1674 141.915 17.4527 141.554 16.8248C141.207 16.197 140.726 15.7027 140.111 15.342C139.51 14.9679 138.823 14.7809 138.047 14.7809C137.286 14.7809 136.598 14.9679 135.984 15.342C135.369 15.7027 134.881 16.197 134.521 16.8248C134.16 17.4527 133.98 18.1674 133.98 18.969C133.98 19.7572 134.16 20.4719 134.521 21.1132C134.881 21.741 135.369 22.2353 135.984 22.596C136.598 22.9567 137.286 23.1371 138.047 23.1371ZM147.401 29.1287C147.16 29.1287 146.967 29.0552 146.82 28.9083C146.686 28.7747 146.619 28.5877 146.619 28.3472V18.8888C146.632 17.8468 146.879 16.9116 147.361 16.0834C147.855 15.2418 148.516 14.5805 149.345 14.0996C150.186 13.6186 151.128 13.3782 152.17 13.3782C153.239 13.3782 154.194 13.6253 155.035 14.1196C155.877 14.6005 156.538 15.2618 157.02 16.1034C157.514 16.9451 157.761 17.9003 157.761 18.969C157.761 20.0244 157.521 20.9729 157.039 21.8145C156.572 22.6562 155.931 23.3241 155.116 23.8184C154.3 24.2993 153.379 24.5398 152.351 24.5398C151.456 24.5398 150.64 24.3528 149.906 23.9787C149.184 23.5913 148.603 23.0836 148.162 22.4558V28.3472C148.162 28.5877 148.088 28.7747 147.942 28.9083C147.808 29.0552 147.628 29.1287 147.401 29.1287ZM152.17 23.1371C152.944 23.1371 153.639 22.9567 154.254 22.596C154.869 22.2353 155.349 21.741 155.697 21.1132C156.058 20.4719 156.238 19.7572 156.238 18.969C156.238 18.1674 156.058 17.4527 155.697 16.8248C155.349 16.197 154.869 15.7027 154.254 15.342C153.639 14.9679 152.944 14.7809 152.17 14.7809C151.409 14.7809 150.721 14.9679 150.106 15.342C149.491 15.7027 149.011 16.197 148.663 16.8248C148.316 17.4527 148.143 18.1674 148.143 18.969C148.143 19.7572 148.316 20.4719 148.663 21.1132C149.011 21.741 149.491 22.2353 150.106 22.596C150.721 22.9567 151.409 23.1371 152.17 23.1371Z" fill="white"/>
</g>
<defs>
<linearGradient id="paint0_linear_2854_7344" x1="17.9316" y1="5.12305" x2="17.9316" y2="30.7402" gradientUnits="userSpaceOnUse">
<stop stop-color="#818CF8"/>
<stop offset="1" stop-color="#F472B6"/>
</linearGradient>
<clipPath id="clip0_2854_7344">
<rect width="159" height="35.9576" fill="white"/>
</clipPath>
</defs>
</svg>
