<svg width="64" height="64" viewBox="0 0 64 64" fill="none" xmlns="http://www.w3.org/2000/svg">
<rect width="64" height="64" fill="white"/>
<path d="M46.4666 5.35629C42.2623 1.8928 36.9905 -0.000246412 31.5503 4.43263e-05C26.1031 -0.0105646 20.8226 1.88346 16.617 5.35629C13.6164 7.82151 11.2701 10.9929 9.78713 14.588C8.30414 18.1831 7.73047 22.0904 8.11723 25.9618C8.50398 29.8331 9.83916 33.5485 12.0038 36.7769C14.1685 40.0053 17.0955 42.6465 20.5241 44.4654C20.6088 44.7374 20.6936 45.0095 20.7953 45.3156C21.167 46.3478 21.6743 47.3257 22.3039 48.2232C22.7823 48.8997 23.4906 49.3774 24.2955 49.5666C24.7358 49.6742 25.1928 49.6935 25.6405 49.6235C26.0882 49.5535 26.5177 49.3954 26.9044 49.1584C27.291 48.9215 27.6272 48.6102 27.8936 48.2425C28.16 47.8749 28.3514 47.458 28.4568 47.016C28.6953 45.945 28.795 44.8477 28.7535 43.7512C28.7263 42.6979 28.6129 41.6487 28.4145 40.614C28.2979 39.9174 28.0118 39.2605 27.5816 38.7014C27.1514 38.1423 26.5904 37.6983 25.9482 37.4087H25.8126C22.6869 36.039 20.1214 33.6393 18.5409 30.6072C17.6185 28.7352 17.101 26.6887 17.0226 24.602C16.9442 22.5153 17.3065 20.4355 18.0859 18.4992C18.8652 16.5629 20.0439 14.8138 21.5446 13.3667C23.0453 11.9195 24.8341 10.8071 26.7935 10.1024C28.753 9.39772 30.8389 9.11666 32.9143 9.27768C34.9897 9.4387 37.0077 10.0382 38.8359 11.0367C40.6641 12.0353 42.2611 13.4104 43.5221 15.0718C44.7832 16.7332 45.6797 18.6433 46.153 20.6768C46.8883 24.0479 46.4423 27.5701 44.8902 30.6497C43.3128 33.7492 40.7471 36.2302 37.6016 37.6978H37.5422L37.1608 37.8848C37.0337 37.9529 36.9151 38.0294 36.7964 38.1059L36.5252 38.3184C36.4091 38.4138 36.2987 38.516 36.1947 38.6245C35.9008 38.9185 35.6548 39.2571 35.4658 39.6278L35.3472 39.8488L35.2878 39.9933L35.1353 40.2994C35.0686 40.4659 35.012 40.6362 34.9658 40.8095C34.8473 41.2913 34.7567 41.7796 34.6946 42.2719C34.6183 43.1221 34.5844 43.8362 34.559 44.5504L34.4996 48.6143C34.4996 49.9321 34.4573 51.2414 34.4403 52.5422C34.4018 53.9021 34.0753 55.2381 33.4826 56.4617V56.4617C33.0719 57.2661 32.8781 58.1643 32.9207 59.0671C32.9633 59.9699 33.2408 60.8458 33.7254 61.6077C34.2101 62.3695 34.8851 62.9909 35.6834 63.4099C36.4817 63.8289 37.3754 64.031 38.2756 63.9961C39.1759 63.9612 40.0514 63.6905 40.8151 63.211C41.5787 62.7314 42.2039 62.0596 42.6286 61.2625C43.0532 60.4654 43.2624 59.5706 43.2354 58.6673C43.2084 57.7639 42.9462 56.8833 42.4748 56.1131C41.7929 54.9987 41.3888 53.736 41.2967 52.4317C41.2289 51.1904 41.1781 49.9577 41.2204 48.7419C41.2366 47.5595 41.3414 46.3801 41.534 45.2135C41.5764 44.9585 41.6273 44.7204 41.6781 44.4909C46.1648 42.3889 49.8562 38.8916 52.2043 34.5181C54.7737 29.7455 55.6065 24.2243 54.5595 18.9028C53.5124 13.5813 50.651 8.79159 46.4666 5.35629V5.35629Z" fill="#04045A"/>
<path d="M37.5321 30.0681L31.7361 24.2721L25.9319 18.4679L25.464 18C23.86 19.6742 22.9757 21.9102 23.0005 24.2287C23.0254 26.5471 23.9574 28.7636 25.5969 30.4031C27.2364 32.0426 29.4529 32.9747 31.7713 32.9995C34.0898 33.0243 36.3258 32.14 38 30.536L37.5321 30.0681Z" fill="#04045A"/>
</svg>
