<svg width="64" height="64" viewBox="0 0 64 64" fill="none" xmlns="http://www.w3.org/2000/svg">
<rect width="64" height="64" fill="white"/>
<path d="M9.36734 26.2655C8.34352 25.4246 7.05974 24.965 5.73494 24.9651C4.40846 24.9625 3.12255 25.4224 2.09841 26.2655C1.3677 26.864 0.796339 27.634 0.435201 28.5068C0.0740636 29.3797 -0.065635 30.3283 0.0285474 31.2682C0.12273 32.2081 0.447869 33.1101 0.975009 33.8939C1.50215 34.6777 2.21492 35.319 3.04985 35.7606C3.07049 35.8266 3.09113 35.8927 3.1159 35.967C3.20641 36.2176 3.32996 36.455 3.48326 36.6729C3.59976 36.8371 3.77225 36.9531 3.96827 36.999C4.07547 37.0252 4.18678 37.0299 4.2958 37.0129C4.40482 36.9959 4.50942 36.9575 4.60357 36.9C4.69773 36.8424 4.77959 36.7669 4.84447 36.6776C4.90935 36.5883 4.95596 36.4871 4.98163 36.3798C5.0397 36.1198 5.06398 35.8534 5.05386 35.5872C5.04724 35.3315 5.01963 35.0767 4.97131 34.8255C4.94292 34.6564 4.87326 34.4969 4.7685 34.3612C4.66374 34.2254 4.52711 34.1176 4.37073 34.0473H4.3377C3.57655 33.7148 2.9518 33.1322 2.56691 32.396C2.34228 31.9415 2.21628 31.4447 2.19718 30.9381C2.17808 30.4314 2.26632 29.9265 2.4561 29.4564C2.64588 28.9863 2.93291 28.5616 3.29836 28.2103C3.66381 27.859 4.09941 27.5889 4.57658 27.4178C5.05376 27.2467 5.56171 27.1785 6.06711 27.2176C6.57251 27.2567 7.06393 27.4022 7.50913 27.6446C7.95432 27.8871 8.34322 28.2209 8.65031 28.6243C8.9574 29.0276 9.17573 29.4914 9.29098 29.9851C9.47004 30.8035 9.36143 31.6587 8.98346 32.4063C8.59933 33.1588 7.97453 33.7612 7.20854 34.1175H7.19409L7.10122 34.1629C7.07026 34.1794 7.04136 34.198 7.01247 34.2166L6.94643 34.2682C6.91815 34.2913 6.89128 34.3162 6.86594 34.3425C6.79437 34.4139 6.73447 34.4961 6.68844 34.5861L6.65955 34.6397L6.6451 34.6748L6.60795 34.7491C6.59171 34.7895 6.57792 34.8309 6.56668 34.873C6.53782 34.9899 6.51577 35.1085 6.50063 35.228C6.48206 35.4344 6.4738 35.6078 6.46761 35.7812L6.45316 36.7679C6.45316 37.0878 6.44284 37.4057 6.43872 37.7215C6.42934 38.0516 6.34984 38.376 6.2055 38.6731V38.6731C6.10547 38.8684 6.0583 39.0864 6.06867 39.3056C6.07905 39.5248 6.1466 39.7375 6.26463 39.9224C6.38265 40.1074 6.54704 40.2583 6.74143 40.36C6.93582 40.4617 7.15346 40.5108 7.37269 40.5023C7.59193 40.4938 7.80513 40.4281 7.99109 40.3117C8.17705 40.1953 8.32931 40.0322 8.43271 39.8386C8.53611 39.6451 8.58706 39.4279 8.58049 39.2085C8.57392 38.9892 8.51006 38.7754 8.39526 38.5884C8.22922 38.3179 8.13081 38.0113 8.10838 37.6947C8.09187 37.3933 8.07949 37.094 8.08981 36.7988C8.09374 36.5118 8.11927 36.2254 8.16617 35.9422C8.17649 35.8803 8.18887 35.8225 8.20126 35.7668C9.29385 35.2564 10.1928 34.4073 10.7646 33.3455C11.3903 32.1868 11.5931 30.8464 11.3381 29.5544C11.0831 28.2624 10.3863 27.0995 9.36734 26.2655V26.2655Z" fill="#04045A"/>
<path d="M7.20459 32.1734L5.7475 30.7162L4.28835 29.2568L4.17071 29.1392C3.76747 29.5601 3.54515 30.1223 3.5514 30.7052C3.55764 31.2882 3.79196 31.8455 4.20412 32.2577C4.61629 32.6699 5.17351 32.9043 5.75636 32.9105C6.33922 32.9167 6.90133 32.6944 7.32223 32.2911L7.20459 32.1734Z" fill="#04045A"/>
<path d="M45.5842 34.2168H41.4565V27.1657C41.4565 26.9193 41.3586 26.6831 41.1845 26.5089C41.0103 26.3347 40.7741 26.2368 40.5277 26.2368C40.2814 26.2368 40.0452 26.3347 39.871 26.5089C39.6968 26.6831 39.599 26.9193 39.599 27.1657V35.1457C39.5995 35.3918 39.6976 35.6278 39.8716 35.8019C40.0457 35.9759 40.2816 36.074 40.5277 36.0745H45.5801C45.8264 36.0745 46.0626 35.9767 46.2368 35.8025C46.411 35.6283 46.5088 35.392 46.5088 35.1457C46.5088 34.8993 46.411 34.663 46.2368 34.4888C46.0626 34.3147 45.8264 34.2168 45.5801 34.2168H45.5842Z" fill="#04045A"/>
<path d="M53.6827 26.2368H48.5044C48.2581 26.2368 48.0219 26.3347 47.8477 26.5089C47.6735 26.6831 47.5757 26.9193 47.5757 27.1657C47.5757 27.412 47.6735 27.6483 47.8477 27.8225C48.0219 27.9967 48.2581 28.0945 48.5044 28.0945H53.693C53.9393 28.0945 54.1755 27.9967 54.3497 27.8225C54.5239 27.6483 54.6217 27.412 54.6217 27.1657C54.6217 26.9193 54.5239 26.6831 54.3497 26.5089C54.1755 26.3347 53.9393 26.2368 53.693 26.2368H53.6827Z" fill="#04045A"/>
<path d="M52.4609 32.0845C52.7072 32.0845 52.9435 31.9867 53.1176 31.8125C53.2918 31.6383 53.3896 31.402 53.3896 31.1557C53.3896 30.9093 53.2918 30.6731 53.1176 30.4989C52.9435 30.3247 52.7072 30.2268 52.4609 30.2268H49.716C49.4697 30.2268 49.2334 30.3247 49.0593 30.4989C48.8851 30.6731 48.7872 30.9093 48.7872 31.1557C48.7872 31.402 48.8851 31.6383 49.0593 31.8125C49.2334 31.9867 49.4697 32.0845 49.716 32.0845H52.4609Z" fill="#04045A"/>
<path d="M53.6827 34.2168H48.5044C48.2581 34.2168 48.0219 34.3147 47.8477 34.4889C47.6735 34.6631 47.5757 34.8993 47.5757 35.1457C47.5757 35.392 47.6735 35.6283 47.8477 35.8025C48.0219 35.9767 48.2581 36.0745 48.5044 36.0745H53.693C53.9393 36.0745 54.1755 35.9767 54.3497 35.8025C54.5239 35.6283 54.6217 35.392 54.6217 35.1457C54.6217 34.8993 54.5239 34.6631 54.3497 34.4889C54.1755 34.3147 53.9393 34.2168 53.693 34.2168H53.6827Z" fill="#04045A"/>
<path d="M28.0248 26.2368C27.7785 26.2368 27.5422 26.3347 27.3681 26.5089C27.1939 26.6831 27.096 26.9193 27.096 27.1657V30.2H23.1313V27.1657C23.1316 27.0436 23.1078 26.9227 23.0612 26.8099C23.0146 26.6971 22.9462 26.5946 22.8599 26.5083C22.7736 26.422 22.6711 26.3536 22.5583 26.307C22.4455 26.2604 22.3246 26.2365 22.2026 26.2368H13.8109C13.5646 26.2368 13.3284 26.3347 13.1542 26.5089C12.9801 26.6831 12.8822 26.9193 12.8822 27.1657C12.8822 27.412 12.9801 27.6483 13.1542 27.8225C13.3284 27.9967 13.5646 28.0945 13.8109 28.0945H16.4279V35.1457C16.4279 35.2676 16.4519 35.3884 16.4986 35.5011C16.5453 35.6138 16.6137 35.7162 16.6999 35.8025C16.7862 35.8887 16.8886 35.9571 17.0012 36.0038C17.1139 36.0505 17.2347 36.0745 17.3567 36.0745C17.4786 36.0745 17.5994 36.0505 17.7121 36.0038C17.8248 35.9571 17.9271 35.8887 18.0134 35.8025C18.0996 35.7162 18.168 35.6138 18.2147 35.5011C18.2614 35.3884 18.2854 35.2676 18.2854 35.1457V28.0945H21.2739V35.1457C21.2739 35.392 21.3717 35.6283 21.5459 35.8025C21.7201 35.9767 21.9563 36.0745 22.2026 36.0745C22.4489 36.0745 22.6852 35.9767 22.8593 35.8025C23.0335 35.6283 23.1313 35.392 23.1313 35.1457V32.0494H27.096V35.1457C27.096 35.392 27.1939 35.6283 27.3681 35.8025C27.5422 35.9767 27.7785 36.0745 28.0248 36.0745C28.2711 36.0745 28.5073 35.9767 28.6815 35.8025C28.8557 35.6283 28.9535 35.392 28.9535 35.1457V27.1657C28.9538 27.0436 28.9299 26.9227 28.8834 26.8099C28.8368 26.6971 28.7684 26.5946 28.6821 26.5083C28.5958 26.422 28.4933 26.3536 28.3805 26.307C28.2677 26.2604 28.1468 26.2365 28.0248 26.2368V26.2368Z" fill="#04045A"/>
<path d="M61.5234 30.2264H58.2212C58.057 30.2264 57.8995 30.1612 57.7834 30.0451C57.6673 29.9289 57.602 29.7714 57.602 29.6072V28.7113C57.602 28.5471 57.6673 28.3896 57.7834 28.2735C57.8995 28.1573 58.057 28.0921 58.2212 28.0921H61.6555C61.9018 28.0921 62.138 27.9942 62.3122 27.82C62.4863 27.6458 62.5842 27.4096 62.5842 27.1632C62.5842 26.9169 62.4863 26.6806 62.3122 26.5064C62.138 26.3322 61.9018 26.2344 61.6555 26.2344H58.2294C57.5726 26.2344 56.9427 26.4953 56.4782 26.9599C56.0137 27.4244 55.7528 28.0544 55.7528 28.7113V29.6072C55.7528 30.2641 56.0137 30.8941 56.4782 31.3587C56.9427 31.8232 57.5726 32.0842 58.2294 32.0842H61.5316C61.6958 32.0842 61.8533 32.1494 61.9694 32.2655C62.0856 32.3817 62.1508 32.5392 62.1508 32.7034V33.5992C62.1508 33.7635 62.0856 33.921 61.9694 34.0371C61.8533 34.1532 61.6958 34.2185 61.5316 34.2185H56.6836C56.4373 34.2185 56.2011 34.3163 56.0269 34.4905C55.8527 34.6647 55.7549 34.901 55.7549 35.1473C55.7549 35.3937 55.8527 35.63 56.0269 35.8041C56.2011 35.9783 56.4373 36.0762 56.6836 36.0762H61.5234C62.1802 36.0762 62.8102 35.8152 63.2746 35.3507C63.7391 34.8862 64 34.2562 64 33.5992V32.7013C63.9995 32.0448 63.7383 31.4153 63.2739 30.9512C62.8095 30.4871 62.1799 30.2264 61.5234 30.2264V30.2264Z" fill="#04045A"/>
<path d="M35.0316 26.8024C34.9602 26.6348 34.8411 26.4919 34.6892 26.3915C34.5373 26.2911 34.3592 26.2375 34.1771 26.2375C33.995 26.2375 33.8169 26.2911 33.665 26.3915C33.5131 26.4919 33.3941 26.6348 33.3227 26.8024L29.9297 34.7823C29.8697 34.9236 29.8456 35.0775 29.8596 35.2303C29.8736 35.3831 29.9252 35.53 30.0098 35.658C30.0944 35.786 30.2094 35.891 30.3446 35.9637C30.4797 36.0364 30.6307 36.0744 30.7841 36.0745H37.566C37.7194 36.0744 37.8704 36.0364 38.0056 35.9637C38.1407 35.891 38.2557 35.786 38.3403 35.658C38.425 35.53 38.4766 35.3831 38.4905 35.2303C38.5045 35.0775 38.4804 34.9236 38.4204 34.7823L35.0316 26.8024ZM32.1999 34.2168L34.1833 29.5415L36.1667 34.2168H32.1999Z" fill="#04045A"/>
</svg>
