<?xml version="1.0" encoding="utf-8"?>
<!-- Generator: Adobe Illustrator 16.0.0, SVG Export Plug-In . SVG Version: 6.00 Build 0)  -->
<!DOCTYPE svg PUBLIC "-//W3C//DTD SVG 1.1//EN" "http://www.w3.org/Graphics/SVG/1.1/DTD/svg11.dtd">
<svg version="1.1" id="Layer_1" xmlns="http://www.w3.org/2000/svg" xmlns:xlink="http://www.w3.org/1999/xlink" x="0px" y="0px"
	 width="1528.782px" height="949.822px" viewBox="2598.75 -110.357 1528.782 949.822"
	 enable-background="new 2598.75 -110.357 1528.782 949.822" xml:space="preserve">
<g>
	<path fill="none" stroke="#1B314F" stroke-miterlimit="10" d="M2708.412,714.956c0-362.897,293.475-657.084,655.496-657.084
		c362.021,0,655.496,294.187,655.496,657.084c0,42.394-4.008,83.85-11.658,124.009h109.789c6.241-39.306,9.497-79.605,9.497-120.667
		c0-421.754-342.005-763.655-763.89-763.655S2599.25,296.544,2599.25,718.298c0,41.061,3.256,81.361,9.498,120.667h111.323
		C2712.42,798.806,2708.412,757.35,2708.412,714.956z"/>
	<path fill="none" stroke="#1B314F" stroke-miterlimit="10" d="M3363.908,57.872c-362.021,0-655.496,294.187-655.496,657.084
		c0,42.394,4.008,83.85,11.659,124.009h105.735c-9.019-39.543-13.789-80.704-13.789-122.98
		c0-304.161,246.57-550.732,550.731-550.732s550.731,246.571,550.731,550.732c0,42.276-4.77,83.437-13.789,122.98h108.055
		c7.65-40.159,11.658-81.615,11.658-124.009C4019.405,352.059,3725.929,57.872,3363.908,57.872z"/>
	<path fill="none" stroke="#1B314F" stroke-miterlimit="10" d="M2914.084,719.773c0-247.854,201.084-448.779,449.135-448.779
		s449.135,200.925,449.135,448.779c0,41.27-5.582,81.235-16.021,119.191h103.358c9.02-39.543,13.789-80.704,13.789-122.98
		c0-304.161-246.57-550.732-550.731-550.732s-550.731,246.571-550.731,550.732c0,42.276,4.771,83.437,13.789,122.98h104.298
		C2919.666,801.008,2914.084,761.043,2914.084,719.773z"/>
	<path fill="none" stroke="#1B314F" stroke-miterlimit="10" d="M3363.219,270.994c-248.051,0-449.135,200.925-449.135,448.779
		c0,41.27,5.582,81.235,16.021,119.191h67.52c-12.557-38.106-19.358-78.835-19.358-121.157
		c0-213.264,172.551-386.149,385.404-386.149c212.852,0,385.402,172.885,385.402,386.149c0,42.322-6.802,83.051-19.358,121.157
		h66.619c10.438-37.957,16.021-77.922,16.021-119.191C3812.354,471.919,3611.27,270.994,3363.219,270.994z"/>
	<path fill="none" stroke="#1B314F" stroke-miterlimit="10" d="M3039.182,718.413c0-178.747,144.973-323.649,323.807-323.649
		c178.833,0,323.806,144.903,323.806,323.649c0,42.611-8.255,83.292-23.228,120.552h66.147
		c12.557-38.106,19.358-78.835,19.358-121.157c0-213.264-172.551-386.149-385.402-386.149
		c-212.854,0-385.404,172.885-385.404,386.149c0,42.322,6.802,83.051,19.358,121.157h64.786
		C3047.438,801.705,3039.182,761.024,3039.182,718.413z"/>
	<circle fill="#1B314F" cx="3362.749" cy="-45.357" r="65"/>
	<path fill="#FFFFFF" d="M3326.271-51.432c-1.515-1.245-3.416-1.925-5.377-1.925c-1.963-0.004-3.867,0.677-5.383,1.925
		c-1.081,0.886-1.927,2.026-2.462,3.318c-0.534,1.292-0.741,2.696-0.602,4.087s0.62,2.726,1.4,3.887
		c0.781,1.16,1.836,2.109,3.072,2.763c0.029,0.098,0.061,0.195,0.097,0.305c0.134,0.371,0.317,0.723,0.544,1.045
		c0.173,0.243,0.428,0.415,0.718,0.483c0.159,0.039,0.324,0.046,0.485,0.02c0.161-0.025,0.315-0.082,0.456-0.167
		c0.139-0.085,0.26-0.197,0.355-0.329c0.097-0.132,0.165-0.282,0.203-0.441c0.086-0.384,0.122-0.779,0.107-1.173
		c-0.01-0.378-0.051-0.756-0.122-1.127c-0.042-0.251-0.146-0.487-0.3-0.688c-0.155-0.201-0.358-0.36-0.59-0.464h-0.049
		c-1.127-0.492-2.051-1.355-2.621-2.445c-0.333-0.672-0.519-1.408-0.547-2.158s0.103-1.497,0.383-2.193
		c0.281-0.696,0.706-1.324,1.247-1.844s1.186-0.92,1.893-1.173c0.706-0.254,1.458-0.355,2.206-0.297s1.475,0.273,2.134,0.632
		c0.659,0.359,1.235,0.853,1.69,1.45c0.453,0.597,0.776,1.284,0.947,2.015c0.266,1.211,0.104,2.477-0.455,3.584
		c-0.568,1.114-1.493,2.005-2.627,2.533h-0.021l-0.137,0.067c-0.047,0.024-0.09,0.052-0.133,0.079l-0.097,0.077
		c-0.042,0.034-0.082,0.071-0.12,0.11c-0.105,0.105-0.193,0.227-0.262,0.36l-0.043,0.08l-0.021,0.052l-0.055,0.11
		c-0.025,0.059-0.045,0.121-0.063,0.183c-0.041,0.173-0.074,0.349-0.097,0.525c-0.028,0.306-0.04,0.563-0.049,0.819l-0.022,1.461
		c0,0.473-0.015,0.944-0.021,1.411c-0.014,0.489-0.132,0.969-0.345,1.409l0,0c-0.148,0.289-0.219,0.612-0.203,0.936
		c0.016,0.325,0.116,0.639,0.29,0.913c0.175,0.274,0.418,0.497,0.706,0.648s0.609,0.223,0.935,0.211
		c0.324-0.013,0.641-0.11,0.915-0.283c0.275-0.172,0.501-0.413,0.654-0.7c0.152-0.286,0.228-0.608,0.218-0.932
		c-0.009-0.325-0.104-0.642-0.274-0.918c-0.245-0.401-0.391-0.855-0.425-1.323c-0.023-0.446-0.042-0.889-0.026-1.326
		c0.006-0.425,0.044-0.849,0.112-1.268c0.016-0.092,0.034-0.178,0.053-0.26c1.616-0.755,2.947-2.012,3.794-3.584
		c0.926-1.715,1.227-3.699,0.849-5.612C3328.811-48.476,3327.779-50.198,3326.271-51.432L3326.271-51.432z"/>
	<path fill="#FFFFFF" d="M3323.071-42.688l-2.157-2.157l-2.159-2.16l-0.175-0.174c-0.597,0.623-0.926,1.455-0.917,2.318
		c0.01,0.863,0.356,1.688,0.967,2.298s1.435,0.957,2.298,0.966c0.863,0.009,1.694-0.32,2.317-0.917L3323.071-42.688z"/>
	<path fill="#FFFFFF" d="M3379.879-39.663h-6.11V-50.1c0-0.364-0.14-0.714-0.4-0.972c-0.26-0.258-0.609-0.403-0.97-0.403
		c-0.37,0-0.72,0.145-0.97,0.403c-0.26,0.258-0.41,0.608-0.41,0.972v11.812c0,0.365,0.15,0.714,0.41,0.972
		c0.25,0.257,0.6,0.403,0.97,0.403h7.48c0.359,0,0.71-0.145,0.97-0.402c0.26-0.258,0.4-0.608,0.4-0.973
		c0-0.364-0.141-0.714-0.4-0.972C3380.589-39.518,3380.239-39.663,3379.879-39.663L3379.879-39.663z"/>
	<path fill="#FFFFFF" d="M3391.868-51.475h-7.67c-0.359,0-0.71,0.145-0.97,0.403c-0.26,0.258-0.4,0.608-0.4,0.972
		c0,0.365,0.141,0.715,0.4,0.972c0.26,0.258,0.61,0.403,0.97,0.403h7.681c0.37,0,0.72-0.145,0.979-0.403
		c0.25-0.257,0.4-0.607,0.4-0.972c0-0.364-0.15-0.714-0.4-0.972c-0.26-0.258-0.609-0.403-0.979-0.403H3391.868z"/>
	<path fill="#FFFFFF" d="M3390.059-42.819c0.36,0,0.71-0.145,0.97-0.403c0.26-0.258,0.4-0.607,0.4-0.972
		c0-0.365-0.141-0.714-0.4-0.972c-0.26-0.258-0.609-0.403-0.97-0.403h-4.06c-0.37,0-0.721,0.145-0.98,0.403
		c-0.25,0.258-0.4,0.607-0.4,0.972c0,0.365,0.15,0.714,0.4,0.972c0.26,0.258,0.61,0.403,0.98,0.403H3390.059z"/>
	<path fill="#FFFFFF" d="M3391.868-39.663h-7.67c-0.359,0-0.71,0.145-0.97,0.403c-0.26,0.258-0.4,0.608-0.4,0.972
		c0,0.365,0.141,0.715,0.4,0.972c0.26,0.258,0.61,0.403,0.97,0.403h7.681c0.37,0,0.72-0.145,0.979-0.403
		c0.25-0.257,0.4-0.607,0.4-0.972c0-0.364-0.15-0.714-0.4-0.972c-0.26-0.258-0.609-0.403-0.979-0.403H3391.868z"/>
	<path fill="#FFFFFF" d="M3353.889-51.475c-0.37,0-0.72,0.145-0.98,0.403c-0.25,0.258-0.399,0.608-0.399,0.972v4.492h-5.87V-50.1
		c0-0.18-0.03-0.359-0.101-0.526c-0.069-0.167-0.17-0.319-0.3-0.447s-0.279-0.229-0.439-0.298c-0.17-0.069-0.351-0.104-0.53-0.104
		h-12.423c-0.364,0-0.714,0.145-0.972,0.403c-0.259,0.258-0.402,0.608-0.402,0.972c0,0.365,0.144,0.715,0.402,0.972
		c0.258,0.258,0.607,0.403,0.972,0.403h3.874v10.437c0,0.181,0.036,0.36,0.104,0.527c0.069,0.166,0.17,0.318,0.298,0.446
		c0.127,0.127,0.279,0.229,0.446,0.298c0.167,0.069,0.345,0.104,0.526,0.104c0.18,0,0.358-0.035,0.525-0.104
		c0.168-0.069,0.318-0.171,0.448-0.298c0.13-0.128,0.23-0.28,0.3-0.446c0.07-0.167,0.101-0.346,0.101-0.527v-10.437h4.42v10.437
		c0,0.365,0.149,0.715,0.41,0.973c0.25,0.257,0.6,0.402,0.97,0.402c0.36,0,0.71-0.145,0.97-0.402c0.261-0.258,0.4-0.608,0.4-0.973
		v-4.583h5.87v4.583c0,0.365,0.149,0.715,0.399,0.973c0.261,0.257,0.61,0.402,0.98,0.402c0.36,0,0.71-0.145,0.97-0.402
		c0.26-0.258,0.4-0.608,0.4-0.973V-50.1c0-0.18-0.03-0.359-0.101-0.526c-0.069-0.167-0.17-0.319-0.3-0.447s-0.28-0.229-0.45-0.298
		C3354.249-51.44,3354.069-51.475,3353.889-51.475L3353.889-51.475z"/>
	<path fill="#FFFFFF" d="M3403.479-45.569h-4.89c-0.25,0-0.48-0.097-0.65-0.268c-0.17-0.172-0.27-0.405-0.27-0.649v-1.326
		c0-0.243,0.1-0.476,0.27-0.648s0.4-0.268,0.65-0.268h5.08c0.369,0,0.72-0.145,0.97-0.403c0.26-0.258,0.41-0.608,0.41-0.972
		c0-0.365-0.15-0.715-0.41-0.972c-0.25-0.258-0.601-0.403-0.97-0.403h-5.07c-0.97,0-1.91,0.386-2.59,1.074
		c-0.69,0.687-1.08,1.62-1.08,2.592v1.326c0,0.973,0.39,1.905,1.08,2.593c0.68,0.688,1.62,1.074,2.59,1.074h4.89
		c0.24,0,0.47,0.096,0.65,0.268c0.17,0.172,0.26,0.405,0.26,0.649v1.326c0,0.243-0.09,0.476-0.26,0.648
		c-0.181,0.172-0.41,0.268-0.65,0.268h-7.18c-0.36,0-0.71,0.145-0.97,0.403c-0.261,0.258-0.4,0.607-0.4,0.972
		c0,0.365,0.14,0.714,0.4,0.972c0.26,0.258,0.609,0.403,0.97,0.403h7.17c0.97,0,1.9-0.386,2.59-1.074
		c0.69-0.687,1.07-1.62,1.07-2.592v-1.33c0-0.971-0.39-1.903-1.07-2.59C3405.379-45.183,3404.448-45.569,3403.479-45.569
		L3403.479-45.569z"/>
	<path fill="#FFFFFF" d="M3364.259-50.638c-0.101-0.248-0.28-0.459-0.5-0.608c-0.23-0.148-0.49-0.228-0.76-0.228
		c-0.271,0-0.53,0.08-0.761,0.228c-0.22,0.149-0.399,0.36-0.51,0.608l-5.02,11.813c-0.091,0.209-0.12,0.436-0.101,0.663
		c0.021,0.226,0.09,0.443,0.22,0.633c0.12,0.189,0.301,0.345,0.5,0.452c0.2,0.108,0.421,0.164,0.65,0.164h10.03
		c0.229,0,0.46-0.056,0.66-0.164c0.199-0.107,0.369-0.263,0.489-0.452c0.13-0.19,0.2-0.407,0.221-0.633
		c0.02-0.227-0.011-0.454-0.101-0.663L3364.259-50.638z M3360.069-39.663l2.94-6.92l2.93,6.92H3360.069z"/>
</g>
</svg>
