<?xml version="1.0" encoding="utf-8"?>
<!-- Generator: Adobe Illustrator 16.0.0, SVG Export Plug-In . SVG Version: 6.00 Build 0)  -->
<!DOCTYPE svg PUBLIC "-//W3C//DTD SVG 1.1//EN" "http://www.w3.org/Graphics/SVG/1.1/DTD/svg11.dtd">
<svg version="1.1" id="Layer_1" xmlns="http://www.w3.org/2000/svg" xmlns:xlink="http://www.w3.org/1999/xlink" x="0px" y="0px"
	 width="807.525px" height="1485.531px" viewBox="856.14 1217.051 807.525 1485.531"
	 enable-background="new 856.14 1217.051 807.525 1485.531" xml:space="preserve">
<polygon fill="#FFFFFF" points="1280.8,1605.902 1274.139,1603.648 1281.171,1603.68 1275.603,1599.386 1282.244,1601.697 
	1278.372,1595.827 1283.903,1600.171 1282.147,1593.36 1285.967,1599.265 1286.294,1582.756 1288.213,1599.079 1291.01,1592.627 
	1290.399,1599.633 1295.139,1594.438 1292.286,1600.865 1298.455,1597.49 1293.67,1602.644 1300.602,1601.457 1294.403,1604.775 
	1311.429,1605.771 1294.403,1607.031 1300.602,1610.35 1293.67,1609.163 1298.455,1614.314 1292.286,1610.94 1295.139,1617.369 
	1290.399,1612.175 1291.01,1619.179 1288.213,1612.728 1286.593,1628.789 1285.967,1612.542 1282.147,1618.445 1283.903,1611.637 
	1278.372,1615.979 1282.244,1610.108 1275.603,1612.422 1281.171,1608.127 1264.381,1606.967 "/>
<polygon fill="#FFFFFF" points="1159.3,1579.902 1152.64,1577.648 1159.671,1577.68 1154.103,1573.386 1160.744,1575.697 
	1156.872,1569.827 1162.403,1574.171 1160.646,1567.36 1164.468,1573.265 1164.794,1556.756 1166.713,1573.079 1169.511,1566.627 
	1168.898,1573.633 1173.64,1568.438 1170.786,1574.865 1176.955,1571.49 1172.17,1576.644 1179.101,1575.457 1172.903,1578.775 
	1189.929,1579.771 1172.903,1581.031 1179.101,1584.35 1172.17,1583.163 1176.955,1588.314 1170.786,1584.94 1173.64,1591.369 
	1168.898,1586.175 1169.511,1593.179 1166.713,1586.728 1165.093,1602.789 1164.468,1586.542 1160.646,1592.445 1162.403,1585.637 
	1156.872,1589.979 1160.744,1584.108 1154.103,1586.422 1159.671,1582.127 1142.881,1580.967 "/>
<polygon fill="#FFFFFF" points="1067.8,1605.902 1061.14,1603.648 1068.171,1603.68 1062.603,1599.386 1069.244,1601.697 
	1065.372,1595.827 1070.903,1600.171 1069.146,1593.36 1072.968,1599.265 1073.294,1582.756 1075.213,1599.079 1078.011,1592.627 
	1077.398,1599.633 1082.14,1594.438 1079.286,1600.865 1085.455,1597.49 1080.67,1602.644 1087.601,1601.457 1081.403,1604.775 
	1098.429,1605.771 1081.403,1607.031 1087.601,1610.35 1080.67,1609.163 1085.455,1614.314 1079.286,1610.94 1082.14,1617.369 
	1077.398,1612.175 1078.011,1619.179 1075.213,1612.728 1073.593,1628.789 1072.968,1612.542 1069.146,1618.445 1070.903,1611.637 
	1065.372,1615.979 1069.244,1610.108 1062.603,1612.422 1068.171,1608.127 1051.381,1606.967 "/>
<polygon fill="#FFFFFF" points="1074.8,1506.402 1068.14,1504.148 1075.171,1504.18 1069.603,1499.886 1076.244,1502.197 
	1072.372,1496.327 1077.903,1500.671 1076.146,1493.86 1079.968,1499.765 1080.294,1483.256 1082.213,1499.579 1085.011,1493.127 
	1084.398,1500.133 1089.14,1494.938 1086.286,1501.365 1092.455,1497.99 1087.67,1503.144 1094.601,1501.957 1088.403,1505.275 
	1105.429,1506.271 1088.403,1507.531 1094.601,1510.85 1087.67,1509.663 1092.455,1514.814 1086.286,1511.44 1089.14,1517.869 
	1084.398,1512.675 1085.011,1519.679 1082.213,1513.228 1080.593,1529.289 1079.968,1513.042 1076.146,1518.945 1077.903,1512.137 
	1072.372,1516.479 1076.244,1510.608 1069.603,1512.922 1075.171,1508.627 1058.381,1507.467 "/>
<polygon fill="#FFFFFF" points="1156.3,1487.402 1149.64,1485.148 1156.671,1485.18 1151.103,1480.886 1157.744,1483.197 
	1153.872,1477.327 1159.403,1481.671 1157.646,1474.86 1161.468,1480.765 1161.794,1464.256 1163.713,1480.579 1166.511,1474.127 
	1165.898,1481.133 1170.64,1475.938 1167.786,1482.365 1173.955,1478.99 1169.17,1484.144 1176.101,1482.957 1169.903,1486.275 
	1186.929,1487.271 1169.903,1488.531 1176.101,1491.85 1169.17,1490.663 1173.955,1495.814 1167.786,1492.44 1170.64,1498.869 
	1165.898,1493.675 1166.511,1500.679 1163.713,1494.228 1162.093,1510.289 1161.468,1494.042 1157.646,1499.945 1159.403,1493.137 
	1153.872,1497.479 1157.744,1491.608 1151.103,1493.922 1156.671,1489.627 1139.881,1488.467 "/>
<polygon fill="#FFFFFF" points="1084.956,1412.22 1078.295,1409.967 1085.328,1409.998 1079.759,1405.703 1086.402,1408.013 
	1082.53,1402.144 1088.06,1406.487 1086.304,1399.678 1090.123,1405.582 1090.451,1389.072 1092.37,1405.396 1095.166,1398.942 
	1094.556,1405.949 1099.295,1400.756 1096.444,1407.183 1102.613,1403.808 1097.827,1408.961 1104.759,1407.772 1098.56,1411.094 
	1115.585,1412.09 1098.56,1413.347 1104.759,1416.668 1097.827,1415.479 1102.613,1420.633 1096.444,1417.258 1099.295,1423.685 
	1094.556,1418.492 1095.166,1425.496 1092.37,1419.045 1090.749,1435.104 1090.123,1418.858 1086.304,1424.763 1088.06,1417.953 
	1082.53,1422.297 1086.402,1416.426 1079.759,1418.737 1085.328,1414.442 1068.537,1413.283 "/>
<polygon fill="#FFFFFF" points="1374.8,1744.902 1368.139,1742.648 1375.171,1742.68 1369.603,1738.387 1376.244,1740.697 
	1372.372,1734.828 1377.903,1739.172 1376.147,1732.361 1379.967,1738.265 1380.294,1721.756 1382.213,1738.079 1385.01,1731.627 
	1384.399,1738.633 1389.139,1733.438 1386.286,1739.865 1392.455,1736.49 1387.67,1741.644 1394.602,1740.457 1388.403,1743.775 
	1405.429,1744.771 1388.403,1746.03 1394.602,1749.35 1387.67,1748.163 1392.455,1753.314 1386.286,1749.94 1389.139,1756.369 
	1384.399,1751.175 1385.01,1758.179 1382.213,1751.728 1380.593,1767.789 1379.967,1751.542 1376.147,1757.445 1377.903,1750.637 
	1372.372,1754.979 1376.244,1749.109 1369.603,1751.422 1375.171,1747.127 1358.381,1745.967 "/>
<polygon fill="#FFFFFF" points="1212.849,1936.879 1206.187,1934.625 1213.22,1934.656 1207.65,1930.361 1214.292,1932.674 
	1210.42,1926.803 1215.95,1931.146 1214.195,1924.338 1218.015,1930.24 1218.343,1913.73 1220.261,1930.055 1223.058,1923.602 
	1222.447,1930.607 1227.187,1925.414 1224.334,1931.842 1230.503,1928.467 1225.718,1933.621 1232.65,1932.432 1226.45,1935.752 
	1243.476,1936.748 1226.45,1938.008 1232.65,1941.326 1225.718,1940.139 1230.503,1945.291 1224.334,1941.918 1227.187,1948.346 
	1222.447,1943.15 1223.058,1950.154 1220.261,1943.705 1218.642,1959.764 1218.015,1943.518 1214.195,1949.422 1215.95,1942.611 
	1210.42,1946.955 1214.292,1941.086 1207.65,1943.396 1213.22,1939.102 1196.429,1937.941 "/>
<polygon fill="#FFFFFF" points="1024.8,1761.402 1018.14,1759.148 1025.171,1759.18 1019.603,1754.887 1026.244,1757.197 
	1022.372,1751.328 1027.903,1755.672 1026.146,1748.861 1029.968,1754.766 1030.294,1738.256 1032.213,1754.58 1035.011,1748.127 
	1034.398,1755.133 1039.14,1749.938 1036.286,1756.365 1042.455,1752.99 1037.67,1758.145 1044.601,1756.957 1038.403,1760.275 
	1055.429,1761.271 1038.403,1762.531 1044.601,1765.85 1037.67,1764.664 1042.455,1769.814 1036.286,1766.441 1039.14,1772.869 
	1034.398,1767.676 1035.011,1774.68 1032.213,1768.229 1030.593,1784.289 1029.968,1768.043 1026.146,1773.945 1027.903,1767.137 
	1022.372,1771.479 1026.244,1765.609 1019.603,1767.922 1025.171,1763.627 1008.381,1762.467 "/>
<polygon fill="#FFFFFF" points="1412.625,1777.135 1406.905,1775.199 1412.944,1775.225 1408.161,1771.538 1413.865,1773.521 
	1410.54,1768.48 1415.289,1772.212 1413.781,1766.363 1417.063,1771.434 1417.343,1757.256 1418.991,1771.273 1421.393,1765.732 
	1420.868,1771.75 1424.939,1767.289 1422.49,1772.808 1427.787,1769.91 1423.678,1774.336 1429.631,1773.315 1424.307,1776.167 
	1438.929,1777.021 1424.307,1778.103 1429.631,1780.954 1423.678,1779.934 1427.787,1784.358 1422.49,1781.462 1424.939,1786.98 
	1420.868,1782.52 1421.393,1788.536 1418.991,1782.996 1417.6,1796.789 1417.063,1782.836 1413.781,1787.906 1415.289,1782.058 
	1410.54,1785.788 1413.865,1780.747 1408.161,1782.732 1412.944,1779.045 1398.525,1778.048 "/>
<polygon fill="#FFFFFF" points="1444.3,1773.902 1437.639,1771.648 1444.671,1771.68 1439.103,1767.386 1445.744,1769.696 
	1441.872,1763.827 1447.403,1768.171 1445.647,1761.36 1449.467,1767.265 1449.794,1750.756 1451.713,1767.079 1454.51,1760.627 
	1453.899,1767.633 1458.639,1762.438 1455.786,1768.865 1461.955,1765.49 1457.17,1770.644 1464.102,1769.457 1457.903,1772.775 
	1474.929,1773.771 1457.903,1775.03 1464.102,1778.35 1457.17,1777.163 1461.955,1782.314 1455.786,1778.94 1458.639,1785.369 
	1453.899,1780.175 1454.51,1787.179 1451.713,1780.728 1450.093,1796.789 1449.467,1780.542 1445.647,1786.445 1447.403,1779.637 
	1441.872,1783.979 1445.744,1778.108 1439.103,1780.422 1444.671,1776.127 1427.881,1774.967 "/>
<polygon fill="#FFFFFF" points="1447.3,2061.402 1440.64,2059.148 1447.671,2059.18 1442.103,2054.886 1448.745,2057.196 
	1444.872,2051.327 1450.404,2055.671 1448.648,2048.86 1452.468,2054.765 1452.794,2038.256 1454.714,2054.579 1457.511,2048.127 
	1456.9,2055.133 1461.64,2049.938 1458.786,2056.365 1464.956,2052.99 1460.171,2058.144 1467.103,2056.957 1460.904,2060.275 
	1477.929,2061.271 1460.904,2062.53 1467.103,2065.85 1460.171,2064.663 1464.956,2069.814 1458.786,2066.44 1461.64,2072.869 
	1456.9,2067.675 1457.511,2074.679 1454.714,2068.228 1453.093,2084.289 1452.468,2068.042 1448.648,2073.945 1450.404,2067.137 
	1444.872,2071.479 1448.745,2065.608 1442.103,2067.922 1447.671,2063.627 1430.882,2062.467 "/>
<polygon fill="#FFFFFF" points="1398.323,2305.402 1391.663,2303.148 1398.695,2303.18 1393.126,2298.886 1399.769,2301.196 
	1395.896,2295.327 1401.427,2299.671 1399.671,2292.86 1403.491,2298.765 1403.818,2282.256 1405.738,2298.579 1408.534,2292.127 
	1407.923,2299.133 1412.663,2293.938 1409.81,2300.365 1415.98,2296.99 1411.195,2302.144 1418.126,2300.957 1411.927,2304.275 
	1428.952,2305.271 1411.927,2306.53 1418.126,2309.85 1411.195,2308.663 1415.98,2313.814 1409.81,2310.44 1412.663,2316.869 
	1407.923,2311.675 1408.534,2318.679 1405.738,2312.228 1404.116,2328.289 1403.491,2312.042 1399.671,2317.945 1401.427,2311.137 
	1395.896,2315.479 1399.769,2309.608 1393.126,2311.922 1398.695,2307.627 1381.906,2306.467 "/>
<polygon fill="#FFFFFF" points="1265.3,2282.387 1258.64,2280.133 1265.671,2280.164 1260.103,2275.869 1266.745,2278.18 
	1262.872,2272.311 1268.404,2276.654 1266.648,2269.846 1270.468,2275.75 1270.794,2259.238 1272.714,2275.563 1275.511,2269.109 
	1274.9,2276.115 1279.64,2270.922 1276.786,2277.35 1282.956,2273.975 1278.171,2279.129 1285.103,2277.939 1278.904,2281.26 
	1295.929,2282.256 1278.904,2283.514 1285.103,2286.834 1278.171,2285.646 1282.956,2290.799 1276.786,2287.426 1279.64,2293.852 
	1274.9,2288.658 1275.511,2295.664 1272.714,2289.213 1271.093,2305.271 1270.468,2289.025 1266.648,2294.93 1268.404,2288.121 
	1262.872,2292.463 1266.745,2286.594 1260.103,2288.904 1265.671,2284.609 1248.882,2283.451 "/>
<polygon fill="#FFFFFF" points="973.238,2478.986 966.577,2476.732 973.609,2476.764 968.04,2472.471 974.683,2474.781 
	970.81,2468.91 976.341,2473.256 974.585,2466.445 978.406,2472.35 978.732,2455.84 980.652,2472.162 983.448,2465.711 
	982.837,2472.717 987.577,2467.521 984.724,2473.949 990.892,2470.574 986.107,2475.729 993.04,2474.541 986.841,2477.859 
	1003.866,2478.855 986.841,2480.115 993.04,2483.434 986.107,2482.246 990.892,2487.398 984.724,2484.025 987.577,2490.453 
	982.837,2485.26 983.448,2492.264 980.652,2485.813 979.031,2501.873 978.406,2485.625 974.585,2491.529 976.341,2484.721 
	970.81,2489.063 974.683,2483.193 968.04,2485.506 973.609,2481.211 956.82,2480.051 "/>
<polygon fill="#FFFFFF" points="1175.8,2069.902 1169.14,2067.648 1176.171,2067.68 1170.603,2063.387 1177.245,2065.697 
	1173.372,2059.828 1178.904,2064.172 1177.146,2057.361 1180.968,2063.266 1181.294,2046.756 1183.214,2063.08 1186.011,2056.627 
	1185.398,2063.633 1190.14,2058.438 1187.286,2064.865 1193.456,2061.49 1188.671,2066.645 1195.601,2065.457 1189.404,2068.775 
	1206.429,2069.771 1189.404,2071.031 1195.601,2074.35 1188.671,2073.164 1193.456,2078.314 1187.286,2074.941 1190.14,2081.369 
	1185.398,2076.176 1186.011,2083.18 1183.214,2076.729 1181.593,2092.789 1180.968,2076.543 1177.146,2082.445 1178.904,2075.637 
	1173.372,2079.979 1177.245,2074.109 1170.603,2076.422 1176.171,2072.127 1159.382,2070.967 "/>
<circle fill="#FFFFFF" cx="1255.87" cy="1600.69" r="5.082"/>
<circle fill="#FFFFFF" cx="1227.108" cy="1614.023" r="5.081"/>
<circle fill="#FFFFFF" cx="1205.121" cy="1625.942" r="5.082"/>
<circle fill="#FFFFFF" cx="1179.765" cy="1643.942" r="5.082"/>
<circle fill="#FFFFFF" cx="1178.203" cy="1671.356" r="5.082"/>
<circle fill="#FFFFFF" cx="1242.955" cy="1701.023" r="6.499"/>
<circle fill="#FFFFFF" cx="1276.198" cy="1655.442" r="5.082"/>
<circle fill="#FFFFFF" cx="1248.037" cy="1649.023" r="5.081"/>
<circle fill="#FFFFFF" cx="1322.455" cy="1695.942" r="5.082"/>
<circle fill="#FFFFFF" cx="1339.87" cy="1701.023" r="5.081"/>
<circle fill="#FFFFFF" cx="1353.299" cy="1729.941" r="5.081"/>
<circle fill="#FFFFFF" cx="1309.203" cy="1707.523" r="5.082"/>
<circle fill="#FFFFFF" cx="1361.342" cy="1700.937" r="2.961"/>
<circle fill="#FFFFFF" cx="1375.592" cy="1693.437" r="2.961"/>
<circle fill="#FFFFFF" cx="1366.209" cy="1680.273" r="6.421"/>
<circle fill="#FFFFFF" cx="1315.623" cy="1672.273" r="6.421"/>
<circle fill="#FFFFFF" cx="1301.459" cy="1685.853" r="6.421"/>
<circle fill="#FFFFFF" cx="1206.46" cy="1579.771" r="6.421"/>
<circle fill="#FFFFFF" cx="1186.928" cy="1605.771" r="6.421"/>
<circle fill="#FFFFFF" cx="1241.537" cy="1536.273" r="5.081"/>
<circle fill="#FFFFFF" cx="1248.037" cy="1553.795" r="2.961"/>
<circle fill="#FFFFFF" cx="1235.152" cy="1558.437" r="2.961"/>
<line fill="none" stroke="#FFFFFF" stroke-miterlimit="10" x1="1238.113" y1="1698.108" x2="1182.099" y2="1674.619"/>
<line fill="none" stroke="#FFFFFF" stroke-miterlimit="10" x1="1178.204" y1="1669.108" x2="1179.767" y2="1646.608"/>
<line fill="none" stroke="#FFFFFF" stroke-miterlimit="10" x1="1182.099" y1="1639.429" x2="1203.038" y2="1625.942"/>
<line fill="none" stroke="#FFFFFF" stroke-miterlimit="10" x1="1208.788" y1="1624.608" x2="1224.788" y2="1615.108"/>
<line fill="none" stroke="#FFFFFF" stroke-miterlimit="10" x1="1230.788" y1="1612.192" x2="1255.87" y2="1599.351"/>
<line fill="none" stroke="#FFFFFF" stroke-miterlimit="10" x1="1259.288" y1="1600.69" x2="1283.538" y2="1604.108"/>
<line fill="none" stroke="#FFFFFF" stroke-miterlimit="10" x1="1292.286" y1="1610.94" x2="1317.374" y2="1669.108"/>
<line fill="none" stroke="#FFFFFF" stroke-miterlimit="10" x1="1320.538" y1="1672.273" x2="1366.21" y2="1678.694"/>
<line fill="none" stroke="#FFFFFF" stroke-miterlimit="10" x1="1364.303" y1="1683.358" x2="1361.342" y2="1700.937"/>
<line fill="none" stroke="#FFFFFF" stroke-miterlimit="10" x1="1375.592" y1="1692.147" x2="1368.288" y2="1684.608"/>
<line fill="none" stroke="#FFFFFF" stroke-miterlimit="10" x1="1353.3" y1="1727.609" x2="1339.87" y2="1701.023"/>
<line fill="none" stroke="#FFFFFF" stroke-miterlimit="10" x1="1338.538" y1="1702.441" x2="1324.038" y2="1694.524"/>
<line fill="none" stroke="#FFFFFF" stroke-miterlimit="10" x1="1320.538" y1="1694.524" x2="1307.881" y2="1685.853"/>
<line fill="none" stroke="#FFFFFF" stroke-miterlimit="10" x1="1307.881" y1="1705.109" x2="1304.122" y2="1690.188"/>
<line fill="none" stroke="#FFFFFF" stroke-miterlimit="10" x1="1248.037" y1="1699.608" x2="1299.288" y2="1684.608"/>
<line fill="none" stroke="#FFFFFF" stroke-miterlimit="10" x1="1235.152" y1="1558.437" x2="1241.537" y2="1537.774"/>
<line fill="none" stroke="#FFFFFF" stroke-miterlimit="10" x1="1245.076" y1="1536.523" x2="1249.455" y2="1555.105"/>
<line fill="none" stroke="#FFFFFF" stroke-miterlimit="10" x1="1184.847" y1="1601.774" x2="1168.954" y2="1582.756"/>
<line fill="none" stroke="#FFFFFF" stroke-miterlimit="10" x1="1173.122" y1="1551.774" x2="1198.454" y2="1558.437"/>
<line fill="none" stroke="#FFFFFF" stroke-miterlimit="10" x1="1174.685" y1="1525.442" x2="1173.122" y2="1514.942"/>
<line fill="none" stroke="#FFFFFF" stroke-miterlimit="10" x1="1174.685" y1="1513.942" x2="1182.099" y2="1507.774"/>
<line fill="none" stroke="#FFFFFF" stroke-miterlimit="10" x1="1186.929" y1="1502.942" x2="1200.788" y2="1502.108"/>
<line fill="none" stroke="#FFFFFF" stroke-miterlimit="10" x1="1184.121" y1="1500.942" x2="1179.767" y2="1492.608"/>
<line fill="none" stroke="#FFFFFF" stroke-miterlimit="10" x1="1178.392" y1="1488.942" x2="1178.392" y2="1480.274"/>
<line fill="none" stroke="#FFFFFF" stroke-miterlimit="10" x1="1126.121" y1="1512.108" x2="1154.288" y2="1521.941"/>
<line fill="none" stroke="#FFFFFF" stroke-miterlimit="10" x1="1085.788" y1="1509.274" x2="1120.288" y2="1512.108"/>
<line fill="none" stroke="#FFFFFF" stroke-miterlimit="10" x1="1120.288" y1="1484.608" x2="1108.955" y2="1476.108"/>
<line fill="none" stroke="#FFFFFF" stroke-miterlimit="10" x1="1124.455" y1="1483.256" x2="1136.455" y2="1465.774"/>
<line fill="none" stroke="#FFFFFF" stroke-miterlimit="10" x1="1133.621" y1="1462.608" x2="1126.121" y2="1457.108"/>
<line fill="none" stroke="#FFFFFF" stroke-miterlimit="10" x1="1111.955" y1="1451.108" x2="1123.455" y2="1454.274"/>
<line fill="none" stroke="#FFFFFF" stroke-miterlimit="10" x1="1096.955" y1="1445.774" x2="1108.955" y2="1449.441"/>
<circle fill="#FFFFFF" cx="1194.279" cy="1589.935" r="5.082"/>
<circle fill="#FFFFFF" cx="1171.487" cy="1550.834" r="5.082"/>
<circle fill="#FFFFFF" cx="1198.454" cy="1558.437" r="5.082"/>
<circle fill="#FFFFFF" cx="1184.848" cy="1504.193" r="5.081"/>
<circle fill="#FFFFFF" cx="1147.962" cy="1474.515" r="5.082"/>
<circle fill="#FFFFFF" cx="1155.287" cy="1521.941" r="5.081"/>
<circle fill="#FFFFFF" cx="1215.285" cy="1432.523" r="5.081"/>
<circle fill="#FFFFFF" cx="1108.954" cy="1394.273" r="5.081"/>
<circle fill="#FFFFFF" cx="1097.987" cy="1343.69" r="5.082"/>
<circle fill="#FFFFFF" cx="1043.121" cy="1474.515" r="5.082"/>
<circle fill="#FFFFFF" cx="1040.787" cy="1536.523" r="5.081"/>
<circle fill="#FFFFFF" cx="1025.037" cy="1515.37" r="5.082"/>
<circle fill="#FFFFFF" cx="1026.874" cy="1501.19" r="5.082"/>
<circle fill="#FFFFFF" cx="960.537" cy="1428.707" r="5.082"/>
<circle fill="#FFFFFF" cx="967.31" cy="1398.115" r="5.082"/>
<circle fill="#FFFFFF" cx="932.287" cy="1438.87" r="5.082"/>
<circle fill="#FFFFFF" cx="1010.287" cy="1570.523" r="5.081"/>
<circle fill="#FFFFFF" cx="1001.824" cy="1528.026" r="5.082"/>
<circle fill="#FFFFFF" cx="977.121" cy="1598.773" r="6.666"/>
<circle fill="#FFFFFF" cx="958.953" cy="1570.523" r="6.666"/>
<circle fill="#FFFFFF" cx="1174.448" cy="1526.354" r="2.96"/>
<circle fill="#FFFFFF" cx="1173.122" cy="1514.942" r="2.96"/>
<circle fill="#FFFFFF" cx="1202.652" cy="1502.108" r="2.961"/>
<circle fill="#FFFFFF" cx="1179.766" cy="1490.604" r="2.96"/>
<circle fill="#FFFFFF" cx="1178.391" cy="1478.104" r="2.96"/>
<circle fill="#FFFFFF" cx="1121.041" cy="1512.108" r="6.421"/>
<circle fill="#FFFFFF" cx="1123.454" cy="1488.941" r="6.421"/>
<circle fill="#FFFFFF" cx="1121.041" cy="1500.941" r="6.421"/>
<line fill="none" stroke="#FFFFFF" stroke-miterlimit="10" x1="1128.538" y1="1488.942" x2="1163.406" y2="1488.942"/>
<line fill="none" stroke="#FFFFFF" stroke-miterlimit="10" x1="1147.962" y1="1470.858" x2="1166.406" y2="1438.608"/>
<line fill="none" stroke="#FFFFFF" stroke-miterlimit="10" x1="1166.406" y1="1438.608" x2="1195.288" y2="1431.358"/>
<line fill="none" stroke="#FFFFFF" stroke-miterlimit="10" x1="1193.859" y1="1431.719" x2="1188.778" y2="1420.608"/>
<line fill="none" stroke="#FFFFFF" stroke-miterlimit="10" x1="1188.778" y1="1420.608" x2="1211.538" y2="1431.719"/>
<line fill="none" stroke="#FFFFFF" stroke-miterlimit="10" x1="1215.285" y1="1431.358" x2="1220.367" y2="1413.858"/>
<line fill="none" stroke="#FFFFFF" stroke-miterlimit="10" x1="1220.367" y1="1411.858" x2="1230.788" y2="1401.358"/>
<line fill="none" stroke="#FFFFFF" stroke-miterlimit="10" x1="1233.538" y1="1399.354" x2="1245.076" y2="1387.756"/>
<circle fill="#FFFFFF" cx="1134.829" cy="1464.274" r="2.961"/>
<circle fill="#FFFFFF" cx="1124.455" cy="1455.653" r="2.96"/>
<circle fill="#FFFFFF" cx="1096.955" cy="1446.481" r="2.96"/>
<circle fill="#FFFFFF" cx="1084.122" cy="1478.104" r="2.96"/>
<circle fill="#FFFFFF" cx="1074.906" cy="1479.069" r="2.961"/>
<circle fill="#FFFFFF" cx="1078.945" cy="1488.942" r="2.961"/>
<circle fill="#FFFFFF" cx="1167.201" cy="1438.608" r="2.961"/>
<circle fill="#FFFFFF" cx="1194.28" cy="1431.358" r="2.961"/>
<circle fill="#FFFFFF" cx="1188.777" cy="1420.608" r="2.961"/>
<circle fill="#FFFFFF" cx="1232.19" cy="1350.442" r="2.96"/>
<circle fill="#FFFFFF" cx="1106.834" cy="1344.524" r="2.96"/>
<circle fill="#FFFFFF" cx="1106.834" cy="1335.648" r="2.96"/>
<circle fill="#FFFFFF" cx="1098.954" cy="1335.648" r="2.96"/>
<circle fill="#FFFFFF" cx="1105.428" cy="1474.515" r="6.421"/>
<circle fill="#FFFFFF" cx="897.204" cy="1573.191" r="6.421"/>
<circle fill="#FFFFFF" cx="1005.205" cy="1781.443" r="6.421"/>
<circle fill="#FFFFFF" cx="1044.612" cy="1880.693" r="6.421"/>
<circle fill="#FFFFFF" cx="1043.204" cy="1844.193" r="6.421"/>
<circle fill="#FFFFFF" cx="1131.954" cy="1724.691" r="6.421"/>
<circle fill="#FFFFFF" cx="1228.297" cy="1874.693" r="6.421"/>
<circle fill="#FFFFFF" cx="1267.241" cy="1882.443" r="6.421"/>
<circle fill="#FFFFFF" cx="1233.529" cy="2126.693" r="6.422"/>
<circle fill="#FFFFFF" cx="1401.205" cy="2049.192" r="6.421"/>
<circle fill="#FFFFFF" cx="1410.455" cy="2034.942" r="6.421"/>
<circle fill="#FFFFFF" cx="1364.302" cy="1779.193" r="6.421"/>
<circle fill="#FFFFFF" cx="1383.954" cy="1772.771" r="6.421"/>
<circle fill="#FFFFFF" cx="1483.454" cy="1703.897" r="6.421"/>
<circle fill="#FFFFFF" cx="1563.455" cy="1616.191" r="6.421"/>
<circle fill="#FFFFFF" cx="1548.705" cy="1531.941" r="6.421"/>
<circle fill="#FFFFFF" cx="1508.454" cy="1493.941" r="6.421"/>
<circle fill="#FFFFFF" cx="1528.204" cy="1424.941" r="6.421"/>
<circle fill="#FFFFFF" cx="1395.204" cy="1351.191" r="6.421"/>
<circle fill="#FFFFFF" cx="1271.116" cy="1338.35" r="6.421"/>
<circle fill="#FFFFFF" cx="1220.366" cy="1411.858" r="5.082"/>
<circle fill="#FFFFFF" cx="1232.189" cy="1401.358" r="5.082"/>
<circle fill="#FFFFFF" cx="1277.538" cy="1438.608" r="5.082"/>
<circle fill="#FFFFFF" cx="1292.286" cy="1448.771" r="5.081"/>
<circle fill="#FFFFFF" cx="1281.281" cy="1484.608" r="5.082"/>
<circle fill="#FFFFFF" cx="1258.2" cy="1499.112" r="5.082"/>
<circle fill="#FFFFFF" cx="1215.284" cy="1345.36" r="5.082"/>
<circle fill="#FFFFFF" cx="1205.121" cy="1355.523" r="5.081"/>
<circle fill="#FFFFFF" cx="1312.962" cy="1344.771" r="5.082"/>
<circle fill="#FFFFFF" cx="1328.859" cy="1360.773" r="5.081"/>
<circle fill="#FFFFFF" cx="1333.941" cy="1329.273" r="5.081"/>
<circle fill="#FFFFFF" cx="1362.109" cy="1331.93" r="5.082"/>
<circle fill="#FFFFFF" cx="1334.789" cy="1466.523" r="5.081"/>
<circle fill="#FFFFFF" cx="1589.61" cy="1577.773" r="5.081"/>
<circle fill="#FFFFFF" cx="1569.877" cy="1490.523" r="5.081"/>
<circle fill="#FFFFFF" cx="1521.784" cy="1346.023" r="5.081"/>
<circle fill="#FFFFFF" cx="1607.61" cy="1654.523" r="5.081"/>
<circle fill="#FFFFFF" cx="1550.359" cy="1801.942" r="5.082"/>
<circle fill="#FFFFFF" cx="1557.034" cy="1817.187" r="5.082"/>
<circle fill="#FFFFFF" cx="1567.023" cy="1830.773" r="5.082"/>
<circle fill="#FFFFFF" cx="1591.609" cy="1796.789" r="5.082"/>
<circle fill="#FFFFFF" cx="1602.527" cy="1768.69" r="5.082"/>
<circle fill="#FFFFFF" cx="1531.109" cy="1734.523" r="5.082"/>
<circle fill="#FFFFFF" cx="1516.359" cy="1727.773" r="5.081"/>
<circle fill="#FFFFFF" cx="1514.359" cy="1750.756" r="5.082"/>
<circle fill="#FFFFFF" cx="1478.373" cy="1749.854" r="5.082"/>
<circle fill="#FFFFFF" cx="1452.859" cy="1727.773" r="5.081"/>
<circle fill="#FFFFFF" cx="1481.109" cy="1859.023" r="5.082"/>
<circle fill="#FFFFFF" cx="1430.881" cy="1857.023" r="5.082"/>
<circle fill="#FFFFFF" cx="1438.929" cy="1822.773" r="5.082"/>
<circle fill="#FFFFFF" cx="1415.537" cy="1864.105" r="5.082"/>
<circle fill="#FFFFFF" cx="1398.525" cy="1864.105" r="5.082"/>
<circle fill="#FFFFFF" cx="1383.955" cy="1855.023" r="5.082"/>
<circle fill="#FFFFFF" cx="1393.443" cy="1841.773" r="5.082"/>
<circle fill="#FFFFFF" cx="1405.429" cy="1825.773" r="5.082"/>
<circle fill="#FFFFFF" cx="1375.592" cy="1883.781" r="5.082"/>
<circle fill="#FFFFFF" cx="1336.37" cy="1860.105" r="5.082"/>
<circle fill="#FFFFFF" cx="1341.777" cy="1793.773" r="5.082"/>
<circle fill="#FFFFFF" cx="1354.707" cy="1763.773" r="5.082"/>
<circle fill="#FFFFFF" cx="1295.359" cy="1905.273" r="5.082"/>
<circle fill="#FFFFFF" cx="1245.032" cy="1857.023" r="5.082"/>
<circle fill="#FFFFFF" cx="1238.612" cy="1891.734" r="5.082"/>
<circle fill="#FFFFFF" cx="1168.109" cy="1857.023" r="5.082"/>
<circle fill="#FFFFFF" cx="1184.109" cy="1838.273" r="5.082"/>
<circle fill="#FFFFFF" cx="1273.663" cy="1992.773" r="5.082"/>
<circle fill="#FFFFFF" cx="1233.53" cy="2005.273" r="5.082"/>
<circle fill="#FFFFFF" cx="1193.858" cy="1589.023" r="5.081"/>
<circle fill="#FFFFFF" cx="1196.429" cy="2000.193" r="5.082"/>
<circle fill="#FFFFFF" cx="1193.858" cy="1589.023" r="5.081"/>
<circle fill="#FFFFFF" cx="1201.511" cy="1977.273" r="5.082"/>
<circle fill="#FFFFFF" cx="1159.38" cy="1956.773" r="5.082"/>
<circle fill="#FFFFFF" cx="1149.218" cy="1982.355" r="5.082"/>
<circle fill="#FFFFFF" cx="1128.859" cy="2015.438" r="5.082"/>
<circle fill="#FFFFFF" cx="1122.521" cy="1959.764" r="5.082"/>
<circle fill="#FFFFFF" cx="1098.777" cy="1954.684" r="5.082"/>
<circle fill="#FFFFFF" cx="1063.859" cy="1958.023" r="5.082"/>
<circle fill="#FFFFFF" cx="1051.034" cy="1980.023" r="5.082"/>
<circle fill="#FFFFFF" cx="923.859" cy="2134.523" r="5.082"/>
<circle fill="#FFFFFF" cx="911.737" cy="2141.105" r="5.082"/>
<circle fill="#FFFFFF" cx="1561.941" cy="1786.86" r="5.082"/>
<circle fill="#FFFFFF" cx="1549.193" cy="1760.919" r="5.082"/>
<circle fill="#FFFFFF" cx="1575.287" cy="1772.421" r="6.421"/>
<circle fill="#FFFFFF" cx="1597.444" cy="1781.779" r="6.421"/>
<circle fill="#FFFFFF" cx="1592.781" cy="1755.837" r="4.665"/>
<circle fill="#FFFFFF" cx="1634.911" cy="1667.891" r="4.133"/>
<circle fill="#FFFFFF" cx="1550.36" cy="1590.662" r="3.181"/>
<circle fill="#FFFFFF" cx="1483.456" cy="1877.412" r="3.18"/>
<circle fill="#FFFFFF" cx="1463.109" cy="1839.898" r="3.18"/>
<circle fill="#FFFFFF" cx="1463.109" cy="1853.941" r="3.18"/>
<circle fill="#FFFFFF" cx="1456.04" cy="1817.691" r="3.18"/>
<circle fill="#FFFFFF" cx="1309.205" cy="1913.73" r="3.18"/>
<circle fill="#FFFFFF" cx="1238.113" cy="1903.373" r="3.18"/>
<circle fill="#FFFFFF" cx="1271.117" cy="1821.846" r="3.18"/>
<circle fill="#FFFFFF" cx="1248.04" cy="1809.162" r="3.18"/>
<circle fill="#FFFFFF" cx="1201.511" cy="1813.83" r="3.18"/>
<circle fill="#FFFFFF" cx="1218.697" cy="1820.189" r="3.18"/>
<circle fill="#FFFFFF" cx="1206.43" cy="1840.176" r="3.18"/>
<circle fill="#FFFFFF" cx="1221.878" cy="1855.123" r="3.18"/>
<circle fill="#FFFFFF" cx="1182.099" cy="1802.801" r="3.18"/>
<circle fill="#FFFFFF" cx="1142.882" cy="1776.162" r="3.18"/>
<circle fill="#FFFFFF" cx="1176.57" cy="1784.289" r="3.18"/>
<circle fill="#FFFFFF" cx="1079.062" cy="1709.912" r="3.18"/>
<circle fill="#FFFFFF" cx="1068.764" cy="1693.912" r="3.18"/>
<circle fill="#FFFFFF" cx="1067.132" cy="1669.162" r="3.18"/>
<circle fill="#FFFFFF" cx="1027.882" cy="1685.662" r="3.18"/>
<circle fill="#FFFFFF" cx="1042.138" cy="1643.662" r="3.18"/>
<circle fill="#FFFFFF" cx="989.538" cy="1667.54" r="3.182"/>
<circle fill="#FFFFFF" cx="989.538" cy="1623.412" r="3.18"/>
<circle fill="#FFFFFF" cx="1062.403" cy="1584.79" r="3.181"/>
<circle fill="#FFFFFF" cx="980.304" cy="1558.662" r="3.18"/>
<circle fill="#FFFFFF" cx="1071.945" cy="1851.941" r="3.18"/>
<circle fill="#FFFFFF" cx="1020.306" cy="1839.529" r="4.396"/>
<circle fill="#FFFFFF" cx="1014.056" cy="1765.668" r="4.396"/>
<circle fill="#FFFFFF" cx="993.934" cy="1745.779" r="4.396"/>
<circle fill="#FFFFFF" cx="981.962" cy="1758.779" r="4.396"/>
<circle fill="#FFFFFF" cx="1063.175" cy="1682.48" r="4.396"/>
<circle fill="#FFFFFF" cx="992.719" cy="2060.779" r="4.396"/>
<circle fill="#FFFFFF" cx="1044.613" cy="2029.693" r="6.422"/>
<circle fill="#FFFFFF" cx="992.717" cy="2041.193" r="6.421"/>
<circle fill="#FFFFFF" cx="1065.583" cy="1998.012" r="3.18"/>
<circle fill="#FFFFFF" cx="1014.055" cy="2017.338" r="3.18"/>
<circle fill="#FFFFFF" cx="989.538" cy="1781.441" r="3.18"/>
<circle fill="#FFFFFF" cx="1550.36" cy="1495.605" r="3.181"/>
<circle fill="#FFFFFF" cx="1363.375" cy="1814.512" r="6.421"/>
<circle fill="#FFFFFF" cx="1543.026" cy="1443.439" r="3.181"/>
<circle fill="#FFFFFF" cx="1586.43" cy="1466.938" r="3.181"/>
<circle fill="#FFFFFF" cx="1503.54" cy="1359.605" r="3.181"/>
<circle fill="#FFFFFF" cx="1403.026" cy="1504.438" r="3.18"/>
<circle fill="#FFFFFF" cx="1386.36" cy="1503.272" r="3.18"/>
<circle fill="#FFFFFF" cx="1371.692" cy="1476.605" r="3.181"/>
<circle fill="#FFFFFF" cx="1343.858" cy="1455.604" r="3.181"/>
<circle fill="#FFFFFF" cx="1327.359" cy="1481.428" r="3.181"/>
<circle fill="#FFFFFF" cx="1272.457" cy="1494.772" r="3.18"/>
<circle fill="#FFFFFF" cx="1270.33" cy="1466.523" r="3.181"/>
<circle fill="#FFFFFF" cx="1252.637" cy="1486.511" r="3.181"/>
<circle fill="#FFFFFF" cx="1266.466" cy="1458.262" r="3.181"/>
<circle fill="#FFFFFF" cx="1270.331" cy="1446.871" r="3.18"/>
<circle fill="#FFFFFF" cx="1290.541" cy="1424.262" r="3.181"/>
<circle fill="#FFFFFF" cx="1290.542" cy="1410.678" r="3.181"/>
<circle fill="#FFFFFF" cx="1284.463" cy="1394.938" r="3.18"/>
<circle fill="#FFFFFF" cx="1271.118" cy="1385.786" r="3.18"/>
<circle fill="#FFFFFF" cx="1245.077" cy="1387.756" r="3.18"/>
<circle fill="#FFFFFF" cx="1336.691" cy="1384.574" r="3.18"/>
<circle fill="#FFFFFF" cx="1272.457" cy="1310.605" r="3.181"/>
<circle fill="#FFFFFF" cx="1285.802" cy="1289.105" r="3.181"/>
<circle fill="#FFFFFF" cx="1087.084" cy="1398.105" r="3.181"/>
<circle fill="#FFFFFF" cx="1095.995" cy="1401.286" r="3.18"/>
<circle fill="#FFFFFF" cx="1006.907" cy="1431.771" r="4.681"/>
<polygon fill="#FFFFFF" points="1418.695,1518.661 1412.033,1516.406 1419.066,1516.438 1413.497,1512.143 1420.139,1514.455 
	1416.266,1508.585 1421.797,1512.928 1420.041,1506.119 1423.862,1512.022 1424.189,1495.513 1426.108,1511.837 1428.905,1505.385 
	1428.293,1512.39 1433.033,1507.195 1430.181,1513.624 1436.35,1510.249 1431.565,1515.401 1438.496,1514.215 1432.297,1517.533 
	1449.323,1518.529 1432.297,1519.789 1438.496,1523.107 1431.565,1521.921 1436.35,1527.072 1430.181,1523.699 1433.033,1530.127 
	1428.293,1524.932 1428.905,1531.937 1426.108,1525.485 1424.488,1541.547 1423.862,1525.3 1420.041,1531.204 1421.797,1524.394 
	1416.266,1528.736 1420.139,1522.867 1413.497,1525.179 1419.066,1520.885 1402.276,1519.724 "/>
<line fill="none" stroke="#FFFFFF" stroke-miterlimit="10" x1="1563.456" y1="1614.942" x2="1551.952" y2="1593.412"/>
<line fill="none" stroke="#FFFFFF" stroke-miterlimit="10" x1="1553.54" y1="1590.662" x2="1591.609" y2="1577.773"/>
<line fill="none" stroke="#FFFFFF" stroke-miterlimit="10" x1="1549.193" y1="1527.274" x2="1550.361" y2="1498.787"/>
<line fill="none" stroke="#FFFFFF" stroke-miterlimit="10" x1="1511.277" y1="1492.426" x2="1550.359" y2="1495.605"/>
<line fill="none" stroke="#FFFFFF" stroke-miterlimit="10" x1="1551.952" y1="1495.513" x2="1564.794" y2="1490.523"/>
<line fill="none" stroke="#FFFFFF" stroke-miterlimit="10" x1="1543.025" y1="1443.438" x2="1586.429" y2="1466.938"/>
<line fill="none" stroke="#FFFFFF" stroke-miterlimit="10" x1="1543.025" y1="1443.438" x2="1531.109" y2="1428.608"/>
<line fill="none" stroke="#FFFFFF" stroke-miterlimit="10" x1="1403.027" y1="1504.438" x2="1421.797" y2="1512.928"/>
<line fill="none" stroke="#FFFFFF" stroke-miterlimit="10" x1="1403.027" y1="1504.438" x2="1386.361" y2="1503.272"/>
<line fill="none" stroke="#FFFFFF" stroke-miterlimit="10" x1="1386.361" y1="1503.272" x2="1371.693" y2="1476.605"/>
<line fill="none" stroke="#FFFFFF" stroke-miterlimit="10" x1="1371.693" y1="1476.605" x2="1343.859" y2="1455.604"/>
<line fill="none" stroke="#FFFFFF" stroke-miterlimit="10" x1="1343.859" y1="1455.604" x2="1334.789" y2="1466.523"/>
<line fill="none" stroke="#FFFFFF" stroke-miterlimit="10" x1="1334.789" y1="1466.523" x2="1328.859" y2="1481.428"/>
<line fill="none" stroke="#FFFFFF" stroke-miterlimit="10" x1="1328.859" y1="1481.428" x2="1281.281" y2="1484.608"/>
<line fill="none" stroke="#FFFFFF" stroke-miterlimit="10" x1="1281.281" y1="1484.608" x2="1272.456" y2="1494.772"/>
<line fill="none" stroke="#FFFFFF" stroke-miterlimit="10" x1="1273.101" y1="1494.031" x2="1258.201" y2="1499.112"/>
<line fill="none" stroke="#FFFFFF" stroke-miterlimit="10" x1="1255.87" y1="1499.112" x2="1251.913" y2="1486.511"/>
<line fill="none" stroke="#FFFFFF" stroke-miterlimit="10" x1="1251.913" y1="1486.511" x2="1293.038" y2="1450.052"/>
<line fill="none" stroke="#FFFFFF" stroke-miterlimit="10" x1="1292.286" y1="1448.108" x2="1270.329" y2="1465.608"/>
<line fill="none" stroke="#FFFFFF" stroke-miterlimit="10" x1="1270.329" y1="1465.608" x2="1266.464" y2="1459.233"/>
<line fill="none" stroke="#FFFFFF" stroke-miterlimit="10" x1="1266.464" y1="1459.233" x2="1270.329" y2="1448.108"/>
<line fill="none" stroke="#FFFFFF" stroke-miterlimit="10" x1="1270.329" y1="1448.108" x2="1277.538" y2="1438.608"/>
<line fill="none" stroke="#FFFFFF" stroke-miterlimit="10" x1="1278.163" y1="1438.608" x2="1290.54" y2="1424.262"/>
<line fill="none" stroke="#FFFFFF" stroke-miterlimit="10" x1="1290.54" y1="1424.262" x2="1290.542" y2="1410.678"/>
<line fill="none" stroke="#FFFFFF" stroke-miterlimit="10" x1="1290.54" y1="1410.108" x2="1284.462" y2="1394.938"/>
<line fill="none" stroke="#FFFFFF" stroke-miterlimit="10" x1="1284.462" y1="1394.938" x2="1271.118" y2="1384.576"/>
<line fill="none" stroke="#FFFFFF" stroke-miterlimit="10" x1="1271.118" y1="1385.233" x2="1246.619" y2="1385.787"/>
<line fill="none" stroke="#FFFFFF" stroke-miterlimit="10" x1="1233.538" y1="1350.442" x2="1271.118" y2="1339.689"/>
<line fill="none" stroke="#FFFFFF" stroke-miterlimit="10" x1="1232.191" y1="1350.441" x2="1214.538" y2="1344.771"/>
<line fill="none" stroke="#FFFFFF" stroke-miterlimit="10" x1="1214.538" y1="1344.771" x2="1205.122" y2="1356.233"/>
<line fill="none" stroke="#FFFFFF" stroke-miterlimit="10" x1="1271.663" y1="1338.351" x2="1312.413" y2="1344.108"/>
<line fill="none" stroke="#FFFFFF" stroke-miterlimit="10" x1="1312.413" y1="1344.108" x2="1331.823" y2="1329.273"/>
<line fill="none" stroke="#FFFFFF" stroke-miterlimit="10" x1="1333.511" y1="1329.273" x2="1363.788" y2="1330.774"/>
<line fill="none" stroke="#FFFFFF" stroke-miterlimit="10" x1="1363.788" y1="1330.774" x2="1396.955" y2="1350.442"/>
<line fill="none" stroke="#FFFFFF" stroke-miterlimit="10" x1="1329.708" y1="1361.942" x2="1337.789" y2="1384.576"/>
<line fill="none" stroke="#FFFFFF" stroke-miterlimit="10" x1="1328.859" y1="1360.773" x2="1314.289" y2="1346.274"/>
<line fill="none" stroke="#FFFFFF" stroke-miterlimit="10" x1="1271.663" y1="1337.441" x2="1272.456" y2="1310.605"/>
<line fill="none" stroke="#FFFFFF" stroke-miterlimit="10" x1="1272.456" y1="1310.605" x2="1285.8" y2="1290.108"/>
<line fill="none" stroke="#FFFFFF" stroke-miterlimit="10" x1="1515.288" y1="1749.854" x2="1531.109" y2="1735.023"/>
<line fill="none" stroke="#FFFFFF" stroke-miterlimit="10" x1="1513.538" y1="1749.854" x2="1515.288" y2="1729.442"/>
<line fill="none" stroke="#FFFFFF" stroke-miterlimit="10" x1="1477.034" y1="1748.608" x2="1483.455" y2="1703.897"/>
<line fill="none" stroke="#FFFFFF" stroke-miterlimit="10" x1="1483.455" y1="1703.897" x2="1454.538" y2="1726.254"/>
<line fill="none" stroke="#FFFFFF" stroke-miterlimit="10" x1="1454.538" y1="1726.254" x2="1474.929" y2="1748.608"/>
<line fill="none" stroke="#FFFFFF" stroke-miterlimit="10" x1="1405.429" y1="1827.855" x2="1449.538" y2="1777.021"/>
<line fill="none" stroke="#FFFFFF" stroke-miterlimit="10" x1="1405.429" y1="1825.773" x2="1416.876" y2="1777.021"/>
<line fill="none" stroke="#FFFFFF" stroke-miterlimit="10" x1="1438.929" y1="1821.858" x2="1454.538" y2="1817.691"/>
<line fill="none" stroke="#FFFFFF" stroke-miterlimit="10" x1="1482.038" y1="1862.105" x2="1483.455" y2="1877.412"/>
<line fill="none" stroke="#FFFFFF" stroke-miterlimit="10" x1="1430.881" y1="1857.023" x2="1438.929" y2="1822.773"/>
<line fill="none" stroke="#FFFFFF" stroke-miterlimit="10" x1="1430.881" y1="1857.023" x2="1415.537" y2="1864.105"/>
<line fill="none" stroke="#FFFFFF" stroke-miterlimit="10" x1="1415.537" y1="1865.187" x2="1398.525" y2="1864.105"/>
<line fill="none" stroke="#FFFFFF" stroke-miterlimit="10" x1="1398.525" y1="1864.105" x2="1383.955" y2="1853.941"/>
<line fill="none" stroke="#FFFFFF" stroke-miterlimit="10" x1="1383.955" y1="1853.941" x2="1393.443" y2="1839.898"/>
<line fill="none" stroke="#FFFFFF" stroke-miterlimit="10" x1="1393.443" y1="1839.898" x2="1404.034" y2="1825.773"/>
<line fill="none" stroke="#FFFFFF" stroke-miterlimit="10" x1="1393.443" y1="1841.773" x2="1363.376" y2="1814.512"/>
<line fill="none" stroke="#FFFFFF" stroke-miterlimit="10" x1="1363.376" y1="1814.512" x2="1343.374" y2="1793.773"/>
<line fill="none" stroke="#FFFFFF" stroke-miterlimit="10" x1="1336.695" y1="1860.564" x2="1383.955" y2="1855.023"/>
<line fill="none" stroke="#FFFFFF" stroke-miterlimit="10" x1="1383.955" y1="1855.023" x2="1375.592" y2="1883.781"/>
<line fill="none" stroke="#FFFFFF" stroke-miterlimit="10" x1="1354.707" y1="1763.773" x2="1386.038" y2="1773.771"/>
<line fill="none" stroke="#FFFFFF" stroke-miterlimit="10" x1="1364.303" y1="1779.193" x2="1378.874" y2="1748.609"/>
<line fill="none" stroke="#FFFFFF" stroke-miterlimit="10" x1="1310.288" y1="1913.73" x2="1293.538" y2="1903.373"/>
<line fill="none" stroke="#FFFFFF" stroke-miterlimit="10" x1="1295.359" y1="1905.273" x2="1271.116" y2="1821.846"/>
<line fill="none" stroke="#FFFFFF" stroke-miterlimit="10" x1="1271.116" y1="1821.846" x2="1248.038" y2="1809.162"/>
<line fill="none" stroke="#FFFFFF" stroke-miterlimit="10" x1="1238.113" y1="1891.734" x2="1267.242" y2="1882.443"/>
<line fill="none" stroke="#FFFFFF" stroke-miterlimit="10" x1="1268.581" y1="1882.443" x2="1246.038" y2="1857.023"/>
<line fill="none" stroke="#FFFFFF" stroke-miterlimit="10" x1="1246.038" y1="1857.023" x2="1227.109" y2="1874.693"/>
<line fill="none" stroke="#FFFFFF" stroke-miterlimit="10" x1="1227.109" y1="1874.693" x2="1238.113" y2="1891.734"/>
<line fill="none" stroke="#FFFFFF" stroke-miterlimit="10" x1="1168.109" y1="1857.023" x2="1219.953" y2="1857.023"/>
<line fill="none" stroke="#FFFFFF" stroke-miterlimit="10" x1="1221.876" y1="1855.123" x2="1206.429" y2="1840.176"/>
<line fill="none" stroke="#FFFFFF" stroke-miterlimit="10" x1="1206.429" y1="1840.176" x2="1185.28" y2="1838.273"/>
<line fill="none" stroke="#FFFFFF" stroke-miterlimit="10" x1="1185.28" y1="1838.273" x2="1201.511" y2="1813.83"/>
<line fill="none" stroke="#FFFFFF" stroke-miterlimit="10" x1="1206.427" y1="1840.176" x2="1218.696" y2="1820.189"/>
<line fill="none" stroke="#FFFFFF" stroke-miterlimit="10" x1="1184.109" y1="1838.273" x2="1168.954" y2="1855.123"/>
<line fill="none" stroke="#FFFFFF" stroke-miterlimit="10" x1="1182.099" y1="1802.803" x2="1249.455" y2="1809.941"/>
<line fill="none" stroke="#FFFFFF" stroke-miterlimit="10" x1="1182.099" y1="1802.803" x2="1176.569" y2="1784.289"/>
<line fill="none" stroke="#FFFFFF" stroke-miterlimit="10" x1="1176.569" y1="1784.289" x2="1144.136" y2="1776.162"/>
<line fill="none" stroke="#FFFFFF" stroke-miterlimit="10" x1="1144.136" y1="1776.162" x2="1131.955" y2="1726.109"/>
<line fill="none" stroke="#FFFFFF" stroke-miterlimit="10" x1="1131.955" y1="1724.693" x2="1079.062" y2="1709.912"/>
<line fill="none" stroke="#FFFFFF" stroke-miterlimit="10" x1="1079.062" y1="1709.912" x2="1068.763" y2="1693.912"/>
<line fill="none" stroke="#FFFFFF" stroke-miterlimit="10" x1="1068.763" y1="1693.912" x2="1063.173" y2="1682.48"/>
<line fill="none" stroke="#FFFFFF" stroke-miterlimit="10" x1="1063.173" y1="1682.48" x2="1067.131" y2="1669.162"/>
<line fill="none" stroke="#FFFFFF" stroke-miterlimit="10" x1="1062.404" y1="1581.608" x2="1075.881" y2="1605.771"/>
<line fill="none" stroke="#FFFFFF" stroke-miterlimit="10" x1="1026.874" y1="1685.662" x2="1042.138" y2="1643.662"/>
<line fill="none" stroke="#FFFFFF" stroke-miterlimit="10" x1="1042.138" y1="1643.662" x2="989.537" y2="1623.412"/>
<line fill="none" stroke="#FFFFFF" stroke-miterlimit="10" x1="989.537" y1="1623.412" x2="989.537" y2="1667.54"/>
<line fill="none" stroke="#FFFFFF" stroke-miterlimit="10" x1="989.537" y1="1667.54" x2="1026.874" y2="1685.662"/>
<line fill="none" stroke="#FFFFFF" stroke-miterlimit="10" x1="977.122" y1="1598.773" x2="1009.658" y2="1571.608"/>
<line fill="none" stroke="#FFFFFF" stroke-miterlimit="10" x1="1009.658" y1="1571.608" x2="1040.787" y2="1539.108"/>
<line fill="none" stroke="#FFFFFF" stroke-miterlimit="10" x1="1042.138" y1="1535.358" x2="1025.224" y2="1514.358"/>
<line fill="none" stroke="#FFFFFF" stroke-miterlimit="10" x1="1025.224" y1="1514.358" x2="1025.224" y2="1500.942"/>
<line fill="none" stroke="#FFFFFF" stroke-miterlimit="10" x1="1025.224" y1="1514.358" x2="1000.288" y2="1528.026"/>
<line fill="none" stroke="#FFFFFF" stroke-miterlimit="10" x1="1000.288" y1="1528.026" x2="980.304" y2="1559.858"/>
<line fill="none" stroke="#FFFFFF" stroke-miterlimit="10" x1="980.304" y1="1559.858" x2="958.953" y2="1570.523"/>
<line fill="none" stroke="#FFFFFF" stroke-miterlimit="10" x1="958.953" y1="1570.523" x2="978.751" y2="1597.414"/>
<line fill="none" stroke="#FFFFFF" stroke-miterlimit="10" x1="1006.906" y1="1431.771" x2="1097.827" y2="1408.961"/>
<line fill="none" stroke="#FFFFFF" stroke-miterlimit="10" x1="1095.994" y1="1411.858" x2="1043.121" y2="1474.515"/>
<line fill="none" stroke="#FFFFFF" stroke-miterlimit="10" x1="1093.994" y1="1409.923" x2="1106.834" y2="1393.033"/>
<line fill="none" stroke="#FFFFFF" stroke-miterlimit="10" x1="1106.834" y1="1393.033" x2="1106.834" y2="1344.523"/>
<circle fill="#FFFFFF" cx="1111.017" cy="1450.274" r="5.588"/>
<line fill="none" stroke="#FFFFFF" stroke-miterlimit="10" x1="1044.614" y1="1880.693" x2="1042.138" y2="1843.355"/>
<line fill="none" stroke="#FFFFFF" stroke-miterlimit="10" x1="1020.304" y1="1839.529" x2="1043.205" y2="1844.193"/>
<line fill="none" stroke="#FFFFFF" stroke-miterlimit="10" x1="1044.614" y1="1843.926" x2="1071.945" y2="1851.941"/>
<line fill="none" stroke="#FFFFFF" stroke-miterlimit="10" x1="1044.614" y1="1843.926" x2="1035.538" y2="1761.271"/>
<line fill="none" stroke="#FFFFFF" stroke-miterlimit="10" x1="1014.054" y1="1767.359" x2="1006.538" y2="1779.344"/>
<line fill="none" stroke="#FFFFFF" stroke-miterlimit="10" x1="1006.538" y1="1779.344" x2="990.788" y2="1780.225"/>
<line fill="none" stroke="#FFFFFF" stroke-miterlimit="10" x1="990.788" y1="1780.225" x2="981.96" y2="1758.779"/>
<line fill="none" stroke="#FFFFFF" stroke-miterlimit="10" x1="981.96" y1="1758.779" x2="992.718" y2="1745.779"/>
<circle fill="#FFFFFF" cx="1432.221" cy="2115.942" r="6.421"/>
<circle fill="#FFFFFF" cx="1489.875" cy="2063.192" r="6.421"/>
<circle fill="#FFFFFF" cx="1543.537" cy="2072.608" r="6.421"/>
<circle fill="#FFFFFF" cx="1549.959" cy="2157.442" r="6.421"/>
<circle fill="#FFFFFF" cx="1525.492" cy="2212.442" r="6.421"/>
<circle fill="#FFFFFF" cx="1589.992" cy="2212.442" r="6.421"/>
<circle fill="#FFFFFF" cx="1562.242" cy="2488.942" r="6.421"/>
<circle fill="#FFFFFF" cx="1362.492" cy="2501.943" r="6.421"/>
<circle fill="#FFFFFF" cx="1407.037" cy="2418.858" r="6.421"/>
<circle fill="#FFFFFF" cx="1306.492" cy="2489.102" r="6.421"/>
<circle fill="#FFFFFF" cx="1278.662" cy="2531.943" r="6.421"/>
<circle fill="#FFFFFF" cx="1204.242" cy="2553.943" r="6.421"/>
<circle fill="#FFFFFF" cx="1155.821" cy="2548.693" r="6.421"/>
<circle fill="#FFFFFF" cx="1186.492" cy="2611.443" r="6.421"/>
<circle fill="#FFFFFF" cx="1175.084" cy="2452.443" r="6.421"/>
<circle fill="#FFFFFF" cx="1267.992" cy="2366.193" r="6.421"/>
<circle fill="#FFFFFF" cx="1129.242" cy="2395.443" r="6.421"/>
<circle fill="#FFFFFF" cx="1091.742" cy="2354.443" r="6.421"/>
<circle fill="#FFFFFF" cx="1070.492" cy="2513.443" r="6.421"/>
<circle fill="#FFFFFF" cx="950.397" cy="2446.193" r="6.421"/>
<circle fill="#FFFFFF" cx="1023.242" cy="2250.943" r="6.421"/>
<circle fill="#FFFFFF" cx="1005.241" cy="2227.943" r="6.421"/>
<circle fill="#FFFFFF" cx="1027.492" cy="2201.943" r="6.421"/>
<circle fill="#FFFFFF" cx="1067.992" cy="2201.943" r="6.421"/>
<circle fill="#FFFFFF" cx="1091.742" cy="2195.521" r="6.421"/>
<circle fill="#FFFFFF" cx="1109.742" cy="2171.443" r="6.421"/>
<circle fill="#FFFFFF" cx="1062.662" cy="2146.693" r="6.421"/>
<circle fill="#FFFFFF" cx="1331.289" cy="2028.521" r="5.026"/>
<circle fill="#FFFFFF" cx="1330.341" cy="1992.773" r="5.026"/>
<circle fill="#FFFFFF" cx="1361.826" cy="2023.771" r="5.026"/>
<circle fill="#FFFFFF" cx="1380.674" cy="1975.859" r="5.026"/>
<circle fill="#FFFFFF" cx="1331.289" cy="2062.521" r="5.026"/>
<circle fill="#FFFFFF" cx="1316.289" cy="2079.521" r="5.026"/>
<circle fill="#FFFFFF" cx="1293.539" cy="2079.521" r="5.026"/>
<circle fill="#FFFFFF" cx="1272.405" cy="2084.289" r="5.026"/>
<circle fill="#FFFFFF" cx="1229.692" cy="2064.746" r="5.026"/>
<circle fill="#FFFFFF" cx="1262.336" cy="2109.521" r="5.026"/>
<circle fill="#FFFFFF" cx="1335.367" cy="2100.506" r="5.026"/>
<circle fill="#FFFFFF" cx="1370.039" cy="2158.521" r="5.026"/>
<circle fill="#FFFFFF" cx="1340.392" cy="2187.521" r="5.025"/>
<circle fill="#FFFFFF" cx="1375.064" cy="2183.521" r="5.025"/>
<circle fill="#FFFFFF" cx="1393.039" cy="2185.771" r="5.026"/>
<circle fill="#FFFFFF" cx="1421.902" cy="2199.271" r="5.025"/>
<circle fill="#FFFFFF" cx="1393.039" cy="2088.021" r="5.026"/>
<circle fill="#FFFFFF" cx="1366.851" cy="2079.264" r="5.025"/>
<circle fill="#FFFFFF" cx="1351.774" cy="2081.521" r="5.026"/>
<circle fill="#FFFFFF" cx="1440.289" cy="2052.47" r="5.026"/>
<circle fill="#FFFFFF" cx="1426.928" cy="2026.021" r="5.026"/>
<circle fill="#FFFFFF" cx="1509.655" cy="2175.798" r="5.026"/>
<circle fill="#FFFFFF" cx="1525.492" cy="2160.72" r="5.026"/>
<circle fill="#FFFFFF" cx="1529.289" cy="2197.271" r="5.026"/>
<circle fill="#FFFFFF" cx="1507.539" cy="2245.771" r="5.026"/>
<circle fill="#FFFFFF" cx="1549.959" cy="2212.442" r="5.026"/>
<circle fill="#FFFFFF" cx="1475.539" cy="2109.521" r="5.026"/>
<circle fill="#FFFFFF" cx="1450.341" cy="2315.771" r="5.025"/>
<circle fill="#FFFFFF" cx="1423.927" cy="2305.72" r="5.025"/>
<circle fill="#FFFFFF" cx="1389.759" cy="2297.271" r="5.025"/>
<circle fill="#FFFFFF" cx="1373.939" cy="2267.359" r="5.025"/>
<circle fill="#FFFFFF" cx="1418.9" cy="2275.021" r="5.025"/>
<circle fill="#FFFFFF" cx="1448.289" cy="2238.521" r="5.026"/>
<circle fill="#FFFFFF" cx="1490.264" cy="2309.271" r="5.026"/>
<circle fill="#FFFFFF" cx="1511.539" cy="2310.746" r="5.026"/>
<circle fill="#FFFFFF" cx="1511.539" cy="2436.021" r="5.026"/>
<circle fill="#FFFFFF" cx="1583.572" cy="2442.271" r="5.025"/>
<circle fill="#FFFFFF" cx="1492.789" cy="2490.338" r="5.026"/>
<circle fill="#FFFFFF" cx="1453.314" cy="2462.495" r="5.025"/>
<circle fill="#FFFFFF" cx="1443.264" cy="2472.548" r="5.026"/>
<circle fill="#FFFFFF" cx="1443.264" cy="2442.271" r="5.026"/>
<circle fill="#FFFFFF" cx="1474.789" cy="2400.521" r="5.026"/>
<circle fill="#FFFFFF" cx="1416.539" cy="2449.771" r="5.026"/>
<circle fill="#FFFFFF" cx="1392.539" cy="2470.271" r="5.026"/>
<circle fill="#FFFFFF" cx="1325.289" cy="2558.496" r="5.026"/>
<circle fill="#FFFFFF" cx="1339.539" cy="2602.496" r="5.026"/>
<circle fill="#FFFFFF" cx="1315.237" cy="2631.771" r="5.026"/>
<circle fill="#FFFFFF" cx="1251.789" cy="2547.521" r="5.026"/>
<circle fill="#FFFFFF" cx="1189.288" cy="2584.521" r="5.025"/>
<circle fill="#FFFFFF" cx="1167.268" cy="2573.521" r="5.026"/>
<circle fill="#FFFFFF" cx="1202.848" cy="2616.469" r="5.026"/>
<circle fill="#FFFFFF" cx="1135.662" cy="2625.021" r="5.026"/>
<circle fill="#FFFFFF" cx="1083.038" cy="2557.521" r="5.025"/>
<circle fill="#FFFFFF" cx="1091.742" cy="2506.021" r="5.026"/>
<circle fill="#FFFFFF" cx="1041.788" cy="2548.693" r="5.025"/>
<circle fill="#FFFFFF" cx="1051.84" cy="2601.771" r="5.026"/>
<circle fill="#FFFFFF" cx="1146.237" cy="2457.469" r="5.026"/>
<circle fill="#FFFFFF" cx="1168.662" cy="2473.521" r="5.026"/>
<circle fill="#FFFFFF" cx="1119.038" cy="2461.271" r="5.025"/>
<circle fill="#FFFFFF" cx="1134.268" cy="2474.574" r="5.026"/>
<circle fill="#FFFFFF" cx="1172.293" cy="2374.771" r="5.026"/>
<circle fill="#FFFFFF" cx="1202.848" cy="2379.799" r="5.026"/>
<circle fill="#FFFFFF" cx="1182.905" cy="2332.574" r="5.026"/>
<circle fill="#FFFFFF" cx="1173.689" cy="2289.271" r="5.025"/>
<circle fill="#FFFFFF" cx="1167.268" cy="2268.271" r="5.026"/>
<circle fill="#FFFFFF" cx="1201.403" cy="2273.299" r="5.026"/>
<circle fill="#FFFFFF" cx="1206.429" cy="2254.213" r="5.025"/>
<circle fill="#FFFFFF" cx="1219.641" cy="2271.471" r="5.026"/>
<circle fill="#FFFFFF" cx="1163.638" cy="2240.271" r="5.025"/>
<circle fill="#FFFFFF" cx="1147.538" cy="2230.221" r="5.025"/>
<circle fill="#FFFFFF" cx="1100.263" cy="2278.324" r="5.025"/>
<circle fill="#FFFFFF" cx="1119.038" cy="2278.324" r="5.025"/>
<circle fill="#FFFFFF" cx="1105.288" cy="2232.021" r="5.025"/>
<circle fill="#FFFFFF" cx="1091.742" cy="2240.271" r="5.026"/>
<circle fill="#FFFFFF" cx="1070.492" cy="2257.363" r="5.026"/>
<circle fill="#FFFFFF" cx="1047.788" cy="2270.021" r="5.025"/>
<circle fill="#FFFFFF" cx="973.038" cy="2429.271" r="5.025"/>
<circle fill="#FFFFFF" cx="985.368" cy="2504.359" r="5.025"/>
<circle fill="#FFFFFF" cx="1049.64" cy="2211.109" r="5.025"/>
<circle fill="#FFFFFF" cx="932.991" cy="2095.693" r="6.421"/>
<circle fill="#FFFFFF" cx="1157.59" cy="2143.521" r="5.026"/>
<circle fill="#FFFFFF" cx="1198.465" cy="2141.668" r="5.026"/>
<circle fill="#FFFFFF" cx="1191.348" cy="2109.521" r="5.026"/>
<circle fill="#FFFFFF" cx="1167.268" cy="2161.771" r="5.026"/>
<circle fill="#FFFFFF" cx="1234.717" cy="2203.021" r="5.026"/>
<circle fill="#FFFFFF" cx="1250.638" cy="2180.771" r="5.025"/>
<circle fill="#FFFFFF" cx="1268.582" cy="2192.971" r="5.026"/>
<circle fill="#FFFFFF" cx="1257.309" cy="2219.271" r="5.026"/>
<circle fill="#FFFFFF" cx="1293.539" cy="2199.021" r="5.026"/>
<circle fill="#FFFFFF" cx="1321.315" cy="2175.746" r="5.026"/>
<circle fill="#FFFFFF" cx="1275.888" cy="2151.719" r="5.025"/>
<circle fill="#FFFFFF" cx="1283.77" cy="2136.641" r="5.026"/>
<circle fill="#FFFFFF" cx="1285.939" cy="2282.256" r="5.025"/>
<circle fill="#FFFFFF" cx="1288.513" cy="2295.668" r="5.025"/>
<circle fill="#FFFFFF" cx="1330.341" cy="2300.299" r="5.025"/>
<circle fill="#FFFFFF" cx="1357.467" cy="2259.238" r="5.026"/>
<circle fill="#FFFFFF" cx="1311.263" cy="2327.271" r="5.025"/>
<circle fill="#FFFFFF" cx="1290.966" cy="2351.221" r="5.025"/>
<circle fill="#FFFFFF" cx="1315.237" cy="2364.799" r="5.026"/>
<circle fill="#FFFFFF" cx="1327.388" cy="2389.85" r="5.025"/>
<circle fill="#FFFFFF" cx="1270.862" cy="2324.859" r="5.026"/>
<circle fill="#FFFFFF" cx="1497.444" cy="2104.496" r="3.181"/>
<circle fill="#FFFFFF" cx="1468.917" cy="2060.799" r="3.654"/>
<circle fill="#FFFFFF" cx="1531.084" cy="2102.633" r="4.485"/>
<circle fill="#FFFFFF" cx="1548.026" cy="2097.146" r="4.485"/>
<circle fill="#FFFFFF" cx="1560.867" cy="2088.177" r="4.485"/>
<circle fill="#FFFFFF" cx="1510.599" cy="2052.47" r="4.484"/>
<circle fill="#FFFFFF" cx="1543.541" cy="2058.299" r="4.485"/>
<circle fill="#FFFFFF" cx="1528.751" cy="2141.633" r="4.484"/>
<circle fill="#FFFFFF" cx="1562.918" cy="2142.466" r="4.485"/>
<circle fill="#FFFFFF" cx="1479.816" cy="2163.547" r="3.18"/>
<circle fill="#FFFFFF" cx="1533.236" cy="2256.059" r="3.18"/>
<circle fill="#FFFFFF" cx="1542.624" cy="2279.075" r="3.18"/>
<circle fill="#FFFFFF" cx="1545.806" cy="2341.695" r="3.18"/>
<circle fill="#FFFFFF" cx="1533.236" cy="2320.797" r="3.18"/>
<circle fill="#FFFFFF" cx="1516.566" cy="2397.341" r="3.18"/>
<circle fill="#FFFFFF" cx="1516.566" cy="2409.258" r="3.18"/>
<circle fill="#FFFFFF" cx="1562.917" cy="2442.271" r="3.18"/>
<circle fill="#FFFFFF" cx="1603.777" cy="2449.771" r="3.18"/>
<circle fill="#FFFFFF" cx="1566.098" cy="2469.366" r="3.181"/>
<circle fill="#FFFFFF" cx="1492.79" cy="2363.499" r="3.18"/>
<circle fill="#FFFFFF" cx="1490.266" cy="2351.051" r="3.181"/>
<circle fill="#FFFFFF" cx="1475.806" cy="2488.745" r="3.18"/>
<circle fill="#FFFFFF" cx="1507.569" cy="2498.544" r="3.181"/>
<circle fill="#FFFFFF" cx="1477.972" cy="2448.495" r="3.18"/>
<circle fill="#FFFFFF" cx="1440.085" cy="2460.649" r="3.18"/>
<circle fill="#FFFFFF" cx="1387.515" cy="2530.495" r="3.18"/>
<circle fill="#FFFFFF" cx="1409.194" cy="2512.495" r="3.181"/>
<circle fill="#FFFFFF" cx="1375.069" cy="2560.342" r="3.181"/>
<circle fill="#FFFFFF" cx="1289.194" cy="2659.496" r="3.181"/>
<circle fill="#FFFFFF" cx="1261.573" cy="2563.521" r="3.18"/>
<circle fill="#FFFFFF" cx="1218.944" cy="2571.828" r="3.181"/>
<circle fill="#FFFFFF" cx="1203.861" cy="2626.496" r="3.18"/>
<circle fill="#FFFFFF" cx="1163.111" cy="2587.328" r="3.18"/>
<circle fill="#FFFFFF" cx="1050.034" cy="2521.621" r="4.131"/>
<circle fill="#FFFFFF" cx="1175.085" cy="2408.311" r="3.18"/>
<circle fill="#FFFFFF" cx="1205.444" cy="2408.311" r="3.181"/>
<circle fill="#FFFFFF" cx="1311.265" cy="2464.109" r="3.18"/>
<circle fill="#FFFFFF" cx="1380.092" cy="2364.797" r="3.181"/>
<circle fill="#FFFFFF" cx="1390.695" cy="2366.192" r="3.18"/>
<circle fill="#FFFFFF" cx="1384.734" cy="2358.437" r="3.18"/>
<circle fill="#FFFFFF" cx="1392.54" cy="2352.076" r="3.18"/>
<circle fill="#FFFFFF" cx="1398.066" cy="2357.138" r="3.18"/>
<circle fill="#FFFFFF" cx="1407.04" cy="2356.246" r="3.18"/>
<circle fill="#FFFFFF" cx="1231.63" cy="2249.188" r="3.18"/>
<circle fill="#FFFFFF" cx="1198.03" cy="2208.32" r="3.181"/>
<circle fill="#FFFFFF" cx="1219.642" cy="2204.047" r="3.18"/>
<circle fill="#FFFFFF" cx="1239.745" cy="2148.547" r="3.18"/>
<circle fill="#FFFFFF" cx="1242.444" cy="2133.461" r="3.181"/>
<circle fill="#FFFFFF" cx="1219.642" cy="2143.521" r="3.18"/>
<circle fill="#FFFFFF" cx="1219.642" cy="2128.436" r="3.18"/>
<circle fill="#FFFFFF" cx="1259.29" cy="2126.691" r="3.18"/>
<circle fill="#FFFFFF" cx="1274.415" cy="2123.512" r="3.18"/>
<circle fill="#FFFFFF" cx="1264.754" cy="2120.271" r="3.181"/>
<circle fill="#FFFFFF" cx="1168.665" cy="2056.541" r="3.18"/>
<circle fill="#FFFFFF" cx="1108.278" cy="2050.996" r="3.181"/>
<circle fill="#FFFFFF" cx="1090.517" cy="2077.33" r="3.18"/>
<circle fill="#FFFFFF" cx="1127.604" cy="2082.496" r="3.181"/>
<circle fill="#FFFFFF" cx="1139.111" cy="2042.496" r="3.18"/>
<circle fill="#FFFFFF" cx="1120.621" cy="2036.113" r="3.181"/>
<circle fill="#FFFFFF" cx="994.263" cy="2178.33" r="3.18"/>
<circle fill="#FFFFFF" cx="1021.072" cy="2180.33" r="3.18"/>
<circle fill="#FFFFFF" cx="965.083" cy="2183.51" r="3.18"/>
<circle fill="#FFFFFF" cx="962.943" cy="2192.342" r="3.18"/>
<circle fill="#FFFFFF" cx="940.777" cy="2110.496" r="3.18"/>
<circle fill="#FFFFFF" cx="965.083" cy="2256.275" r="3.18"/>
<circle fill="#FFFFFF" cx="945.777" cy="2277.83" r="3.18"/>
<circle fill="#FFFFFF" cx="936.111" cy="2266.135" r="3.18"/>
<circle fill="#FFFFFF" cx="998.822" cy="2295.162" r="3.18"/>
<circle fill="#FFFFFF" cx="983.79" cy="2313.941" r="3.18"/>
<line fill="none" stroke="#FFFFFF" stroke-miterlimit="10" x1="1510.597" y1="2052.47" x2="1543.538" y2="2058.299"/>
<line fill="none" stroke="#FFFFFF" stroke-miterlimit="10" x1="1543.538" y1="2058.299" x2="1542.624" y2="2071.275"/>
<line fill="none" stroke="#FFFFFF" stroke-miterlimit="10" x1="1497.443" y1="2104.496" x2="1476.634" y2="2107.676"/>
<line fill="none" stroke="#FFFFFF" stroke-miterlimit="10" x1="1475.538" y1="2109.521" x2="1433.847" y2="2115.942"/>
<line fill="none" stroke="#FFFFFF" stroke-miterlimit="10" x1="1433.847" y1="2115.942" x2="1393.038" y2="2088.021"/>
<line fill="none" stroke="#FFFFFF" stroke-miterlimit="10" x1="1393.038" y1="2088.021" x2="1369.798" y2="2079.029"/>
<line fill="none" stroke="#FFFFFF" stroke-miterlimit="10" x1="1369.798" y1="2079.029" x2="1335.366" y2="2100.506"/>
<line fill="none" stroke="#FFFFFF" stroke-miterlimit="10" x1="1335.366" y1="2100.506" x2="1368.913" y2="2157.443"/>
<line fill="none" stroke="#FFFFFF" stroke-miterlimit="10" x1="1368.913" y1="2157.443" x2="1393.038" y2="2185.771"/>
<line fill="none" stroke="#FFFFFF" stroke-miterlimit="10" x1="1393.038" y1="2185.771" x2="1375.064" y2="2183.521"/>
<line fill="none" stroke="#FFFFFF" stroke-miterlimit="10" x1="1375.064" y1="2183.521" x2="1340.392" y2="2187.521"/>
<line fill="none" stroke="#FFFFFF" stroke-miterlimit="10" x1="1331.288" y1="2028.521" x2="1363.376" y2="2023.496"/>
<line fill="none" stroke="#FFFFFF" stroke-miterlimit="10" x1="1363.376" y1="2023.496" x2="1380.673" y2="1975.858"/>
<line fill="none" stroke="#FFFFFF" stroke-miterlimit="10" x1="1380.673" y1="1975.858" x2="1330.341" y2="1992.773"/>
<line fill="none" stroke="#FFFFFF" stroke-miterlimit="10" x1="1330.341" y1="1994.275" x2="1331.288" y2="2028.521"/>
<circle fill="#FFFFFF" cx="1418.727" cy="1996.497" r="3.18"/>
<circle fill="#FFFFFF" cx="1407.627" cy="2002.857" r="3.18"/>
<line fill="none" stroke="#FFFFFF" stroke-miterlimit="10" x1="1413.443" y1="2034.942" x2="1440.288" y2="2050.942"/>
<line fill="none" stroke="#FFFFFF" stroke-miterlimit="10" x1="1401.245" y1="2050.942" x2="1435.263" y2="2052.47"/>
<line fill="none" stroke="#FFFFFF" stroke-miterlimit="10" x1="1528.749" y1="2141.633" x2="1525.491" y2="2160.72"/>
<line fill="none" stroke="#FFFFFF" stroke-miterlimit="10" x1="1525.491" y1="2160.72" x2="1548.986" y2="2158.521"/>
<line fill="none" stroke="#FFFFFF" stroke-miterlimit="10" x1="1548.986" y1="2158.521" x2="1562.915" y2="2142.466"/>
<line fill="none" stroke="#FFFFFF" stroke-miterlimit="10" x1="1524.263" y1="2160.72" x2="1509.656" y2="2175.798"/>
<line fill="none" stroke="#FFFFFF" stroke-miterlimit="10" x1="1509.656" y1="2175.798" x2="1529.288" y2="2197.271"/>
<line fill="none" stroke="#FFFFFF" stroke-miterlimit="10" x1="1529.288" y1="2197.271" x2="1527.12" y2="2212.442"/>
<line fill="none" stroke="#FFFFFF" stroke-miterlimit="10" x1="1527.12" y1="2212.442" x2="1549.958" y2="2212.442"/>
<line fill="none" stroke="#FFFFFF" stroke-miterlimit="10" x1="1549.958" y1="2212.442" x2="1562.915" y2="2218.863"/>
<line fill="none" stroke="#FFFFFF" stroke-miterlimit="10" x1="1562.915" y1="2218.863" x2="1589.993" y2="2212.442"/>
<line fill="none" stroke="#FFFFFF" stroke-miterlimit="10" x1="1525.493" y1="2215.652" x2="1507.538" y2="2245.771"/>
<circle fill="#FFFFFF" cx="1562.917" cy="2218.863" r="3.18"/>
<line fill="none" stroke="#FFFFFF" stroke-miterlimit="10" x1="1490.263" y1="2309.271" x2="1511.538" y2="2309.271"/>
<line fill="none" stroke="#FFFFFF" stroke-miterlimit="10" x1="1511.538" y1="2309.271" x2="1533.236" y2="2320.798"/>
<line fill="none" stroke="#FFFFFF" stroke-miterlimit="10" x1="1533.236" y1="2320.798" x2="1545.804" y2="2341.695"/>
<line fill="none" stroke="#FFFFFF" stroke-miterlimit="10" x1="1545.804" y1="2341.695" x2="1516.566" y2="2397.342"/>
<line fill="none" stroke="#FFFFFF" stroke-miterlimit="10" x1="1516.566" y1="2397.342" x2="1516.566" y2="2409.258"/>
<line fill="none" stroke="#FFFFFF" stroke-miterlimit="10" x1="1516.566" y1="2409.258" x2="1512.566" y2="2434.275"/>
<line fill="none" stroke="#FFFFFF" stroke-miterlimit="10" x1="1474.788" y1="2400.521" x2="1492.788" y2="2363.499"/>
<line fill="none" stroke="#FFFFFF" stroke-miterlimit="10" x1="1492.788" y1="2363.499" x2="1490.267" y2="2347.871"/>
<line fill="none" stroke="#FFFFFF" stroke-miterlimit="10" x1="1475.804" y1="2400.521" x2="1445.316" y2="2441.048"/>
<line fill="none" stroke="#FFFFFF" stroke-miterlimit="10" x1="1443.263" y1="2442.271" x2="1453.314" y2="2462.495"/>
<line fill="none" stroke="#FFFFFF" stroke-miterlimit="10" x1="1453.314" y1="2462.495" x2="1443.263" y2="2472.548"/>
<line fill="none" stroke="#FFFFFF" stroke-miterlimit="10" x1="1454.693" y1="2462.495" x2="1477.97" y2="2448.495"/>
<line fill="none" stroke="#FFFFFF" stroke-miterlimit="10" x1="1477.97" y1="2448.495" x2="1492.788" y2="2490.338"/>
<line fill="none" stroke="#FFFFFF" stroke-miterlimit="10" x1="1492.788" y1="2490.338" x2="1475.804" y2="2488.745"/>
<line fill="none" stroke="#FFFFFF" stroke-miterlimit="10" x1="1492.788" y1="2490.338" x2="1507.568" y2="2498.544"/>
<line fill="none" stroke="#FFFFFF" stroke-miterlimit="10" x1="1409.193" y1="2418.858" x2="1418.9" y2="2449.771"/>
<line fill="none" stroke="#FFFFFF" stroke-miterlimit="10" x1="1418.9" y1="2449.771" x2="1392.538" y2="2470.271"/>
<line fill="none" stroke="#FFFFFF" stroke-miterlimit="10" x1="1392.538" y1="2470.271" x2="1362.493" y2="2501.943"/>
<line fill="none" stroke="#FFFFFF" stroke-miterlimit="10" x1="1362.493" y1="2501.943" x2="1308.083" y2="2490.338"/>
<line fill="none" stroke="#FFFFFF" stroke-miterlimit="10" x1="1362.493" y1="2501.943" x2="1325.288" y2="2558.496"/>
<line fill="none" stroke="#FFFFFF" stroke-miterlimit="10" x1="1409.193" y1="2512.495" x2="1387.513" y2="2530.495"/>
<line fill="none" stroke="#FFFFFF" stroke-miterlimit="10" x1="1387.513" y1="2531.942" x2="1375.068" y2="2560.342"/>
<line fill="none" stroke="#FFFFFF" stroke-miterlimit="10" x1="1375.068" y1="2560.342" x2="1339.538" y2="2602.496"/>
<line fill="none" stroke="#FFFFFF" stroke-miterlimit="10" x1="1339.538" y1="2602.496" x2="1315.238" y2="2631.771"/>
<line fill="none" stroke="#FFFFFF" stroke-miterlimit="10" x1="1315.238" y1="2631.771" x2="1289.193" y2="2659.496"/>
<line fill="none" stroke="#FFFFFF" stroke-miterlimit="10" x1="1450.341" y1="2315.771" x2="1423.927" y2="2305.72"/>
<line fill="none" stroke="#FFFFFF" stroke-miterlimit="10" x1="1418.9" y1="2275.021" x2="1448.288" y2="2238.521"/>
<line fill="none" stroke="#FFFFFF" stroke-miterlimit="10" x1="1373.939" y1="2267.359" x2="1389.759" y2="2297.271"/>
<line fill="none" stroke="#FFFFFF" stroke-miterlimit="10" x1="1351.775" y1="2081.521" x2="1331.288" y2="2062.521"/>
<line fill="none" stroke="#FFFFFF" stroke-miterlimit="10" x1="1331.288" y1="2062.521" x2="1316.288" y2="2079.521"/>
<line fill="none" stroke="#FFFFFF" stroke-miterlimit="10" x1="1316.288" y1="2079.521" x2="1293.538" y2="2079.521"/>
<line fill="none" stroke="#FFFFFF" stroke-miterlimit="10" x1="1293.538" y1="2077.33" x2="1272.406" y2="2084.289"/>
<line fill="none" stroke="#FFFFFF" stroke-miterlimit="10" x1="1272.406" y1="2084.289" x2="1262.335" y2="2109.521"/>
<line fill="none" stroke="#FFFFFF" stroke-miterlimit="10" x1="1262.335" y1="2109.521" x2="1264.753" y2="2117.092"/>
<line fill="none" stroke="#FFFFFF" stroke-miterlimit="10" x1="1264.753" y1="2117.092" x2="1274.413" y2="2123.512"/>
<line fill="none" stroke="#FFFFFF" stroke-miterlimit="10" x1="1283.771" y1="2136.641" x2="1275.888" y2="2146.693"/>
<line fill="none" stroke="#FFFFFF" stroke-miterlimit="10" x1="1275.888" y1="2146.693" x2="1275.888" y2="2151.719"/>
<line fill="none" stroke="#FFFFFF" stroke-miterlimit="10" x1="1275.888" y1="2151.719" x2="1323.788" y2="2177.148"/>
<line fill="none" stroke="#FFFFFF" stroke-miterlimit="10" x1="1323.788" y1="2177.148" x2="1293.538" y2="2199.021"/>
<line fill="none" stroke="#FFFFFF" stroke-miterlimit="10" x1="1295.929" y1="2200.867" x2="1268.581" y2="2192.971"/>
<line fill="none" stroke="#FFFFFF" stroke-miterlimit="10" x1="1268.581" y1="2192.971" x2="1257.31" y2="2219.271"/>
<line fill="none" stroke="#FFFFFF" stroke-miterlimit="10" x1="1257.31" y1="2219.271" x2="1234.718" y2="2203.021"/>
<line fill="none" stroke="#FFFFFF" stroke-miterlimit="10" x1="1234.718" y1="2203.021" x2="1250.638" y2="2180.771"/>
<line fill="none" stroke="#FFFFFF" stroke-miterlimit="10" x1="1250.638" y1="2180.771" x2="1273.609" y2="2151.719"/>
<line fill="none" stroke="#FFFFFF" stroke-miterlimit="10" x1="1242.443" y1="2133.461" x2="1239.745" y2="2148.549"/>
<line fill="none" stroke="#FFFFFF" stroke-miterlimit="10" x1="1239.745" y1="2148.549" x2="1219.64" y2="2143.521"/>
<line fill="none" stroke="#FFFFFF" stroke-miterlimit="10" x1="1219.64" y1="2143.521" x2="1216.46" y2="2128.436"/>
<line fill="none" stroke="#FFFFFF" stroke-miterlimit="10" x1="1216.46" y1="2128.436" x2="1234.931" y2="2128.434"/>
<line fill="none" stroke="#FFFFFF" stroke-miterlimit="10" x1="1234.931" y1="2128.434" x2="1242.443" y2="2133.461"/>
<line fill="none" stroke="#FFFFFF" stroke-miterlimit="10" x1="1229.693" y1="2064.746" x2="1182.906" y2="2071.021"/>
<line fill="none" stroke="#FFFFFF" stroke-miterlimit="10" x1="1182.906" y1="2071.021" x2="1189.288" y2="2109.521"/>
<line fill="none" stroke="#FFFFFF" stroke-miterlimit="10" x1="1189.288" y1="2109.521" x2="1198.466" y2="2141.668"/>
<line fill="none" stroke="#FFFFFF" stroke-miterlimit="10" x1="1198.466" y1="2141.668" x2="1167.269" y2="2161.771"/>
<line fill="none" stroke="#FFFFFF" stroke-miterlimit="10" x1="1167.269" y1="2161.771" x2="1159.382" y2="2145.367"/>
<line fill="none" stroke="#FFFFFF" stroke-miterlimit="10" x1="1159.382" y1="2145.367" x2="1182.906" y2="2071.021"/>
<line fill="none" stroke="#FFFFFF" stroke-miterlimit="10" x1="1182.906" y1="2071.021" x2="1168.663" y2="2056.541"/>
<line fill="none" stroke="#FFFFFF" stroke-miterlimit="10" x1="1238.612" y1="2005.273" x2="1196.429" y2="2000.193"/>
<line fill="none" stroke="#FFFFFF" stroke-miterlimit="10" x1="1196.429" y1="2000.193" x2="1201.511" y2="1977.273"/>
<line fill="none" stroke="#FFFFFF" stroke-miterlimit="10" x1="1201.511" y1="1977.273" x2="1159.381" y2="1956.773"/>
<line fill="none" stroke="#FFFFFF" stroke-miterlimit="10" x1="1159.381" y1="1956.773" x2="1221.876" y2="1936.748"/>
<line fill="none" stroke="#FFFFFF" stroke-miterlimit="10" x1="1162.242" y1="1955.857" x2="1149.218" y2="1982.355"/>
<line fill="none" stroke="#FFFFFF" stroke-miterlimit="10" x1="1149.218" y1="1982.355" x2="1128.859" y2="2015.438"/>
<line fill="none" stroke="#FFFFFF" stroke-miterlimit="10" x1="1159.381" y1="1956.773" x2="1122.521" y2="1959.764"/>
<line fill="none" stroke="#FFFFFF" stroke-miterlimit="10" x1="1122.521" y1="1959.764" x2="1098.778" y2="1954.684"/>
<line fill="none" stroke="#FFFFFF" stroke-miterlimit="10" x1="1098.778" y1="1954.684" x2="1063.859" y2="1958.023"/>
<line fill="none" stroke="#FFFFFF" stroke-miterlimit="10" x1="1063.859" y1="1958.023" x2="1051.034" y2="1980.023"/>
<line fill="none" stroke="#FFFFFF" stroke-miterlimit="10" x1="1056.116" y1="1980.023" x2="1065.583" y2="2001.193"/>
<line fill="none" stroke="#FFFFFF" stroke-miterlimit="10" x1="1109.743" y1="2171.443" x2="1091.743" y2="2195.521"/>
<line fill="none" stroke="#FFFFFF" stroke-miterlimit="10" x1="1091.743" y1="2195.521" x2="1065.583" y2="2204.049"/>
<line fill="none" stroke="#FFFFFF" stroke-miterlimit="10" x1="1065.583" y1="2204.049" x2="1049.64" y2="2211.109"/>
<line fill="none" stroke="#FFFFFF" stroke-miterlimit="10" x1="1049.64" y1="2211.109" x2="1027.492" y2="2201.943"/>
<line fill="none" stroke="#FFFFFF" stroke-miterlimit="10" x1="1027.492" y1="2201.943" x2="1005.242" y2="2227.943"/>
<line fill="none" stroke="#FFFFFF" stroke-miterlimit="10" x1="1005.242" y1="2227.943" x2="1020.304" y2="2250.943"/>
<line fill="none" stroke="#FFFFFF" stroke-miterlimit="10" x1="1020.304" y1="2250.943" x2="1047.788" y2="2214.246"/>
<line fill="none" stroke="#FFFFFF" stroke-miterlimit="10" x1="1046.814" y1="2272.385" x2="1070.493" y2="2257.363"/>
<line fill="none" stroke="#FFFFFF" stroke-miterlimit="10" x1="1070.493" y1="2257.363" x2="1091.743" y2="2240.271"/>
<line fill="none" stroke="#FFFFFF" stroke-miterlimit="10" x1="1091.743" y1="2240.271" x2="1105.288" y2="2232.021"/>
<line fill="none" stroke="#FFFFFF" stroke-miterlimit="10" x1="1105.288" y1="2232.021" x2="1147.538" y2="2230.221"/>
<line fill="none" stroke="#FFFFFF" stroke-miterlimit="10" x1="1147.538" y1="2230.221" x2="1163.638" y2="2240.271"/>
<line fill="none" stroke="#FFFFFF" stroke-miterlimit="10" x1="1163.638" y1="2240.271" x2="1167.269" y2="2268.271"/>
<line fill="none" stroke="#FFFFFF" stroke-miterlimit="10" x1="1167.269" y1="2268.271" x2="1173.689" y2="2289.271"/>
<line fill="none" stroke="#FFFFFF" stroke-miterlimit="10" x1="1173.689" y1="2289.271" x2="1201.404" y2="2273.299"/>
<line fill="none" stroke="#FFFFFF" stroke-miterlimit="10" x1="1201.404" y1="2273.299" x2="1219.64" y2="2271.471"/>
<line fill="none" stroke="#FFFFFF" stroke-miterlimit="10" x1="1201.404" y1="2273.299" x2="1206.429" y2="2254.213"/>
<line fill="none" stroke="#FFFFFF" stroke-miterlimit="10" x1="1119.038" y1="2278.324" x2="1105.288" y2="2278.324"/>
<line fill="none" stroke="#FFFFFF" stroke-miterlimit="10" x1="1100.263" y1="2278.324" x2="1112.163" y2="2300.299"/>
<line fill="none" stroke="#FFFFFF" stroke-miterlimit="10" x1="1112.163" y1="2300.299" x2="1123.779" y2="2294.299"/>
<line fill="none" stroke="#FFFFFF" stroke-miterlimit="10" x1="1123.779" y1="2294.299" x2="1119.038" y2="2283.35"/>
<line fill="none" stroke="#FFFFFF" stroke-miterlimit="10" x1="1202.847" y1="2379.799" x2="1172.294" y2="2374.771"/>
<line fill="none" stroke="#FFFFFF" stroke-miterlimit="10" x1="1172.294" y1="2374.771" x2="1175.085" y2="2408.311"/>
<line fill="none" stroke="#FFFFFF" stroke-miterlimit="10" x1="1175.085" y1="2408.311" x2="1202.263" y2="2408.311"/>
<line fill="none" stroke="#FFFFFF" stroke-miterlimit="10" x1="1172.294" y1="2374.771" x2="1129.243" y2="2395.443"/>
<line fill="none" stroke="#FFFFFF" stroke-miterlimit="10" x1="1175.085" y1="2452.443" x2="1168.663" y2="2473.521"/>
<line fill="none" stroke="#FFFFFF" stroke-miterlimit="10" x1="1168.663" y1="2473.521" x2="1146.238" y2="2457.469"/>
<line fill="none" stroke="#FFFFFF" stroke-miterlimit="10" x1="1146.238" y1="2457.469" x2="1134.269" y2="2474.574"/>
<line fill="none" stroke="#FFFFFF" stroke-miterlimit="10" x1="1134.269" y1="2474.574" x2="1119.038" y2="2461.271"/>
<circle fill="#FFFFFF" cx="1112.165" cy="2322.246" r="3.18"/>
<circle fill="#FFFFFF" cx="1103.323" cy="2337.6" r="3.181"/>
<circle fill="#FFFFFF" cx="1142.515" cy="2513.441" r="3.18"/>
<circle fill="#FFFFFF" cx="1155.589" cy="2517.488" r="3.18"/>
<line fill="none" stroke="#FFFFFF" stroke-miterlimit="10" x1="1139.038" y1="2041.775" x2="1127.603" y2="2082.496"/>
<line fill="none" stroke="#FFFFFF" stroke-miterlimit="10" x1="1138.122" y1="2042.496" x2="1121.456" y2="2035.109"/>
<line fill="none" stroke="#FFFFFF" stroke-miterlimit="10" x1="1121.456" y1="2035.109" x2="1108.277" y2="2050.996"/>
<line fill="none" stroke="#FFFFFF" stroke-miterlimit="10" x1="1108.277" y1="2050.996" x2="1090.515" y2="2077.33"/>
<line fill="none" stroke="#FFFFFF" stroke-miterlimit="10" x1="1090.515" y1="2077.33" x2="1127.603" y2="2082.496"/>
<line fill="none" stroke="#FFFFFF" stroke-miterlimit="10" x1="1044.615" y1="2028.359" x2="992.718" y2="2041.193"/>
<line fill="none" stroke="#FFFFFF" stroke-miterlimit="10" x1="992.718" y1="2041.193" x2="1012.773" y2="2017.34"/>
<line fill="none" stroke="#FFFFFF" stroke-miterlimit="10" x1="992.718" y1="2041.193" x2="975.788" y2="2045.676"/>
<line fill="none" stroke="#FFFFFF" stroke-miterlimit="10" x1="992.718" y1="2041.193" x2="992.718" y2="2058.609"/>
<line fill="none" stroke="#FFFFFF" stroke-miterlimit="10" x1="932.992" y1="2095.693" x2="940.777" y2="2110.496"/>
<line fill="none" stroke="#FFFFFF" stroke-miterlimit="10" x1="940.777" y1="2110.496" x2="923.859" y2="2136.023"/>
<line fill="none" stroke="#FFFFFF" stroke-miterlimit="10" x1="923.859" y1="2136.023" x2="914.121" y2="2140.271"/>
<circle fill="#FFFFFF" cx="1112.165" cy="2300.299" r="3.18"/>
<line fill="none" stroke="#FFFFFF" stroke-miterlimit="10" x1="950.398" y1="2446.193" x2="973.038" y2="2429.271"/>
<line fill="none" stroke="#FFFFFF" stroke-miterlimit="10" x1="950.398" y1="2446.193" x2="978.064" y2="2477.574"/>
<line fill="none" stroke="#FFFFFF" stroke-miterlimit="10" x1="978.064" y1="2477.574" x2="985.368" y2="2504.359"/>
<line fill="none" stroke="#FFFFFF" stroke-miterlimit="10" x1="1071.945" y1="2515.676" x2="1083.038" y2="2557.521"/>
<line fill="none" stroke="#FFFFFF" stroke-miterlimit="10" x1="1070.493" y1="2513.443" x2="1091.743" y2="2506.021"/>
<line fill="none" stroke="#FFFFFF" stroke-miterlimit="10" x1="1071.945" y1="2515.676" x2="1045.9" y2="2521.621"/>
<line fill="none" stroke="#FFFFFF" stroke-miterlimit="10" x1="1045.9" y1="2521.621" x2="1041.788" y2="2548.693"/>
<line fill="none" stroke="#FFFFFF" stroke-miterlimit="10" x1="1041.788" y1="2548.693" x2="1051.841" y2="2601.771"/>
<line fill="none" stroke="#FFFFFF" stroke-miterlimit="10" x1="1163.111" y1="2587.328" x2="1189.288" y2="2584.521"/>
<line fill="none" stroke="#FFFFFF" stroke-miterlimit="10" x1="1189.288" y1="2584.521" x2="1168.663" y2="2571.828"/>
<line fill="none" stroke="#FFFFFF" stroke-miterlimit="10" x1="1155.822" y1="2548.693" x2="1204.243" y2="2553.943"/>
<line fill="none" stroke="#FFFFFF" stroke-miterlimit="10" x1="1204.243" y1="2553.943" x2="1155.589" y2="2517.488"/>
<line fill="none" stroke="#FFFFFF" stroke-miterlimit="10" x1="1155.589" y1="2517.488" x2="1145.695" y2="2513.443"/>
<line fill="none" stroke="#FFFFFF" stroke-miterlimit="10" x1="1205.443" y1="2555.113" x2="1251.788" y2="2547.521"/>
<line fill="none" stroke="#FFFFFF" stroke-miterlimit="10" x1="1251.788" y1="2547.521" x2="1278.663" y2="2531.943"/>
<line fill="none" stroke="#FFFFFF" stroke-miterlimit="10" x1="1184.263" y1="2611.443" x2="1202.847" y2="2616.469"/>
<line fill="none" stroke="#FFFFFF" stroke-miterlimit="10" x1="1327.388" y1="2389.85" x2="1315.238" y2="2364.799"/>
<line fill="none" stroke="#FFFFFF" stroke-miterlimit="10" x1="1315.238" y1="2364.799" x2="1290.966" y2="2351.221"/>
<line fill="none" stroke="#FFFFFF" stroke-miterlimit="10" x1="1290.966" y1="2351.221" x2="1270.863" y2="2366.193"/>
<line fill="none" stroke="#FFFFFF" stroke-miterlimit="10" x1="1290.966" y1="2351.221" x2="1272.406" y2="2327.271"/>
<line fill="none" stroke="#FFFFFF" stroke-miterlimit="10" x1="1290.966" y1="2351.221" x2="1311.263" y2="2327.271"/>
<line fill="none" stroke="#FFFFFF" stroke-miterlimit="10" x1="1311.263" y1="2327.271" x2="1330.341" y2="2300.299"/>
<line fill="none" stroke="#FFFFFF" stroke-miterlimit="10" x1="1562.243" y1="2488.942" x2="1566.097" y2="2469.366"/>
<line fill="none" stroke="#FFFFFF" stroke-miterlimit="10" x1="1566.097" y1="2469.366" x2="1562.915" y2="2442.271"/>
<g>
	<g>
		<line fill="none" stroke="#FFFFFF" stroke-miterlimit="10" x1="1278.663" y1="2531.943" x2="1279.482" y2="2530.686"/>
		
			<line fill="none" stroke="#FFFFFF" stroke-miterlimit="10" stroke-dasharray="2.8286,2.8286,2.8286,2.8286" x1="1281.023" y1="2528.313" x2="1286.415" y2="2520.012"/>
		
			<line fill="none" stroke="#FFFFFF" stroke-miterlimit="10" stroke-dasharray="2.8286,2.8286,2.8286,2.8286,2.8286,2.8286" x1="1287.185" y1="2518.824" x2="1304.906" y2="2491.545"/>
		<line fill="none" stroke="#FFFFFF" stroke-miterlimit="10" x1="1305.675" y1="2490.359" x2="1306.493" y2="2489.102"/>
	</g>
</g>
<line fill="none" stroke="#FFFFFF" stroke-miterlimit="10" stroke-dasharray="3,3,3" x1="1278.663" y1="2531.943" x2="1326.341" y2="2558.496"/>
<line fill="none" stroke="#FFFFFF" stroke-miterlimit="10" stroke-dasharray="3,3,3" x1="1533.236" y1="2256.058" x2="1549.96" y2="2212.442"/>
<line fill="none" stroke="#FFFFFF" stroke-miterlimit="10" stroke-dasharray="3,3,3" x1="1533.236" y1="2256.058" x2="1542.624" y2="2279.075"/>
<line fill="none" stroke="#FFFFFF" stroke-miterlimit="10" stroke-dasharray="3,3,3" x1="1182.906" y1="2332.574" x2="1173.689" y2="2289.271"/>
<line fill="none" stroke="#FFFFFF" stroke-miterlimit="10" stroke-dasharray="3,3,3" x1="998.822" y1="2295.162" x2="1023.242" y2="2250.943"/>
<line fill="none" stroke="#FFFFFF" stroke-miterlimit="10" stroke-dasharray="3,3,3" x1="1005.242" y1="2227.943" x2="965.081" y2="2256.275"/>
<line fill="none" stroke="#FFFFFF" stroke-miterlimit="10" stroke-dasharray="3,3,3" x1="965.081" y1="2256.275" x2="936.11" y2="2266.135"/>
<line fill="none" stroke="#FFFFFF" stroke-miterlimit="10" stroke-dasharray="3,3,3" x1="968.263" y1="2256.275" x2="945.776" y2="2277.83"/>
<line fill="none" stroke="#FFFFFF" stroke-miterlimit="10" stroke-dasharray="3,3,3" x1="965.081" y1="2183.51" x2="994.263" y2="2178.33"/>
<line fill="none" stroke="#FFFFFF" stroke-miterlimit="10" stroke-dasharray="3,3,3" x1="994.263" y1="2178.33" x2="1021.072" y2="2180.33"/>
<line fill="none" stroke="#FFFFFF" stroke-miterlimit="10" stroke-dasharray="3,3,3" x1="1021.072" y1="2180.33" x2="1027.492" y2="2197.996"/>
<line fill="none" stroke="#FFFFFF" stroke-miterlimit="10" stroke-dasharray="3,3,3" x1="1198.029" y1="2208.32" x2="1219.64" y2="2204.049"/>
<line fill="none" stroke="#FFFFFF" stroke-miterlimit="10" stroke-dasharray="3,3,3" x1="1219.64" y1="2204.049" x2="1234.718" y2="2203.021"/>
<line fill="none" stroke="#FFFFFF" stroke-miterlimit="10" stroke-dasharray="3,3,3" x1="1231.628" y1="2249.188" x2="1255.663" y2="2219.271"/>
<line fill="none" stroke="#FFFFFF" stroke-miterlimit="10" stroke-dasharray="3,3,3" x1="1354.708" y1="2083.691" x2="1423.927" y2="2199.021"/>
<line fill="none" stroke="#FFFFFF" stroke-miterlimit="10" x1="1091.743" y1="2354.443" x2="1103.322" y2="2337.6"/>
<line fill="none" stroke="#FFFFFF" stroke-miterlimit="10" x1="1103.322" y1="2337.6" x2="1112.163" y2="2322.246"/>
<line fill="none" stroke="#FFFFFF" stroke-miterlimit="10" x1="1112.163" y1="2322.246" x2="1112.163" y2="2300.299"/>
<path fill="none" stroke="#FFFFFF" stroke-miterlimit="10" d="M861.273,1619.105c0,143.758,75.613,269.855,189.236,340.695
	c-114.427,70.67-190.683,197.221-190.683,341.588c0.001,221.574,179.622,401.193,401.196,401.193
	c221.572,0,401.193-179.62,401.193-401.194c0-143.759-75.611-269.856-189.234-340.695
	c114.426-70.669,190.684-197.22,190.684-341.586c0-221.573-179.622-401.194-401.196-401.194
	C1040.896,1217.912,861.273,1397.531,861.273,1619.105z"/>
<path fill="none" stroke="#FFFFFF" stroke-miterlimit="10" d="M882.154,1619.303c0,145.699,81.654,272.322,201.695,336.619
	c-124.793,63.9-210.207,193.787-210.207,343.621c0,213.076,172.732,385.811,385.813,385.811
	c213.076,0,385.813-172.734,385.813-385.811c0-148.089-83.436-276.689-205.861-341.36
	c122.381-63.557,205.984-191.453,205.984-338.88c0-210.762-170.857-381.617-381.618-381.617
	C1053.009,1237.685,882.154,1408.541,882.154,1619.303z"/>
<path fill="none" stroke="#FFFFFF" stroke-miterlimit="10" stroke-dasharray="3,3,3" d="M917.087,1619.858
	c0,164.722,115.159,302.53,269.354,337.353c-156.262,33.273-273.48,172.063-273.48,338.248
	c0,191.012,154.846,345.857,345.857,345.857c191.014,0,345.857-154.846,345.857-345.857c0-164.722-115.157-302.53-269.354-337.352
	c156.265-33.274,273.483-172.063,273.483-338.249c0-191.012-154.847-345.856-345.859-345.856
	C1071.933,1274.002,917.087,1428.847,917.087,1619.858z"/>
<line fill="none" stroke="#FFFFFF" stroke-miterlimit="10" x1="1260.822" y1="2697.701" x2="1260.822" y2="1217.912"/>
<line fill="none" stroke="#FFFFFF" stroke-miterlimit="10" x1="873.642" y1="2299.543" x2="1645.267" y2="2299.543"/>
<line fill="none" stroke="#FFFFFF" stroke-miterlimit="10" x1="882.154" y1="1619.303" x2="1645.39" y2="1619.303"/>
<path fill="none" stroke="#FFFFFF" stroke-miterlimit="10" d="M1154.288,2662.676c0,0,364.783-27.031,364.783-363.133
	c0-273.534-260.203-342.318-260.203-342.318s-258.58-85.309-258.58-341.031s258.58-342.166,258.58-342.166"/>
</svg>
