<?xml version="1.0" encoding="utf-8"?>
<!-- Generator: Adobe Illustrator 16.0.0, SVG Export Plug-In . SVG Version: 6.00 Build 0)  -->
<!DOCTYPE svg PUBLIC "-//W3C//DTD SVG 1.1//EN" "http://www.w3.org/Graphics/SVG/1.1/DTD/svg11.dtd">
<svg version="1.1" id="Layer_1" xmlns="http://www.w3.org/2000/svg" xmlns:xlink="http://www.w3.org/1999/xlink" x="0px" y="0px"
	 width="2076.208px" height="1491.276px" viewBox="0 0 2076.208 1491.276" enable-background="new 0 0 2076.208 1491.276"
	 xml:space="preserve">
<circle fill="none" stroke="#FFFFFF" stroke-miterlimit="10" cx="941.184" cy="958.055" r="389.5"/>
<circle fill="none" stroke="#FFFFFF" stroke-miterlimit="10" cx="941.184" cy="958.848" r="334.707"/>
<circle fill="none" stroke="#FFFFFF" stroke-miterlimit="10" cx="942.18" cy="958.848" r="280.504"/>
<circle fill="#FFFFFF" cx="583.35" cy="803.889" r="8.667"/>
<circle fill="#FFFFFF" cx="747.059" cy="1229.93" r="7.625"/>
<circle fill="#FFFFFF" cx="760.059" cy="1216.43" r="4.125"/>
<circle fill="#FFFFFF" cx="767.896" cy="1234.092" r="3.463"/>
<circle fill="#FFFFFF" cx="766.396" cy="1253.555" r="3.25"/>
<circle fill="#FFFFFF" cx="734.309" cy="1236.768" r="3.375"/>
<circle fill="#FFFFFF" cx="723.559" cy="1219.805" r="3.375"/>
<circle fill="#FFFFFF" cx="735.434" cy="1215.305" r="3"/>
<circle fill="#FFFFFF" cx="1070.684" cy="1204.503" r="7.166"/>
<ellipse transform="matrix(0.9363 0.3512 -0.3512 0.9363 491.3214 -299.22)" fill="none" stroke="#FFFFFF" stroke-miterlimit="10" cx="1070.504" cy="1204.79" rx="15.666" ry="5.151"/>
<circle fill="#FFFFFF" cx="1074.851" cy="1190.722" r="2.999"/>
<circle fill="#FFFFFF" cx="1089.206" cy="1187.356" r="3.145"/>
<circle fill="#FFFFFF" cx="1051.018" cy="1194.004" r="4"/>
<circle fill="#FFFFFF" cx="1042.684" cy="1223.723" r="4.334"/>
<circle fill="#FFFFFF" cx="1065.684" cy="1223.723" r="4.334"/>
<circle fill="#FFFFFF" cx="1080.767" cy="1225.305" r="3.583"/>
<circle fill="#FFFFFF" cx="1096.684" cy="1210.221" r="3.334"/>
<g>
	<circle fill="#FFFFFF" cx="941.184" cy="958.692" r="13.328"/>
	<path fill="#FFFFFF" d="M939.581,932.538l0.002,11.569c0.476-0.052,0.958-0.078,1.446-0.083L939.581,932.538z"/>
	<path fill="#FFFFFF" d="M945.966,932.94l-2.876,11.213c0.483,0.063,0.958,0.148,1.425,0.256L945.966,932.94z"/>
	<path fill="#FFFFFF" d="M936.401,932.94l1.452,11.469c0.467-0.107,0.941-0.192,1.423-0.255L936.401,932.94z"/>
	<path fill="#FFFFFF" d="M949.071,933.737l-4.253,10.75c0.47,0.12,0.93,0.262,1.381,0.426L949.071,933.737z"/>
	<path fill="#FFFFFF" d="M942.787,932.538l-1.449,11.486c0.488,0.005,0.971,0.031,1.445,0.083L942.787,932.538z"/>
	<path fill="#FFFFFF" d="M933.296,933.737l2.872,11.176c0.451-0.164,0.911-0.306,1.382-0.426L933.296,933.737z"/>
	<path fill="#FFFFFF" d="M920.534,943.008l8.685,7.182c0.274-0.385,0.567-0.754,0.876-1.109L920.534,943.008z"/>
	<path fill="#FFFFFF" d="M918.816,945.715l9.439,5.987c0.224-0.411,0.467-0.812,0.729-1.199L918.816,945.715z"/>
	<path fill="#FFFFFF" d="M917.451,948.616l10.052,4.727c0.171-0.435,0.363-0.857,0.573-1.271L917.451,948.616z"/>
	<path fill="#FFFFFF" d="M927.506,936.459l5.517,10.029c0.397-0.265,0.808-0.511,1.231-0.737L927.506,936.459z"/>
	<path fill="#FFFFFF" d="M924.914,938.345l6.703,9.221c0.361-0.311,0.737-0.603,1.128-0.878L924.914,938.345z"/>
	<path fill="#FFFFFF" d="M930.315,934.917l4.237,10.691c0.427-0.216,0.865-0.411,1.315-0.586L930.315,934.917z"/>
	<path fill="#FFFFFF" d="M961.835,943.008l-9.563,6.072c0.31,0.355,0.602,0.727,0.876,1.11L961.835,943.008z"/>
	<path fill="#FFFFFF" d="M965.906,951.665l-10.896,2.081c0.156,0.433,0.291,0.874,0.407,1.324L965.906,951.665z"/>
	<path fill="#FFFFFF" d="M966.507,961.212l-10.637-2.026c-0.014,0.455-0.044,0.904-0.099,1.348L966.507,961.212z"/>
	<path fill="#FFFFFF" d="M966.507,954.812l-10.978,0.694c0.099,0.443,0.175,0.896,0.232,1.354L966.507,954.812z"/>
	<path fill="#FFFFFF" d="M966.709,958.012l-10.886-0.683c0.042,0.448,0.067,0.902,0.068,1.362L966.709,958.012z"/>
	<path fill="#FFFFFF" d="M952.053,934.917l-5.554,10.105c0.45,0.175,0.889,0.37,1.316,0.586L952.053,934.917z"/>
	<path fill="#FFFFFF" d="M931.354,947.804l-8.777-7.266l7.767,8.268C930.665,948.456,931.001,948.122,931.354,947.804z"/>
	<path fill="#FFFFFF" d="M952.023,948.807l7.767-8.269l-8.777,7.266C951.365,948.123,951.702,948.457,952.023,948.807z"/>
	<path fill="#FFFFFF" d="M954.86,936.459l-6.747,9.293c0.423,0.226,0.833,0.472,1.23,0.736L954.86,936.459z"/>
	<path fill="#FFFFFF" d="M957.453,938.345l-7.831,8.343c0.391,0.275,0.767,0.568,1.128,0.878L957.453,938.345z"/>
	<path fill="#FFFFFF" d="M963.551,945.715l-10.168,4.789c0.262,0.387,0.504,0.787,0.729,1.199L963.551,945.715z"/>
	<path fill="#FFFFFF" d="M916.46,951.665l10.489,3.404c0.115-0.449,0.25-0.891,0.407-1.324L916.46,951.665z"/>
	<path fill="#FFFFFF" d="M964.916,948.616l-10.626,3.456c0.21,0.413,0.401,0.837,0.573,1.271L964.916,948.616z"/>
	<path fill="#FFFFFF" d="M939.581,983.487l1.269-10.066c-0.426-0.01-0.85-0.029-1.267-0.074L939.581,983.487z"/>
	<path fill="#FFFFFF" d="M952.053,981.108l-3.766-9.502c-0.372,0.205-0.756,0.391-1.146,0.563L952.053,981.108z"/>
	<path fill="#FFFFFF" d="M936.401,983.084l2.523-9.839c-0.421-0.065-0.837-0.146-1.246-0.247L936.401,983.084z"/>
	<path fill="#FFFFFF" d="M954.86,979.565l-4.956-9.011c-0.345,0.254-0.7,0.493-1.066,0.717L954.86,979.565z"/>
	<path fill="#FFFFFF" d="M942.787,983.487l-0.003-10.141c-0.417,0.045-0.841,0.064-1.267,0.074L942.787,983.487z"/>
	<path fill="#FFFFFF" d="M957.453,977.679l-6.077-8.36c-0.311,0.299-0.631,0.586-0.966,0.856L957.453,977.679z"/>
	<path fill="#FFFFFF" d="M945.966,983.084l-1.276-10.086c-0.409,0.101-0.824,0.182-1.247,0.247L945.966,983.084z"/>
	<path fill="#FFFFFF" d="M949.071,982.288l-2.537-9.869c-0.394,0.154-0.794,0.295-1.203,0.416L949.071,982.288z"/>
	<path fill="#FFFFFF" d="M964.916,967.409l-9.627-4.527c-0.126,0.428-0.273,0.845-0.436,1.254L964.916,967.409z"/>
	<path fill="#FFFFFF" d="M965.906,964.36l-10.213-3.315c-0.07,0.445-0.16,0.883-0.27,1.313L965.906,964.36z"/>
	<path fill="#FFFFFF" d="M961.835,973.016l-8.079-6.682c-0.228,0.375-0.469,0.738-0.728,1.09L961.835,973.016z"/>
	<path fill="#FFFFFF" d="M959.79,975.486l-7.121-7.581c-0.271,0.339-0.56,0.662-0.858,0.976L959.79,975.486z"/>
	<path fill="#FFFFFF" d="M963.551,970.309l-8.911-5.653c-0.178,0.403-0.37,0.799-0.582,1.183L963.551,970.309z"/>
	<path fill="#FFFFFF" d="M933.296,982.288l3.741-9.453c-0.41-0.121-0.81-0.262-1.205-0.416L933.296,982.288z"/>
	<path fill="#FFFFFF" d="M920.534,973.016l8.805-5.592c-0.259-0.352-0.501-0.714-0.728-1.088L920.534,973.016z"/>
	<path fill="#FFFFFF" d="M918.816,970.309l9.493-4.471c-0.212-0.383-0.404-0.778-0.582-1.182L918.816,970.309z"/>
	<path fill="#FFFFFF" d="M917.451,967.409l10.062-3.272c-0.162-0.41-0.31-0.827-0.435-1.254L917.451,967.409z"/>
	<path fill="#FFFFFF" d="M915.658,958.012l10.816,0.679c0.001-0.459,0.026-0.913,0.068-1.361L915.658,958.012z"/>
	<path fill="#FFFFFF" d="M916.46,964.36l10.482-2.002c-0.109-0.431-0.2-0.868-0.27-1.313L916.46,964.36z"/>
	<path fill="#FFFFFF" d="M915.86,961.212l10.735-0.679c-0.054-0.443-0.085-0.893-0.099-1.348L915.86,961.212z"/>
	<path fill="#FFFFFF" d="M930.315,981.108l4.911-8.938c-0.39-0.173-0.774-0.357-1.146-0.563L930.315,981.108z"/>
	<path fill="#FFFFFF" d="M922.577,975.486l7.979-6.604c-0.299-0.313-0.587-0.638-0.858-0.977L922.577,975.486z"/>
	<path fill="#FFFFFF" d="M915.86,954.812l10.744,2.048c0.058-0.458,0.134-0.91,0.233-1.354L915.86,954.812z"/>
	<path fill="#FFFFFF" d="M924.914,977.679l7.043-7.504c-0.335-0.271-0.656-0.558-0.966-0.856L924.914,977.679z"/>
	<path fill="#FFFFFF" d="M927.506,979.565l6.023-8.293c-0.367-0.225-0.722-0.463-1.067-0.718L927.506,979.565z"/>
	<polygon fill="#474645" points="932.408,948.655 932.396,948.667 932.447,948.708 	"/>
	<path fill="#474645" d="M951.133,949.804c-0.008-0.009-0.016-0.017-0.023-0.024l-0.092,0.098L951.133,949.804z"/>
	<polygon fill="#474645" points="949.971,948.667 949.959,948.655 949.92,948.708 	"/>
	<polygon fill="#474645" points="933.675,947.675 933.672,947.677 933.682,947.687 	"/>
	<polygon fill="#474645" points="948.694,947.676 948.691,947.675 948.685,947.687 	"/>
</g>
<circle fill="none" stroke="#FFFFFF" stroke-miterlimit="10" cx="941.029" cy="957.16" r="48.499"/>
<circle fill="#FFFFFF" cx="893.029" cy="957.828" r="6.167"/>
<circle fill="none" stroke="#FFFFFF" stroke-miterlimit="10" cx="940.695" cy="956.83" r="71.167"/>
<circle fill="#FFFFFF" cx="1010.029" cy="940.828" r="7.833"/>
<circle fill="none" stroke="#FFFFFF" stroke-miterlimit="10" cx="941.195" cy="956.994" r="98.333"/>
<circle fill="#FFFFFF" cx="986.363" cy="869.162" r="7.833"/>
<circle fill="#FFFFFF" cx="964.696" cy="871.994" r="4.166"/>
<circle fill="none" stroke="#FFFFFF" stroke-miterlimit="10" cx="986.076" cy="869.611" r="22.451"/>
<circle fill="none" stroke="#FFFFFF" stroke-miterlimit="10" cx="941.946" cy="957.078" r="131.75"/>
<circle fill="#FFFFFF" cx="853.771" cy="859.419" r="7.709"/>
<circle fill="none" stroke="#FFFFFF" stroke-miterlimit="10" cx="939.862" cy="955.997" r="162"/>
<circle fill="#FFFFFF" cx="887.258" cy="803.39" r="3.688"/>
<circle fill="none" stroke="#FFFFFF" stroke-miterlimit="10" cx="941.426" cy="957.313" r="172.682"/>
<circle fill="#FFFFFF" cx="917.508" cy="786.39" r="3.563"/>
<circle fill="none" stroke="#FFFFFF" stroke-miterlimit="10" cx="940.862" cy="966.33" r="186.334"/>
<circle fill="#FFFFFF" cx="963.695" cy="780.828" r="4.333"/>
<circle fill="none" stroke="#FFFFFF" stroke-miterlimit="10" cx="942.179" cy="958.848" r="197.817"/>
<circle fill="#FFFFFF" cx="744.029" cy="956.328" r="3.667"/>
<circle fill="none" stroke="#FFFFFF" stroke-miterlimit="10" cx="939.083" cy="950.601" r="187.728"/>
<circle fill="#FFFFFF" cx="1005.542" cy="775.951" r="3.456"/>
<circle fill="none" stroke="#FFFFFF" stroke-miterlimit="10" cx="940.228" cy="957.048" r="229.198"/>
<circle fill="#FFFFFF" cx="1166.362" cy="912.495" r="8.5"/>
<circle fill="#FFFFFF" cx="1157.92" cy="896.285" r="3.611"/>
<circle fill="#FFFFFF" cx="1148.612" cy="908.912" r="3.916"/>
<circle fill="#FFFFFF" cx="1162.861" cy="930.328" r="3.667"/>
<circle fill="#FFFFFF" cx="1187.863" cy="904.663" r="3.833"/>
<path fill="none" stroke="#FFFFFF" stroke-miterlimit="10" d="M979.506,958.556c1.102,46.587-213.51,89.457-479.353,95.752
	s-482.245-26.366-483.349-72.953c-1.103-46.591,213.51-89.461,479.353-95.756S978.403,911.965,979.506,958.556z"/>
<ellipse transform="matrix(0.9416 0.3367 -0.3367 0.9416 471.7785 -425.0715)" fill="none" stroke="#FFFFFF" stroke-miterlimit="10" cx="1461.625" cy="1147.884" rx="637.001" ry="92.195"/>
<ellipse transform="matrix(-0.5827 0.8127 -0.8127 -0.5827 2390.2151 -167.2648)" fill="none" stroke="#FFFFFF" stroke-miterlimit="10" cx="1238.053" cy="530.058" rx="625.512" ry="83.912"/>
</svg>
