<svg width="2391" height="1789" viewBox="0 0 2391 1789" fill="none" xmlns="http://www.w3.org/2000/svg">
<path fill-rule="evenodd" clip-rule="evenodd" d="M174.846 1781.35C170.254 1776.06 169.685 1767.33 173.076 1755.33C176.458 1743.36 183.74 1728.3 194.596 1710.54C216.306 1675.02 252.244 1628.79 299.619 1575.03C394.363 1467.52 534.794 1329.96 698.454 1187.84C743.34 1148.86 787.641 1111.56 830.772 1076.33C865.077 1135.41 911.644 1187.28 967.946 1227.86C926.098 1266.54 881.914 1306.14 835.893 1346.11C672.233 1488.23 516.347 1607.99 396.617 1686.73C336.749 1726.1 285.938 1755.2 247.724 1771.72C228.614 1779.98 212.682 1785.08 200.358 1786.75C188.005 1788.42 179.437 1786.64 174.846 1781.35ZM968.775 1228.46C926.874 1267.18 882.631 1306.84 836.548 1346.86C672.866 1489 516.943 1608.79 397.166 1687.56C337.28 1726.95 286.413 1756.09 248.121 1772.64C228.978 1780.91 212.949 1786.05 200.493 1787.74C188.066 1789.42 179.033 1787.7 174.091 1782C169.149 1776.31 168.703 1767.13 172.113 1755.06C175.532 1742.96 182.868 1727.81 193.743 1710.02C215.497 1674.42 251.48 1628.14 298.869 1574.37C393.651 1466.82 534.116 1329.23 697.798 1187.08C742.734 1148.06 787.085 1110.72 830.264 1075.46C769.872 970.962 747.789 844.062 777.942 717.384C782.615 697.749 788.412 678.674 795.247 660.212C735.699 624.82 673.675 586.247 610.43 545.074C425.418 424.628 264.979 304.725 155.144 208.232C100.23 159.988 57.9486 117.581 31.5718 83.8747C18.3855 67.0241 9.15419 52.3233 4.31345 40.1369C-0.519316 27.9698 -1.02383 18.1805 3.4702 11.2774C7.96423 4.37434 17.1202 0.874314 30.2024 0.370211C43.3052 -0.1346 60.4842 2.35819 81.2296 7.59777C122.727 18.0786 178.616 39.5826 244.955 70.2772C377.641 131.67 552.212 229.865 737.224 350.312C801.099 391.895 862.046 433.415 918.991 473.928C1034.84 365.361 1201.23 315.163 1367.25 354.679C1590.37 407.788 1741.1 605.879 1743.34 825.319C1768.64 830.112 1794.38 835.29 1820.45 840.847C1983.66 875.634 2128.96 918.723 2231.95 960.272C2283.44 981.045 2324.37 1001.44 2351.68 1020.24C2365.33 1029.63 2375.6 1038.64 2382.08 1047.12C2388.56 1055.6 2391.3 1063.61 2389.73 1070.96L2389.73 1070.96C2388.17 1078.32 2382.4 1084.51 2373.03 1089.61C2363.65 1094.71 2350.6 1098.75 2334.3 1101.77C2301.7 1107.79 2256.01 1109.73 2200.53 1107.7C2089.55 1103.64 1939.31 1083.74 1776.1 1048.95C1750.28 1043.45 1724.91 1037.74 1700.08 1031.86C1686.89 1061.19 1671 1088.77 1652.78 1114.37C1655.98 1116.92 1657.6 1121.16 1656.59 1125.4C1655.2 1131.24 1649.33 1134.85 1643.49 1133.46C1642.12 1133.14 1640.87 1132.56 1639.78 1131.8C1525.59 1277.93 1332.86 1352.44 1140.65 1306.69C1076.84 1291.5 1018.96 1264.46 968.775 1228.46ZM831.557 1075.69C865.833 1134.76 912.39 1186.63 968.696 1227.17C986.205 1210.98 1003.3 1194.95 1019.96 1179.13C963.539 1141.3 917.686 1090.6 885.574 1032.18C867.807 1046.29 849.787 1060.81 831.557 1075.69ZM885.086 1031.29C867.313 1045.41 849.286 1059.93 831.049 1074.82C770.841 970.561 748.837 843.978 778.915 717.616C783.564 698.081 789.328 679.103 796.121 660.731C816.249 672.689 836.093 684.282 855.605 695.488C851.577 707.492 848.055 719.782 845.066 732.338C819.992 837.681 836.945 943.201 885.086 1031.29ZM886.368 1031.54C918.443 1089.96 964.283 1140.64 1020.7 1178.43C1037.62 1162.35 1054.07 1146.48 1070.02 1130.88C1013.61 1096.65 968.641 1047.54 939.214 990.167C921.888 1003.53 904.257 1017.34 886.368 1031.54ZM938.751 989.261C921.417 1002.63 903.778 1016.44 885.881 1030.65C837.918 942.81 821.039 837.601 846.039 732.57C849.005 720.109 852.498 707.912 856.489 695.996C876.37 707.408 895.904 718.418 915.04 729.002C913.209 735.185 911.535 741.452 910.024 747.8C889.865 832.492 902.113 917.321 938.751 989.261ZM940.02 989.546C969.4 1046.9 1014.35 1095.99 1070.76 1130.15C1086.43 1114.81 1101.62 1099.72 1116.28 1084.92C1060.53 1054.4 1017.28 1006.56 991.921 950.143C974.968 962.805 957.652 975.95 940.02 989.546ZM991.503 949.207C974.536 961.878 957.204 975.033 939.557 988.64C903.089 916.94 890.91 832.418 910.996 748.032C912.486 741.773 914.135 735.594 915.936 729.498C936.242 740.722 956.099 751.465 975.445 761.7C975.128 762.954 974.82 764.212 974.52 765.474C970.953 780.459 968.627 795.45 967.477 810.337C962.017 809.463 956.724 812.936 955.423 818.402C954.059 824.134 957.599 829.886 963.33 831.25C964.438 831.513 965.547 831.594 966.625 831.511C966.492 872.727 975.266 912.742 991.503 949.207ZM992.742 949.53C1018.04 1005.92 1061.26 1053.73 1117.02 1084.18C1127.04 1074.05 1136.82 1064.07 1146.34 1054.23C1090.31 1027.72 1047.32 981.606 1023.92 926.502C1013.67 933.986 1003.28 941.664 992.742 949.53ZM1023.52 925.556C1013.27 933.043 1002.87 940.725 992.324 948.594C978.117 916.618 969.665 881.908 967.949 846.057C968.551 846.764 969.375 847.293 970.347 847.524C972.782 848.104 975.226 846.6 975.805 844.165C976.385 841.73 974.881 839.287 972.446 838.707C970.616 838.272 968.781 839.013 967.736 840.442C967.651 837.43 967.614 834.411 967.625 831.385C971.698 830.676 975.159 827.619 976.177 823.343C977.526 817.676 974.081 811.99 968.464 810.543C969.607 795.665 971.928 780.682 975.493 765.706C975.773 764.527 976.06 763.353 976.355 762.181C987.511 768.079 998.497 773.807 1009.3 779.36C998.827 830.187 1004.73 880.805 1023.52 925.556ZM1024.75 925.897C1048.08 980.974 1091.05 1027.06 1147.08 1053.47C1147.66 1052.86 1148.25 1052.26 1148.83 1051.66C1140.53 1047.52 1132.54 1042.92 1124.88 1037.9C1123.91 1038.55 1122.68 1038.82 1121.45 1038.52C1119.15 1037.97 1117.71 1035.68 1118.22 1033.37C1078.46 1005.31 1048.55 965.647 1032.22 920.457C1029.74 922.259 1027.25 924.072 1024.75 925.897ZM1031.87 919.477C1029.37 921.289 1026.86 923.114 1024.35 924.95C1005.74 880.513 999.887 830.282 1010.22 779.834C1014.97 782.273 1019.69 784.677 1024.36 787.048C1013.77 832.69 1017.2 878.349 1031.87 919.477ZM1033.06 919.846C1049.27 964.869 1079.01 1004.4 1118.57 1032.39C1119.44 1030.61 1121.45 1029.61 1123.46 1030.09C1125.79 1030.64 1127.23 1032.98 1126.68 1035.31C1126.5 1036.05 1126.15 1036.7 1125.67 1037.22C1133.3 1042.21 1141.28 1046.79 1149.56 1050.9C1154.43 1045.86 1159.22 1040.86 1163.95 1035.9C1107.96 1011.84 1064.88 967.36 1041.62 913.651C1038.78 915.7 1035.93 917.765 1033.06 919.846ZM1041.22 912.711C1038.39 914.746 1035.56 916.798 1032.71 918.865C1018.88 879.908 1015.16 836.883 1023.94 793.681C1019.07 835.25 1025.55 876.101 1041.22 912.711ZM1042.45 913.053C1065.64 966.732 1108.7 1011.17 1164.69 1035.13C1165.88 1033.88 1167.08 1032.62 1168.26 1031.37C1112.49 1007.68 1070.44 962.181 1049.98 907.645C1047.48 909.435 1044.97 911.237 1042.45 913.053ZM1049.62 906.674C1047.11 908.474 1044.58 910.286 1042.05 912.111C1025.75 873.933 1019.49 831.133 1025.73 787.738C1030.31 790.06 1034.87 792.348 1039.38 794.603C1032.65 833.395 1036.74 871.853 1049.62 906.674ZM1050.82 907.042C1071.2 961.55 1113.23 1007.02 1169 1030.6C1171.74 1027.71 1174.46 1024.84 1177.15 1021.98C1121.76 999.18 1080.5 953.579 1061.95 899.109C1058.27 901.725 1054.56 904.369 1050.82 907.042ZM1061.62 898.12C1057.92 900.741 1054.2 903.391 1050.46 906.07C1037.75 871.567 1033.71 833.486 1040.32 795.069C1044.8 797.307 1049.25 799.511 1053.66 801.681C1048.36 834.944 1051.49 867.88 1061.62 898.12ZM1062.81 898.505C1081.26 952.948 1122.5 998.522 1177.89 1021.2C1187.61 1010.87 1197.02 1000.73 1206.09 990.806C1149.89 974.384 1108.47 930.347 1093.24 877.213C1083.29 884.079 1073.14 891.179 1062.81 898.505ZM1092.95 876.197C1082.99 883.071 1072.82 890.18 1062.47 897.516C1052.5 867.596 1049.41 835.033 1054.6 802.143C1065.79 807.639 1076.74 812.917 1087.44 817.971C1085.76 837.948 1087.76 857.619 1092.95 876.197ZM1094.11 876.614C1109.22 929.721 1150.62 973.736 1206.84 989.983C1216.53 979.375 1225.83 969.011 1234.73 958.913C1235.9 957.581 1237.07 956.254 1238.23 954.931C1233.81 954.372 1229.37 953.569 1224.94 952.514C1214.98 950.143 1205.59 946.633 1196.88 942.153C1190.32 951.445 1178.54 956.307 1166.8 953.513C1151.39 949.846 1141.88 934.383 1145.54 918.977C1146.86 913.441 1149.7 908.666 1153.52 904.989C1142.08 889.292 1134.35 870.973 1131.24 851.502C1119.21 859.477 1106.82 867.853 1094.11 876.614ZM1131.07 850.414C1119 858.409 1106.58 866.81 1093.83 875.596C1088.76 857.344 1086.8 838.036 1088.4 818.427C1093.22 820.7 1097.99 822.927 1102.7 825.108C1111.94 829.385 1120.98 833.483 1129.81 837.398C1130 841.781 1130.42 846.125 1131.07 850.414ZM1132.15 850.895C1135.19 870.336 1142.86 888.633 1154.25 904.303C1161.02 898.223 1170.56 895.456 1180.08 897.721C1192.72 900.731 1201.4 911.682 1202.08 924.028C1204.51 924.94 1205.94 927.54 1205.32 930.131C1204.8 932.332 1202.95 933.874 1200.83 934.116C1200.02 936.719 1198.87 939.133 1197.44 941.32C1206.05 945.737 1215.33 949.2 1225.17 951.541C1229.79 952.641 1234.42 953.465 1239.02 954.022C1248.91 942.739 1258.27 931.797 1267.09 921.227C1256.18 922.815 1244.78 922.404 1233.39 919.694C1199.35 911.591 1174.49 885.102 1166.83 853.258C1159.26 850.138 1151.49 846.855 1143.53 843.412C1141.61 844.669 1139.67 845.937 1137.73 847.216C1135.88 848.432 1134.02 849.659 1132.15 850.895ZM1142.43 842.936C1140.69 844.075 1138.94 845.223 1137.18 846.38C1135.46 847.513 1133.73 848.655 1131.99 849.805C1131.41 845.862 1131.02 841.873 1130.83 837.851C1134.74 839.582 1138.61 841.277 1142.43 842.936ZM1144.54 842.757C1152.05 846.002 1159.39 849.105 1166.55 852.061C1165.77 848.61 1165.19 845.099 1164.83 841.543C1164.1 841.538 1163.36 841.45 1162.62 841.274C1159.42 840.515 1156.97 838.279 1155.81 835.464C1152.09 837.852 1148.33 840.283 1144.54 842.757ZM1155.46 834.495C1151.5 837.042 1147.49 839.637 1143.44 842.281C1139.27 840.476 1135.05 838.628 1130.78 836.736C1130.37 825.82 1131.41 814.666 1134.06 803.519C1144.77 758.537 1178.94 725.27 1220.5 713.598C1231.37 723.555 1241.61 733.211 1251.19 742.54C1211.72 743.834 1176.4 771.256 1166.82 811.527C1166 814.982 1165.39 818.437 1164.98 821.88C1160.49 821.836 1156.41 824.887 1155.33 829.435C1154.92 831.168 1154.99 832.902 1155.46 834.495ZM1172.15 825.083C1174.27 827.406 1175.24 830.7 1174.46 833.988C1173.46 838.187 1169.9 841.11 1165.83 841.499C1166.22 845.232 1166.84 848.914 1167.69 852.529C1180.08 857.631 1191.95 862.294 1203.25 866.5C1193.81 852.714 1190.01 835.147 1194.18 817.614C1194.79 815.042 1195.56 812.547 1196.47 810.136C1188.58 814.878 1180.48 819.863 1172.15 825.083ZM1197.06 808.611C1188.76 813.593 1180.21 818.846 1171.42 824.361C1170.25 823.316 1168.81 822.538 1167.17 822.148C1166.77 822.054 1166.37 821.985 1165.98 821.94C1166.38 818.555 1166.98 815.156 1167.79 811.759C1177.35 771.608 1212.77 744.373 1252.19 743.513C1260.25 751.374 1267.84 759.001 1274.95 766.374C1271.55 767.958 1268.06 769.627 1264.49 771.383C1235.86 766.327 1207.84 782.151 1197.06 808.611ZM1197.87 809.296C1196.77 812.035 1195.86 814.889 1195.15 817.846C1190.93 835.597 1195.02 853.382 1204.9 867.113C1227.99 875.66 1248.69 882.277 1266.67 886.818C1269.26 887.472 1271.79 888.082 1274.26 888.649C1274.66 888.506 1275.05 888.359 1275.45 888.208C1263.91 881.854 1253.68 875.624 1244.87 869.562C1231.22 860.166 1220.95 851.153 1214.47 842.674C1207.99 834.198 1205.25 826.187 1206.82 818.834C1208.39 811.481 1214.15 805.284 1223.52 800.186C1232.9 795.087 1245.95 791.046 1262.25 788.034C1270.89 786.437 1280.45 785.127 1290.87 784.102C1284.27 778.984 1276.5 775.159 1267.85 773.1C1266.78 772.845 1265.71 772.62 1264.64 772.425C1244.84 782.171 1222.46 794.539 1197.87 809.296ZM1198.51 807.741C1222.16 793.588 1243.74 781.651 1262.95 772.142C1235.72 767.97 1209.29 782.881 1198.51 807.741ZM1266.13 771.694C1266.78 771.827 1267.43 771.972 1268.09 772.127C1276 774.01 1283.18 777.346 1289.42 781.784C1285.07 777.022 1280.49 772.138 1275.68 767.136C1272.57 768.583 1269.38 770.102 1266.13 771.694ZM1276.64 766.692C1282.32 772.601 1287.68 778.349 1292.72 783.924C1303.37 782.921 1314.89 782.21 1327.22 781.788C1320.27 771.729 1311.23 763.079 1300.56 756.55C1296.12 758.235 1291.47 760.128 1286.62 762.225C1283.39 763.624 1280.06 765.113 1276.64 766.692ZM1301.74 756.104C1312.43 762.773 1321.47 771.559 1328.41 781.748C1338.56 781.418 1349.25 781.281 1360.45 781.338C1360.75 780.412 1361.02 779.504 1361.27 778.612C1361.67 777.217 1362.01 775.865 1362.29 774.558C1356.9 764.358 1350.08 754.93 1342.04 746.588C1339.57 746.6 1336.88 746.803 1333.99 747.195C1325.07 748.404 1314.27 751.408 1301.74 756.104ZM1341.08 745.603C1338.82 745.656 1336.41 745.858 1333.85 746.204C1324.67 747.45 1313.54 750.571 1300.66 755.441C1292.89 750.751 1284.28 747.166 1274.98 744.953C1267.48 743.166 1259.97 742.379 1252.59 742.505C1242.93 733.089 1232.6 723.339 1221.64 713.285C1240.78 708.11 1261.44 707.501 1282.09 712.415C1305.34 717.949 1325.46 729.751 1341.08 745.603ZM1343.44 746.602C1350.97 754.543 1357.42 763.438 1362.61 773.028C1364.37 763.87 1363.35 757.024 1359.5 752.595C1356.19 748.783 1350.81 746.79 1343.44 746.602ZM1363.35 774.413C1365.46 764.532 1364.57 756.905 1360.26 751.939C1356.54 747.66 1350.51 745.621 1342.47 745.589C1326.62 729.261 1306.09 717.101 1282.32 711.442C1261.29 706.436 1240.23 707.115 1220.77 712.486C1211.77 704.24 1202.34 695.791 1192.51 687.154C1190.23 685.146 1187.92 683.129 1185.59 681.102C1217.53 666.831 1254.24 662.571 1290.9 671.297C1349.59 685.265 1393.41 729.004 1410.16 782.693C1405.38 782.468 1400.67 782.271 1396.03 782.101C1385.93 781.732 1376.16 781.495 1366.74 781.389C1365.68 779.028 1364.55 776.701 1363.35 774.413ZM1363.01 775.925C1362.78 776.891 1362.52 777.878 1362.23 778.884C1362.01 779.69 1361.76 780.51 1361.5 781.343C1362.87 781.352 1364.25 781.363 1365.64 781.377C1364.8 779.538 1363.93 777.72 1363.01 775.925ZM1360.13 782.336C1349.28 782.285 1338.92 782.415 1329.06 782.728C1336.08 793.331 1340.86 805.403 1342.9 818.157C1351 804.4 1356.8 792.394 1360.13 782.336ZM1343.14 819.722C1351.66 805.353 1357.75 792.816 1361.18 782.341C1362.8 782.351 1364.44 782.364 1366.09 782.382C1376.56 806.085 1379.65 833.281 1373.19 860.437C1367.76 883.261 1356.28 903.069 1340.87 918.57C1329.41 913.645 1318.58 908.754 1308.42 903.914C1312.01 901.197 1315.41 898.206 1318.57 894.964C1331.06 894.308 1339.82 890.813 1344.18 884.108C1348.68 877.205 1348.17 867.416 1343.34 855.248C1342.89 854.11 1342.4 852.95 1341.87 851.768C1344.28 840.937 1344.61 830.115 1343.14 819.722ZM1342.1 819.515C1340.16 806.253 1335.24 793.705 1327.89 782.766C1315.62 783.175 1304.15 783.869 1293.55 784.85C1293.75 785.064 1293.94 785.278 1294.13 785.491C1298.38 789.191 1302.09 793.448 1305.15 798.117C1309.05 802.721 1312.7 807.187 1316.08 811.511C1322.55 819.78 1328.07 827.532 1332.59 834.723C1335.12 830.839 1337.51 827.064 1339.75 823.404C1340.55 822.093 1341.33 820.797 1342.1 819.515ZM1333.17 835.659C1335.81 831.629 1338.29 827.716 1340.6 823.925C1341.18 822.977 1341.75 822.036 1342.31 821.102C1343.52 830.58 1343.21 840.402 1341.17 850.245C1339.04 845.687 1336.37 840.82 1333.17 835.659ZM1331.99 835.645C1327.45 828.386 1321.87 820.532 1315.3 812.127C1313.06 809.27 1310.71 806.35 1308.25 803.369C1313.63 813.64 1316.13 825.464 1314.98 837.569C1318.83 838.768 1321.15 842.765 1320.2 846.748C1319.27 850.662 1315.52 853.167 1311.61 852.624C1305.68 869.15 1293.14 881.833 1277.78 888.345C1278.87 888.94 1279.97 889.536 1281.08 890.132C1284.48 890.828 1287.75 891.433 1290.9 891.946C1307.17 871.322 1320.95 852.462 1331.99 835.645ZM1292.03 892.127C1308.04 871.815 1321.64 853.21 1332.57 836.582C1335.92 842.026 1338.68 847.129 1340.82 851.874C1340.75 852.212 1340.67 852.55 1340.59 852.889C1336.77 868.938 1328.81 882.923 1318.12 893.985C1318.02 893.99 1317.92 893.995 1317.82 893.999C1317.68 894.005 1317.55 894.011 1317.41 894.016C1310.2 894.294 1301.71 893.653 1292.03 892.127ZM1290.19 892.843C1288.22 892.517 1286.2 892.156 1284.14 891.76C1285.75 892.607 1287.38 893.456 1289.03 894.307C1289.41 893.818 1289.8 893.33 1290.19 892.843ZM1289.93 894.774C1290.4 894.19 1290.86 893.608 1291.32 893.027C1301.12 894.598 1309.74 895.28 1317.1 895.028C1314.07 898.064 1310.83 900.871 1307.4 903.428C1301.33 900.524 1295.51 897.638 1289.93 894.774ZM1288.39 895.105C1285.79 893.759 1283.23 892.418 1280.74 891.082C1278.65 890.652 1276.51 890.187 1274.32 889.689C1263.56 893.504 1251.61 894.361 1239.67 891.52C1224.85 887.993 1212.58 879.367 1204.27 867.946C1192.75 863.678 1180.64 858.933 1167.98 853.73C1175.74 884.904 1200.21 910.768 1233.62 918.721C1245.27 921.493 1256.93 921.833 1268.06 920.069C1275.2 911.495 1281.98 903.169 1288.39 895.105ZM1269.57 919.816C1276.49 911.497 1283.07 903.411 1289.3 895.572C1294.79 898.395 1300.52 901.239 1306.49 904.101C1295.62 912.015 1283 917.448 1269.57 919.816ZM1268.59 920.997C1259.68 931.682 1250.22 942.747 1240.23 954.162C1277.89 958.338 1314.36 944.772 1340.11 919.331C1328.59 914.378 1317.71 909.459 1307.52 904.591C1296.12 912.996 1282.78 918.687 1268.59 920.997ZM1239.43 955.077C1238.12 956.57 1236.8 958.069 1235.48 959.574C1226.68 969.56 1217.48 979.806 1207.91 990.29C1210.11 990.908 1212.32 991.484 1214.56 992.017C1252.53 1001.05 1290.55 996.165 1323.26 980.654C1322.35 978.732 1322.06 976.498 1322.59 974.267C1323.83 969.069 1329.04 965.858 1334.24 967.095C1336.82 967.708 1338.9 969.297 1340.2 971.375C1355.4 961.861 1369.06 949.88 1380.53 935.835C1375.11 933.729 1369.8 931.627 1364.6 929.528C1356.5 926.26 1348.66 923.001 1341.1 919.756C1314.97 945.745 1277.78 959.549 1239.43 955.077ZM1207.16 991.115C1198.06 1001.07 1188.63 1011.24 1178.88 1021.6C1188.2 1025.36 1197.93 1028.47 1208 1030.87C1228.94 1035.86 1249.89 1037.4 1270.26 1035.86C1270.17 1035.29 1270.2 1034.7 1270.34 1034.11C1270.93 1031.62 1273.42 1030.08 1275.91 1030.68C1277.96 1031.16 1279.37 1032.95 1279.46 1034.96C1336.19 1028.05 1387.62 997.274 1420.55 950.76C1407.01 945.909 1393.98 941.055 1381.51 936.215C1369.92 950.468 1356.09 962.617 1340.69 972.251C1341.65 974.197 1341.95 976.474 1341.41 978.747C1340.18 983.945 1334.96 987.155 1329.76 985.918C1327.15 985.295 1325.03 983.664 1323.74 981.535C1290.81 997.158 1252.54 1002.09 1214.33 992.99C1211.92 992.415 1209.52 991.789 1207.16 991.115ZM1178.14 1022.38C1175.45 1025.24 1172.73 1028.12 1169.99 1031.01C1180.64 1035.45 1191.78 1039.09 1203.37 1041.85C1211.78 1043.85 1220.19 1045.34 1228.57 1046.32C1228.59 1046.25 1228.6 1046.18 1228.62 1046.11C1229.19 1043.7 1231.6 1042.22 1234 1042.79C1236.07 1043.28 1237.45 1045.13 1237.44 1047.17C1314.76 1053 1388.33 1016.62 1431.29 954.567C1428.01 953.415 1424.75 952.263 1421.53 951.11C1388.4 998.031 1336.57 1029.06 1279.4 1035.97C1279.38 1036.06 1279.36 1036.16 1279.34 1036.25C1278.75 1038.74 1276.25 1040.27 1273.77 1039.68C1272.23 1039.31 1271.05 1038.22 1270.52 1036.85C1249.99 1038.41 1228.87 1036.87 1207.77 1031.85C1197.51 1029.4 1187.62 1026.23 1178.14 1022.38ZM1169.25 1031.79C1168.06 1033.04 1166.87 1034.29 1165.67 1035.55C1167.25 1036.22 1168.84 1036.87 1170.43 1037.5C1171.66 1035.66 1173.94 1034.68 1176.22 1035.22C1178.95 1035.87 1180.7 1038.46 1180.36 1041.18C1187.63 1043.69 1195.08 1045.86 1202.71 1047.68C1296.58 1070.02 1390.7 1032.22 1444.6 959.189C1440.45 957.764 1436.33 956.337 1432.27 954.911C1389.13 1017.4 1315.11 1054.04 1237.32 1048.16L1237.32 1048.18C1236.75 1050.58 1234.33 1052.06 1231.93 1051.49C1229.94 1051.02 1228.57 1049.27 1228.5 1047.31C1220.07 1046.33 1211.6 1044.84 1203.14 1042.83C1191.37 1040.02 1180.05 1036.31 1169.25 1031.79ZM1164.93 1036.32C1160.19 1041.3 1155.38 1046.31 1150.5 1051.37C1165.95 1058.95 1182.47 1064.95 1199.91 1069.1C1301.59 1093.3 1403.56 1047.46 1455.15 962.773C1451.94 961.692 1448.75 960.611 1445.59 959.529C1391.5 1033.04 1296.86 1071.11 1202.48 1048.65C1194.86 1046.83 1187.41 1044.66 1180.15 1042.16C1179.29 1044.85 1176.49 1046.46 1173.71 1045.8C1170.78 1045.11 1168.98 1042.17 1169.67 1039.25C1169.7 1039.15 1169.72 1039.06 1169.75 1038.96C1169.76 1038.92 1169.78 1038.89 1169.79 1038.85C1169.8 1038.82 1169.8 1038.8 1169.81 1038.77C1169.86 1038.64 1169.9 1038.51 1169.96 1038.39C1168.27 1037.72 1166.6 1037.03 1164.93 1036.32ZM1149.77 1052.12C1149.19 1052.72 1148.62 1053.32 1148.04 1053.92C1163.01 1060.9 1178.9 1066.47 1195.59 1070.45C1300.23 1095.35 1405.16 1049.87 1460.66 964.62C1459.14 964.113 1457.63 963.606 1456.12 963.099C1404.35 1048.27 1301.87 1094.39 1199.68 1070.07C1182.05 1065.87 1165.36 1059.8 1149.77 1052.12ZM1147.3 1054.68C1137.76 1064.53 1127.97 1074.54 1117.93 1084.68C1139.62 1096.42 1163.2 1105.54 1188.33 1111.52C1313.96 1141.42 1439.96 1083.78 1502.25 978.038C1488.34 973.696 1474.79 969.328 1461.64 964.947C1405.96 1050.69 1300.51 1096.45 1195.36 1071.42C1178.49 1067.4 1162.42 1061.75 1147.3 1054.68ZM1117.2 1085.42C1102.52 1100.23 1087.33 1115.33 1071.65 1130.69C1101.89 1148.88 1135.4 1162.79 1171.57 1171.39C1330.02 1209.11 1488.96 1133.06 1562.58 996.055C1542.16 990.219 1522.35 984.306 1503.23 978.344C1440.77 1084.59 1314.25 1142.52 1188.1 1112.5C1162.78 1106.47 1139.04 1097.27 1117.2 1085.42ZM1070.91 1131.41C1054.94 1147.03 1038.48 1162.91 1021.55 1179C1061.75 1205.78 1107.29 1226.02 1157.03 1237.86C1351.45 1284.13 1546.48 1186.91 1630.85 1014.67C1607.79 1008.67 1585.33 1002.55 1563.56 996.336C1489.78 1133.85 1330.32 1210.21 1171.33 1172.37C1134.98 1163.71 1101.29 1149.72 1070.91 1131.41ZM1020.81 1179.7C1061.15 1206.61 1106.87 1226.94 1156.8 1238.83C1351.75 1285.23 1547.31 1187.7 1631.84 1014.93C1653.74 1020.62 1676.18 1026.19 1699.09 1031.63C1685.95 1060.83 1670.12 1088.29 1651.97 1113.78C1650.95 1113.11 1649.79 1112.6 1648.53 1112.3C1642.68 1110.91 1636.82 1114.52 1635.43 1120.36C1634.45 1124.49 1635.96 1128.63 1638.99 1131.19C1525.03 1277.02 1332.7 1351.38 1140.88 1305.72C1077.28 1290.58 1019.57 1263.64 969.525 1227.76C987.042 1211.57 1004.15 1195.53 1020.81 1179.7ZM1299.47 755.895C1295.24 757.515 1290.82 759.321 1286.23 761.307C1282.88 762.752 1279.44 764.293 1275.91 765.929C1268.94 758.687 1261.5 751.204 1253.6 743.494C1260.58 743.453 1267.67 744.239 1274.75 745.926C1283.68 748.051 1291.97 751.454 1299.47 755.895ZM856.814 695.029C876.683 706.436 896.207 717.441 915.332 728.021C936.153 658.47 976.92 599.695 1029.79 556.527C1012.25 543.209 994.151 529.695 975.535 516.024C922.419 563.122 880.776 624.065 856.814 695.029ZM916.228 728.516C936.52 739.735 956.364 750.473 975.698 760.703C992.934 693.313 1032.75 637.463 1085.1 599.347C1067.62 585.54 1049.44 571.458 1030.6 557.149C977.746 600.252 936.995 658.99 916.228 728.516ZM976.607 761.183C987.749 767.075 998.722 772.797 1009.51 778.344C1009.97 776.172 1010.46 774 1010.97 771.828C1026.07 708.387 1064.23 656.458 1114.45 622.81C1105.16 615.295 1095.65 607.686 1085.91 599.991C1033.58 638.023 993.776 693.826 976.607 761.183ZM1010.43 778.818C1015.19 781.261 1019.91 783.671 1024.6 786.045L1024.67 785.728C1024.99 784.413 1025.31 783.103 1025.64 781.798C1026.51 776.674 1027.55 771.543 1028.77 766.414C1042.57 708.451 1076.8 660.689 1122 628.944C1119.77 627.125 1117.52 625.3 1115.26 623.469C1065.12 656.976 1027.01 708.765 1011.95 772.06C1011.41 774.313 1010.91 776.565 1010.43 778.818ZM1025.88 786.694C1030.48 789.021 1035.04 791.315 1039.56 793.576C1040.3 789.461 1041.15 785.343 1042.13 781.225C1056.23 721.976 1093.37 674.226 1141.78 645.207C1139.13 643.008 1136.46 640.8 1133.77 638.583C1082.32 669.328 1042.6 719.599 1026.62 782.006C1026.36 783.569 1026.11 785.132 1025.88 786.694ZM1040.49 794.041C1044.98 796.277 1049.42 798.48 1053.83 800.649C1054.61 795.9 1055.57 791.145 1056.7 786.391C1070.38 728.933 1107.14 683.002 1154.81 656.087C1150.79 652.709 1146.72 649.308 1142.6 645.884C1094.26 674.752 1057.17 722.357 1043.1 781.457C1042.11 785.652 1041.24 789.849 1040.49 794.041ZM1054.77 801.11C1065.93 806.595 1076.85 811.864 1087.53 816.909C1088.24 809.054 1089.52 801.153 1091.4 793.256C1103.7 741.583 1138.94 701.366 1183.76 680.833C1174.7 672.959 1165.32 664.935 1155.62 656.775C1108.03 683.532 1071.31 729.316 1057.67 786.622C1056.52 791.453 1055.56 796.285 1054.77 801.11ZM1103.12 824.201C1112.2 828.403 1121.09 832.433 1129.77 836.285C1129.4 825.436 1130.46 814.358 1133.09 803.287C1143.83 758.155 1178 724.721 1219.64 712.805C1210.78 704.697 1201.51 696.392 1191.85 687.905C1189.45 685.799 1187.03 683.682 1184.59 681.554C1139.84 701.905 1104.64 741.967 1092.37 793.487C1090.48 801.46 1089.19 809.435 1088.49 817.364C1093.42 819.691 1098.3 821.97 1103.12 824.201ZM1239.9 890.547C1225.86 887.205 1214.14 879.208 1205.99 868.582C1228.54 876.883 1248.78 883.331 1266.43 887.788C1268.48 888.306 1270.49 888.797 1272.47 889.261C1262.28 892.571 1251.08 893.209 1239.9 890.547ZM1277.63 889.401C1277.1 889.286 1276.57 889.17 1276.04 889.051C1276.22 888.98 1276.41 888.908 1276.59 888.835L1277.14 889.135C1277.3 889.224 1277.46 889.312 1277.63 889.401ZM1342.41 855.618C1342.12 854.887 1341.82 854.146 1341.49 853.397C1337.69 869.137 1329.96 882.904 1319.59 893.902C1331.38 893.112 1339.36 889.678 1343.35 883.562C1347.57 877.078 1347.21 867.694 1342.41 855.618ZM1291.13 670.324C1254.09 661.507 1216.99 665.869 1184.76 680.378C1175.68 672.482 1166.28 664.437 1156.56 656.253C1199.28 632.532 1250.64 624.086 1301.92 636.292C1378.41 654.498 1434.38 713.813 1451.96 785.243C1437.91 784.204 1424.32 783.37 1411.22 782.744C1394.45 728.57 1350.3 684.407 1291.13 670.324ZM1302.16 635.319C1250.49 623.021 1198.73 631.585 1155.74 655.564C1151.72 652.18 1147.64 648.773 1143.51 645.342C1190.02 617.877 1246.81 607.695 1303.5 621.189C1387.27 641.129 1447.95 707.318 1464.9 786.247C1460.9 785.922 1456.94 785.614 1453.01 785.321C1435.43 713.398 1379.14 653.642 1302.16 635.319ZM1303.73 620.217C1246.65 606.63 1189.47 616.934 1142.69 644.664C1140.05 642.465 1137.38 640.257 1134.68 638.04C1185.28 608.115 1247.08 597.01 1308.78 611.696C1398.69 633.097 1464.14 703.498 1483.54 787.854C1477.61 787.313 1471.74 786.806 1465.94 786.332C1449 706.908 1387.99 640.273 1303.73 620.217ZM1309.01 610.723C1246.93 595.944 1184.73 607.172 1133.86 637.364C1130.5 634.592 1127.09 631.806 1123.66 629.006C1176.27 592.507 1243.59 577.685 1310.78 593.678C1406.95 616.569 1474.91 695.937 1487.89 788.254C1486.79 788.152 1485.69 788.05 1484.59 787.95C1465.2 703.093 1399.42 632.242 1309.01 610.723ZM1029.75 766.645C1043.51 708.831 1077.68 661.209 1122.81 629.601C1126.22 632.384 1129.6 635.153 1132.95 637.908C1084.66 666.864 1046.7 712.966 1028.94 770.14C1029.2 768.975 1029.47 767.81 1029.75 766.645ZM1311.01 592.705C1243.43 576.62 1175.72 591.573 1122.86 628.349C1120.63 626.534 1118.39 624.714 1116.13 622.888C1171.3 586.356 1240.88 571.88 1310.33 588.41C1410.41 612.231 1481.72 693.657 1497.49 789.173C1495.86 789.014 1494.24 788.857 1492.63 788.702C1491.39 788.584 1490.15 788.466 1488.91 788.35C1475.96 695.537 1407.67 615.713 1311.01 592.705ZM1310.56 587.438C1240.72 570.814 1170.75 585.421 1115.32 622.229C1106.02 614.705 1096.5 607.086 1086.75 599.382C1152.09 552.255 1236.79 532.745 1321.31 552.864C1440.13 581.147 1523.97 679.497 1539.44 793.692C1525.49 792.059 1511.84 790.586 1498.52 789.274C1482.78 693.259 1411.14 611.377 1310.56 587.438ZM1321.54 551.891C1236.62 531.678 1151.54 551.326 1085.94 598.737C1068.45 584.918 1050.25 570.823 1031.4 556.5C1068.08 526.772 1110.54 504.547 1156.16 491.434C1156.91 492.172 1157.72 492.918 1158.59 493.661C1159.17 497.119 1161.76 500.064 1165.38 500.927C1166.75 501.253 1168.12 501.247 1169.4 500.963C1171.98 502.308 1174.44 503.311 1176.6 503.92C1178.43 504.436 1180.08 504.678 1181.41 504.586C1182.74 504.495 1183.86 504.067 1184.48 503.142C1185.1 502.218 1185.08 501.021 1184.66 499.757C1184.25 498.484 1183.4 497.051 1182.24 495.549C1180.7 493.57 1178.56 491.431 1175.99 489.33C1175.67 488.372 1175.19 487.475 1174.58 486.679C1184.28 484.453 1194.1 482.635 1204.02 481.238C1204.58 481.655 1205.24 481.968 1205.97 482.142C1208.08 482.643 1210.19 481.847 1211.46 480.27C1251.44 475.515 1292.92 477.597 1334.36 487.462C1486.63 523.706 1591.96 653.938 1603.51 802.024C1581.91 798.947 1560.87 796.209 1540.47 793.812C1525.03 679.111 1440.87 580.293 1321.54 551.891ZM1155.37 490.623C1109.73 503.816 1067.27 526.101 1030.58 555.877C1013.04 542.55 994.928 529.027 976.301 515.346C1075.12 428.152 1213.37 388.742 1351.33 421.578C1436.67 441.891 1509.65 486.94 1564.5 547.315C1562.63 548.611 1561.21 550.575 1560.64 552.964C1559.42 558.105 1562.59 563.265 1567.73 564.488C1571.21 565.316 1574.7 564.13 1576.97 561.684C1634.94 631.611 1669.79 719.687 1673.49 812.864C1649.97 808.937 1626.95 805.371 1604.52 802.169C1593.03 653.57 1487.37 522.854 1334.59 486.489C1293.31 476.662 1251.99 474.536 1212.15 479.182C1212.31 478.846 1212.43 478.487 1212.52 478.11C1213.22 475.188 1211.41 472.255 1208.49 471.56C1205.57 470.864 1202.64 472.669 1201.94 475.591C1201.53 477.337 1202 479.087 1203.08 480.361C1193.22 481.772 1183.46 483.598 1173.83 485.825C1172.69 484.682 1171.23 483.831 1169.55 483.43C1168.64 483.216 1167.74 483.145 1166.86 483.204C1164.01 481.657 1161.28 480.515 1158.91 479.847C1157.08 479.33 1155.44 479.089 1154.1 479.181C1152.77 479.272 1151.66 479.7 1151.03 480.625C1150.41 481.549 1150.43 482.745 1150.85 484.01C1151.27 485.283 1152.11 486.716 1153.28 488.218C1153.88 488.999 1154.58 489.805 1155.37 490.623ZM1351.56 420.605C1213.2 387.673 1074.54 427.238 975.476 514.74C957.399 501.47 938.834 488.051 919.823 474.52C1035.43 366.27 1201.41 316.234 1367.02 355.652C1589.62 408.636 1740.01 606.217 1742.34 825.129C1719.33 820.779 1696.69 816.745 1674.5 813.032C1670.83 719.493 1635.85 631.071 1577.62 560.903C1578.38 559.888 1578.95 558.706 1579.26 557.395C1580.48 552.254 1577.31 547.094 1572.17 545.87C1569.77 545.3 1567.37 545.686 1565.36 546.781C1510.37 486.192 1437.17 440.982 1351.56 420.605ZM610.976 544.236C674.155 585.366 736.114 623.901 795.601 659.259C822.386 587.368 864.932 524.8 918.248 474.626C861.362 434.159 800.483 392.687 736.679 351.15C551.694 230.721 377.166 132.551 244.535 71.1847C178.216 40.4997 122.393 19.0257 80.9845 8.56725C60.2771 3.3372 43.2049 0.869959 30.241 1.36959C17.2564 1.8698 8.52978 5.33851 4.3083 11.823C0.0865507 18.3076 0.446143 27.6914 5.24304 39.7678C10.0322 51.825 19.197 66.4385 32.3592 83.2584C58.6796 116.893 100.907 159.251 155.804 207.48C265.593 303.933 425.991 423.807 610.976 544.236ZM919.079 475.217C865.763 525.351 823.226 587.898 796.475 659.778C816.593 671.731 836.428 683.319 855.93 694.522C879.935 623.539 921.591 562.568 974.71 515.419C956.64 502.154 938.083 488.742 919.079 475.217ZM1304.35 798.716C1300.91 794.652 1297.27 790.481 1293.43 786.207C1292.96 785.797 1292.48 785.393 1291.99 784.998C1281.2 786.034 1271.33 787.373 1262.43 789.017C1246.18 792.02 1233.25 796.037 1224 801.065C1214.75 806.095 1209.28 812.096 1207.8 819.042C1206.32 825.989 1208.87 833.702 1215.26 842.066C1221.65 850.427 1231.83 859.37 1245.44 868.738C1254.4 874.907 1264.84 881.252 1276.65 887.73C1292.06 881.438 1304.68 868.874 1310.62 852.42C1306.62 851.324 1304.17 847.237 1305.14 843.164C1306.1 839.162 1310 836.632 1314 837.331C1315.29 823.408 1311.66 809.868 1304.35 798.716ZM1742.35 826.149C1719.35 821.798 1696.72 817.765 1674.53 814.053C1675.9 851.209 1672.32 889.164 1663.29 927.096C1656 957.746 1645.52 986.807 1632.29 1014.01C1654.18 1019.7 1676.61 1025.27 1699.51 1030.7C1711.82 1003.19 1721.75 974.146 1728.98 943.756C1738.36 904.347 1742.68 864.916 1742.35 826.149ZM1700.5 1030.93C1712.8 1003.42 1722.72 974.375 1729.95 943.987C1739.34 904.565 1743.66 865.122 1743.35 826.339C1768.58 831.12 1794.25 836.284 1820.25 841.825C1983.42 876.604 2128.66 919.678 2231.57 961.199C2283.04 981.962 2323.89 1002.33 2351.11 1021.06C2364.72 1030.43 2374.9 1039.37 2381.29 1047.73C2387.68 1056.09 2390.24 1063.81 2388.76 1070.75C2387.27 1077.7 2381.8 1083.7 2372.55 1088.73C2363.31 1093.76 2350.37 1097.78 2334.12 1100.78C2301.63 1106.79 2256.02 1108.73 2200.56 1106.7C2089.66 1102.65 1939.48 1082.75 1776.31 1047.98C1750.56 1042.49 1725.26 1036.79 1700.5 1030.93ZM1631.3 1013.75C1644.54 986.562 1655.02 957.51 1662.32 926.865C1671.34 888.953 1674.91 851.018 1673.53 813.884C1650.02 809.958 1627.01 806.392 1604.6 803.19C1607.22 838.488 1604.53 874.785 1595.9 911.056C1588.74 941.127 1577.93 969.372 1564.05 995.434C1585.8 1001.64 1608.25 1007.76 1631.3 1013.75ZM1563.06 995.153C1576.96 969.113 1587.77 940.883 1594.93 910.825C1603.56 874.581 1606.23 838.312 1603.59 803.045C1582.01 799.97 1560.98 797.232 1540.6 794.835C1545.03 828.629 1543.49 863.785 1535.12 898.912C1528.39 927.223 1517.68 953.554 1503.74 977.458C1522.86 983.414 1542.65 989.323 1563.06 995.153ZM1502.76 977.153C1516.71 953.279 1527.42 926.971 1534.15 898.68C1542.5 863.589 1544.03 828.468 1539.58 794.715C1525.63 793.081 1511.99 791.608 1498.68 790.295C1503.6 821.117 1502.77 853.376 1495.28 885.628C1497.71 886.248 1499.2 888.704 1498.62 891.152C1498.03 893.624 1495.55 895.151 1493.08 894.563L1493.04 894.554C1486.21 919.799 1475.69 943.123 1462.2 964.079C1475.34 968.455 1488.87 972.816 1502.76 977.153ZM1461.22 963.753C1474.73 942.803 1485.27 919.472 1492.1 894.21C1490.22 893.28 1489.16 891.147 1489.67 889.02C1490.18 886.855 1492.15 885.415 1494.29 885.486C1501.78 853.245 1502.61 820.996 1497.65 790.194C1496.23 790.054 1494.81 789.917 1493.4 789.781C1491.94 789.641 1490.49 789.503 1489.05 789.368C1491.2 805.275 1491.72 821.558 1490.48 837.997C1490.66 856.807 1488.57 875.941 1484.02 895.065C1478.23 919.372 1468.88 941.899 1456.65 962.223C1458.17 962.733 1459.69 963.243 1461.22 963.753ZM1455.68 961.896C1467.92 941.609 1477.27 919.113 1483.05 894.833C1486.63 879.761 1488.68 864.682 1489.29 849.762C1488.24 858.137 1486.72 866.54 1484.72 874.94C1477.3 906.105 1463.97 934.321 1446.21 958.684C1449.35 959.755 1452.5 960.826 1455.68 961.896ZM1445.22 958.344C1463 934.029 1476.33 905.847 1483.74 874.708C1486.67 862.435 1488.56 850.157 1489.48 837.965C1489.32 821.268 1487.37 804.828 1483.78 788.88C1477.83 788.337 1471.96 787.828 1466.16 787.353C1472.47 817.63 1472.38 849.74 1464.74 881.817C1458.4 908.437 1447.42 932.735 1432.85 954.057C1436.93 955.487 1441.06 956.916 1445.22 958.344ZM1431.87 953.714C1446.45 932.438 1457.44 908.175 1463.77 881.585C1471.39 849.554 1471.46 817.49 1465.12 787.268C1461.13 786.944 1457.18 786.635 1453.26 786.342C1460.45 816.432 1460.88 848.62 1453.23 880.774C1447.11 906.464 1436.38 929.849 1422.13 950.261C1425.35 951.412 1428.6 952.563 1431.87 953.714ZM1421.15 949.912C1435.41 929.548 1446.15 906.2 1452.25 880.542C1459.9 848.436 1459.44 816.295 1452.21 786.264C1438.18 785.224 1424.61 784.389 1411.53 783.76C1419.75 810.892 1421.1 840.493 1414.07 870.058C1408.19 894.755 1397.07 916.834 1382.17 935.399C1394.62 940.228 1407.63 945.071 1421.15 949.912ZM1381.19 935.019C1396.1 916.516 1407.22 894.483 1413.09 869.827C1420.12 840.316 1418.73 810.771 1410.47 783.709C1405.57 783.477 1400.75 783.274 1395.99 783.101C1386.07 782.738 1376.46 782.502 1367.18 782.394C1377.6 806.193 1380.64 833.451 1374.16 860.668C1368.72 883.541 1357.26 903.409 1341.86 918.994C1349.3 922.184 1357.01 925.387 1364.98 928.6C1370.27 930.736 1375.68 932.876 1381.19 935.019ZM1484.82 788.975C1487.54 801.122 1489.31 813.552 1490.07 826.161C1490.37 813.71 1489.67 801.381 1488.03 789.272C1486.96 789.172 1485.89 789.073 1484.82 788.975ZM1156.46 490.31C1155.55 489.385 1154.74 488.476 1154.07 487.605C1152.94 486.15 1152.17 484.82 1151.8 483.698C1151.43 482.568 1151.49 481.74 1151.86 481.183C1152.24 480.627 1152.98 480.26 1154.17 480.178C1155.35 480.098 1156.87 480.309 1158.64 480.809C1160.61 481.364 1162.85 482.263 1165.22 483.469C1162.24 484.239 1159.75 486.518 1158.84 489.639C1158.35 489.775 1157.86 489.912 1157.37 490.05C1157.06 490.137 1156.76 490.223 1156.46 490.31ZM1157.27 491.118C1157.65 491.485 1158.05 491.855 1158.47 492.226C1158.47 491.737 1158.5 491.243 1158.58 490.748C1158.43 490.791 1158.28 490.834 1158.12 490.878L1157.79 490.971C1157.62 491.02 1157.45 491.069 1157.27 491.118ZM1170.78 500.54C1173.41 499.495 1175.51 497.225 1176.21 494.261C1176.48 493.144 1176.52 492.027 1176.38 490.954C1178.44 492.735 1180.17 494.514 1181.45 496.162C1182.58 497.617 1183.35 498.947 1183.71 500.069C1184.08 501.198 1184.02 502.027 1183.65 502.584C1183.28 503.14 1182.53 503.507 1181.34 503.589C1180.17 503.669 1178.64 503.458 1176.87 502.958C1175.04 502.441 1172.97 501.625 1170.78 500.54ZM1551.35 562.847C1548.57 562.185 1545.78 563.903 1545.12 566.684C1544.46 569.466 1546.18 572.257 1548.96 572.919C1551.74 573.581 1554.53 571.863 1555.19 569.082C1555.85 566.301 1554.14 563.509 1551.35 562.847ZM1541.49 543.037C1542.05 540.702 1544.39 539.26 1546.73 539.815C1549.06 540.371 1550.5 542.715 1549.95 545.05C1549.39 547.384 1547.05 548.827 1544.71 548.271C1542.38 547.715 1540.94 545.372 1541.49 543.037ZM1554.15 516.75C1551.96 516.228 1549.76 517.582 1549.24 519.773C1548.72 521.965 1550.07 524.164 1552.26 524.685C1554.45 525.207 1556.65 523.853 1557.17 521.662C1557.7 519.471 1556.34 517.271 1554.15 516.75ZM1583.38 549.556C1583.92 547.28 1586.21 545.874 1588.48 546.416C1590.76 546.958 1592.16 549.242 1591.62 551.517C1591.08 553.793 1588.8 555.198 1586.52 554.657C1584.25 554.115 1582.84 551.831 1583.38 549.556ZM1596.68 570.249C1594.4 569.707 1592.12 571.113 1591.58 573.389C1591.04 575.664 1592.44 577.948 1594.72 578.49C1596.99 579.031 1599.28 577.626 1599.82 575.35C1600.36 573.074 1598.95 570.791 1596.68 570.249ZM1576.23 575.541C1576.71 573.518 1578.74 572.268 1580.76 572.75C1582.79 573.231 1584.04 575.261 1583.55 577.284C1583.07 579.307 1581.04 580.556 1579.02 580.075C1577 579.593 1575.75 577.563 1576.23 575.541ZM1159.24 504.131C1157.22 503.65 1155.19 504.899 1154.71 506.921C1154.23 508.943 1155.48 510.972 1157.5 511.454C1159.52 511.935 1161.55 510.686 1162.03 508.664C1162.51 506.642 1161.27 504.612 1159.24 504.131ZM1136.03 506.817C1136.53 504.696 1138.66 503.386 1140.78 503.891C1142.9 504.396 1144.21 506.524 1143.71 508.645C1143.2 510.765 1141.08 512.075 1138.95 511.57C1136.83 511.065 1135.52 508.937 1136.03 506.817ZM1189.58 505.828C1186.89 505.186 1184.18 506.852 1183.54 509.549C1182.9 512.246 1184.56 514.953 1187.26 515.595C1189.96 516.237 1192.66 514.571 1193.31 511.874C1193.95 509.176 1192.28 506.47 1189.58 505.828ZM1180.41 464.876C1177.49 464.18 1174.56 465.985 1173.86 468.908C1173.17 471.83 1174.97 474.763 1177.89 475.458C1180.82 476.154 1183.75 474.349 1184.44 471.426C1185.14 468.504 1183.33 465.571 1180.41 464.876ZM1156.82 462.812C1157.4 460.396 1159.82 458.904 1162.24 459.479C1164.66 460.054 1166.15 462.478 1165.57 464.894C1165 467.31 1162.57 468.802 1160.16 468.227C1157.74 467.652 1156.25 465.227 1156.82 462.812ZM1138.35 473.572C1136.1 473.037 1133.85 474.426 1133.31 476.674C1132.78 478.922 1134.17 481.178 1136.42 481.713C1138.66 482.248 1140.92 480.86 1141.45 478.612C1141.99 476.364 1140.6 474.108 1138.35 473.572ZM1237.86 826.035C1240 817.049 1249.02 811.498 1258.01 813.637C1266.99 815.776 1272.54 824.795 1270.4 833.781C1269.24 838.659 1266.06 842.524 1261.95 844.697L1261.95 844.701L1261.93 844.712L1261.93 844.707C1261.34 845.019 1260.73 845.295 1260.1 845.535L1260.1 845.539L1260.1 845.54L1260.1 845.536C1257.06 846.698 1253.66 846.989 1250.26 846.18C1246.86 845.371 1243.95 843.578 1241.77 841.175L1241.77 841.177L1241.76 841.174L1241.77 841.172C1241.31 840.676 1240.89 840.153 1240.51 839.608L1240.5 839.612L1240.49 839.593L1240.49 839.592C1240.11 839.048 1239.76 838.482 1239.44 837.896L1239.43 837.904L1239.42 837.899C1239.42 837.889 1239.41 837.879 1239.4 837.868L1239.42 837.863C1237.53 834.372 1236.87 830.2 1237.86 826.035ZM1248.49 862.304L1251.85 848.179C1251.58 848.145 1251.3 848.104 1251.03 848.056C1250.71 848 1250.38 847.934 1250.06 847.861L1248.49 862.304ZM1247.58 847.104L1240.81 859.958L1245.92 846.378C1246.45 846.645 1247.01 846.887 1247.58 847.104ZM1252.49 862.737L1254.05 848.314C1253.45 848.308 1252.84 848.274 1252.24 848.211L1252.49 862.737ZM1245.57 846.194L1237.25 858.083L1244.01 845.273C1244.51 845.604 1245.03 845.911 1245.57 846.194ZM1244.58 861.372L1249.68 847.771C1249.09 847.623 1248.51 847.451 1247.94 847.249L1244.58 861.372ZM1256.25 848.188L1256.51 862.667L1254.44 848.306C1255.05 848.297 1255.65 848.257 1256.25 848.188ZM1274.79 855.057L1266.27 843.765C1265.82 844.155 1265.36 844.521 1264.88 844.864L1274.79 855.057ZM1267.89 842.199L1277.67 852.251L1266.65 843.451C1267.08 843.054 1267.49 842.635 1267.89 842.199ZM1280.18 849.106L1269.28 840.414C1268.95 840.895 1268.59 841.355 1268.21 841.799L1280.18 849.106ZM1260.55 847.179L1264.37 861.026L1258.83 847.721C1259.14 847.641 1259.44 847.553 1259.74 847.458C1260.01 847.372 1260.28 847.278 1260.55 847.179ZM1268.08 859.477L1262.58 846.271C1262.38 846.374 1262.18 846.472 1261.98 846.567C1261.85 846.627 1261.73 846.684 1261.6 846.741C1261.48 846.796 1261.35 846.85 1261.23 846.902L1261.13 846.943L1261.06 846.97C1261.02 846.985 1260.99 847 1260.95 847.015L1268.08 859.477ZM1258.43 847.809L1260.49 862.092L1256.65 848.142C1257.25 848.059 1257.84 847.949 1258.43 847.809ZM1224.36 843.055L1237.8 838.421C1237.53 837.897 1237.28 837.358 1237.06 836.811L1224.36 843.055ZM1235.82 831.929L1221.91 831.303L1235.7 830.194C1235.71 830.777 1235.75 831.355 1235.82 831.929ZM1223.95 819.473L1236.35 825.037C1236.5 824.486 1236.66 823.947 1236.86 823.421L1223.95 819.473ZM1235.69 829.629L1222.09 827.286L1235.8 827.909C1235.76 828.268 1235.73 828.626 1235.72 828.983C1235.71 829.13 1235.7 829.276 1235.7 829.422C1235.7 829.491 1235.69 829.56 1235.69 829.629ZM1222.77 823.321L1235.87 827.318C1235.94 826.759 1236.05 826.198 1236.18 825.636L1222.77 823.321ZM1243.67 845.053L1233.95 855.775L1242.24 843.955C1242.54 844.209 1242.85 844.454 1243.16 844.69C1243.33 844.813 1243.5 844.934 1243.67 845.053ZM1262.97 846.057L1271.57 857.478L1264.49 845.127C1264 845.461 1263.49 845.772 1262.97 846.057ZM1226.14 846.665L1238.03 838.827C1238.32 839.347 1238.63 839.853 1238.97 840.345L1226.14 846.665ZM1230.98 853.077L1241.91 843.692C1241.46 843.293 1241.03 842.874 1240.63 842.436L1230.98 853.077ZM1240.34 842.111L1228.36 850.021L1239.22 840.711C1239.57 841.195 1239.95 841.662 1240.34 842.111ZM1223.06 839.251L1236.86 836.36C1236.65 835.811 1236.47 835.252 1236.32 834.684L1223.06 839.251ZM1270.46 838.468L1282.28 845.672L1269.58 839.966C1269.89 839.483 1270.19 838.983 1270.46 838.468ZM1222.23 835.313L1236.21 834.182C1236.07 833.616 1235.96 833.043 1235.88 832.463L1222.23 835.313ZM1258.82 812.023L1263.3 800.103L1260.35 812.482C1260.24 812.445 1260.14 812.41 1260.03 812.375L1259.92 812.34C1259.84 812.314 1259.76 812.289 1259.68 812.265C1259.57 812.23 1259.45 812.196 1259.33 812.163C1259.24 812.136 1259.14 812.109 1259.04 812.082C1258.97 812.062 1258.89 812.043 1258.82 812.023ZM1247.38 799.383L1249.21 812.078C1249.73 811.936 1250.25 811.82 1250.78 811.724L1247.38 799.383ZM1261.12 812.798L1267.06 801.519L1262.57 813.462C1262.38 813.362 1262.18 813.266 1261.98 813.174C1261.7 813.042 1261.41 812.917 1261.12 812.798ZM1243.5 800.451L1246.93 812.892C1247.43 812.683 1247.93 812.494 1248.44 812.327L1243.5 800.451ZM1256.44 811.553L1259.38 799.171L1258.01 811.831C1257.48 811.719 1256.96 811.619 1256.44 811.553ZM1239.79 802L1244.78 813.972C1245.02 813.832 1245.26 813.695 1245.5 813.565C1245.73 813.44 1245.97 813.321 1246.21 813.208L1239.79 802ZM1254.01 811.424L1255.38 798.74L1255.6 811.485C1255.07 811.441 1254.54 811.42 1254.01 811.424ZM1251.36 798.809L1251.59 811.595C1251.81 811.564 1252.03 811.537 1252.25 811.513C1252.56 811.479 1252.87 811.453 1253.18 811.436L1251.36 798.809ZM1238.13 820.694L1227.69 812.37L1239.03 819.29C1238.97 819.373 1238.91 819.457 1238.85 819.542C1238.76 819.673 1238.68 819.805 1238.59 819.939C1238.43 820.186 1238.28 820.437 1238.13 820.694ZM1225.6 815.804L1237.1 822.819C1237.32 822.296 1237.56 821.788 1237.81 821.295L1225.6 815.804ZM1241 816.925L1233.08 806.42L1242.21 815.806C1241.79 816.16 1241.39 816.534 1241 816.925ZM1236.3 803.998L1242.79 815.323C1242.89 815.245 1242.99 815.169 1243.09 815.094C1243.43 814.845 1243.77 814.609 1244.12 814.381L1236.3 803.998ZM1239.44 818.717L1230.2 809.226L1240.49 817.442C1240.32 817.626 1240.16 817.815 1240 818.007C1239.97 818.046 1239.94 818.086 1239.9 818.126L1239.87 818.169L1239.81 818.239C1239.78 818.276 1239.75 818.313 1239.72 818.351C1239.67 818.413 1239.62 818.475 1239.58 818.537L1239.53 818.595L1239.5 818.64L1239.47 818.669L1239.44 818.717ZM1270.62 803.393L1263.31 813.847C1263.54 813.983 1263.78 814.125 1264.01 814.271C1264.11 814.339 1264.22 814.408 1264.32 814.478C1264.36 814.506 1264.41 814.535 1264.45 814.563C1264.52 814.61 1264.59 814.657 1264.66 814.705L1270.62 803.393ZM1271.13 822.69L1283.51 818.422L1271.7 824.23C1271.63 823.995 1271.55 823.762 1271.46 823.53C1271.36 823.248 1271.25 822.968 1271.13 822.69ZM1284.82 822.225L1271.93 824.925C1272.08 825.454 1272.19 825.992 1272.29 826.537L1284.82 822.225ZM1272.41 827.233L1285.64 826.163L1272.57 828.891C1272.54 828.333 1272.48 827.781 1272.41 827.233ZM1285.1 838.156L1272.09 834.184C1271.96 834.744 1271.79 835.291 1271.61 835.826L1285.1 838.156ZM1272.59 829.571L1285.96 830.173L1272.53 831.253C1272.55 831.084 1272.56 830.916 1272.57 830.748C1272.57 830.572 1272.58 830.397 1272.58 830.222C1272.59 830.004 1272.59 829.788 1272.59 829.571ZM1285.78 834.191L1272.48 831.9C1272.42 832.456 1272.32 833.015 1272.21 833.574L1285.78 834.191ZM1265.32 815.185L1273.92 805.7L1266.56 816.205C1266.16 815.846 1265.75 815.51 1265.32 815.185ZM1281.73 814.812L1270.07 820.556C1270.34 821.025 1270.6 821.505 1270.83 821.998L1281.73 814.812ZM1271.4 836.382L1283.92 842.004L1270.72 837.967C1270.97 837.454 1271.2 836.924 1271.4 836.382ZM1279.51 811.456L1268.73 818.571C1269.06 818.999 1269.37 819.442 1269.66 819.896L1279.51 811.456ZM1267.13 816.774L1276.9 808.4L1268.23 817.961C1267.88 817.549 1267.52 817.156 1267.13 816.774ZM1199.77 934.129C1198.99 936.557 1197.9 938.811 1196.55 940.857C1191.18 938.049 1186.08 934.868 1181.26 931.356C1181.83 930.458 1182.26 929.451 1182.52 928.358C1183.78 923.077 1180.52 917.776 1175.24 916.519C1172.02 915.754 1168.8 916.662 1166.49 918.678C1162.28 914.436 1158.39 909.9 1154.85 905.113C1161.38 899.199 1170.63 896.499 1179.85 898.694C1191.94 901.572 1200.27 911.976 1201.06 923.758C1198.38 923.327 1195.79 925.03 1195.15 927.71C1194.48 930.519 1196.21 933.338 1199.02 934.007C1199.27 934.066 1199.53 934.107 1199.77 934.129ZM1165.77 919.373C1161.56 915.127 1157.66 910.589 1154.11 905.803C1150.48 909.338 1147.78 913.913 1146.52 919.209C1142.98 934.078 1152.16 949.001 1167.03 952.54C1178.32 955.226 1189.63 950.583 1195.98 941.688C1190.61 938.872 1185.5 935.686 1180.68 932.172C1178.38 935.081 1174.53 936.56 1170.68 935.645C1165.4 934.388 1162.14 929.087 1163.4 923.806C1163.81 922.085 1164.64 920.579 1165.77 919.373ZM987.567 825.624C984.927 824.995 982.277 826.627 981.649 829.267C981.02 831.907 982.651 834.557 985.292 835.186C987.932 835.814 990.582 834.183 991.21 831.543C991.839 828.902 990.208 826.252 987.567 825.624ZM970.78 799.053C971.369 796.58 973.85 795.053 976.323 795.642C978.795 796.23 980.322 798.712 979.734 801.184C979.145 803.657 976.664 805.184 974.191 804.595C971.719 804.007 970.192 801.525 970.78 799.053ZM938.389 819.507C935.805 818.891 933.211 820.488 932.596 823.072C931.981 825.657 933.577 828.25 936.161 828.866C938.746 829.481 941.34 827.884 941.955 825.3C942.57 822.715 940.973 820.122 938.389 819.507Z" fill="#474645" fill-opacity="0.35"/>
</svg>
