<svg width="21" height="27" viewBox="0 0 21 27" fill="none" xmlns="http://www.w3.org/2000/svg">
<path d="M17.3444 9.61147L6.06524 20.558C6.05261 20.5703 6.03562 20.577 6.01802 20.5767C6.00042 20.5765 5.98364 20.5692 5.97138 20.5566L1.9404 16.4031C1.92814 16.3905 1.9214 16.3735 1.92166 16.3559C1.92192 16.3383 1.92917 16.3215 1.9418 16.3092L13.221 5.36272C13.2488 5.33575 13.2861 5.32092 13.3249 5.3215C13.3636 5.32208 13.4005 5.33802 13.4275 5.36581L17.3475 9.40498C17.3745 9.43277 17.3893 9.47014 17.3887 9.50886C17.3882 9.54759 17.3722 9.58449 17.3444 9.61147Z" fill="#F6F6FE"/>
<path d="M19.1166 7.95589L18.1069 8.9359C18.0917 8.95061 18.0713 8.9587 18.0502 8.95839C18.0291 8.95807 18.0089 8.94938 17.9942 8.93422L13.9817 4.79979C13.967 4.78463 13.9589 4.76424 13.9592 4.74312C13.9596 4.722 13.9683 4.70187 13.9834 4.68715L14.9932 3.70714C15.2762 3.43252 15.6567 3.28155 16.0509 3.28745C16.4452 3.29335 16.821 3.45564 17.0956 3.73861L19.1481 5.85346C19.4227 6.13643 19.5737 6.51691 19.5678 6.91119C19.5619 7.30548 19.3996 7.68126 19.1166 7.95589Z" fill="#F6F6FE"/>
<path d="M0.168398 22.1656L1.33594 17.0923L1.42588 17.1157L5.32004 21.1315L5.28999 21.2471L0.244472 22.2951L0.168398 22.1656Z" fill="#F6F6FE"/>
</svg>
