<svg width="36" height="36" viewBox="0 0 36 36" fill="none" xmlns="http://www.w3.org/2000/svg">
<path d="M30.3307 25.54L20.5907 7.60003C20.3328 7.12625 19.952 6.73075 19.4883 6.45518C19.0245 6.17962 18.4951 6.03418 17.9557 6.03418C17.4163 6.03418 16.8868 6.17962 16.4231 6.45518C15.9594 6.73075 15.5785 7.12625 15.3207 7.60003L5.57068 25.54C5.31548 25.9981 5.1848 26.515 5.19166 27.0393C5.19852 27.5637 5.34269 28.077 5.60978 28.5282C5.87687 28.9795 6.25757 29.3528 6.71392 29.611C7.17027 29.8693 7.68634 30.0034 8.21068 30H27.6907C28.2107 30.0005 28.722 29.8658 29.1742 29.6091C29.6265 29.3524 30.0043 28.9825 30.2705 28.5358C30.5367 28.0891 30.6823 27.5808 30.6928 27.0609C30.7034 26.5409 30.5786 26.0272 30.3307 25.57V25.54ZM16.4607 12.74C16.4607 12.3422 16.6187 11.9607 16.9 11.6794C17.1813 11.3981 17.5629 11.24 17.9607 11.24C18.3585 11.24 18.74 11.3981 19.0213 11.6794C19.3026 11.9607 19.4607 12.3422 19.4607 12.74V19.63C19.4607 20.0279 19.3026 20.4094 19.0213 20.6907C18.74 20.972 18.3585 21.13 17.9607 21.13C17.5629 21.13 17.1813 20.972 16.9 20.6907C16.6187 20.4094 16.4607 20.0279 16.4607 19.63V12.74ZM18.0007 26.25C17.6605 26.25 17.3279 26.1492 17.0451 25.9602C16.7622 25.7712 16.5418 25.5025 16.4116 25.1882C16.2814 24.874 16.2474 24.5281 16.3137 24.1945C16.3801 23.8608 16.5439 23.5544 16.7845 23.3138C17.025 23.0733 17.3315 22.9094 17.6651 22.8431C17.9988 22.7767 18.3446 22.8108 18.6589 22.941C18.9732 23.0711 19.2418 23.2916 19.4308 23.5745C19.6198 23.8573 19.7207 24.1898 19.7207 24.53C19.7207 24.9862 19.5395 25.4237 19.2169 25.7463C18.8943 26.0688 18.4568 26.25 18.0007 26.25Z" fill="#FFD951"/>
</svg>
