<svg width="21" height="20" viewBox="0 0 21 20" fill="none" xmlns="http://www.w3.org/2000/svg">
<path d="M18.1484 16.2097L11.9415 10.2976L18.1484 4.37361C18.5963 3.94331 18.6494 3.19471 18.2603 2.69957C18.0658 2.45201 17.7947 2.30464 17.4941 2.28107C17.1993 2.25749 16.9164 2.36359 16.6924 2.57579L10.2674 8.70606L3.86011 2.59937C3.63612 2.38717 3.35319 2.28696 3.05846 2.30464C2.75784 2.32822 2.4867 2.47558 2.29218 2.72315C1.90314 3.21829 1.95619 3.96689 2.40417 4.39719L8.60518 10.2976L2.41007 16.2038C1.96209 16.6341 1.90904 17.3827 2.29807 17.8779C2.50438 18.1431 2.81089 18.2964 3.13509 18.2964C3.40034 18.2964 3.6597 18.1903 3.86011 18.0017L10.2733 11.8832L16.6983 18.0017C16.8987 18.1903 17.1581 18.2964 17.4233 18.2964C17.7475 18.2964 18.054 18.1431 18.2603 17.8779C18.6494 17.3886 18.5963 16.6341 18.1484 16.2097Z" fill="#F6F6FE"/>
</svg>
