<svg width="91" height="90" viewBox="0 0 91 90" fill="none" xmlns="http://www.w3.org/2000/svg">
<path d="M57.1787 17.6021V9.46216H57.3522V17.5308L58.2939 18.4701V21.3702L61.3835 24.4562V39.3553L65.1853 43.1527L65.0622 43.2757L61.2086 39.4266V24.5289L58.119 21.4429V18.5413L57.1787 17.6021Z" fill="#4179BA"/>
<path d="M65.3439 42.9711C65.4726 43.0984 65.4726 43.3069 65.3439 43.4342C65.2151 43.5629 65.0081 43.5629 64.8807 43.4342C64.752 43.3055 64.752 43.0984 64.8807 42.9711C65.0081 42.8423 65.2165 42.8423 65.3439 42.9711Z" fill="#4179BA"/>
<path d="M57.5934 9.47855C57.5934 9.29805 57.4464 9.15112 57.2659 9.15112C57.0854 9.15112 56.9385 9.29805 56.9385 9.47855C56.9385 9.66046 57.0854 9.80738 57.2659 9.80738C57.4464 9.80738 57.5934 9.66046 57.5934 9.47855Z" fill="#4179BA"/>
<path d="M53.3965 28.3598V19.6692H53.57V28.2871L57.4768 32.1894V47.0158L63.1228 52.6567V73.841H62.9493V52.728L57.3019 47.0884V32.2621L53.3965 28.3598Z" fill="#4179BA"/>
<path d="M62.709 73.8246C62.709 74.0065 62.8559 74.1534 63.0364 74.1534C63.2183 74.1534 63.3652 74.0065 63.3652 73.8246C63.3652 73.6441 63.2183 73.4972 63.0364 73.4972C62.8545 73.4972 62.709 73.6441 62.709 73.8246Z" fill="#4179BA"/>
<path d="M61.2002 28.9902L61.3233 28.8672L65.538 33.0755V40.4188L68.0777 42.9542V63.838H67.9027V43.0269L65.3631 40.4915V33.1482L61.2002 28.9902Z" fill="#4179BA"/>
<path d="M67.6621 63.8216C67.6621 64.0021 67.809 64.149 67.9895 64.149C68.1714 64.149 68.317 64.0021 68.317 63.8216C68.317 63.6397 68.17 63.4941 67.9895 63.4941C67.809 63.4941 67.6621 63.6411 67.6621 63.8216Z" fill="#4179BA"/>
<path d="M61.2432 33.4306L61.3663 33.3076L63.1224 35.0631V37.8724H62.9489V35.1344L61.2432 33.4306Z" fill="#4179BA"/>
<path d="M62.708 37.8575C62.708 38.038 62.8549 38.1849 63.0354 38.1849C63.2173 38.1849 63.3643 38.038 63.3643 37.8575C63.3643 37.6756 63.2173 37.53 63.0354 37.53C62.8535 37.53 62.708 37.6756 62.708 37.8575Z" fill="#4179BA"/>
<path d="M59.9297 49.6898V45.5261L61.6886 43.7693L61.8117 43.8937L60.1046 45.5988V49.6898H59.9297Z" fill="#4179BA"/>
<path d="M61.9713 44.0757C62.1 43.9484 62.1 43.7399 61.9713 43.6125C61.8425 43.4838 61.6354 43.4838 61.5067 43.6125C61.378 43.7399 61.378 43.9484 61.5067 44.0757C61.634 44.203 61.8425 44.203 61.9713 44.0757Z" fill="#4179BA"/>
<path d="M55.6689 49.2157V40.56L57.2991 38.9318L57.4222 39.0548L55.8439 40.6327V49.1445L61.2408 54.5352V62.4194H61.0673V54.6079L55.6689 49.2157Z" fill="#4179BA"/>
<path d="M60.8252 62.4031C60.8252 62.5836 60.9721 62.7305 61.1526 62.7305C61.3345 62.7305 61.4815 62.5836 61.4815 62.4031C61.4815 62.2212 61.3345 62.0757 61.1526 62.0757C60.9721 62.0757 60.8252 62.2212 60.8252 62.4031Z" fill="#4179BA"/>
<path d="M65.6113 59.0133V47.867L67.9103 45.572L68.0335 45.695L65.7862 47.9397V59.0133H65.6113Z" fill="#4179BA"/>
<path d="M65.3711 58.9983C65.3711 59.1788 65.518 59.3257 65.6985 59.3257C65.8804 59.3257 66.026 59.1788 66.026 58.9983C66.026 58.8164 65.879 58.6694 65.6985 58.6694C65.518 58.6694 65.3711 58.8164 65.3711 58.9983Z" fill="#4179BA"/>
<path d="M63.0098 60.1677L63.1343 60.0433L64.7211 61.6297V70.2225H64.5476V61.7024L63.0098 60.1677Z" fill="#4179BA"/>
<path d="M64.3066 70.2061C64.3066 70.388 64.4536 70.5335 64.6341 70.5335C64.8146 70.5335 64.9615 70.3866 64.9615 70.2061C64.9615 70.0242 64.8146 69.8787 64.6341 69.8787C64.4536 69.8787 64.3066 70.0256 64.3066 70.2061Z" fill="#4179BA"/>
<path d="M57.1758 72.9297L59.1138 70.9939V58.4737L61.0924 56.4974L61.2155 56.6204L59.2873 58.545V71.0666L57.2989 73.0541L57.1758 72.9297Z" fill="#4179BA"/>
<path d="M57.0165 72.7481C56.8877 72.8768 56.8877 73.0839 57.0165 73.2127C57.1452 73.34 57.3523 73.34 57.4796 73.2127C57.6084 73.0839 57.6084 72.8768 57.4796 72.7481C57.3523 72.6208 57.1452 72.6208 57.0165 72.7481Z" fill="#4179BA"/>
<path d="M58.1191 14.065V10.6254L59.9214 8.8252L60.0445 8.94819L58.2941 10.6981V13.9937L65.005 20.6969V25.5915L70.2257 30.8062V37.7316H70.0508V30.8788L64.8315 25.6642V20.7696L58.1191 14.065Z" fill="#4179BA"/>
<path d="M70.4668 37.7148C70.4668 37.8953 70.3199 38.0436 70.1394 38.0436C69.9575 38.0436 69.8105 37.8953 69.8105 37.7148C69.8105 37.5343 69.9575 37.3873 70.1394 37.3873C70.3199 37.3873 70.4668 37.5343 70.4668 37.7148Z" fill="#4179BA"/>
<path d="M60.2023 9.13014C60.331 9.00141 60.331 8.79432 60.2023 8.66698C60.075 8.53825 59.8665 8.53825 59.7391 8.66698C59.6104 8.79432 59.6104 9.00281 59.7391 9.13014C59.8665 9.25888 60.075 9.25888 60.2023 9.13014Z" fill="#4179BA"/>
<path d="M59.8945 19.1382V15.8033H60.0694V19.0655L63.0163 22.009V24.9622H62.8414V22.0816L59.8945 19.1382Z" fill="#4179BA"/>
<path d="M62.6006 24.9458C62.6006 25.1263 62.7475 25.2732 62.928 25.2732C63.1099 25.2732 63.2554 25.1263 63.2554 24.9458C63.2554 24.7639 63.1085 24.6169 62.928 24.6169C62.7475 24.6169 62.6006 24.7639 62.6006 24.9458Z" fill="#4179BA"/>
<path d="M66.8896 35.1343V27.6848H67.0646V35.063L68.6094 36.6061V40.8452L69.3314 41.5649L69.2083 41.6893L68.4345 40.9164V36.6773L66.8896 35.1343Z" fill="#4179BA"/>
<path d="M69.0262 41.8479C69.1536 41.9766 69.3621 41.9766 69.4908 41.8479C69.6181 41.7192 69.6181 41.5121 69.4908 41.3848C69.3621 41.256 69.155 41.256 69.0262 41.3848C68.8975 41.5121 68.8975 41.7192 69.0262 41.8479Z" fill="#4179BA"/>
<path d="M63.126 30.8774V28.4651L64.2818 27.312L64.4049 27.435L63.3009 28.5364V30.8774H63.126Z" fill="#4179BA"/>
<path d="M64.5627 27.617C64.6914 27.4896 64.6914 27.2811 64.5627 27.1538C64.4339 27.0251 64.2268 27.0251 64.0995 27.1538C63.9707 27.2811 63.9707 27.4896 64.0995 27.617C64.2268 27.7457 64.4353 27.7457 64.5627 27.617Z" fill="#4179BA"/>
<path d="M68.4414 66.5901L69.7133 65.3196V51.6086L71.6136 49.712V41.5902L68.4778 38.4594L68.6023 38.3364L71.7885 41.5175V49.7846L69.8883 51.6813V65.3909L68.5645 66.7131L68.4414 66.5901Z" fill="#4179BA"/>
<path d="M68.2831 66.4085C68.1543 66.5358 68.1543 66.7443 68.2831 66.8717C68.4118 67.0004 68.6189 67.0004 68.7476 66.8717C68.8764 66.7429 68.8764 66.5358 68.7476 66.4085C68.6189 66.2812 68.4104 66.2812 68.2831 66.4085Z" fill="#4179BA"/>
<path d="M62.626 49.2185L63.4096 48.4344V41.5901H63.5845V48.5071L62.7491 49.3415L62.626 49.2185Z" fill="#4179BA"/>
<path d="M62.4676 49.037C62.3389 49.1657 62.3389 49.3728 62.4676 49.5015C62.5964 49.6303 62.8035 49.6303 62.9308 49.5015C63.0595 49.3728 63.0595 49.1657 62.9308 49.037C62.8035 48.9082 62.595 48.9082 62.4676 49.037Z" fill="#4179BA"/>
<path d="M69.7617 49.5707V45.5762L71.6325 43.7075L71.7557 43.8305L69.9366 45.6475V49.5707H69.7617Z" fill="#4179BA"/>
<path d="M69.5215 49.5557C69.5215 49.7362 69.6684 49.8832 69.8489 49.8832C70.0294 49.8832 70.1763 49.7362 70.1763 49.5557C70.1763 49.3738 70.0294 49.2269 69.8489 49.2269C69.6684 49.2269 69.5215 49.3738 69.5215 49.5557Z" fill="#4179BA"/>
<path d="M64.3955 57.5751V52.5771L65.6101 51.3639L65.7332 51.4883L64.5704 52.6497V57.5751H64.3955Z" fill="#4179BA"/>
<path d="M64.1553 57.5588C64.1553 57.7407 64.3022 57.8862 64.4827 57.8862C64.6646 57.8862 64.8115 57.7393 64.8115 57.5588C64.8115 57.3769 64.6646 57.2313 64.4827 57.2313C64.3022 57.2313 64.1553 57.3783 64.1553 57.5588Z" fill="#4179BA"/>
<path d="M69.7549 54.8217L69.878 54.6973L72.9326 57.7483V70.59L75.275 72.9297L75.1519 73.0541L72.7577 70.6627V57.821L69.7549 54.8217Z" fill="#4179BA"/>
<path d="M74.9696 73.2127C75.0983 73.3415 75.3054 73.3415 75.4327 73.2127C75.5615 73.084 75.5615 72.8769 75.4327 72.7482C75.304 72.6194 75.0969 72.6194 74.9696 72.7482C74.8409 72.8769 74.8409 73.084 74.9696 73.2127Z" fill="#4179BA"/>
<path d="M52.3711 19.9307V9.01355H52.5894V19.8398L57.4966 24.7414V43.3652L64.5896 50.4513V77.0627H64.3713V50.5422L57.2784 43.4574V24.8322L52.3711 19.9307Z" fill="white"/>
<path d="M64.0674 77.0408C64.0674 77.2689 64.2521 77.4536 64.4788 77.4536C64.7069 77.4536 64.8916 77.2689 64.8916 77.0408C64.8916 76.8141 64.7069 76.6294 64.4788 76.6294C64.2521 76.6294 64.0674 76.8141 64.0674 77.0408Z" fill="white"/>
<path d="M60.5791 46.7256V41.4956L62.7871 39.2887L62.9425 39.4438L60.7974 41.585V46.7256H60.5791Z" fill="white"/>
<path d="M63.1427 39.672C63.3036 39.5111 63.3036 39.2494 63.1427 39.0899C62.9818 38.929 62.7201 38.929 62.5592 39.0899C62.3982 39.2508 62.3982 39.5125 62.5592 39.672C62.7201 39.8329 62.9804 39.8329 63.1427 39.672Z" fill="white"/>
<path d="M55.2256 46.1297V35.2574L57.2741 33.2112L57.4294 33.3663L55.4453 35.3468V46.0403L62.2261 52.812V62.7144H62.0064V52.9028L55.2256 46.1297Z" fill="white"/>
<path d="M61.7041 62.6939C61.7041 62.9205 61.8888 63.1052 62.1155 63.1052C62.3436 63.1052 62.5283 62.9205 62.5283 62.6939C62.5283 62.4658 62.3436 62.2825 62.1155 62.2825C61.8888 62.2825 61.7041 62.4672 61.7041 62.6939Z" fill="white"/>
<path d="M64.4473 59.8869L64.6026 59.7303L66.598 61.7234V72.5175H66.3783V61.8143L64.4473 59.8869Z" fill="white"/>
<path d="M66.0762 72.497C66.0762 72.725 66.2609 72.9083 66.4876 72.9083C66.7156 72.9083 66.9004 72.7236 66.9004 72.497C66.9004 72.2689 66.7156 72.0856 66.4876 72.0856C66.2609 72.0842 66.0762 72.2689 66.0762 72.497Z" fill="white"/>
<path d="M57.1191 75.918L59.5539 73.4861V57.7583L62.039 55.2747L62.1929 55.4298L59.7722 57.8491V73.577L57.2745 76.0732L57.1191 75.918Z" fill="white"/>
<path d="M56.9185 75.6904C56.7576 75.8513 56.7576 76.113 56.9185 76.2739C57.0795 76.4348 57.3411 76.4348 57.5006 76.2739C57.6616 76.113 57.6616 75.8513 57.5006 75.6904C57.3411 75.5295 57.0795 75.5295 56.9185 75.6904Z" fill="white"/>
<path d="M63.9658 46.1325L64.9509 45.1486V36.5502H65.1692V45.2394L64.1211 46.2877L63.9658 46.1325Z" fill="white"/>
<path d="M63.7672 45.9035C63.6063 46.0644 63.6063 46.3261 63.7672 46.487C63.9281 46.6479 64.1884 46.6479 64.3493 46.487C64.5102 46.3247 64.5102 46.0644 64.3493 45.9035C64.1884 45.7439 63.9281 45.7439 63.7672 45.9035Z" fill="white"/>
<g opacity="0.56">
<g opacity="0.56">
<g opacity="0.56">
<path opacity="0.56" d="M52.3711 19.9307V9.01355H52.5894V19.8398L57.4966 24.7414V43.3652L64.5896 50.4513V77.0627H64.3713V50.5422L57.2784 43.4574V24.8322L52.3711 19.9307Z" fill="url(#paint0_linear)"/>
</g>
<g opacity="0.56">
<path opacity="0.56" d="M64.0674 77.0408C64.0674 77.2689 64.2521 77.4536 64.4788 77.4536C64.7069 77.4536 64.8916 77.2689 64.8916 77.0408C64.8916 76.8141 64.7069 76.6294 64.4788 76.6294C64.2521 76.6294 64.0674 76.8141 64.0674 77.0408Z" fill="url(#paint1_linear)"/>
</g>
</g>
<g opacity="0.56">
<g opacity="0.56">
<path opacity="0.56" d="M60.5791 46.7256V41.4956L62.7871 39.2887L62.9425 39.4438L60.7974 41.585V46.7256H60.5791Z" fill="url(#paint2_linear)"/>
</g>
<g opacity="0.56">
<path opacity="0.56" d="M63.1427 39.672C63.3036 39.5111 63.3036 39.2494 63.1427 39.0899C62.9818 38.929 62.7201 38.929 62.5592 39.0899C62.3982 39.2508 62.3982 39.5125 62.5592 39.672C62.7201 39.8329 62.9804 39.8329 63.1427 39.672Z" fill="url(#paint3_linear)"/>
</g>
</g>
<g opacity="0.56">
<g opacity="0.56">
<path opacity="0.56" d="M55.2256 46.1297V35.2574L57.2741 33.2112L57.4294 33.3663L55.4453 35.3468V46.0403L62.2261 52.812V62.7144H62.0064V52.9028L55.2256 46.1297Z" fill="url(#paint4_linear)"/>
</g>
<g opacity="0.56">
<path opacity="0.56" d="M61.7041 62.6939C61.7041 62.9205 61.8888 63.1052 62.1155 63.1052C62.3436 63.1052 62.5283 62.9205 62.5283 62.6939C62.5283 62.4658 62.3436 62.2825 62.1155 62.2825C61.8888 62.2825 61.7041 62.4672 61.7041 62.6939Z" fill="url(#paint5_linear)"/>
</g>
</g>
<g opacity="0.56">
<g opacity="0.56">
<path opacity="0.56" d="M64.4473 59.8869L64.6026 59.7303L66.598 61.7234V72.5175H66.3783V61.8143L64.4473 59.8869Z" fill="url(#paint6_linear)"/>
</g>
<g opacity="0.56">
<path opacity="0.56" d="M66.0762 72.497C66.0762 72.725 66.2609 72.9083 66.4876 72.9083C66.7156 72.9083 66.9004 72.7236 66.9004 72.497C66.9004 72.2689 66.7156 72.0856 66.4876 72.0856C66.2609 72.0842 66.0762 72.2689 66.0762 72.497Z" fill="url(#paint7_linear)"/>
</g>
</g>
<g opacity="0.56">
<g opacity="0.56">
<path opacity="0.56" d="M57.1191 75.918L59.5539 73.4861V57.7583L62.039 55.2747L62.1929 55.4298L59.7722 57.8491V73.577L57.2745 76.0732L57.1191 75.918Z" fill="url(#paint8_linear)"/>
</g>
<g opacity="0.56">
<path opacity="0.56" d="M56.9185 75.6904C56.7576 75.8513 56.7576 76.113 56.9185 76.2739C57.0795 76.4348 57.3411 76.4348 57.5006 76.2739C57.6616 76.113 57.6616 75.8513 57.5006 75.6904C57.3411 75.5295 57.0795 75.5295 56.9185 75.6904Z" fill="url(#paint9_linear)"/>
</g>
</g>
<g opacity="0.56">
<g opacity="0.56">
<path opacity="0.56" d="M63.9658 46.1325L64.9509 45.1486V36.5502H65.1692V45.2394L64.1211 46.2877L63.9658 46.1325Z" fill="url(#paint10_linear)"/>
</g>
<g opacity="0.56">
<path opacity="0.56" d="M63.7672 45.9035C63.6063 46.0644 63.6063 46.3261 63.7672 46.487C63.9281 46.6479 64.1884 46.6479 64.3493 46.487C64.5102 46.3247 64.5102 46.0644 64.3493 45.9035C64.1884 45.7439 63.9281 45.7439 63.7672 45.9035Z" fill="url(#paint11_linear)"/>
</g>
</g>
</g>
<path d="M52.3711 19.9307V9.01355H52.5894V19.8398L57.4966 24.7414V43.3652L64.5896 50.4513V77.0627H64.3713V50.5422L57.2784 43.4574V24.8322L52.3711 19.9307Z" fill="url(#paint12_linear)"/>
<path d="M64.0674 77.0408C64.0674 77.2689 64.2521 77.4536 64.4788 77.4536C64.7069 77.4536 64.8916 77.2689 64.8916 77.0408C64.8916 76.8141 64.7069 76.6294 64.4788 76.6294C64.2521 76.6294 64.0674 76.8141 64.0674 77.0408Z" fill="url(#paint13_linear)"/>
<path d="M60.5791 46.7256V41.4956L62.7871 39.2887L62.9425 39.4438L60.7974 41.585V46.7256H60.5791Z" fill="url(#paint14_linear)"/>
<path d="M63.1427 39.672C63.3036 39.5111 63.3036 39.2494 63.1427 39.0899C62.9818 38.929 62.7201 38.929 62.5592 39.0899C62.3982 39.2508 62.3982 39.5125 62.5592 39.672C62.7201 39.8329 62.9804 39.8329 63.1427 39.672Z" fill="url(#paint15_linear)"/>
<path d="M55.2256 46.1297V35.2574L57.2741 33.2112L57.4294 33.3663L55.4453 35.3468V46.0403L62.2261 52.812V62.7144H62.0064V52.9028L55.2256 46.1297Z" fill="url(#paint16_linear)"/>
<path d="M61.7041 62.6939C61.7041 62.9205 61.8888 63.1052 62.1155 63.1052C62.3436 63.1052 62.5283 62.9205 62.5283 62.6939C62.5283 62.4658 62.3436 62.2825 62.1155 62.2825C61.8888 62.2825 61.7041 62.4672 61.7041 62.6939Z" fill="url(#paint17_linear)"/>
<path d="M64.4473 59.8869L64.6026 59.7303L66.598 61.7234V72.5175H66.3783V61.8143L64.4473 59.8869Z" fill="url(#paint18_linear)"/>
<path d="M66.0762 72.497C66.0762 72.725 66.2609 72.9083 66.4876 72.9083C66.7156 72.9083 66.9004 72.7236 66.9004 72.497C66.9004 72.2689 66.7156 72.0856 66.4876 72.0856C66.2609 72.0842 66.0762 72.2689 66.0762 72.497Z" fill="url(#paint19_linear)"/>
<path d="M57.1191 75.918L59.5539 73.4861V57.7583L62.039 55.2747L62.1929 55.4298L59.7722 57.8491V73.577L57.2745 76.0732L57.1191 75.918Z" fill="url(#paint20_linear)"/>
<path d="M56.9185 75.6904C56.7576 75.8513 56.7576 76.113 56.9185 76.2739C57.0795 76.4348 57.3411 76.4348 57.5006 76.2739C57.6616 76.113 57.6616 75.8513 57.5006 75.6904C57.3411 75.5295 57.0795 75.5295 56.9185 75.6904Z" fill="url(#paint21_linear)"/>
<path d="M63.9658 46.1325L64.9509 45.1486V36.5502H65.1692V45.2394L64.1211 46.2877L63.9658 46.1325Z" fill="url(#paint22_linear)"/>
<path d="M63.7672 45.9035C63.6063 46.0644 63.6063 46.3261 63.7672 46.487C63.9281 46.6479 64.1884 46.6479 64.3493 46.487C64.5102 46.3247 64.5102 46.0644 64.3493 45.9035C64.1884 45.7439 63.9281 45.7439 63.7672 45.9035Z" fill="url(#paint23_linear)"/>
<path d="M38.0712 67.4985C38.0698 65.6913 38.0684 63.8827 38.067 62.0756C38.067 61.5556 38.0642 61.5542 37.5549 61.5542C34.2974 61.5542 31.0399 61.5542 27.7823 61.5542C27.2254 61.5542 27.217 61.5472 27.217 60.9952C27.2156 59.6394 27.2142 58.2837 27.217 56.928C27.2184 56.4304 27.2492 56.4039 27.7446 56.4011C28.4554 56.3969 29.1648 56.4025 29.8743 56.3396C30.8831 56.2501 31.3911 55.7567 31.482 54.7448C31.5366 54.1396 31.5422 53.5331 31.5422 52.9265C31.5422 46.4316 31.5436 39.938 31.5394 33.4431C31.5394 32.8757 31.5114 32.3082 31.475 31.7422C31.4191 30.8491 30.8132 30.2635 29.912 30.1726C29.1634 30.0971 28.4148 30.0915 27.6662 30.1083C27.329 30.1153 27.2086 29.9937 27.2114 29.6597C27.2212 28.2397 27.224 26.8196 27.21 25.3996C27.2058 25.0334 27.3556 24.944 27.697 24.944C30.9671 24.9538 34.2372 24.9496 37.5073 24.9496C38.0614 24.9496 38.0628 24.9482 38.0628 24.3947C38.0642 22.7552 38.0726 21.1158 38.0572 19.4749C38.053 19.0864 38.179 18.9634 38.5708 18.969C39.9798 18.99 41.3889 18.9914 42.798 18.969C43.2038 18.962 43.2989 19.1074 43.2961 19.4847C43.2793 21.1507 43.3003 22.8153 43.2807 24.4814C43.2765 24.8615 43.4025 24.9705 43.7691 24.958C44.5051 24.9342 45.2425 24.951 45.9785 24.951C46.4991 24.951 46.5005 24.9496 46.5005 24.445C46.5005 22.8307 46.5005 21.2178 46.5005 19.6035C46.5005 18.9788 46.5005 18.9788 47.1441 18.9774C48.4748 18.9774 49.8069 18.9774 51.1376 18.9774C51.7225 18.9774 51.7239 18.9788 51.7239 19.549C51.7253 21.2667 51.7351 22.9831 51.717 24.7008C51.7128 25.0851 51.8555 25.2193 52.2179 25.2598C54.6121 25.5338 56.7795 26.3528 58.6014 27.9713C59.4759 28.7484 60.1252 29.6946 60.5674 30.7666C61.5651 33.1846 61.4279 35.5606 60.1602 37.8472C59.2423 39.502 57.8542 40.6718 56.1708 41.5104C55.6797 41.755 55.1648 41.9451 54.668 42.2372C55.2865 42.4371 55.9092 42.6271 56.5235 42.8382C57.8878 43.305 59.1219 44.0038 60.1252 45.0437C61.4055 46.3715 62.2003 47.9508 62.4438 49.7943C62.9223 53.4115 61.5986 56.3004 58.8225 58.5521C56.9153 60.0979 54.6512 60.8428 52.2403 61.1559C51.8527 61.2062 51.7114 61.3278 51.7156 61.7303C51.7323 63.6535 51.7197 65.5781 51.7183 67.5013C49.986 67.5013 48.2537 67.5013 46.5214 67.5013C46.5144 67.3335 46.5005 67.1672 46.5005 66.9995C46.4991 65.3475 46.4865 63.6954 46.5089 62.0434C46.5144 61.6409 46.3829 61.5319 45.9981 61.5486C45.3405 61.5766 44.68 61.5542 44.0209 61.557C43.208 61.5612 43.2905 61.4704 43.2877 62.2754C43.2793 64.0169 43.2723 65.7598 43.2653 67.5013C41.5344 67.4985 39.8021 67.4985 38.0712 67.4985ZM40.6879 49.9173C40.6921 49.9173 40.6963 49.9173 40.7019 49.9173C40.7019 50.9376 40.6893 51.9565 40.7061 52.9768C40.7158 53.5694 40.6627 54.1662 40.7886 54.7518C40.9089 55.3123 41.1538 55.5093 41.7177 55.5569C43.0848 55.6743 44.4561 55.6435 45.8232 55.6128C46.9566 55.5876 48.09 55.5149 49.1997 55.2117C52.7454 54.2417 53.918 50.1326 52.2011 47.4616C51.3993 46.2149 50.112 45.7062 48.7141 45.449C47.8871 45.2967 47.0462 45.2855 46.208 45.245C44.4645 45.1611 42.7196 45.2296 40.9761 45.2044C40.769 45.2016 40.6823 45.2785 40.6837 45.5035C40.6921 46.9753 40.6879 48.447 40.6879 49.9173ZM40.7033 35.3425C40.7033 36.6452 40.7172 37.9492 40.6949 39.2518C40.6879 39.6501 40.825 39.7633 41.2098 39.7536C42.1263 39.7298 43.0442 39.734 43.9608 39.7494C45.4496 39.7731 46.9286 39.6935 48.3965 39.4363C50.5416 39.0589 51.8989 37.8136 52.2011 35.8653C52.4921 33.984 51.6862 32.2174 49.8391 31.5102C48.6889 31.0699 47.4688 31 46.2584 30.9679C44.5667 30.9232 42.8735 30.9609 41.1818 30.9413C40.8054 30.9371 40.6921 31.0643 40.6963 31.4319C40.7144 32.7359 40.7033 34.0385 40.7033 35.3425Z" fill="url(#paint24_linear)"/>
<defs>
<linearGradient id="paint0_linear" x1="58.4189" y1="16.9156" x2="58.5908" y2="68.2223" gradientUnits="userSpaceOnUse">
<stop stop-color="#7C18FF"/>
<stop offset="0.3265" stop-color="#895AB2"/>
<stop offset="1" stop-color="#0072B7"/>
</linearGradient>
<linearGradient id="paint1_linear" x1="64.278" y1="16.828" x2="64.4504" y2="68.1931" gradientUnits="userSpaceOnUse">
<stop stop-color="#7C18FF"/>
<stop offset="0.3265" stop-color="#895AB2"/>
<stop offset="1" stop-color="#0072B7"/>
</linearGradient>
<linearGradient id="paint2_linear" x1="61.6726" y1="16.9052" x2="61.8446" y2="68.2119" gradientUnits="userSpaceOnUse">
<stop stop-color="#7C18FF"/>
<stop offset="0.3265" stop-color="#895AB2"/>
<stop offset="1" stop-color="#0072B7"/>
</linearGradient>
<linearGradient id="paint3_linear" x1="62.775" y1="16.8757" x2="62.9474" y2="68.2414" gradientUnits="userSpaceOnUse">
<stop stop-color="#7C18FF"/>
<stop offset="0.3265" stop-color="#895AB2"/>
<stop offset="1" stop-color="#0072B7"/>
</linearGradient>
<linearGradient id="paint4_linear" x1="58.6164" y1="16.915" x2="58.7884" y2="68.2217" gradientUnits="userSpaceOnUse">
<stop stop-color="#7C18FF"/>
<stop offset="0.3265" stop-color="#895AB2"/>
<stop offset="1" stop-color="#0072B7"/>
</linearGradient>
<linearGradient id="paint5_linear" x1="61.9619" y1="16.8513" x2="62.1343" y2="68.2173" gradientUnits="userSpaceOnUse">
<stop stop-color="#7C18FF"/>
<stop offset="0.3265" stop-color="#895AB2"/>
<stop offset="1" stop-color="#0072B7"/>
</linearGradient>
<linearGradient id="paint6_linear" x1="65.375" y1="16.8923" x2="65.5469" y2="68.199" gradientUnits="userSpaceOnUse">
<stop stop-color="#7C18FF"/>
<stop offset="0.3265" stop-color="#895AB2"/>
<stop offset="1" stop-color="#0072B7"/>
</linearGradient>
<linearGradient id="paint7_linear" x1="66.3013" y1="16.8256" x2="66.4737" y2="68.1914" gradientUnits="userSpaceOnUse">
<stop stop-color="#7C18FF"/>
<stop offset="0.3265" stop-color="#895AB2"/>
<stop offset="1" stop-color="#0072B7"/>
</linearGradient>
<linearGradient id="paint8_linear" x1="59.4923" y1="16.9121" x2="59.6643" y2="68.2188" gradientUnits="userSpaceOnUse">
<stop stop-color="#7C18FF"/>
<stop offset="0.3265" stop-color="#895AB2"/>
<stop offset="1" stop-color="#0072B7"/>
</linearGradient>
<linearGradient id="paint9_linear" x1="57.012" y1="16.8507" x2="57.1844" y2="68.2184" gradientUnits="userSpaceOnUse">
<stop stop-color="#7C18FF"/>
<stop offset="0.3265" stop-color="#895AB2"/>
<stop offset="1" stop-color="#0072B7"/>
</linearGradient>
<linearGradient id="paint10_linear" x1="64.4857" y1="16.8953" x2="64.6577" y2="68.202" gradientUnits="userSpaceOnUse">
<stop stop-color="#7C18FF"/>
<stop offset="0.3265" stop-color="#895AB2"/>
<stop offset="1" stop-color="#0072B7"/>
</linearGradient>
<linearGradient id="paint11_linear" x1="63.9595" y1="16.8625" x2="64.1318" y2="68.2306" gradientUnits="userSpaceOnUse">
<stop stop-color="#7C18FF"/>
<stop offset="0.3265" stop-color="#895AB2"/>
<stop offset="1" stop-color="#0072B7"/>
</linearGradient>
<linearGradient id="paint12_linear" x1="58.836" y1="65.1561" x2="58.3201" y2="21.597" gradientUnits="userSpaceOnUse">
<stop stop-color="#0072B7"/>
<stop offset="1" stop-color="#5931B7" stop-opacity="0.6"/>
</linearGradient>
<linearGradient id="paint13_linear" x1="64.3382" y1="65.0777" x2="63.8212" y2="21.4691" gradientUnits="userSpaceOnUse">
<stop stop-color="#0072B7"/>
<stop offset="1" stop-color="#5931B7" stop-opacity="0.6"/>
</linearGradient>
<linearGradient id="paint14_linear" x1="62.0221" y1="65.1188" x2="61.5062" y2="21.5598" gradientUnits="userSpaceOnUse">
<stop stop-color="#0072B7"/>
<stop offset="1" stop-color="#5931B7" stop-opacity="0.6"/>
</linearGradient>
<linearGradient id="paint15_linear" x1="63.1559" y1="65.135" x2="62.6389" y2="21.5259" gradientUnits="userSpaceOnUse">
<stop stop-color="#0072B7"/>
<stop offset="1" stop-color="#5931B7" stop-opacity="0.6"/>
</linearGradient>
<linearGradient id="paint16_linear" x1="58.912" y1="65.1552" x2="58.3961" y2="21.5961" gradientUnits="userSpaceOnUse">
<stop stop-color="#0072B7"/>
<stop offset="1" stop-color="#5931B7" stop-opacity="0.6"/>
</linearGradient>
<linearGradient id="paint17_linear" x1="62.1445" y1="65.1202" x2="61.6274" y2="21.5108" gradientUnits="userSpaceOnUse">
<stop stop-color="#0072B7"/>
<stop offset="1" stop-color="#5931B7" stop-opacity="0.6"/>
</linearGradient>
<linearGradient id="paint18_linear" x1="65.5732" y1="65.0763" x2="65.0573" y2="21.5172" gradientUnits="userSpaceOnUse">
<stop stop-color="#0072B7"/>
<stop offset="1" stop-color="#5931B7" stop-opacity="0.6"/>
</linearGradient>
<linearGradient id="paint19_linear" x1="66.4" y1="65.0584" x2="65.8828" y2="21.4492" gradientUnits="userSpaceOnUse">
<stop stop-color="#0072B7"/>
<stop offset="1" stop-color="#5931B7" stop-opacity="0.6"/>
</linearGradient>
<linearGradient id="paint20_linear" x1="59.6499" y1="65.1465" x2="59.134" y2="21.5875" gradientUnits="userSpaceOnUse">
<stop stop-color="#0072B7"/>
<stop offset="1" stop-color="#5931B7" stop-opacity="0.6"/>
</linearGradient>
<linearGradient id="paint21_linear" x1="57.0822" y1="65.1646" x2="56.5651" y2="21.5538" gradientUnits="userSpaceOnUse">
<stop stop-color="#0072B7"/>
<stop offset="1" stop-color="#5931B7" stop-opacity="0.6"/>
</linearGradient>
<linearGradient id="paint22_linear" x1="64.8497" y1="65.0848" x2="64.3338" y2="21.5258" gradientUnits="userSpaceOnUse">
<stop stop-color="#0072B7"/>
<stop offset="1" stop-color="#5931B7" stop-opacity="0.6"/>
</linearGradient>
<linearGradient id="paint23_linear" x1="64.2822" y1="65.1147" x2="63.7651" y2="21.5035" gradientUnits="userSpaceOnUse">
<stop stop-color="#0072B7"/>
<stop offset="1" stop-color="#5931B7" stop-opacity="0.6"/>
</linearGradient>
<linearGradient id="paint24_linear" x1="44.9534" y1="68.3806" x2="44.6682" y2="20.4201" gradientUnits="userSpaceOnUse">
<stop offset="0.0153" stop-color="#7AC8CB"/>
<stop offset="1" stop-color="#0072B7"/>
</linearGradient>
</defs>
</svg>
