<svg width="90" height="90" viewBox="0 0 90 90" fill="none" xmlns="http://www.w3.org/2000/svg">
<path d="M33.8018 24.0159V44.9938H36.4357H37.9684V46.6356V69.08H51.7184V35.9076V34.2657H53.2512V24H33.8018V24.0159ZM45.4089 42.9374H42.8345V30.3762H39.8881V28.0649H45.4089V42.9374Z" fill="url(#paint0_linear)"/>
<path d="M53.2354 35.9075V69.0798H72.6699V35.9075H53.2354ZM68.1163 54.8449H57.8782V52.9958L63.3991 47.3847C64.0241 46.7471 64.4407 46.1892 64.6639 45.7109C64.8872 45.2327 64.9913 44.7704 64.9913 44.2922C64.9913 43.5908 64.7681 43.0648 64.3366 42.6982C63.905 42.3315 63.2502 42.1402 62.4169 42.1402C61.0032 42.1402 59.9169 42.6503 59.158 43.6865L57.3574 42.204C57.8931 41.4229 58.6371 40.8172 59.5449 40.3868C60.4675 39.9564 61.4943 39.7332 62.6252 39.7332C64.1282 39.7332 65.3336 40.1158 66.2413 40.8809C67.1342 41.6461 67.5955 42.6822 67.5955 44.0053C67.5955 44.8183 67.4318 45.5675 67.1193 46.2848C66.8068 46.9862 66.1967 47.7992 65.2889 48.7078L61.5836 52.4857H68.1312V54.8449H68.1163Z" fill="url(#paint1_linear)"/>
<path d="M33.8006 46.6194H17V69.0637H33.8006H36.4345V46.6194H33.8006ZM31.0625 63.2932C30.6458 63.9946 30.0357 64.5685 29.2024 64.983C28.369 65.3974 27.372 65.6046 26.1815 65.6046C25.1845 65.6046 24.2321 65.4452 23.3095 65.1424C22.3869 64.8395 21.5982 64.4091 20.9583 63.8831L22.0744 61.7311C22.5804 62.1774 23.1905 62.544 23.9048 62.7991C24.619 63.0541 25.3631 63.1976 26.1369 63.1976C27.0446 63.1976 27.7738 62.9904 28.2946 62.5919C28.8155 62.1933 29.0833 61.6354 29.0833 60.95C29.0833 60.2486 28.8304 59.7066 28.3393 59.324C27.8482 58.9415 27.0893 58.7342 26.0625 58.7342H24.7976V56.8373L27.9524 52.8203H21.628V50.5089H31.1071V52.358L27.7292 56.646C29.0089 56.8214 29.9911 57.2836 30.6607 58.0488C31.3304 58.8139 31.6726 59.7704 31.6726 60.9181C31.6726 61.7948 31.4792 62.5759 31.0625 63.2932Z" fill="url(#paint2_linear)"/>
<defs>
<linearGradient id="paint0_linear" x1="43.5966" y1="67.6978" x2="43.4786" y2="25.7259" gradientUnits="userSpaceOnUse">
<stop offset="0.0153" stop-color="#7AC8CB"/>
<stop offset="1" stop-color="#0072B7"/>
</linearGradient>
<linearGradient id="paint1_linear" x1="62.9882" y1="67.6432" x2="62.8702" y2="25.6713" gradientUnits="userSpaceOnUse">
<stop offset="0.0153" stop-color="#7AC8CB"/>
<stop offset="1" stop-color="#0072B7"/>
</linearGradient>
<linearGradient id="paint2_linear" x1="26.7395" y1="67.7449" x2="26.6215" y2="25.773" gradientUnits="userSpaceOnUse">
<stop offset="0.0153" stop-color="#7AC8CB"/>
<stop offset="1" stop-color="#0072B7"/>
</linearGradient>
</defs>
</svg>
