<svg width="90" height="90" viewBox="0 0 90 90" fill="none" xmlns="http://www.w3.org/2000/svg">
<path d="M60.6992 16.877V7.8739H60.8849V16.7996L61.9213 17.8361V21.0537L65.34 24.4569V40.9471L69.5476 45.1548L69.4084 45.294L65.1544 41.0399V24.5497L61.7357 21.131V17.9134L60.6992 16.877Z" fill="#4179BA"/>
<path d="M69.7175 44.9537C69.8567 45.0929 69.8567 45.3249 69.7175 45.4642C69.5782 45.6034 69.3462 45.6034 69.207 45.4642C69.0677 45.3249 69.0677 45.0929 69.207 44.9537C69.3462 44.8144 69.5782 44.8144 69.7175 44.9537Z" fill="#4179BA"/>
<path d="M61.1481 7.88936C61.1481 7.68826 60.9934 7.53357 60.7923 7.53357C60.5912 7.53357 60.4365 7.68826 60.4365 7.88936C60.4365 8.09046 60.6067 8.24515 60.7923 8.24515C60.9934 8.24515 61.1481 8.09046 61.1481 7.88936Z" fill="#4179BA"/>
<path d="M56.5078 28.7882V19.1664H56.7089V28.7109L61.0248 33.0268V49.4397L67.2589 55.6738V79.1251H67.0733V55.7511L60.8237 49.517V33.1042L56.5078 28.7882Z" fill="#4179BA"/>
<path d="M66.8105 79.1097C66.8105 79.3108 66.9652 79.4655 67.1663 79.4655C67.3674 79.4655 67.5221 79.2953 67.5221 79.1097C67.5221 78.9086 67.352 78.7539 67.1663 78.7539C66.9652 78.7384 66.8105 78.9086 66.8105 79.1097Z" fill="#4179BA"/>
<path d="M65.1396 29.4844L65.2789 29.3452L69.9351 34.0015V42.1383L72.735 44.9382V68.0493H72.5494V45.0156L69.7495 42.2156V34.0788L65.1396 29.4844Z" fill="#4179BA"/>
<path d="M72.2861 68.0338C72.2861 68.2349 72.4563 68.3896 72.6419 68.3896C72.843 68.3896 72.9977 68.2194 72.9977 68.0338C72.9977 67.8327 72.843 67.678 72.6419 67.678C72.4408 67.678 72.2861 67.8327 72.2861 68.0338Z" fill="#4179BA"/>
<path d="M65.1865 34.4036L65.3257 34.2644L67.2594 36.1981V39.3074H67.0738V36.2754L65.1865 34.4036Z" fill="#4179BA"/>
<path d="M66.8105 39.2918C66.8105 39.4929 66.9652 39.6476 67.1663 39.6476C67.3674 39.6476 67.5221 39.4775 67.5221 39.2918C67.5221 39.0907 67.352 38.936 67.1663 38.936C66.9652 38.936 66.8105 39.0907 66.8105 39.2918Z" fill="#4179BA"/>
<path d="M63.7314 52.3943V47.7845L65.6806 45.8353L65.8198 45.9746L63.9325 47.8618V52.3943H63.7314Z" fill="#4179BA"/>
<path d="M65.9899 46.1757C66.1291 46.0365 66.1291 45.8044 65.9899 45.6652C65.8507 45.526 65.6186 45.526 65.4794 45.6652C65.3402 45.8044 65.3402 46.0365 65.4794 46.1757C65.6186 46.3149 65.8507 46.3149 65.9899 46.1757Z" fill="#4179BA"/>
<path d="M59.0293 51.8684V42.2929L60.8237 40.483L60.963 40.6223L59.2149 42.3703V51.791L65.1861 57.7622V66.4868H64.985V57.8395L59.0293 51.8684Z" fill="#4179BA"/>
<path d="M64.7217 66.4559C64.7217 66.657 64.8918 66.8117 65.0775 66.8117C65.2786 66.8117 65.4333 66.6415 65.4333 66.4559C65.4333 66.2548 65.2786 66.1001 65.0775 66.1001C64.8918 66.1001 64.7217 66.2548 64.7217 66.4559Z" fill="#4179BA"/>
<path d="M70.0127 62.7123V50.3679L72.5652 47.8309L72.6889 47.9702L70.2138 50.4607V62.7123H70.0127Z" fill="#4179BA"/>
<path d="M69.75 62.6969C69.75 62.898 69.9047 63.0527 70.1058 63.0527C70.3069 63.0527 70.4616 62.8825 70.4616 62.6969C70.4616 62.4958 70.3069 62.3411 70.1058 62.3411C69.9202 62.3256 69.75 62.4958 69.75 62.6969Z" fill="#4179BA"/>
<path d="M67.1348 63.9963L67.274 63.8571L69.0375 65.6051V75.1187H68.8364V65.6824L67.1348 63.9963Z" fill="#4179BA"/>
<path d="M68.5732 75.1032C68.5732 75.3043 68.7279 75.459 68.929 75.459C69.1301 75.459 69.2848 75.3043 69.2848 75.1032C69.2848 74.9021 69.1147 74.7474 68.929 74.7474C68.7434 74.7474 68.5732 74.9021 68.5732 75.1032Z" fill="#4179BA"/>
<path d="M60.6846 78.1197L62.8348 75.9695V62.109L65.016 59.9279L65.1552 60.0671L63.0204 62.2018V76.0468L60.8238 78.2589L60.6846 78.1197Z" fill="#4179BA"/>
<path d="M60.5146 77.9186C60.3753 78.0578 60.3753 78.2899 60.5146 78.4291C60.6538 78.5683 60.8858 78.5683 61.0251 78.4291C61.1643 78.2899 61.1643 78.0578 61.0251 77.9186C60.8858 77.7794 60.6538 77.7794 60.5146 77.9186Z" fill="#4179BA"/>
<path d="M61.7363 12.9632V9.15776L63.7319 7.16223L63.8556 7.30145L61.922 9.23511V12.8858L69.3472 20.2956V25.7253L75.1172 31.4953V39.1526H74.9316V31.5727L69.1461 25.8027V20.3884L61.7363 12.9632Z" fill="#4179BA"/>
<path d="M75.3805 39.1372C75.3805 39.3383 75.2258 39.493 75.0247 39.493C74.8236 39.493 74.6689 39.3228 74.6689 39.1372C74.6689 38.9361 74.8236 38.7814 75.0247 38.7814C75.2258 38.7814 75.3805 38.9361 75.3805 39.1372Z" fill="#4179BA"/>
<path d="M64.0417 7.5026C64.1809 7.36337 64.1809 7.13134 64.0417 6.99211C63.9024 6.85289 63.6704 6.85289 63.5312 6.99211C63.392 7.13134 63.392 7.36337 63.5312 7.5026C63.6704 7.64182 63.9024 7.64182 64.0417 7.5026Z" fill="#4179BA"/>
<path d="M63.7012 18.5786V14.8815H63.8868V18.5013L67.1508 21.7498V25.0293H66.9497V21.8426L63.7012 18.5786Z" fill="#4179BA"/>
<path d="M66.6865 24.9984C66.6865 25.1995 66.8567 25.3542 67.0423 25.3542C67.2434 25.3542 67.3981 25.1995 67.3981 24.9984C67.3981 24.7973 67.2434 24.6426 67.0423 24.6426C66.8567 24.6426 66.6865 24.7973 66.6865 24.9984Z" fill="#4179BA"/>
<path d="M71.4355 36.2754V28.0303H71.6212V36.198L73.3383 37.9151V42.6023L74.1272 43.4067L73.988 43.5305L73.1372 42.6797V37.9925L71.4355 36.2754Z" fill="#4179BA"/>
<path d="M73.787 43.7161C73.9263 43.8553 74.1583 43.8553 74.2975 43.7161C74.4368 43.5769 74.4368 43.3448 74.2975 43.2056C74.1583 43.0664 73.9263 43.0664 73.787 43.2056C73.6478 43.3448 73.6478 43.5769 73.787 43.7161Z" fill="#4179BA"/>
<path d="M67.2744 31.5727V28.8965L68.5429 27.6281L68.6821 27.7673L67.46 28.9739V31.5727H67.2744Z" fill="#4179BA"/>
<path d="M68.8522 27.9684C68.9914 27.8292 68.9914 27.5972 68.8522 27.4579C68.713 27.3187 68.4809 27.3187 68.3417 27.4579C68.2025 27.5972 68.2025 27.8292 68.3417 27.9684C68.4809 28.1076 68.713 28.1076 68.8522 27.9684Z" fill="#4179BA"/>
<path d="M73.1377 71.0966L74.5454 69.6889V54.5136L76.6492 52.4097V43.4221L73.1841 39.957L73.3233 39.8333L76.8503 43.3448V52.5026L74.7465 54.5909V69.7662L73.2769 71.2358L73.1377 71.0966Z" fill="#4179BA"/>
<path d="M72.9677 70.8954C72.8285 71.0347 72.8285 71.2667 72.9677 71.4059C73.1069 71.5452 73.339 71.5452 73.4782 71.4059C73.6174 71.2667 73.6174 71.0347 73.4782 70.8954C73.339 70.7562 73.1069 70.7562 72.9677 70.8954Z" fill="#4179BA"/>
<path d="M66.7178 51.8683L67.5841 51.002V43.4221H67.7697V51.0794L66.857 52.0075L66.7178 51.8683Z" fill="#4179BA"/>
<path d="M66.5478 51.6672C66.4086 51.8064 66.4086 52.0384 66.5478 52.1776C66.687 52.3169 66.919 52.3169 67.0583 52.1776C67.1975 52.0384 67.1975 51.8064 67.0583 51.6672C66.919 51.5279 66.687 51.5279 66.5478 51.6672Z" fill="#4179BA"/>
<path d="M74.6064 52.255V47.8463L76.6793 45.7734L76.8031 45.9127L74.7921 47.9237V52.255H74.6064Z" fill="#4179BA"/>
<path d="M74.3438 52.2396C74.3438 52.4407 74.4984 52.5954 74.6995 52.5954C74.9006 52.5954 75.0553 52.4407 75.0553 52.2396C75.0553 52.0385 74.9006 51.8838 74.6995 51.8838C74.4984 51.8838 74.3438 52.0385 74.3438 52.2396Z" fill="#4179BA"/>
<path d="M68.666 61.1189V55.581L70.0118 54.2506L70.1511 54.3898L68.8671 55.6738V61.1189H68.666Z" fill="#4179BA"/>
<path d="M68.4033 61.1035C68.4033 61.3046 68.5735 61.4593 68.7591 61.4593C68.9602 61.4593 69.1149 61.3046 69.1149 61.1035C69.1149 60.9024 68.9447 60.7477 68.7591 60.7477C68.5735 60.7322 68.4033 60.9024 68.4033 61.1035Z" fill="#4179BA"/>
<path d="M74.5908 58.0715L74.73 57.9323L78.1023 61.3045V75.5208L80.7012 78.1196L80.5619 78.2589L77.9167 75.5981V61.3974L74.5908 58.0715Z" fill="#4179BA"/>
<path d="M80.3613 78.429C80.5005 78.5682 80.7325 78.5682 80.8718 78.429C81.011 78.2898 81.011 78.0577 80.8718 77.9185C80.7325 77.7793 80.5005 77.7793 80.3613 77.9185C80.222 78.0577 80.222 78.2898 80.3613 78.429Z" fill="#4179BA"/>
<path d="M68.0322 21.8271H33.3192C32.4684 21.8271 31.7568 22.5233 31.7568 23.3895V65.899C31.7568 66.7498 32.453 67.4614 33.3192 67.4614H68.0322C68.883 67.4614 69.5946 66.7653 69.5946 65.899V23.3895C69.5946 22.5387 68.883 21.8271 68.0322 21.8271ZM64.8301 59.7268H36.212V57.5611H64.8301V59.7268ZM64.8301 52.9203H36.212V50.7546H64.8301V52.9203ZM64.8301 46.1138H36.212V43.9482H64.8301V46.1138ZM64.8301 39.3074H36.212V37.1417H64.8301V39.3074ZM64.8301 32.5009H36.212V30.3352H64.8301V32.5009Z" fill="url(#paint0_linear)"/>
<path d="M55.3799 19.4603V7.37878H55.6274V19.352L61.0416 24.7817V45.3867L68.8845 53.2296V82.683H68.6525V53.3379L60.8096 45.495V24.8745L55.3799 19.4603Z" fill="white"/>
<path d="M68.3125 82.6675C68.3125 82.915 68.5136 83.1161 68.7611 83.1161C69.0086 83.1161 69.2097 82.915 69.2097 82.6675C69.2097 82.42 69.0086 82.2189 68.7611 82.2189C68.5136 82.2035 68.3125 82.42 68.3125 82.6675Z" fill="white"/>
<path d="M64.46 49.1147V43.3293L66.8886 40.8851L67.0743 41.0553L64.692 43.4221V49.1147H64.46Z" fill="white"/>
<path d="M67.29 41.3028C67.4602 41.1327 67.4602 40.8388 67.29 40.6531C67.1044 40.4675 66.8259 40.4675 66.6403 40.6531C66.4702 40.8233 66.4702 41.1172 66.6403 41.3028C66.8259 41.4885 67.1044 41.4885 67.29 41.3028Z" fill="white"/>
<path d="M58.5352 48.4496V36.4145L60.7937 34.156L60.9638 34.3262L58.7827 36.5228V48.3568L66.2698 55.8439V66.8116H66.0377V55.9522L58.5352 48.4496Z" fill="white"/>
<path d="M65.6973 66.7805C65.6973 67.0281 65.8984 67.2292 66.1459 67.2292C66.3934 67.2292 66.5945 67.0281 66.5945 66.7805C66.5945 66.533 66.3934 66.3319 66.1459 66.3319C65.8984 66.3319 65.6973 66.533 65.6973 66.7805Z" fill="white"/>
<path d="M68.7305 63.6714L68.9006 63.5012L71.1127 65.7133V77.6555H70.8652V65.8061L68.7305 63.6714Z" fill="white"/>
<path d="M70.5254 77.64C70.5254 77.8875 70.7265 78.0886 70.974 78.0886C71.2215 78.0886 71.4226 77.8875 71.4226 77.64C71.4226 77.3925 71.2215 77.1914 70.974 77.1914C70.742 77.1759 70.5254 77.377 70.5254 77.64Z" fill="white"/>
<path d="M60.625 81.4145L63.3167 78.7228V61.32L66.0702 58.5819L66.2404 58.7521L63.5642 61.4282V78.8311L60.7952 81.6001L60.625 81.4145Z" fill="white"/>
<path d="M60.4079 81.1669C60.2377 81.3526 60.2377 81.631 60.4079 81.8167C60.5935 81.9868 60.872 81.9868 61.0576 81.8167C61.2432 81.631 61.2432 81.3526 61.0576 81.1669C60.872 80.9968 60.5935 80.9968 60.4079 81.1669Z" fill="white"/>
<path d="M68.2031 48.4496L69.286 47.3667V37.8531H69.5335V47.4596L68.3733 48.6197L68.2031 48.4496Z" fill="white"/>
<path d="M67.9714 48.2021C67.8012 48.3877 67.8012 48.6662 67.9714 48.8518C68.157 49.0374 68.4354 49.0374 68.6211 48.8518C68.8067 48.6662 68.8067 48.3877 68.6211 48.2021C68.4354 48.0319 68.157 48.0319 67.9714 48.2021Z" fill="white"/>
<g opacity="0.56">
<g opacity="0.56">
<g opacity="0.56">
<path opacity="0.56" d="M55.3799 19.4603V7.37878H55.6274V19.352L61.0416 24.7817V45.3867L68.8845 53.2296V82.683H68.6525V53.3379L60.8096 45.495V24.8745L55.3799 19.4603Z" fill="url(#paint1_linear)"/>
</g>
<g opacity="0.56">
<path opacity="0.56" d="M68.3125 82.6675C68.3125 82.915 68.5136 83.1161 68.7611 83.1161C69.0086 83.1161 69.2097 82.915 69.2097 82.6675C69.2097 82.42 69.0086 82.2189 68.7611 82.2189C68.5136 82.2035 68.3125 82.42 68.3125 82.6675Z" fill="url(#paint2_linear)"/>
</g>
</g>
<g opacity="0.56">
<g opacity="0.56">
<path opacity="0.56" d="M64.46 49.1147V43.3293L66.8886 40.8851L67.0743 41.0553L64.692 43.4221V49.1147H64.46Z" fill="url(#paint3_linear)"/>
</g>
<g opacity="0.56">
<path opacity="0.56" d="M67.29 41.3028C67.4602 41.1327 67.4602 40.8388 67.29 40.6531C67.1044 40.4675 66.8259 40.4675 66.6403 40.6531C66.4702 40.8233 66.4702 41.1172 66.6403 41.3028C66.8259 41.4885 67.1044 41.4885 67.29 41.3028Z" fill="url(#paint4_linear)"/>
</g>
</g>
<g opacity="0.56">
<g opacity="0.56">
<path opacity="0.56" d="M58.5352 48.4496V36.4145L60.7937 34.156L60.9638 34.3262L58.7827 36.5228V48.3568L66.2698 55.8439V66.8116H66.0377V55.9522L58.5352 48.4496Z" fill="url(#paint5_linear)"/>
</g>
<g opacity="0.56">
<path opacity="0.56" d="M65.6973 66.7805C65.6973 67.0281 65.8984 67.2292 66.1459 67.2292C66.3934 67.2292 66.5945 67.0281 66.5945 66.7805C66.5945 66.533 66.3934 66.3319 66.1459 66.3319C65.8984 66.3319 65.6973 66.533 65.6973 66.7805Z" fill="url(#paint6_linear)"/>
</g>
</g>
<g opacity="0.56">
<g opacity="0.56">
<path opacity="0.56" d="M68.7305 63.6714L68.9006 63.5012L71.1127 65.7133V77.6555H70.8652V65.8061L68.7305 63.6714Z" fill="url(#paint7_linear)"/>
</g>
<g opacity="0.56">
<path opacity="0.56" d="M70.5254 77.64C70.5254 77.8875 70.7265 78.0886 70.974 78.0886C71.2215 78.0886 71.4226 77.8875 71.4226 77.64C71.4226 77.3925 71.2215 77.1914 70.974 77.1914C70.742 77.1759 70.5254 77.377 70.5254 77.64Z" fill="url(#paint8_linear)"/>
</g>
</g>
<g opacity="0.56">
<g opacity="0.56">
<path opacity="0.56" d="M60.625 81.4145L63.3167 78.7228V61.32L66.0702 58.5819L66.2404 58.7521L63.5642 61.4282V78.8311L60.7952 81.6001L60.625 81.4145Z" fill="url(#paint9_linear)"/>
</g>
<g opacity="0.56">
<path opacity="0.56" d="M60.4079 81.1669C60.2377 81.3526 60.2377 81.631 60.4079 81.8167C60.5935 81.9868 60.872 81.9868 61.0576 81.8167C61.2432 81.631 61.2432 81.3526 61.0576 81.1669C60.872 80.9968 60.5935 80.9968 60.4079 81.1669Z" fill="url(#paint10_linear)"/>
</g>
</g>
<g opacity="0.56">
<g opacity="0.56">
<path opacity="0.56" d="M68.2031 48.4496L69.286 47.3667V37.8531H69.5335V47.4596L68.3733 48.6197L68.2031 48.4496Z" fill="url(#paint11_linear)"/>
</g>
<g opacity="0.56">
<path opacity="0.56" d="M67.9714 48.2021C67.8012 48.3877 67.8012 48.6662 67.9714 48.8518C68.157 49.0374 68.4354 49.0374 68.6211 48.8518C68.8067 48.6662 68.8067 48.3877 68.6211 48.2021C68.4354 48.0319 68.157 48.0319 67.9714 48.2021Z" fill="url(#paint12_linear)"/>
</g>
</g>
</g>
<path d="M55.3799 19.4603V7.37878H55.6274V19.352L61.0416 24.7817V45.3867L68.8845 53.2296V82.683H68.6525V53.3379L60.8096 45.495V24.8745L55.3799 19.4603Z" fill="url(#paint13_linear)"/>
<path d="M68.3125 82.6675C68.3125 82.915 68.5136 83.1161 68.7611 83.1161C69.0086 83.1161 69.2097 82.915 69.2097 82.6675C69.2097 82.42 69.0086 82.2189 68.7611 82.2189C68.5136 82.2035 68.3125 82.42 68.3125 82.6675Z" fill="url(#paint14_linear)"/>
<path d="M64.46 49.1147V43.3293L66.8886 40.8851L67.0743 41.0553L64.692 43.4221V49.1147H64.46Z" fill="url(#paint15_linear)"/>
<path d="M67.29 41.3028C67.4602 41.1327 67.4602 40.8388 67.29 40.6531C67.1044 40.4675 66.8259 40.4675 66.6403 40.6531C66.4702 40.8233 66.4702 41.1172 66.6403 41.3028C66.8259 41.4885 67.1044 41.4885 67.29 41.3028Z" fill="url(#paint16_linear)"/>
<path d="M58.5352 48.4496V36.4145L60.7937 34.156L60.9638 34.3262L58.7827 36.5228V48.3568L66.2698 55.8439V66.8116H66.0377V55.9522L58.5352 48.4496Z" fill="url(#paint17_linear)"/>
<path d="M65.6973 66.7805C65.6973 67.0281 65.8984 67.2292 66.1459 67.2292C66.3934 67.2292 66.5945 67.0281 66.5945 66.7805C66.5945 66.533 66.3934 66.3319 66.1459 66.3319C65.8984 66.3319 65.6973 66.533 65.6973 66.7805Z" fill="url(#paint18_linear)"/>
<path d="M68.7305 63.6714L68.9006 63.5012L71.1127 65.7133V77.6555H70.8652V65.8061L68.7305 63.6714Z" fill="url(#paint19_linear)"/>
<path d="M70.5254 77.64C70.5254 77.8875 70.7265 78.0886 70.974 78.0886C71.2215 78.0886 71.4226 77.8875 71.4226 77.64C71.4226 77.3925 71.2215 77.1914 70.974 77.1914C70.742 77.1759 70.5254 77.377 70.5254 77.64Z" fill="url(#paint20_linear)"/>
<path d="M60.625 81.4145L63.3167 78.7228V61.32L66.0702 58.5819L66.2404 58.7521L63.5642 61.4282V78.8311L60.7952 81.6001L60.625 81.4145Z" fill="url(#paint21_linear)"/>
<path d="M60.4079 81.1669C60.2377 81.3526 60.2377 81.631 60.4079 81.8167C60.5935 81.9868 60.872 81.9868 61.0576 81.8167C61.2432 81.631 61.2432 81.3526 61.0576 81.1669C60.872 80.9968 60.5935 80.9968 60.4079 81.1669Z" fill="url(#paint22_linear)"/>
<path d="M68.2031 48.4496L69.286 47.3667V37.8531H69.5335V47.4596L68.3733 48.6197L68.2031 48.4496Z" fill="url(#paint23_linear)"/>
<path d="M67.9714 48.2021C67.8012 48.3877 67.8012 48.6662 67.9714 48.8518C68.157 49.0374 68.4354 49.0374 68.6211 48.8518C68.8067 48.6662 68.8067 48.3877 68.6211 48.2021C68.4354 48.0319 68.157 48.0319 67.9714 48.2021Z" fill="url(#paint24_linear)"/>
<path d="M17.9436 21.8581C17.5569 21.5023 16.7525 21.7343 16.1492 22.384L9.6212 29.3916C9.0179 30.0413 8.83226 30.8612 9.21899 31.217L12.2664 34.0479L20.9911 24.689L17.9436 21.8581Z" fill="url(#paint25_linear)"/>
<path d="M22.0743 29.0358L20.0169 31.2479L17.0159 34.481L15.0049 36.6157L36.1204 56.834C36.1204 56.8495 36.1204 56.8649 36.1204 56.8649H36.1513L36.4607 57.1588C36.4607 57.1588 36.4607 57.1588 36.4762 57.1588C36.4762 57.1588 36.5999 57.066 36.7082 56.9732L37.6364 57.1434L38.054 57.2207L40.2661 57.6229L40.7148 57.7003L41.7667 57.8859H41.8131H41.7976L42.1224 57.9478L42.2462 57.9632C42.2771 57.9632 42.2926 57.9787 42.3236 57.9787L46.887 58.9687C46.9798 58.9687 47.0571 58.9223 47.1035 58.8605C47.1654 58.7986 47.1964 58.7212 47.1964 58.6284L46.1444 53.9567L46.0362 53.3843V53.3998L46.0207 53.2915L45.9588 52.9976L45.8815 52.5954L45.2318 49.2541L45.1544 48.8828L44.9843 48.0165C44.9997 48.0011 45.0307 47.9701 45.0307 47.9701C45.0307 47.9701 45.0771 47.9237 45.0925 47.9082C45.108 47.8928 45.108 47.8928 45.1235 47.8773L45.1389 47.8618C45.1544 47.8464 45.1544 47.8464 45.1544 47.8309L45.1699 47.8154L45.1854 47.8C45.1854 47.7845 45.2008 47.7845 45.2008 47.7845L23.7295 27.2568L22.0743 29.0358Z" fill="url(#paint26_linear)"/>
<defs>
<linearGradient id="paint0_linear" x1="51.0404" y1="67.4531" x2="50.3294" y2="23.6127" gradientUnits="userSpaceOnUse">
<stop offset="0.0153" stop-color="#7AC8CB"/>
<stop offset="1" stop-color="#0072B7"/>
</linearGradient>
<linearGradient id="paint1_linear" x1="62.0658" y1="16.118" x2="62.2564" y2="72.904" gradientUnits="userSpaceOnUse">
<stop stop-color="#7C18FF"/>
<stop offset="0.3265" stop-color="#895AB2"/>
<stop offset="1" stop-color="#0072B7"/>
</linearGradient>
<linearGradient id="paint2_linear" x1="68.5438" y1="16.098" x2="68.7344" y2="72.8826" gradientUnits="userSpaceOnUse">
<stop stop-color="#7C18FF"/>
<stop offset="0.3265" stop-color="#895AB2"/>
<stop offset="1" stop-color="#0072B7"/>
</linearGradient>
<linearGradient id="paint3_linear" x1="65.6627" y1="16.106" x2="65.8533" y2="72.8919" gradientUnits="userSpaceOnUse">
<stop stop-color="#7C18FF"/>
<stop offset="0.3265" stop-color="#895AB2"/>
<stop offset="1" stop-color="#0072B7"/>
</linearGradient>
<linearGradient id="paint4_linear" x1="66.8805" y1="16.1023" x2="67.0711" y2="72.8873" gradientUnits="userSpaceOnUse">
<stop stop-color="#7C18FF"/>
<stop offset="0.3265" stop-color="#895AB2"/>
<stop offset="1" stop-color="#0072B7"/>
</linearGradient>
<linearGradient id="paint5_linear" x1="62.2838" y1="16.1172" x2="62.4744" y2="72.9033" gradientUnits="userSpaceOnUse">
<stop stop-color="#7C18FF"/>
<stop offset="0.3265" stop-color="#895AB2"/>
<stop offset="1" stop-color="#0072B7"/>
</linearGradient>
<linearGradient id="paint6_linear" x1="65.9823" y1="16.1029" x2="66.1729" y2="72.891" gradientUnits="userSpaceOnUse">
<stop stop-color="#7C18FF"/>
<stop offset="0.3265" stop-color="#895AB2"/>
<stop offset="1" stop-color="#0072B7"/>
</linearGradient>
<linearGradient id="paint7_linear" x1="69.7561" y1="16.0923" x2="69.9466" y2="72.8783" gradientUnits="userSpaceOnUse">
<stop stop-color="#7C18FF"/>
<stop offset="0.3265" stop-color="#895AB2"/>
<stop offset="1" stop-color="#0072B7"/>
</linearGradient>
<linearGradient id="paint8_linear" x1="70.7805" y1="16.0878" x2="70.9711" y2="72.8747" gradientUnits="userSpaceOnUse">
<stop stop-color="#7C18FF"/>
<stop offset="0.3265" stop-color="#895AB2"/>
<stop offset="1" stop-color="#0072B7"/>
</linearGradient>
<linearGradient id="paint9_linear" x1="63.2533" y1="16.114" x2="63.4438" y2="72.9" gradientUnits="userSpaceOnUse">
<stop stop-color="#7C18FF"/>
<stop offset="0.3265" stop-color="#895AB2"/>
<stop offset="1" stop-color="#0072B7"/>
</linearGradient>
<linearGradient id="paint10_linear" x1="60.5113" y1="16.1201" x2="60.7018" y2="72.9088" gradientUnits="userSpaceOnUse">
<stop stop-color="#7C18FF"/>
<stop offset="0.3265" stop-color="#895AB2"/>
<stop offset="1" stop-color="#0072B7"/>
</linearGradient>
<linearGradient id="paint11_linear" x1="68.7717" y1="16.0954" x2="68.9622" y2="72.8816" gradientUnits="userSpaceOnUse">
<stop stop-color="#7C18FF"/>
<stop offset="0.3265" stop-color="#895AB2"/>
<stop offset="1" stop-color="#0072B7"/>
</linearGradient>
<linearGradient id="paint12_linear" x1="68.1902" y1="16.0967" x2="68.3807" y2="72.8841" gradientUnits="userSpaceOnUse">
<stop stop-color="#7C18FF"/>
<stop offset="0.3265" stop-color="#895AB2"/>
<stop offset="1" stop-color="#0072B7"/>
</linearGradient>
<linearGradient id="paint13_linear" x1="62.527" y1="69.5103" x2="61.9553" y2="21.2993" gradientUnits="userSpaceOnUse">
<stop stop-color="#0072B7"/>
<stop offset="1" stop-color="#5931B7" stop-opacity="0.6"/>
</linearGradient>
<linearGradient id="paint14_linear" x1="68.6104" y1="69.4385" x2="68.0387" y2="21.2288" gradientUnits="userSpaceOnUse">
<stop stop-color="#0072B7"/>
<stop offset="1" stop-color="#5931B7" stop-opacity="0.6"/>
</linearGradient>
<linearGradient id="paint15_linear" x1="66.0491" y1="69.4685" x2="65.4775" y2="21.2576" gradientUnits="userSpaceOnUse">
<stop stop-color="#0072B7"/>
<stop offset="1" stop-color="#5931B7" stop-opacity="0.6"/>
</linearGradient>
<linearGradient id="paint16_linear" x1="67.3016" y1="69.4531" x2="66.73" y2="21.2431" gradientUnits="userSpaceOnUse">
<stop stop-color="#0072B7"/>
<stop offset="1" stop-color="#5931B7" stop-opacity="0.6"/>
</linearGradient>
<linearGradient id="paint17_linear" x1="62.6106" y1="69.5093" x2="62.0389" y2="21.2983" gradientUnits="userSpaceOnUse">
<stop stop-color="#0072B7"/>
<stop offset="1" stop-color="#5931B7" stop-opacity="0.6"/>
</linearGradient>
<linearGradient id="paint18_linear" x1="66.1842" y1="69.467" x2="65.6124" y2="21.2542" gradientUnits="userSpaceOnUse">
<stop stop-color="#0072B7"/>
<stop offset="1" stop-color="#5931B7" stop-opacity="0.6"/>
</linearGradient>
<linearGradient id="paint19_linear" x1="69.9752" y1="69.4221" x2="69.4036" y2="21.2112" gradientUnits="userSpaceOnUse">
<stop stop-color="#0072B7"/>
<stop offset="1" stop-color="#5931B7" stop-opacity="0.6"/>
</linearGradient>
<linearGradient id="paint20_linear" x1="70.8895" y1="69.411" x2="70.3179" y2="21.1994" gradientUnits="userSpaceOnUse">
<stop stop-color="#0072B7"/>
<stop offset="1" stop-color="#5931B7" stop-opacity="0.6"/>
</linearGradient>
<linearGradient id="paint21_linear" x1="63.4275" y1="69.4996" x2="62.8558" y2="21.2887" gradientUnits="userSpaceOnUse">
<stop stop-color="#0072B7"/>
<stop offset="1" stop-color="#5931B7" stop-opacity="0.6"/>
</linearGradient>
<linearGradient id="paint22_linear" x1="60.5888" y1="69.5327" x2="60.0171" y2="21.3195" gradientUnits="userSpaceOnUse">
<stop stop-color="#0072B7"/>
<stop offset="1" stop-color="#5931B7" stop-opacity="0.6"/>
</linearGradient>
<linearGradient id="paint23_linear" x1="69.1741" y1="69.4315" x2="68.6024" y2="21.2204" gradientUnits="userSpaceOnUse">
<stop stop-color="#0072B7"/>
<stop offset="1" stop-color="#5931B7" stop-opacity="0.6"/>
</linearGradient>
<linearGradient id="paint24_linear" x1="68.547" y1="69.4394" x2="67.9753" y2="21.2273" gradientUnits="userSpaceOnUse">
<stop stop-color="#0072B7"/>
<stop offset="1" stop-color="#5931B7" stop-opacity="0.6"/>
</linearGradient>
<linearGradient id="paint25_linear" x1="15.0033" y1="35.9095" x2="15.0033" y2="20.0865" gradientUnits="userSpaceOnUse">
<stop offset="0.0153" stop-color="#7AC8CB"/>
<stop offset="1" stop-color="#0072B7"/>
</linearGradient>
<linearGradient id="paint26_linear" x1="31.1015" y1="63.7534" x2="31.1015" y2="23.142" gradientUnits="userSpaceOnUse">
<stop offset="0.0153" stop-color="#7AC8CB"/>
<stop offset="1" stop-color="#0072B7"/>
</linearGradient>
</defs>
</svg>
