<svg width="91" height="90" viewBox="0 0 91 90" fill="none" xmlns="http://www.w3.org/2000/svg">
<path d="M58.2559 17.6021V9.46216H58.4308V17.5308L59.3711 18.4701V21.3702L62.4607 24.4562V39.3553L66.2625 43.1527L66.1394 43.2757L62.2858 39.4266V24.5289L59.1962 21.4429V18.5413L58.2559 17.6021Z" fill="#4179BA"/>
<path d="M66.422 42.9711C66.5507 43.0984 66.5507 43.3069 66.422 43.4342C66.2933 43.5629 66.0862 43.5629 65.9589 43.4342C65.8301 43.3055 65.8301 43.0984 65.9589 42.9711C66.0862 42.8423 66.2933 42.8423 66.422 42.9711Z" fill="#4179BA"/>
<path d="M58.6714 9.47855C58.6714 9.29805 58.5245 9.15112 58.344 9.15112C58.1635 9.15112 58.0166 9.29805 58.0166 9.47855C58.0166 9.66046 58.1635 9.80738 58.344 9.80738C58.5245 9.80738 58.6714 9.66046 58.6714 9.47855Z" fill="#4179BA"/>
<path d="M54.4736 28.3598V19.6692H54.6485V28.2871L58.5539 32.1894V47.0158L64.1999 52.6567V73.841H64.0264V52.728L58.379 47.0884V32.2621L54.4736 28.3598Z" fill="#4179BA"/>
<path d="M63.7861 73.8246C63.7861 74.0065 63.9331 74.1534 64.1136 74.1534C64.2955 74.1534 64.4424 74.0065 64.4424 73.8246C64.4424 73.6441 64.2955 73.4972 64.1136 73.4972C63.9331 73.4972 63.7861 73.6441 63.7861 73.8246Z" fill="#4179BA"/>
<path d="M62.2783 28.9902L62.4015 28.8672L66.6147 33.0755V40.4188L69.1544 42.9542V63.838H68.9794V43.0269L66.4412 40.4915V33.1482L62.2783 28.9902Z" fill="#4179BA"/>
<path d="M68.7393 63.8216C68.7393 64.0021 68.8862 64.149 69.0667 64.149C69.2486 64.149 69.3942 64.0021 69.3942 63.8216C69.3942 63.6397 69.2472 63.4941 69.0667 63.4941C68.8862 63.4941 68.7393 63.6411 68.7393 63.8216Z" fill="#4179BA"/>
<path d="M62.3203 33.4306L62.4434 33.3076L64.1995 35.0631V37.8724H64.026V35.1344L62.3203 33.4306Z" fill="#4179BA"/>
<path d="M63.7852 37.8575C63.7852 38.038 63.9321 38.1849 64.1126 38.1849C64.2945 38.1849 64.4415 38.038 64.4415 37.8575C64.4415 37.6756 64.2945 37.53 64.1126 37.53C63.9321 37.53 63.7852 37.6756 63.7852 37.8575Z" fill="#4179BA"/>
<path d="M61.0078 49.6898V45.5261L62.7653 43.7693L62.8885 43.8937L61.1813 45.5988V49.6898H61.0078Z" fill="#4179BA"/>
<path d="M63.0474 44.0757C63.1762 43.9484 63.1762 43.7399 63.0474 43.6125C62.9187 43.4838 62.7116 43.4838 62.5829 43.6125C62.4541 43.7399 62.4541 43.9484 62.5829 44.0757C62.7116 44.203 62.9187 44.203 63.0474 44.0757Z" fill="#4179BA"/>
<path d="M56.7461 49.2157V40.56L58.3762 38.9318L58.5008 39.0548L56.921 40.6327V49.1445L62.3194 54.5352V62.4194H62.1445V54.6079L56.7461 49.2157Z" fill="#4179BA"/>
<path d="M61.9033 62.4031C61.9033 62.5836 62.0502 62.7305 62.2307 62.7305C62.4126 62.7305 62.5596 62.5836 62.5596 62.4031C62.5596 62.2212 62.4126 62.0757 62.2307 62.0757C62.0502 62.0757 61.9033 62.2212 61.9033 62.4031Z" fill="#4179BA"/>
<path d="M66.6895 59.0133V47.867L68.9885 45.572L69.1116 45.695L66.8644 47.9397V59.0133H66.6895Z" fill="#4179BA"/>
<path d="M66.4482 58.9983C66.4482 59.1788 66.5952 59.3257 66.7757 59.3257C66.9576 59.3257 67.1031 59.1788 67.1031 58.9983C67.1031 58.8164 66.9562 58.6694 66.7757 58.6694C66.5952 58.6694 66.4482 58.8164 66.4482 58.9983Z" fill="#4179BA"/>
<path d="M64.0869 60.1677L64.2115 60.0433L65.7982 61.6297V70.2225H65.6247V61.7024L64.0869 60.1677Z" fill="#4179BA"/>
<path d="M65.3848 70.2061C65.3848 70.388 65.5317 70.5335 65.7122 70.5335C65.8927 70.5335 66.0396 70.3866 66.0396 70.2061C66.0396 70.0242 65.8927 69.8787 65.7122 69.8787C65.5317 69.8787 65.3848 70.0256 65.3848 70.2061Z" fill="#4179BA"/>
<path d="M58.2529 72.9297L60.1909 70.9939V58.4737L62.1695 56.4974L62.2926 56.6204L60.3658 58.545V71.0666L58.3761 73.0541L58.2529 72.9297Z" fill="#4179BA"/>
<path d="M58.0946 72.7481C57.9659 72.8768 57.9659 73.0839 58.0946 73.2127C58.2233 73.34 58.4304 73.34 58.5577 73.2127C58.6865 73.0839 58.6865 72.8768 58.5577 72.7481C58.4304 72.6208 58.2219 72.6208 58.0946 72.7481Z" fill="#4179BA"/>
<path d="M59.1963 14.065V10.6254L60.9986 8.8252L61.1217 8.94819L59.3712 10.6981V13.9937L66.0821 20.6969V25.5915L71.3028 30.8062V37.7316H71.1279V30.8788L65.9086 25.6642V20.7696L59.1963 14.065Z" fill="#4179BA"/>
<path d="M71.544 37.7148C71.544 37.8953 71.397 38.0436 71.2165 38.0436C71.0346 38.0436 70.8877 37.8953 70.8877 37.7148C70.8877 37.5343 71.0346 37.3873 71.2165 37.3873C71.397 37.3873 71.544 37.5343 71.544 37.7148Z" fill="#4179BA"/>
<path d="M61.2804 9.13014C61.4091 9.00141 61.4091 8.79432 61.2804 8.66698C61.1531 8.53825 60.9446 8.53825 60.8173 8.66698C60.6885 8.79432 60.6885 9.00281 60.8173 9.13014C60.9446 9.25888 61.1531 9.25888 61.2804 9.13014Z" fill="#4179BA"/>
<path d="M60.9717 19.1382V15.8033H61.1466V19.0655L64.0935 22.009V24.9622H63.92V22.0816L60.9717 19.1382Z" fill="#4179BA"/>
<path d="M63.6797 24.9458C63.6797 25.1263 63.8266 25.2732 64.0071 25.2732C64.189 25.2732 64.3345 25.1263 64.3345 24.9458C64.3345 24.7639 64.1876 24.6169 64.0071 24.6169C63.8266 24.6169 63.6797 24.7639 63.6797 24.9458Z" fill="#4179BA"/>
<path d="M67.9678 35.1343V27.6848H68.1413V35.063L69.6861 36.6061V40.8452L70.4081 41.5649L70.285 41.6893L69.5126 40.9164V36.6773L67.9678 35.1343Z" fill="#4179BA"/>
<path d="M70.1024 41.8479C70.2298 41.9766 70.4383 41.9766 70.567 41.8479C70.6943 41.7192 70.6943 41.5121 70.567 41.3848C70.4383 41.256 70.2312 41.256 70.1024 41.3848C69.9737 41.5121 69.9737 41.7192 70.1024 41.8479Z" fill="#4179BA"/>
<path d="M64.2041 30.8774V28.4651L65.3585 27.312L65.4817 27.435L64.3776 28.5364V30.8774H64.2041Z" fill="#4179BA"/>
<path d="M65.6398 27.617C65.7685 27.4896 65.7685 27.2811 65.6398 27.1538C65.5111 27.0251 65.304 27.0251 65.1766 27.1538C65.0479 27.2811 65.0479 27.4896 65.1766 27.617C65.304 27.7457 65.5125 27.7457 65.6398 27.617Z" fill="#4179BA"/>
<path d="M69.5186 66.5901L70.7905 65.3196V51.6086L72.6907 49.712V41.5902L69.5563 38.4594L69.6795 38.3364L72.8656 41.5175V49.7846L70.9654 51.6813V65.3909L69.6417 66.7131L69.5186 66.5901Z" fill="#4179BA"/>
<path d="M69.3602 66.4085C69.2315 66.5358 69.2315 66.7443 69.3602 66.8717C69.489 67.0004 69.696 67.0004 69.8248 66.8717C69.9535 66.7429 69.9535 66.5358 69.8248 66.4085C69.696 66.2812 69.4876 66.2812 69.3602 66.4085Z" fill="#4179BA"/>
<path d="M63.7041 49.2185L64.4891 48.4344V41.5901H64.6626V48.5071L63.8286 49.3415L63.7041 49.2185Z" fill="#4179BA"/>
<path d="M63.5458 49.037C63.417 49.1657 63.417 49.3728 63.5458 49.5015C63.6745 49.6303 63.8816 49.6303 64.0089 49.5015C64.1377 49.3728 64.1377 49.1657 64.0089 49.037C63.8816 48.9082 63.6745 48.9082 63.5458 49.037Z" fill="#4179BA"/>
<path d="M70.8398 49.5707V45.5762L72.7107 43.7075L72.8338 43.8305L71.0148 45.6475V49.5707H70.8398Z" fill="#4179BA"/>
<path d="M70.5986 49.5557C70.5986 49.7362 70.7456 49.8832 70.9261 49.8832C71.1066 49.8832 71.2535 49.7362 71.2535 49.5557C71.2535 49.3738 71.1066 49.2269 70.9261 49.2269C70.7456 49.2269 70.5986 49.3738 70.5986 49.5557Z" fill="#4179BA"/>
<path d="M65.4736 57.5751V52.5771L66.6882 51.3639L66.8113 51.4883L65.6485 52.6497V57.5751H65.4736Z" fill="#4179BA"/>
<path d="M65.2324 57.5588C65.2324 57.7407 65.3793 57.8862 65.5599 57.8862C65.7418 57.8862 65.8887 57.7393 65.8887 57.5588C65.8887 57.3769 65.7418 57.2313 65.5599 57.2313C65.3793 57.2313 65.2324 57.3783 65.2324 57.5588Z" fill="#4179BA"/>
<path d="M70.832 54.8217L70.9552 54.6973L74.0098 57.7483V70.59L76.3522 72.9297L76.2291 73.0541L73.8349 70.6627V57.821L70.832 54.8217Z" fill="#4179BA"/>
<path d="M76.0467 73.2127C76.1755 73.3415 76.3826 73.3415 76.5099 73.2127C76.6386 73.084 76.6386 72.8769 76.5099 72.7482C76.3812 72.6194 76.1741 72.6194 76.0467 72.7482C75.918 72.8769 75.918 73.084 76.0467 73.2127Z" fill="#4179BA"/>
<path d="M53.4482 19.9307V9.01355H53.6679V19.8398L58.5752 24.7414V43.3652L65.6667 50.4513V77.0627H65.4484V50.5422L58.3555 43.4574V24.8322L53.4482 19.9307Z" fill="white"/>
<path d="M65.1465 77.0408C65.1465 77.2689 65.3312 77.4536 65.5579 77.4536C65.786 77.4536 65.9707 77.2689 65.9707 77.0408C65.9707 76.8141 65.786 76.6294 65.5579 76.6294C65.3298 76.6294 65.1465 76.8141 65.1465 77.0408Z" fill="white"/>
<path d="M61.6562 46.7256V41.4956L63.8643 39.2887L64.0196 39.4438L61.8759 41.585V46.7256H61.6562Z" fill="white"/>
<path d="M64.2198 39.672C64.3807 39.5111 64.3807 39.2494 64.2198 39.0899C64.0589 38.929 63.7972 38.929 63.6363 39.0899C63.4754 39.2508 63.4754 39.5125 63.6363 39.672C63.7972 39.8329 64.0589 39.8329 64.2198 39.672Z" fill="white"/>
<path d="M56.3027 46.1297V35.2574L58.3513 33.2112L58.5066 33.3663L56.5224 35.3468V46.0403L63.3033 52.812V62.7144H63.0836V52.9028L56.3027 46.1297Z" fill="white"/>
<path d="M62.7812 62.6939C62.7812 62.9205 62.966 63.1052 63.1926 63.1052C63.4207 63.1052 63.6054 62.9205 63.6054 62.6939C63.6054 62.4658 63.4207 62.2825 63.1926 62.2825C62.966 62.2825 62.7812 62.4672 62.7812 62.6939Z" fill="white"/>
<path d="M65.5244 59.8869L65.6797 59.7303L67.6751 61.7234V72.5175H67.4554V61.8143L65.5244 59.8869Z" fill="white"/>
<path d="M67.1533 72.497C67.1533 72.725 67.338 72.9083 67.5647 72.9083C67.7928 72.9083 67.9775 72.7236 67.9775 72.497C67.9775 72.2689 67.7928 72.0856 67.5647 72.0856C67.338 72.0842 67.1533 72.2689 67.1533 72.497Z" fill="white"/>
<path d="M58.1963 75.918L60.631 73.4861V57.7583L63.1161 55.2747L63.2714 55.4298L60.8493 57.8491V73.577L58.3516 76.0732L58.1963 75.918Z" fill="white"/>
<path d="M57.9976 75.6904C57.8367 75.8513 57.8367 76.113 57.9976 76.2739C58.1585 76.4348 58.4202 76.4348 58.5797 76.2739C58.7406 76.113 58.7406 75.8513 58.5797 75.6904C58.4188 75.5295 58.1585 75.5295 57.9976 75.6904Z" fill="white"/>
<path d="M65.043 46.1325L66.0281 45.1486V36.5502H66.2477V45.2394L65.1983 46.2877L65.043 46.1325Z" fill="white"/>
<path d="M64.8443 45.9035C64.6834 46.0644 64.6834 46.3261 64.8443 46.487C65.0052 46.6479 65.2655 46.6479 65.4264 46.487C65.5873 46.3247 65.5873 46.0644 65.4264 45.9035C65.2655 45.7439 65.0052 45.7439 64.8443 45.9035Z" fill="white"/>
<g opacity="0.56">
<g opacity="0.56">
<g opacity="0.56">
<path opacity="0.56" d="M53.4482 19.9307V9.01355H53.6679V19.8398L58.5752 24.7414V43.3652L65.6667 50.4513V77.0627H65.4484V50.5422L58.3555 43.4574V24.8322L53.4482 19.9307Z" fill="url(#paint0_linear)"/>
</g>
<g opacity="0.56">
<path opacity="0.56" d="M65.1465 77.0408C65.1465 77.2689 65.3312 77.4536 65.5579 77.4536C65.786 77.4536 65.9707 77.2689 65.9707 77.0408C65.9707 76.8141 65.786 76.6294 65.5579 76.6294C65.3298 76.6294 65.1465 76.8141 65.1465 77.0408Z" fill="url(#paint1_linear)"/>
</g>
</g>
<g opacity="0.56">
<g opacity="0.56">
<path opacity="0.56" d="M61.6562 46.7256V41.4956L63.8643 39.2887L64.0196 39.4438L61.8759 41.585V46.7256H61.6562Z" fill="url(#paint2_linear)"/>
</g>
<g opacity="0.56">
<path opacity="0.56" d="M64.2198 39.672C64.3807 39.5111 64.3807 39.2494 64.2198 39.0899C64.0589 38.929 63.7972 38.929 63.6363 39.0899C63.4754 39.2508 63.4754 39.5125 63.6363 39.672C63.7972 39.8329 64.0589 39.8329 64.2198 39.672Z" fill="url(#paint3_linear)"/>
</g>
</g>
<g opacity="0.56">
<g opacity="0.56">
<path opacity="0.56" d="M56.3027 46.1297V35.2574L58.3513 33.2112L58.5066 33.3663L56.5224 35.3468V46.0403L63.3033 52.812V62.7144H63.0836V52.9028L56.3027 46.1297Z" fill="url(#paint4_linear)"/>
</g>
<g opacity="0.56">
<path opacity="0.56" d="M62.7812 62.6939C62.7812 62.9205 62.966 63.1052 63.1926 63.1052C63.4207 63.1052 63.6054 62.9205 63.6054 62.6939C63.6054 62.4658 63.4207 62.2825 63.1926 62.2825C62.966 62.2825 62.7812 62.4672 62.7812 62.6939Z" fill="url(#paint5_linear)"/>
</g>
</g>
<g opacity="0.56">
<g opacity="0.56">
<path opacity="0.56" d="M65.5244 59.8869L65.6797 59.7303L67.6751 61.7234V72.5175H67.4554V61.8143L65.5244 59.8869Z" fill="url(#paint6_linear)"/>
</g>
<g opacity="0.56">
<path opacity="0.56" d="M67.1533 72.497C67.1533 72.725 67.338 72.9083 67.5647 72.9083C67.7928 72.9083 67.9775 72.7236 67.9775 72.497C67.9775 72.2689 67.7928 72.0856 67.5647 72.0856C67.338 72.0842 67.1533 72.2689 67.1533 72.497Z" fill="url(#paint7_linear)"/>
</g>
</g>
<g opacity="0.56">
<g opacity="0.56">
<path opacity="0.56" d="M58.1963 75.918L60.631 73.4861V57.7583L63.1161 55.2747L63.2714 55.4298L60.8493 57.8491V73.577L58.3516 76.0732L58.1963 75.918Z" fill="url(#paint8_linear)"/>
</g>
<g opacity="0.56">
<path opacity="0.56" d="M57.9976 75.6904C57.8367 75.8513 57.8367 76.113 57.9976 76.2739C58.1585 76.4348 58.4202 76.4348 58.5797 76.2739C58.7406 76.113 58.7406 75.8513 58.5797 75.6904C58.4188 75.5295 58.1585 75.5295 57.9976 75.6904Z" fill="url(#paint9_linear)"/>
</g>
</g>
<g opacity="0.56">
<g opacity="0.56">
<path opacity="0.56" d="M65.043 46.1325L66.0281 45.1486V36.5502H66.2477V45.2394L65.1983 46.2877L65.043 46.1325Z" fill="url(#paint10_linear)"/>
</g>
<g opacity="0.56">
<path opacity="0.56" d="M64.8443 45.9035C64.6834 46.0644 64.6834 46.3261 64.8443 46.487C65.0052 46.6479 65.2655 46.6479 65.4264 46.487C65.5873 46.3247 65.5873 46.0644 65.4264 45.9035C65.2655 45.7439 65.0052 45.7439 64.8443 45.9035Z" fill="url(#paint11_linear)"/>
</g>
</g>
</g>
<path d="M53.4482 19.9307V9.01355H53.6679V19.8398L58.5752 24.7414V43.3652L65.6667 50.4513V77.0627H65.4484V50.5422L58.3555 43.4574V24.8322L53.4482 19.9307Z" fill="url(#paint12_linear)"/>
<path d="M65.1465 77.0408C65.1465 77.2689 65.3312 77.4536 65.5579 77.4536C65.786 77.4536 65.9707 77.2689 65.9707 77.0408C65.9707 76.8141 65.786 76.6294 65.5579 76.6294C65.3298 76.6294 65.1465 76.8141 65.1465 77.0408Z" fill="url(#paint13_linear)"/>
<path d="M61.6562 46.7256V41.4956L63.8643 39.2887L64.0196 39.4438L61.8759 41.585V46.7256H61.6562Z" fill="url(#paint14_linear)"/>
<path d="M64.2198 39.672C64.3807 39.5111 64.3807 39.2494 64.2198 39.0899C64.0589 38.929 63.7972 38.929 63.6363 39.0899C63.4754 39.2508 63.4754 39.5125 63.6363 39.672C63.7972 39.8329 64.0589 39.8329 64.2198 39.672Z" fill="url(#paint15_linear)"/>
<path d="M56.3027 46.1297V35.2574L58.3513 33.2112L58.5066 33.3663L56.5224 35.3468V46.0403L63.3033 52.812V62.7144H63.0836V52.9028L56.3027 46.1297Z" fill="url(#paint16_linear)"/>
<path d="M62.7812 62.6939C62.7812 62.9205 62.966 63.1052 63.1926 63.1052C63.4207 63.1052 63.6054 62.9205 63.6054 62.6939C63.6054 62.4658 63.4207 62.2825 63.1926 62.2825C62.966 62.2825 62.7812 62.4672 62.7812 62.6939Z" fill="url(#paint17_linear)"/>
<path d="M65.5244 59.8869L65.6797 59.7303L67.6751 61.7234V72.5175H67.4554V61.8143L65.5244 59.8869Z" fill="url(#paint18_linear)"/>
<path d="M67.1533 72.497C67.1533 72.725 67.338 72.9083 67.5647 72.9083C67.7928 72.9083 67.9775 72.7236 67.9775 72.497C67.9775 72.2689 67.7928 72.0856 67.5647 72.0856C67.338 72.0842 67.1533 72.2689 67.1533 72.497Z" fill="url(#paint19_linear)"/>
<path d="M58.1963 75.918L60.631 73.4861V57.7583L63.1161 55.2747L63.2714 55.4298L60.8493 57.8491V73.577L58.3516 76.0732L58.1963 75.918Z" fill="url(#paint20_linear)"/>
<path d="M57.9976 75.6904C57.8367 75.8513 57.8367 76.113 57.9976 76.2739C58.1585 76.4348 58.4202 76.4348 58.5797 76.2739C58.7406 76.113 58.7406 75.8513 58.5797 75.6904C58.4188 75.5295 58.1585 75.5295 57.9976 75.6904Z" fill="url(#paint21_linear)"/>
<path d="M65.043 46.1325L66.0281 45.1486V36.5502H66.2477V45.2394L65.1983 46.2877L65.043 46.1325Z" fill="url(#paint22_linear)"/>
<path d="M64.8443 45.9035C64.6834 46.0644 64.6834 46.3261 64.8443 46.487C65.0052 46.6479 65.2655 46.6479 65.4264 46.487C65.5873 46.3247 65.5873 46.0644 65.4264 45.9035C65.2655 45.7439 65.0052 45.7439 64.8443 45.9035Z" fill="url(#paint23_linear)"/>
<path d="M63.2527 43.3372C63.2471 43.7146 62.9098 43.7635 62.6901 43.8935C58.8212 46.1857 54.9466 48.468 51.0734 50.7518C49.5482 51.6519 48.0146 52.5366 46.5047 53.4605C46.0906 53.7135 45.7827 53.7176 45.3587 53.4675C39.9449 50.2542 34.5228 47.0564 29.0922 43.8711C28.6416 43.607 28.5213 43.4127 28.8249 42.9123C34.401 33.713 39.9589 24.5024 45.5099 15.2876C45.8233 14.7677 45.9884 14.7076 46.3284 15.2737C51.8766 24.4898 57.4401 33.6962 63.0008 42.9054C63.0875 43.0479 63.1701 43.1947 63.2527 43.3372Z" fill="url(#paint24_linear)"/>
<path d="M63.0818 47.2087C61.6672 49.1976 60.2525 51.185 58.8378 53.1739C54.703 58.9854 50.5681 64.7954 46.4374 70.6097C46.1422 71.0262 45.9701 71.4273 45.4677 70.7173C40.0385 63.0358 34.58 55.3766 29.1298 47.7091C29.0346 47.5749 28.9549 47.4281 28.8359 47.2339C29.2641 47.1249 29.502 47.4058 29.7595 47.5567C34.8948 50.5729 40.0301 53.5876 45.1445 56.6387C45.7448 56.9965 46.1576 56.9602 46.7327 56.6191C51.875 53.5611 57.0356 50.5337 62.1919 47.498C62.4493 47.3457 62.7152 47.2087 62.9769 47.0634C63.0133 47.1123 63.0482 47.1598 63.0818 47.2087Z" fill="url(#paint25_linear)"/>
<defs>
<linearGradient id="paint0_linear" x1="59.4963" y1="16.9156" x2="59.6683" y2="68.2223" gradientUnits="userSpaceOnUse">
<stop stop-color="#7C18FF"/>
<stop offset="0.3265" stop-color="#895AB2"/>
<stop offset="1" stop-color="#0072B7"/>
</linearGradient>
<linearGradient id="paint1_linear" x1="65.356" y1="16.828" x2="65.5284" y2="68.1931" gradientUnits="userSpaceOnUse">
<stop stop-color="#7C18FF"/>
<stop offset="0.3265" stop-color="#895AB2"/>
<stop offset="1" stop-color="#0072B7"/>
</linearGradient>
<linearGradient id="paint2_linear" x1="62.7501" y1="16.9052" x2="62.922" y2="68.2119" gradientUnits="userSpaceOnUse">
<stop stop-color="#7C18FF"/>
<stop offset="0.3265" stop-color="#895AB2"/>
<stop offset="1" stop-color="#0072B7"/>
</linearGradient>
<linearGradient id="paint3_linear" x1="63.8525" y1="16.8757" x2="64.0248" y2="68.2414" gradientUnits="userSpaceOnUse">
<stop stop-color="#7C18FF"/>
<stop offset="0.3265" stop-color="#895AB2"/>
<stop offset="1" stop-color="#0072B7"/>
</linearGradient>
<linearGradient id="paint4_linear" x1="59.6939" y1="16.915" x2="59.8658" y2="68.2217" gradientUnits="userSpaceOnUse">
<stop stop-color="#7C18FF"/>
<stop offset="0.3265" stop-color="#895AB2"/>
<stop offset="1" stop-color="#0072B7"/>
</linearGradient>
<linearGradient id="paint5_linear" x1="63.0394" y1="16.8513" x2="63.2117" y2="68.2173" gradientUnits="userSpaceOnUse">
<stop stop-color="#7C18FF"/>
<stop offset="0.3265" stop-color="#895AB2"/>
<stop offset="1" stop-color="#0072B7"/>
</linearGradient>
<linearGradient id="paint6_linear" x1="66.4524" y1="16.8923" x2="66.6244" y2="68.199" gradientUnits="userSpaceOnUse">
<stop stop-color="#7C18FF"/>
<stop offset="0.3265" stop-color="#895AB2"/>
<stop offset="1" stop-color="#0072B7"/>
</linearGradient>
<linearGradient id="paint7_linear" x1="67.3788" y1="16.8256" x2="67.5511" y2="68.1914" gradientUnits="userSpaceOnUse">
<stop stop-color="#7C18FF"/>
<stop offset="0.3265" stop-color="#895AB2"/>
<stop offset="1" stop-color="#0072B7"/>
</linearGradient>
<linearGradient id="paint8_linear" x1="60.5698" y1="16.9121" x2="60.7417" y2="68.2188" gradientUnits="userSpaceOnUse">
<stop stop-color="#7C18FF"/>
<stop offset="0.3265" stop-color="#895AB2"/>
<stop offset="1" stop-color="#0072B7"/>
</linearGradient>
<linearGradient id="paint9_linear" x1="58.09" y1="16.8508" x2="58.2624" y2="68.2184" gradientUnits="userSpaceOnUse">
<stop stop-color="#7C18FF"/>
<stop offset="0.3265" stop-color="#895AB2"/>
<stop offset="1" stop-color="#0072B7"/>
</linearGradient>
<linearGradient id="paint10_linear" x1="65.5631" y1="16.8953" x2="65.7351" y2="68.202" gradientUnits="userSpaceOnUse">
<stop stop-color="#7C18FF"/>
<stop offset="0.3265" stop-color="#895AB2"/>
<stop offset="1" stop-color="#0072B7"/>
</linearGradient>
<linearGradient id="paint11_linear" x1="65.0369" y1="16.8625" x2="65.2093" y2="68.2306" gradientUnits="userSpaceOnUse">
<stop stop-color="#7C18FF"/>
<stop offset="0.3265" stop-color="#895AB2"/>
<stop offset="1" stop-color="#0072B7"/>
</linearGradient>
<linearGradient id="paint12_linear" x1="59.9134" y1="65.1561" x2="59.3975" y2="21.597" gradientUnits="userSpaceOnUse">
<stop stop-color="#0072B7"/>
<stop offset="1" stop-color="#5931B7" stop-opacity="0.6"/>
</linearGradient>
<linearGradient id="paint13_linear" x1="65.4162" y1="65.0777" x2="64.8991" y2="21.4691" gradientUnits="userSpaceOnUse">
<stop stop-color="#0072B7"/>
<stop offset="1" stop-color="#5931B7" stop-opacity="0.6"/>
</linearGradient>
<linearGradient id="paint14_linear" x1="63.0996" y1="65.1188" x2="62.5837" y2="21.5598" gradientUnits="userSpaceOnUse">
<stop stop-color="#0072B7"/>
<stop offset="1" stop-color="#5931B7" stop-opacity="0.6"/>
</linearGradient>
<linearGradient id="paint15_linear" x1="64.2334" y1="65.135" x2="63.7163" y2="21.5259" gradientUnits="userSpaceOnUse">
<stop stop-color="#0072B7"/>
<stop offset="1" stop-color="#5931B7" stop-opacity="0.6"/>
</linearGradient>
<linearGradient id="paint16_linear" x1="59.9894" y1="65.1552" x2="59.4735" y2="21.5961" gradientUnits="userSpaceOnUse">
<stop stop-color="#0072B7"/>
<stop offset="1" stop-color="#5931B7" stop-opacity="0.6"/>
</linearGradient>
<linearGradient id="paint17_linear" x1="63.222" y1="65.1202" x2="62.7049" y2="21.5108" gradientUnits="userSpaceOnUse">
<stop stop-color="#0072B7"/>
<stop offset="1" stop-color="#5931B7" stop-opacity="0.6"/>
</linearGradient>
<linearGradient id="paint18_linear" x1="66.6506" y1="65.0763" x2="66.1347" y2="21.5172" gradientUnits="userSpaceOnUse">
<stop stop-color="#0072B7"/>
<stop offset="1" stop-color="#5931B7" stop-opacity="0.6"/>
</linearGradient>
<linearGradient id="paint19_linear" x1="67.4774" y1="65.0584" x2="66.9603" y2="21.4492" gradientUnits="userSpaceOnUse">
<stop stop-color="#0072B7"/>
<stop offset="1" stop-color="#5931B7" stop-opacity="0.6"/>
</linearGradient>
<linearGradient id="paint20_linear" x1="60.7273" y1="65.1465" x2="60.2114" y2="21.5875" gradientUnits="userSpaceOnUse">
<stop stop-color="#0072B7"/>
<stop offset="1" stop-color="#5931B7" stop-opacity="0.6"/>
</linearGradient>
<linearGradient id="paint21_linear" x1="58.1602" y1="65.1646" x2="57.643" y2="21.5538" gradientUnits="userSpaceOnUse">
<stop stop-color="#0072B7"/>
<stop offset="1" stop-color="#5931B7" stop-opacity="0.6"/>
</linearGradient>
<linearGradient id="paint22_linear" x1="65.9271" y1="65.0848" x2="65.4112" y2="21.5258" gradientUnits="userSpaceOnUse">
<stop stop-color="#0072B7"/>
<stop offset="1" stop-color="#5931B7" stop-opacity="0.6"/>
</linearGradient>
<linearGradient id="paint23_linear" x1="65.3597" y1="65.1147" x2="64.8425" y2="21.5035" gradientUnits="userSpaceOnUse">
<stop stop-color="#0072B7"/>
<stop offset="1" stop-color="#5931B7" stop-opacity="0.6"/>
</linearGradient>
<linearGradient id="paint24_linear" x1="45.7014" y1="73.2658" x2="46.142" y2="21.2163" gradientUnits="userSpaceOnUse">
<stop offset="0.0153" stop-color="#7AC8CB"/>
<stop offset="1" stop-color="#0072B7"/>
</linearGradient>
<linearGradient id="paint25_linear" x1="45.7385" y1="73.2661" x2="46.179" y2="21.2166" gradientUnits="userSpaceOnUse">
<stop offset="0.0153" stop-color="#7AC8CB"/>
<stop offset="1" stop-color="#0072B7"/>
</linearGradient>
</defs>
</svg>
