<svg width="24" height="24" viewBox="0 0 24 24" fill="none" xmlns="http://www.w3.org/2000/svg">
<path fill-rule="evenodd" clip-rule="evenodd" d="M17 4C17 3.44772 17.4477 3 18 3C18.5523 3 19 3.44772 19 4V9.17071C20.1652 9.58254 21 10.6938 21 12C21 13.3062 20.1652 14.4175 19 14.8293V20C19 20.5523 18.5523 21 18 21C17.4477 21 17 20.5523 17 20V14.8293C15.8348 14.4175 15 13.3062 15 12C15 10.6938 15.8348 9.58254 17 9.17071V4ZM18 14C19.1046 14 20 13.1046 20 12C20 10.8954 19.1046 10 18 10C16.8954 10 16 10.8954 16 12C16 13.1046 16.8954 14 18 14Z" fill="#F6F6FE"/>
<path fill-rule="evenodd" clip-rule="evenodd" d="M11 4C11 3.44772 11.4477 3 12 3C12.5523 3 13 3.44772 13 4V5.17071C14.1652 5.58254 15 6.69378 15 8C15 9.30622 14.1652 10.4175 13 10.8293V20C13 20.5523 12.5523 21 12 21C11.4477 21 11 20.5523 11 20V10.8293C9.83481 10.4175 9 9.30622 9 8C9 6.69378 9.83481 5.58254 11 5.17071V4ZM12 10C13.1046 10 14 9.10457 14 8C14 6.89543 13.1046 6 12 6C10.8954 6 10 6.89543 10 8C10 9.10457 10.8954 10 12 10Z" fill="#F6F6FE"/>
<path fill-rule="evenodd" clip-rule="evenodd" d="M5 4C5 3.44771 5.44772 3 6 3C6.55228 3 7 3.44772 7 4V13.1707C8.16519 13.5825 9 14.6938 9 16C9 17.3062 8.16519 18.4175 7 18.8293V20C7 20.5523 6.55228 21 6 21C5.44772 21 5 20.5523 5 20V18.8293C3.83481 18.4175 3 17.3062 3 16C3 14.6938 3.83481 13.5825 5 13.1707V4ZM6 18C7.10457 18 8 17.1046 8 16C8 14.8954 7.10457 14 6 14C4.89543 14 4 14.8954 4 16C4 17.1046 4.89543 18 6 18Z" fill="#F6F6FE"/>
</svg>
