<svg width="99" height="90" viewBox="0 0 99 90" fill="none" xmlns="http://www.w3.org/2000/svg">
<path d="M49.2836 53.0078V49.7334C49.7962 49.8619 50.2241 50.1014 50.6374 50.3775C50.6374 50.3775 50.9164 50.4563 51.0844 50.2606C51.2523 50.0649 51.0887 49.8386 51.0887 49.8386C50.6082 49.488 49.97 49.2033 49.2836 49.0718V47.7778C49.2836 47.6084 49.1463 47.4697 48.9754 47.4697C48.8046 47.4697 48.6673 47.607 48.6673 47.7778V48.9988C48.6074 48.9959 48.5475 48.9944 48.4891 48.9944C48.3182 48.9944 48.1532 49.0032 47.9955 49.0178V47.7209C47.9955 47.5515 47.8582 47.4127 47.6873 47.4127C47.5164 47.4127 47.3791 47.55 47.3791 47.7209V49.1258C46.1932 49.4325 45.555 50.2417 45.555 51.1588C45.555 52.1855 46.3889 52.7259 47.3791 53.1144V56.7627C46.681 56.5874 46.1348 56.2544 45.6164 55.8659C45.6164 55.8659 45.428 55.7199 45.203 55.9433C44.9796 56.1668 45.1315 56.4107 45.1315 56.4107C45.7186 56.8576 46.4897 57.2431 47.3791 57.4242V58.7518C47.3791 58.9212 47.5164 59.06 47.6873 59.06C47.8582 59.06 47.9955 58.9227 47.9955 58.7518V57.5133C48.1503 57.5265 48.3065 57.5338 48.4657 57.5338C48.5344 57.5338 48.6016 57.5323 48.6673 57.5294V58.8058C48.6673 58.9753 48.8046 59.114 48.9754 59.114C49.1463 59.114 49.2836 58.9767 49.2836 58.8058V57.4651C50.7368 57.2125 51.5313 56.2836 51.5313 55.2394C51.5313 53.9264 50.4549 53.4167 49.2836 53.0078ZM47.3791 52.3141C46.8125 52.041 46.4035 51.6875 46.4035 51.115C46.4035 50.5936 46.7132 50.0825 47.3791 49.8181V52.3141ZM48.6673 56.8941C48.6147 56.8956 48.5621 56.897 48.5081 56.897C48.3284 56.897 48.159 56.8868 47.9955 56.8707V53.3364C48.1488 53.3875 48.3022 53.4372 48.454 53.4854C48.5241 53.5087 48.5957 53.5321 48.6673 53.5555V56.8941ZM48.6673 52.7989C48.6322 52.7872 48.5957 52.7756 48.5607 52.7624C48.3693 52.6982 48.1795 52.6339 47.9955 52.5667V49.6633C48.1415 49.6443 48.2978 49.6341 48.4657 49.6341C48.5344 49.6341 48.6016 49.637 48.6673 49.6399V52.7989ZM49.2836 56.8123V53.7833C50.0416 54.0988 50.6827 54.5398 50.6827 55.292C50.6827 55.9769 50.2066 56.5932 49.2836 56.8123Z" fill="url(#paint0_linear)"/>
<path d="M66.8253 56.6195C65.9651 44.8131 60.76 32.7087 48.0933 32.4122C35.4281 32.1172 29.6081 44.5984 29.4767 56.6195C29.3701 66.523 36.8886 70.6853 48.0933 70.7759C59.5565 70.8679 67.6417 67.8184 66.8253 56.6195ZM48.3431 60.5204C44.3501 60.5204 41.1137 57.284 41.1137 53.2911C41.1137 49.2982 44.3501 46.0618 48.3431 46.0618C52.336 46.0618 55.5724 49.2982 55.5724 53.2911C55.5724 57.2826 52.3345 60.5204 48.3431 60.5204Z" fill="url(#paint1_linear)"/>
<path d="M61.0186 18.7466V10.2423H61.1997V18.6721L62.1825 19.6536V22.6855L65.4073 25.9102V41.4774L69.3754 45.4469L69.2468 45.5755L65.2247 41.5533V25.9862L62 22.7615V19.7295L61.0186 18.7466Z" fill="#4179BA"/>
<path d="M69.5403 45.257C69.6746 45.3899 69.6746 45.6075 69.5403 45.7404C69.4059 45.8748 69.1897 45.8748 69.0568 45.7404C68.9225 45.6061 68.9225 45.3899 69.0568 45.257C69.1897 45.1227 69.4074 45.1227 69.5403 45.257Z" fill="#4179BA"/>
<path d="M61.4511 10.2584C61.4511 10.07 61.2978 9.91663 61.1093 9.91663C60.9209 9.91663 60.7676 10.07 60.7676 10.2584C60.7676 10.4482 60.9209 10.6016 61.1093 10.6016C61.2978 10.6016 61.4511 10.4482 61.4511 10.2584Z" fill="#4179BA"/>
<path d="M57.0713 29.9893V20.9066H57.2524V29.9133L61.33 33.991V49.4836L67.223 55.3781V77.5145H67.0419V55.4526L61.1474 49.5596V34.0655L57.0713 29.9893Z" fill="#4179BA"/>
<path d="M66.791 77.4954C66.791 77.6853 66.9444 77.8386 67.1328 77.8386C67.3226 77.8386 67.476 77.6853 67.476 77.4954C67.476 77.307 67.3226 77.1537 67.1328 77.1537C66.9444 77.1551 66.791 77.307 66.791 77.4954Z" fill="#4179BA"/>
<path d="M65.2168 30.6481L65.3453 30.5195L69.7443 34.917V42.5889L72.395 45.2396V67.062H72.2125V45.3156L69.5617 42.6648V34.993L65.2168 30.6481Z" fill="#4179BA"/>
<path d="M71.9619 67.0444C71.9619 67.2328 72.1153 67.3861 72.3037 67.3861C72.4935 67.3861 72.6454 67.2328 72.6454 67.0444C72.6454 66.8545 72.4921 66.7026 72.3037 66.7026C72.1153 66.7026 71.9619 66.8545 71.9619 67.0444Z" fill="#4179BA"/>
<path d="M65.2617 35.2879L65.3902 35.1594L67.2231 36.9938V39.9293H67.042V37.0683L65.2617 35.2879Z" fill="#4179BA"/>
<path d="M66.791 39.9133C66.791 40.1017 66.9444 40.2551 67.1328 40.2551C67.3226 40.2551 67.476 40.1017 67.476 39.9133C67.476 39.7234 67.3226 39.5715 67.1328 39.5715C66.9444 39.5701 66.791 39.7234 66.791 39.9133Z" fill="#4179BA"/>
<path d="M63.8896 52.2775V47.9268L65.7255 46.0909L65.854 46.2195L64.0722 48.0027V52.2775H63.8896Z" fill="#4179BA"/>
<path d="M66.0202 46.4094C66.1546 46.2765 66.1546 46.0589 66.0202 45.926C65.8859 45.7916 65.6697 45.7916 65.5353 45.926C65.401 46.0589 65.401 46.2765 65.5353 46.4094C65.6697 46.5438 65.8859 46.5438 66.0202 46.4094Z" fill="#4179BA"/>
<path d="M59.4434 51.7825V42.7378L61.1448 41.0364L61.2733 41.1649L59.6259 42.8138V51.708L65.2589 57.3411V65.5796H65.0778V57.417L59.4434 51.7825Z" fill="#4179BA"/>
<path d="M64.8252 65.562C64.8252 65.7504 64.9786 65.9037 65.167 65.9037C65.3568 65.9037 65.5102 65.7504 65.5102 65.562C65.5102 65.3721 65.3568 65.2202 65.167 65.2202C64.9786 65.2188 64.8252 65.3721 64.8252 65.562Z" fill="#4179BA"/>
<path d="M69.8213 62.0205V50.3732L72.2208 47.9736L72.3494 48.1036L70.0038 50.4491V62.0205H69.8213Z" fill="#4179BA"/>
<path d="M69.5703 62.0043C69.5703 62.1927 69.7237 62.3461 69.9121 62.3461C70.1019 62.3461 70.2538 62.1927 70.2538 62.0043C70.2538 61.8145 70.1005 61.6611 69.9121 61.6611C69.7237 61.6611 69.5703 61.8145 69.5703 62.0043Z" fill="#4179BA"/>
<path d="M67.1045 63.2267L67.2345 63.0967L68.8906 64.7543V73.7333H68.7095V64.8303L67.1045 63.2267Z" fill="#4179BA"/>
<path d="M68.459 73.7158C68.459 73.9056 68.6123 74.0575 68.8007 74.0575C68.9891 74.0575 69.1425 73.9042 69.1425 73.7158C69.1425 73.5259 68.9891 73.374 68.8007 73.374C68.6123 73.374 68.459 73.5259 68.459 73.7158Z" fill="#4179BA"/>
<path d="M61.0166 76.5622L63.0394 74.5395V61.4551L65.1045 59.39L65.233 59.5185L63.2205 61.5311V74.6154L61.1451 76.6908L61.0166 76.5622Z" fill="#4179BA"/>
<path d="M60.8498 76.3724C60.7154 76.5067 60.7154 76.7229 60.8498 76.8573C60.9842 76.9902 61.2003 76.9902 61.3332 76.8573C61.4676 76.7229 61.4676 76.5067 61.3332 76.3724C61.2003 76.238 60.9842 76.238 60.8498 76.3724Z" fill="#4179BA"/>
<path d="M62 15.0517V11.4575L63.8811 9.57642L64.0096 9.70494L62.1826 11.5334V14.9758L69.187 21.9816V27.0962L74.636 32.5452V39.7819H74.4534V32.6212L69.0059 27.1722V22.0576L62 15.0517Z" fill="#4179BA"/>
<path d="M74.8871 39.7644C74.8871 39.9528 74.7338 40.1076 74.5454 40.1076C74.3555 40.1076 74.2021 39.9528 74.2021 39.7644C74.2021 39.576 74.3555 39.4226 74.5454 39.4226C74.7338 39.4226 74.8871 39.576 74.8871 39.7644Z" fill="#4179BA"/>
<path d="M64.175 9.89473C64.3093 9.76037 64.3093 9.54422 64.175 9.41132C64.0421 9.27696 63.8245 9.27696 63.6916 9.41132C63.5572 9.54422 63.5572 9.76183 63.6916 9.89473C63.8245 10.0291 64.0421 10.0291 64.175 9.89473Z" fill="#4179BA"/>
<path d="M63.8535 20.3518V16.8671H64.0361V20.2758L67.1118 23.353V26.4375H66.9292V23.4275L63.8535 20.3518Z" fill="#4179BA"/>
<path d="M66.6777 26.4215C66.6777 26.6099 66.8311 26.7632 67.0195 26.7632C67.2094 26.7632 67.3613 26.6099 67.3613 26.4215C67.3613 26.2316 67.2079 26.0782 67.0195 26.0782C66.8311 26.0782 66.6777 26.2316 66.6777 26.4215Z" fill="#4179BA"/>
<path d="M71.1553 37.0683V29.2839H71.3378V36.9938L72.9502 38.6047V43.0343L73.7038 43.7879L73.5752 43.9179L72.7676 43.1102V38.6806L71.1553 37.0683Z" fill="#4179BA"/>
<path d="M73.385 44.083C73.5179 44.2173 73.7355 44.2173 73.8698 44.083C74.0027 43.9486 74.0027 43.7325 73.8698 43.5996C73.7355 43.4652 73.5193 43.4652 73.385 43.5996C73.2506 43.7325 73.2506 43.9486 73.385 44.083Z" fill="#4179BA"/>
<path d="M67.2256 32.6197V30.0989L68.4319 28.894L68.5605 29.0226L67.4081 30.1734V32.6197H67.2256Z" fill="#4179BA"/>
<path d="M68.7248 29.2124C68.8592 29.0795 68.8592 28.8618 68.7248 28.7289C68.5905 28.5946 68.3743 28.5946 68.2414 28.7289C68.107 28.8618 68.107 29.0795 68.2414 29.2124C68.3743 29.3467 68.5919 29.3467 68.7248 29.2124Z" fill="#4179BA"/>
<path d="M72.7734 69.9376L74.101 68.6086V54.2828L76.0844 52.3009V43.8142L72.8114 40.5427L72.9414 40.4127L76.2669 43.7382V52.3769L74.2836 54.3588V68.6845L72.902 70.0661L72.7734 69.9376Z" fill="#4179BA"/>
<path d="M72.6086 69.7478C72.4742 69.8807 72.4742 70.0983 72.6086 70.2312C72.7429 70.3656 72.9591 70.3656 73.0935 70.2312C73.2278 70.0968 73.2278 69.8807 73.0935 69.7478C72.9591 69.6148 72.7415 69.6148 72.6086 69.7478Z" fill="#4179BA"/>
<path d="M66.7051 51.784L67.5229 50.9661V43.8142H67.7055V51.0421L66.8336 51.914L66.7051 51.784Z" fill="#4179BA"/>
<path d="M66.5402 51.5942C66.4059 51.7285 66.4059 51.9447 66.5402 52.079C66.6746 52.2134 66.8907 52.2134 67.0236 52.079C67.158 51.9447 67.158 51.7285 67.0236 51.5942C66.8907 51.4613 66.6731 51.4613 66.5402 51.5942Z" fill="#4179BA"/>
<path d="M74.1523 52.1534V47.9779L76.105 46.0267L76.2335 46.1553L74.3349 48.0539V52.1534H74.1523Z" fill="#4179BA"/>
<path d="M73.9014 52.1373C73.9014 52.3257 74.0547 52.479 74.2431 52.479C74.4315 52.479 74.5849 52.3257 74.5849 52.1373C74.5849 51.9474 74.4315 51.7941 74.2431 51.7941C74.0547 51.7941 73.9014 51.9474 73.9014 52.1373Z" fill="#4179BA"/>
<path d="M68.5518 60.5176V55.2949L69.8194 54.0272L69.948 54.1557L68.7343 55.3709V60.5176H68.5518Z" fill="#4179BA"/>
<path d="M68.3008 60.5001C68.3008 60.6899 68.4541 60.8418 68.6425 60.8418C68.8324 60.8418 68.9857 60.6885 68.9857 60.5001C68.9857 60.3102 68.8324 60.1583 68.6425 60.1583C68.4541 60.1583 68.3008 60.3102 68.3008 60.5001Z" fill="#4179BA"/>
<path d="M74.1455 57.6404L74.274 57.5104L77.4622 60.6986V74.1174L79.9071 76.5622L79.7785 76.6908L77.2797 74.1919V60.7745L74.1455 57.6404Z" fill="#4179BA"/>
<path d="M79.5891 76.8573C79.7234 76.9916 79.9396 76.9916 80.0725 76.8573C80.2068 76.7229 80.2068 76.5067 80.0725 76.3724C79.9381 76.238 79.722 76.238 79.5891 76.3724C79.4547 76.5067 79.4547 76.7229 79.5891 76.8573Z" fill="#4179BA"/>
<path d="M56 21.1812V9.77344H56.2293V21.0862L61.3497 26.2081V45.6689L68.7528 53.0734V80.8793H68.525V53.1669L61.1219 45.7638V26.303L56 21.1812Z" fill="white"/>
<path d="M68.208 80.8575C68.208 81.0955 68.4008 81.2883 68.6374 81.2883C68.8754 81.2883 69.0682 81.0955 69.0682 80.8575C69.0682 80.6209 68.8754 80.4281 68.6374 80.4281C68.4008 80.4281 68.208 80.6209 68.208 80.8575Z" fill="white"/>
<path d="M64.5674 49.1798V43.7133L66.872 41.4087L67.0341 41.5693L64.7952 43.8082V49.1798H64.5674Z" fill="white"/>
<path d="M67.2438 41.8088C67.4117 41.6409 67.4117 41.3678 67.2438 41.2013C67.0758 41.0333 66.8027 41.0333 66.6348 41.2013C66.4668 41.3692 66.4668 41.6423 66.6348 41.8088C66.8027 41.9768 67.0744 41.9768 67.2438 41.8088Z" fill="white"/>
<path d="M58.9785 48.5577V37.1953L61.1166 35.0586L61.2788 35.2192L59.2078 37.2902V48.4643L66.2853 55.5402V65.8877H66.056V55.6352L58.9785 48.5577Z" fill="white"/>
<path d="M65.7402 65.8658C65.7402 66.1024 65.933 66.2952 66.1696 66.2952C66.4077 66.2952 66.6005 66.1024 66.6005 65.8658C66.6005 65.6277 66.4077 65.4364 66.1696 65.4364C65.933 65.4364 65.7402 65.6277 65.7402 65.8658Z" fill="white"/>
<path d="M68.6035 62.9316L68.7656 62.7695L70.8483 64.8522V76.1299H70.619V64.9471L68.6035 62.9316Z" fill="white"/>
<path d="M70.3037 76.108C70.3037 76.346 70.4965 76.5373 70.7331 76.5373C70.9711 76.5373 71.1639 76.3446 71.1639 76.108C71.1639 75.8699 70.9711 75.6786 70.7331 75.6786C70.4965 75.6786 70.3037 75.8714 70.3037 76.108Z" fill="white"/>
<path d="M60.9541 79.6832L63.4953 77.1435V60.7073L66.0891 58.1135L66.2498 58.2756L63.7231 60.8037V77.2384L61.1162 79.8468L60.9541 79.6832Z" fill="white"/>
<path d="M60.7461 79.4451C60.5781 79.613 60.5781 79.8861 60.7461 80.0541C60.914 80.222 61.1872 80.222 61.3537 80.0541C61.5216 79.8861 61.5216 79.613 61.3537 79.4451C61.1872 79.2771 60.9155 79.2771 60.7461 79.4451Z" fill="white"/>
<path d="M68.1025 48.5591L69.1307 47.531V38.5476H69.36V47.6273L68.2647 48.7227L68.1025 48.5591Z" fill="white"/>
<path d="M67.8945 48.321C67.7266 48.489 67.7266 48.7621 67.8945 48.93C68.0625 49.098 68.3341 49.098 68.502 48.93C68.67 48.7606 68.67 48.489 68.502 48.321C68.3341 48.1531 68.0625 48.1531 67.8945 48.321Z" fill="white"/>
<g opacity="0.56">
<g opacity="0.56">
<g opacity="0.56">
<path opacity="0.56" d="M56 21.1812V9.77344H56.2293V21.0862L61.3497 26.2081V45.6689L68.7528 53.0734V80.8793H68.525V53.1669L61.1219 45.7638V26.303L56 21.1812Z" fill="url(#paint2_linear)"/>
</g>
<g opacity="0.56">
<path opacity="0.56" d="M68.208 80.8575C68.208 81.0955 68.4008 81.2883 68.6374 81.2883C68.8754 81.2883 69.0682 81.0955 69.0682 80.8575C69.0682 80.6209 68.8754 80.4281 68.6374 80.4281C68.4008 80.4281 68.208 80.6209 68.208 80.8575Z" fill="url(#paint3_linear)"/>
</g>
</g>
<g opacity="0.56">
<g opacity="0.56">
<path opacity="0.56" d="M64.5674 49.1798V43.7133L66.872 41.4087L67.0341 41.5693L64.7952 43.8082V49.1798H64.5674Z" fill="url(#paint4_linear)"/>
</g>
<g opacity="0.56">
<path opacity="0.56" d="M67.2438 41.8088C67.4117 41.6409 67.4117 41.3678 67.2438 41.2013C67.0758 41.0333 66.8027 41.0333 66.6348 41.2013C66.4668 41.3692 66.4668 41.6423 66.6348 41.8088C66.8027 41.9768 67.0744 41.9768 67.2438 41.8088Z" fill="url(#paint5_linear)"/>
</g>
</g>
<g opacity="0.56">
<g opacity="0.56">
<path opacity="0.56" d="M58.9785 48.5577V37.1953L61.1166 35.0586L61.2788 35.2192L59.2078 37.2902V48.4643L66.2853 55.5402V65.8877H66.056V55.6352L58.9785 48.5577Z" fill="url(#paint6_linear)"/>
</g>
<g opacity="0.56">
<path opacity="0.56" d="M65.7402 65.8658C65.7402 66.1024 65.933 66.2952 66.1696 66.2952C66.4077 66.2952 66.6005 66.1024 66.6005 65.8658C66.6005 65.6277 66.4077 65.4364 66.1696 65.4364C65.933 65.4364 65.7402 65.6277 65.7402 65.8658Z" fill="url(#paint7_linear)"/>
</g>
</g>
<g opacity="0.56">
<g opacity="0.56">
<path opacity="0.56" d="M68.6035 62.9316L68.7656 62.7695L70.8483 64.8522V76.1299H70.619V64.9471L68.6035 62.9316Z" fill="url(#paint8_linear)"/>
</g>
<g opacity="0.56">
<path opacity="0.56" d="M70.3037 76.108C70.3037 76.346 70.4965 76.5373 70.7331 76.5373C70.9711 76.5373 71.1639 76.3446 71.1639 76.108C71.1639 75.8699 70.9711 75.6786 70.7331 75.6786C70.4965 75.6786 70.3037 75.8714 70.3037 76.108Z" fill="url(#paint9_linear)"/>
</g>
</g>
<g opacity="0.56">
<g opacity="0.56">
<path opacity="0.56" d="M60.9541 79.6832L63.4953 77.1435V60.7073L66.0891 58.1135L66.2498 58.2756L63.7231 60.8037V77.2384L61.1162 79.8468L60.9541 79.6832Z" fill="url(#paint10_linear)"/>
</g>
<g opacity="0.56">
<path opacity="0.56" d="M60.7461 79.4451C60.5781 79.613 60.5781 79.8861 60.7461 80.0541C60.914 80.222 61.1872 80.222 61.3537 80.0541C61.5216 79.8861 61.5216 79.613 61.3537 79.4451C61.1872 79.2771 60.9155 79.2771 60.7461 79.4451Z" fill="url(#paint11_linear)"/>
</g>
</g>
<g opacity="0.56">
<g opacity="0.56">
<path opacity="0.56" d="M68.1025 48.5591L69.1307 47.531V38.5476H69.36V47.6273L68.2647 48.7227L68.1025 48.5591Z" fill="url(#paint12_linear)"/>
</g>
<g opacity="0.56">
<path opacity="0.56" d="M67.8945 48.321C67.7266 48.489 67.7266 48.7621 67.8945 48.93C68.0625 49.098 68.3341 49.098 68.502 48.93C68.67 48.7606 68.67 48.489 68.502 48.321C68.3341 48.1531 68.0625 48.1531 67.8945 48.321Z" fill="url(#paint13_linear)"/>
</g>
</g>
</g>
<path d="M56 21.1812V9.77344H56.2293V21.0862L61.3497 26.2081V45.6689L68.7528 53.0734V80.8793H68.525V53.1669L61.1219 45.7638V26.303L56 21.1812Z" fill="url(#paint14_linear)"/>
<path d="M68.208 80.8575C68.208 81.0955 68.4008 81.2883 68.6374 81.2883C68.8754 81.2883 69.0682 81.0955 69.0682 80.8575C69.0682 80.6209 68.8754 80.4281 68.6374 80.4281C68.4008 80.4281 68.208 80.6209 68.208 80.8575Z" fill="url(#paint15_linear)"/>
<path d="M64.5674 49.1798V43.7133L66.872 41.4087L67.0341 41.5693L64.7952 43.8082V49.1798H64.5674Z" fill="url(#paint16_linear)"/>
<path d="M67.2438 41.8088C67.4117 41.6409 67.4117 41.3678 67.2438 41.2013C67.0758 41.0333 66.8027 41.0333 66.6348 41.2013C66.4668 41.3692 66.4668 41.6423 66.6348 41.8088C66.8027 41.9768 67.0744 41.9768 67.2438 41.8088Z" fill="url(#paint17_linear)"/>
<path d="M58.9785 48.5577V37.1953L61.1166 35.0586L61.2788 35.2192L59.2078 37.2902V48.4643L66.2853 55.5402V65.8877H66.056V55.6352L58.9785 48.5577Z" fill="url(#paint18_linear)"/>
<path d="M65.7402 65.8658C65.7402 66.1024 65.933 66.2952 66.1696 66.2952C66.4077 66.2952 66.6005 66.1024 66.6005 65.8658C66.6005 65.6277 66.4077 65.4364 66.1696 65.4364C65.933 65.4364 65.7402 65.6277 65.7402 65.8658Z" fill="url(#paint19_linear)"/>
<path d="M68.6035 62.9316L68.7656 62.7695L70.8483 64.8522V76.1299H70.619V64.9471L68.6035 62.9316Z" fill="url(#paint20_linear)"/>
<path d="M70.3037 76.108C70.3037 76.346 70.4965 76.5373 70.7331 76.5373C70.9711 76.5373 71.1639 76.3446 71.1639 76.108C71.1639 75.8699 70.9711 75.6786 70.7331 75.6786C70.4965 75.6786 70.3037 75.8714 70.3037 76.108Z" fill="url(#paint21_linear)"/>
<path d="M60.9541 79.6832L63.4953 77.1435V60.7073L66.0891 58.1135L66.2498 58.2756L63.7231 60.8037V77.2384L61.1162 79.8468L60.9541 79.6832Z" fill="url(#paint22_linear)"/>
<path d="M60.7461 79.4451C60.5781 79.613 60.5781 79.8861 60.7461 80.0541C60.914 80.222 61.1872 80.222 61.3537 80.0541C61.5216 79.8861 61.5216 79.613 61.3537 79.4451C61.1872 79.2771 60.9155 79.2771 60.7461 79.4451Z" fill="url(#paint23_linear)"/>
<path d="M68.1025 48.5591L69.1307 47.531V38.5476H69.36V47.6273L68.2647 48.7227L68.1025 48.5591Z" fill="url(#paint24_linear)"/>
<path d="M67.8945 48.321C67.7266 48.489 67.7266 48.7621 67.8945 48.93C68.0625 49.098 68.3341 49.098 68.502 48.93C68.67 48.7606 68.67 48.489 68.502 48.321C68.3341 48.1531 68.0625 48.1531 67.8945 48.321Z" fill="url(#paint25_linear)"/>
<path d="M42.4488 28.5332C41.59 26.3454 40.1281 24.5228 38.6311 22.722C38.1594 22.1539 37.7008 21.5756 37.2627 20.9826C37.0582 20.7051 36.6843 20.4159 36.972 20.0216C37.159 19.7631 37.5212 19.8011 37.825 19.7777C38.4164 19.7324 38.9072 19.9851 39.3541 20.3225C39.6973 20.581 39.9923 20.9008 40.3282 21.171C42.1582 22.6475 43.3601 22.687 45.3376 21.3433C45.5917 21.171 45.8342 20.9811 46.0751 20.7884C47.3428 19.7748 48.5974 20.0202 49.6504 20.7533C50.2039 21.1389 50.68 21.6325 51.2262 22.0298C52.4326 22.9075 53.1964 22.8944 54.4144 22.021C54.6642 21.8428 54.9125 21.6544 55.1286 21.4368C56.4372 20.1209 58.0364 19.969 59.7525 20.2611C60.3323 20.3604 60.4126 20.6277 59.9934 21.1287C59.6385 21.5536 59.2763 21.9728 58.901 22.3803C57.2317 24.1869 55.5332 25.9672 54.1983 28.0527C53.9281 28.4763 53.6039 28.8429 53.008 28.7348C49.7 28.1374 46.3789 28.504 43.0622 28.5975C42.8811 28.6004 42.7 28.5595 42.4488 28.5332Z" fill="url(#paint26_linear)"/>
<path d="M48.0928 29.554C50.6311 29.5467 54.7379 29.7702 54.0588 30.5588C52.7619 32.0675 50.7304 31.2321 48.0928 31.2219C45.4537 31.2116 42.4963 31.8586 41.5061 30.5223C40.9058 29.7117 45.5559 29.5613 48.0928 29.554Z" fill="url(#paint27_linear)"/>
<defs>
<linearGradient id="paint0_linear" x1="48.2054" y1="71.1404" x2="48.541" y2="19.9059" gradientUnits="userSpaceOnUse">
<stop offset="0.0153" stop-color="#7AC8CB"/>
<stop offset="1" stop-color="#0072B7"/>
</linearGradient>
<linearGradient id="paint1_linear" x1="48.0902" y1="71.1396" x2="48.4258" y2="19.9051" gradientUnits="userSpaceOnUse">
<stop offset="0.0153" stop-color="#7AC8CB"/>
<stop offset="1" stop-color="#0072B7"/>
</linearGradient>
<linearGradient id="paint2_linear" x1="62.3123" y1="18.0303" x2="62.4922" y2="71.6428" gradientUnits="userSpaceOnUse">
<stop stop-color="#7C18FF"/>
<stop offset="0.3265" stop-color="#895AB2"/>
<stop offset="1" stop-color="#0072B7"/>
</linearGradient>
<linearGradient id="paint3_linear" x1="68.4279" y1="18.01" x2="68.6078" y2="71.6224" gradientUnits="userSpaceOnUse">
<stop stop-color="#7C18FF"/>
<stop offset="0.3265" stop-color="#895AB2"/>
<stop offset="1" stop-color="#0072B7"/>
</linearGradient>
<linearGradient id="paint4_linear" x1="65.7088" y1="18.0189" x2="65.8887" y2="71.6314" gradientUnits="userSpaceOnUse">
<stop stop-color="#7C18FF"/>
<stop offset="0.3265" stop-color="#895AB2"/>
<stop offset="1" stop-color="#0072B7"/>
</linearGradient>
<linearGradient id="paint5_linear" x1="66.8601" y1="18.0152" x2="67.04" y2="71.6274" gradientUnits="userSpaceOnUse">
<stop stop-color="#7C18FF"/>
<stop offset="0.3265" stop-color="#895AB2"/>
<stop offset="1" stop-color="#0072B7"/>
</linearGradient>
<linearGradient id="paint6_linear" x1="62.5177" y1="18.0297" x2="62.6976" y2="71.6422" gradientUnits="userSpaceOnUse">
<stop stop-color="#7C18FF"/>
<stop offset="0.3265" stop-color="#895AB2"/>
<stop offset="1" stop-color="#0072B7"/>
</linearGradient>
<linearGradient id="paint7_linear" x1="66.0093" y1="18.0179" x2="66.1892" y2="71.6305" gradientUnits="userSpaceOnUse">
<stop stop-color="#7C18FF"/>
<stop offset="0.3265" stop-color="#895AB2"/>
<stop offset="1" stop-color="#0072B7"/>
</linearGradient>
<linearGradient id="paint8_linear" x1="69.5718" y1="18.006" x2="69.7517" y2="71.6184" gradientUnits="userSpaceOnUse">
<stop stop-color="#7C18FF"/>
<stop offset="0.3265" stop-color="#895AB2"/>
<stop offset="1" stop-color="#0072B7"/>
</linearGradient>
<linearGradient id="paint9_linear" x1="70.5387" y1="18.0026" x2="70.7187" y2="71.6152" gradientUnits="userSpaceOnUse">
<stop stop-color="#7C18FF"/>
<stop offset="0.3265" stop-color="#895AB2"/>
<stop offset="1" stop-color="#0072B7"/>
</linearGradient>
<linearGradient id="paint10_linear" x1="63.4311" y1="18.0265" x2="63.611" y2="71.639" gradientUnits="userSpaceOnUse">
<stop stop-color="#7C18FF"/>
<stop offset="0.3265" stop-color="#895AB2"/>
<stop offset="1" stop-color="#0072B7"/>
</linearGradient>
<linearGradient id="paint11_linear" x1="60.8437" y1="18.0368" x2="61.0236" y2="71.6478" gradientUnits="userSpaceOnUse">
<stop stop-color="#7C18FF"/>
<stop offset="0.3265" stop-color="#895AB2"/>
<stop offset="1" stop-color="#0072B7"/>
</linearGradient>
<linearGradient id="paint12_linear" x1="68.6452" y1="18.0091" x2="68.8251" y2="71.6215" gradientUnits="userSpaceOnUse">
<stop stop-color="#7C18FF"/>
<stop offset="0.3265" stop-color="#895AB2"/>
<stop offset="1" stop-color="#0072B7"/>
</linearGradient>
<linearGradient id="paint13_linear" x1="68.0952" y1="18.0111" x2="68.2751" y2="71.6231" gradientUnits="userSpaceOnUse">
<stop stop-color="#7C18FF"/>
<stop offset="0.3265" stop-color="#895AB2"/>
<stop offset="1" stop-color="#0072B7"/>
</linearGradient>
<linearGradient id="paint14_linear" x1="62.7476" y1="68.4387" x2="62.2079" y2="22.9221" gradientUnits="userSpaceOnUse">
<stop stop-color="#0072B7"/>
<stop offset="1" stop-color="#5931B7" stop-opacity="0.6"/>
</linearGradient>
<linearGradient id="paint15_linear" x1="68.4907" y1="68.3707" x2="67.951" y2="22.8542" gradientUnits="userSpaceOnUse">
<stop stop-color="#0072B7"/>
<stop offset="1" stop-color="#5931B7" stop-opacity="0.6"/>
</linearGradient>
<linearGradient id="paint16_linear" x1="66.0736" y1="68.3993" x2="65.5339" y2="22.8827" gradientUnits="userSpaceOnUse">
<stop stop-color="#0072B7"/>
<stop offset="1" stop-color="#5931B7" stop-opacity="0.6"/>
</linearGradient>
<linearGradient id="paint17_linear" x1="67.2576" y1="68.3851" x2="66.7179" y2="22.8687" gradientUnits="userSpaceOnUse">
<stop stop-color="#0072B7"/>
<stop offset="1" stop-color="#5931B7" stop-opacity="0.6"/>
</linearGradient>
<linearGradient id="paint18_linear" x1="62.8262" y1="68.4379" x2="62.2865" y2="22.9212" gradientUnits="userSpaceOnUse">
<stop stop-color="#0072B7"/>
<stop offset="1" stop-color="#5931B7" stop-opacity="0.6"/>
</linearGradient>
<linearGradient id="paint19_linear" x1="66.1999" y1="68.3979" x2="65.6602" y2="22.8812" gradientUnits="userSpaceOnUse">
<stop stop-color="#0072B7"/>
<stop offset="1" stop-color="#5931B7" stop-opacity="0.6"/>
</linearGradient>
<linearGradient id="paint20_linear" x1="69.7787" y1="68.3554" x2="69.239" y2="22.8388" gradientUnits="userSpaceOnUse">
<stop stop-color="#0072B7"/>
<stop offset="1" stop-color="#5931B7" stop-opacity="0.6"/>
</linearGradient>
<linearGradient id="paint21_linear" x1="70.6417" y1="68.3451" x2="70.1019" y2="22.8284" gradientUnits="userSpaceOnUse">
<stop stop-color="#0072B7"/>
<stop offset="1" stop-color="#5931B7" stop-opacity="0.6"/>
</linearGradient>
<linearGradient id="paint22_linear" x1="63.5956" y1="68.4287" x2="63.0558" y2="22.912" gradientUnits="userSpaceOnUse">
<stop stop-color="#0072B7"/>
<stop offset="1" stop-color="#5931B7" stop-opacity="0.6"/>
</linearGradient>
<linearGradient id="paint23_linear" x1="60.9169" y1="68.4606" x2="60.3772" y2="22.9452" gradientUnits="userSpaceOnUse">
<stop stop-color="#0072B7"/>
<stop offset="1" stop-color="#5931B7" stop-opacity="0.6"/>
</linearGradient>
<linearGradient id="paint24_linear" x1="69.0251" y1="68.3643" x2="68.4854" y2="22.8477" gradientUnits="userSpaceOnUse">
<stop stop-color="#0072B7"/>
<stop offset="1" stop-color="#5931B7" stop-opacity="0.6"/>
</linearGradient>
<linearGradient id="paint25_linear" x1="68.4321" y1="68.3711" x2="67.8923" y2="22.8549" gradientUnits="userSpaceOnUse">
<stop stop-color="#0072B7"/>
<stop offset="1" stop-color="#5931B7" stop-opacity="0.6"/>
</linearGradient>
<linearGradient id="paint26_linear" x1="48.2301" y1="71.1406" x2="48.5657" y2="19.9061" gradientUnits="userSpaceOnUse">
<stop offset="0.0153" stop-color="#7AC8CB"/>
<stop offset="1" stop-color="#0072B7"/>
</linearGradient>
<linearGradient id="paint27_linear" x1="47.5271" y1="71.1358" x2="47.8627" y2="19.9014" gradientUnits="userSpaceOnUse">
<stop offset="0.0153" stop-color="#7AC8CB"/>
<stop offset="1" stop-color="#0072B7"/>
</linearGradient>
</defs>
</svg>
