<svg width="95" height="90" viewBox="0 0 95 90" fill="none" xmlns="http://www.w3.org/2000/svg">
<path d="M61.9663 16.8579V7.71765H62.1626V16.7776L63.2169 17.8331V21.0902L66.683 24.555V41.2854L70.9472 45.5495L70.8095 45.6885L66.4867 41.3657V24.6366L63.0218 21.1718V17.9134L61.9663 16.8579Z" fill="#4179BA"/>
<path d="M71.1257 45.3468C71.2698 45.4896 71.2698 45.7229 71.1257 45.8669C70.9817 46.011 70.7484 46.011 70.6056 45.8669C70.4615 45.7229 70.4615 45.4896 70.6056 45.3468C70.7484 45.2028 70.9817 45.2028 71.1257 45.3468Z" fill="#4179BA"/>
<path d="M62.4316 7.73543C62.4316 7.53273 62.2672 7.36829 62.0632 7.36829C61.8605 7.36829 61.6948 7.53273 61.6948 7.73543C61.6948 7.93939 61.8593 8.10384 62.0632 8.10384C62.2672 8.10384 62.4316 7.93939 62.4316 7.73543Z" fill="#4179BA"/>
<path d="M57.7236 28.939V19.1792H57.92V28.8574L62.3014 33.2388V49.8888L68.6345 56.222V80.0108H68.4382V56.3023L62.1051 49.9692V33.3204L57.7236 28.939Z" fill="#4179BA"/>
<path d="M68.168 79.9917C68.168 80.1956 68.3324 80.3601 68.5364 80.3601C68.7391 80.3601 68.9048 80.1956 68.9048 79.9917C68.9048 79.789 68.7404 79.6245 68.5364 79.6245C68.3337 79.6245 68.168 79.789 68.168 79.9917Z" fill="#4179BA"/>
<path d="M66.4775 29.6465L66.6165 29.5088L71.3434 34.2344V42.4798L74.1913 45.3276V68.7786H73.995V45.4079L71.1471 42.5613V34.316L66.4775 29.6465Z" fill="#4179BA"/>
<path d="M73.7246 68.7595C73.7246 68.9622 73.889 69.1279 74.093 69.1279C74.2957 69.1279 74.4614 68.9635 74.4614 68.7595C74.4614 68.5556 74.297 68.3911 74.093 68.3911C73.889 68.3924 73.7246 68.5568 73.7246 68.7595Z" fill="#4179BA"/>
<path d="M66.5264 34.6335L66.664 34.4945L68.6349 36.4653V39.6217H68.4385V36.5469L66.5264 34.6335Z" fill="#4179BA"/>
<path d="M68.1685 39.6038C68.1685 39.8065 68.3329 39.9722 68.5369 39.9722C68.7396 39.9722 68.9053 39.8077 68.9053 39.6038C68.9053 39.3998 68.7408 39.2354 68.5369 39.2354C68.3342 39.2354 68.1685 39.3998 68.1685 39.6038Z" fill="#4179BA"/>
<path d="M65.0527 52.8909V48.215L67.0248 46.2429L67.1638 46.3806L65.2491 48.2966V52.8909H65.0527Z" fill="#4179BA"/>
<path d="M67.342 46.5858C67.4861 46.443 67.4861 46.2085 67.342 46.0657C67.198 45.9216 66.9647 45.9216 66.8219 46.0657C66.6779 46.2085 66.6779 46.443 66.8219 46.5858C66.9647 46.7286 67.198 46.7286 67.342 46.5858Z" fill="#4179BA"/>
<path d="M60.2729 52.3594V42.6391L62.101 40.8098L62.2399 40.9488L60.468 42.7194V52.2791L66.5232 58.333V67.1852H66.3269V58.4146L60.2729 52.3594Z" fill="#4179BA"/>
<path d="M66.0566 67.166C66.0566 67.3687 66.2211 67.5344 66.4251 67.5344C66.629 67.5344 66.7935 67.37 66.7935 67.166C66.7935 66.9621 66.629 66.7976 66.4251 66.7976C66.2224 66.7989 66.0566 66.9633 66.0566 67.166Z" fill="#4179BA"/>
<path d="M71.4258 63.3607V50.8449L74.0034 48.266L74.1411 48.4049L71.6208 50.9265V63.3607H71.4258Z" fill="#4179BA"/>
<path d="M71.1558 63.3429C71.1558 63.5456 71.3202 63.7113 71.5242 63.7113C71.7269 63.7113 71.8926 63.5468 71.8926 63.3429C71.8926 63.1389 71.7281 62.9745 71.5242 62.9745C71.3202 62.9745 71.1558 63.1389 71.1558 63.3429Z" fill="#4179BA"/>
<path d="M68.5073 64.6573L68.6463 64.5183L70.4272 66.2992V75.9481H70.2308V66.3808L68.5073 64.6573Z" fill="#4179BA"/>
<path d="M69.9604 75.929C69.9604 76.1329 70.1249 76.2974 70.3289 76.2974C70.5328 76.2974 70.6973 76.1329 70.6973 75.929C70.6973 75.725 70.5328 75.5605 70.3289 75.5605C70.1249 75.5605 69.9604 75.7263 69.9604 75.929Z" fill="#4179BA"/>
<path d="M61.9634 78.9871L64.1369 76.8136V62.754L66.3563 60.5345L66.494 60.6735L64.3319 62.8355V76.8952L62.1011 79.126L61.9634 78.9871Z" fill="#4179BA"/>
<path d="M61.7848 78.7843C61.6407 78.9284 61.6407 79.1616 61.7848 79.3044C61.9289 79.4472 62.1621 79.4472 62.3049 79.3044C62.449 79.1604 62.449 78.9271 62.3049 78.7843C62.1621 78.6403 61.9289 78.6403 61.7848 78.7843Z" fill="#4179BA"/>
<path d="M63.0215 12.8867V9.02413L65.042 7.00232L65.181 7.14127L63.2165 9.10572V12.8052L70.7442 20.3328V25.8297L76.6005 31.686V39.4622H76.4042V31.7676L70.5491 25.9112V20.4144L63.0215 12.8867Z" fill="#4179BA"/>
<path d="M76.8711 39.4445C76.8711 39.6472 76.7067 39.8129 76.5027 39.8129C76.2987 39.8129 76.1343 39.6472 76.1343 39.4445C76.1343 39.2418 76.2987 39.076 76.5027 39.076C76.7054 39.076 76.8711 39.2405 76.8711 39.4445Z" fill="#4179BA"/>
<path d="M65.3581 7.34531C65.5022 7.20126 65.5022 6.96798 65.3581 6.8252C65.2141 6.68115 64.9808 6.68115 64.838 6.8252C64.694 6.96798 64.694 7.20126 64.838 7.34531C64.9821 7.48936 65.2154 7.48936 65.3581 7.34531Z" fill="#4179BA"/>
<path d="M65.0127 18.5826V14.8373H65.209V18.501L68.5145 21.8078V25.1223H68.3195V21.8881L65.0127 18.5826Z" fill="#4179BA"/>
<path d="M68.0493 25.1044C68.0493 25.3071 68.2138 25.4715 68.4177 25.4715C68.6204 25.4715 68.7862 25.3071 68.7862 25.1044C68.7862 24.9004 68.6217 24.736 68.4177 24.736C68.2138 24.736 68.0493 24.9004 68.0493 25.1044Z" fill="#4179BA"/>
<path d="M72.8594 36.5469V28.1804H73.0557V36.4653L74.7881 38.1977V42.9578L75.5976 43.7672L75.4599 43.9062L74.5931 43.0381V38.2793L72.8594 36.5469Z" fill="#4179BA"/>
<path d="M75.256 44.0833C75.4 44.2274 75.6333 44.2274 75.7761 44.0833C75.9201 43.9393 75.9201 43.706 75.7761 43.5632C75.632 43.4192 75.4 43.4192 75.256 43.5632C75.1119 43.7073 75.1119 43.9393 75.256 44.0833Z" fill="#4179BA"/>
<path d="M68.6382 31.7652V29.0562L69.9321 27.7623L70.0711 27.9L68.8332 29.1366V31.7652H68.6382Z" fill="#4179BA"/>
<path d="M70.2497 28.104C70.3938 27.9612 70.3938 27.7279 70.2497 27.5839C70.1057 27.4398 69.8724 27.4398 69.7296 27.5839C69.5856 27.7266 69.5856 27.9612 69.7296 28.104C69.8724 28.248 70.1057 28.248 70.2497 28.104Z" fill="#4179BA"/>
<path d="M74.5996 71.8687L76.0261 70.4409V55.0453L78.1575 52.9152V43.7953L74.6417 40.2795L74.7794 40.1405L78.3539 43.7137V52.9967L76.2224 55.1269V70.5225L74.7386 72.0064L74.5996 71.8687Z" fill="#4179BA"/>
<path d="M74.421 71.6647C74.277 71.8075 74.277 72.0408 74.421 72.1848C74.5651 72.3289 74.7984 72.3289 74.9411 72.1848C75.0852 72.0408 75.0852 71.8075 74.9411 71.6647C74.7984 71.5219 74.5651 71.5219 74.421 71.6647Z" fill="#4179BA"/>
<path d="M68.0762 52.3606L68.9558 51.481V43.7953H69.1521V51.5626L68.2151 52.4995L68.0762 52.3606Z" fill="#4179BA"/>
<path d="M67.8991 52.1566C67.755 52.3007 67.755 52.534 67.8991 52.678C68.0431 52.8221 68.2751 52.8221 68.4192 52.678C68.5632 52.534 68.5632 52.3007 68.4192 52.1566C68.2751 52.0139 68.0431 52.0139 67.8991 52.1566Z" fill="#4179BA"/>
<path d="M76.0806 52.7571V48.2711L78.1801 46.1729L78.3178 46.3118L76.2769 48.3514V52.7571H76.0806Z" fill="#4179BA"/>
<path d="M75.8115 52.7392C75.8115 52.9419 75.976 53.1064 76.1799 53.1064C76.3826 53.1064 76.5483 52.9419 76.5483 52.7392C76.5483 52.5353 76.3839 52.3708 76.1799 52.3708C75.976 52.3708 75.8115 52.5366 75.8115 52.7392Z" fill="#4179BA"/>
<path d="M70.062 61.7456V56.1327L71.4235 54.7712L71.5624 54.9102L70.2571 56.2143V61.7456H70.062Z" fill="#4179BA"/>
<path d="M69.792 61.7265C69.792 61.9304 69.9564 62.0949 70.1604 62.0949C70.3631 62.0949 70.5288 61.9304 70.5288 61.7265C70.5288 61.5225 70.3644 61.358 70.1604 61.358C69.9564 61.3593 69.792 61.5238 69.792 61.7265Z" fill="#4179BA"/>
<path d="M76.0728 58.6543L76.2117 58.514L79.6371 61.9407V76.3598L82.2644 78.9884L82.1267 79.1261L79.4407 76.4414V62.0223L76.0728 58.6543Z" fill="#4179BA"/>
<path d="M81.923 79.3045C82.067 79.4486 82.299 79.4486 82.4431 79.3045C82.5871 79.1605 82.5871 78.9272 82.4431 78.7844C82.299 78.6404 82.067 78.6404 81.923 78.7844C81.7789 78.9285 81.7789 79.1605 81.923 79.3045Z" fill="#4179BA"/>
<path d="M87.0206 20.9371L76.496 24.5065L78.3049 26.2517L49.7203 54.6642L38.1529 43.4766L21.6941 59.9354L15.8416 54.0842L6.4209 63.2575L9.91382 66.8461L15.7957 61.1184L21.6941 67.0182L38.2115 50.4995L49.7675 61.6755L81.9087 29.7293L83.5927 31.3547L87.0206 20.9371Z" fill="url(#paint0_linear)"/>
<path d="M56.0806 18.1197L56.0997 5.23291H56.3585L56.3381 18.0127L62.1154 23.8066L62.081 45.7916L70.4308 54.1682L70.3811 85.5802H70.1236L70.1721 54.2753L61.8222 45.8986L61.8566 23.9136L56.0806 18.1197Z" fill="white"/>
<path d="M69.7666 85.5547C69.7666 85.8237 69.9833 86.0417 70.251 86.0417C70.52 86.0417 70.738 85.825 70.738 85.556C70.738 85.2883 70.5213 85.0703 70.2523 85.0703C69.9846 85.0703 69.7666 85.287 69.7666 85.5547Z" fill="white"/>
<path d="M65.7075 49.7625L65.7177 43.5887L68.3259 40.9882L68.5082 41.1705L65.9765 43.6958L65.9663 49.7625H65.7075Z" fill="white"/>
<path d="M68.743 41.4407C68.9329 41.252 68.9329 40.9435 68.7443 40.7536C68.5543 40.5636 68.2471 40.5624 68.0572 40.7523C67.8672 40.941 67.8672 41.2495 68.0559 41.4394C68.2458 41.6306 68.553 41.6306 68.743 41.4407Z" fill="white"/>
<path d="M59.3975 49.0499L59.4179 36.2153L61.8361 33.8047L62.0184 33.987L59.6754 36.3224L59.6562 48.9441L67.639 56.951L67.6211 68.6395H67.3623L67.3802 57.0581L59.3975 49.0499Z" fill="white"/>
<path d="M67.0054 68.6154C67.0054 68.8831 67.2221 69.1011 67.4898 69.1023C67.7588 69.1023 67.9768 68.8856 67.9768 68.6179C67.9768 68.349 67.76 68.1323 67.4911 68.131C67.2234 68.1297 67.0054 68.3464 67.0054 68.6154Z" fill="white"/>
<path d="M70.2446 65.306L70.4282 65.1224L72.7764 67.4783L72.756 80.2185H72.4985L72.5176 67.5853L70.2446 65.306Z" fill="white"/>
<path d="M72.1416 80.1943C72.1416 80.4632 72.3583 80.6799 72.626 80.6812C72.8937 80.6812 73.1117 80.4645 73.113 80.1968C73.1143 79.9291 72.8963 79.7111 72.6273 79.7098C72.3596 79.7086 72.1416 79.9253 72.1416 80.1943Z" fill="white"/>
<path d="M61.5752 84.2162L64.4498 81.3505L64.4791 62.7845L67.4137 59.8589L67.596 60.0412L64.7367 62.8929L64.7073 81.4589L61.7575 84.3998L61.5752 84.2162Z" fill="white"/>
<path d="M61.3404 83.9472C61.1504 84.1372 61.1504 84.4444 61.3391 84.6343C61.529 84.8243 61.8363 84.8243 62.0262 84.6356C62.2161 84.4457 62.2174 84.1385 62.0275 83.9485C61.8375 83.7573 61.5303 83.7573 61.3404 83.9472Z" fill="white"/>
<path d="M69.7026 49.069L70.8652 47.909L70.8805 37.7604H71.1393L71.124 48.0173L69.8849 49.2526L69.7026 49.069Z" fill="white"/>
<path d="M69.4683 48.7987C69.2784 48.9886 69.2784 49.2959 69.467 49.4871C69.657 49.677 69.9642 49.6783 70.1541 49.4883C70.3441 49.2984 70.3454 48.9899 70.1554 48.8C69.9655 48.61 69.6582 48.61 69.4683 48.7987Z" fill="white"/>
<g opacity="0.56">
<g opacity="0.56">
<g opacity="0.56">
<path opacity="0.56" d="M56.0806 18.1197L56.0997 5.23291H56.3585L56.3381 18.0127L62.1154 23.8066L62.081 45.7916L70.4308 54.1682L70.3811 85.5802H70.1236L70.1721 54.2753L61.8222 45.8986L61.8566 23.9136L56.0806 18.1197Z" fill="url(#paint1_linear)"/>
</g>
<g opacity="0.56">
<path opacity="0.56" d="M69.7666 85.5547C69.7666 85.8237 69.9833 86.0417 70.251 86.0417C70.52 86.0417 70.738 85.825 70.738 85.556C70.738 85.2883 70.5213 85.0703 70.2523 85.0703C69.9846 85.0703 69.7666 85.287 69.7666 85.5547Z" fill="url(#paint2_linear)"/>
</g>
</g>
<g opacity="0.56">
<g opacity="0.56">
<path opacity="0.56" d="M65.7075 49.7625L65.7177 43.5887L68.3259 40.9882L68.5082 41.1705L65.9765 43.6958L65.9663 49.7625H65.7075Z" fill="url(#paint3_linear)"/>
</g>
<g opacity="0.56">
<path opacity="0.56" d="M68.743 41.4407C68.9329 41.252 68.9329 40.9435 68.7443 40.7536C68.5543 40.5636 68.2471 40.5624 68.0572 40.7523C67.8672 40.941 67.8672 41.2495 68.0559 41.4394C68.2458 41.6306 68.553 41.6306 68.743 41.4407Z" fill="url(#paint4_linear)"/>
</g>
</g>
<g opacity="0.56">
<g opacity="0.56">
<path opacity="0.56" d="M59.3975 49.0499L59.4179 36.2153L61.8361 33.8047L62.0184 33.987L59.6754 36.3224L59.6562 48.9441L67.639 56.951L67.6211 68.6395H67.3623L67.3802 57.0581L59.3975 49.0499Z" fill="url(#paint5_linear)"/>
</g>
<g opacity="0.56">
<path opacity="0.56" d="M67.0054 68.6154C67.0054 68.8831 67.2221 69.1011 67.4898 69.1023C67.7588 69.1023 67.9768 68.8856 67.9768 68.6179C67.9768 68.349 67.76 68.1323 67.4911 68.131C67.2234 68.1297 67.0054 68.3464 67.0054 68.6154Z" fill="url(#paint6_linear)"/>
</g>
</g>
<g opacity="0.56">
<g opacity="0.56">
<path opacity="0.56" d="M70.2446 65.306L70.4282 65.1224L72.7764 67.4783L72.756 80.2185H72.4985L72.5176 67.5853L70.2446 65.306Z" fill="url(#paint7_linear)"/>
</g>
<g opacity="0.56">
<path opacity="0.56" d="M72.1416 80.1943C72.1416 80.4632 72.3583 80.6799 72.626 80.6812C72.8937 80.6812 73.1117 80.4645 73.113 80.1968C73.1143 79.9291 72.8963 79.7111 72.6273 79.7098C72.3596 79.7086 72.1416 79.9253 72.1416 80.1943Z" fill="url(#paint8_linear)"/>
</g>
</g>
<g opacity="0.56">
<g opacity="0.56">
<path opacity="0.56" d="M61.5752 84.2162L64.4498 81.3505L64.4791 62.7845L67.4137 59.8589L67.596 60.0412L64.7367 62.8929L64.7073 81.4589L61.7575 84.3998L61.5752 84.2162Z" fill="url(#paint9_linear)"/>
</g>
<g opacity="0.56">
<path opacity="0.56" d="M61.3404 83.9472C61.1504 84.1372 61.1504 84.4444 61.3391 84.6343C61.529 84.8243 61.8363 84.8243 62.0262 84.6356C62.2161 84.4457 62.2174 84.1385 62.0275 83.9485C61.8375 83.7573 61.5303 83.7573 61.3404 83.9472Z" fill="url(#paint10_linear)"/>
</g>
</g>
<g opacity="0.56">
<g opacity="0.56">
<path opacity="0.56" d="M69.7026 49.069L70.8652 47.909L70.8805 37.7604H71.1393L71.124 48.0173L69.8849 49.2526L69.7026 49.069Z" fill="url(#paint11_linear)"/>
</g>
<g opacity="0.56">
<path opacity="0.56" d="M69.4683 48.7987C69.2784 48.9886 69.2784 49.2959 69.467 49.4871C69.657 49.677 69.9642 49.6783 70.1541 49.4883C70.3441 49.2984 70.3454 48.9899 70.1554 48.8C69.9655 48.61 69.6582 48.61 69.4683 48.7987Z" fill="url(#paint12_linear)"/>
</g>
</g>
</g>
<path d="M56.0806 18.1197L56.0997 5.23291H56.3585L56.3381 18.0127L62.1154 23.8066L62.081 45.7916L70.4308 54.1682L70.3811 85.5802H70.1236L70.1721 54.2753L61.8222 45.8986L61.8566 23.9136L56.0806 18.1197Z" fill="url(#paint13_linear)"/>
<path d="M69.7666 85.5547C69.7666 85.8237 69.9833 86.0417 70.251 86.0417C70.52 86.0417 70.738 85.825 70.738 85.556C70.738 85.2883 70.5213 85.0703 70.2523 85.0703C69.9846 85.0703 69.7666 85.287 69.7666 85.5547Z" fill="url(#paint14_linear)"/>
<path d="M65.7075 49.7625L65.7177 43.5887L68.3259 40.9882L68.5082 41.1705L65.9765 43.6958L65.9663 49.7625H65.7075Z" fill="url(#paint15_linear)"/>
<path d="M68.743 41.4407C68.9329 41.252 68.9329 40.9435 68.7443 40.7536C68.5543 40.5636 68.2471 40.5624 68.0572 40.7523C67.8672 40.941 67.8672 41.2495 68.0559 41.4394C68.2458 41.6306 68.553 41.6306 68.743 41.4407Z" fill="url(#paint16_linear)"/>
<path d="M59.3975 49.0499L59.4179 36.2153L61.8361 33.8047L62.0184 33.987L59.6754 36.3224L59.6562 48.9441L67.639 56.951L67.6211 68.6395H67.3623L67.3802 57.0581L59.3975 49.0499Z" fill="url(#paint17_linear)"/>
<path d="M67.0054 68.6154C67.0054 68.8831 67.2221 69.1011 67.4898 69.1023C67.7588 69.1023 67.9768 68.8856 67.9768 68.6179C67.9768 68.349 67.76 68.1323 67.4911 68.131C67.2234 68.1297 67.0054 68.3464 67.0054 68.6154Z" fill="url(#paint18_linear)"/>
<path d="M70.2446 65.306L70.4282 65.1224L72.7764 67.4783L72.756 80.2185H72.4985L72.5176 67.5853L70.2446 65.306Z" fill="url(#paint19_linear)"/>
<path d="M72.1416 80.1943C72.1416 80.4632 72.3583 80.6799 72.626 80.6812C72.8937 80.6812 73.1117 80.4645 73.113 80.1968C73.1143 79.9291 72.8963 79.7111 72.6273 79.7098C72.3596 79.7086 72.1416 79.9253 72.1416 80.1943Z" fill="url(#paint20_linear)"/>
<path d="M61.5752 84.2162L64.4498 81.3505L64.4791 62.7845L67.4137 59.8589L67.596 60.0412L64.7367 62.8929L64.7073 81.4589L61.7575 84.3998L61.5752 84.2162Z" fill="url(#paint21_linear)"/>
<path d="M61.3404 83.9472C61.1504 84.1372 61.1504 84.4444 61.3391 84.6343C61.529 84.8243 61.8363 84.8243 62.0262 84.6356C62.2161 84.4457 62.2174 84.1385 62.0275 83.9485C61.8375 83.7573 61.5303 83.7573 61.3404 83.9472Z" fill="url(#paint22_linear)"/>
<path d="M69.7026 49.069L70.8652 47.909L70.8805 37.7604H71.1393L71.124 48.0173L69.8849 49.2526L69.7026 49.069Z" fill="url(#paint23_linear)"/>
<path d="M69.4683 48.7987C69.2784 48.9886 69.2784 49.2959 69.467 49.4871C69.657 49.677 69.9642 49.6783 70.1541 49.4883C70.3441 49.2984 70.3454 48.9899 70.1554 48.8C69.9655 48.61 69.6582 48.61 69.4683 48.7987Z" fill="url(#paint24_linear)"/>
<defs>
<linearGradient id="paint0_linear" x1="6.42036" y1="43.9771" x2="87.0212" y2="43.9771" gradientUnits="userSpaceOnUse">
<stop offset="0.0153" stop-color="#7AC8CB"/>
<stop offset="1" stop-color="#0072B7"/>
</linearGradient>
<linearGradient id="paint1_linear" x1="63.2164" y1="14.5713" x2="63.3253" y2="75.1349" gradientUnits="userSpaceOnUse">
<stop stop-color="#7C18FF"/>
<stop offset="0.3265" stop-color="#895AB2"/>
<stop offset="1" stop-color="#0072B7"/>
</linearGradient>
<linearGradient id="paint2_linear" x1="70.1249" y1="14.5593" x2="70.2338" y2="75.1226" gradientUnits="userSpaceOnUse">
<stop stop-color="#7C18FF"/>
<stop offset="0.3265" stop-color="#895AB2"/>
<stop offset="1" stop-color="#0072B7"/>
</linearGradient>
<linearGradient id="paint3_linear" x1="67.0527" y1="14.5645" x2="67.1616" y2="75.1279" gradientUnits="userSpaceOnUse">
<stop stop-color="#7C18FF"/>
<stop offset="0.3265" stop-color="#895AB2"/>
<stop offset="1" stop-color="#0072B7"/>
</linearGradient>
<linearGradient id="paint4_linear" x1="68.3526" y1="14.5618" x2="68.4615" y2="75.126" gradientUnits="userSpaceOnUse">
<stop stop-color="#7C18FF"/>
<stop offset="0.3265" stop-color="#895AB2"/>
<stop offset="1" stop-color="#0072B7"/>
</linearGradient>
<linearGradient id="paint5_linear" x1="63.4493" y1="14.5709" x2="63.5582" y2="75.1345" gradientUnits="userSpaceOnUse">
<stop stop-color="#7C18FF"/>
<stop offset="0.3265" stop-color="#895AB2"/>
<stop offset="1" stop-color="#0072B7"/>
</linearGradient>
<linearGradient id="paint6_linear" x1="67.394" y1="14.5653" x2="67.5028" y2="75.1273" gradientUnits="userSpaceOnUse">
<stop stop-color="#7C18FF"/>
<stop offset="0.3265" stop-color="#895AB2"/>
<stop offset="1" stop-color="#0072B7"/>
</linearGradient>
<linearGradient id="paint7_linear" x1="71.4175" y1="14.5564" x2="71.5263" y2="75.1202" gradientUnits="userSpaceOnUse">
<stop stop-color="#7C18FF"/>
<stop offset="0.3265" stop-color="#895AB2"/>
<stop offset="1" stop-color="#0072B7"/>
</linearGradient>
<linearGradient id="paint8_linear" x1="72.5096" y1="14.5554" x2="72.6185" y2="75.1183" gradientUnits="userSpaceOnUse">
<stop stop-color="#7C18FF"/>
<stop offset="0.3265" stop-color="#895AB2"/>
<stop offset="1" stop-color="#0072B7"/>
</linearGradient>
<linearGradient id="paint9_linear" x1="64.482" y1="14.5691" x2="64.5909" y2="75.1327" gradientUnits="userSpaceOnUse">
<stop stop-color="#7C18FF"/>
<stop offset="0.3265" stop-color="#895AB2"/>
<stop offset="1" stop-color="#0072B7"/>
</linearGradient>
<linearGradient id="paint10_linear" x1="61.558" y1="14.574" x2="61.6668" y2="75.1379" gradientUnits="userSpaceOnUse">
<stop stop-color="#7C18FF"/>
<stop offset="0.3265" stop-color="#895AB2"/>
<stop offset="1" stop-color="#0072B7"/>
</linearGradient>
<linearGradient id="paint11_linear" x1="70.3689" y1="14.5584" x2="70.4777" y2="75.122" gradientUnits="userSpaceOnUse">
<stop stop-color="#7C18FF"/>
<stop offset="0.3265" stop-color="#895AB2"/>
<stop offset="1" stop-color="#0072B7"/>
</linearGradient>
<linearGradient id="paint12_linear" x1="69.7486" y1="14.5599" x2="69.8574" y2="75.1228" gradientUnits="userSpaceOnUse">
<stop stop-color="#7C18FF"/>
<stop offset="0.3265" stop-color="#895AB2"/>
<stop offset="1" stop-color="#0072B7"/>
</linearGradient>
<linearGradient id="paint13_linear" x1="63.6195" y1="71.5159" x2="63.0899" y2="20.0971" gradientUnits="userSpaceOnUse">
<stop stop-color="#0072B7"/>
<stop offset="1" stop-color="#5931B7" stop-opacity="0.6"/>
</linearGradient>
<linearGradient id="paint14_linear" x1="70.1072" y1="71.4492" x2="69.5777" y2="20.0307" gradientUnits="userSpaceOnUse">
<stop stop-color="#0072B7"/>
<stop offset="1" stop-color="#5931B7" stop-opacity="0.6"/>
</linearGradient>
<linearGradient id="paint15_linear" x1="67.3762" y1="71.4771" x2="66.8466" y2="20.0585" gradientUnits="userSpaceOnUse">
<stop stop-color="#0072B7"/>
<stop offset="1" stop-color="#5931B7" stop-opacity="0.6"/>
</linearGradient>
<linearGradient id="paint16_linear" x1="68.7131" y1="71.4637" x2="68.1835" y2="20.0444" gradientUnits="userSpaceOnUse">
<stop stop-color="#0072B7"/>
<stop offset="1" stop-color="#5931B7" stop-opacity="0.6"/>
</linearGradient>
<linearGradient id="paint17_linear" x1="63.709" y1="71.515" x2="63.1795" y2="20.0962" gradientUnits="userSpaceOnUse">
<stop stop-color="#0072B7"/>
<stop offset="1" stop-color="#5931B7" stop-opacity="0.6"/>
</linearGradient>
<linearGradient id="paint18_linear" x1="67.5205" y1="71.4757" x2="66.991" y2="20.0583" gradientUnits="userSpaceOnUse">
<stop stop-color="#0072B7"/>
<stop offset="1" stop-color="#5931B7" stop-opacity="0.6"/>
</linearGradient>
<linearGradient id="paint19_linear" x1="71.5626" y1="71.4341" x2="71.033" y2="20.0152" gradientUnits="userSpaceOnUse">
<stop stop-color="#0072B7"/>
<stop offset="1" stop-color="#5931B7" stop-opacity="0.6"/>
</linearGradient>
<linearGradient id="paint20_linear" x1="72.5373" y1="71.4242" x2="72.0077" y2="20.006" gradientUnits="userSpaceOnUse">
<stop stop-color="#0072B7"/>
<stop offset="1" stop-color="#5931B7" stop-opacity="0.6"/>
</linearGradient>
<linearGradient id="paint21_linear" x1="64.5791" y1="71.5061" x2="64.0495" y2="20.0873" gradientUnits="userSpaceOnUse">
<stop stop-color="#0072B7"/>
<stop offset="1" stop-color="#5931B7" stop-opacity="0.6"/>
</linearGradient>
<linearGradient id="paint22_linear" x1="61.5519" y1="71.5372" x2="61.0223" y2="20.1181" gradientUnits="userSpaceOnUse">
<stop stop-color="#0072B7"/>
<stop offset="1" stop-color="#5931B7" stop-opacity="0.6"/>
</linearGradient>
<linearGradient id="paint23_linear" x1="70.7094" y1="71.4429" x2="70.1798" y2="20.0241" gradientUnits="userSpaceOnUse">
<stop stop-color="#0072B7"/>
<stop offset="1" stop-color="#5931B7" stop-opacity="0.6"/>
</linearGradient>
<linearGradient id="paint24_linear" x1="70.0405" y1="71.4494" x2="69.5109" y2="20.0312" gradientUnits="userSpaceOnUse">
<stop stop-color="#0072B7"/>
<stop offset="1" stop-color="#5931B7" stop-opacity="0.6"/>
</linearGradient>
</defs>
</svg>
