<svg width="100" height="90" viewBox="0 0 100 90" fill="none" xmlns="http://www.w3.org/2000/svg">
<path d="M63.4365 20.0409V12.4044H63.5937V19.9754L64.4844 20.853V23.5644L67.3661 26.4592V40.4222L70.9289 43.985L70.811 44.1029L67.2089 40.4877V26.5246L64.3141 23.643V20.9185L63.4365 20.0409Z" fill="#4179BA"/>
<path d="M70.8628 44.3254C71.0292 44.3254 71.164 44.1906 71.164 44.0242C71.164 43.8578 71.0292 43.7229 70.8628 43.7229C70.6964 43.7229 70.5615 43.8578 70.5615 44.0242C70.5615 44.1906 70.6964 44.3254 70.8628 44.3254Z" fill="#4179BA"/>
<path d="M63.8291 12.4305C63.8291 12.2603 63.6981 12.1293 63.5278 12.1293C63.3575 12.1293 63.2266 12.2603 63.2266 12.4305C63.2266 12.6008 63.3706 12.7318 63.5278 12.7318C63.685 12.7318 63.8291 12.6008 63.8291 12.4305Z" fill="#4179BA"/>
<path d="M59.8994 30.1267V21.9794H60.0566V30.0481L63.7111 33.7157V47.6001L69.0029 52.8919V72.7493H68.8326V52.9574L63.5539 47.6787V33.7811L59.8994 30.1267Z" fill="#4179BA"/>
<path d="M68.6104 72.723C68.6104 72.8933 68.7413 73.0243 68.9116 73.0243C69.0819 73.0243 69.2129 72.8802 69.2129 72.723C69.2129 72.5527 69.0688 72.4218 68.9116 72.4218C68.7544 72.4218 68.6104 72.5527 68.6104 72.723Z" fill="#4179BA"/>
<path d="M67.1953 30.716L67.3132 30.5981L71.2559 34.5408V41.4175L73.6398 43.8015V63.3707H73.4695V43.867L71.0987 41.483V34.6063L67.1953 30.716Z" fill="#4179BA"/>
<path d="M73.561 63.6588C73.7274 63.6588 73.8623 63.5239 73.8623 63.3575C73.8623 63.1912 73.7274 63.0563 73.561 63.0563C73.3946 63.0563 73.2598 63.1912 73.2598 63.3575C73.2598 63.5239 73.3946 63.6588 73.561 63.6588Z" fill="#4179BA"/>
<path d="M67.2344 34.8683L67.3523 34.7635L69.0027 36.4009V39.0337H68.8324V36.4664L67.2344 34.8683Z" fill="#4179BA"/>
<path d="M68.9243 39.3218C69.0907 39.3218 69.2256 39.1869 69.2256 39.0205C69.2256 38.8541 69.0907 38.7192 68.9243 38.7192C68.7579 38.7192 68.623 38.8541 68.623 39.0205C68.623 39.1869 68.7579 39.3218 68.9243 39.3218Z" fill="#4179BA"/>
<path d="M66.0166 50.1149V46.2116L67.654 44.5612L67.7718 44.679L66.1738 46.2771V50.1149H66.0166Z" fill="#4179BA"/>
<path d="M67.7065 44.928C67.8729 44.928 68.0078 44.7931 68.0078 44.6267C68.0078 44.4603 67.8729 44.3254 67.7065 44.3254C67.5402 44.3254 67.4053 44.4603 67.4053 44.6267C67.4053 44.7931 67.5402 44.928 67.7065 44.928Z" fill="#4179BA"/>
<path d="M62.0215 49.6696V41.5485L63.554 40.0291L63.6588 40.1469L62.1787 41.6271V49.6041L67.2347 54.647V62.0346H67.0775V54.7256L62.0215 49.6696Z" fill="#4179BA"/>
<path d="M67.1558 62.3227C67.3222 62.3227 67.457 62.1879 67.457 62.0215C67.457 61.8551 67.3222 61.7202 67.1558 61.7202C66.9894 61.7202 66.8545 61.8551 66.8545 62.0215C66.8545 62.1879 66.9894 62.3227 67.1558 62.3227Z" fill="#4179BA"/>
<path d="M71.335 58.8516V48.399L73.4831 46.2509L73.601 46.3687L71.4921 48.4645V58.8516H71.335Z" fill="#4179BA"/>
<path d="M71.4136 59.1398C71.5799 59.1398 71.7148 59.0049 71.7148 58.8385C71.7148 58.6721 71.5799 58.5372 71.4136 58.5372C71.2472 58.5372 71.1123 58.6721 71.1123 58.8385C71.1123 59.0049 71.2472 59.1398 71.4136 59.1398Z" fill="#4179BA"/>
<path d="M68.8984 59.9257L69.0032 59.8079L70.4965 61.3011V69.3567H70.3262V61.3666L68.8984 59.9257Z" fill="#4179BA"/>
<path d="M70.4184 69.6449C70.5848 69.6449 70.7197 69.51 70.7197 69.3436C70.7197 69.1772 70.5848 69.0424 70.4184 69.0424C70.2521 69.0424 70.1172 69.1772 70.1172 69.3436C70.1172 69.51 70.2521 69.6449 70.4184 69.6449Z" fill="#4179BA"/>
<path d="M63.4355 71.8847L65.2431 70.0771V58.3408L67.1031 56.4939L67.2079 56.5987L65.4134 58.4063V70.1426L63.5534 72.0026L63.4355 71.8847Z" fill="#4179BA"/>
<path d="M63.2788 71.7144C63.161 71.8323 63.161 72.0288 63.2788 72.1467C63.3967 72.2645 63.5932 72.2645 63.7111 72.1467C63.829 72.0288 63.829 71.8323 63.7111 71.7144C63.5932 71.5965 63.4098 71.5965 63.2788 71.7144Z" fill="#4179BA"/>
<path d="M64.3135 16.7268V13.5045L66.0032 11.8148L66.1211 11.9327L64.4838 13.57V16.6613L70.758 22.9355V27.5199L75.6437 32.4188V38.9026H75.4866V32.4843L70.6008 27.5985V23.001L64.3135 16.7268Z" fill="#4179BA"/>
<path d="M75.8799 38.8895C75.8799 39.0598 75.7489 39.1908 75.5786 39.1908C75.4083 39.1908 75.2773 39.0467 75.2773 38.8895C75.2773 38.7192 75.4083 38.5882 75.5786 38.5882C75.7358 38.5751 75.8799 38.7192 75.8799 38.8895Z" fill="#4179BA"/>
<path d="M66.0425 12.1816C66.2089 12.1816 66.3438 12.0468 66.3438 11.8804C66.3438 11.714 66.2089 11.5791 66.0425 11.5791C65.8761 11.5791 65.7412 11.714 65.7412 11.8804C65.7412 12.0468 65.8761 12.1816 66.0425 12.1816Z" fill="#4179BA"/>
<path d="M65.9766 21.4816V18.3511H66.1468V21.403L68.8976 24.1668V26.9306H68.7404V24.2323L65.9766 21.4816Z" fill="#4179BA"/>
<path d="M68.5049 26.9175C68.5049 27.0877 68.649 27.2187 68.8061 27.2187C68.9764 27.2187 69.1074 27.0877 69.1074 26.9175C69.1074 26.7472 68.9764 26.6162 68.8061 26.6162C68.649 26.6162 68.5049 26.7472 68.5049 26.9175Z" fill="#4179BA"/>
<path d="M72.5264 36.4663V29.4847H72.6836V36.4008L74.1375 37.8416V41.8236L74.8055 42.4916L74.7007 42.6095L73.9672 41.889V37.9202L72.5264 36.4663Z" fill="#4179BA"/>
<path d="M74.7407 42.8452C74.9071 42.8452 75.042 42.7103 75.042 42.5439C75.042 42.3776 74.9071 42.2427 74.7407 42.2427C74.5743 42.2427 74.4395 42.3776 74.4395 42.5439C74.4395 42.7103 74.5743 42.8452 74.7407 42.8452Z" fill="#4179BA"/>
<path d="M69.0029 32.4844V30.2184L70.0901 29.1443L70.1949 29.2491L69.1601 30.2839V32.4844H69.0029Z" fill="#4179BA"/>
<path d="M70.3517 29.4193C70.4696 29.3015 70.4696 29.105 70.3517 28.9871C70.2338 28.8692 70.0373 28.8692 69.9195 28.9871C69.8016 29.105 69.8016 29.3015 69.9195 29.4193C70.0373 29.5503 70.2338 29.5503 70.3517 29.4193Z" fill="#4179BA"/>
<path d="M73.9805 65.951L75.1724 64.7591V51.9094L76.9538 50.128V42.5178L74.0067 39.5837L74.1246 39.4658L77.111 42.4523V50.1935L75.3296 51.9749V64.8246L74.0984 66.0689L73.9805 65.951Z" fill="#4179BA"/>
<path d="M74.0454 66.2917C74.2118 66.2917 74.3467 66.1568 74.3467 65.9905C74.3467 65.8241 74.2118 65.6892 74.0454 65.6892C73.879 65.6892 73.7441 65.8241 73.7441 65.9905C73.7441 66.1568 73.879 66.2917 74.0454 66.2917Z" fill="#4179BA"/>
<path d="M68.5312 49.6696L69.2648 48.9361V42.5178H69.435V49.0016L68.6491 49.7875L68.5312 49.6696Z" fill="#4179BA"/>
<path d="M68.3872 49.4993C68.2694 49.6172 68.2694 49.8137 68.3872 49.9316C68.5051 50.0494 68.7016 50.0494 68.8195 49.9316C68.9374 49.8137 68.9374 49.6172 68.8195 49.4993C68.7016 49.3814 68.5051 49.3814 68.3872 49.4993Z" fill="#4179BA"/>
<path d="M75.2119 49.9971V46.2509L76.9671 44.5088L77.085 44.6136L75.3822 46.3164V49.9971H75.2119Z" fill="#4179BA"/>
<path d="M74.9893 49.984C74.9893 50.1543 75.1202 50.2853 75.2905 50.2853C75.4608 50.2853 75.5918 50.1543 75.5918 49.984C75.5918 49.8137 75.4608 49.6827 75.2905 49.6827C75.1333 49.6827 74.9893 49.8137 74.9893 49.984Z" fill="#4179BA"/>
<path d="M70.1943 57.5025V52.8133L71.3339 51.6737L71.4387 51.7916L70.3515 52.8788V57.5025H70.1943Z" fill="#4179BA"/>
<path d="M70.2729 57.7907C70.4393 57.7907 70.5742 57.6558 70.5742 57.4894C70.5742 57.323 70.4393 57.1881 70.2729 57.1881C70.1066 57.1881 69.9717 57.323 69.9717 57.4894C69.9717 57.6558 70.1066 57.7907 70.2729 57.7907Z" fill="#4179BA"/>
<path d="M75.2109 54.9221L75.3288 54.8042L78.1843 57.6597V69.6972L80.3717 71.8847L80.2539 72.0026L78.014 69.7627V57.7252L75.2109 54.9221Z" fill="#4179BA"/>
<path d="M80.0835 72.1597C80.2014 72.2776 80.3979 72.2776 80.5158 72.1597C80.6337 72.0418 80.6337 71.8453 80.5158 71.7274C80.3979 71.6096 80.2014 71.6096 80.0835 71.7274C79.9656 71.8453 79.9656 72.0287 80.0835 72.1597Z" fill="#4179BA"/>
<path d="M58.9297 22.2151V11.9851H59.1393V22.1365L63.7369 26.7341V44.1813L70.3778 50.8223V75.7619H70.1683V50.9139L63.5273 44.273V26.8126L58.9297 22.2151Z" fill="white"/>
<path d="M69.8809 75.7488C69.8809 75.9584 70.0511 76.1287 70.2607 76.1287C70.4703 76.1287 70.6406 75.9584 70.6406 75.7488C70.6406 75.5393 70.4703 75.369 70.2607 75.369C70.0511 75.3559 69.8809 75.5262 69.8809 75.7488Z" fill="white"/>
<path d="M66.6182 47.3379V42.426L68.6878 40.3564L68.8318 40.5005L66.8277 42.5177V47.3379H66.6182Z" fill="white"/>
<path d="M69.0147 40.7232C69.1588 40.5791 69.1588 40.3302 69.0147 40.1731C68.8575 40.0159 68.6217 40.0159 68.4645 40.1731C68.3204 40.3171 68.3204 40.566 68.4645 40.7232C68.6217 40.8673 68.8706 40.8673 69.0147 40.7232Z" fill="white"/>
<path d="M61.6016 46.7748V36.5841L63.5271 34.6718L63.6711 34.8158L61.8111 36.6627V46.6831L68.1639 53.0359V62.3228H67.9544V53.1276L61.6016 46.7748Z" fill="white"/>
<path d="M67.666 62.2966C67.666 62.5062 67.8363 62.6765 68.0459 62.6765C68.2555 62.6765 68.4258 62.5062 68.4258 62.2966C68.4258 62.087 68.2555 61.9167 68.0459 61.9167C67.8363 61.9167 67.666 62.087 67.666 62.2966Z" fill="white"/>
<path d="M70.2344 59.6637L70.3785 59.5197L72.2515 61.3927V71.5048H72.042V61.4713L70.2344 59.6637Z" fill="white"/>
<path d="M72.1464 71.8585C72.3562 71.8585 72.5263 71.6884 72.5263 71.4786C72.5263 71.2688 72.3562 71.0988 72.1464 71.0988C71.9367 71.0988 71.7666 71.2688 71.7666 71.4786C71.7666 71.6884 71.9367 71.8585 72.1464 71.8585Z" fill="white"/>
<path d="M63.3838 74.6878L65.6629 72.4087V57.6728L67.9814 55.3413L68.1255 55.4854L65.8594 57.7514V72.5004L63.5279 74.8319L63.3838 74.6878Z" fill="white"/>
<path d="M63.1872 74.4782C63.0431 74.6354 63.0431 74.8712 63.1872 75.0283C63.3443 75.1724 63.5801 75.1724 63.7373 75.0283C63.8945 74.8712 63.8945 74.6354 63.7373 74.4782C63.5932 74.3211 63.3443 74.3211 63.1872 74.4782Z" fill="white"/>
<path d="M69.7891 46.7749L70.706 45.858V37.8024H70.9155V45.9366L69.9332 46.919L69.7891 46.7749Z" fill="white"/>
<path d="M69.6051 46.5653C69.4611 46.7225 69.4611 46.9582 69.6051 47.1154C69.7623 47.2726 69.9981 47.2726 70.1552 47.1154C70.3124 46.9582 70.3124 46.7225 70.1552 46.5653C69.9981 46.4081 69.7492 46.4081 69.6051 46.5653Z" fill="white"/>
<g opacity="0.56">
<g opacity="0.56">
<g opacity="0.56">
<path opacity="0.56" d="M58.9297 22.2151V11.9851H59.1393V22.1365L63.7369 26.7341V44.1813L70.3778 50.8223V75.7619H70.1683V50.9139L63.5273 44.273V26.8126L58.9297 22.2151Z" fill="url(#paint0_linear)"/>
</g>
<g opacity="0.56">
<path opacity="0.56" d="M69.8809 75.7488C69.8809 75.9584 70.0511 76.1287 70.2607 76.1287C70.4703 76.1287 70.6406 75.9584 70.6406 75.7488C70.6406 75.5393 70.4703 75.369 70.2607 75.369C70.0511 75.3559 69.8809 75.5262 69.8809 75.7488Z" fill="url(#paint1_linear)"/>
</g>
</g>
<g opacity="0.56">
<g opacity="0.56">
<path opacity="0.56" d="M66.6182 47.3379V42.426L68.6878 40.3564L68.8318 40.5005L66.8277 42.5177V47.3379H66.6182Z" fill="url(#paint2_linear)"/>
</g>
<g opacity="0.56">
<path opacity="0.56" d="M69.0147 40.7232C69.1588 40.5791 69.1588 40.3302 69.0147 40.1731C68.8575 40.0159 68.6217 40.0159 68.4645 40.1731C68.3204 40.3171 68.3204 40.566 68.4645 40.7232C68.6217 40.8673 68.8706 40.8673 69.0147 40.7232Z" fill="url(#paint3_linear)"/>
</g>
</g>
<g opacity="0.56">
<g opacity="0.56">
<path opacity="0.56" d="M61.6016 46.7748V36.5841L63.5271 34.6718L63.6711 34.8158L61.8111 36.6627V46.6831L68.1639 53.0359V62.3228H67.9544V53.1276L61.6016 46.7748Z" fill="url(#paint4_linear)"/>
</g>
<g opacity="0.56">
<path opacity="0.56" d="M67.666 62.2966C67.666 62.5062 67.8363 62.6765 68.0459 62.6765C68.2555 62.6765 68.4258 62.5062 68.4258 62.2966C68.4258 62.087 68.2555 61.9167 68.0459 61.9167C67.8363 61.9167 67.666 62.087 67.666 62.2966Z" fill="url(#paint5_linear)"/>
</g>
</g>
<g opacity="0.56">
<g opacity="0.56">
<path opacity="0.56" d="M70.2344 59.6637L70.3785 59.5197L72.2515 61.3927V71.5048H72.042V61.4713L70.2344 59.6637Z" fill="url(#paint6_linear)"/>
</g>
<g opacity="0.56">
<path opacity="0.56" d="M72.1464 71.8585C72.3562 71.8585 72.5263 71.6884 72.5263 71.4786C72.5263 71.2688 72.3562 71.0988 72.1464 71.0988C71.9367 71.0988 71.7666 71.2688 71.7666 71.4786C71.7666 71.6884 71.9367 71.8585 72.1464 71.8585Z" fill="url(#paint7_linear)"/>
</g>
</g>
<g opacity="0.56">
<g opacity="0.56">
<path opacity="0.56" d="M63.3838 74.6878L65.6629 72.4087V57.6728L67.9814 55.3413L68.1255 55.4854L65.8594 57.7514V72.5004L63.5279 74.8319L63.3838 74.6878Z" fill="url(#paint8_linear)"/>
</g>
<g opacity="0.56">
<path opacity="0.56" d="M63.1872 74.4782C63.0431 74.6354 63.0431 74.8712 63.1872 75.0283C63.3443 75.1724 63.5801 75.1724 63.7373 75.0283C63.8945 74.8712 63.8945 74.6354 63.7373 74.4782C63.5932 74.3211 63.3443 74.3211 63.1872 74.4782Z" fill="url(#paint9_linear)"/>
</g>
</g>
<g opacity="0.56">
<g opacity="0.56">
<path opacity="0.56" d="M69.7891 46.7749L70.706 45.858V37.8024H70.9155V45.9366L69.9332 46.919L69.7891 46.7749Z" fill="url(#paint10_linear)"/>
</g>
<g opacity="0.56">
<path opacity="0.56" d="M69.6051 46.5653C69.4611 46.7225 69.4611 46.9582 69.6051 47.1154C69.7623 47.2726 69.9981 47.2726 70.1552 47.1154C70.3124 46.9582 70.3124 46.7225 70.1552 46.5653C69.9981 46.4081 69.7492 46.4081 69.6051 46.5653Z" fill="url(#paint11_linear)"/>
</g>
</g>
</g>
<path d="M58.9297 22.2151V11.9851H59.1393V22.1365L63.7369 26.7341V44.1813L70.3778 50.8223V75.7619H70.1683V50.9139L63.5273 44.273V26.8126L58.9297 22.2151Z" fill="url(#paint12_linear)"/>
<path d="M69.8809 75.7488C69.8809 75.9584 70.0511 76.1287 70.2607 76.1287C70.4703 76.1287 70.6406 75.9584 70.6406 75.7488C70.6406 75.5393 70.4703 75.369 70.2607 75.369C70.0511 75.3559 69.8809 75.5262 69.8809 75.7488Z" fill="url(#paint13_linear)"/>
<path d="M66.6182 47.3379V42.426L68.6878 40.3564L68.8318 40.5005L66.8277 42.5177V47.3379H66.6182Z" fill="url(#paint14_linear)"/>
<path d="M69.0147 40.7232C69.1588 40.5791 69.1588 40.3302 69.0147 40.1731C68.8575 40.0159 68.6217 40.0159 68.4645 40.1731C68.3204 40.3171 68.3204 40.566 68.4645 40.7232C68.6217 40.8673 68.8706 40.8673 69.0147 40.7232Z" fill="url(#paint15_linear)"/>
<path d="M61.6016 46.7748V36.5841L63.5271 34.6718L63.6711 34.8158L61.8111 36.6627V46.6831L68.1639 53.0359V62.3228H67.9544V53.1276L61.6016 46.7748Z" fill="url(#paint16_linear)"/>
<path d="M67.666 62.2966C67.666 62.5062 67.8363 62.6765 68.0459 62.6765C68.2555 62.6765 68.4258 62.5062 68.4258 62.2966C68.4258 62.087 68.2555 61.9167 68.0459 61.9167C67.8363 61.9167 67.666 62.087 67.666 62.2966Z" fill="url(#paint17_linear)"/>
<path d="M70.2344 59.6637L70.3785 59.5197L72.2515 61.3927V71.5048H72.042V61.4713L70.2344 59.6637Z" fill="url(#paint18_linear)"/>
<path d="M72.1464 71.8585C72.3562 71.8585 72.5263 71.6884 72.5263 71.4786C72.5263 71.2688 72.3562 71.0988 72.1464 71.0988C71.9367 71.0988 71.7666 71.2688 71.7666 71.4786C71.7666 71.6884 71.9367 71.8585 72.1464 71.8585Z" fill="url(#paint19_linear)"/>
<path d="M63.3838 74.6878L65.6629 72.4087V57.6728L67.9814 55.3413L68.1255 55.4854L65.8594 57.7514V72.5004L63.5279 74.8319L63.3838 74.6878Z" fill="url(#paint20_linear)"/>
<path d="M63.1872 74.4782C63.0431 74.6354 63.0431 74.8712 63.1872 75.0283C63.3443 75.1724 63.5801 75.1724 63.7373 75.0283C63.8945 74.8712 63.8945 74.6354 63.7373 74.4782C63.5932 74.3211 63.3443 74.3211 63.1872 74.4782Z" fill="url(#paint21_linear)"/>
<path d="M69.7891 46.7749L70.706 45.858V37.8024H70.9155V45.9366L69.9332 46.919L69.7891 46.7749Z" fill="url(#paint22_linear)"/>
<path d="M69.6051 46.5653C69.4611 46.7225 69.4611 46.9582 69.6051 47.1154C69.7623 47.2726 69.9981 47.2726 70.1552 47.1154C70.3124 46.9582 70.3124 46.7225 70.1552 46.5653C69.9981 46.4081 69.7492 46.4081 69.6051 46.5653Z" fill="url(#paint23_linear)"/>
<path d="M56.3235 44.3385C52.8786 44.3385 49.6301 43.9587 47.1807 43.1989C45.8053 42.7798 44.7706 42.2558 44.1025 41.6926C44.1025 42.7667 44.1025 43.8539 44.1025 44.8886C44.9932 46.4081 49.7349 47.9537 56.2973 47.9537C62.9775 47.9537 67.7454 46.3426 68.5313 44.797C68.5313 43.7753 68.5313 42.7012 68.5313 41.6533C67.8764 42.2297 66.8416 42.7536 65.44 43.1989C62.9906 43.9587 59.7684 44.3385 56.3235 44.3385Z" fill="url(#paint24_linear)"/>
<path d="M65.44 38.8896C62.9906 39.6493 59.7553 40.0292 56.3104 40.0292C52.8655 40.0292 49.6301 39.6493 47.1807 38.8896C45.8053 38.4573 44.7706 37.9465 44.1025 37.3833C44.1025 38.3787 44.1025 39.4659 44.1025 40.5793C44.9932 42.0987 49.7349 43.6574 56.2973 43.6574C62.9775 43.6574 67.7454 42.0463 68.5313 40.5007C68.5313 39.4004 68.5313 38.3263 68.5313 37.3571C67.8764 37.9334 66.8416 38.4573 65.44 38.8896Z" fill="url(#paint25_linear)"/>
<path d="M56.2973 52.2633C62.9775 52.2633 67.7454 50.6521 68.5313 49.1065C68.5313 48.2027 68.5313 47.1156 68.5313 45.9629C67.8764 46.5392 66.8416 47.0632 65.44 47.5085C62.9906 48.2682 59.7553 48.6481 56.3104 48.6481C52.8655 48.6481 49.6301 48.2682 47.1807 47.5085C45.8053 47.0894 44.7837 46.5654 44.1156 46.0022C44.1156 47.1811 44.1025 48.2813 44.1025 49.1982C44.9932 50.7176 49.748 52.2633 56.2973 52.2633Z" fill="url(#paint26_linear)"/>
<path d="M56.2977 56.5595C62.9779 56.5595 67.7458 54.9484 68.5317 53.4028C68.5317 52.499 68.5317 51.4118 68.5317 50.2592C67.8768 50.8355 66.842 51.3594 65.4274 51.8048C62.9779 52.5645 59.7426 52.9444 56.2977 52.9444C52.8528 52.9444 49.6174 52.5645 47.168 51.8048C45.7927 51.3856 44.771 50.8617 44.1029 50.2984C44.1029 51.4773 44.0898 52.5776 44.0898 53.4945C44.9936 55.0139 49.7484 56.5595 56.2977 56.5595Z" fill="url(#paint27_linear)"/>
<path d="M56.2977 60.8689C62.9779 60.8689 67.7458 59.2577 68.5317 57.7121C68.5317 56.8083 68.5317 55.7211 68.5317 54.5685C67.8768 55.1448 66.842 55.6688 65.4274 56.1141C62.9779 56.8738 59.7426 57.2537 56.2977 57.2537C52.8528 57.2537 49.6174 56.8738 47.168 56.1141C45.7927 55.695 44.771 55.171 44.1029 54.6078C44.1029 55.7866 44.0898 56.8869 44.0898 57.8038C44.9936 59.3101 49.7484 60.8689 56.2977 60.8689Z" fill="url(#paint28_linear)"/>
<path d="M56.2977 39.3611C62.9779 39.3611 67.7458 37.75 68.5317 36.2044C68.5317 34.0955 68.5317 32.6416 68.5317 32.6416H44.1029C44.1029 32.6416 44.0898 34.1348 44.0898 36.283C44.9674 37.8024 49.7353 39.3611 56.2977 39.3611Z" fill="url(#paint29_linear)"/>
<path d="M65.4406 60.3974C62.9912 61.1571 59.7559 61.537 56.3109 61.537C52.866 61.537 49.6307 61.1571 47.1813 60.3974C45.8059 59.9782 44.7842 59.4543 44.1162 58.9042C44.1162 59.5984 44.1162 60.1223 44.1162 60.3974C44.1162 62.5718 49.5652 64.3139 56.324 64.3139C63.0829 64.3139 68.5319 62.5456 68.5319 60.3712C68.5319 60.1354 68.5319 59.5984 68.5319 58.8649C67.877 59.4281 66.8422 59.9651 65.4406 60.3974Z" fill="url(#paint30_linear)"/>
<path d="M56.3239 36.5187C63.0805 36.5187 68.5579 34.7535 68.5579 32.5761C68.5579 30.3986 63.0805 28.6334 56.3239 28.6334C49.5672 28.6334 44.0898 30.3986 44.0898 32.5761C44.0898 34.7535 49.5672 36.5187 56.3239 36.5187Z" fill="url(#paint31_linear)"/>
<path d="M51.8965 62.2967L39.466 64.6937H38.8897L27.4678 62.2967V44.8756H51.8965V62.2967Z" fill="#04045A"/>
<path d="M39.7147 54.8697C36.2697 54.8697 33.0213 54.4899 30.5719 53.7302C29.2096 53.311 28.1749 52.7871 27.5068 52.2369C27.5068 53.311 27.5068 54.3982 27.5068 55.433C28.3975 56.9524 33.1261 58.498 39.6754 58.498C46.3556 58.498 51.2414 56.8869 51.8963 55.3413C51.8963 54.3196 51.8963 53.2455 51.8963 52.1976C51.2414 52.774 50.2197 53.2979 48.8181 53.7433C46.3687 54.4899 43.1727 54.8697 39.7147 54.8697Z" fill="url(#paint32_linear)"/>
<path d="M48.8176 49.4338C46.3681 50.1935 43.1459 50.5733 39.701 50.5733C36.2561 50.5733 33.0207 50.1935 30.5713 49.4338C29.196 49.0015 28.1743 48.4907 27.4932 47.9274C27.4932 48.9229 27.4932 50.0101 27.4932 51.1235C28.3839 52.6429 33.1124 54.2016 39.6748 54.2016C46.355 54.2016 51.2408 52.5905 51.8957 51.0449C51.8957 49.9446 51.8957 48.8705 51.8957 47.9012C51.2408 48.4645 50.2191 49.0015 48.8176 49.4338Z" fill="url(#paint33_linear)"/>
<path d="M39.6748 62.8075C46.355 62.8075 51.2408 61.1964 51.8957 59.6507C51.8957 58.7469 51.8957 57.6598 51.8957 56.5071C51.2408 57.0834 50.2191 57.6074 48.8176 58.0527C46.3681 58.8124 43.1459 59.1923 39.701 59.1923C36.2561 59.1923 33.0207 58.8124 30.5713 58.0527C29.196 57.6336 28.1743 57.1096 27.5063 56.5464C27.5063 57.7252 27.4932 58.8255 27.4932 59.7424C28.3839 61.2488 33.1255 62.8075 39.6748 62.8075Z" fill="url(#paint34_linear)"/>
<path d="M39.6752 49.9053C46.3555 49.9053 51.2412 48.2942 51.8961 46.7486C51.8961 44.6397 51.8961 43.1334 51.8961 43.1334H27.4936C27.4936 43.1334 27.4805 44.6528 27.4805 46.801C28.3581 48.3073 33.1128 49.9053 39.6752 49.9053Z" fill="url(#paint35_linear)"/>
<path d="M48.8181 62.3359C46.3687 63.0956 43.1465 63.4754 39.7016 63.4754C36.2566 63.4754 33.0213 63.0956 30.5719 62.3359C29.1965 61.9167 28.1749 61.3928 27.5068 60.8426C27.5068 61.5369 27.5068 62.0608 27.5068 62.3359C27.5068 64.5102 32.9427 66.2523 39.7016 66.2523C46.4604 66.2523 51.8963 64.484 51.8963 62.3097C51.8963 62.0739 51.8963 61.5369 51.8963 60.8033C51.2414 61.3666 50.2197 61.9036 48.8181 62.3359Z" fill="url(#paint36_linear)"/>
<path d="M39.7145 47.0499C46.4712 47.0499 51.9485 45.2847 51.9485 43.1072C51.9485 40.9297 46.4712 39.1646 39.7145 39.1646C32.9578 39.1646 27.4805 40.9297 27.4805 43.1072C27.4805 45.2847 32.9578 47.0499 39.7145 47.0499Z" fill="url(#paint37_linear)"/>
<defs>
<linearGradient id="paint0_linear" x1="64.5954" y1="19.395" x2="64.7568" y2="67.4785" gradientUnits="userSpaceOnUse">
<stop stop-color="#7C18FF"/>
<stop offset="0.3265" stop-color="#895AB2"/>
<stop offset="1" stop-color="#0072B7"/>
</linearGradient>
<linearGradient id="paint1_linear" x1="70.0811" y1="19.3796" x2="70.2425" y2="67.4606" gradientUnits="userSpaceOnUse">
<stop stop-color="#7C18FF"/>
<stop offset="0.3265" stop-color="#895AB2"/>
<stop offset="1" stop-color="#0072B7"/>
</linearGradient>
<linearGradient id="paint2_linear" x1="67.641" y1="19.3848" x2="67.8024" y2="67.4681" gradientUnits="userSpaceOnUse">
<stop stop-color="#7C18FF"/>
<stop offset="0.3265" stop-color="#895AB2"/>
<stop offset="1" stop-color="#0072B7"/>
</linearGradient>
<linearGradient id="paint3_linear" x1="68.6723" y1="19.3815" x2="68.8337" y2="67.4645" gradientUnits="userSpaceOnUse">
<stop stop-color="#7C18FF"/>
<stop offset="0.3265" stop-color="#895AB2"/>
<stop offset="1" stop-color="#0072B7"/>
</linearGradient>
<linearGradient id="paint4_linear" x1="64.7801" y1="19.3944" x2="64.9415" y2="67.4779" gradientUnits="userSpaceOnUse">
<stop stop-color="#7C18FF"/>
<stop offset="0.3265" stop-color="#895AB2"/>
<stop offset="1" stop-color="#0072B7"/>
</linearGradient>
<linearGradient id="paint5_linear" x1="67.9118" y1="19.3832" x2="68.0731" y2="67.4675" gradientUnits="userSpaceOnUse">
<stop stop-color="#7C18FF"/>
<stop offset="0.3265" stop-color="#895AB2"/>
<stop offset="1" stop-color="#0072B7"/>
</linearGradient>
<linearGradient id="paint6_linear" x1="71.1072" y1="19.3732" x2="71.2686" y2="67.4566" gradientUnits="userSpaceOnUse">
<stop stop-color="#7C18FF"/>
<stop offset="0.3265" stop-color="#895AB2"/>
<stop offset="1" stop-color="#0072B7"/>
</linearGradient>
<linearGradient id="paint7_linear" x1="71.9739" y1="19.3709" x2="72.1353" y2="67.4538" gradientUnits="userSpaceOnUse">
<stop stop-color="#7C18FF"/>
<stop offset="0.3265" stop-color="#895AB2"/>
<stop offset="1" stop-color="#0072B7"/>
</linearGradient>
<linearGradient id="paint8_linear" x1="65.6006" y1="19.3918" x2="65.7619" y2="67.4752" gradientUnits="userSpaceOnUse">
<stop stop-color="#7C18FF"/>
<stop offset="0.3265" stop-color="#895AB2"/>
<stop offset="1" stop-color="#0072B7"/>
</linearGradient>
<linearGradient id="paint9_linear" x1="63.2791" y1="19.4024" x2="63.4404" y2="67.4833" gradientUnits="userSpaceOnUse">
<stop stop-color="#7C18FF"/>
<stop offset="0.3265" stop-color="#895AB2"/>
<stop offset="1" stop-color="#0072B7"/>
</linearGradient>
<linearGradient id="paint10_linear" x1="70.2749" y1="19.376" x2="70.4362" y2="67.4595" gradientUnits="userSpaceOnUse">
<stop stop-color="#7C18FF"/>
<stop offset="0.3265" stop-color="#895AB2"/>
<stop offset="1" stop-color="#0072B7"/>
</linearGradient>
<linearGradient id="paint11_linear" x1="69.7817" y1="19.3769" x2="69.943" y2="67.4618" gradientUnits="userSpaceOnUse">
<stop stop-color="#7C18FF"/>
<stop offset="0.3265" stop-color="#895AB2"/>
<stop offset="1" stop-color="#0072B7"/>
</linearGradient>
<linearGradient id="paint12_linear" x1="64.9859" y1="64.6049" x2="64.5018" y2="23.7823" gradientUnits="userSpaceOnUse">
<stop stop-color="#0072B7"/>
<stop offset="1" stop-color="#5931B7" stop-opacity="0.6"/>
</linearGradient>
<linearGradient id="paint13_linear" x1="70.1375" y1="64.5445" x2="69.6535" y2="23.724" gradientUnits="userSpaceOnUse">
<stop stop-color="#0072B7"/>
<stop offset="1" stop-color="#5931B7" stop-opacity="0.6"/>
</linearGradient>
<linearGradient id="paint14_linear" x1="67.9682" y1="64.5693" x2="67.4842" y2="23.747" gradientUnits="userSpaceOnUse">
<stop stop-color="#0072B7"/>
<stop offset="1" stop-color="#5931B7" stop-opacity="0.6"/>
</linearGradient>
<linearGradient id="paint15_linear" x1="69.0289" y1="64.5566" x2="68.5449" y2="23.7344" gradientUnits="userSpaceOnUse">
<stop stop-color="#0072B7"/>
<stop offset="1" stop-color="#5931B7" stop-opacity="0.6"/>
</linearGradient>
<linearGradient id="paint16_linear" x1="65.0568" y1="64.604" x2="64.5728" y2="23.7815" gradientUnits="userSpaceOnUse">
<stop stop-color="#0072B7"/>
<stop offset="1" stop-color="#5931B7" stop-opacity="0.6"/>
</linearGradient>
<linearGradient id="paint17_linear" x1="68.0827" y1="64.5682" x2="67.5986" y2="23.745" gradientUnits="userSpaceOnUse">
<stop stop-color="#0072B7"/>
<stop offset="1" stop-color="#5931B7" stop-opacity="0.6"/>
</linearGradient>
<linearGradient id="paint18_linear" x1="71.2928" y1="64.5301" x2="70.8087" y2="23.7076" gradientUnits="userSpaceOnUse">
<stop stop-color="#0072B7"/>
<stop offset="1" stop-color="#5931B7" stop-opacity="0.6"/>
</linearGradient>
<linearGradient id="paint19_linear" x1="72.0663" y1="64.521" x2="71.5822" y2="23.699" gradientUnits="userSpaceOnUse">
<stop stop-color="#0072B7"/>
<stop offset="1" stop-color="#5931B7" stop-opacity="0.6"/>
</linearGradient>
<linearGradient id="paint20_linear" x1="65.7481" y1="64.5959" x2="65.264" y2="23.7734" gradientUnits="userSpaceOnUse">
<stop stop-color="#0072B7"/>
<stop offset="1" stop-color="#5931B7" stop-opacity="0.6"/>
</linearGradient>
<linearGradient id="paint21_linear" x1="63.3448" y1="64.6249" x2="62.8608" y2="23.8045" gradientUnits="userSpaceOnUse">
<stop stop-color="#0072B7"/>
<stop offset="1" stop-color="#5931B7" stop-opacity="0.6"/>
</linearGradient>
<linearGradient id="paint22_linear" x1="70.6156" y1="64.5382" x2="70.1316" y2="23.7156" gradientUnits="userSpaceOnUse">
<stop stop-color="#0072B7"/>
<stop offset="1" stop-color="#5931B7" stop-opacity="0.6"/>
</linearGradient>
<linearGradient id="paint23_linear" x1="70.0838" y1="64.545" x2="69.5997" y2="23.7213" gradientUnits="userSpaceOnUse">
<stop stop-color="#0072B7"/>
<stop offset="1" stop-color="#5931B7" stop-opacity="0.6"/>
</linearGradient>
<linearGradient id="paint24_linear" x1="56.4495" y1="64.063" x2="56.2841" y2="37.186" gradientUnits="userSpaceOnUse">
<stop offset="0.0153061" stop-color="#7AC8CB"/>
<stop offset="1" stop-color="#0072B7"/>
</linearGradient>
<linearGradient id="paint25_linear" x1="56.4736" y1="64.0629" x2="56.3082" y2="37.1858" gradientUnits="userSpaceOnUse">
<stop offset="0.0153061" stop-color="#7AC8CB"/>
<stop offset="1" stop-color="#0072B7"/>
</linearGradient>
<linearGradient id="paint26_linear" x1="56.4171" y1="64.0635" x2="56.2517" y2="37.1865" gradientUnits="userSpaceOnUse">
<stop offset="0.0153061" stop-color="#7AC8CB"/>
<stop offset="1" stop-color="#0072B7"/>
</linearGradient>
<linearGradient id="paint27_linear" x1="56.3893" y1="64.0638" x2="56.2239" y2="37.1867" gradientUnits="userSpaceOnUse">
<stop offset="0.0153061" stop-color="#7AC8CB"/>
<stop offset="1" stop-color="#0072B7"/>
</linearGradient>
<linearGradient id="paint28_linear" x1="56.3628" y1="64.064" x2="56.1974" y2="37.1869" gradientUnits="userSpaceOnUse">
<stop offset="0.0153061" stop-color="#7AC8CB"/>
<stop offset="1" stop-color="#0072B7"/>
</linearGradient>
<linearGradient id="paint29_linear" x1="56.4945" y1="64.0653" x2="56.329" y2="37.1853" gradientUnits="userSpaceOnUse">
<stop offset="0.0153061" stop-color="#7AC8CB"/>
<stop offset="1" stop-color="#0072B7"/>
</linearGradient>
<linearGradient id="paint30_linear" x1="56.3507" y1="64.0642" x2="56.1853" y2="37.1871" gradientUnits="userSpaceOnUse">
<stop offset="0.0153061" stop-color="#7AC8CB"/>
<stop offset="1" stop-color="#0072B7"/>
</linearGradient>
<linearGradient id="paint31_linear" x1="56.7339" y1="37.8576" x2="55.8242" y2="26.1141" gradientUnits="userSpaceOnUse">
<stop offset="0.0153061" stop-color="#7AC8CB"/>
<stop offset="1" stop-color="#0072B7"/>
</linearGradient>
<linearGradient id="paint32_linear" x1="39.5268" y1="65.8418" x2="39.7749" y2="48.6416" gradientUnits="userSpaceOnUse">
<stop offset="0.0153061" stop-color="#7AC8CB"/>
<stop offset="1" stop-color="#0072B7"/>
</linearGradient>
<linearGradient id="paint33_linear" x1="39.46" y1="65.8404" x2="39.7081" y2="48.6402" gradientUnits="userSpaceOnUse">
<stop offset="0.0153061" stop-color="#7AC8CB"/>
<stop offset="1" stop-color="#0072B7"/>
</linearGradient>
<linearGradient id="paint34_linear" x1="39.5872" y1="65.8432" x2="39.8353" y2="48.6429" gradientUnits="userSpaceOnUse">
<stop offset="0.0153061" stop-color="#7AC8CB"/>
<stop offset="1" stop-color="#0072B7"/>
</linearGradient>
<linearGradient id="paint35_linear" x1="39.3936" y1="65.9769" x2="39.6438" y2="48.6279" gradientUnits="userSpaceOnUse">
<stop offset="0.0153061" stop-color="#7AC8CB"/>
<stop offset="1" stop-color="#0072B7"/>
</linearGradient>
<linearGradient id="paint36_linear" x1="39.6394" y1="65.8441" x2="39.8874" y2="48.6442" gradientUnits="userSpaceOnUse">
<stop offset="0.0153061" stop-color="#7AC8CB"/>
<stop offset="1" stop-color="#0072B7"/>
</linearGradient>
<linearGradient id="paint37_linear" x1="39.6787" y1="49.9483" x2="39.7614" y2="35.9718" gradientUnits="userSpaceOnUse">
<stop offset="0.0153061" stop-color="#7AC8CB"/>
<stop offset="1" stop-color="#0072B7"/>
</linearGradient>
</defs>
</svg>
