<svg width="100" height="90" viewBox="0 0 100 90" fill="none" xmlns="http://www.w3.org/2000/svg">
<path d="M55.9307 21.4292V11.1992H56.1402V21.3506L60.7378 25.9482V43.3954L67.3656 50.0364V74.976H67.1692V50.1281L60.5282 43.4871V26.0268L55.9307 21.4292Z" fill="white"/>
<path d="M66.8818 74.9628C66.8818 75.1724 67.0521 75.3427 67.2617 75.3427C67.4712 75.3427 67.6415 75.1724 67.6415 74.9628C67.6415 74.7533 67.4712 74.583 67.2617 74.583C67.0521 74.5699 66.8818 74.7402 66.8818 74.9628Z" fill="white"/>
<path d="M63.6191 46.5521V41.6401L65.6887 39.5706L65.8327 39.7146L63.8156 41.7318V46.5521H63.6191Z" fill="white"/>
<path d="M66.0156 39.9373C66.1597 39.7932 66.1597 39.5444 66.0156 39.3872C65.8584 39.23 65.6227 39.23 65.4655 39.3872C65.3214 39.5313 65.3214 39.7801 65.4655 39.9373C65.6227 40.0814 65.8584 40.0814 66.0156 39.9373Z" fill="white"/>
<path d="M58.6025 45.989V35.7984L60.528 33.886L60.6721 34.0301L58.8121 35.877V45.8973L65.1518 52.2501V61.537H64.9553V52.3418L58.6025 45.989Z" fill="white"/>
<path d="M64.667 61.5108C64.667 61.7204 64.8373 61.8907 65.0468 61.8907C65.2564 61.8907 65.4267 61.7204 65.4267 61.5108C65.4267 61.3013 65.2564 61.131 65.0468 61.131C64.8373 61.131 64.667 61.3013 64.667 61.5108Z" fill="white"/>
<path d="M67.2344 58.8778L67.3785 58.7338L69.2515 60.6069V70.7189H69.042V60.6854L67.2344 58.8778Z" fill="white"/>
<path d="M69.1465 71.0726C69.3563 71.0726 69.5263 70.9025 69.5263 70.6927C69.5263 70.4829 69.3563 70.3129 69.1465 70.3129C68.9367 70.3129 68.7666 70.4829 68.7666 70.6927C68.7666 70.9025 68.9367 71.0726 69.1465 71.0726Z" fill="white"/>
<path d="M60.3721 73.9018L62.6512 71.6227V56.8868L64.9828 54.5553L65.1269 54.6994L62.8608 56.9654V71.7144L60.5293 74.0459L60.3721 73.9018Z" fill="white"/>
<path d="M60.1881 73.6922C60.0441 73.8494 60.0441 74.0852 60.1881 74.2424C60.3453 74.3865 60.5811 74.3865 60.7383 74.2424C60.8955 74.0852 60.8955 73.8494 60.7383 73.6922C60.5811 73.535 60.3453 73.535 60.1881 73.6922Z" fill="white"/>
<path d="M66.79 45.9889L67.707 45.072V37.0165H67.9165V45.1506L66.9341 46.133L66.79 45.9889Z" fill="white"/>
<path d="M66.6061 45.7794C66.462 45.9366 66.462 46.1723 66.6061 46.3295C66.7633 46.4867 66.9991 46.4867 67.1562 46.3295C67.3134 46.1723 67.3134 45.9366 67.1562 45.7794C66.9991 45.6222 66.7502 45.6222 66.6061 45.7794Z" fill="white"/>
<g opacity="0.56">
<g opacity="0.56">
<g opacity="0.56">
<path opacity="0.56" d="M55.9307 21.4292V11.1992H56.1402V21.3506L60.7378 25.9482V43.3954L67.3656 50.0364V74.976H67.1692V50.1281L60.5282 43.4871V26.0268L55.9307 21.4292Z" fill="url(#paint0_linear)"/>
</g>
<g opacity="0.56">
<path opacity="0.56" d="M66.8818 74.9628C66.8818 75.1724 67.0521 75.3427 67.2617 75.3427C67.4712 75.3427 67.6415 75.1724 67.6415 74.9628C67.6415 74.7533 67.4712 74.583 67.2617 74.583C67.0521 74.5699 66.8818 74.7402 66.8818 74.9628Z" fill="url(#paint1_linear)"/>
</g>
</g>
<g opacity="0.56">
<g opacity="0.56">
<path opacity="0.56" d="M63.6191 46.5521V41.6401L65.6887 39.5706L65.8327 39.7146L63.8156 41.7318V46.5521H63.6191Z" fill="url(#paint2_linear)"/>
</g>
<g opacity="0.56">
<path opacity="0.56" d="M66.0156 39.9373C66.1597 39.7932 66.1597 39.5444 66.0156 39.3872C65.8584 39.23 65.6227 39.23 65.4655 39.3872C65.3214 39.5313 65.3214 39.7801 65.4655 39.9373C65.6227 40.0814 65.8584 40.0814 66.0156 39.9373Z" fill="url(#paint3_linear)"/>
</g>
</g>
<g opacity="0.56">
<g opacity="0.56">
<path opacity="0.56" d="M58.6025 45.989V35.7984L60.528 33.886L60.6721 34.0301L58.8121 35.877V45.8973L65.1518 52.2501V61.537H64.9553V52.3418L58.6025 45.989Z" fill="url(#paint4_linear)"/>
</g>
<g opacity="0.56">
<path opacity="0.56" d="M64.667 61.5108C64.667 61.7204 64.8373 61.8907 65.0468 61.8907C65.2564 61.8907 65.4267 61.7204 65.4267 61.5108C65.4267 61.3013 65.2564 61.131 65.0468 61.131C64.8373 61.131 64.667 61.3013 64.667 61.5108Z" fill="url(#paint5_linear)"/>
</g>
</g>
<g opacity="0.56">
<g opacity="0.56">
<path opacity="0.56" d="M67.2344 58.8778L67.3785 58.7338L69.2515 60.6069V70.7189H69.042V60.6854L67.2344 58.8778Z" fill="url(#paint6_linear)"/>
</g>
<g opacity="0.56">
<path opacity="0.56" d="M69.1465 71.0726C69.3563 71.0726 69.5263 70.9025 69.5263 70.6927C69.5263 70.4829 69.3563 70.3129 69.1465 70.3129C68.9367 70.3129 68.7666 70.4829 68.7666 70.6927C68.7666 70.9025 68.9367 71.0726 69.1465 71.0726Z" fill="url(#paint7_linear)"/>
</g>
</g>
<g opacity="0.56">
<g opacity="0.56">
<path opacity="0.56" d="M60.3721 73.9018L62.6512 71.6227V56.8868L64.9828 54.5553L65.1269 54.6994L62.8608 56.9654V71.7144L60.5293 74.0459L60.3721 73.9018Z" fill="url(#paint8_linear)"/>
</g>
<g opacity="0.56">
<path opacity="0.56" d="M60.1881 73.6922C60.0441 73.8494 60.0441 74.0852 60.1881 74.2424C60.3453 74.3865 60.5811 74.3865 60.7383 74.2424C60.8955 74.0852 60.8955 73.8494 60.7383 73.6922C60.5811 73.535 60.3453 73.535 60.1881 73.6922Z" fill="url(#paint9_linear)"/>
</g>
</g>
<g opacity="0.56">
<g opacity="0.56">
<path opacity="0.56" d="M66.79 45.9889L67.707 45.072V37.0165H67.9165V45.1506L66.9341 46.133L66.79 45.9889Z" fill="url(#paint10_linear)"/>
</g>
<g opacity="0.56">
<path opacity="0.56" d="M66.6061 45.7794C66.462 45.9366 66.462 46.1723 66.6061 46.3295C66.7633 46.4867 66.9991 46.4867 67.1562 46.3295C67.3134 46.1723 67.3134 45.9366 67.1562 45.7794C66.9991 45.6222 66.7502 45.6222 66.6061 45.7794Z" fill="url(#paint11_linear)"/>
</g>
</g>
</g>
<path d="M60.4365 19.2548V11.6184H60.5937V19.1894L61.4713 20.067V22.7784L64.3661 25.6731V39.6362L67.9288 43.1989L67.8109 43.3168L64.2089 39.7016V25.7386L61.3141 22.8569V20.1324L60.4365 19.2548Z" fill="#4179BA"/>
<path d="M67.8638 43.5395C68.0302 43.5395 68.165 43.4047 68.165 43.2383C68.165 43.0719 68.0302 42.937 67.8638 42.937C67.6974 42.937 67.5625 43.0719 67.5625 43.2383C67.5625 43.4047 67.6974 43.5395 67.8638 43.5395Z" fill="#4179BA"/>
<path d="M60.8164 11.6447C60.8164 11.4744 60.6854 11.3434 60.5151 11.3434C60.3449 11.3434 60.2139 11.4744 60.2139 11.6447C60.2139 11.8149 60.3579 11.9459 60.5151 11.9459C60.6854 11.9459 60.8164 11.8149 60.8164 11.6447Z" fill="#4179BA"/>
<path d="M56.8867 29.3408V21.1935H57.057V29.2622L60.7115 32.9298V46.8142L66.0033 52.106V71.9634H65.833V52.1715L60.5543 46.8928V32.9953L56.8867 29.3408Z" fill="#4179BA"/>
<path d="M65.6104 71.9372C65.6104 72.1075 65.7413 72.2385 65.9116 72.2385C66.0819 72.2385 66.2129 72.0944 66.2129 71.9372C66.2129 71.767 66.0688 71.636 65.9116 71.636C65.7413 71.636 65.6104 71.767 65.6104 71.9372Z" fill="#4179BA"/>
<path d="M64.1963 29.9301L64.3142 29.8123L68.2568 33.7549V40.6316L70.6407 43.0156V62.5848H70.4705V43.0811L68.0996 40.6971V33.8204L64.1963 29.9301Z" fill="#4179BA"/>
<path d="M70.5493 62.873C70.7157 62.873 70.8506 62.7381 70.8506 62.5717C70.8506 62.4053 70.7157 62.2704 70.5493 62.2704C70.3829 62.2704 70.248 62.4053 70.248 62.5717C70.248 62.7381 70.3829 62.873 70.5493 62.873Z" fill="#4179BA"/>
<path d="M64.2354 34.0825L64.3532 33.9777L66.0037 35.615V38.2478H65.8334V35.6805L64.2354 34.0825Z" fill="#4179BA"/>
<path d="M65.9116 38.5359C66.078 38.5359 66.2129 38.401 66.2129 38.2346C66.2129 38.0682 66.078 37.9333 65.9116 37.9333C65.7452 37.9333 65.6104 38.0682 65.6104 38.2346C65.6104 38.401 65.7452 38.5359 65.9116 38.5359Z" fill="#4179BA"/>
<path d="M63.0039 49.329V45.4257L64.6543 43.7753L64.7722 43.8932L63.1742 45.4912V49.329H63.0039Z" fill="#4179BA"/>
<path d="M64.7065 44.1421C64.8729 44.1421 65.0078 44.0072 65.0078 43.8408C65.0078 43.6744 64.8729 43.5396 64.7065 43.5396C64.5402 43.5396 64.4053 43.6744 64.4053 43.8408C64.4053 44.0072 64.5402 44.1421 64.7065 44.1421Z" fill="#4179BA"/>
<path d="M59.0215 48.8837V40.7626L60.5409 39.2432L60.6588 39.361L59.1787 40.8412V48.8182L64.2347 53.8611V61.2487H64.0775V53.9397L59.0215 48.8837Z" fill="#4179BA"/>
<path d="M64.1558 61.5369C64.3222 61.5369 64.457 61.402 64.457 61.2356C64.457 61.0692 64.3222 60.9343 64.1558 60.9343C63.9894 60.9343 63.8545 61.0692 63.8545 61.2356C63.8545 61.402 63.9894 61.5369 64.1558 61.5369Z" fill="#4179BA"/>
<path d="M68.3223 58.0658V47.6131L70.4835 45.465L70.6014 45.5829L68.4926 47.6786V58.0658H68.3223Z" fill="#4179BA"/>
<path d="M68.4136 58.3539C68.5799 58.3539 68.7148 58.219 68.7148 58.0526C68.7148 57.8862 68.5799 57.7513 68.4136 57.7513C68.2472 57.7513 68.1123 57.8862 68.1123 58.0526C68.1123 58.219 68.2472 58.3539 68.4136 58.3539Z" fill="#4179BA"/>
<path d="M65.8857 59.1399L66.0036 59.022L67.4969 60.5152V68.5708H67.3266V60.5807L65.8857 59.1399Z" fill="#4179BA"/>
<path d="M67.4175 68.8589C67.5839 68.8589 67.7187 68.724 67.7187 68.5576C67.7187 68.3912 67.5839 68.2563 67.4175 68.2563C67.2511 68.2563 67.1162 68.3912 67.1162 68.5576C67.1162 68.724 67.2511 68.8589 67.4175 68.8589Z" fill="#4179BA"/>
<path d="M60.4375 71.0989L62.2451 69.2913V57.555L64.092 55.7081L64.2098 55.8129L62.4023 57.6205V69.3568L60.5423 71.2168L60.4375 71.0989Z" fill="#4179BA"/>
<path d="M60.2798 70.9286C60.1619 71.0465 60.1619 71.243 60.2798 71.3609C60.3977 71.4788 60.5942 71.4788 60.7121 71.3609C60.83 71.243 60.83 71.0465 60.7121 70.9286C60.5942 70.8107 60.3977 70.8107 60.2798 70.9286Z" fill="#4179BA"/>
<path d="M61.3145 15.9409V12.7186L63.0042 11.0289L63.122 11.1468L61.4716 12.7841V15.8754L67.7589 22.1496V26.7341L72.6446 31.6329V38.1167H72.4875V31.6984L67.6017 26.8127V22.2151L61.3145 15.9409Z" fill="#4179BA"/>
<path d="M72.8681 38.1036C72.8681 38.2739 72.7372 38.4049 72.5669 38.4049C72.3966 38.4049 72.2656 38.2608 72.2656 38.1036C72.2656 37.9333 72.3966 37.8023 72.5669 37.8023C72.7372 37.7892 72.8681 37.9333 72.8681 38.1036Z" fill="#4179BA"/>
<path d="M63.0435 11.3957C63.2098 11.3957 63.3447 11.2609 63.3447 11.0945C63.3447 10.9281 63.2098 10.7932 63.0435 10.7932C62.8771 10.7932 62.7422 10.9281 62.7422 11.0945C62.7422 11.2609 62.8771 11.3957 63.0435 11.3957Z" fill="#4179BA"/>
<path d="M62.9775 20.6957V17.5652H63.1347V20.6171L65.8985 23.3809V26.1447H65.7413V23.4464L62.9775 20.6957Z" fill="#4179BA"/>
<path d="M65.5059 26.1316C65.5059 26.3019 65.6499 26.4329 65.8071 26.4329C65.9774 26.4329 66.1084 26.3019 66.1084 26.1316C66.1084 25.9613 65.9774 25.8303 65.8071 25.8303C65.6499 25.8303 65.5059 25.9613 65.5059 26.1316Z" fill="#4179BA"/>
<path d="M69.5264 35.6804V28.6989H69.6836V35.6149L71.1375 37.0557V41.0377L71.8055 41.7057L71.6876 41.8236L70.9672 41.1032V37.1343L69.5264 35.6804Z" fill="#4179BA"/>
<path d="M71.7407 42.0593C71.9071 42.0593 72.042 41.9244 72.042 41.7581C72.042 41.5917 71.9071 41.4568 71.7407 41.4568C71.5743 41.4568 71.4395 41.5917 71.4395 41.7581C71.4395 41.9244 71.5743 42.0593 71.7407 42.0593Z" fill="#4179BA"/>
<path d="M66.0039 31.6985V29.4325L67.0779 28.3584L67.1958 28.4632L66.1611 29.498V31.6985H66.0039Z" fill="#4179BA"/>
<path d="M67.34 28.6335C67.4579 28.5156 67.4579 28.3191 67.34 28.2012C67.2221 28.0833 67.0256 28.0833 66.9077 28.2012C66.7899 28.3191 66.7899 28.5156 66.9077 28.6335C67.0256 28.7644 67.2221 28.7644 67.34 28.6335Z" fill="#4179BA"/>
<path d="M70.9814 65.1652L72.1734 63.9732V51.1235L73.9417 49.3421V41.7319L71.0076 38.7978L71.1255 38.6799L74.112 41.6664V49.4076L72.3306 51.189V64.0387L71.0862 65.2831L70.9814 65.1652Z" fill="#4179BA"/>
<path d="M71.0464 65.5057C71.2128 65.5057 71.3477 65.3708 71.3477 65.2045C71.3477 65.0381 71.2128 64.9032 71.0464 64.9032C70.88 64.9032 70.7451 65.0381 70.7451 65.2045C70.7451 65.3708 70.88 65.5057 71.0464 65.5057Z" fill="#4179BA"/>
<path d="M65.5322 48.8837L66.2657 48.1502V41.7319H66.436V48.2157L65.6501 49.0016L65.5322 48.8837Z" fill="#4179BA"/>
<path d="M65.3882 48.7134C65.2703 48.8313 65.2703 49.0278 65.3882 49.1457C65.5061 49.2635 65.7026 49.2635 65.8205 49.1457C65.9384 49.0278 65.9384 48.8313 65.8205 48.7134C65.7026 48.5955 65.5061 48.5955 65.3882 48.7134Z" fill="#4179BA"/>
<path d="M72.2119 49.2112V45.465L73.9671 43.7229L74.085 43.8277L72.3822 45.5305V49.2112H72.2119Z" fill="#4179BA"/>
<path d="M71.9893 49.1981C71.9893 49.3684 72.1203 49.4994 72.2905 49.4994C72.4608 49.4994 72.5918 49.3684 72.5918 49.1981C72.5918 49.0278 72.4608 48.8969 72.2905 48.8969C72.1203 48.8969 71.9893 49.0278 71.9893 49.1981Z" fill="#4179BA"/>
<path d="M67.1953 56.7167V52.0274L68.3218 50.8878L68.4397 51.0057L67.3525 52.0929V56.7167H67.1953Z" fill="#4179BA"/>
<path d="M67.2739 57.0049C67.4403 57.0049 67.5752 56.87 67.5752 56.7036C67.5752 56.5372 67.4403 56.4023 67.2739 56.4023C67.1075 56.4023 66.9727 56.5372 66.9727 56.7036C66.9727 56.87 67.1075 57.0049 67.2739 57.0049Z" fill="#4179BA"/>
<path d="M72.2119 54.1362L72.3167 54.0183L75.1853 56.8738V68.9114L77.3727 71.0988L77.2548 71.2167L75.015 68.9769V56.9393L72.2119 54.1362Z" fill="#4179BA"/>
<path d="M77.0845 71.3738C77.2024 71.4917 77.3989 71.4917 77.5167 71.3738C77.6346 71.2559 77.6346 71.0595 77.5167 70.9416C77.3989 70.8237 77.2024 70.8237 77.0845 70.9416C76.9666 71.0595 76.9666 71.2428 77.0845 71.3738Z" fill="#4179BA"/>
<path d="M48.9227 26.066C28.4759 26.066 11.9062 43.0417 11.9062 43.0417C11.9062 43.0417 28.4759 60.0174 48.9227 60.0174C69.3695 60.0174 85.9391 43.0417 85.9391 43.0417C85.9391 43.0417 69.3695 26.066 48.9227 26.066ZM48.9227 56.4546C41.522 56.4546 35.5098 50.4555 35.5098 43.0417C35.5098 35.628 41.5089 29.6288 48.9227 29.6288C56.3365 29.6288 62.3356 35.628 62.3356 43.0417C62.3356 50.4555 56.3234 56.4546 48.9227 56.4546Z" fill="url(#paint12_linear)"/>
<path d="M48.9229 48.5956C51.9902 48.5956 54.4767 46.1091 54.4767 43.0418C54.4767 39.9745 51.9902 37.488 48.9229 37.488C45.8557 37.488 43.3691 39.9745 43.3691 43.0418C43.3691 46.1091 45.8557 48.5956 48.9229 48.5956Z" fill="url(#paint13_linear)"/>
<path d="M55.9307 21.4292V11.1992H56.1402V21.3506L60.7378 25.9482V43.3954L67.3656 50.0364V74.976H67.1692V50.1281L60.5282 43.4871V26.0268L55.9307 21.4292Z" fill="url(#paint14_linear)"/>
<path d="M66.8818 74.9628C66.8818 75.1724 67.0521 75.3427 67.2617 75.3427C67.4712 75.3427 67.6415 75.1724 67.6415 74.9628C67.6415 74.7533 67.4712 74.583 67.2617 74.583C67.0521 74.5699 66.8818 74.7402 66.8818 74.9628Z" fill="url(#paint15_linear)"/>
<path d="M63.6191 46.5521V41.6401L65.6887 39.5706L65.8327 39.7146L63.8156 41.7318V46.5521H63.6191Z" fill="url(#paint16_linear)"/>
<path d="M66.0156 39.9373C66.1597 39.7932 66.1597 39.5444 66.0156 39.3872C65.8584 39.23 65.6227 39.23 65.4655 39.3872C65.3214 39.5313 65.3214 39.7801 65.4655 39.9373C65.6227 40.0814 65.8584 40.0814 66.0156 39.9373Z" fill="url(#paint17_linear)"/>
<path d="M58.6025 45.989V35.7984L60.528 33.886L60.6721 34.0301L58.8121 35.877V45.8973L65.1518 52.2501V61.537H64.9553V52.3418L58.6025 45.989Z" fill="url(#paint18_linear)"/>
<path d="M64.667 61.5108C64.667 61.7204 64.8373 61.8907 65.0468 61.8907C65.2564 61.8907 65.4267 61.7204 65.4267 61.5108C65.4267 61.3013 65.2564 61.131 65.0468 61.131C64.8373 61.131 64.667 61.3013 64.667 61.5108Z" fill="url(#paint19_linear)"/>
<path d="M67.2344 58.8778L67.3785 58.7338L69.2515 60.6069V70.7189H69.042V60.6854L67.2344 58.8778Z" fill="url(#paint20_linear)"/>
<path d="M69.1465 71.0726C69.3563 71.0726 69.5263 70.9025 69.5263 70.6927C69.5263 70.4829 69.3563 70.3129 69.1465 70.3129C68.9367 70.3129 68.7666 70.4829 68.7666 70.6927C68.7666 70.9025 68.9367 71.0726 69.1465 71.0726Z" fill="url(#paint21_linear)"/>
<path d="M60.3721 73.9018L62.6512 71.6227V56.8868L64.9828 54.5553L65.1269 54.6994L62.8608 56.9654V71.7144L60.5293 74.0459L60.3721 73.9018Z" fill="url(#paint22_linear)"/>
<path d="M60.1881 73.6922C60.0441 73.8494 60.0441 74.0852 60.1881 74.2424C60.3453 74.3865 60.5811 74.3865 60.7383 74.2424C60.8955 74.0852 60.8955 73.8494 60.7383 73.6922C60.5811 73.535 60.3453 73.535 60.1881 73.6922Z" fill="url(#paint23_linear)"/>
<path d="M66.79 45.9889L67.707 45.072V37.0165H67.9165V45.1506L66.9341 46.133L66.79 45.9889Z" fill="url(#paint24_linear)"/>
<path d="M66.6061 45.7794C66.462 45.9366 66.462 46.1723 66.6061 46.3295C66.7633 46.4867 66.9991 46.4867 67.1562 46.3295C67.3134 46.1723 67.3134 45.9366 67.1562 45.7794C66.9991 45.6222 66.7502 45.6222 66.6061 45.7794Z" fill="url(#paint25_linear)"/>
<path d="M50.4557 44.0374H29.498V44.8233H50.4557V44.0374Z" fill="#4179BA"/>
<path d="M50.4557 46.657H29.498V47.4429H50.4557V46.657Z" fill="#4179BA"/>
<path d="M50.4557 49.1458H29.498V49.9317H50.4557V49.1458Z" fill="#4179BA"/>
<path d="M50.4557 51.7655H29.498V52.5514H50.4557V51.7655Z" fill="#4179BA"/>
<path d="M50.4557 54.3853H29.498V55.1711H50.4557V54.3853Z" fill="#4179BA"/>
<path d="M50.4557 56.8739H29.498V57.6598H50.4557V56.8739Z" fill="#4179BA"/>
<path d="M50.4557 59.4937H29.498V60.2796H50.4557V59.4937Z" fill="#4179BA"/>
<path d="M50.4557 62.1134H29.498V62.8993H50.4557V62.1134Z" fill="#4179BA"/>
<path d="M50.4557 62.1134H29.498V62.8993H50.4557V62.1134Z" fill="#4179BA"/>
<path d="M50.4557 64.6021H29.498V65.388H50.4557V64.6021Z" fill="#4179BA"/>
<path d="M50.4557 67.2218H29.498V68.0077H50.4557V67.2218Z" fill="#4179BA"/>
<path d="M50.4557 67.2218H29.498V68.0077H50.4557V67.2218Z" fill="#4179BA"/>
<path d="M50.4557 67.2218H29.498V68.0077H50.4557V67.2218Z" fill="#4179BA"/>
<path d="M50.4557 69.8414H29.498V70.6273H50.4557V69.8414Z" fill="#4179BA"/>
<path d="M50.4557 72.3302H29.498V73.1161H50.4557V72.3302Z" fill="#4179BA"/>
<path d="M28.0315 43.6968H26.5645V45.1638H28.0315V43.6968Z" fill="#4179BA"/>
<path d="M28.0315 46.3165H26.5645V47.7836H28.0315V46.3165Z" fill="#4179BA"/>
<path d="M28.0315 48.8052H26.5645V50.2722H28.0315V48.8052Z" fill="#4179BA"/>
<path d="M28.0315 51.4249H26.5645V52.892H28.0315V51.4249Z" fill="#4179BA"/>
<path d="M28.0315 54.0446H26.5645V55.5116H28.0315V54.0446Z" fill="#4179BA"/>
<path d="M28.0315 56.5333H26.5645V58.0003H28.0315V56.5333Z" fill="#4179BA"/>
<path d="M28.0315 59.1531H26.5645V60.6201H28.0315V59.1531Z" fill="#4179BA"/>
<path d="M28.0315 61.7727H26.5645V63.2398H28.0315V61.7727Z" fill="#4179BA"/>
<path d="M28.0315 64.2615H26.5645V65.7285H28.0315V64.2615Z" fill="#4179BA"/>
<path d="M28.0315 66.8812H26.5645V68.3483H28.0315V66.8812Z" fill="#4179BA"/>
<path d="M28.0315 69.5009H26.5645V70.9679H28.0315V69.5009Z" fill="#4179BA"/>
<path d="M28.0315 71.9896H26.5645V73.4567H28.0315V71.9896Z" fill="#4179BA"/>
<g opacity="0.28">
<g opacity="0.28">
<g opacity="0.28">
<path opacity="0.28" d="M50.4557 44.0374H29.498V44.8233H50.4557V44.0374Z" fill="#4179BA"/>
</g>
<g opacity="0.28">
<path opacity="0.28" d="M50.4557 46.657H29.498V47.4429H50.4557V46.657Z" fill="#4179BA"/>
</g>
<g opacity="0.28">
<path opacity="0.28" d="M50.4557 49.1458H29.498V49.9317H50.4557V49.1458Z" fill="#4179BA"/>
</g>
<g opacity="0.28">
<path opacity="0.28" d="M50.4557 51.7655H29.498V52.5514H50.4557V51.7655Z" fill="#4179BA"/>
</g>
<g opacity="0.28">
<path opacity="0.28" d="M50.4557 54.3853H29.498V55.1711H50.4557V54.3853Z" fill="#4179BA"/>
</g>
<g opacity="0.28">
<path opacity="0.28" d="M50.4557 56.8739H29.498V57.6598H50.4557V56.8739Z" fill="#4179BA"/>
</g>
<g opacity="0.28">
<path opacity="0.28" d="M50.4557 59.4937H29.498V60.2796H50.4557V59.4937Z" fill="#4179BA"/>
</g>
<g opacity="0.28">
<path opacity="0.28" d="M50.4557 62.1134H29.498V62.8993H50.4557V62.1134Z" fill="#4179BA"/>
</g>
<g opacity="0.28">
<path opacity="0.28" d="M50.4557 62.1134H29.498V62.8993H50.4557V62.1134Z" fill="#4179BA"/>
</g>
<g opacity="0.28">
<path opacity="0.28" d="M50.4557 64.6021H29.498V65.388H50.4557V64.6021Z" fill="#4179BA"/>
</g>
<g opacity="0.28">
<path opacity="0.28" d="M50.4557 67.2218H29.498V68.0077H50.4557V67.2218Z" fill="#4179BA"/>
</g>
<g opacity="0.28">
<path opacity="0.28" d="M50.4557 67.2218H29.498V68.0077H50.4557V67.2218Z" fill="#4179BA"/>
</g>
<g opacity="0.28">
<path opacity="0.28" d="M50.4557 67.2218H29.498V68.0077H50.4557V67.2218Z" fill="#4179BA"/>
</g>
<g opacity="0.28">
<path opacity="0.28" d="M50.4557 69.8414H29.498V70.6273H50.4557V69.8414Z" fill="#4179BA"/>
</g>
<g opacity="0.28">
<path opacity="0.28" d="M50.4557 72.3302H29.498V73.1161H50.4557V72.3302Z" fill="#4179BA"/>
</g>
</g>
<g opacity="0.28">
<path opacity="0.28" d="M28.0315 43.6968H26.5645V45.1638H28.0315V43.6968Z" fill="#4179BA"/>
</g>
<g opacity="0.28">
<path opacity="0.28" d="M28.0315 46.3165H26.5645V47.7836H28.0315V46.3165Z" fill="#4179BA"/>
</g>
<g opacity="0.28">
<path opacity="0.28" d="M28.0315 48.8052H26.5645V50.2722H28.0315V48.8052Z" fill="#4179BA"/>
</g>
<g opacity="0.28">
<path opacity="0.28" d="M28.0315 51.4249H26.5645V52.892H28.0315V51.4249Z" fill="#4179BA"/>
</g>
<g opacity="0.28">
<path opacity="0.28" d="M28.0315 54.0446H26.5645V55.5116H28.0315V54.0446Z" fill="#4179BA"/>
</g>
<g opacity="0.28">
<path opacity="0.28" d="M28.0315 56.5333H26.5645V58.0003H28.0315V56.5333Z" fill="#4179BA"/>
</g>
<g opacity="0.28">
<path opacity="0.28" d="M28.0315 59.1531H26.5645V60.6201H28.0315V59.1531Z" fill="#4179BA"/>
</g>
<g opacity="0.28">
<path opacity="0.28" d="M28.0315 61.7727H26.5645V63.2398H28.0315V61.7727Z" fill="#4179BA"/>
</g>
<g opacity="0.28">
<path opacity="0.28" d="M28.0315 64.2615H26.5645V65.7285H28.0315V64.2615Z" fill="#4179BA"/>
</g>
<g opacity="0.28">
<path opacity="0.28" d="M28.0315 66.8812H26.5645V68.3483H28.0315V66.8812Z" fill="#4179BA"/>
</g>
<g opacity="0.28">
<path opacity="0.28" d="M28.0315 69.5009H26.5645V70.9679H28.0315V69.5009Z" fill="#4179BA"/>
</g>
<g opacity="0.28">
<path opacity="0.28" d="M28.0315 71.9896H26.5645V73.4567H28.0315V71.9896Z" fill="#4179BA"/>
</g>
</g>
<defs>
<linearGradient id="paint0_linear" x1="61.5941" y1="18.6091" x2="61.7555" y2="66.6926" gradientUnits="userSpaceOnUse">
<stop stop-color="#7C18FF"/>
<stop offset="0.3265" stop-color="#895AB2"/>
<stop offset="1" stop-color="#0072B7"/>
</linearGradient>
<linearGradient id="paint1_linear" x1="67.0799" y1="18.5936" x2="67.2412" y2="66.6746" gradientUnits="userSpaceOnUse">
<stop stop-color="#7C18FF"/>
<stop offset="0.3265" stop-color="#895AB2"/>
<stop offset="1" stop-color="#0072B7"/>
</linearGradient>
<linearGradient id="paint2_linear" x1="64.6397" y1="18.5988" x2="64.8011" y2="66.6823" gradientUnits="userSpaceOnUse">
<stop stop-color="#7C18FF"/>
<stop offset="0.3265" stop-color="#895AB2"/>
<stop offset="1" stop-color="#0072B7"/>
</linearGradient>
<linearGradient id="paint3_linear" x1="65.671" y1="18.5949" x2="65.8324" y2="66.6794" gradientUnits="userSpaceOnUse">
<stop stop-color="#7C18FF"/>
<stop offset="0.3265" stop-color="#895AB2"/>
<stop offset="1" stop-color="#0072B7"/>
</linearGradient>
<linearGradient id="paint4_linear" x1="61.7789" y1="18.6086" x2="61.9402" y2="66.6921" gradientUnits="userSpaceOnUse">
<stop stop-color="#7C18FF"/>
<stop offset="0.3265" stop-color="#895AB2"/>
<stop offset="1" stop-color="#0072B7"/>
</linearGradient>
<linearGradient id="paint5_linear" x1="64.9105" y1="18.5975" x2="65.0719" y2="66.6817" gradientUnits="userSpaceOnUse">
<stop stop-color="#7C18FF"/>
<stop offset="0.3265" stop-color="#895AB2"/>
<stop offset="1" stop-color="#0072B7"/>
</linearGradient>
<linearGradient id="paint6_linear" x1="68.105" y1="18.5873" x2="68.2663" y2="66.6707" gradientUnits="userSpaceOnUse">
<stop stop-color="#7C18FF"/>
<stop offset="0.3265" stop-color="#895AB2"/>
<stop offset="1" stop-color="#0072B7"/>
</linearGradient>
<linearGradient id="paint7_linear" x1="68.9717" y1="18.5845" x2="69.133" y2="66.6678" gradientUnits="userSpaceOnUse">
<stop stop-color="#7C18FF"/>
<stop offset="0.3265" stop-color="#895AB2"/>
<stop offset="1" stop-color="#0072B7"/>
</linearGradient>
<linearGradient id="paint8_linear" x1="62.5997" y1="18.6057" x2="62.7611" y2="66.6892" gradientUnits="userSpaceOnUse">
<stop stop-color="#7C18FF"/>
<stop offset="0.3265" stop-color="#895AB2"/>
<stop offset="1" stop-color="#0072B7"/>
</linearGradient>
<linearGradient id="paint9_linear" x1="60.2778" y1="18.6121" x2="60.4392" y2="66.6968" gradientUnits="userSpaceOnUse">
<stop stop-color="#7C18FF"/>
<stop offset="0.3265" stop-color="#895AB2"/>
<stop offset="1" stop-color="#0072B7"/>
</linearGradient>
<linearGradient id="paint10_linear" x1="67.2736" y1="18.5902" x2="67.435" y2="66.6735" gradientUnits="userSpaceOnUse">
<stop stop-color="#7C18FF"/>
<stop offset="0.3265" stop-color="#895AB2"/>
<stop offset="1" stop-color="#0072B7"/>
</linearGradient>
<linearGradient id="paint11_linear" x1="66.7804" y1="18.5924" x2="66.9418" y2="66.6747" gradientUnits="userSpaceOnUse">
<stop stop-color="#7C18FF"/>
<stop offset="0.3265" stop-color="#895AB2"/>
<stop offset="1" stop-color="#0072B7"/>
</linearGradient>
<linearGradient id="paint12_linear" x1="48.3854" y1="58.5021" x2="49.4333" y2="28.1136" gradientUnits="userSpaceOnUse">
<stop offset="0.0153061" stop-color="#7AC8CB"/>
<stop offset="1" stop-color="#0072B7"/>
</linearGradient>
<linearGradient id="paint13_linear" x1="48.3856" y1="58.5022" x2="49.4335" y2="28.1136" gradientUnits="userSpaceOnUse">
<stop offset="0.0153061" stop-color="#7AC8CB"/>
<stop offset="1" stop-color="#0072B7"/>
</linearGradient>
<linearGradient id="paint14_linear" x1="61.9846" y1="63.819" x2="61.5005" y2="22.9964" gradientUnits="userSpaceOnUse">
<stop stop-color="#0072B7"/>
<stop offset="1" stop-color="#5931B7" stop-opacity="0.6"/>
</linearGradient>
<linearGradient id="paint15_linear" x1="67.1362" y1="63.7584" x2="66.6522" y2="22.938" gradientUnits="userSpaceOnUse">
<stop stop-color="#0072B7"/>
<stop offset="1" stop-color="#5931B7" stop-opacity="0.6"/>
</linearGradient>
<linearGradient id="paint16_linear" x1="64.9669" y1="63.7835" x2="64.4828" y2="22.961" gradientUnits="userSpaceOnUse">
<stop stop-color="#0072B7"/>
<stop offset="1" stop-color="#5931B7" stop-opacity="0.6"/>
</linearGradient>
<linearGradient id="paint17_linear" x1="66.0276" y1="63.7715" x2="65.5435" y2="22.9481" gradientUnits="userSpaceOnUse">
<stop stop-color="#0072B7"/>
<stop offset="1" stop-color="#5931B7" stop-opacity="0.6"/>
</linearGradient>
<linearGradient id="paint18_linear" x1="62.0556" y1="63.8182" x2="61.5715" y2="22.9957" gradientUnits="userSpaceOnUse">
<stop stop-color="#0072B7"/>
<stop offset="1" stop-color="#5931B7" stop-opacity="0.6"/>
</linearGradient>
<linearGradient id="paint19_linear" x1="65.0814" y1="63.7825" x2="64.5973" y2="22.9592" gradientUnits="userSpaceOnUse">
<stop stop-color="#0072B7"/>
<stop offset="1" stop-color="#5931B7" stop-opacity="0.6"/>
</linearGradient>
<linearGradient id="paint20_linear" x1="68.2905" y1="63.7442" x2="67.8065" y2="22.9216" gradientUnits="userSpaceOnUse">
<stop stop-color="#0072B7"/>
<stop offset="1" stop-color="#5931B7" stop-opacity="0.6"/>
</linearGradient>
<linearGradient id="paint21_linear" x1="69.064" y1="63.735" x2="68.58" y2="22.9126" gradientUnits="userSpaceOnUse">
<stop stop-color="#0072B7"/>
<stop offset="1" stop-color="#5931B7" stop-opacity="0.6"/>
</linearGradient>
<linearGradient id="paint22_linear" x1="62.7472" y1="63.8099" x2="62.2632" y2="22.9874" gradientUnits="userSpaceOnUse">
<stop stop-color="#0072B7"/>
<stop offset="1" stop-color="#5931B7" stop-opacity="0.6"/>
</linearGradient>
<linearGradient id="paint23_linear" x1="60.3435" y1="63.8381" x2="59.8594" y2="23.0145" gradientUnits="userSpaceOnUse">
<stop stop-color="#0072B7"/>
<stop offset="1" stop-color="#5931B7" stop-opacity="0.6"/>
</linearGradient>
<linearGradient id="paint24_linear" x1="67.6144" y1="63.7522" x2="67.1303" y2="22.9298" gradientUnits="userSpaceOnUse">
<stop stop-color="#0072B7"/>
<stop offset="1" stop-color="#5931B7" stop-opacity="0.6"/>
</linearGradient>
<linearGradient id="paint25_linear" x1="67.0826" y1="63.7581" x2="66.5985" y2="22.9366" gradientUnits="userSpaceOnUse">
<stop stop-color="#0072B7"/>
<stop offset="1" stop-color="#5931B7" stop-opacity="0.6"/>
</linearGradient>
</defs>
</svg>
