<?xml version="1.0" encoding="utf-8"?>
<!-- Generator: Adobe Illustrator 24.3.0, SVG Export Plug-In . SVG Version: 6.00 game 0)  -->
<svg version="1.1" id="Layer_1" xmlns="http://www.w3.org/2000/svg" xmlns:xlink="http://www.w3.org/1999/xlink" x="0px" y="0px"
	 viewBox="0 0 595.28 550" style="enable-background:new 0 0 595.28 550;" xml:space="preserve">
<style type="text/css">
	.st0{fill:#4179BA;}
	.st1{fill:#020202;}
	.st2{fill:#0A86C2;}
	.st3{fill:#ED3550;}
	.st4{fill:#FBB234;}
	.st5{fill:#1E8C3E;}
	.st6{fill:url(#SVGID_1_);}
	.st7{fill:url(#SVGID_2_);}
	.st8{fill:url(#SVGID_3_);}
	.st9{fill:url(#SVGID_4_);}
	.st10{fill:url(#SVGID_5_);}
	.st11{fill:url(#SVGID_6_);}
	.st12{fill:url(#SVGID_7_);}
	.st13{fill:#FFFFFF;}
	.st14{opacity:0.56;}
	.st15{fill:url(#XMLID_2_);}
	.st16{fill:url(#XMLID_3_);}
	.st17{fill:url(#XMLID_4_);}
	.st18{fill:url(#XMLID_5_);}
	.st19{fill:url(#XMLID_6_);}
	.st20{fill:url(#XMLID_7_);}
	.st21{fill:url(#XMLID_8_);}
	.st22{fill:url(#XMLID_9_);}
	.st23{fill:url(#XMLID_10_);}
	.st24{fill:url(#XMLID_11_);}
	.st25{fill:url(#XMLID_12_);}
	.st26{fill:url(#XMLID_13_);}
	.st27{fill:url(#XMLID_14_);}
	.st28{fill:url(#XMLID_15_);}
	.st29{fill:url(#XMLID_16_);}
	.st30{fill:url(#XMLID_17_);}
	.st31{fill:url(#XMLID_18_);}
	.st32{fill:url(#XMLID_19_);}
	.st33{fill:url(#XMLID_20_);}
	.st34{fill:url(#XMLID_21_);}
	.st35{fill:url(#XMLID_22_);}
	.st36{fill:url(#XMLID_23_);}
	.st37{fill:url(#XMLID_24_);}
	.st38{fill:url(#XMLID_25_);}
	.st39{fill:url(#SVGID_8_);}
</style>
<g id="XMLID_3274_">
	<g id="XMLID_3362_">
		<g id="XMLID_3367_">
			<polygon id="XMLID_3368_" class="st0" points="379.78,98.81 379.78,40.57 381.03,40.57 381.03,98.3 387.75,105.02 387.75,125.77 
				409.83,147.85 409.83,254.45 437.01,281.62 436.12,282.5 408.58,254.96 408.58,148.37 386.5,126.29 386.5,105.53 			"/>
		</g>
		<g id="XMLID_3365_">
			<path id="XMLID_3366_" class="st0" d="M438.14,280.32c0.92,0.91,0.92,2.4,0,3.31c-0.92,0.92-2.4,0.92-3.31,0
				c-0.92-0.92-0.92-2.4,0-3.31C435.74,279.41,437.22,279.41,438.14,280.32z"/>
		</g>
		<g id="XMLID_3363_">
			<path id="XMLID_3364_" class="st0" d="M382.75,40.68c0-1.29-1.05-2.34-2.34-2.34c-1.29,0-2.34,1.05-2.34,2.34
				c0,1.3,1.05,2.35,2.34,2.35C381.7,43.03,382.75,41.98,382.75,40.68z"/>
		</g>
	</g>
	<g id="XMLID_3357_">
		<g id="XMLID_3360_">
			<polygon id="XMLID_3361_" class="st0" points="352.75,175.78 352.75,113.6 354,113.6 354,175.27 381.92,203.18 381.92,309.26 
				422.27,349.62 422.27,501.19 421.02,501.19 421.02,350.13 380.67,309.78 380.67,203.7 			"/>
		</g>
		<g id="XMLID_3358_">
			<path id="XMLID_3359_" class="st0" d="M419.3,501.07c0,1.3,1.05,2.35,2.34,2.35c1.3,0,2.35-1.05,2.35-2.35
				c0-1.29-1.05-2.34-2.35-2.34C420.35,498.73,419.3,499.78,419.3,501.07z"/>
		</g>
	</g>
	<g id="XMLID_3352_">
		<g id="XMLID_3355_">
			<polygon id="XMLID_3356_" class="st0" points="408.53,180.29 409.41,179.41 439.53,209.52 439.53,262.06 457.67,280.2 
				457.67,429.62 456.42,429.62 456.42,280.72 438.28,262.58 438.28,210.04 			"/>
		</g>
		<g id="XMLID_3353_">
			<path id="XMLID_3354_" class="st0" d="M454.7,429.5c0,1.29,1.05,2.34,2.34,2.34c1.3,0,2.34-1.05,2.34-2.34
				c0-1.3-1.05-2.34-2.34-2.34C455.75,427.16,454.7,428.21,454.7,429.5z"/>
		</g>
	</g>
	<g id="XMLID_3347_">
		<g id="XMLID_3350_">
			<polygon id="XMLID_3351_" class="st0" points="408.83,212.07 409.71,211.18 422.27,223.74 422.27,243.85 421.02,243.85 
				421.02,224.25 			"/>
		</g>
		<g id="XMLID_3348_">
			<path id="XMLID_3349_" class="st0" d="M419.3,243.73c0,1.29,1.05,2.34,2.34,2.34c1.3,0,2.35-1.05,2.35-2.34
				c0-1.3-1.05-2.34-2.35-2.34C420.35,241.39,419.3,242.44,419.3,243.73z"/>
		</g>
	</g>
	<g id="XMLID_3342_">
		<g id="XMLID_3345_">
			<polygon id="XMLID_3346_" class="st0" points="399.45,328.4 399.45,298.6 412.01,286.04 412.9,286.92 400.69,299.12 
				400.69,328.4 			"/>
		</g>
		<g id="XMLID_3343_">
			<path id="XMLID_3344_" class="st0" d="M414.03,288.22c0.92-0.91,0.92-2.4,0-3.31c-0.92-0.92-2.4-0.92-3.32,0
				c-0.92,0.91-0.92,2.4,0,3.31C411.63,289.13,413.11,289.13,414.03,288.22z"/>
		</g>
	</g>
	<g id="XMLID_3337_">
		<g id="XMLID_3340_">
			<polygon id="XMLID_3341_" class="st0" points="368.99,325 368.99,263.07 380.65,251.42 381.53,252.3 370.24,263.59 
				370.24,324.49 408.82,363.07 408.82,419.47 407.57,419.47 407.57,363.58 			"/>
		</g>
		<g id="XMLID_3338_">
			<path id="XMLID_3339_" class="st0" d="M405.85,419.35c0,1.29,1.05,2.34,2.34,2.34c1.3,0,2.35-1.05,2.35-2.34
				c0-1.3-1.05-2.34-2.35-2.34C406.9,417.01,405.85,418.06,405.85,419.35z"/>
		</g>
	</g>
	<g id="XMLID_3332_">
		<g id="XMLID_3335_">
			<polygon id="XMLID_3336_" class="st0" points="440.05,395.1 440.05,315.35 456.48,298.93 457.36,299.81 441.3,315.87 
				441.3,395.1 			"/>
		</g>
		<g id="XMLID_3333_">
			<path id="XMLID_3334_" class="st0" d="M438.33,394.99c0,1.29,1.05,2.34,2.34,2.34c1.3,0,2.34-1.05,2.34-2.34
				c0-1.3-1.05-2.35-2.34-2.35C439.38,392.64,438.33,393.69,438.33,394.99z"/>
		</g>
	</g>
	<g id="XMLID_3327_">
		<g id="XMLID_3330_">
			<polygon id="XMLID_3331_" class="st0" points="421.46,403.36 422.34,402.47 433.69,413.83 433.69,475.3 432.44,475.3 
				432.44,414.34 			"/>
		</g>
		<g id="XMLID_3328_">
			<path id="XMLID_3329_" class="st0" d="M430.72,475.18c0,1.3,1.05,2.34,2.34,2.34c1.29,0,2.34-1.05,2.34-2.34
				c0-1.3-1.05-2.34-2.34-2.34C431.77,472.84,430.72,473.89,430.72,475.18z"/>
		</g>
	</g>
	<g id="XMLID_3322_">
		<g id="XMLID_3325_">
			<polygon id="XMLID_3326_" class="st0" points="379.76,494.67 393.61,480.82 393.61,391.24 407.75,377.1 408.63,377.98 
				394.86,391.76 394.86,481.34 380.64,495.56 			"/>
		</g>
		<g id="XMLID_3323_">
			<path id="XMLID_3324_" class="st0" d="M378.63,493.37c-0.92,0.92-0.92,2.4,0,3.32c0.92,0.91,2.4,0.91,3.31,0
				c0.92-0.92,0.92-2.4,0-3.32C381.03,492.46,379.54,492.46,378.63,493.37z"/>
		</g>
	</g>
	<g id="XMLID_3315_">
		<g id="XMLID_3320_">
			<polygon id="XMLID_3321_" class="st0" points="386.5,73.5 386.5,48.89 399.38,36.01 400.26,36.9 387.75,49.41 387.75,72.99 
				435.72,120.95 435.72,155.98 473.02,193.29 473.02,242.83 471.78,242.83 471.78,193.8 434.47,156.49 434.47,121.47 			"/>
		</g>
		<g id="XMLID_3318_">
			<path id="XMLID_3319_" class="st0" d="M474.74,242.72c0,1.29-1.05,2.35-2.34,2.35c-1.3,0-2.35-1.06-2.35-2.35
				c0-1.29,1.05-2.34,2.35-2.34C473.69,240.37,474.74,241.42,474.74,242.72z"/>
		</g>
		<g id="XMLID_3316_">
			<path id="XMLID_3317_" class="st0" d="M401.4,38.2c0.92-0.92,0.92-2.4,0-3.31c-0.91-0.92-2.4-0.92-3.31,0
				c-0.92,0.91-0.92,2.4,0,3.31C399,39.11,400.48,39.11,401.4,38.2z"/>
		</g>
	</g>
	<g id="XMLID_3310_">
		<g id="XMLID_3313_">
			<polygon id="XMLID_3314_" class="st0" points="399.19,109.8 399.19,85.94 400.44,85.94 400.44,109.28 421.51,130.34 
				421.51,151.47 420.26,151.47 420.26,130.86 			"/>
		</g>
		<g id="XMLID_3311_">
			<path id="XMLID_3312_" class="st0" d="M418.54,151.35c0,1.29,1.05,2.34,2.34,2.34c1.3,0,2.34-1.05,2.34-2.34
				c0-1.3-1.05-2.35-2.34-2.35C419.59,149.01,418.54,150.05,418.54,151.35z"/>
		</g>
	</g>
	<g id="XMLID_3305_">
		<g id="XMLID_3308_">
			<polygon id="XMLID_3309_" class="st0" points="449.19,224.25 449.19,170.95 450.44,170.95 450.44,223.74 461.48,234.78 
				461.48,265.11 466.63,270.26 465.75,271.15 460.23,265.62 460.23,235.29 			"/>
		</g>
		<g id="XMLID_3306_">
			<path id="XMLID_3307_" class="st0" d="M464.45,272.28c0.91,0.92,2.4,0.92,3.32,0c0.91-0.92,0.91-2.4,0-3.31
				c-0.92-0.92-2.4-0.92-3.32,0C463.54,269.88,463.54,271.36,464.45,272.28z"/>
		</g>
	</g>
	<g id="XMLID_3300_">
		<g id="XMLID_3303_">
			<polygon id="XMLID_3304_" class="st0" points="422.29,193.79 422.29,176.53 430.54,168.28 431.42,169.16 423.54,177.05 
				423.54,193.79 			"/>
		</g>
		<g id="XMLID_3301_">
			<path id="XMLID_3302_" class="st0" d="M432.56,170.46c0.92-0.91,0.92-2.4,0-3.31c-0.92-0.92-2.4-0.92-3.31,0
				c-0.92,0.91-0.92,2.4,0,3.31C430.16,171.38,431.64,171.38,432.56,170.46z"/>
		</g>
	</g>
	<g id="XMLID_3295_">
		<g id="XMLID_3298_">
			<polygon id="XMLID_3299_" class="st0" points="460.27,449.31 469.37,440.22 469.37,342.13 482.94,328.55 482.94,270.44 
				460.54,248.04 461.42,247.16 484.19,269.92 484.19,329.07 470.61,342.64 470.61,440.73 461.16,450.19 			"/>
		</g>
		<g id="XMLID_3296_">
			<path id="XMLID_3297_" class="st0" d="M459.14,448.02c-0.92,0.91-0.92,2.4,0,3.31c0.92,0.92,2.4,0.92,3.32,0
				c0.92-0.92,0.92-2.4,0-3.31C461.54,447.1,460.06,447.1,459.14,448.02z"/>
		</g>
	</g>
	<g id="XMLID_3290_">
		<g id="XMLID_3293_">
			<polygon id="XMLID_3294_" class="st0" points="418.72,325.02 424.32,319.41 424.32,270.44 425.57,270.44 425.57,319.93 
				419.6,325.9 			"/>
		</g>
		<g id="XMLID_3291_">
			<path id="XMLID_3292_" class="st0" d="M417.58,323.72c-0.92,0.92-0.92,2.4,0,3.32c0.92,0.92,2.4,0.92,3.31,0
				c0.92-0.92,0.92-2.4,0-3.32C419.98,322.8,418.5,322.8,417.58,323.72z"/>
		</g>
	</g>
	<g id="XMLID_3285_">
		<g id="XMLID_3288_">
			<polygon id="XMLID_3289_" class="st0" points="469.71,327.54 469.71,298.96 483.09,285.59 483.97,286.47 470.96,299.47 
				470.96,327.54 			"/>
		</g>
		<g id="XMLID_3286_">
			<path id="XMLID_3287_" class="st0" d="M467.99,327.43c0,1.29,1.05,2.34,2.34,2.34c1.29,0,2.34-1.05,2.34-2.34
				c0-1.3-1.05-2.35-2.34-2.35C469.04,325.08,467.99,326.13,467.99,327.43z"/>
		</g>
	</g>
	<g id="XMLID_3280_">
		<g id="XMLID_3283_">
			<polygon id="XMLID_3284_" class="st0" points="431.36,384.81 431.36,349.05 440.04,340.37 440.93,341.26 432.61,349.57 
				432.61,384.81 			"/>
		</g>
		<g id="XMLID_3281_">
			<path id="XMLID_3282_" class="st0" d="M429.64,384.69c0,1.3,1.05,2.34,2.34,2.34c1.3,0,2.35-1.05,2.35-2.34
				c0-1.3-1.05-2.34-2.35-2.34C430.69,382.35,429.64,383.4,429.64,384.69z"/>
		</g>
	</g>
	<g id="XMLID_3275_">
		<g id="XMLID_3278_">
			<polygon id="XMLID_3279_" class="st0" points="469.66,365.11 470.55,364.23 492.37,386.05 492.37,477.93 509.12,494.67 
				508.23,495.56 491.12,478.45 491.12,386.57 			"/>
		</g>
		<g id="XMLID_3276_">
			<path id="XMLID_3277_" class="st0" d="M506.93,496.69c0.92,0.92,2.4,0.92,3.31,0c0.92-0.92,0.92-2.4,0-3.32
				c-0.92-0.92-2.4-0.92-3.31,0C506.02,494.29,506.02,495.77,506.93,496.69z"/>
		</g>
	</g>
</g>
<path class="st1" d="M278.81,301.04c2.62,1.2,5.43,1.78,8.23,2.33c1.53,0.3,3.07,0.68,4.66,0.62c3.93,0.56,7.87,0.49,11.81,0.12
	c-0.46,4.05-0.27,8.11-0.3,12.17c-3.74,0.22-7.48,0.27-11.23,0.07c-4.1-0.49-8.14-1.3-12.18-2.14c-0.2-0.09-0.4-0.19-0.62-0.25
	c-26.94-7.55-46.5-30.98-49.31-58.26c3.1,0.08,6.08,0.84,9.05,1.62c1.24,0.32,2.49,0.63,3.64,1.24c0.05,0.45,0.06,0.9,0.16,1.34
	c3.43,15.31,11.62,27.31,24.87,35.78C271.1,297.91,274.78,299.84,278.81,301.04z"/>
<path class="st2" d="M155.81,316.25c-10.39,0.79-20.47-0.57-30.23-4.28c-21.99-8.36-38.5-27.99-42.56-51.15
	c-3.93-22.4,1.83-42.19,17.17-58.98c10.56-11.55,23.77-18.69,39.26-20.9c24.06-3.43,44.54,3.93,61.14,21.72
	c8.72,9.35,14.02,20.5,16.46,33.02c0.4,2.04,0.72,4.11,0.84,6.2c0.03,0.51,0.05,1.02,0.24,1.49c-0.26,1.33,0.01,2.66,0.04,3.99
	c0.08,2.74-0.38,5.46-0.31,8.2c-0.1,0.56-0.21,1.11-0.28,1.67c-1.02,8.27-3.51,16.08-7.54,23.35
	c-9.42,17.03-23.52,28.24-42.28,33.54c-0.22-2.17-0.16-4.36-0.03-6.53c0.13-2.16,0.22-4.34,0.94-6.43c0.22-0.06,0.44-0.1,0.65-0.18
	c10.69-4.07,19.57-10.47,26.13-19.98c2.99-4.34,5.5-8.9,7.26-13.87c1-2.81,1.92-5.64,2.24-8.62c1.03-4.28,1.23-8.62,0.94-12.99
	c0.08-1.93-0.25-3.81-0.52-5.71c-1.47-10.12-5.32-19.3-11.93-27.04c-15.12-17.72-34.44-24.14-56.99-18.89
	c-27.47,6.4-45.55,32.46-42.16,61.21c1.38,11.69,6.03,22.03,13.97,30.75c9.97,10.94,22.39,17.02,37.15,18.33
	c3.56,0.32,7.1,0.18,10.64-0.11c-0.09,1.86-0.22,3.71-0.25,5.57C155.78,311.85,155.81,314.05,155.81,316.25z"/>
<path class="st3" d="M377.04,243.35c1.67-19.42,9.98-35.41,24.96-47.85c10.11-8.39,21.78-13.51,34.83-14.88
	c23.68-2.5,43.68,5.13,59.62,22.88c8.7,9.69,14.14,21.13,15.92,34c3.55,25.79-4.71,47.25-24.7,63.99
	c-8.46,7.08-18.31,11.49-29.12,13.65c-5.54,1.11-11.15,1.64-16.82,1.23c-0.79-0.06-1.58-0.03-2.37-0.05
	c-2.28-0.36-4.56-0.73-6.84-1.07c-1.72-0.26-3.36-0.97-5.12-1.01c-0.32-0.11-0.63-0.24-0.95-0.34
	c-20.73-6.29-35.5-19.33-44.22-39.15c-2.67-6.07-4.3-12.45-4.9-19.08c4.35,0.25,8.53,1.24,12.6,2.77c0.02,0.22,0.01,0.45,0.06,0.67
	c3.72,17.47,13.43,30.46,29.19,38.9c2.33,1.25,4.71,2.4,7.3,3.05c4.04,1.7,8.28,2.54,12.63,2.91c1.46,0.14,2.92,0.36,4.38,0.39
	c6.95,0.18,13.72-0.83,20.28-3.14c24.39-8.57,40.27-32.93,36.95-59.93c-1.55-12.59-6.68-23.54-15.69-32.44
	c-14.19-14.02-31.37-19.37-50.88-15.49c-20.38,4.06-34.21,16.4-41.8,35.71c-2.06,5.23-3.01,10.73-3.31,16.34
	C385.07,244.51,381.09,243.72,377.04,243.35z"/>
<path class="st1" d="M229.65,243.38c1.05-14.57,6.26-27.5,15.62-38.68c10.96-13.1,24.93-21.28,41.83-23.75
	c23.21-3.39,43.24,3.49,59.71,20.21c9.6,9.74,15.41,21.55,17.93,34.97c0.45,2.38,0.79,4.78,0.87,7.21c-0.03,0.17-0.08,0.33-0.08,0.5
	c-0.04,3.76,0.24,7.52-0.29,11.27c-0.03,0.2,0.11,0.42,0.18,0.64c-0.35,3.03-0.88,6.02-1.6,8.98c-5.8,23.82-24.77,43.18-48.4,49.39
	c-0.03-0.67-0.07-1.33-0.09-2c-0.12-3.68,0.13-7.33,0.76-10.96c0.75-0.01,1.42-0.35,2.09-0.63c10.25-4.17,18.79-10.49,25.07-19.74
	c3.15-4.64,5.76-9.52,7.52-14.85c0.81-2.45,1.61-4.91,1.83-7.51c0.1-0.26,0.26-0.51,0.29-0.78c0.52-4.04,1-8.09,0.67-12.17
	c-0.01-1.86-0.27-3.7-0.53-5.54c-1.49-10.29-5.47-19.57-12.18-27.45c-13.52-15.88-30.89-22.35-51.47-19.68
	c-13.09,1.7-24.16,7.74-33.11,17.48c-9.12,9.93-13.86,21.74-14.72,35.15C237.63,244.55,233.67,243.77,229.65,243.38z"/>
<path class="st4" d="M155.81,316.25c0-2.2-0.03-4.4,0.01-6.6c0.04-1.86,0.17-3.71,0.25-5.57c0.27-1.72,0.48-3.46,0.81-5.17
	c2.48-13.13,8.3-24.59,17.45-34.32c8.73-9.28,19.27-15.65,31.57-19.06c0.29,4.37,0.09,8.71-0.94,12.99
	c-0.38,0.12-0.76,0.21-1.13,0.35c-16.47,6.54-27.62,18.19-33.41,34.93c-0.82,2.38-1.6,4.8-1.74,7.36c-0.72,2.08-0.81,4.26-0.94,6.43
	c-0.13,2.17-0.19,4.35,0.03,6.53c-0.06,2.78,0.38,5.5,0.93,8.2c2.93,14.4,10.3,26.03,22.22,34.57c13.13,9.41,27.84,12.59,43.66,9.45
	c17.68-3.51,30.7-13.54,39.12-29.46c3.75-7.08,5.54-14.73,6.09-22.69c4.04,0.84,8.08,1.64,12.18,2.14
	c-0.62,6.66-1.91,13.16-4.36,19.4c-6.6,16.76-17.99,29.13-34.13,37.07c-7.88,3.88-16.24,6.03-25.03,6.55
	c-19.17,1.14-35.92-4.72-50.2-17.47c-10.76-9.6-17.63-21.57-20.89-35.62C156.6,322.97,156.26,319.6,155.81,316.25z"/>
<path class="st4" d="M229.65,243.38c4.02,0.39,7.98,1.16,11.91,2.06c1.34,0.43,2.7,0.81,4.02,1.28
	c18.77,6.66,32.39,18.98,40.69,37.11c2.93,6.4,4.69,13.15,5.42,20.15c-1.59,0.06-3.12-0.32-4.66-0.62c-2.8-0.55-5.61-1.12-8.23-2.33
	c-0.06-0.44-0.1-0.89-0.19-1.33c-2.94-13.44-9.8-24.44-20.68-32.88c-4.65-3.61-9.75-6.47-15.38-8.28c-1.14-0.61-2.4-0.92-3.64-1.24
	c-2.97-0.78-5.95-1.54-9.05-1.62c-3.99-0.65-8-0.47-12-0.12c-0.08-2.74,0.38-5.46,0.31-8.2c-0.04-1.33-0.31-2.66-0.04-3.99
	C221.97,243.01,225.81,243.09,229.65,243.38z"/>
<path class="st5" d="M365.42,255.76c-0.06-0.21-0.2-0.44-0.18-0.64c0.52-3.75,0.24-7.51,0.29-11.27c0-0.17,0.05-0.33,0.08-0.5
	c3.81-0.27,7.62-0.26,11.43-0.01c4.05,0.38,8.03,1.16,11.99,2.08c0.37,0.13,0.74,0.27,1.12,0.38c16.98,5.09,30.17,15.17,39.48,30.24
	c5.29,8.56,8.45,17.9,9.47,27.93c-4.35-0.37-8.59-1.21-12.63-2.91c-0.12-1.41-0.51-2.76-0.87-4.12
	c-3.51-12.99-10.72-23.44-21.62-31.31c-4.3-3.11-8.96-5.6-14.06-7.19c-4.07-1.53-8.25-2.52-12.6-2.77
	c-0.33-0.08-0.65-0.21-0.98-0.23c-3.27-0.24-6.53-0.22-9.8-0.02C366.14,255.45,365.76,255.52,365.42,255.76z"/>
<linearGradient id="SVGID_1_" gradientUnits="userSpaceOnUse" x1="265.7059" y1="370.3607" x2="267.1765" y2="235.0666">
	<stop  offset="0.0153" style="stop-color:#7AC8CB"/>
	<stop  offset="1" style="stop-color:#0072B7;stop-opacity:0"/>
</linearGradient>
<path class="st6" d="M278.81,301.04c2.62,1.2,5.43,1.78,8.23,2.33c1.53,0.3,3.07,0.68,4.66,0.62c3.93,0.56,7.87,0.49,11.81,0.12
	c-0.46,4.05-0.27,8.11-0.3,12.17c-3.74,0.22-7.48,0.27-11.23,0.07c-4.1-0.49-8.14-1.3-12.18-2.14c-0.2-0.09-0.4-0.19-0.62-0.25
	c-26.94-7.55-46.5-30.98-49.31-58.26c3.1,0.08,6.08,0.84,9.05,1.62c1.24,0.32,2.49,0.63,3.64,1.24c0.05,0.45,0.06,0.9,0.16,1.34
	c3.43,15.31,11.62,27.31,24.87,35.78C271.1,297.91,274.78,299.84,278.81,301.04z"/>
<linearGradient id="SVGID_2_" gradientUnits="userSpaceOnUse" x1="148.6809" y1="369.0887" x2="150.1515" y2="233.7946">
	<stop  offset="0.0153" style="stop-color:#7AC8CB"/>
	<stop  offset="1" style="stop-color:#0072B7;stop-opacity:0"/>
</linearGradient>
<path class="st7" d="M155.81,316.25c-10.39,0.79-20.47-0.57-30.23-4.28c-21.99-8.36-38.5-27.99-42.56-51.15
	c-3.93-22.4,1.83-42.19,17.17-58.98c10.56-11.55,23.77-18.69,39.26-20.9c24.06-3.43,44.54,3.93,61.14,21.72
	c8.72,9.35,14.02,20.5,16.46,33.02c0.4,2.04,0.72,4.11,0.84,6.2c0.03,0.51,0.05,1.02,0.24,1.49c-0.26,1.33,0.01,2.66,0.04,3.99
	c0.08,2.74-0.38,5.46-0.31,8.2c-0.1,0.56-0.21,1.11-0.28,1.67c-1.02,8.27-3.51,16.08-7.54,23.35
	c-9.42,17.03-23.52,28.24-42.28,33.54c-0.22-2.17-0.16-4.36-0.03-6.53c0.13-2.16,0.22-4.34,0.94-6.43c0.22-0.06,0.44-0.1,0.65-0.18
	c10.69-4.07,19.57-10.47,26.13-19.98c2.99-4.34,5.5-8.9,7.26-13.87c1-2.81,1.92-5.64,2.24-8.62c1.03-4.28,1.23-8.62,0.94-12.99
	c0.08-1.93-0.25-3.81-0.52-5.71c-1.47-10.12-5.32-19.3-11.93-27.04c-15.12-17.72-34.44-24.14-56.99-18.89
	c-27.47,6.4-45.55,32.46-42.16,61.21c1.38,11.69,6.03,22.03,13.97,30.75c9.97,10.94,22.39,17.02,37.15,18.33
	c3.56,0.32,7.1,0.18,10.64-0.11c-0.09,1.86-0.22,3.71-0.25,5.57C155.78,311.85,155.81,314.05,155.81,316.25z"/>
<linearGradient id="SVGID_3_" gradientUnits="userSpaceOnUse" x1="443.7317" y1="372.2958" x2="445.2023" y2="237.0017">
	<stop  offset="0.0153" style="stop-color:#7AC8CB"/>
	<stop  offset="1" style="stop-color:#0072B7;stop-opacity:0"/>
</linearGradient>
<path class="st8" d="M377.04,243.35c1.67-19.42,9.98-35.41,24.96-47.85c10.11-8.39,21.78-13.51,34.83-14.88
	c23.68-2.5,43.68,5.13,59.62,22.88c8.7,9.69,14.14,21.13,15.92,34c3.55,25.79-4.71,47.25-24.7,63.99
	c-8.46,7.08-18.31,11.49-29.12,13.65c-5.54,1.11-11.15,1.64-16.82,1.23c-0.79-0.06-1.58-0.03-2.37-0.05
	c-2.28-0.36-4.56-0.73-6.84-1.07c-1.72-0.26-3.36-0.97-5.12-1.01c-0.32-0.11-0.63-0.24-0.95-0.34
	c-20.73-6.29-35.5-19.33-44.22-39.15c-2.67-6.07-4.3-12.45-4.9-19.08c4.35,0.25,8.53,1.24,12.6,2.77c0.02,0.22,0.01,0.45,0.06,0.67
	c3.72,17.47,13.43,30.46,29.19,38.9c2.33,1.25,4.71,2.4,7.3,3.05c4.04,1.7,8.28,2.54,12.63,2.91c1.46,0.14,2.92,0.36,4.38,0.39
	c6.95,0.18,13.72-0.83,20.28-3.14c24.39-8.57,40.27-32.93,36.95-59.93c-1.55-12.59-6.68-23.54-15.69-32.44
	c-14.19-14.02-31.37-19.37-50.88-15.49c-20.38,4.06-34.21,16.4-41.8,35.71c-2.06,5.23-3.01,10.73-3.31,16.34
	C385.07,244.51,381.09,243.72,377.04,243.35z"/>
<linearGradient id="SVGID_4_" gradientUnits="userSpaceOnUse" x1="296.2615" y1="370.6929" x2="297.7321" y2="235.3987">
	<stop  offset="0.0153" style="stop-color:#7AC8CB"/>
	<stop  offset="1" style="stop-color:#0072B7;stop-opacity:0"/>
</linearGradient>
<path class="st9" d="M229.65,243.38c1.05-14.57,6.26-27.5,15.62-38.68c10.96-13.1,24.93-21.28,41.83-23.75
	c23.21-3.39,43.24,3.49,59.71,20.21c9.6,9.74,15.41,21.55,17.93,34.97c0.45,2.38,0.79,4.78,0.87,7.21c-0.03,0.17-0.08,0.33-0.08,0.5
	c-0.04,3.76,0.24,7.52-0.29,11.27c-0.03,0.2,0.11,0.42,0.18,0.64c-0.35,3.03-0.88,6.02-1.6,8.98c-5.8,23.82-24.77,43.18-48.4,49.39
	c-0.03-0.67-0.07-1.33-0.09-2c-0.12-3.68,0.13-7.33,0.76-10.96c0.75-0.01,1.42-0.35,2.09-0.63c10.25-4.17,18.79-10.49,25.07-19.74
	c3.15-4.64,5.76-9.52,7.52-14.85c0.81-2.45,1.61-4.91,1.83-7.51c0.1-0.26,0.26-0.51,0.29-0.78c0.52-4.04,1-8.09,0.67-12.17
	c-0.01-1.86-0.27-3.7-0.53-5.54c-1.49-10.29-5.47-19.57-12.18-27.45c-13.52-15.88-30.89-22.35-51.47-19.68
	c-13.09,1.7-24.16,7.74-33.11,17.48c-9.12,9.93-13.86,21.74-14.72,35.15C237.63,244.55,233.67,243.77,229.65,243.38z"/>
<linearGradient id="SVGID_5_" gradientUnits="userSpaceOnUse" x1="223.2802" y1="369.8996" x2="224.7508" y2="234.6055">
	<stop  offset="0.0153" style="stop-color:#7AC8CB"/>
	<stop  offset="1" style="stop-color:#0072B7;stop-opacity:0"/>
</linearGradient>
<path class="st10" d="M155.81,316.25c0-2.2-0.03-4.4,0.01-6.6c0.04-1.86,0.17-3.71,0.25-5.57c0.27-1.72,0.48-3.46,0.81-5.17
	c2.48-13.13,8.3-24.59,17.45-34.32c8.73-9.28,19.27-15.65,31.57-19.06c0.29,4.37,0.09,8.71-0.94,12.99
	c-0.38,0.12-0.76,0.21-1.13,0.35c-16.47,6.54-27.62,18.19-33.41,34.93c-0.82,2.38-1.6,4.8-1.74,7.36c-0.72,2.08-0.81,4.26-0.94,6.43
	c-0.13,2.17-0.19,4.35,0.03,6.53c-0.06,2.78,0.38,5.5,0.93,8.2c2.93,14.4,10.3,26.03,22.22,34.57c13.13,9.41,27.84,12.59,43.66,9.45
	c17.68-3.51,30.7-13.54,39.12-29.46c3.75-7.08,5.54-14.73,6.09-22.69c4.04,0.84,8.08,1.64,12.18,2.14
	c-0.62,6.66-1.91,13.16-4.36,19.4c-6.6,16.76-17.99,29.13-34.13,37.07c-7.88,3.88-16.24,6.03-25.03,6.55
	c-19.17,1.14-35.92-4.72-50.2-17.47c-10.76-9.6-17.63-21.57-20.89-35.62C156.6,322.97,156.26,319.6,155.81,316.25z"/>
<linearGradient id="SVGID_6_" gradientUnits="userSpaceOnUse" x1="253.7901" y1="370.2312" x2="255.2607" y2="234.9371">
	<stop  offset="0.0153" style="stop-color:#7AC8CB"/>
	<stop  offset="1" style="stop-color:#0072B7;stop-opacity:0"/>
</linearGradient>
<path class="st11" d="M229.65,243.38c4.02,0.39,7.98,1.16,11.91,2.06c1.34,0.43,2.7,0.81,4.02,1.28
	c18.77,6.66,32.39,18.98,40.69,37.11c2.93,6.4,4.69,13.15,5.42,20.15c-1.59,0.06-3.12-0.32-4.66-0.62c-2.8-0.55-5.61-1.12-8.23-2.33
	c-0.06-0.44-0.1-0.89-0.19-1.33c-2.94-13.44-9.8-24.44-20.68-32.88c-4.65-3.61-9.75-6.47-15.38-8.28c-1.14-0.61-2.4-0.92-3.64-1.24
	c-2.97-0.78-5.95-1.54-9.05-1.62c-3.99-0.65-8-0.47-12-0.12c-0.08-2.74,0.38-5.46,0.31-8.2c-0.04-1.33-0.31-2.66-0.04-3.99
	C221.97,243.01,225.81,243.09,229.65,243.38z"/>
<linearGradient id="SVGID_7_" gradientUnits="userSpaceOnUse" x1="401.166" y1="371.8331" x2="402.6367" y2="236.539">
	<stop  offset="0.0153" style="stop-color:#7AC8CB"/>
	<stop  offset="1" style="stop-color:#0072B7;stop-opacity:0"/>
</linearGradient>
<path class="st12" d="M365.42,255.76c-0.06-0.21-0.2-0.44-0.18-0.64c0.52-3.75,0.24-7.51,0.29-11.27c0-0.17,0.05-0.33,0.08-0.5
	c3.81-0.27,7.62-0.26,11.43-0.01c4.05,0.38,8.03,1.16,11.99,2.08c0.37,0.13,0.74,0.27,1.12,0.38c16.98,5.09,30.17,15.17,39.48,30.24
	c5.29,8.56,8.45,17.9,9.47,27.93c-4.35-0.37-8.59-1.21-12.63-2.91c-0.12-1.41-0.51-2.76-0.87-4.12
	c-3.51-12.99-10.72-23.44-21.62-31.31c-4.3-3.11-8.96-5.6-14.06-7.19c-4.07-1.53-8.25-2.52-12.6-2.77
	c-0.33-0.08-0.65-0.21-0.98-0.23c-3.27-0.24-6.53-0.22-9.8-0.02C366.14,255.45,365.76,255.52,365.42,255.76z"/>
<g id="XMLID_3243_">
	<g id="XMLID_3269_">
		<g id="XMLID_3272_">
			<polygon id="XMLID_3273_" class="st13" points="345.42,115.47 345.42,37.36 346.99,37.36 346.99,114.83 382.06,149.89 
				382.06,283.15 432.75,333.84 432.75,524.24 431.18,524.24 431.18,334.49 380.49,283.8 380.49,150.54 			"/>
		</g>
		<g id="XMLID_3270_">
			<path id="XMLID_3271_" class="st13" d="M429.02,524.08c0,1.63,1.32,2.95,2.94,2.95c1.63,0,2.95-1.32,2.95-2.95
				c0-1.62-1.32-2.94-2.95-2.94C430.34,521.15,429.02,522.46,429.02,524.08z"/>
		</g>
	</g>
	<g id="XMLID_3264_">
		<g id="XMLID_3267_">
			<polygon id="XMLID_3268_" class="st13" points="404.08,307.18 404.08,269.76 419.87,253.97 420.97,255.08 405.65,270.41 
				405.65,307.18 			"/>
		</g>
		<g id="XMLID_3265_">
			<path id="XMLID_3266_" class="st13" d="M422.4,256.71c1.15-1.15,1.15-3.02,0-4.16c-1.15-1.15-3.02-1.15-4.17,0
				c-1.15,1.15-1.15,3.02,0,4.16C419.38,257.86,421.25,257.86,422.4,256.71z"/>
		</g>
	</g>
	<g id="XMLID_3259_">
		<g id="XMLID_3262_">
			<polygon id="XMLID_3263_" class="st13" points="365.83,302.92 365.83,225.13 380.46,210.49 381.57,211.6 367.39,225.77 
				367.39,302.28 415.85,350.73 415.85,421.58 414.28,421.58 414.28,351.38 			"/>
		</g>
		<g id="XMLID_3260_">
			<path id="XMLID_3261_" class="st13" d="M412.12,421.43c0,1.62,1.32,2.94,2.94,2.94c1.63,0,2.95-1.32,2.95-2.94
				c0-1.63-1.32-2.94-2.95-2.94C413.44,418.49,412.12,419.81,412.12,421.43z"/>
		</g>
	</g>
	<g id="XMLID_3254_">
		<g id="XMLID_3257_">
			<polygon id="XMLID_3258_" class="st13" points="431.73,401.35 432.84,400.24 447.09,414.49 447.09,491.72 445.53,491.72 
				445.53,415.14 			"/>
		</g>
		<g id="XMLID_3255_">
			<path id="XMLID_3256_" class="st13" d="M443.36,491.57c0,1.63,1.32,2.94,2.94,2.94c1.63,0,2.95-1.32,2.95-2.94
				c0-1.63-1.32-2.94-2.95-2.94C444.68,488.62,443.36,489.94,443.36,491.57z"/>
		</g>
	</g>
	<g id="XMLID_3249_">
		<g id="XMLID_3252_">
			<polygon id="XMLID_3253_" class="st13" points="379.35,516.05 396.75,498.65 396.75,386.12 414.51,368.36 415.62,369.46 
				398.32,386.77 398.32,499.3 380.46,517.16 			"/>
		</g>
		<g id="XMLID_3250_">
			<path id="XMLID_3251_" class="st13" d="M377.93,514.42c-1.15,1.15-1.15,3.02,0,4.17c1.15,1.15,3.02,1.15,4.16,0
				c1.15-1.15,1.15-3.02,0-4.17C380.94,513.27,379.08,513.27,377.93,514.42z"/>
		</g>
	</g>
	<g id="XMLID_3244_">
		<g id="XMLID_3247_">
			<polygon id="XMLID_3248_" class="st13" points="428.28,302.94 435.32,295.9 435.32,234.38 436.89,234.38 436.89,296.55 
				429.39,304.05 			"/>
		</g>
		<g id="XMLID_3245_">
			<path id="XMLID_3246_" class="st13" d="M426.86,301.3c-1.15,1.15-1.15,3.02,0,4.17c1.15,1.15,3.01,1.15,4.16,0
				c1.15-1.16,1.15-3.02,0-4.17C429.87,300.16,428.01,300.16,426.86,301.3z"/>
		</g>
	</g>
</g>
<g id="XMLID_3212_" class="st14">
	<g id="XMLID_3238_">
		<g id="XMLID_3241_">
			<linearGradient id="XMLID_2_" gradientUnits="userSpaceOnUse" x1="388.6453" y1="93.8994" x2="389.8771" y2="460.99">
				<stop  offset="0" style="stop-color:#7C18FF"/>
				<stop  offset="0.3265" style="stop-color:#895AB2"/>
				<stop  offset="1" style="stop-color:#0072B7"/>
			</linearGradient>
			<polygon id="XMLID_3242_" class="st15" points="345.42,115.47 345.42,37.36 346.99,37.36 346.99,114.83 382.06,149.89 
				382.06,283.15 432.75,333.84 432.75,524.24 431.18,524.24 431.18,334.49 380.49,283.8 380.49,150.54 			"/>
		</g>
		<g id="XMLID_3239_">
			<linearGradient id="XMLID_3_" gradientUnits="userSpaceOnUse" x1="430.5198" y1="93.7589" x2="431.7517" y2="460.8495">
				<stop  offset="0" style="stop-color:#7C18FF"/>
				<stop  offset="0.3265" style="stop-color:#895AB2"/>
				<stop  offset="1" style="stop-color:#0072B7"/>
			</linearGradient>
			<path id="XMLID_3240_" class="st16" d="M429.02,524.08c0,1.63,1.32,2.95,2.94,2.95c1.63,0,2.95-1.32,2.95-2.95
				c0-1.62-1.32-2.94-2.95-2.94C430.34,521.15,429.02,522.46,429.02,524.08z"/>
		</g>
	</g>
	<g id="XMLID_3233_">
		<g id="XMLID_3236_">
			<linearGradient id="XMLID_4_" gradientUnits="userSpaceOnUse" x1="411.8996" y1="93.8214" x2="413.1314" y2="460.912">
				<stop  offset="0" style="stop-color:#7C18FF"/>
				<stop  offset="0.3265" style="stop-color:#895AB2"/>
				<stop  offset="1" style="stop-color:#0072B7"/>
			</linearGradient>
			<polygon id="XMLID_3237_" class="st17" points="404.08,307.18 404.08,269.76 419.87,253.97 420.97,255.08 405.65,270.41 
				405.65,307.18 			"/>
		</g>
		<g id="XMLID_3234_">
			<linearGradient id="XMLID_5_" gradientUnits="userSpaceOnUse" x1="419.7773" y1="93.7949" x2="421.0091" y2="460.8856">
				<stop  offset="0" style="stop-color:#7C18FF"/>
				<stop  offset="0.3265" style="stop-color:#895AB2"/>
				<stop  offset="1" style="stop-color:#0072B7"/>
			</linearGradient>
			<path id="XMLID_3235_" class="st18" d="M422.4,256.71c1.15-1.15,1.15-3.02,0-4.16c-1.15-1.15-3.02-1.15-4.17,0
				c-1.15,1.15-1.15,3.02,0,4.16C419.38,257.86,421.25,257.86,422.4,256.71z"/>
		</g>
	</g>
	<g id="XMLID_3228_">
		<g id="XMLID_3231_">
			<linearGradient id="XMLID_6_" gradientUnits="userSpaceOnUse" x1="390.0574" y1="93.8947" x2="391.2893" y2="460.9853">
				<stop  offset="0" style="stop-color:#7C18FF"/>
				<stop  offset="0.3265" style="stop-color:#895AB2"/>
				<stop  offset="1" style="stop-color:#0072B7"/>
			</linearGradient>
			<polygon id="XMLID_3232_" class="st19" points="365.83,302.92 365.83,225.13 380.46,210.49 381.57,211.6 367.39,225.77 
				367.39,302.28 415.85,350.73 415.85,421.58 414.28,421.58 414.28,351.38 			"/>
		</g>
		<g id="XMLID_3229_">
			<linearGradient id="XMLID_7_" gradientUnits="userSpaceOnUse" x1="413.967" y1="93.8144" x2="415.1988" y2="460.9051">
				<stop  offset="0" style="stop-color:#7C18FF"/>
				<stop  offset="0.3265" style="stop-color:#895AB2"/>
				<stop  offset="1" style="stop-color:#0072B7"/>
			</linearGradient>
			<path id="XMLID_3230_" class="st20" d="M412.12,421.43c0,1.62,1.32,2.94,2.94,2.94c1.63,0,2.95-1.32,2.95-2.94
				c0-1.63-1.32-2.94-2.95-2.94C413.44,418.49,412.12,419.81,412.12,421.43z"/>
		</g>
	</g>
	<g id="XMLID_3223_">
		<g id="XMLID_3226_">
			<linearGradient id="XMLID_8_" gradientUnits="userSpaceOnUse" x1="438.3544" y1="93.7326" x2="439.5863" y2="460.8232">
				<stop  offset="0" style="stop-color:#7C18FF"/>
				<stop  offset="0.3265" style="stop-color:#895AB2"/>
				<stop  offset="1" style="stop-color:#0072B7"/>
			</linearGradient>
			<polygon id="XMLID_3227_" class="st21" points="431.73,401.35 432.84,400.24 447.09,414.49 447.09,491.72 445.53,491.72 
				445.53,415.14 			"/>
		</g>
		<g id="XMLID_3224_">
			<linearGradient id="XMLID_9_" gradientUnits="userSpaceOnUse" x1="444.9737" y1="93.7104" x2="446.2056" y2="460.801">
				<stop  offset="0" style="stop-color:#7C18FF"/>
				<stop  offset="0.3265" style="stop-color:#895AB2"/>
				<stop  offset="1" style="stop-color:#0072B7"/>
			</linearGradient>
			<path id="XMLID_3225_" class="st22" d="M443.36,491.57c0,1.63,1.32,2.94,2.94,2.94c1.63,0,2.95-1.32,2.95-2.94
				c0-1.63-1.32-2.94-2.95-2.94C444.68,488.62,443.36,489.94,443.36,491.57z"/>
		</g>
	</g>
	<g id="XMLID_3218_">
		<g id="XMLID_3221_">
			<linearGradient id="XMLID_10_" gradientUnits="userSpaceOnUse" x1="396.3148" y1="93.8737" x2="397.5466" y2="460.9643">
				<stop  offset="0" style="stop-color:#7C18FF"/>
				<stop  offset="0.3265" style="stop-color:#895AB2"/>
				<stop  offset="1" style="stop-color:#0072B7"/>
			</linearGradient>
			<polygon id="XMLID_3222_" class="st23" points="379.35,516.05 396.75,498.65 396.75,386.12 414.51,368.36 415.62,369.46 
				398.32,386.77 398.32,499.3 380.46,517.16 			"/>
		</g>
		<g id="XMLID_3219_">
			<linearGradient id="XMLID_11_" gradientUnits="userSpaceOnUse" x1="378.5928" y1="93.9331" x2="379.8246" y2="461.0238">
				<stop  offset="0" style="stop-color:#7C18FF"/>
				<stop  offset="0.3265" style="stop-color:#895AB2"/>
				<stop  offset="1" style="stop-color:#0072B7"/>
			</linearGradient>
			<path id="XMLID_3220_" class="st24" d="M377.93,514.42c-1.15,1.15-1.15,3.02,0,4.17c1.15,1.15,3.02,1.15,4.16,0
				c1.15-1.15,1.15-3.02,0-4.17C380.94,513.27,379.08,513.27,377.93,514.42z"/>
		</g>
	</g>
	<g id="XMLID_3213_">
		<g id="XMLID_3216_">
			<linearGradient id="XMLID_12_" gradientUnits="userSpaceOnUse" x1="431.9998" y1="93.7539" x2="433.2317" y2="460.8445">
				<stop  offset="0" style="stop-color:#7C18FF"/>
				<stop  offset="0.3265" style="stop-color:#895AB2"/>
				<stop  offset="1" style="stop-color:#0072B7"/>
			</linearGradient>
			<polygon id="XMLID_3217_" class="st25" points="428.28,302.94 435.32,295.9 435.32,234.38 436.89,234.38 436.89,296.55 
				429.39,304.05 			"/>
		</g>
		<g id="XMLID_3214_">
			<linearGradient id="XMLID_13_" gradientUnits="userSpaceOnUse" x1="428.2388" y1="93.7665" x2="429.4706" y2="460.8572">
				<stop  offset="0" style="stop-color:#7C18FF"/>
				<stop  offset="0.3265" style="stop-color:#895AB2"/>
				<stop  offset="1" style="stop-color:#0072B7"/>
			</linearGradient>
			<path id="XMLID_3215_" class="st26" d="M426.86,301.3c-1.15,1.15-1.15,3.02,0,4.17c1.15,1.15,3.01,1.15,4.16,0
				c1.15-1.16,1.15-3.02,0-4.17C429.87,300.16,428.01,300.16,426.86,301.3z"/>
		</g>
	</g>
</g>
<g id="XMLID_3181_">
	<g id="XMLID_3207_">
		<g id="XMLID_3210_">
			<linearGradient id="XMLID_14_" gradientUnits="userSpaceOnUse" x1="391.6263" y1="439.0515" x2="387.9308" y2="127.394">
				<stop  offset="0" style="stop-color:#0072B7"/>
				<stop  offset="1" style="stop-color:#5931B7;stop-opacity:0.6"/>
			</linearGradient>
			<polygon id="XMLID_3211_" class="st27" points="345.42,115.47 345.42,37.36 346.99,37.36 346.99,114.83 382.06,149.89 
				382.06,283.15 432.75,333.84 432.75,524.24 431.18,524.24 431.18,334.49 380.49,283.8 380.49,150.54 			"/>
		</g>
		<g id="XMLID_3208_">
			<linearGradient id="XMLID_15_" gradientUnits="userSpaceOnUse" x1="430.9501" y1="438.5852" x2="427.2545" y2="126.9277">
				<stop  offset="0" style="stop-color:#0072B7"/>
				<stop  offset="1" style="stop-color:#5931B7;stop-opacity:0.6"/>
			</linearGradient>
			<path id="XMLID_3209_" class="st28" d="M429.02,524.08c0,1.63,1.32,2.95,2.94,2.95c1.63,0,2.95-1.32,2.95-2.95
				c0-1.62-1.32-2.94-2.95-2.94C430.34,521.15,429.02,522.46,429.02,524.08z"/>
		</g>
	</g>
	<g id="XMLID_3202_">
		<g id="XMLID_3205_">
			<linearGradient id="XMLID_16_" gradientUnits="userSpaceOnUse" x1="414.3975" y1="438.7815" x2="410.702" y2="127.124">
				<stop  offset="0" style="stop-color:#0072B7"/>
				<stop  offset="1" style="stop-color:#5931B7;stop-opacity:0.6"/>
			</linearGradient>
			<polygon id="XMLID_3206_" class="st29" points="404.08,307.18 404.08,269.76 419.87,253.97 420.97,255.08 405.65,270.41 
				405.65,307.18 			"/>
		</g>
		<g id="XMLID_3203_">
			<linearGradient id="XMLID_17_" gradientUnits="userSpaceOnUse" x1="422.4994" y1="438.6854" x2="418.8039" y2="127.0279">
				<stop  offset="0" style="stop-color:#0072B7"/>
				<stop  offset="1" style="stop-color:#5931B7;stop-opacity:0.6"/>
			</linearGradient>
			<path id="XMLID_3204_" class="st30" d="M422.4,256.71c1.15-1.15,1.15-3.02,0-4.16c-1.15-1.15-3.02-1.15-4.17,0
				c-1.15,1.15-1.15,3.02,0,4.16C419.38,257.86,421.25,257.86,422.4,256.71z"/>
		</g>
	</g>
	<g id="XMLID_3197_">
		<g id="XMLID_3200_">
			<linearGradient id="XMLID_18_" gradientUnits="userSpaceOnUse" x1="392.1697" y1="439.045" x2="388.4742" y2="127.3876">
				<stop  offset="0" style="stop-color:#0072B7"/>
				<stop  offset="1" style="stop-color:#5931B7;stop-opacity:0.6"/>
			</linearGradient>
			<polygon id="XMLID_3201_" class="st31" points="365.83,302.92 365.83,225.13 380.46,210.49 381.57,211.6 367.39,225.77 
				367.39,302.28 415.85,350.73 415.85,421.58 414.28,421.58 414.28,351.38 			"/>
		</g>
		<g id="XMLID_3198_">
			<linearGradient id="XMLID_19_" gradientUnits="userSpaceOnUse" x1="415.2719" y1="438.7711" x2="411.5764" y2="127.1136">
				<stop  offset="0" style="stop-color:#0072B7"/>
				<stop  offset="1" style="stop-color:#5931B7;stop-opacity:0.6"/>
			</linearGradient>
			<path id="XMLID_3199_" class="st32" d="M412.12,421.43c0,1.62,1.32,2.94,2.94,2.94c1.63,0,2.95-1.32,2.95-2.94
				c0-1.63-1.32-2.94-2.95-2.94C413.44,418.49,412.12,419.81,412.12,421.43z"/>
		</g>
	</g>
	<g id="XMLID_3192_">
		<g id="XMLID_3195_">
			<linearGradient id="XMLID_20_" gradientUnits="userSpaceOnUse" x1="439.7711" y1="438.4806" x2="436.0756" y2="126.8231">
				<stop  offset="0" style="stop-color:#0072B7"/>
				<stop  offset="1" style="stop-color:#5931B7;stop-opacity:0.6"/>
			</linearGradient>
			<polygon id="XMLID_3196_" class="st33" points="431.73,401.35 432.84,400.24 447.09,414.49 447.09,491.72 445.53,491.72 
				445.53,415.14 			"/>
		</g>
		<g id="XMLID_3193_">
			<linearGradient id="XMLID_21_" gradientUnits="userSpaceOnUse" x1="445.6785" y1="438.4106" x2="441.9829" y2="126.7531">
				<stop  offset="0" style="stop-color:#0072B7"/>
				<stop  offset="1" style="stop-color:#5931B7;stop-opacity:0.6"/>
			</linearGradient>
			<path id="XMLID_3194_" class="st34" d="M443.36,491.57c0,1.63,1.32,2.94,2.94,2.94c1.63,0,2.95-1.32,2.95-2.94
				c0-1.63-1.32-2.94-2.95-2.94C444.68,488.62,443.36,489.94,443.36,491.57z"/>
		</g>
	</g>
	<g id="XMLID_3187_">
		<g id="XMLID_3190_">
			<linearGradient id="XMLID_22_" gradientUnits="userSpaceOnUse" x1="397.4408" y1="438.9825" x2="393.7452" y2="127.3251">
				<stop  offset="0" style="stop-color:#0072B7"/>
				<stop  offset="1" style="stop-color:#5931B7;stop-opacity:0.6"/>
			</linearGradient>
			<polygon id="XMLID_3191_" class="st35" points="379.35,516.05 396.75,498.65 396.75,386.12 414.51,368.36 415.62,369.46 
				398.32,386.77 398.32,499.3 380.46,517.16 			"/>
		</g>
		<g id="XMLID_3188_">
			<linearGradient id="XMLID_23_" gradientUnits="userSpaceOnUse" x1="379.0941" y1="439.2001" x2="375.3986" y2="127.5426">
				<stop  offset="0" style="stop-color:#0072B7"/>
				<stop  offset="1" style="stop-color:#5931B7;stop-opacity:0.6"/>
			</linearGradient>
			<path id="XMLID_3189_" class="st36" d="M377.93,514.42c-1.15,1.15-1.15,3.02,0,4.17c1.15,1.15,3.02,1.15,4.16,0
				c1.15-1.15,1.15-3.02,0-4.17C380.94,513.27,379.08,513.27,377.93,514.42z"/>
		</g>
	</g>
	<g id="XMLID_3182_">
		<g id="XMLID_3185_">
			<linearGradient id="XMLID_24_" gradientUnits="userSpaceOnUse" x1="434.6012" y1="438.5419" x2="430.9056" y2="126.8844">
				<stop  offset="0" style="stop-color:#0072B7"/>
				<stop  offset="1" style="stop-color:#5931B7;stop-opacity:0.6"/>
			</linearGradient>
			<polygon id="XMLID_3186_" class="st37" points="428.28,302.94 435.32,295.9 435.32,234.38 436.89,234.38 436.89,296.55 
				429.39,304.05 			"/>
		</g>
		<g id="XMLID_3183_">
			<linearGradient id="XMLID_25_" gradientUnits="userSpaceOnUse" x1="430.5454" y1="438.59" x2="426.8499" y2="126.9325">
				<stop  offset="0" style="stop-color:#0072B7"/>
				<stop  offset="1" style="stop-color:#5931B7;stop-opacity:0.6"/>
			</linearGradient>
			<path id="XMLID_3184_" class="st38" d="M426.86,301.3c-1.15,1.15-1.15,3.02,0,4.17c1.15,1.15,3.01,1.15,4.16,0
				c1.15-1.16,1.15-3.02,0-4.17C429.87,300.16,428.01,300.16,426.86,301.3z"/>
		</g>
	</g>
</g>
<path class="st5" d="M316.1,301.16c-0.63,3.63-0.88,7.28-0.76,10.96c0.02,0.67,0.06,1.33,0.09,2c-0.14,2.16,0.24,4.27,0.59,6.38
	c2.18,13.18,8.21,24.31,18.3,33.03c13.73,11.86,29.76,16.25,47.55,12.87c18.71-3.55,32.14-14.34,40.42-31.45
	c3.16-6.51,4.69-13.49,5.11-20.71c1.76,0.04,3.4,0.75,5.12,1.01c2.28,0.34,4.56,0.71,6.84,1.07c-1.31,16.36-7.63,30.49-18.97,42.33
	c-8.49,8.86-18.7,14.98-30.52,18.32c-25.41,7.19-52.69-1.01-69.96-21.01c-8.02-9.29-13.23-19.96-15.57-32.01
	c-0.4-2.04-0.75-4.1-0.85-6.19c-0.02-0.51-0.04-1.02-0.28-1.49c0.03-4.06-0.16-8.12,0.3-12.17c0.33-2,0.56-4.02,0.99-6
	c4.65-21.49,16.82-37.29,36.19-47.58c4.09-2.18,8.44-3.72,12.88-5.03c0.32,4.09-0.15,8.13-0.67,12.17
	c-0.03,0.27-0.19,0.52-0.29,0.78c-15.57,5.69-26.58,16.19-33.13,31.4C317.91,293.48,316.94,297.3,316.1,301.16z"/>
<linearGradient id="SVGID_8_" gradientUnits="userSpaceOnUse" x1="370.6422" y1="371.5013" x2="372.1128" y2="236.2072">
	<stop  offset="0.0153" style="stop-color:#7AC8CB"/>
	<stop  offset="1" style="stop-color:#0072B7;stop-opacity:0"/>
</linearGradient>
<path class="st39" d="M316.1,301.16c-0.63,3.63-0.88,7.28-0.76,10.96c0.02,0.67,0.06,1.33,0.09,2c-0.14,2.16,0.24,4.27,0.59,6.38
	c2.18,13.18,8.21,24.31,18.3,33.03c13.73,11.86,29.76,16.25,47.55,12.87c18.71-3.55,32.14-14.34,40.42-31.45
	c3.16-6.51,4.69-13.49,5.11-20.71c1.76,0.04,3.4,0.75,5.12,1.01c2.28,0.34,4.56,0.71,6.84,1.07c-1.31,16.36-7.63,30.49-18.97,42.33
	c-8.49,8.86-18.7,14.98-30.52,18.32c-25.41,7.19-52.69-1.01-69.96-21.01c-8.02-9.29-13.23-19.96-15.57-32.01
	c-0.4-2.04-0.75-4.1-0.85-6.19c-0.02-0.51-0.04-1.02-0.28-1.49c0.03-4.06-0.16-8.12,0.3-12.17c0.33-2,0.56-4.02,0.99-6
	c4.65-21.49,16.82-37.29,36.19-47.58c4.09-2.18,8.44-3.72,12.88-5.03c0.32,4.09-0.15,8.13-0.67,12.17
	c-0.03,0.27-0.19,0.52-0.29,0.78c-15.57,5.69-26.58,16.19-33.13,31.4C317.91,293.48,316.94,297.3,316.1,301.16z"/>
</svg>
