<svg width="90" height="90" viewBox="0 0 90 90" fill="none" xmlns="http://www.w3.org/2000/svg">
<path d="M57.0293 17.6225V9.47314H57.2042V17.5512L58.1445 18.4915V21.395L61.2341 24.4846V39.4009L65.0373 43.2027L64.9142 43.3258L61.0592 39.4722V24.5573L57.971 21.4677V18.5628L57.0293 17.6225Z" fill="#4179BA"/>
<path d="M65.1955 43.0207C65.3242 43.1481 65.3242 43.3566 65.1955 43.4839C65.0667 43.6126 64.8596 43.6126 64.7323 43.4839C64.6036 43.3552 64.6036 43.1481 64.7323 43.0207C64.8596 42.892 65.0667 42.892 65.1955 43.0207Z" fill="#4179BA"/>
<path d="M57.4449 9.48856C57.4449 9.30806 57.298 9.16113 57.1175 9.16113C56.937 9.16113 56.79 9.30806 56.79 9.48856C56.79 9.67047 56.937 9.81739 57.1175 9.81739C57.298 9.81739 57.4449 9.67047 57.4449 9.48856Z" fill="#4179BA"/>
<path d="M53.2471 28.3927V19.692H53.422V28.3199L57.3288 32.2267V47.0702L62.9749 52.7177V73.9265H62.7999V52.7891L57.1539 47.143V32.2995L53.2471 28.3927Z" fill="#4179BA"/>
<path d="M62.5596 73.9097C62.5596 74.0916 62.7065 74.2385 62.887 74.2385C63.0689 74.2385 63.2158 74.0916 63.2158 73.9097C63.2158 73.7292 63.0689 73.5823 62.887 73.5823C62.7065 73.5823 62.5596 73.7292 62.5596 73.9097Z" fill="#4179BA"/>
<path d="M61.0527 29.0239L61.1759 28.9008L65.3905 33.114V40.4658L67.9288 43.0041V63.912H67.7553V43.0768L65.2156 40.5385V33.1867L61.0527 29.0239Z" fill="#4179BA"/>
<path d="M67.5137 63.8953C67.5137 64.0758 67.6606 64.2227 67.8411 64.2227C68.023 64.2227 68.1685 64.0758 68.1685 63.8953C68.1685 63.7134 68.0216 63.5679 67.8411 63.5679C67.6606 63.5679 67.5137 63.7148 67.5137 63.8953Z" fill="#4179BA"/>
<path d="M61.0938 33.4693L61.2183 33.3462L62.9744 35.1037V37.9162H62.7995V35.1751L61.0938 33.4693Z" fill="#4179BA"/>
<path d="M62.5586 37.9009C62.5586 38.0814 62.7055 38.2284 62.886 38.2284C63.0679 38.2284 63.2149 38.0814 63.2149 37.9009C63.2149 37.719 63.0679 37.5735 62.886 37.5735C62.7055 37.5735 62.5586 37.719 62.5586 37.9009Z" fill="#4179BA"/>
<path d="M59.7812 49.7472V45.5787L61.5401 43.8198L61.6633 43.9444L59.9562 45.6515V49.7472H59.7812Z" fill="#4179BA"/>
<path d="M61.8218 44.1262C61.9506 43.9989 61.9506 43.7904 61.8218 43.6631C61.6931 43.5343 61.486 43.5343 61.3573 43.6631C61.2286 43.7904 61.2286 43.9989 61.3573 44.1262C61.486 44.2536 61.6945 44.2536 61.8218 44.1262Z" fill="#4179BA"/>
<path d="M55.5205 49.2728V40.6071L57.1507 38.9769L57.2738 39.1001L55.694 40.6798V49.2014L61.0924 54.5984V62.4918H60.9175V54.6712L55.5205 49.2728Z" fill="#4179BA"/>
<path d="M60.6768 62.475C60.6768 62.6555 60.8237 62.8024 61.0042 62.8024C61.1861 62.8024 61.333 62.6555 61.333 62.475C61.333 62.2931 61.1861 62.1476 61.0042 62.1476C60.8237 62.1476 60.6768 62.2931 60.6768 62.475Z" fill="#4179BA"/>
<path d="M65.4619 59.0817V47.9225L67.7609 45.6249L67.8841 45.748L65.6368 47.9953V59.0817H65.4619Z" fill="#4179BA"/>
<path d="M65.2217 59.0664C65.2217 59.2469 65.3686 59.3938 65.5491 59.3938C65.731 59.3938 65.8765 59.2469 65.8765 59.0664C65.8765 58.8845 65.7296 58.7375 65.5491 58.7375C65.3686 58.7375 65.2217 58.8845 65.2217 59.0664Z" fill="#4179BA"/>
<path d="M62.8613 60.2374L62.9845 60.1129L64.5727 61.7011V70.3038H64.3978V61.7739L62.8613 60.2374Z" fill="#4179BA"/>
<path d="M64.1572 70.287C64.1572 70.4689 64.3042 70.6144 64.4847 70.6144C64.6652 70.6144 64.8121 70.4675 64.8121 70.287C64.8121 70.1051 64.6652 69.9596 64.4847 69.9596C64.3042 69.9596 64.1572 70.1065 64.1572 70.287Z" fill="#4179BA"/>
<path d="M57.0264 73.0142L58.9644 71.0762V58.5416L60.9429 56.563L61.0661 56.6861L59.1393 58.6129V71.149L57.1509 73.1388L57.0264 73.0142Z" fill="#4179BA"/>
<path d="M56.868 72.8323C56.7393 72.9611 56.7393 73.1682 56.868 73.2969C56.9968 73.4242 57.2039 73.4242 57.3312 73.2969C57.46 73.1682 57.46 72.9611 57.3312 72.8323C57.2039 72.705 56.9968 72.705 56.868 72.8323Z" fill="#4179BA"/>
<path d="M57.9697 14.0811V10.6375L59.772 8.83521L59.8965 8.95834L58.1446 10.7102V14.0097L64.8569 20.7207V25.6209L70.0762 30.8416V37.775H69.9027V30.9144L64.682 25.6937V20.7934L57.9697 14.0811Z" fill="#4179BA"/>
<path d="M70.3183 37.7581C70.3183 37.9386 70.1714 38.0869 69.9909 38.0869C69.809 38.0869 69.6621 37.9386 69.6621 37.7581C69.6621 37.5776 69.809 37.4307 69.9909 37.4307C70.1714 37.4307 70.3183 37.5776 70.3183 37.7581Z" fill="#4179BA"/>
<path d="M60.0548 9.14015C60.1836 9.01142 60.1836 8.80433 60.0548 8.67699C59.9275 8.54826 59.719 8.54826 59.5917 8.67699C59.4629 8.80433 59.4629 9.01282 59.5917 9.14015C59.719 9.26889 59.9261 9.26889 60.0548 9.14015Z" fill="#4179BA"/>
<path d="M59.7461 19.1603V15.8217H59.9196V19.0876L62.8679 22.0344V24.9911H62.693V22.1072L59.7461 19.1603Z" fill="#4179BA"/>
<path d="M62.4521 24.9743C62.4521 25.1548 62.5991 25.3018 62.7796 25.3018C62.9615 25.3018 63.107 25.1548 63.107 24.9743C63.107 24.7924 62.9601 24.6455 62.7796 24.6455C62.5991 24.6455 62.4521 24.7924 62.4521 24.9743Z" fill="#4179BA"/>
<path d="M66.7422 35.1751V27.7169H66.9171V35.1037L68.4619 36.6485V40.8925L69.1839 41.6131L69.0608 41.7376L68.287 40.9639V36.7199L66.7422 35.1751Z" fill="#4179BA"/>
<path d="M68.8777 41.8958C69.0051 42.0245 69.2135 42.0245 69.3423 41.8958C69.4696 41.767 69.4696 41.5599 69.3423 41.4326C69.2135 41.3039 69.0065 41.3039 68.8777 41.4326C68.7504 41.5599 68.7504 41.767 68.8777 41.8958Z" fill="#4179BA"/>
<path d="M62.9775 30.9129V28.4978L64.1319 27.3434L64.2564 27.4665L63.1524 28.5691V30.9129H62.9775Z" fill="#4179BA"/>
<path d="M64.4142 27.6483C64.543 27.521 64.543 27.3125 64.4142 27.1852C64.2855 27.0564 64.0784 27.0564 63.951 27.1852C63.8223 27.3125 63.8223 27.521 63.951 27.6483C64.0784 27.7771 64.2855 27.7771 64.4142 27.6483Z" fill="#4179BA"/>
<path d="M68.293 66.6672L69.5649 65.3953V51.6684L71.4637 49.7696V41.6384L68.3294 38.504L68.4525 38.3809L71.6386 41.5656V49.8423L69.7398 51.7411V65.4666L68.4161 66.7903L68.293 66.6672Z" fill="#4179BA"/>
<path d="M68.1337 66.4853C68.0049 66.6126 68.0049 66.8211 68.1337 66.9484C68.2624 67.0772 68.4695 67.0772 68.5982 66.9484C68.7269 66.8197 68.7269 66.6126 68.5982 66.4853C68.4695 66.3579 68.2624 66.3579 68.1337 66.4853Z" fill="#4179BA"/>
<path d="M62.4775 49.2756L63.2611 48.4906V41.6383H63.436V48.5633L62.6007 49.3987L62.4775 49.2756Z" fill="#4179BA"/>
<path d="M62.3182 49.0936C62.1895 49.2224 62.1895 49.4294 62.3182 49.5582C62.447 49.6869 62.6541 49.6869 62.7814 49.5582C62.9101 49.4294 62.9101 49.2224 62.7814 49.0936C62.6541 48.9649 62.447 48.9649 62.3182 49.0936Z" fill="#4179BA"/>
<path d="M69.6143 49.6281V45.629L71.4851 43.7582L71.6083 43.8813L69.7878 45.7004V49.6281H69.6143Z" fill="#4179BA"/>
<path d="M69.374 49.6128C69.374 49.7933 69.5209 49.9402 69.7015 49.9402C69.882 49.9402 70.0289 49.7933 70.0289 49.6128C70.0289 49.4309 69.882 49.2839 69.7015 49.2839C69.5195 49.2839 69.374 49.4309 69.374 49.6128Z" fill="#4179BA"/>
<path d="M64.2461 57.6418V52.638L65.4607 51.4235L65.5852 51.548L64.421 52.7108V57.6418H64.2461Z" fill="#4179BA"/>
<path d="M64.0059 57.625C64.0059 57.807 64.1528 57.9525 64.3333 57.9525C64.5152 57.9525 64.6621 57.8056 64.6621 57.625C64.6621 57.4431 64.5152 57.2976 64.3333 57.2976C64.1542 57.2976 64.0059 57.4445 64.0059 57.625Z" fill="#4179BA"/>
<path d="M69.6074 54.8853L69.7306 54.7607L72.7838 57.8154V70.6719L75.1276 73.0143L75.0044 73.1388L72.6103 70.7446V57.8881L69.6074 54.8853Z" fill="#4179BA"/>
<path d="M74.8221 73.297C74.9509 73.4257 75.158 73.4257 75.2853 73.297C75.414 73.1682 75.414 72.9611 75.2853 72.8324C75.1566 72.7037 74.9495 72.7037 74.8221 72.8324C74.6934 72.9611 74.6934 73.1682 74.8221 73.297Z" fill="#4179BA"/>
<path d="M52.2207 19.9537V9.02393H52.4404V19.8627L57.3476 24.77V43.4153L64.4406 50.5096V77.1518H64.2209V50.6006L57.128 43.5077V24.8609L52.2207 19.9537Z" fill="white"/>
<path d="M63.9189 77.1295C63.9189 77.3576 64.1036 77.5423 64.3303 77.5423C64.5584 77.5423 64.7431 77.3576 64.7431 77.1295C64.7431 76.9028 64.5584 76.7181 64.3303 76.7181C64.1036 76.7181 63.9189 76.9028 63.9189 77.1295Z" fill="white"/>
<path d="M60.4287 46.7793V41.5432L62.6382 39.3337L62.7935 39.4891L60.6484 41.6327V46.7793H60.4287Z" fill="white"/>
<path d="M62.9923 39.7171C63.1532 39.5561 63.1532 39.2945 62.9923 39.135C62.8313 38.9741 62.5697 38.9741 62.4088 39.135C62.2479 39.2959 62.2479 39.5575 62.4088 39.7171C62.5711 39.878 62.8313 39.878 62.9923 39.7171Z" fill="white"/>
<path d="M55.0762 46.1831V35.2982L57.1233 33.2496L57.2786 33.405L55.2945 35.3877V46.0936L62.0753 52.8731V62.787H61.8571V52.964L55.0762 46.1831Z" fill="white"/>
<path d="M61.5537 62.766C61.5537 62.9927 61.7384 63.1774 61.9651 63.1774C62.1932 63.1774 62.3779 62.9927 62.3779 62.766C62.3779 62.5379 62.1932 62.3546 61.9651 62.3546C61.7384 62.3546 61.5537 62.5393 61.5537 62.766Z" fill="white"/>
<path d="M64.2979 59.9562L64.4532 59.7994L66.4471 61.7948V72.6014H66.2288V61.8858L64.2979 59.9562Z" fill="white"/>
<path d="M65.9268 72.5803C65.9268 72.8084 66.1115 72.9917 66.3381 72.9917C66.5662 72.9917 66.7509 72.807 66.7509 72.5803C66.7509 72.3523 66.5662 72.169 66.3381 72.169C66.1101 72.1676 65.9268 72.3523 65.9268 72.5803Z" fill="white"/>
<path d="M56.9688 76.0059L59.4035 73.5712V57.8251L61.8886 55.3386L62.0439 55.4939L59.6232 57.9161V73.6621L57.1241 76.1612L56.9688 76.0059Z" fill="white"/>
<path d="M56.7701 75.7778C56.6092 75.9387 56.6092 76.2004 56.7701 76.3613C56.931 76.5222 57.1927 76.5222 57.3522 76.3613C57.5131 76.2004 57.5131 75.9387 57.3522 75.7778C57.1927 75.6169 56.931 75.6169 56.7701 75.7778Z" fill="white"/>
<path d="M63.8174 46.1858L64.8011 45.2008V36.5924H65.0208V45.2917L63.9713 46.3412L63.8174 46.1858Z" fill="white"/>
<path d="M63.6168 45.9564C63.4559 46.1174 63.4559 46.379 63.6168 46.54C63.7777 46.7009 64.038 46.7009 64.1989 46.54C64.3598 46.3776 64.3598 46.1174 64.1989 45.9564C64.0394 45.7969 63.7777 45.7969 63.6168 45.9564Z" fill="white"/>
<g opacity="0.56">
<g opacity="0.56">
<g opacity="0.56">
<path opacity="0.56" d="M52.2207 19.9537V9.02393H52.4404V19.8627L57.3476 24.77V43.4153L64.4406 50.5096V77.1518H64.2209V50.6006L57.128 43.5077V24.8609L52.2207 19.9537Z" fill="url(#paint0_linear)"/>
</g>
<g opacity="0.56">
<path opacity="0.56" d="M63.9189 77.1295C63.9189 77.3576 64.1036 77.5423 64.3303 77.5423C64.5584 77.5423 64.7431 77.3576 64.7431 77.1295C64.7431 76.9028 64.5584 76.7181 64.3303 76.7181C64.1036 76.7181 63.9189 76.9028 63.9189 77.1295Z" fill="url(#paint1_linear)"/>
</g>
</g>
<g opacity="0.56">
<g opacity="0.56">
<path opacity="0.56" d="M60.4287 46.7793V41.5432L62.6382 39.3337L62.7935 39.4891L60.6484 41.6327V46.7793H60.4287Z" fill="url(#paint2_linear)"/>
</g>
<g opacity="0.56">
<path opacity="0.56" d="M62.9923 39.7171C63.1532 39.5561 63.1532 39.2945 62.9923 39.135C62.8313 38.9741 62.5697 38.9741 62.4088 39.135C62.2479 39.2959 62.2479 39.5575 62.4088 39.7171C62.5711 39.878 62.8313 39.878 62.9923 39.7171Z" fill="url(#paint3_linear)"/>
</g>
</g>
<g opacity="0.56">
<g opacity="0.56">
<path opacity="0.56" d="M55.0762 46.1831V35.2982L57.1233 33.2496L57.2786 33.405L55.2945 35.3877V46.0936L62.0753 52.8731V62.787H61.8571V52.964L55.0762 46.1831Z" fill="url(#paint4_linear)"/>
</g>
<g opacity="0.56">
<path opacity="0.56" d="M61.5537 62.766C61.5537 62.9927 61.7384 63.1774 61.9651 63.1774C62.1932 63.1774 62.3779 62.9927 62.3779 62.766C62.3779 62.5379 62.1932 62.3546 61.9651 62.3546C61.7384 62.3546 61.5537 62.5393 61.5537 62.766Z" fill="url(#paint5_linear)"/>
</g>
</g>
<g opacity="0.56">
<g opacity="0.56">
<path opacity="0.56" d="M64.2979 59.9562L64.4532 59.7994L66.4471 61.7948V72.6014H66.2288V61.8858L64.2979 59.9562Z" fill="url(#paint6_linear)"/>
</g>
<g opacity="0.56">
<path opacity="0.56" d="M65.9268 72.5803C65.9268 72.8084 66.1115 72.9917 66.3381 72.9917C66.5662 72.9917 66.7509 72.807 66.7509 72.5803C66.7509 72.3523 66.5662 72.169 66.3381 72.169C66.1101 72.1676 65.9268 72.3523 65.9268 72.5803Z" fill="url(#paint7_linear)"/>
</g>
</g>
<g opacity="0.56">
<g opacity="0.56">
<path opacity="0.56" d="M56.9688 76.0059L59.4035 73.5712V57.8251L61.8886 55.3386L62.0439 55.4939L59.6232 57.9161V73.6621L57.1241 76.1612L56.9688 76.0059Z" fill="url(#paint8_linear)"/>
</g>
<g opacity="0.56">
<path opacity="0.56" d="M56.7701 75.7778C56.6092 75.9387 56.6092 76.2004 56.7701 76.3613C56.931 76.5222 57.1927 76.5222 57.3522 76.3613C57.5131 76.2004 57.5131 75.9387 57.3522 75.7778C57.1927 75.6169 56.931 75.6169 56.7701 75.7778Z" fill="url(#paint9_linear)"/>
</g>
</g>
<g opacity="0.56">
<g opacity="0.56">
<path opacity="0.56" d="M63.8174 46.1858L64.8011 45.2008V36.5924H65.0208V45.2917L63.9713 46.3412L63.8174 46.1858Z" fill="url(#paint10_linear)"/>
</g>
<g opacity="0.56">
<path opacity="0.56" d="M63.6168 45.9564C63.4559 46.1174 63.4559 46.379 63.6168 46.54C63.7777 46.7009 64.038 46.7009 64.1989 46.54C64.3598 46.3776 64.3598 46.1174 64.1989 45.9564C64.0394 45.7969 63.7777 45.7969 63.6168 45.9564Z" fill="url(#paint11_linear)"/>
</g>
</g>
</g>
<path d="M52.2207 19.9537V9.02393H52.4404V19.8627L57.3476 24.77V43.4153L64.4406 50.5096V77.1518H64.2209V50.6006L57.128 43.5077V24.8609L52.2207 19.9537Z" fill="url(#paint12_linear)"/>
<path d="M63.9189 77.1295C63.9189 77.3576 64.1036 77.5423 64.3303 77.5423C64.5584 77.5423 64.7431 77.3576 64.7431 77.1295C64.7431 76.9028 64.5584 76.7181 64.3303 76.7181C64.1036 76.7181 63.9189 76.9028 63.9189 77.1295Z" fill="url(#paint13_linear)"/>
<path d="M60.4287 46.7793V41.5432L62.6382 39.3337L62.7935 39.4891L60.6484 41.6327V46.7793H60.4287Z" fill="url(#paint14_linear)"/>
<path d="M62.9923 39.7171C63.1532 39.5561 63.1532 39.2945 62.9923 39.135C62.8313 38.9741 62.5697 38.9741 62.4088 39.135C62.2479 39.2959 62.2479 39.5575 62.4088 39.7171C62.5711 39.878 62.8313 39.878 62.9923 39.7171Z" fill="url(#paint15_linear)"/>
<path d="M55.0762 46.1831V35.2982L57.1233 33.2496L57.2786 33.405L55.2945 35.3877V46.0936L62.0753 52.8731V62.787H61.8571V52.964L55.0762 46.1831Z" fill="url(#paint16_linear)"/>
<path d="M61.5537 62.766C61.5537 62.9927 61.7384 63.1774 61.9651 63.1774C62.1932 63.1774 62.3779 62.9927 62.3779 62.766C62.3779 62.5379 62.1932 62.3546 61.9651 62.3546C61.7384 62.3546 61.5537 62.5393 61.5537 62.766Z" fill="url(#paint17_linear)"/>
<path d="M64.2979 59.9562L64.4532 59.7994L66.4471 61.7948V72.6014H66.2288V61.8858L64.2979 59.9562Z" fill="url(#paint18_linear)"/>
<path d="M65.9268 72.5803C65.9268 72.8084 66.1115 72.9917 66.3381 72.9917C66.5662 72.9917 66.7509 72.807 66.7509 72.5803C66.7509 72.3523 66.5662 72.169 66.3381 72.169C66.1101 72.1676 65.9268 72.3523 65.9268 72.5803Z" fill="url(#paint19_linear)"/>
<path d="M56.9688 76.0059L59.4035 73.5712V57.8251L61.8886 55.3386L62.0439 55.4939L59.6232 57.9161V73.6621L57.1241 76.1612L56.9688 76.0059Z" fill="url(#paint20_linear)"/>
<path d="M56.7701 75.7778C56.6092 75.9387 56.6092 76.2004 56.7701 76.3613C56.931 76.5222 57.1927 76.5222 57.3522 76.3613C57.5131 76.2004 57.5131 75.9387 57.3522 75.7778C57.1927 75.6169 56.931 75.6169 56.7701 75.7778Z" fill="url(#paint21_linear)"/>
<path d="M63.8174 46.1858L64.8011 45.2008V36.5924H65.0208V45.2917L63.9713 46.3412L63.8174 46.1858Z" fill="url(#paint22_linear)"/>
<path d="M63.6168 45.9564C63.4559 46.1174 63.4559 46.379 63.6168 46.54C63.7777 46.7009 64.038 46.7009 64.1989 46.54C64.3598 46.3776 64.3598 46.1174 64.1989 45.9564C64.0394 45.7969 63.7777 45.7969 63.6168 45.9564Z" fill="url(#paint23_linear)"/>
<path d="M66.2948 25.394H58.6519C58.4421 25.394 58.2713 25.5648 58.2713 25.7746V30.202C58.2713 30.4118 58.1006 30.5826 57.8907 30.5826H53.0534C52.8436 30.5826 52.6728 30.4118 52.6728 30.202V25.7746C52.6728 25.5648 52.5021 25.394 52.2922 25.394H39.3349C39.1251 25.394 38.9543 25.5648 38.9543 25.7746V30.202C38.9543 30.4118 38.7836 30.5826 38.5737 30.5826H33.7364C33.5266 30.5826 33.3558 30.4118 33.3558 30.202V25.7746C33.3558 25.5648 33.1851 25.394 32.9752 25.394H25.3268C24.206 25.394 23.2979 26.3022 23.2979 27.423V54.499C23.2979 55.6198 24.206 56.5279 25.3268 56.5279H66.2934C67.4142 56.5279 68.3223 55.6198 68.3223 54.499V27.423C68.3223 26.3022 67.4142 25.394 66.2948 25.394Z" fill="#04045A"/>
<path d="M37.5436 29.7836H34.7591C34.4233 29.7836 34.1504 29.5107 34.1504 29.1749V21.4523C34.1504 21.1165 34.4233 20.8436 34.7591 20.8436H37.5436C37.8795 20.8436 38.1523 21.1165 38.1523 21.4523V29.1749C38.1523 29.5121 37.8809 29.7836 37.5436 29.7836Z" fill="url(#paint24_linear)"/>
<path d="M56.9935 29.7837H53.9473C53.6828 29.7837 53.4688 29.5696 53.4688 29.3051V21.3208C53.4688 21.0564 53.6828 20.8423 53.9473 20.8423H56.9935C57.258 20.8423 57.4721 21.0564 57.4721 21.3208V29.3051C57.4721 29.5696 57.258 29.7837 56.9935 29.7837Z" fill="url(#paint25_linear)"/>
<path d="M66.2948 25.394H58.6519C58.4421 25.394 58.2713 25.5648 58.2713 25.7746V30.202C58.2713 30.4118 58.1006 30.5826 57.8907 30.5826H53.0534C52.8436 30.5826 52.6728 30.4118 52.6728 30.202V25.7746C52.6728 25.5648 52.5021 25.394 52.2922 25.394H39.3349C39.1251 25.394 38.9543 25.5648 38.9543 25.7746V30.202C38.9543 30.4118 38.7836 30.5826 38.5737 30.5826H33.7364C33.5266 30.5826 33.3558 30.4118 33.3558 30.202V25.7746C33.3558 25.5648 33.1851 25.394 32.9752 25.394H25.3268C24.206 25.394 23.2979 26.3022 23.2979 27.423V54.499C23.2979 55.6198 24.206 56.5279 25.3268 56.5279H66.2934C67.4142 56.5279 68.3223 55.6198 68.3223 54.499V27.423C68.3223 26.3022 67.4142 25.394 66.2948 25.394ZM34.4319 53.304C34.4319 53.6678 34.1366 53.9631 33.7728 53.9631H27.5964C27.2326 53.9631 26.9374 53.6678 26.9374 53.304V49.1272C26.9374 48.7633 27.2326 48.4681 27.5964 48.4681H33.7728C34.1366 48.4681 34.4319 48.7633 34.4319 49.1272V53.304ZM34.4319 45.3085C34.4319 45.6723 34.1366 45.9676 33.7728 45.9676H27.5964C27.2326 45.9676 26.9374 45.6723 26.9374 45.3085V41.1317C26.9374 40.7679 27.2326 40.4726 27.5964 40.4726H33.7728C34.1366 40.4726 34.4319 40.7679 34.4319 41.1317V45.3085ZM34.4319 37.9022C34.4319 38.266 34.1366 38.5612 33.7728 38.5612H27.5964C27.2326 38.5612 26.9374 38.266 26.9374 37.9022V33.7253C26.9374 33.3615 27.2326 33.0663 27.5964 33.0663H33.7728C34.1366 33.0663 34.4319 33.3615 34.4319 33.7253V37.9022ZM36.4314 45.3085V41.1317C36.4314 40.7679 36.7267 40.4726 37.0905 40.4726H43.2669C43.6307 40.4726 43.926 40.7679 43.926 41.1317V45.3085C43.926 45.6723 43.6307 45.9676 43.2669 45.9676H37.0905C36.7267 45.9676 36.4314 45.6723 36.4314 45.3085ZM44.4269 53.304C44.4269 53.6678 44.1317 53.9631 43.7679 53.9631H37.5914C37.2276 53.9631 36.9324 53.6678 36.9324 53.304V49.1272C36.9324 48.7633 37.2276 48.4681 37.5914 48.4681H43.7679C44.1317 48.4681 44.4269 48.7633 44.4269 49.1272V53.304ZM53.4215 53.304C53.4215 53.6678 53.1262 53.9631 52.7624 53.9631H46.586C46.2222 53.9631 45.9269 53.6678 45.9269 53.304V49.1272C45.9269 48.7633 46.2222 48.4681 46.586 48.4681H52.7624C53.1262 48.4681 53.4215 48.7633 53.4215 49.1272V53.304ZM53.4215 45.3085C53.4215 45.6723 53.1262 45.9676 52.7624 45.9676H46.586C46.2222 45.9676 45.9269 45.6723 45.9269 45.3085V41.1317C45.9269 40.7679 46.2222 40.4726 46.586 40.4726H52.7624C53.1262 40.4726 53.4215 40.7679 53.4215 41.1317V45.3085ZM53.4215 37.9022C53.4215 38.266 53.1262 38.5612 52.7624 38.5612H46.586C46.2222 38.5612 45.9269 38.266 45.9269 37.9022V33.7253C45.9269 33.3615 46.2222 33.0663 46.586 33.0663H52.7624C53.1262 33.0663 53.4215 33.3615 53.4215 33.7253V37.9022ZM62.9155 45.3085C62.9155 45.6723 62.6203 45.9676 62.2565 45.9676H56.0801C55.7163 45.9676 55.421 45.6723 55.421 45.3085V41.1317C55.421 40.7679 55.7163 40.4726 56.0801 40.4726H62.2565C62.6203 40.4726 62.9155 40.7679 62.9155 41.1317V45.3085ZM62.9155 37.9022C62.9155 38.266 62.6203 38.5612 62.2565 38.5612H56.0801C55.7163 38.5612 55.421 38.266 55.421 37.9022V33.7253C55.421 33.3615 55.7163 33.0663 56.0801 33.0663H62.2565C62.6203 33.0663 62.9155 33.3615 62.9155 33.7253V37.9022Z" fill="url(#paint26_linear)"/>
<path d="M23.8733 79.7532H22.6601C21.5085 79.7532 20.5752 78.8198 20.5752 77.6682V47.4159C20.5752 46.2642 21.5085 45.3309 22.6601 45.3309H23.8733C25.0249 45.3309 25.9582 46.2642 25.9582 47.4159V77.6668C25.9582 78.8198 25.0249 79.7532 23.8733 79.7532Z" fill="#107DBA"/>
<path d="M6.05469 63.1479V61.9348C6.05469 60.7832 6.988 59.8499 8.13961 59.8499H38.3905C39.5421 59.8499 40.4755 60.7832 40.4755 61.9348V63.1479C40.4755 64.2996 39.5421 65.2329 38.3905 65.2329H8.14101C6.9894 65.2329 6.05469 64.2996 6.05469 63.1479Z" fill="#107DBA"/>
<defs>
<linearGradient id="paint0_linear" x1="58.2693" y1="16.9352" x2="58.4417" y2="68.3013" gradientUnits="userSpaceOnUse">
<stop stop-color="#7C18FF"/>
<stop offset="0.3265" stop-color="#895AB2"/>
<stop offset="1" stop-color="#0072B7"/>
</linearGradient>
<linearGradient id="paint1_linear" x1="64.129" y1="16.9167" x2="64.3014" y2="68.2818" gradientUnits="userSpaceOnUse">
<stop stop-color="#7C18FF"/>
<stop offset="0.3265" stop-color="#895AB2"/>
<stop offset="1" stop-color="#0072B7"/>
</linearGradient>
<linearGradient id="paint2_linear" x1="61.5231" y1="16.9244" x2="61.6955" y2="68.2904" gradientUnits="userSpaceOnUse">
<stop stop-color="#7C18FF"/>
<stop offset="0.3265" stop-color="#895AB2"/>
<stop offset="1" stop-color="#0072B7"/>
</linearGradient>
<linearGradient id="paint3_linear" x1="62.6255" y1="16.9208" x2="62.7978" y2="68.2865" gradientUnits="userSpaceOnUse">
<stop stop-color="#7C18FF"/>
<stop offset="0.3265" stop-color="#895AB2"/>
<stop offset="1" stop-color="#0072B7"/>
</linearGradient>
<linearGradient id="paint4_linear" x1="58.4665" y1="16.9345" x2="58.6389" y2="68.3007" gradientUnits="userSpaceOnUse">
<stop stop-color="#7C18FF"/>
<stop offset="0.3265" stop-color="#895AB2"/>
<stop offset="1" stop-color="#0072B7"/>
</linearGradient>
<linearGradient id="paint5_linear" x1="61.8124" y1="16.9234" x2="61.9847" y2="68.2895" gradientUnits="userSpaceOnUse">
<stop stop-color="#7C18FF"/>
<stop offset="0.3265" stop-color="#895AB2"/>
<stop offset="1" stop-color="#0072B7"/>
</linearGradient>
<linearGradient id="paint6_linear" x1="65.225" y1="16.9118" x2="65.3974" y2="68.2779" gradientUnits="userSpaceOnUse">
<stop stop-color="#7C18FF"/>
<stop offset="0.3265" stop-color="#895AB2"/>
<stop offset="1" stop-color="#0072B7"/>
</linearGradient>
<linearGradient id="paint7_linear" x1="66.1514" y1="16.909" x2="66.3237" y2="68.2748" gradientUnits="userSpaceOnUse">
<stop stop-color="#7C18FF"/>
<stop offset="0.3265" stop-color="#895AB2"/>
<stop offset="1" stop-color="#0072B7"/>
</linearGradient>
<linearGradient id="paint8_linear" x1="59.3428" y1="16.9317" x2="59.5152" y2="68.2977" gradientUnits="userSpaceOnUse">
<stop stop-color="#7C18FF"/>
<stop offset="0.3265" stop-color="#895AB2"/>
<stop offset="1" stop-color="#0072B7"/>
</linearGradient>
<linearGradient id="paint9_linear" x1="56.8631" y1="16.9382" x2="57.0354" y2="68.3058" gradientUnits="userSpaceOnUse">
<stop stop-color="#7C18FF"/>
<stop offset="0.3265" stop-color="#895AB2"/>
<stop offset="1" stop-color="#0072B7"/>
</linearGradient>
<linearGradient id="paint10_linear" x1="64.3367" y1="16.9148" x2="64.5091" y2="68.2809" gradientUnits="userSpaceOnUse">
<stop stop-color="#7C18FF"/>
<stop offset="0.3265" stop-color="#895AB2"/>
<stop offset="1" stop-color="#0072B7"/>
</linearGradient>
<linearGradient id="paint11_linear" x1="63.8099" y1="16.9155" x2="63.9823" y2="68.2836" gradientUnits="userSpaceOnUse">
<stop stop-color="#7C18FF"/>
<stop offset="0.3265" stop-color="#895AB2"/>
<stop offset="1" stop-color="#0072B7"/>
</linearGradient>
<linearGradient id="paint12_linear" x1="58.6865" y1="65.2314" x2="58.1693" y2="21.622" gradientUnits="userSpaceOnUse">
<stop stop-color="#0072B7"/>
<stop offset="1" stop-color="#5931B7" stop-opacity="0.6"/>
</linearGradient>
<linearGradient id="paint13_linear" x1="64.1892" y1="65.1665" x2="63.6721" y2="21.5578" gradientUnits="userSpaceOnUse">
<stop stop-color="#0072B7"/>
<stop offset="1" stop-color="#5931B7" stop-opacity="0.6"/>
</linearGradient>
<linearGradient id="paint14_linear" x1="61.8726" y1="65.1938" x2="61.3555" y2="21.5843" gradientUnits="userSpaceOnUse">
<stop stop-color="#0072B7"/>
<stop offset="1" stop-color="#5931B7" stop-opacity="0.6"/>
</linearGradient>
<linearGradient id="paint15_linear" x1="63.0064" y1="65.1801" x2="62.4893" y2="21.5709" gradientUnits="userSpaceOnUse">
<stop stop-color="#0072B7"/>
<stop offset="1" stop-color="#5931B7" stop-opacity="0.6"/>
</linearGradient>
<linearGradient id="paint16_linear" x1="58.762" y1="65.2306" x2="58.2449" y2="21.6211" gradientUnits="userSpaceOnUse">
<stop stop-color="#0072B7"/>
<stop offset="1" stop-color="#5931B7" stop-opacity="0.6"/>
</linearGradient>
<linearGradient id="paint17_linear" x1="61.995" y1="65.1923" x2="61.4779" y2="21.5829" gradientUnits="userSpaceOnUse">
<stop stop-color="#0072B7"/>
<stop offset="1" stop-color="#5931B7" stop-opacity="0.6"/>
</linearGradient>
<linearGradient id="paint18_linear" x1="65.4232" y1="65.1516" x2="64.9061" y2="21.5421" gradientUnits="userSpaceOnUse">
<stop stop-color="#0072B7"/>
<stop offset="1" stop-color="#5931B7" stop-opacity="0.6"/>
</linearGradient>
<linearGradient id="paint19_linear" x1="66.25" y1="65.1417" x2="65.7329" y2="21.5325" gradientUnits="userSpaceOnUse">
<stop stop-color="#0072B7"/>
<stop offset="1" stop-color="#5931B7" stop-opacity="0.6"/>
</linearGradient>
<linearGradient id="paint20_linear" x1="59.5004" y1="65.2219" x2="58.9833" y2="21.6125" gradientUnits="userSpaceOnUse">
<stop stop-color="#0072B7"/>
<stop offset="1" stop-color="#5931B7" stop-opacity="0.6"/>
</linearGradient>
<linearGradient id="paint21_linear" x1="56.9332" y1="65.252" x2="56.4161" y2="21.6412" gradientUnits="userSpaceOnUse">
<stop stop-color="#0072B7"/>
<stop offset="1" stop-color="#5931B7" stop-opacity="0.6"/>
</linearGradient>
<linearGradient id="paint22_linear" x1="64.7007" y1="65.1601" x2="64.1836" y2="21.5506" gradientUnits="userSpaceOnUse">
<stop stop-color="#0072B7"/>
<stop offset="1" stop-color="#5931B7" stop-opacity="0.6"/>
</linearGradient>
<linearGradient id="paint23_linear" x1="64.1327" y1="65.1677" x2="63.6156" y2="21.5565" gradientUnits="userSpaceOnUse">
<stop stop-color="#0072B7"/>
<stop offset="1" stop-color="#5931B7" stop-opacity="0.6"/>
</linearGradient>
<linearGradient id="paint24_linear" x1="36.0035" y1="56.1171" x2="36.1664" y2="22.142" gradientUnits="userSpaceOnUse">
<stop offset="0.0153" stop-color="#7AC8CB"/>
<stop offset="1" stop-color="#0072B7"/>
</linearGradient>
<linearGradient id="paint25_linear" x1="55.3217" y1="56.214" x2="55.4847" y2="22.2342" gradientUnits="userSpaceOnUse">
<stop offset="0.0153" stop-color="#7AC8CB"/>
<stop offset="1" stop-color="#0072B7"/>
</linearGradient>
<linearGradient id="paint26_linear" x1="45.7378" y1="56.182" x2="45.9008" y2="22.1888" gradientUnits="userSpaceOnUse">
<stop offset="0.0153" stop-color="#7AC8CB"/>
<stop offset="1" stop-color="#0072B7"/>
</linearGradient>
</defs>
</svg>
