<svg width="90" height="90" viewBox="0 0 90 90" fill="none" xmlns="http://www.w3.org/2000/svg">
<g clip-path="url(#clip0)">
<path d="M64.9199 36.2901L65.0399 36.1801L66.6899 37.8201V40.4501H66.5199V37.8901L64.9199 36.2901Z" fill="#4179BA"/>
<path d="M61.1299 21.4601V13.8301H61.2799V21.4001L62.1699 22.2701V25.0001L65.0599 27.8901V41.8901L68.6199 45.4601L68.4999 45.5701L64.8999 41.9601V28.0001L61.9999 25.0601V22.3401L61.1299 21.4601Z" fill="#4179BA"/>
<path d="M64.8799 32.14L64.9999 32L68.9999 36V42.88L71.3799 45.26V64.79H71.2099V45.29L68.7899 42.9V36L64.8799 32.14Z" fill="#4179BA"/>
<path d="M56.6201 23.64V13.41H56.8301V23.56L61.4301 28.16V45.6L68.0701 52.24V77.18H67.8601V52.33L61.2201 45.69V28.23L56.6201 23.64Z" fill="white"/>
<g opacity="0.56">
<g opacity="0.56">
<g opacity="0.56">
<path opacity="0.56" d="M56.6201 23.64V13.41H56.8301V23.56L61.4301 28.16V45.6L68.0701 52.24V77.18H67.8601V52.33L61.2201 45.69V28.23L56.6201 23.64Z" fill="url(#paint0_linear)"/>
</g>
<g opacity="0.56">
<path opacity="0.56" d="M67.57 77.1701C67.57 77.2452 67.5922 77.3187 67.634 77.3812C67.6758 77.4437 67.7351 77.4924 67.8045 77.5211C67.874 77.5499 67.9504 77.5574 68.0241 77.5428C68.0978 77.5281 68.1655 77.4919 68.2187 77.4388C68.2718 77.3856 68.308 77.3179 68.3227 77.2442C68.3373 77.1705 68.3298 77.0941 68.301 77.0246C68.2723 76.9552 68.2236 76.8959 68.1611 76.8541C68.0986 76.8123 68.0251 76.7901 67.95 76.7901C67.8997 76.7887 67.8497 76.7976 67.8029 76.8162C67.7562 76.8348 67.7138 76.8627 67.6782 76.8983C67.6426 76.9339 67.6147 76.9763 67.5961 77.023C67.5775 77.0697 67.5686 77.1198 67.57 77.1701V77.1701Z" fill="url(#paint1_linear)"/>
</g>
</g>
<g opacity="0.56">
<g opacity="0.56">
<path opacity="0.56" d="M64.3101 48.76V43.85L66.3801 41.78L66.5201 41.92L64.5201 43.92V48.74L64.3101 48.76Z" fill="url(#paint2_linear)"/>
</g>
<g opacity="0.56">
<path opacity="0.56" d="M66.6998 42.14C66.764 42.0654 66.7976 41.9693 66.794 41.871C66.7903 41.7727 66.7496 41.6794 66.68 41.6098C66.6104 41.5403 66.5171 41.4996 66.4188 41.4959C66.3205 41.4922 66.2244 41.5258 66.1498 41.59C66.0817 41.6654 66.0439 41.7634 66.0439 41.865C66.0439 41.9666 66.0817 42.0646 66.1498 42.14C66.2229 42.2127 66.3218 42.2534 66.4248 42.2534C66.5279 42.2534 66.6268 42.2127 66.6998 42.14V42.14Z" fill="url(#paint3_linear)"/>
</g>
</g>
<g opacity="0.56">
<g opacity="0.56">
<path opacity="0.56" d="M59.29 48.2001V38.0001L61.22 36.0901L61.36 36.2401L59.5 38.0801V48.0801L65.85 54.4401V63.7201H65.64V54.5501L59.29 48.2001Z" fill="url(#paint4_linear)"/>
</g>
<g opacity="0.56">
<path opacity="0.56" d="M65.3599 63.7201C65.3599 63.7952 65.3821 63.8687 65.4239 63.9312C65.4657 63.9937 65.525 64.0424 65.5944 64.0712C65.6639 64.0999 65.7403 64.1074 65.814 64.0928C65.8877 64.0781 65.9554 64.0419 66.0086 63.9888C66.0617 63.9356 66.0979 63.8679 66.1126 63.7942C66.1272 63.7205 66.1197 63.6441 66.0909 63.5747C66.0622 63.5052 66.0135 63.4459 65.951 63.4041C65.8885 63.3624 65.815 63.3401 65.7399 63.3401C65.6391 63.3401 65.5424 63.3801 65.4712 63.4514C65.3999 63.5226 65.3599 63.6193 65.3599 63.7201Z" fill="url(#paint5_linear)"/>
</g>
</g>
<g opacity="0.56">
<g opacity="0.56">
<path opacity="0.56" d="M67.9199 61.0801L68.0699 60.9401L69.9399 62.8101V72.9301H69.7299V62.9301L67.9199 61.0801Z" fill="url(#paint6_linear)"/>
</g>
<g opacity="0.56">
<path opacity="0.56" d="M69.84 73.28C69.9151 73.28 69.9886 73.2577 70.0511 73.216C70.1136 73.1742 70.1623 73.1149 70.191 73.0454C70.2198 72.976 70.2273 72.8996 70.2127 72.8259C70.198 72.7522 70.1618 72.6845 70.1087 72.6313C70.0555 72.5782 69.9878 72.542 69.9141 72.5273C69.8404 72.5127 69.764 72.5202 69.6945 72.5489C69.6251 72.5777 69.5658 72.6264 69.524 72.6889C69.4822 72.7514 69.46 72.8249 69.46 72.9C69.46 73.0008 69.5 73.0975 69.5713 73.1687C69.6425 73.24 69.7392 73.28 69.84 73.28V73.28Z" fill="url(#paint7_linear)"/>
</g>
</g>
<g opacity="0.56">
<g opacity="0.56">
<path opacity="0.56" d="M61.0698 76.11L63.3498 73.83V59.09L65.6698 56.76L65.8098 56.91L63.5498 59.17V73.92L61.2198 76.25L61.0698 76.11Z" fill="url(#paint8_linear)"/>
</g>
<g opacity="0.56">
<path opacity="0.56" d="M60.8801 75.9C60.8074 75.9731 60.7666 76.0719 60.7666 76.175C60.7666 76.278 60.8074 76.3769 60.8801 76.45C60.9554 76.5181 61.0534 76.5559 61.1551 76.5559C61.2567 76.5559 61.3547 76.5181 61.4301 76.45C61.5027 76.3769 61.5435 76.278 61.5435 76.175C61.5435 76.0719 61.5027 75.9731 61.4301 75.9C61.3946 75.8628 61.3519 75.8331 61.3046 75.8129C61.2574 75.7927 61.2065 75.7822 61.1551 75.7822C61.1036 75.7822 61.0528 75.7927 61.0055 75.8129C60.9582 75.8331 60.9155 75.8628 60.8801 75.9V75.9Z" fill="url(#paint9_linear)"/>
</g>
</g>
<g opacity="0.56">
<g opacity="0.56">
<path opacity="0.56" d="M67.48 48.2001L68.4 47.2801V39.2201H68.6V47.3601L67.6 48.3601L67.48 48.2001Z" fill="url(#paint10_linear)"/>
</g>
<g opacity="0.56">
<path opacity="0.56" d="M67.29 48.0001C67.2218 48.0755 67.1841 48.1735 67.1841 48.2751C67.1841 48.3768 67.2218 48.4748 67.29 48.5501C67.3631 48.6228 67.4619 48.6636 67.565 48.6636C67.668 48.6636 67.7669 48.6228 67.84 48.5501C67.9042 48.4756 67.9378 48.3795 67.9341 48.2812C67.9304 48.1829 67.8897 48.0896 67.8201 48.02C67.7506 47.9504 67.6573 47.9097 67.559 47.906C67.4606 47.9024 67.3646 47.936 67.29 48.0001V48.0001Z" fill="url(#paint11_linear)"/>
</g>
</g>
</g>
<path d="M56.6201 23.64V13.41H56.8301V23.56L61.4301 28.16V45.6L68.0701 52.24V77.18H67.8601V52.33L61.2201 45.69V28.23L56.6201 23.64Z" fill="url(#paint12_linear)"/>
<path d="M68.55 45.75C68.6214 45.737 68.686 45.6994 68.7325 45.6436C68.779 45.5879 68.8045 45.5176 68.8045 45.445C68.8045 45.3724 68.779 45.3021 68.7325 45.2464C68.686 45.1906 68.6214 45.153 68.55 45.14C68.4785 45.153 68.4139 45.1906 68.3674 45.2464C68.3209 45.3021 68.2954 45.3724 68.2954 45.445C68.2954 45.5176 68.3209 45.5879 68.3674 45.6436C68.4139 45.6994 68.4785 45.737 68.55 45.75V45.75Z" fill="#4179BA"/>
<path d="M61.5199 13.85C61.5199 13.7705 61.4883 13.6942 61.4321 13.6379C61.3758 13.5817 61.2995 13.55 61.2199 13.55C61.1404 13.55 61.0641 13.5817 61.0078 13.6379C60.9515 13.6942 60.9199 13.7705 60.9199 13.85C60.9199 13.9296 60.9515 14.0059 61.0078 14.0622C61.0641 14.1184 61.1404 14.15 61.2199 14.15C61.2987 14.1475 61.3736 14.1151 61.4293 14.0594C61.485 14.0037 61.5174 13.9288 61.5199 13.85Z" fill="#4179BA"/>
<path d="M57.5898 31.55V23.4H57.7498V31.47L61.3998 35.14V49L66.6898 54.29V74.17H66.5198V54.38L61.2398 49.1V35.2L57.5898 31.55Z" fill="#4179BA"/>
<path d="M66.3 74.1401C66.2986 74.1803 66.3054 74.2204 66.3199 74.258C66.3343 74.2955 66.3562 74.3298 66.3842 74.3587C66.4122 74.3876 66.4457 74.4106 66.4828 74.4263C66.5199 74.442 66.5597 74.4501 66.6 74.4501C66.6804 74.4475 66.7567 74.4137 66.8127 74.3558C66.8687 74.298 66.9 74.2206 66.9 74.1401C66.9 74.0605 66.8684 73.9842 66.8121 73.928C66.7558 73.8717 66.6795 73.8401 66.6 73.8401C66.5204 73.8401 66.4441 73.8717 66.3878 73.928C66.3316 73.9842 66.3 74.0605 66.3 74.1401V74.1401Z" fill="#4179BA"/>
<path d="M71.2502 65.0801C71.3298 65.0801 71.4061 65.0485 71.4623 64.9922C71.5186 64.936 71.5502 64.8597 71.5502 64.7801C71.5502 64.7005 71.5186 64.6242 71.4623 64.568C71.4061 64.5117 71.3298 64.4801 71.2502 64.4801C71.1706 64.4801 71.0943 64.5117 71.0381 64.568C70.9818 64.6242 70.9502 64.7005 70.9502 64.7801C70.9502 64.8195 70.958 64.8585 70.973 64.8949C70.9881 64.9313 71.0102 64.9644 71.0381 64.9922C71.0659 65.0201 71.099 65.0422 71.1354 65.0573C71.1718 65.0723 71.2108 65.0801 71.2502 65.0801V65.0801Z" fill="#4179BA"/>
<path d="M66.6101 40.74C66.6896 40.74 66.7659 40.7084 66.8222 40.6521C66.8785 40.5959 66.9101 40.5196 66.9101 40.44C66.9101 40.3605 66.8785 40.2841 66.8222 40.2279C66.7659 40.1716 66.6896 40.14 66.6101 40.14C66.5305 40.14 66.4542 40.1716 66.3979 40.2279C66.3417 40.2841 66.3101 40.3605 66.3101 40.44C66.3101 40.5196 66.3417 40.5959 66.3979 40.6521C66.4542 40.7084 66.5305 40.74 66.6101 40.74Z" fill="#4179BA"/>
<path d="M63.71 51.54V47.63L65.34 46L65.46 46.12L63.86 47.72V51.56L63.71 51.54Z" fill="#4179BA"/>
<path d="M65.3998 46.3501C65.4786 46.3476 65.5535 46.3152 65.6092 46.2594C65.6649 46.2037 65.6973 46.1289 65.6998 46.0501C65.6869 45.9787 65.6492 45.914 65.5935 45.8675C65.5377 45.821 65.4674 45.7955 65.3948 45.7955C65.3222 45.7955 65.252 45.821 65.1962 45.8675C65.1405 45.914 65.1028 45.9787 65.0898 46.0501C65.0924 46.1306 65.1262 46.2069 65.1841 46.2628C65.242 46.3188 65.3193 46.3501 65.3998 46.3501V46.3501Z" fill="#4179BA"/>
<path d="M59.71 51.0901V43.0001L61.24 41.4801L61.35 41.6001L59.87 43.0801V51.0801L64.92 56.0801V63.4701H64.77V56.1501L59.71 51.0901Z" fill="#4179BA"/>
<path d="M64.84 63.7401C64.8803 63.7414 64.9204 63.7347 64.9579 63.7202C64.9955 63.7057 65.0297 63.6838 65.0587 63.6558C65.0876 63.6278 65.1106 63.5943 65.1263 63.5573C65.142 63.5202 65.1501 63.4803 65.15 63.4401C65.1371 63.3687 65.0994 63.3041 65.0437 63.2575C64.9879 63.211 64.9176 63.1855 64.845 63.1855C64.7724 63.1855 64.7021 63.211 64.6464 63.2575C64.5907 63.3041 64.553 63.3687 64.54 63.4401C64.54 63.5197 64.5716 63.596 64.6279 63.6522C64.6842 63.7085 64.7605 63.7401 64.84 63.7401V63.7401Z" fill="#4179BA"/>
<path d="M69 60.27V49.82L71.15 47.67L71.27 47.79L69.16 49.89V60.27H69Z" fill="#4179BA"/>
<path d="M69.0998 60.5601C69.1794 60.5601 69.2557 60.5285 69.3119 60.4722C69.3682 60.416 69.3998 60.3396 69.3998 60.2601C69.3998 60.1805 69.3682 60.1042 69.3119 60.048C69.2557 59.9917 69.1794 59.9601 69.0998 59.9601C69.0202 59.9601 68.9439 59.9917 68.8877 60.048C68.8314 60.1042 68.7998 60.1805 68.7998 60.2601C68.7998 60.3396 68.8314 60.416 68.8877 60.4722C68.9439 60.5285 69.0202 60.5601 69.0998 60.5601Z" fill="#4179BA"/>
<path d="M66.5898 61.3501L66.6898 61.2301L68.1898 62.7201V70.7801H67.9998V62.7801L66.5898 61.3501Z" fill="#4179BA"/>
<path d="M68.11 71.0701C68.1814 71.0571 68.246 71.0195 68.2926 70.9637C68.3391 70.908 68.3646 70.8377 68.3646 70.7651C68.3646 70.6925 68.3391 70.6222 68.2926 70.5665C68.246 70.5107 68.1814 70.4731 68.11 70.4601C68.0386 70.4731 67.974 70.5107 67.9275 70.5665C67.8809 70.6222 67.8555 70.6925 67.8555 70.7651C67.8555 70.8377 67.8809 70.908 67.9275 70.9637C67.974 71.0195 68.0386 71.0571 68.11 71.0701V71.0701Z" fill="#4179BA"/>
<path d="M61.1201 73.31L62.9301 71.5V59.76L64.7901 57.91L64.9001 58.02L63.1001 59.83V71.56L61.2401 73.42L61.1201 73.31Z" fill="#4179BA"/>
<path d="M61 73.1401C60.9589 73.1824 60.9311 73.2358 60.9202 73.2938C60.9093 73.3518 60.9157 73.4117 60.9387 73.466C60.9616 73.5203 61.0001 73.5667 61.0492 73.5993C61.0984 73.6319 61.1561 73.6493 61.215 73.6493C61.274 73.6493 61.3317 73.6319 61.3809 73.5993C61.43 73.5667 61.4685 73.5203 61.4914 73.466C61.5144 73.4117 61.5208 73.3518 61.5099 73.2938C61.4989 73.2358 61.4712 73.1824 61.43 73.1401C61.4021 73.1114 61.3687 73.0885 61.3317 73.0729C61.2948 73.0573 61.2551 73.0493 61.215 73.0493C61.175 73.0493 61.1353 73.0573 61.0984 73.0729C61.0614 73.0885 61.028 73.1114 61 73.1401V73.1401Z" fill="#4179BA"/>
<path d="M62 18.1501V14.9301L63.69 13.2401L63.81 13.3501L62.17 15.0001V18.0801L68.45 24.3601V28.9401L73.33 33.8401V40.3201H73.18V33.9101L68.29 29.0001V24.4001L62 18.1501Z" fill="#4179BA"/>
<path d="M73.5699 40.3101C73.5713 40.3498 73.5645 40.3895 73.5499 40.4265C73.5353 40.4635 73.5133 40.4972 73.4851 40.5253C73.457 40.5534 73.4234 40.5755 73.3863 40.5901C73.3493 40.6047 73.3097 40.6115 73.2699 40.6101C73.1903 40.6101 73.114 40.5785 73.0578 40.5222C73.0015 40.4659 72.9699 40.3896 72.9699 40.3101C72.9685 40.2703 72.9753 40.2307 72.9899 40.1936C73.0045 40.1566 73.0265 40.123 73.0547 40.0948C73.0828 40.0667 73.1164 40.0446 73.1535 40.0301C73.1905 40.0155 73.2301 40.0087 73.2699 40.0101C73.3495 40.0101 73.4258 40.0417 73.482 40.0979C73.5383 40.1542 73.5699 40.2305 73.5699 40.3101V40.3101Z" fill="#4179BA"/>
<path d="M63.7299 13.6001C63.8051 13.5949 63.8753 13.5607 63.9257 13.5047C63.976 13.4487 64.0027 13.3753 63.9999 13.3001C64.0013 13.2603 63.9945 13.2206 63.9799 13.1836C63.9653 13.1466 63.9433 13.113 63.9151 13.0848C63.887 13.0567 63.8534 13.0346 63.8163 13.02C63.7793 13.0055 63.7397 12.9987 63.6999 13.0001C63.6203 13.0001 63.544 13.0317 63.4878 13.0879C63.4315 13.1442 63.3999 13.2205 63.3999 13.3001C63.3999 13.3796 63.4315 13.4559 63.4878 13.5122C63.544 13.5684 63.6203 13.6001 63.6999 13.6001H63.7299Z" fill="#4179BA"/>
<path d="M63.6699 22.9V19.77H63.8399V22.82L66.5899 25.59V28.35H66.4299V25.65L63.6699 22.9Z" fill="#4179BA"/>
<path d="M66.1899 28.34C66.1925 28.4205 66.2263 28.4968 66.2842 28.5528C66.3421 28.6088 66.4194 28.6401 66.4999 28.64C66.5795 28.64 66.6558 28.6084 66.7121 28.5522C66.7683 28.4959 66.7999 28.4196 66.7999 28.34C66.7999 28.2605 66.7683 28.1842 66.7121 28.1279C66.6558 28.0716 66.5795 28.04 66.4999 28.04C66.4194 28.04 66.3421 28.0713 66.2842 28.1273C66.2263 28.1833 66.1925 28.2596 66.1899 28.34V28.34Z" fill="#4179BA"/>
<path d="M70.2202 37.89V30.89H70.3702V37.8L71.8302 39.24V43.24L72.4902 43.91L72.3902 44.03L71.6602 43.31V39.31L70.2202 37.89Z" fill="#4179BA"/>
<path d="M72.43 44.2701C72.4917 44.2721 72.5526 44.2556 72.6049 44.2228C72.6572 44.19 72.6985 44.1423 72.7235 44.0858C72.7485 44.0294 72.7561 43.9668 72.7453 43.906C72.7345 43.8452 72.7057 43.789 72.6628 43.7447C72.6199 43.7003 72.5647 43.6698 72.5043 43.657C72.4439 43.6442 72.3811 43.6497 72.3238 43.6729C72.2666 43.696 72.2176 43.7357 72.1831 43.7869C72.1485 43.8381 72.1301 43.8984 72.13 43.9601C72.1287 44.0003 72.1355 44.0404 72.15 44.078C72.1644 44.1155 72.1863 44.1498 72.2143 44.1787C72.2423 44.2077 72.2758 44.2307 72.3129 44.2464C72.3499 44.2621 72.3898 44.2701 72.43 44.2701V44.2701Z" fill="#4179BA"/>
<path d="M66.6899 33.9101V31.6401L67.7799 30.5701L67.8799 30.6701L66.8799 31.6701V33.8801L66.6899 33.9101Z" fill="#4179BA"/>
<path d="M67.9999 30.84C68.041 30.7978 68.0688 30.7443 68.0797 30.6863C68.0906 30.6284 68.0842 30.5685 68.0612 30.5141C68.0383 30.4598 67.9998 30.4134 67.9507 30.3808C67.9015 30.3482 67.8439 30.3308 67.7849 30.3308C67.7259 30.3308 67.6682 30.3482 67.619 30.3808C67.5699 30.4134 67.5314 30.4598 67.5085 30.5141C67.4855 30.5685 67.4791 30.6284 67.49 30.6863C67.501 30.7443 67.5287 30.7978 67.5699 30.84C67.5971 30.8701 67.6302 30.8941 67.6673 30.9105C67.7043 30.9269 67.7444 30.9354 67.7849 30.9354C67.8254 30.9354 67.8654 30.9269 67.9025 30.9105C67.9395 30.8941 67.9727 30.8701 67.9999 30.84V30.84Z" fill="#4179BA"/>
<path d="M71.6699 67.37L72.8599 66.18V53.33L74.6399 51.55V43.94L71.6999 41L71.8099 40.89L74.8099 43.89V51.63L72.9999 53.4V66.25L71.7699 67.49L71.6699 67.37Z" fill="#4179BA"/>
<path d="M71.7302 67.7101C71.7895 67.7101 71.8475 67.6925 71.8968 67.6595C71.9462 67.6266 71.9846 67.5797 72.0073 67.5249C72.03 67.4701 72.036 67.4098 72.0244 67.3516C72.0128 67.2934 71.9843 67.2399 71.9423 67.198C71.9004 67.156 71.8469 67.1274 71.7887 67.1159C71.7305 67.1043 71.6702 67.1102 71.6154 67.1329C71.5606 67.1556 71.5137 67.1941 71.4807 67.2434C71.4478 67.2928 71.4302 67.3508 71.4302 67.4101C71.4302 67.4897 71.4618 67.566 71.518 67.6222C71.5743 67.6785 71.6506 67.7101 71.7302 67.7101V67.7101Z" fill="#4179BA"/>
<path d="M66.2202 51.0901L66.9502 50.3601V43.9401H67.1202V50.4201L66.3402 51.2101L66.2202 51.0901Z" fill="#4179BA"/>
<path d="M66.0801 50.92C66.039 50.9623 66.0112 51.0157 66.0003 51.0737C65.9894 51.1317 65.9958 51.1916 66.0187 51.2459C66.0417 51.3003 66.0801 51.3466 66.1293 51.3792C66.1785 51.4118 66.2361 51.4292 66.2951 51.4292C66.3541 51.4292 66.4118 51.4118 66.4609 51.3792C66.5101 51.3466 66.5486 51.3003 66.5715 51.2459C66.5944 51.1916 66.6009 51.1317 66.5899 51.0737C66.579 51.0157 66.5513 50.9623 66.5101 50.92C66.4822 50.8913 66.4487 50.8684 66.4118 50.8528C66.3749 50.8373 66.3352 50.8292 66.2951 50.8292C66.255 50.8292 66.2154 50.8373 66.1784 50.8528C66.1415 50.8684 66.1081 50.8913 66.0801 50.92V50.92Z" fill="#4179BA"/>
<path d="M72.8999 51.4201V47.6701L74.6599 45.9301L74.7699 46.0301L73.0699 47.7401V51.4201H72.8999Z" fill="#4179BA"/>
<path d="M72.6802 51.4001C72.6802 51.4594 72.6978 51.5174 72.7307 51.5668C72.7637 51.6161 72.8106 51.6546 72.8654 51.6773C72.9202 51.7 72.9805 51.7059 73.0387 51.6943C73.0969 51.6828 73.1504 51.6542 73.1923 51.6122C73.2343 51.5703 73.2628 51.5168 73.2744 51.4586C73.286 51.4004 73.28 51.3401 73.2573 51.2853C73.2346 51.2305 73.1962 51.1836 73.1468 51.1507C73.0975 51.1177 73.0395 51.1001 72.9802 51.1001C72.9006 51.1001 72.8243 51.1317 72.768 51.188C72.7118 51.2442 72.6802 51.3205 72.6802 51.4001V51.4001Z" fill="#4179BA"/>
<path d="M67.8799 58.9201V54.2301L68.9999 53.0901L69.1099 53.2101L67.9999 54.3001V58.9201H67.8799Z" fill="#4179BA"/>
<path d="M68.0002 59.2101C68.0798 59.2101 68.1561 59.1785 68.2123 59.1222C68.2686 59.066 68.3002 58.9897 68.3002 58.9101C68.3002 58.8305 68.2686 58.7542 68.2123 58.698C68.1561 58.6417 68.0798 58.6101 68.0002 58.6101C67.9206 58.6101 67.8443 58.6417 67.7881 58.698C67.7318 58.7542 67.7002 58.8305 67.7002 58.9101C67.7002 58.9897 67.7318 59.066 67.7881 59.1222C67.8443 59.1785 67.9206 59.2101 68.0002 59.2101Z" fill="#4179BA"/>
<path d="M72.8999 56.3401L73.0199 56.2301L75.8699 59.0801V71.0801L78.0599 73.2701L77.9399 73.3801L75.6999 71.1801V59.1801L72.8999 56.3401Z" fill="#4179BA"/>
<path d="M77.77 73.5801C77.8122 73.6212 77.8657 73.649 77.9237 73.6599C77.9816 73.6708 78.0415 73.6644 78.0959 73.6414C78.1502 73.6185 78.1966 73.58 78.2292 73.5309C78.2618 73.4817 78.2792 73.4241 78.2792 73.3651C78.2792 73.3061 78.2618 73.2484 78.2292 73.1992C78.1966 73.1501 78.1502 73.1116 78.0959 73.0887C78.0415 73.0657 77.9816 73.0593 77.9237 73.0702C77.8657 73.0812 77.8122 73.1089 77.77 73.1501C77.7412 73.178 77.7184 73.2114 77.7028 73.2484C77.6872 73.2853 77.6792 73.325 77.6792 73.3651C77.6792 73.4051 77.6872 73.4448 77.7028 73.4818C77.7184 73.5187 77.7412 73.5521 77.77 73.5801V73.5801Z" fill="#4179BA"/>
<path d="M67.57 77.1701C67.57 77.2452 67.5922 77.3187 67.634 77.3812C67.6758 77.4437 67.7351 77.4924 67.8045 77.5211C67.874 77.5499 67.9504 77.5574 68.0241 77.5428C68.0978 77.5281 68.1655 77.4919 68.2187 77.4388C68.2718 77.3856 68.308 77.3179 68.3227 77.2442C68.3373 77.1705 68.3298 77.0941 68.301 77.0246C68.2723 76.9552 68.2236 76.8959 68.1611 76.8541C68.0986 76.8123 68.0251 76.7901 67.95 76.7901C67.8997 76.7887 67.8497 76.7976 67.8029 76.8162C67.7562 76.8348 67.7138 76.8627 67.6782 76.8983C67.6426 76.9339 67.6147 76.9763 67.5961 77.023C67.5775 77.0697 67.5686 77.1198 67.57 77.1701V77.1701Z" fill="white"/>
<path d="M64.3101 48.76V43.85L66.3801 41.78L66.5201 41.92L64.5201 43.92V48.74L64.3101 48.76Z" fill="white"/>
<path d="M66.6998 42.1401C66.764 42.0655 66.7976 41.9695 66.794 41.8711C66.7903 41.7728 66.7496 41.6795 66.68 41.61C66.6104 41.5404 66.5171 41.4997 66.4188 41.496C66.3205 41.4923 66.2244 41.5259 66.1498 41.5901C66.0817 41.6655 66.0439 41.7635 66.0439 41.8651C66.0439 41.9667 66.0817 42.0647 66.1498 42.1401C66.2229 42.2128 66.3218 42.2536 66.4248 42.2536C66.5279 42.2536 66.6268 42.2128 66.6998 42.1401V42.1401Z" fill="white"/>
<path d="M59.29 48.2001V38.0001L61.22 36.0901L61.36 36.2401L59.5 38.0801V48.0801L65.85 54.4401V63.7201H65.64V54.5501L59.29 48.2001Z" fill="white"/>
<path d="M65.3599 63.7201C65.3599 63.7952 65.3821 63.8687 65.4239 63.9312C65.4657 63.9937 65.525 64.0424 65.5944 64.0712C65.6639 64.0999 65.7403 64.1074 65.814 64.0928C65.8877 64.0781 65.9554 64.0419 66.0086 63.9888C66.0617 63.9356 66.0979 63.8679 66.1126 63.7942C66.1272 63.7205 66.1197 63.6441 66.0909 63.5747C66.0622 63.5052 66.0135 63.4459 65.951 63.4041C65.8885 63.3624 65.815 63.3401 65.7399 63.3401C65.6391 63.3401 65.5424 63.3801 65.4712 63.4514C65.3999 63.5226 65.3599 63.6193 65.3599 63.7201Z" fill="white"/>
<path d="M67.9199 61.0801L68.0699 60.9401L69.9399 62.8101V72.9301H69.7299V62.9301L67.9199 61.0801Z" fill="white"/>
<path d="M69.84 73.28C69.9151 73.28 69.9886 73.2577 70.0511 73.216C70.1136 73.1742 70.1623 73.1149 70.191 73.0454C70.2198 72.976 70.2273 72.8996 70.2127 72.8259C70.198 72.7522 70.1618 72.6845 70.1087 72.6313C70.0555 72.5782 69.9878 72.542 69.9141 72.5273C69.8404 72.5127 69.764 72.5202 69.6945 72.5489C69.6251 72.5777 69.5658 72.6264 69.524 72.6889C69.4822 72.7514 69.46 72.8249 69.46 72.9C69.46 73.0008 69.5 73.0975 69.5713 73.1687C69.6425 73.24 69.7392 73.28 69.84 73.28V73.28Z" fill="white"/>
<path d="M61.0698 76.11L63.3498 73.83V59.09L65.6698 56.76L65.8098 56.91L63.5498 59.17V73.92L61.2198 76.25L61.0698 76.11Z" fill="white"/>
<path d="M60.8801 75.9001C60.8074 75.9732 60.7666 76.072 60.7666 76.1751C60.7666 76.2782 60.8074 76.377 60.8801 76.4501C60.9554 76.5183 61.0534 76.556 61.1551 76.556C61.2567 76.556 61.3547 76.5183 61.4301 76.4501C61.5027 76.377 61.5435 76.2782 61.5435 76.1751C61.5435 76.072 61.5027 75.9732 61.4301 75.9001C61.3946 75.8629 61.3519 75.8333 61.3046 75.813C61.2574 75.7928 61.2065 75.7823 61.1551 75.7823C61.1036 75.7823 61.0528 75.7928 61.0055 75.813C60.9582 75.8333 60.9155 75.8629 60.8801 75.9001V75.9001Z" fill="white"/>
<path d="M67.48 48.2001L68.4 47.2801V39.2201H68.6V47.3601L67.6 48.3601L67.48 48.2001Z" fill="white"/>
<path d="M67.29 48C67.2218 48.0754 67.1841 48.1734 67.1841 48.275C67.1841 48.3767 67.2218 48.4747 67.29 48.55C67.3631 48.6227 67.4619 48.6635 67.565 48.6635C67.668 48.6635 67.7669 48.6227 67.84 48.55C67.9042 48.4754 67.9378 48.3794 67.9341 48.2811C67.9304 48.1827 67.8897 48.0894 67.8201 48.0199C67.7506 47.9503 67.6573 47.9096 67.559 47.9059C67.4606 47.9022 67.3646 47.9359 67.29 48V48Z" fill="white"/>
<path d="M67.57 77.1701C67.57 77.2452 67.5922 77.3187 67.634 77.3812C67.6758 77.4437 67.7351 77.4924 67.8045 77.5211C67.874 77.5499 67.9504 77.5574 68.0241 77.5428C68.0978 77.5281 68.1655 77.4919 68.2187 77.4388C68.2718 77.3856 68.308 77.3179 68.3227 77.2442C68.3373 77.1705 68.3298 77.0941 68.301 77.0246C68.2723 76.9552 68.2236 76.8959 68.1611 76.8541C68.0986 76.8123 68.0251 76.7901 67.95 76.7901C67.8997 76.7887 67.8497 76.7976 67.8029 76.8162C67.7562 76.8348 67.7138 76.8627 67.6782 76.8983C67.6426 76.9339 67.6147 76.9763 67.5961 77.023C67.5775 77.0697 67.5686 77.1198 67.57 77.1701V77.1701Z" fill="url(#paint13_linear)"/>
<path d="M64.3101 48.76V43.85L66.3801 41.78L66.5201 41.92L64.5201 43.92V48.74L64.3101 48.76Z" fill="url(#paint14_linear)"/>
<path d="M66.6998 42.1401C66.764 42.0655 66.7976 41.9695 66.794 41.8711C66.7903 41.7728 66.7496 41.6795 66.68 41.61C66.6104 41.5404 66.5171 41.4997 66.4188 41.496C66.3205 41.4923 66.2244 41.5259 66.1498 41.5901C66.0817 41.6655 66.0439 41.7635 66.0439 41.8651C66.0439 41.9667 66.0817 42.0647 66.1498 42.1401C66.2229 42.2128 66.3218 42.2536 66.4248 42.2536C66.5279 42.2536 66.6268 42.2128 66.6998 42.1401V42.1401Z" fill="url(#paint15_linear)"/>
<path d="M59.29 48.2001V38.0001L61.22 36.0901L61.36 36.2401L59.5 38.0801V48.0801L65.85 54.4401V63.7201H65.64V54.5501L59.29 48.2001Z" fill="url(#paint16_linear)"/>
<path d="M65.3599 63.7201C65.3599 63.7952 65.3821 63.8687 65.4239 63.9312C65.4657 63.9937 65.525 64.0424 65.5944 64.0712C65.6639 64.0999 65.7403 64.1074 65.814 64.0928C65.8877 64.0781 65.9554 64.0419 66.0086 63.9888C66.0617 63.9356 66.0979 63.8679 66.1126 63.7942C66.1272 63.7205 66.1197 63.6441 66.0909 63.5747C66.0622 63.5052 66.0135 63.4459 65.951 63.4041C65.8885 63.3624 65.815 63.3401 65.7399 63.3401C65.6391 63.3401 65.5424 63.3801 65.4712 63.4514C65.3999 63.5226 65.3599 63.6193 65.3599 63.7201Z" fill="url(#paint17_linear)"/>
<path d="M67.9199 61.0801L68.0699 60.9401L69.9399 62.8101V72.9301H69.7299V62.9301L67.9199 61.0801Z" fill="url(#paint18_linear)"/>
<path d="M69.84 73.28C69.9151 73.28 69.9886 73.2577 70.0511 73.216C70.1136 73.1742 70.1623 73.1149 70.191 73.0454C70.2198 72.976 70.2273 72.8996 70.2127 72.8259C70.198 72.7522 70.1618 72.6845 70.1087 72.6313C70.0555 72.5782 69.9878 72.542 69.9141 72.5273C69.8404 72.5127 69.764 72.5202 69.6945 72.5489C69.6251 72.5777 69.5658 72.6264 69.524 72.6889C69.4822 72.7514 69.46 72.8249 69.46 72.9C69.46 73.0008 69.5 73.0975 69.5713 73.1687C69.6425 73.24 69.7392 73.28 69.84 73.28V73.28Z" fill="url(#paint19_linear)"/>
<path d="M61.0698 76.11L63.3498 73.83V59.09L65.6698 56.76L65.8098 56.91L63.5498 59.17V73.92L61.2198 76.25L61.0698 76.11Z" fill="url(#paint20_linear)"/>
<path d="M60.8801 75.9001C60.8074 75.9732 60.7666 76.072 60.7666 76.1751C60.7666 76.2782 60.8074 76.377 60.8801 76.4501C60.9554 76.5183 61.0534 76.556 61.1551 76.556C61.2567 76.556 61.3547 76.5183 61.4301 76.4501C61.5027 76.377 61.5435 76.2782 61.5435 76.1751C61.5435 76.072 61.5027 75.9732 61.4301 75.9001C61.3946 75.8629 61.3519 75.8333 61.3046 75.813C61.2574 75.7928 61.2065 75.7823 61.1551 75.7823C61.1036 75.7823 61.0528 75.7928 61.0055 75.813C60.9582 75.8333 60.9155 75.8629 60.8801 75.9001V75.9001Z" fill="url(#paint21_linear)"/>
<path d="M67.48 48.2001L68.4 47.2801V39.2201H68.6V47.3601L67.6 48.3601L67.48 48.2001Z" fill="url(#paint22_linear)"/>
<path d="M67.29 48C67.2218 48.0754 67.1841 48.1734 67.1841 48.275C67.1841 48.3767 67.2218 48.4747 67.29 48.55C67.3631 48.6227 67.4619 48.6635 67.565 48.6635C67.668 48.6635 67.7669 48.6227 67.84 48.55C67.9042 48.4754 67.9378 48.3794 67.9341 48.2811C67.9304 48.1827 67.8897 48.0894 67.8201 48.0199C67.7506 47.9503 67.6573 47.9096 67.559 47.9059C67.4606 47.9022 67.3646 47.9359 67.29 48V48Z" fill="url(#paint23_linear)"/>
<path d="M31.83 38.55C31.675 38.3693 31.4811 38.226 31.2629 38.1308C31.0447 38.0355 30.8079 37.9908 30.57 38H20.31C20.269 38.0021 20.228 37.9951 20.19 37.9795C20.1519 37.964 20.1178 37.9402 20.09 37.91C20.0571 37.8821 20.0316 37.8465 20.0159 37.8064C20.0002 37.7662 19.9947 37.7228 20 37.68V30.68C20.0003 30.6437 20.0085 30.6079 20.024 30.5751C20.0396 30.5423 20.0621 30.5132 20.09 30.49C20.1178 30.4598 20.1519 30.4361 20.19 30.4205C20.228 30.405 20.269 30.398 20.31 30.4H31.15C32.5054 30.4033 33.8432 30.7083 35.0661 31.2929C36.2889 31.8775 37.3663 32.7271 38.22 33.78L40.86 37.03L35.73 43.35L31.83 38.55ZM50.77 33.77C51.6332 32.7201 52.7188 31.8749 53.9483 31.2956C55.1779 30.7163 56.5208 30.4172 57.88 30.42H68.69C68.7264 30.4156 68.7634 30.4196 68.7981 30.4317C68.8328 30.4439 68.8642 30.4638 68.89 30.49C68.917 30.5173 68.9373 30.5504 68.9495 30.5868C68.9616 30.6233 68.9652 30.662 68.96 30.7V37.7C68.9612 37.7699 68.9362 37.8376 68.89 37.89C68.8668 37.9205 68.8363 37.9447 68.8014 37.9604C68.7665 37.9761 68.7282 37.9828 68.69 37.98H58.43C58.1889 37.9757 57.9499 38.0266 57.7315 38.1289C57.5131 38.2311 57.321 38.382 57.17 38.57L49.61 47.85L57.2 57.21C57.3526 57.3864 57.5415 57.5277 57.7538 57.6244C57.9661 57.721 58.1967 57.7707 58.43 57.77H68.69C68.7274 57.7651 68.7654 57.7698 68.8004 57.7839C68.8355 57.7979 68.8663 57.8206 68.89 57.85C68.9397 57.916 68.9645 57.9975 68.96 58.08V65.08C68.9612 65.1499 68.9362 65.2176 68.89 65.27C68.8668 65.3005 68.8363 65.3247 68.8014 65.3404C68.7665 65.3561 68.7282 65.3628 68.69 65.36H57.88C56.5227 65.3613 55.1826 65.0572 53.9588 64.4704C52.735 63.8836 51.6588 63.0291 50.81 61.97L44.52 54.23L38.22 61.97C37.3621 63.0289 36.2785 63.8827 35.0484 64.4692C33.8183 65.0558 32.4727 65.3601 31.11 65.36H20.31C20.2704 65.362 20.231 65.3549 20.1946 65.3393C20.1582 65.3237 20.1258 65.3 20.1 65.27C20.0334 65.1961 19.9977 65.0995 20 65V58C20.0035 57.931 20.0279 57.8648 20.07 57.81C20.0958 57.78 20.1282 57.7563 20.1646 57.7407C20.201 57.7251 20.2404 57.718 20.28 57.72H30.57C30.8103 57.7194 31.0476 57.6662 31.2652 57.5643C31.4828 57.4624 31.6756 57.3142 31.83 57.13L39.25 48L50.77 33.77Z" fill="url(#paint24_linear)"/>
</g>
<defs>
<linearGradient id="paint0_linear" x1="62.2901" y1="20.81" x2="62.4501" y2="68.9" gradientUnits="userSpaceOnUse">
<stop stop-color="#7C18FF"/>
<stop offset="0.33" stop-color="#895AB2"/>
<stop offset="1" stop-color="#0072B7"/>
</linearGradient>
<linearGradient id="paint1_linear" x1="103.874" y1="123.189" x2="103.996" y2="86.6413" gradientUnits="userSpaceOnUse">
<stop stop-color="#7C18FF"/>
<stop offset="0.33" stop-color="#895AB2"/>
<stop offset="1" stop-color="#0072B7"/>
</linearGradient>
<linearGradient id="paint2_linear" x1="164.489" y1="467.839" x2="168.016" y2="132.204" gradientUnits="userSpaceOnUse">
<stop stop-color="#7C18FF"/>
<stop offset="0.33" stop-color="#895AB2"/>
<stop offset="1" stop-color="#0072B7"/>
</linearGradient>
<linearGradient id="paint3_linear" x1="100.827" y1="87.7544" x2="100.95" y2="51.3173" gradientUnits="userSpaceOnUse">
<stop stop-color="#7C18FF"/>
<stop offset="0.33" stop-color="#895AB2"/>
<stop offset="1" stop-color="#0072B7"/>
</linearGradient>
<linearGradient id="paint4_linear" x1="337.893" y1="1722.35" x2="356.51" y2="393.868" gradientUnits="userSpaceOnUse">
<stop stop-color="#7C18FF"/>
<stop offset="0.33" stop-color="#895AB2"/>
<stop offset="1" stop-color="#0072B7"/>
</linearGradient>
<linearGradient id="paint5_linear" x1="100.008" y1="109.73" x2="100.13" y2="73.1821" gradientUnits="userSpaceOnUse">
<stop stop-color="#7C18FF"/>
<stop offset="0.33" stop-color="#895AB2"/>
<stop offset="1" stop-color="#0072B7"/>
</linearGradient>
<linearGradient id="paint6_linear" x1="166.476" y1="792.93" x2="178.569" y2="216.577" gradientUnits="userSpaceOnUse">
<stop stop-color="#7C18FF"/>
<stop offset="0.33" stop-color="#895AB2"/>
<stop offset="1" stop-color="#0072B7"/>
</linearGradient>
<linearGradient id="paint7_linear" x1="107.202" y1="118.918" x2="107.323" y2="82.3772" gradientUnits="userSpaceOnUse">
<stop stop-color="#7C18FF"/>
<stop offset="0.33" stop-color="#895AB2"/>
<stop offset="1" stop-color="#0072B7"/>
</linearGradient>
<linearGradient id="paint8_linear" x1="266.264" y1="1246.23" x2="279.085" y2="309.321" gradientUnits="userSpaceOnUse">
<stop stop-color="#7C18FF"/>
<stop offset="0.33" stop-color="#895AB2"/>
<stop offset="1" stop-color="#0072B7"/>
</linearGradient>
<linearGradient id="paint9_linear" x1="92.5969" y1="122.991" x2="92.7201" y2="85.7933" gradientUnits="userSpaceOnUse">
<stop stop-color="#7C18FF"/>
<stop offset="0.33" stop-color="#895AB2"/>
<stop offset="1" stop-color="#0072B7"/>
</linearGradient>
<linearGradient id="paint10_linear" x1="121.195" y1="597.126" x2="133.865" y2="158.035" gradientUnits="userSpaceOnUse">
<stop stop-color="#7C18FF"/>
<stop offset="0.33" stop-color="#895AB2"/>
<stop offset="1" stop-color="#0072B7"/>
</linearGradient>
<linearGradient id="paint11_linear" x1="102.808" y1="94.1646" x2="102.93" y2="57.7274" gradientUnits="userSpaceOnUse">
<stop stop-color="#7C18FF"/>
<stop offset="0.33" stop-color="#895AB2"/>
<stop offset="1" stop-color="#0072B7"/>
</linearGradient>
<linearGradient id="paint12_linear" x1="62.6801" y1="66.02" x2="62.1901" y2="25.2" gradientUnits="userSpaceOnUse">
<stop stop-color="#0072B7"/>
<stop offset="1" stop-color="#5931B7" stop-opacity="0.6"/>
</linearGradient>
<linearGradient id="paint13_linear" x1="103.92" y1="88.8609" x2="103.547" y2="119.89" gradientUnits="userSpaceOnUse">
<stop stop-color="#0072B7"/>
<stop offset="1" stop-color="#5931B7" stop-opacity="0.6"/>
</linearGradient>
<linearGradient id="paint14_linear" x1="165.219" y1="152.413" x2="154.65" y2="436.983" gradientUnits="userSpaceOnUse">
<stop stop-color="#0072B7"/>
<stop offset="1" stop-color="#5931B7" stop-opacity="0.6"/>
</linearGradient>
<linearGradient id="paint15_linear" x1="101.09" y1="53.5151" x2="100.722" y2="84.4578" gradientUnits="userSpaceOnUse">
<stop stop-color="#0072B7"/>
<stop offset="1" stop-color="#5931B7" stop-opacity="0.6"/>
</linearGradient>
<linearGradient id="paint16_linear" x1="339.73" y1="473.197" x2="282.844" y2="1598.34" gradientUnits="userSpaceOnUse">
<stop stop-color="#0072B7"/>
<stop offset="1" stop-color="#5931B7" stop-opacity="0.6"/>
</linearGradient>
<linearGradient id="paint17_linear" x1="100.137" y1="75.3861" x2="99.7726" y2="106.417" gradientUnits="userSpaceOnUse">
<stop stop-color="#0072B7"/>
<stop offset="1" stop-color="#5931B7" stop-opacity="0.6"/>
</linearGradient>
<linearGradient id="paint18_linear" x1="166.86" y1="251.461" x2="132.86" y2="738.588" gradientUnits="userSpaceOnUse">
<stop stop-color="#0072B7"/>
<stop offset="1" stop-color="#5931B7" stop-opacity="0.6"/>
</linearGradient>
<linearGradient id="paint19_linear" x1="107.27" y1="84.604" x2="106.905" y2="115.627" gradientUnits="userSpaceOnUse">
<stop stop-color="#0072B7"/>
<stop offset="1" stop-color="#5931B7" stop-opacity="0.6"/>
</linearGradient>
<linearGradient id="paint20_linear" x1="266.976" y1="365.287" x2="227.797" y2="1159.05" gradientUnits="userSpaceOnUse">
<stop stop-color="#0072B7"/>
<stop offset="1" stop-color="#5931B7" stop-opacity="0.6"/>
</linearGradient>
<linearGradient id="paint21_linear" x1="92.6513" y1="88.0061" x2="92.2738" y2="119.587" gradientUnits="userSpaceOnUse">
<stop stop-color="#0072B7"/>
<stop offset="1" stop-color="#5931B7" stop-opacity="0.6"/>
</linearGradient>
<linearGradient id="paint22_linear" x1="121.587" y1="184.363" x2="85.3805" y2="554.057" gradientUnits="userSpaceOnUse">
<stop stop-color="#0072B7"/>
<stop offset="1" stop-color="#5931B7" stop-opacity="0.6"/>
</linearGradient>
<linearGradient id="paint23_linear" x1="103.033" y1="59.9402" x2="102.665" y2="90.8754" gradientUnits="userSpaceOnUse">
<stop stop-color="#0072B7"/>
<stop offset="1" stop-color="#5931B7" stop-opacity="0.6"/>
</linearGradient>
<linearGradient id="paint24_linear" x1="44.61" y1="65.47" x2="44.39" y2="30.27" gradientUnits="userSpaceOnUse">
<stop offset="0.02" stop-color="#7AC8CB"/>
<stop offset="1" stop-color="#0072B7"/>
</linearGradient>
<clipPath id="clip0">
<rect width="58.29" height="64.55" fill="white" transform="translate(20 13)"/>
</clipPath>
</defs>
</svg>
