<svg width="455" height="387" viewBox="0 0 455 387" fill="none" xmlns="http://www.w3.org/2000/svg">
<rect x="343.804" y="339.266" width="326.229" height="175.035" transform="rotate(-180 343.804 339.266)" fill="url(#paint0_linear_114_110)"/>
<g filter="url(#filter0_d_114_110)">
<path d="M15.8215 54.0902L19.4329 67.6538C19.6659 68.5289 20.9093 68.5248 21.1366 67.6482V67.6482C21.3568 66.7986 22.5483 66.7587 22.8249 67.5916L25.7443 76.381C26.3804 78.296 29.1146 78.2207 29.6443 76.2736L32.9965 63.9522C33.4994 62.1035 36.0442 61.9078 36.8239 63.6579L52.2647 98.3152C52.9968 99.9584 55.3436 99.916 56.016 98.2475L58.6935 91.6032C59.3681 89.9291 61.7254 89.8938 62.4498 91.5469L64.1386 95.4007C64.723 96.7343 66.667 96.563 67.0093 95.1478L67.3978 93.5414C67.6142 92.6464 68.8433 92.5373 69.2139 93.3803V93.3803C69.5779 94.208 70.7791 94.1222 71.0217 93.2512L75.0252 78.8808C75.5985 76.8229 78.5493 76.9219 78.9833 79.0137L80.0598 84.2026C80.5252 86.4458 83.7662 86.3327 84.0742 84.0626L84.2911 82.463C84.5789 80.3414 87.5252 80.0424 88.2333 82.063L99.2119 113.39C99.6975 114.775 101.595 114.931 102.3 113.644V113.644C102.971 112.419 104.752 112.484 105.331 113.755L109.155 122.149C110.007 124.019 112.776 123.596 113.031 121.558L114.332 111.181C114.616 108.913 117.846 108.761 118.342 110.992L122.312 128.824C122.716 130.641 125.268 130.745 125.818 128.966V128.966C126.351 127.244 128.795 127.267 129.296 128.998L136.87 155.155C137.459 157.192 140.38 157.086 140.82 155.012L141.39 152.326C141.831 150.245 144.765 150.147 145.344 152.194L152.657 178.052C153.237 180.102 156.176 180 156.612 177.915L158.777 167.563C159.216 165.466 162.179 165.38 162.739 167.448L165.916 179.194C166.396 180.968 168.793 181.251 169.672 179.637L170.484 178.145C171.426 176.417 174.028 176.895 174.293 178.846L178.776 211.873C179.104 214.289 182.627 214.195 182.826 211.765L183.598 202.317C183.728 200.731 185.928 200.439 186.466 201.937V201.937C186.979 203.361 189.046 203.189 189.316 201.7L190.256 196.517C190.669 194.241 193.954 194.305 194.279 196.595L195.691 206.569C195.742 206.932 195.891 207.275 196.12 207.56L197.248 208.963C198.377 210.368 200.64 209.723 200.859 207.934L202.337 195.853C202.63 193.463 206.096 193.467 206.383 195.858L208.848 216.403C209.123 218.697 212.4 218.834 212.867 216.572L220.171 181.178C220.622 178.99 223.756 179.018 224.169 181.213L229.47 209.404C229.859 211.469 232.739 211.666 233.405 209.674L239.43 191.66C240.045 189.82 242.639 189.799 243.284 191.628L248.749 207.124L260.272 239.949C260.91 241.766 263.481 241.765 264.118 239.947L267.701 229.718C268.368 227.811 271.105 227.934 271.599 229.892L281.811 270.324C282.25 272.066 284.584 272.397 285.534 270.873V270.873C286.418 269.455 288.554 269.619 289.172 271.171L291.116 276.052C291.842 277.876 294.474 277.719 294.978 275.821L296.889 268.631C297.417 266.642 300.226 266.601 300.812 268.574L306.943 289.218C307.373 290.664 309.391 290.746 309.936 289.339V289.339C310.425 288.077 312.17 287.971 312.808 289.165L321.402 305.241C322.182 306.699 324.282 306.671 325.021 305.192L332.722 289.802C333.483 288.281 335.663 288.307 336.388 289.846L344.895 307.915" stroke="#64CE9B" stroke-width="2.03766"/>
</g>
<path d="M162.48 380.642C161.698 380.642 161.007 380.458 160.408 380.091C159.821 379.712 159.363 379.174 159.032 378.478C158.702 377.769 158.537 376.943 158.537 376.002C158.537 375.036 158.702 374.211 159.032 373.526C159.363 372.841 159.821 372.31 160.408 371.931C161.007 371.552 161.698 371.362 162.48 371.362C163.263 371.362 163.935 371.558 164.497 371.949C165.072 372.328 165.457 372.841 165.653 373.489H165.451V368.355C165.451 368.049 165.531 367.817 165.69 367.658C165.848 367.499 166.075 367.419 166.368 367.419C166.661 367.419 166.888 367.499 167.047 367.658C167.218 367.817 167.303 368.049 167.303 368.355V379.67C167.303 379.963 167.224 380.195 167.065 380.367C166.906 380.525 166.68 380.605 166.386 380.605C166.093 380.605 165.867 380.525 165.708 380.367C165.549 380.195 165.469 379.963 165.469 379.67V378.056L165.671 378.459C165.476 379.119 165.09 379.651 164.516 380.055C163.953 380.446 163.275 380.642 162.48 380.642ZM162.957 379.211C163.458 379.211 163.898 379.089 164.277 378.844C164.656 378.6 164.95 378.239 165.158 377.762C165.378 377.286 165.488 376.699 165.488 376.002C165.488 374.95 165.255 374.156 164.791 373.618C164.326 373.08 163.715 372.811 162.957 372.811C162.444 372.811 161.997 372.933 161.618 373.178C161.239 373.41 160.94 373.765 160.72 374.241C160.512 374.718 160.408 375.305 160.408 376.002C160.408 377.041 160.64 377.836 161.105 378.386C161.569 378.936 162.187 379.211 162.957 379.211ZM172.765 380.642C172.142 380.642 171.579 380.519 171.078 380.275C170.589 380.03 170.204 379.7 169.922 379.285C169.641 378.869 169.501 378.398 169.501 377.872C169.501 377.212 169.666 376.693 169.996 376.314C170.338 375.922 170.894 375.647 171.665 375.488C172.447 375.317 173.499 375.232 174.819 375.232H175.681V376.369H174.837C173.957 376.369 173.26 376.411 172.747 376.497C172.233 376.583 171.866 376.729 171.646 376.937C171.439 377.133 171.335 377.408 171.335 377.762C171.335 378.227 171.494 378.606 171.811 378.899C172.129 379.181 172.569 379.321 173.132 379.321C173.584 379.321 173.982 379.217 174.324 379.009C174.666 378.789 174.935 378.496 175.131 378.129C175.339 377.762 175.443 377.341 175.443 376.864V374.755C175.443 374.058 175.296 373.557 175.002 373.251C174.709 372.945 174.226 372.793 173.554 372.793C173.162 372.793 172.753 372.841 172.325 372.939C171.909 373.037 171.475 373.202 171.023 373.434C170.815 373.532 170.638 373.563 170.491 373.526C170.344 373.489 170.228 373.41 170.143 373.288C170.057 373.153 170.008 373.013 169.996 372.866C169.996 372.707 170.033 372.554 170.106 372.407C170.191 372.261 170.332 372.151 170.528 372.077C171.066 371.821 171.597 371.637 172.123 371.527C172.649 371.417 173.144 371.362 173.609 371.362C174.428 371.362 175.1 371.49 175.626 371.747C176.164 372.004 176.561 372.395 176.818 372.921C177.075 373.447 177.203 374.125 177.203 374.957V379.67C177.203 379.963 177.13 380.195 176.983 380.367C176.836 380.525 176.622 380.605 176.341 380.605C176.072 380.605 175.858 380.525 175.699 380.367C175.54 380.195 175.461 379.963 175.461 379.67V378.478H175.626C175.528 378.93 175.345 379.321 175.076 379.651C174.819 379.969 174.495 380.214 174.104 380.385C173.713 380.556 173.266 380.642 172.765 380.642ZM181.774 383.906C181.554 383.906 181.37 383.845 181.223 383.723C181.089 383.613 181.009 383.46 180.985 383.264C180.973 383.081 181.009 382.879 181.095 382.659L182.342 379.853V380.642L178.913 372.664C178.827 372.444 178.797 372.236 178.821 372.041C178.845 371.845 178.937 371.692 179.096 371.582C179.255 371.46 179.469 371.399 179.738 371.399C179.97 371.399 180.154 371.454 180.288 371.564C180.423 371.674 180.545 371.863 180.655 372.132L183.424 378.973H182.911L185.716 372.132C185.826 371.851 185.955 371.662 186.102 371.564C186.248 371.454 186.45 371.399 186.707 371.399C186.927 371.399 187.098 371.46 187.22 371.582C187.355 371.692 187.434 371.845 187.459 372.041C187.495 372.224 187.465 372.426 187.367 372.646L182.782 383.191C182.66 383.472 182.519 383.661 182.36 383.759C182.214 383.857 182.018 383.906 181.774 383.906ZM198.026 380.642C197.341 380.642 196.644 380.55 195.935 380.367C195.226 380.171 194.608 379.884 194.083 379.505C193.887 379.382 193.753 379.236 193.679 379.064C193.618 378.881 193.606 378.716 193.643 378.569C193.679 378.41 193.753 378.276 193.863 378.166C193.985 378.056 194.132 377.995 194.303 377.982C194.474 377.958 194.663 378.007 194.871 378.129C195.397 378.447 195.911 378.679 196.412 378.826C196.913 378.961 197.433 379.028 197.971 379.028C198.557 379.028 199.053 378.942 199.456 378.771C199.859 378.6 200.159 378.349 200.355 378.019C200.562 377.689 200.666 377.292 200.666 376.827C200.666 376.13 200.434 375.611 199.97 375.268C199.517 374.914 198.857 374.736 197.989 374.736H196.742C196.461 374.736 196.247 374.669 196.1 374.535C195.953 374.388 195.88 374.186 195.88 373.93C195.88 373.685 195.953 373.496 196.1 373.361C196.247 373.214 196.461 373.141 196.742 373.141H197.806C198.331 373.141 198.777 373.055 199.144 372.884C199.511 372.701 199.792 372.45 199.988 372.132C200.196 371.802 200.3 371.405 200.3 370.94C200.3 370.317 200.092 369.84 199.676 369.51C199.273 369.168 198.68 368.996 197.897 368.996C197.396 368.996 196.919 369.064 196.467 369.198C196.027 369.333 195.568 369.571 195.091 369.913C194.908 370.036 194.731 370.091 194.56 370.078C194.401 370.054 194.26 369.993 194.138 369.895C194.028 369.785 193.948 369.65 193.899 369.492C193.863 369.333 193.875 369.168 193.936 368.996C193.997 368.825 194.119 368.679 194.303 368.556C194.816 368.177 195.397 367.89 196.045 367.694C196.693 367.486 197.359 367.383 198.044 367.383C198.9 367.383 199.633 367.517 200.245 367.786C200.868 368.055 201.339 368.44 201.657 368.941C201.987 369.443 202.152 370.042 202.152 370.739C202.152 371.264 202.054 371.741 201.858 372.169C201.663 372.597 201.382 372.964 201.015 373.269C200.66 373.563 200.226 373.771 199.713 373.893V373.691C200.605 373.838 201.296 374.205 201.785 374.791C202.274 375.366 202.519 376.087 202.519 376.955C202.519 377.713 202.335 378.374 201.968 378.936C201.614 379.486 201.1 379.908 200.428 380.201C199.756 380.495 198.955 380.642 198.026 380.642Z" fill="white"/>
<path d="M181.811 215.785L181.811 214.766L179.774 214.766L179.774 215.785L181.811 215.785ZM179.774 218.872C179.774 219.435 180.23 219.891 180.792 219.891C181.355 219.891 181.811 219.435 181.811 218.872L179.774 218.872ZM181.811 225.046C181.811 224.484 181.355 224.027 180.792 224.027C180.23 224.027 179.774 224.484 179.774 225.046L181.811 225.046ZM179.774 231.22C179.774 231.783 180.23 232.239 180.792 232.239C181.355 232.239 181.811 231.783 181.811 231.22L179.774 231.22ZM181.811 237.395C181.811 236.832 181.355 236.376 180.792 236.376C180.23 236.376 179.774 236.832 179.774 237.395L181.811 237.395ZM179.774 243.569C179.774 244.131 180.23 244.587 180.792 244.587C181.355 244.587 181.811 244.131 181.811 243.569L179.774 243.569ZM181.811 249.743C181.811 249.18 181.355 248.724 180.792 248.724C180.23 248.724 179.774 249.18 179.774 249.743L181.811 249.743ZM179.774 255.917C179.774 256.479 180.23 256.936 180.792 256.936C181.355 256.936 181.811 256.479 181.811 255.917L179.774 255.917ZM181.811 262.091C181.811 261.528 181.355 261.072 180.792 261.072C180.23 261.072 179.774 261.528 179.774 262.091L181.811 262.091ZM179.774 268.265C179.774 268.828 180.23 269.284 180.792 269.284C181.355 269.284 181.811 268.828 181.811 268.265L179.774 268.265ZM181.811 274.439C181.811 273.876 181.355 273.42 180.792 273.42C180.23 273.42 179.774 273.876 179.774 274.439L181.811 274.439ZM179.774 280.613C179.774 281.176 180.23 281.632 180.792 281.632C181.355 281.632 181.811 281.176 181.811 280.613L179.774 280.613ZM181.811 286.787C181.811 286.225 181.355 285.768 180.792 285.768C180.23 285.768 179.774 286.225 179.774 286.787L181.811 286.787ZM179.774 292.961C179.774 293.524 180.23 293.98 180.792 293.98C181.355 293.98 181.811 293.524 181.811 292.961L179.774 292.961ZM181.811 299.136C181.811 298.573 181.355 298.117 180.792 298.117C180.23 298.117 179.774 298.573 179.774 299.136L181.811 299.136ZM179.774 305.31C179.774 305.872 180.23 306.328 180.792 306.328C181.355 306.328 181.811 305.872 181.811 305.31L179.774 305.31ZM181.811 311.484C181.811 310.921 181.355 310.465 180.792 310.465C180.23 310.465 179.774 310.921 179.774 311.484L181.811 311.484ZM179.774 317.658C179.774 318.221 180.23 318.677 180.792 318.677C181.355 318.677 181.811 318.221 181.811 317.658L179.774 317.658ZM181.811 323.832C181.811 323.269 181.355 322.813 180.792 322.813C180.23 322.813 179.774 323.269 179.774 323.832L181.811 323.832ZM179.774 330.006C179.774 330.569 180.23 331.025 180.792 331.025C181.355 331.025 181.811 330.569 181.811 330.006L179.774 330.006ZM181.811 336.18C181.811 335.617 181.355 335.161 180.792 335.161C180.23 335.161 179.774 335.617 179.774 336.18L181.811 336.18ZM179.774 215.785L179.774 218.872L181.811 218.872L181.811 215.785L179.774 215.785ZM179.774 225.046L179.774 231.22L181.811 231.22L181.811 225.046L179.774 225.046ZM179.774 237.395L179.774 243.569L181.811 243.569L181.811 237.395L179.774 237.395ZM179.774 249.743L179.774 255.917L181.811 255.917L181.811 249.743L179.774 249.743ZM179.774 262.091L179.774 268.265L181.811 268.265L181.811 262.091L179.774 262.091ZM179.774 274.439L179.774 280.613L181.811 280.613L181.811 274.439L179.774 274.439ZM179.774 286.787L179.774 292.961L181.811 292.961L181.811 286.787L179.774 286.787ZM179.774 299.136L179.774 305.31L181.811 305.31L181.811 299.136L179.774 299.136ZM179.774 311.484L179.774 317.658L181.811 317.658L181.811 311.484L179.774 311.484ZM179.774 323.832L179.774 330.006L181.811 330.006L181.811 323.832L179.774 323.832ZM179.774 336.18L179.774 339.267L181.811 339.267L181.811 336.18L179.774 336.18Z" fill="#D9D9D9" fill-opacity="0.23"/>
<path d="M375.572 49.2432C375.352 49.2432 375.169 49.1699 375.022 49.0231C374.888 48.8764 374.82 48.6992 374.82 48.4913V46.7491L375.187 47.0976C374.331 47.0853 373.561 46.9753 372.876 46.7675C372.192 46.5474 371.617 46.2845 371.153 45.9789C370.981 45.8688 370.859 45.7282 370.786 45.5571C370.712 45.3859 370.688 45.2148 370.712 45.0436C370.749 44.8724 370.822 44.7257 370.933 44.6035C371.043 44.4812 371.177 44.4078 371.336 44.3834C371.495 44.3589 371.678 44.4078 371.886 44.5301C372.265 44.7746 372.736 44.9947 373.298 45.1903C373.873 45.3859 374.57 45.4837 375.389 45.4837C376.049 45.4837 376.587 45.3981 377.003 45.227C377.431 45.0558 377.742 44.8235 377.938 44.5301C378.146 44.2367 378.25 43.8944 378.25 43.5031C378.25 43.1853 378.176 42.9102 378.03 42.6779C377.895 42.4456 377.669 42.25 377.351 42.091C377.033 41.9199 376.611 41.7793 376.086 41.6692L374.197 41.2658C373.084 41.0213 372.253 40.6178 371.703 40.0554C371.165 39.493 370.896 38.7533 370.896 37.8364C370.896 37.1151 371.067 36.4732 371.409 35.9108C371.764 35.3484 372.253 34.9022 372.876 34.5721C373.512 34.242 374.252 34.0525 375.095 34.0036L374.82 34.2603V32.5915C374.82 32.3836 374.888 32.2064 375.022 32.0596C375.169 31.9129 375.352 31.8396 375.572 31.8396C375.78 31.8396 375.957 31.9129 376.104 32.0596C376.251 32.2064 376.324 32.3836 376.324 32.5915V34.2603L376.012 34.0036C376.575 34.0158 377.174 34.1319 377.81 34.352C378.445 34.5598 378.989 34.8594 379.442 35.2506C379.588 35.3729 379.68 35.5135 379.717 35.6724C379.766 35.8313 379.766 35.9842 379.717 36.1309C379.68 36.2776 379.607 36.3999 379.497 36.4977C379.387 36.5955 379.246 36.6505 379.075 36.6627C378.904 36.6749 378.72 36.6138 378.525 36.4793C378.134 36.2104 377.7 35.9964 377.223 35.8375C376.758 35.6785 376.202 35.5991 375.554 35.5991C374.698 35.5991 374.02 35.8008 373.518 36.2042C373.017 36.6077 372.766 37.1334 372.766 37.7814C372.766 38.2704 372.919 38.6678 373.225 38.9734C373.531 39.2668 374.044 39.493 374.765 39.652L376.691 40.0554C377.865 40.3122 378.733 40.7095 379.295 41.2474C379.857 41.7854 380.139 42.5006 380.139 43.3931C380.139 44.09 379.961 44.7074 379.607 45.2453C379.252 45.771 378.763 46.1928 378.14 46.5107C377.528 46.8164 376.819 47.0059 376.012 47.0792L376.324 46.7308V48.4913C376.324 48.6992 376.251 48.8764 376.104 49.0231C375.97 49.1699 375.792 49.2432 375.572 49.2432ZM388.561 47.0059C388.305 47.0059 388.103 46.9325 387.956 46.7858C387.809 46.6391 387.736 46.4435 387.736 46.1989C387.736 45.9422 387.809 45.7466 387.956 45.6121C388.103 45.4776 388.305 45.4104 388.561 45.4104H390.799V35.6541H391.752L389.075 37.3596C388.879 37.4696 388.696 37.5124 388.525 37.488C388.366 37.4635 388.225 37.3963 388.103 37.2862C387.993 37.1762 387.913 37.0417 387.865 36.8828C387.828 36.7238 387.84 36.5588 387.901 36.3876C387.975 36.2165 388.103 36.0759 388.286 35.9658L390.817 34.3703C391.025 34.2481 391.221 34.1503 391.404 34.0769C391.6 33.9913 391.783 33.9486 391.954 33.9486C392.162 33.9486 392.333 34.0097 392.468 34.1319C392.614 34.242 392.688 34.4315 392.688 34.7004V45.4104H394.742C395.011 45.4104 395.218 45.4776 395.365 45.6121C395.512 45.7466 395.585 45.9422 395.585 46.1989C395.585 46.4557 395.512 46.6574 395.365 46.8041C395.218 46.9386 395.011 47.0059 394.742 47.0059H388.561ZM399.558 47.0059C399.301 47.0059 399.099 46.9325 398.952 46.7858C398.806 46.6391 398.732 46.4435 398.732 46.1989C398.732 45.9422 398.806 45.7466 398.952 45.6121C399.099 45.4776 399.301 45.4104 399.558 45.4104H401.795V35.6541H402.749L400.071 37.3596C399.875 37.4696 399.692 37.5124 399.521 37.488C399.362 37.4635 399.221 37.3963 399.099 37.2862C398.989 37.1762 398.91 37.0417 398.861 36.8828C398.824 36.7238 398.836 36.5588 398.897 36.3876C398.971 36.2165 399.099 36.0759 399.282 35.9658L401.813 34.3703C402.021 34.2481 402.217 34.1503 402.4 34.0769C402.596 33.9913 402.779 33.9486 402.95 33.9486C403.158 33.9486 403.329 34.0097 403.464 34.1319C403.61 34.242 403.684 34.4315 403.684 34.7004V45.4104H405.738C406.007 45.4104 406.215 45.4776 406.361 45.6121C406.508 45.7466 406.581 45.9422 406.581 46.1989C406.581 46.4557 406.508 46.6574 406.361 46.8041C406.215 46.9386 406.007 47.0059 405.738 47.0059H399.558ZM413.213 47.1709C411.709 47.1709 410.56 46.6024 409.765 45.4654C408.983 44.3162 408.591 42.6718 408.591 40.5322C408.591 39.0773 408.769 37.8609 409.123 36.8828C409.478 35.9047 409.997 35.165 410.682 34.6638C411.367 34.1625 412.21 33.9119 413.213 33.9119C414.729 33.9119 415.878 34.4743 416.661 35.5991C417.443 36.7116 417.834 38.3499 417.834 40.5139C417.834 41.9443 417.657 43.1547 417.302 44.145C416.948 45.1353 416.428 45.8872 415.744 46.4007C415.059 46.9142 414.215 47.1709 413.213 47.1709ZM413.213 45.5938C414.154 45.5938 414.845 45.1842 415.285 44.3651C415.738 43.5337 415.964 42.25 415.964 40.5139C415.964 38.7656 415.738 37.4941 415.285 36.6994C414.845 35.8925 414.154 35.489 413.213 35.489C412.284 35.489 411.593 35.8925 411.141 36.6994C410.688 37.4941 410.462 38.7656 410.462 40.5139C410.462 42.25 410.688 43.5337 411.141 44.3651C411.593 45.1842 412.284 45.5938 413.213 45.5938ZM424.209 47.1709C422.705 47.1709 421.556 46.6024 420.761 45.4654C419.979 44.3162 419.588 42.6718 419.588 40.5322C419.588 39.0773 419.765 37.8609 420.119 36.8828C420.474 35.9047 420.994 35.165 421.678 34.6638C422.363 34.1625 423.207 33.9119 424.209 33.9119C425.725 33.9119 426.874 34.4743 427.657 35.5991C428.439 36.7116 428.83 38.3499 428.83 40.5139C428.83 41.9443 428.653 43.1547 428.299 44.145C427.944 45.1353 427.424 45.8872 426.74 46.4007C426.055 46.9142 425.212 47.1709 424.209 47.1709ZM424.209 45.5938C425.15 45.5938 425.841 45.1842 426.281 44.3651C426.734 43.5337 426.96 42.25 426.96 40.5139C426.96 38.7656 426.734 37.4941 426.281 36.6994C425.841 35.8925 425.15 35.489 424.209 35.489C423.28 35.489 422.589 35.8925 422.137 36.6994C421.684 37.4941 421.458 38.7656 421.458 40.5139C421.458 42.25 421.684 43.5337 422.137 44.3651C422.589 45.1842 423.28 45.5938 424.209 45.5938ZM374.325 64.1709C373.787 64.1709 373.231 64.1098 372.656 63.9875C372.094 63.8653 371.574 63.6574 371.098 63.364C370.939 63.254 370.829 63.1317 370.767 62.9972C370.706 62.8627 370.682 62.7282 370.694 62.5938C370.719 62.4471 370.774 62.3248 370.859 62.227C370.957 62.117 371.073 62.0497 371.208 62.0253C371.354 62.0008 371.507 62.0314 371.666 62.117C372.143 62.3859 372.601 62.5754 373.042 62.6855C373.482 62.7833 373.916 62.8322 374.344 62.8322C374.992 62.8322 375.481 62.716 375.811 62.4837C376.141 62.2514 376.306 61.9397 376.306 61.5484C376.306 61.2306 376.196 60.9861 375.976 60.8149C375.756 60.6315 375.426 60.4909 374.985 60.3931L373.243 60.0447C372.485 59.8857 371.911 59.6045 371.519 59.2011C371.128 58.7976 370.933 58.2841 370.933 57.6606C370.933 57.0982 371.085 56.6092 371.391 56.1935C371.697 55.7778 372.125 55.4599 372.675 55.2399C373.225 55.0076 373.861 54.8914 374.582 54.8914C375.12 54.8914 375.627 54.9587 376.104 55.0931C376.581 55.2276 377.021 55.4294 377.425 55.6983C377.583 55.7839 377.687 55.9001 377.736 56.0468C377.785 56.1813 377.791 56.3157 377.755 56.4502C377.73 56.5847 377.669 56.707 377.571 56.817C377.473 56.9148 377.351 56.9759 377.204 57.0004C377.07 57.0126 376.917 56.9759 376.746 56.8904C376.379 56.6581 376.012 56.493 375.646 56.3952C375.291 56.2974 374.937 56.2485 374.582 56.2485C373.934 56.2485 373.445 56.3708 373.115 56.6153C372.797 56.8476 372.638 57.1654 372.638 57.5689C372.638 57.8745 372.736 58.1252 372.931 58.3208C373.127 58.5164 373.433 58.657 373.848 58.7426L375.591 59.091C376.385 59.25 376.984 59.5189 377.388 59.8979C377.804 60.2769 378.011 60.7904 378.011 61.4384C378.011 62.282 377.675 62.9483 377.003 63.4374C376.33 63.9264 375.438 64.1709 374.325 64.1709ZM383.797 64.1709C383.064 64.1709 382.446 64.0425 381.945 63.7858C381.444 63.529 381.071 63.15 380.826 62.6488C380.582 62.1475 380.459 61.5362 380.459 60.8149V56.4869H379.359C379.115 56.4869 378.925 56.4258 378.791 56.3035C378.656 56.169 378.589 55.9918 378.589 55.7717C378.589 55.5394 378.656 55.3621 378.791 55.2399C378.925 55.1176 379.115 55.0565 379.359 55.0565H380.459V53.1676C380.459 52.8619 380.539 52.6296 380.698 52.4707C380.869 52.3117 381.101 52.2323 381.395 52.2323C381.688 52.2323 381.914 52.3117 382.073 52.4707C382.232 52.6296 382.312 52.8619 382.312 53.1676V55.0565H384.457C384.702 55.0565 384.891 55.1176 385.026 55.2399C385.16 55.3621 385.228 55.5394 385.228 55.7717C385.228 55.9918 385.16 56.169 385.026 56.3035C384.891 56.4258 384.702 56.4869 384.457 56.4869H382.312V60.6682C382.312 61.3162 382.446 61.8052 382.715 62.1353C382.996 62.4654 383.449 62.6304 384.072 62.6304C384.292 62.6304 384.482 62.6121 384.641 62.5754C384.812 62.5265 384.952 62.496 385.063 62.4837C385.197 62.4837 385.307 62.5326 385.393 62.6304C385.478 62.716 385.521 62.8872 385.521 63.1439C385.521 63.3273 385.484 63.4985 385.411 63.6574C385.35 63.8164 385.234 63.9203 385.063 63.9692C384.916 64.0181 384.714 64.0609 384.457 64.0976C384.213 64.1465 383.993 64.1709 383.797 64.1709ZM389.542 64.1709C388.918 64.1709 388.356 64.0487 387.854 63.8041C387.365 63.5596 386.98 63.2295 386.699 62.8138C386.418 62.3981 386.277 61.9274 386.277 61.4017C386.277 60.7415 386.442 60.2219 386.772 59.8429C387.115 59.4517 387.671 59.1766 388.441 59.0177C389.224 58.8465 390.275 58.7609 391.595 58.7609H392.457V59.8979H391.614C390.734 59.8979 390.037 59.9407 389.523 60.0263C389.01 60.1119 388.643 60.2586 388.423 60.4664C388.215 60.6621 388.111 60.9371 388.111 61.2917C388.111 61.7563 388.27 62.1353 388.588 62.4287C388.906 62.7099 389.346 62.8505 389.908 62.8505C390.361 62.8505 390.758 62.7466 391.1 62.5387C391.443 62.3187 391.712 62.0253 391.907 61.6585C392.115 61.2917 392.219 60.8699 392.219 60.3931V58.2841C392.219 57.5872 392.072 57.086 391.779 56.7803C391.485 56.4747 391.003 56.3219 390.33 56.3219C389.939 56.3219 389.529 56.3708 389.101 56.4686C388.686 56.5664 388.252 56.7314 387.799 56.9637C387.591 57.0615 387.414 57.0921 387.267 57.0554C387.121 57.0187 387.005 56.9393 386.919 56.817C386.833 56.6825 386.785 56.5419 386.772 56.3952C386.772 56.2363 386.809 56.0834 386.882 55.9367C386.968 55.79 387.109 55.68 387.304 55.6066C387.842 55.3499 388.374 55.1665 388.9 55.0565C389.425 54.9464 389.921 54.8914 390.385 54.8914C391.204 54.8914 391.877 55.0198 392.402 55.2765C392.94 55.5333 393.338 55.9245 393.594 56.4502C393.851 56.9759 393.98 57.6545 393.98 58.4858V63.1989C393.98 63.4924 393.906 63.7247 393.759 63.8958C393.613 64.0548 393.399 64.1342 393.118 64.1342C392.849 64.1342 392.635 64.0548 392.476 63.8958C392.317 63.7247 392.237 63.4924 392.237 63.1989V62.0069H392.402C392.305 62.4593 392.121 62.8505 391.852 63.1806C391.595 63.4985 391.271 63.743 390.88 63.9142C390.489 64.0853 390.043 64.1709 389.542 64.1709ZM397.466 64.1342C397.16 64.1342 396.928 64.0548 396.769 63.8958C396.61 63.7247 396.531 63.4924 396.531 63.1989V55.8634C396.531 55.5577 396.61 55.3254 396.769 55.1665C396.928 55.0076 397.148 54.9281 397.429 54.9281C397.723 54.9281 397.943 55.0076 398.089 55.1665C398.248 55.3254 398.328 55.5577 398.328 55.8634V57.2021H398.144C398.34 56.4686 398.701 55.9123 399.226 55.5333C399.752 55.1543 400.425 54.9342 401.244 54.8731C401.464 54.8609 401.635 54.9159 401.757 55.0381C401.892 55.1604 401.965 55.3499 401.977 55.6066C402.002 55.8634 401.947 56.0712 401.812 56.2302C401.678 56.3769 401.47 56.4625 401.189 56.4869L400.84 56.5236C400.046 56.5969 399.44 56.8476 399.025 57.2755C398.609 57.7034 398.401 58.2902 398.401 59.036V63.1989C398.401 63.4924 398.322 63.7247 398.163 63.8958C398.016 64.0548 397.784 64.1342 397.466 64.1342ZM407.688 64.1709C406.954 64.1709 406.337 64.0425 405.836 63.7858C405.334 63.529 404.961 63.15 404.717 62.6488C404.472 62.1475 404.35 61.5362 404.35 60.8149V56.4869H403.25C403.005 56.4869 402.816 56.4258 402.681 56.3035C402.547 56.169 402.48 55.9918 402.48 55.7717C402.48 55.5394 402.547 55.3621 402.681 55.2399C402.816 55.1176 403.005 55.0565 403.25 55.0565H404.35V53.1676C404.35 52.8619 404.43 52.6296 404.589 52.4707C404.76 52.3117 404.992 52.2323 405.285 52.2323C405.579 52.2323 405.805 52.3117 405.964 52.4707C406.123 52.6296 406.202 52.8619 406.202 53.1676V55.0565H408.348C408.593 55.0565 408.782 55.1176 408.917 55.2399C409.051 55.3621 409.118 55.5394 409.118 55.7717C409.118 55.9918 409.051 56.169 408.917 56.3035C408.782 56.4258 408.593 56.4869 408.348 56.4869H406.202V60.6682C406.202 61.3162 406.337 61.8052 406.606 62.1353C406.887 62.4654 407.339 62.6304 407.963 62.6304C408.183 62.6304 408.373 62.6121 408.531 62.5754C408.703 62.5265 408.843 62.496 408.953 62.4837C409.088 62.4837 409.198 62.5326 409.283 62.6304C409.369 62.716 409.412 62.8872 409.412 63.1439C409.412 63.3273 409.375 63.4985 409.302 63.6574C409.241 63.8164 409.124 63.9203 408.953 63.9692C408.807 64.0181 408.605 64.0609 408.348 64.0976C408.104 64.1465 407.883 64.1709 407.688 64.1709ZM416.324 67.4352C416.03 67.4352 415.804 67.3558 415.645 67.1968C415.486 67.0379 415.407 66.8056 415.407 66.5V55.8634C415.407 55.5577 415.486 55.3254 415.645 55.1665C415.804 55.0076 416.024 54.9281 416.305 54.9281C416.599 54.9281 416.825 55.0076 416.984 55.1665C417.143 55.3254 417.222 55.5577 417.222 55.8634V57.4589L417.021 57.0737C417.216 56.4135 417.601 55.8878 418.176 55.4966C418.751 55.0931 419.429 54.8914 420.212 54.8914C421.006 54.8914 421.697 55.0809 422.284 55.4599C422.883 55.8389 423.341 56.3708 423.659 57.0554C423.989 57.7401 424.154 58.5653 424.154 59.5312C424.154 60.4726 423.989 61.2978 423.659 62.0069C423.341 62.7038 422.889 63.2417 422.302 63.6207C421.715 63.9875 421.019 64.1709 420.212 64.1709C419.441 64.1709 418.769 63.9753 418.194 63.5841C417.62 63.1928 417.235 62.6732 417.039 62.0253H417.259V66.5C417.259 66.8056 417.173 67.0379 417.002 67.1968C416.843 67.3558 416.617 67.4352 416.324 67.4352ZM419.753 62.7405C420.267 62.7405 420.713 62.6182 421.092 62.3737C421.471 62.1292 421.764 61.7685 421.972 61.2917C422.18 60.8149 422.284 60.228 422.284 59.5312C422.284 58.4797 422.052 57.685 421.587 57.1471C421.135 56.6092 420.523 56.3402 419.753 56.3402C419.252 56.3402 418.806 56.4625 418.414 56.707C418.035 56.9393 417.742 57.2938 417.534 57.7706C417.326 58.2474 417.222 58.8343 417.222 59.5312C417.222 60.5704 417.455 61.3651 417.919 61.9152C418.384 62.4654 418.995 62.7405 419.753 62.7405ZM427.177 64.1342C426.871 64.1342 426.639 64.0548 426.48 63.8958C426.321 63.7247 426.242 63.4924 426.242 63.1989V55.8634C426.242 55.5577 426.321 55.3254 426.48 55.1665C426.639 55.0076 426.859 54.9281 427.14 54.9281C427.434 54.9281 427.654 55.0076 427.801 55.1665C427.96 55.3254 428.039 55.5577 428.039 55.8634V57.2021H427.856C428.051 56.4686 428.412 55.9123 428.938 55.5333C429.463 55.1543 430.136 54.9342 430.955 54.8731C431.175 54.8609 431.346 54.9159 431.468 55.0381C431.603 55.1604 431.676 55.3499 431.688 55.6066C431.713 55.8634 431.658 56.0712 431.523 56.2302C431.389 56.3769 431.181 56.4625 430.9 56.4869L430.551 56.5236C429.757 56.5969 429.152 56.8476 428.736 57.2755C428.32 57.7034 428.112 58.2902 428.112 59.036V63.1989C428.112 63.4924 428.033 63.7247 427.874 63.8958C427.727 64.0548 427.495 64.1342 427.177 64.1342ZM434 64.1159C433.707 64.1159 433.48 64.0303 433.322 63.8591C433.163 63.6758 433.083 63.4251 433.083 63.1073V55.9551C433.083 55.6372 433.163 55.3927 433.322 55.2215C433.48 55.0504 433.707 54.9648 434 54.9648C434.293 54.9648 434.52 55.0504 434.679 55.2215C434.85 55.3927 434.935 55.6372 434.935 55.9551V63.1073C434.935 63.4251 434.856 63.6758 434.697 63.8591C434.538 64.0303 434.306 64.1159 434 64.1159ZM434 53.0575C433.633 53.0575 433.346 52.9658 433.138 52.7824C432.943 52.5991 432.845 52.3423 432.845 52.0122C432.845 51.6699 432.943 51.4131 433.138 51.242C433.346 51.0586 433.633 50.9669 434 50.9669C434.367 50.9669 434.648 51.0586 434.844 51.242C435.051 51.4131 435.155 51.6699 435.155 52.0122C435.155 52.3423 435.051 52.5991 434.844 52.7824C434.648 52.9658 434.367 53.0575 434 53.0575ZM441.485 64.1709C440.568 64.1709 439.774 63.9814 439.101 63.6024C438.441 63.2112 437.928 62.6671 437.561 61.9702C437.194 61.2611 437.011 60.4298 437.011 59.4761C437.011 58.767 437.115 58.1313 437.322 57.5689C437.53 56.9943 437.824 56.5114 438.203 56.1201C438.594 55.7289 439.065 55.4294 439.615 55.2215C440.177 55.0015 440.801 54.8914 441.485 54.8914C441.913 54.8914 442.359 54.9587 442.824 55.0931C443.301 55.2154 443.741 55.4232 444.144 55.7167C444.303 55.8145 444.401 55.9367 444.438 56.0834C444.487 56.2179 444.493 56.3585 444.456 56.5052C444.432 56.652 444.365 56.7803 444.255 56.8904C444.157 56.9882 444.034 57.0493 443.888 57.0737C443.741 57.086 443.582 57.0432 443.411 56.9454C443.117 56.7375 442.818 56.5908 442.512 56.5052C442.207 56.4074 441.913 56.3585 441.632 56.3585C441.192 56.3585 440.801 56.4319 440.458 56.5786C440.128 56.7131 439.847 56.9148 439.615 57.1838C439.382 57.4405 439.205 57.7645 439.083 58.1557C438.973 58.547 438.918 58.9932 438.918 59.4945C438.918 60.497 439.15 61.2856 439.615 61.8602C440.092 62.4226 440.764 62.7038 441.632 62.7038C441.913 62.7038 442.207 62.661 442.512 62.5754C442.818 62.4898 443.117 62.3431 443.411 62.1353C443.582 62.0375 443.741 62.0008 443.888 62.0253C444.034 62.0497 444.151 62.117 444.236 62.227C444.334 62.3248 444.395 62.4471 444.42 62.5938C444.456 62.7282 444.45 62.8688 444.401 63.0156C444.352 63.1623 444.248 63.2845 444.089 63.3823C443.698 63.6635 443.27 63.8653 442.806 63.9875C442.353 64.1098 441.913 64.1709 441.485 64.1709ZM450.124 64.1709C449.145 64.1709 448.302 63.9875 447.593 63.6207C446.896 63.2417 446.352 62.7099 445.961 62.0253C445.582 61.3284 445.392 60.5031 445.392 59.5495C445.392 58.6203 445.582 57.8073 445.961 57.1104C446.34 56.4135 446.859 55.8695 447.519 55.4783C448.18 55.087 448.932 54.8914 449.775 54.8914C450.399 54.8914 450.955 54.9953 451.444 55.2032C451.933 55.3988 452.349 55.6922 452.691 56.0834C453.046 56.4625 453.308 56.927 453.48 57.4772C453.663 58.0274 453.755 58.6448 453.755 59.3294C453.755 59.5373 453.694 59.6962 453.571 59.8062C453.449 59.9041 453.266 59.953 453.021 59.953H446.859V58.8159H452.508L452.196 59.0727C452.196 58.4614 452.104 57.9418 451.921 57.5139C451.75 57.086 451.487 56.762 451.132 56.5419C450.79 56.3096 450.362 56.1935 449.848 56.1935C449.274 56.1935 448.785 56.328 448.381 56.5969C447.99 56.8659 447.691 57.2388 447.483 57.7156C447.275 58.1924 447.171 58.7487 447.171 59.3845V59.4945C447.171 60.5704 447.422 61.3834 447.923 61.9336C448.436 62.4715 449.176 62.7405 450.142 62.7405C450.509 62.7405 450.894 62.6916 451.297 62.5938C451.713 62.496 452.104 62.3309 452.471 62.0986C452.679 61.9764 452.862 61.9213 453.021 61.9336C453.192 61.9458 453.327 62.0008 453.425 62.0986C453.535 62.1964 453.602 62.3187 453.626 62.4654C453.651 62.6121 453.626 62.7649 453.553 62.9239C453.48 63.0706 453.351 63.2051 453.168 63.3273C452.752 63.6085 452.269 63.8225 451.719 63.9692C451.169 64.1037 450.637 64.1709 450.124 64.1709Z" fill="white"/>
<path d="M375.572 173.948C375.352 173.948 375.169 173.875 375.022 173.728C374.888 173.582 374.82 173.404 374.82 173.196V171.454L375.187 171.803C374.331 171.79 373.561 171.68 372.876 171.473C372.192 171.252 371.617 170.99 371.153 170.684C370.981 170.574 370.859 170.433 370.786 170.262C370.712 170.091 370.688 169.92 370.712 169.749C370.749 169.578 370.822 169.431 370.933 169.309C371.043 169.186 371.177 169.113 371.336 169.088C371.495 169.064 371.678 169.113 371.886 169.235C372.265 169.48 372.736 169.7 373.298 169.895C373.873 170.091 374.57 170.189 375.389 170.189C376.049 170.189 376.587 170.103 377.003 169.932C377.431 169.761 377.742 169.529 377.938 169.235C378.146 168.942 378.25 168.599 378.25 168.208C378.25 167.89 378.176 167.615 378.03 167.383C377.895 167.151 377.669 166.955 377.351 166.796C377.033 166.625 376.611 166.484 376.086 166.374L374.197 165.971C373.084 165.726 372.253 165.323 371.703 164.76C371.165 164.198 370.896 163.458 370.896 162.541C370.896 161.82 371.067 161.178 371.409 160.616C371.764 160.054 372.253 159.607 372.876 159.277C373.512 158.947 374.252 158.758 375.095 158.709L374.82 158.965V157.297C374.82 157.089 374.888 156.911 375.022 156.765C375.169 156.618 375.352 156.545 375.572 156.545C375.78 156.545 375.957 156.618 376.104 156.765C376.251 156.911 376.324 157.089 376.324 157.297V158.965L376.012 158.709C376.575 158.721 377.174 158.837 377.81 159.057C378.445 159.265 378.989 159.564 379.442 159.956C379.588 160.078 379.68 160.219 379.717 160.377C379.766 160.536 379.766 160.689 379.717 160.836C379.68 160.983 379.607 161.105 379.497 161.203C379.387 161.301 379.246 161.356 379.075 161.368C378.904 161.38 378.72 161.319 378.525 161.184C378.134 160.915 377.7 160.701 377.223 160.543C376.758 160.384 376.202 160.304 375.554 160.304C374.698 160.304 374.02 160.506 373.518 160.909C373.017 161.313 372.766 161.838 372.766 162.486C372.766 162.976 372.919 163.373 373.225 163.678C373.531 163.972 374.044 164.198 374.765 164.357L376.691 164.76C377.865 165.017 378.733 165.415 379.295 165.953C379.857 166.49 380.139 167.206 380.139 168.098C380.139 168.795 379.961 169.412 379.607 169.95C379.252 170.476 378.763 170.898 378.14 171.216C377.528 171.521 376.819 171.711 376.012 171.784L376.324 171.436V173.196C376.324 173.404 376.251 173.582 376.104 173.728C375.97 173.875 375.792 173.948 375.572 173.948ZM388.561 171.711C388.305 171.711 388.103 171.638 387.956 171.491C387.809 171.344 387.736 171.149 387.736 170.904C387.736 170.647 387.809 170.452 387.956 170.317C388.103 170.183 388.305 170.115 388.561 170.115H390.799V160.359H391.752L389.075 162.065C388.879 162.175 388.696 162.217 388.525 162.193C388.366 162.169 388.225 162.101 388.103 161.991C387.993 161.881 387.913 161.747 387.865 161.588C387.828 161.429 387.84 161.264 387.901 161.093C387.975 160.922 388.103 160.781 388.286 160.671L390.817 159.075C391.025 158.953 391.221 158.855 391.404 158.782C391.6 158.696 391.783 158.654 391.954 158.654C392.162 158.654 392.333 158.715 392.468 158.837C392.614 158.947 392.688 159.137 392.688 159.406V170.115H394.742C395.011 170.115 395.218 170.183 395.365 170.317C395.512 170.452 395.585 170.647 395.585 170.904C395.585 171.161 395.512 171.362 395.365 171.509C395.218 171.644 395.011 171.711 394.742 171.711H388.561ZM402.217 171.876C400.713 171.876 399.564 171.307 398.769 170.17C397.987 169.021 397.595 167.377 397.595 165.237C397.595 163.782 397.773 162.566 398.127 161.588C398.482 160.61 399.001 159.87 399.686 159.369C400.371 158.868 401.214 158.617 402.217 158.617C403.733 158.617 404.882 159.179 405.664 160.304C406.447 161.417 406.838 163.055 406.838 165.219C406.838 166.649 406.661 167.86 406.306 168.85C405.952 169.84 405.432 170.592 404.747 171.106C404.063 171.619 403.219 171.876 402.217 171.876ZM402.217 170.299C403.158 170.299 403.849 169.889 404.289 169.07C404.741 168.239 404.968 166.955 404.968 165.219C404.968 163.471 404.741 162.199 404.289 161.404C403.849 160.598 403.158 160.194 402.217 160.194C401.288 160.194 400.597 160.598 400.144 161.404C399.692 162.199 399.466 163.471 399.466 165.219C399.466 166.955 399.692 168.239 400.144 169.07C400.597 169.889 401.288 170.299 402.217 170.299ZM413.213 171.876C411.709 171.876 410.56 171.307 409.765 170.17C408.983 169.021 408.591 167.377 408.591 165.237C408.591 163.782 408.769 162.566 409.123 161.588C409.478 160.61 409.997 159.87 410.682 159.369C411.367 158.868 412.21 158.617 413.213 158.617C414.729 158.617 415.878 159.179 416.661 160.304C417.443 161.417 417.834 163.055 417.834 165.219C417.834 166.649 417.657 167.86 417.302 168.85C416.948 169.84 416.428 170.592 415.744 171.106C415.059 171.619 414.215 171.876 413.213 171.876ZM413.213 170.299C414.154 170.299 414.845 169.889 415.285 169.07C415.738 168.239 415.964 166.955 415.964 165.219C415.964 163.471 415.738 162.199 415.285 161.404C414.845 160.598 414.154 160.194 413.213 160.194C412.284 160.194 411.593 160.598 411.141 161.404C410.688 162.199 410.462 163.471 410.462 165.219C410.462 166.955 410.688 168.239 411.141 169.07C411.593 169.889 412.284 170.299 413.213 170.299ZM424.209 171.876C422.705 171.876 421.556 171.307 420.761 170.17C419.979 169.021 419.588 167.377 419.588 165.237C419.588 163.782 419.765 162.566 420.119 161.588C420.474 160.61 420.994 159.87 421.678 159.369C422.363 158.868 423.207 158.617 424.209 158.617C425.725 158.617 426.874 159.179 427.657 160.304C428.439 161.417 428.83 163.055 428.83 165.219C428.83 166.649 428.653 167.86 428.299 168.85C427.944 169.84 427.424 170.592 426.74 171.106C426.055 171.619 425.212 171.876 424.209 171.876ZM424.209 170.299C425.15 170.299 425.841 169.889 426.281 169.07C426.734 168.239 426.96 166.955 426.96 165.219C426.96 163.471 426.734 162.199 426.281 161.404C425.841 160.598 425.15 160.194 424.209 160.194C423.28 160.194 422.589 160.598 422.137 161.404C421.684 162.199 421.458 163.471 421.458 165.219C421.458 166.955 421.684 168.239 422.137 169.07C422.589 169.889 423.28 170.299 424.209 170.299Z" fill="white"/>
<path d="M343.805 50.3274L344.824 50.3274L344.824 48.2898L343.805 48.2898L343.805 50.3274ZM340.777 48.2898C340.214 48.2898 339.758 48.7459 339.758 49.3086C339.758 49.8713 340.214 50.3274 340.777 50.3274L340.777 48.2898ZM334.721 50.3274C335.283 50.3274 335.739 49.8713 335.739 49.3086C335.739 48.7459 335.283 48.2898 334.721 48.2898L334.721 50.3274ZM328.664 48.2898C328.102 48.2898 327.645 48.7459 327.645 49.3086C327.645 49.8713 328.102 50.3274 328.664 50.3274L328.664 48.2898ZM322.608 50.3274C323.171 50.3274 323.627 49.8713 323.627 49.3086C323.627 48.7459 323.171 48.2898 322.608 48.2898L322.608 50.3274ZM316.552 48.2898C315.989 48.2898 315.533 48.7459 315.533 49.3086C315.533 49.8713 315.989 50.3274 316.552 50.3274L316.552 48.2898ZM310.495 50.3274C311.058 50.3274 311.514 49.8713 311.514 49.3086C311.514 48.7459 311.058 48.2898 310.495 48.2898L310.495 50.3274ZM304.439 48.2898C303.876 48.2898 303.42 48.7459 303.42 49.3086C303.42 49.8713 303.876 50.3274 304.439 50.3274L304.439 48.2898ZM298.382 50.3274C298.945 50.3274 299.401 49.8713 299.401 49.3086C299.401 48.7459 298.945 48.2898 298.382 48.2898L298.382 50.3274ZM292.326 48.2898C291.763 48.2898 291.307 48.7459 291.307 49.3086C291.307 49.8713 291.763 50.3274 292.326 50.3274L292.326 48.2898ZM286.27 50.3274C286.832 50.3274 287.288 49.8713 287.288 49.3086C287.288 48.7459 286.832 48.2898 286.27 48.2898L286.27 50.3274ZM280.213 48.2898C279.651 48.2898 279.194 48.7459 279.194 49.3086C279.194 49.8713 279.651 50.3274 280.213 50.3274L280.213 48.2898ZM274.157 50.3274C274.72 50.3274 275.176 49.8713 275.176 49.3086C275.176 48.7459 274.72 48.2898 274.157 48.2898L274.157 50.3274ZM268.101 48.2898C267.538 48.2898 267.082 48.7459 267.082 49.3086C267.082 49.8713 267.538 50.3274 268.101 50.3274L268.101 48.2898ZM262.044 50.3274C262.607 50.3274 263.063 49.8713 263.063 49.3086C263.063 48.7459 262.607 48.2898 262.044 48.2898L262.044 50.3274ZM255.988 48.2898C255.425 48.2898 254.969 48.7459 254.969 49.3086C254.969 49.8713 255.425 50.3274 255.988 50.3274L255.988 48.2898ZM249.931 50.3274C250.494 50.3274 250.95 49.8713 250.95 49.3086C250.95 48.7459 250.494 48.2898 249.931 48.2898L249.931 50.3274ZM243.875 48.2898C243.312 48.2898 242.856 48.7459 242.856 49.3086C242.856 49.8713 243.312 50.3274 243.875 50.3274L243.875 48.2898ZM237.819 50.3274C238.381 50.3274 238.838 49.8713 238.838 49.3086C238.838 48.7459 238.381 48.2898 237.819 48.2898L237.819 50.3274ZM231.762 48.2898C231.2 48.2898 230.744 48.7459 230.744 49.3086C230.744 49.8713 231.2 50.3274 231.762 50.3274L231.762 48.2898ZM225.706 50.3274C226.269 50.3274 226.725 49.8713 226.725 49.3086C226.725 48.7459 226.269 48.2898 225.706 48.2898L225.706 50.3274ZM219.65 48.2898C219.087 48.2898 218.631 48.7459 218.631 49.3086C218.631 49.8713 219.087 50.3274 219.65 50.3274L219.65 48.2898ZM213.593 50.3274C214.156 50.3274 214.612 49.8713 214.612 49.3086C214.612 48.7459 214.156 48.2898 213.593 48.2898L213.593 50.3274ZM207.537 48.2898C206.974 48.2898 206.518 48.7459 206.518 49.3086C206.518 49.8713 206.974 50.3274 207.537 50.3274L207.537 48.2898ZM201.481 50.3274C202.043 50.3274 202.499 49.8713 202.499 49.3086C202.499 48.7459 202.043 48.2898 201.481 48.2898L201.481 50.3274ZM195.424 48.2898C194.861 48.2898 194.405 48.7459 194.405 49.3086C194.405 49.8713 194.861 50.3274 195.424 50.3274L195.424 48.2898ZM189.368 50.3274C189.93 50.3274 190.387 49.8713 190.387 49.3086C190.387 48.7459 189.93 48.2898 189.368 48.2898L189.368 50.3274ZM183.311 48.2898C182.749 48.2898 182.293 48.7459 182.293 49.3086C182.293 49.8713 182.749 50.3274 183.311 50.3274L183.311 48.2898ZM177.255 50.3274C177.818 50.3274 178.274 49.8713 178.274 49.3086C178.274 48.7459 177.818 48.2898 177.255 48.2898L177.255 50.3274ZM171.199 48.2898C170.636 48.2898 170.18 48.7459 170.18 49.3086C170.18 49.8713 170.636 50.3274 171.199 50.3274L171.199 48.2898ZM165.142 50.3274C165.705 50.3274 166.161 49.8713 166.161 49.3086C166.161 48.7459 165.705 48.2898 165.142 48.2898L165.142 50.3274ZM159.086 48.2898C158.523 48.2898 158.067 48.7459 158.067 49.3086C158.067 49.8713 158.523 50.3274 159.086 50.3274L159.086 48.2898ZM153.03 50.3274C153.592 50.3274 154.048 49.8713 154.048 49.3086C154.048 48.7459 153.592 48.2898 153.03 48.2898L153.03 50.3274ZM146.973 48.2898C146.411 48.2898 145.954 48.7459 145.954 49.3086C145.954 49.8713 146.411 50.3274 146.973 50.3274L146.973 48.2898ZM140.917 50.3274C141.48 50.3274 141.936 49.8713 141.936 49.3086C141.936 48.7459 141.48 48.2898 140.917 48.2898L140.917 50.3274ZM134.861 48.2898C134.298 48.2898 133.842 48.7459 133.842 49.3086C133.842 49.8713 134.298 50.3274 134.861 50.3274L134.861 48.2898ZM128.804 50.3274C129.367 50.3274 129.823 49.8713 129.823 49.3086C129.823 48.7459 129.367 48.2898 128.804 48.2898L128.804 50.3274ZM122.748 48.2898C122.185 48.2898 121.729 48.7459 121.729 49.3086C121.729 49.8713 122.185 50.3274 122.748 50.3274L122.748 48.2898ZM116.691 50.3274C117.254 50.3274 117.71 49.8713 117.71 49.3086C117.71 48.7459 117.254 48.2898 116.691 48.2898L116.691 50.3274ZM110.635 48.2898C110.072 48.2898 109.616 48.7459 109.616 49.3086C109.616 49.8713 110.072 50.3274 110.635 50.3274L110.635 48.2898ZM104.579 50.3274C105.141 50.3274 105.598 49.8713 105.598 49.3086C105.598 48.7459 105.141 48.2898 104.579 48.2898L104.579 50.3274ZM98.5223 48.2898C97.9596 48.2898 97.5035 48.7459 97.5035 49.3086C97.5035 49.8713 97.9596 50.3274 98.5223 50.3274L98.5223 48.2898ZM92.4659 50.3274C93.0286 50.3274 93.4848 49.8713 93.4848 49.3086C93.4848 48.7459 93.0286 48.2898 92.4659 48.2898L92.4659 50.3274ZM86.4096 48.2898C85.8469 48.2898 85.3907 48.7459 85.3907 49.3086C85.3907 49.8713 85.8469 50.3274 86.4096 50.3274L86.4096 48.2898ZM80.3532 50.3274C80.9159 50.3274 81.372 49.8713 81.372 49.3086C81.372 48.7459 80.9159 48.2898 80.3532 48.2898L80.3532 50.3274ZM74.2968 48.2898C73.7342 48.2898 73.278 48.7459 73.278 49.3086C73.278 49.8713 73.7342 50.3274 74.2968 50.3274L74.2968 48.2898ZM68.2405 50.3274C68.8032 50.3274 69.2593 49.8713 69.2593 49.3086C69.2593 48.7459 68.8032 48.2898 68.2405 48.2898L68.2405 50.3274ZM62.1841 48.2898C61.6214 48.2898 61.1653 48.7459 61.1653 49.3086C61.1653 49.8713 61.6214 50.3274 62.1841 50.3274L62.1841 48.2898ZM56.1277 50.3274C56.6904 50.3274 57.1466 49.8713 57.1466 49.3086C57.1466 48.7459 56.6904 48.2898 56.1277 48.2898L56.1277 50.3274ZM50.0714 48.2898C49.5087 48.2898 49.0526 48.7459 49.0526 49.3086C49.0526 49.8713 49.5087 50.3274 50.0714 50.3274L50.0714 48.2898ZM44.015 50.3274C44.5777 50.3274 45.0338 49.8713 45.0338 49.3086C45.0338 48.7459 44.5777 48.2898 44.015 48.2898L44.015 50.3274ZM37.9586 48.2898C37.396 48.2898 36.9398 48.7459 36.9398 49.3086C36.9398 49.8713 37.396 50.3274 37.9586 50.3274L37.9586 48.2898ZM31.9023 50.3274C32.465 50.3274 32.9211 49.8713 32.9211 49.3086C32.9211 48.7459 32.465 48.2898 31.9023 48.2898L31.9023 50.3274ZM25.8459 48.2898C25.2832 48.2898 24.8271 48.7459 24.8271 49.3086C24.8271 49.8713 25.2832 50.3274 25.8459 50.3274L25.8459 48.2898ZM19.7896 50.3274C20.3522 50.3274 20.8084 49.8713 20.8084 49.3086C20.8084 48.7459 20.3522 48.2898 19.7896 48.2898L19.7896 50.3274ZM343.805 48.2898L340.777 48.2898L340.777 50.3274L343.805 50.3274L343.805 48.2898ZM334.721 48.2898L328.664 48.2898L328.664 50.3274L334.721 50.3274L334.721 48.2898ZM322.608 48.2898L316.552 48.2898L316.552 50.3274L322.608 50.3274L322.608 48.2898ZM310.495 48.2898L304.439 48.2898L304.439 50.3274L310.495 50.3274L310.495 48.2898ZM298.382 48.2898L292.326 48.2898L292.326 50.3274L298.382 50.3274L298.382 48.2898ZM286.27 48.2898L280.213 48.2898L280.213 50.3274L286.27 50.3274L286.27 48.2898ZM274.157 48.2898L268.101 48.2898L268.101 50.3274L274.157 50.3274L274.157 48.2898ZM262.044 48.2898L255.988 48.2898L255.988 50.3274L262.044 50.3274L262.044 48.2898ZM249.931 48.2898L243.875 48.2898L243.875 50.3274L249.931 50.3274L249.931 48.2898ZM237.819 48.2898L231.762 48.2898L231.762 50.3274L237.819 50.3274L237.819 48.2898ZM225.706 48.2898L219.65 48.2898L219.65 50.3274L225.706 50.3274L225.706 48.2898ZM213.593 48.2898L207.537 48.2898L207.537 50.3274L213.593 50.3274L213.593 48.2898ZM201.481 48.2898L195.424 48.2898L195.424 50.3274L201.481 50.3274L201.481 48.2898ZM189.368 48.2898L183.311 48.2898L183.311 50.3274L189.368 50.3274L189.368 48.2898ZM177.255 48.2898L171.199 48.2898L171.199 50.3274L177.255 50.3274L177.255 48.2898ZM165.142 48.2898L159.086 48.2898L159.086 50.3274L165.142 50.3274L165.142 48.2898ZM153.03 48.2898L146.973 48.2898L146.973 50.3274L153.03 50.3274L153.03 48.2898ZM140.917 48.2898L134.861 48.2898L134.861 50.3274L140.917 50.3274L140.917 48.2898ZM128.804 48.2898L122.748 48.2898L122.748 50.3274L128.804 50.3274L128.804 48.2898ZM116.691 48.2898L110.635 48.2898L110.635 50.3274L116.691 50.3274L116.691 48.2898ZM104.579 48.2898L98.5223 48.2898L98.5223 50.3274L104.579 50.3274L104.579 48.2898ZM92.4659 48.2898L86.4096 48.2898L86.4096 50.3274L92.4659 50.3274L92.4659 48.2898ZM80.3532 48.2898L74.2968 48.2898L74.2968 50.3274L80.3532 50.3274L80.3532 48.2898ZM68.2405 48.2898L62.1841 48.2898L62.1841 50.3274L68.2405 50.3274L68.2405 48.2898ZM56.1277 48.2898L50.0714 48.2898L50.0714 50.3274L56.1277 50.3274L56.1277 48.2898ZM44.015 48.2898L37.9586 48.2898L37.9586 50.3274L44.015 50.3274L44.015 48.2898ZM31.9023 48.2898L25.8459 48.2898L25.8459 50.3274L31.9023 50.3274L31.9023 48.2898ZM19.7896 48.2898L16.7612 48.2898L16.7612 50.3274L19.7896 50.3274L19.7896 48.2898Z" fill="#D9D9D9" fill-opacity="0.23"/>
<g filter="url(#filter1_d_114_110)">
<rect x="16.5584" y="12.0188" width="328.267" height="328.267" stroke="white" stroke-width="2.03766"/>
<g filter="url(#filter2_d_114_110)">
<circle cx="15.4374" cy="49.207" r="7.43745" fill="#CE7A7A"/>
</g>
</g>
<rect x="15.5381" y="348.029" width="2.03766" height="11.2071" fill="white"/>
<rect x="69.9434" y="348.029" width="2.03766" height="11.2071" fill="white"/>
<rect x="124.756" y="348.029" width="2.03766" height="11.2071" fill="white"/>
<rect x="179.773" y="348.029" width="1.83389" height="11.2071" fill="white"/>
<rect x="234.179" y="348.029" width="2.03766" height="11.2071" fill="white"/>
<rect x="288.991" y="348.029" width="2.03766" height="11.2071" fill="white"/>
<rect x="343.804" y="348.029" width="2.03766" height="11.2071" fill="white"/>
<rect x="362.347" y="47.8809" width="2.03766" height="11.2071" transform="rotate(90 362.347 47.8809)" fill="white"/>
<rect x="362.347" y="163.824" width="2.03766" height="11.2071" transform="rotate(90 362.347 163.824)" fill="white"/>
<path d="M137.979 277.023C137.685 277.023 137.459 276.944 137.3 276.785C137.141 276.626 137.062 276.393 137.062 276.088V265.451C137.062 265.146 137.141 264.913 137.3 264.754C137.459 264.595 137.679 264.516 137.96 264.516C138.254 264.516 138.48 264.595 138.639 264.754C138.798 264.913 138.877 265.146 138.877 265.451V267.047L138.676 266.662C138.871 266.001 139.256 265.476 139.831 265.084C140.406 264.681 141.084 264.479 141.867 264.479C142.661 264.479 143.352 264.669 143.939 265.048C144.538 265.427 144.996 265.959 145.314 266.643C145.644 267.328 145.809 268.153 145.809 269.119C145.809 270.06 145.644 270.886 145.314 271.595C144.996 272.292 144.544 272.83 143.957 273.209C143.37 273.575 142.674 273.759 141.867 273.759C141.096 273.759 140.424 273.563 139.849 273.172C139.275 272.781 138.89 272.261 138.694 271.613H138.914V276.088C138.914 276.393 138.828 276.626 138.657 276.785C138.498 276.944 138.272 277.023 137.979 277.023ZM141.408 272.328C141.922 272.328 142.368 272.206 142.747 271.962C143.126 271.717 143.419 271.356 143.627 270.88C143.835 270.403 143.939 269.816 143.939 269.119C143.939 268.068 143.707 267.273 143.242 266.735C142.79 266.197 142.178 265.928 141.408 265.928C140.907 265.928 140.461 266.05 140.069 266.295C139.69 266.527 139.397 266.882 139.189 267.359C138.981 267.835 138.877 268.422 138.877 269.119C138.877 270.158 139.11 270.953 139.574 271.503C140.039 272.053 140.65 272.328 141.408 272.328ZM148.832 273.722C148.526 273.722 148.294 273.643 148.135 273.484C147.976 273.313 147.897 273.08 147.897 272.787V265.451C147.897 265.146 147.976 264.913 148.135 264.754C148.294 264.595 148.514 264.516 148.795 264.516C149.089 264.516 149.309 264.595 149.456 264.754C149.615 264.913 149.694 265.146 149.694 265.451V266.79H149.511C149.706 266.056 150.067 265.5 150.593 265.121C151.118 264.742 151.791 264.522 152.61 264.461C152.83 264.449 153.001 264.504 153.123 264.626C153.258 264.748 153.331 264.938 153.343 265.195C153.368 265.451 153.313 265.659 153.178 265.818C153.044 265.965 152.836 266.05 152.555 266.075L152.206 266.111C151.412 266.185 150.807 266.435 150.391 266.863C149.975 267.291 149.767 267.878 149.767 268.624V272.787C149.767 273.08 149.688 273.313 149.529 273.484C149.382 273.643 149.15 273.722 148.832 273.722ZM158.501 273.759C157.596 273.759 156.813 273.569 156.153 273.19C155.505 272.811 154.998 272.273 154.631 271.576C154.264 270.88 154.081 270.06 154.081 269.119C154.081 268.398 154.185 267.756 154.393 267.193C154.601 266.631 154.894 266.148 155.273 265.745C155.664 265.329 156.129 265.017 156.667 264.809C157.217 264.589 157.828 264.479 158.501 264.479C159.393 264.479 160.163 264.669 160.811 265.048C161.471 265.427 161.985 265.965 162.352 266.662C162.719 267.346 162.902 268.165 162.902 269.119C162.902 269.828 162.798 270.47 162.59 271.045C162.382 271.619 162.083 272.108 161.692 272.512C161.313 272.915 160.848 273.227 160.298 273.447C159.76 273.655 159.161 273.759 158.501 273.759ZM158.501 272.328C159.002 272.328 159.442 272.206 159.821 271.962C160.2 271.717 160.493 271.356 160.701 270.88C160.921 270.403 161.031 269.816 161.031 269.119C161.031 268.068 160.799 267.273 160.334 266.735C159.87 266.197 159.259 265.928 158.501 265.928C157.987 265.928 157.541 266.05 157.162 266.295C156.783 266.527 156.483 266.882 156.263 267.359C156.055 267.835 155.951 268.422 155.951 269.119C155.951 270.158 156.184 270.953 156.648 271.503C157.113 272.053 157.73 272.328 158.501 272.328ZM166.36 273.722C166.066 273.722 165.834 273.643 165.663 273.484C165.504 273.313 165.424 273.08 165.424 272.787V266.075H164.397C164.165 266.075 163.982 266.014 163.847 265.891C163.713 265.757 163.646 265.58 163.646 265.36C163.646 265.127 163.713 264.95 163.847 264.828C163.982 264.705 164.165 264.644 164.397 264.644H165.956L165.424 265.14V264.479C165.424 263.293 165.718 262.389 166.305 261.765C166.892 261.142 167.753 260.775 168.89 260.665L169.441 260.628C169.661 260.604 169.838 260.634 169.972 260.72C170.107 260.793 170.199 260.903 170.248 261.05C170.296 261.184 170.303 261.325 170.266 261.472C170.229 261.618 170.162 261.747 170.064 261.857C169.979 261.955 169.869 262.01 169.734 262.022L169.239 262.059C168.554 262.107 168.053 262.309 167.735 262.664C167.429 263.018 167.277 263.538 167.277 264.223V264.938L167.02 264.644H172.045C172.35 264.644 172.583 264.736 172.742 264.919C172.901 265.091 172.98 265.329 172.98 265.635V272.695C172.98 273.013 172.901 273.264 172.742 273.447C172.595 273.618 172.363 273.704 172.045 273.704C171.751 273.704 171.525 273.618 171.366 273.447C171.207 273.264 171.128 273.013 171.128 272.695V266.075H167.277V272.787C167.277 273.41 166.971 273.722 166.36 273.722ZM172.081 262.645C171.727 262.645 171.452 262.554 171.256 262.37C171.061 262.187 170.963 261.93 170.963 261.6C170.963 261.258 171.061 261.001 171.256 260.83C171.452 260.646 171.727 260.555 172.081 260.555C172.448 260.555 172.723 260.646 172.907 260.83C173.102 261.001 173.2 261.258 173.2 261.6C173.2 261.93 173.102 262.187 172.907 262.37C172.723 262.554 172.448 262.645 172.081 262.645ZM179.381 273.759C178.647 273.759 178.03 273.63 177.529 273.374C177.027 273.117 176.654 272.738 176.41 272.237C176.165 271.735 176.043 271.124 176.043 270.403V266.075H174.943C174.698 266.075 174.509 266.014 174.374 265.891C174.24 265.757 174.173 265.58 174.173 265.36C174.173 265.127 174.24 264.95 174.374 264.828C174.509 264.705 174.698 264.644 174.943 264.644H176.043V262.755C176.043 262.45 176.123 262.218 176.282 262.059C176.453 261.9 176.685 261.82 176.978 261.82C177.272 261.82 177.498 261.9 177.657 262.059C177.816 262.218 177.895 262.45 177.895 262.755V264.644H180.041C180.286 264.644 180.475 264.705 180.61 264.828C180.744 264.95 180.811 265.127 180.811 265.36C180.811 265.58 180.744 265.757 180.61 265.891C180.475 266.014 180.286 266.075 180.041 266.075H177.895V270.256C177.895 270.904 178.03 271.393 178.299 271.723C178.58 272.053 179.032 272.218 179.656 272.218C179.876 272.218 180.066 272.2 180.224 272.163C180.396 272.114 180.536 272.084 180.646 272.072C180.781 272.072 180.891 272.121 180.976 272.218C181.062 272.304 181.105 272.475 181.105 272.732C181.105 272.915 181.068 273.086 180.995 273.245C180.934 273.404 180.817 273.508 180.646 273.557C180.5 273.606 180.298 273.649 180.041 273.685C179.797 273.734 179.576 273.759 179.381 273.759ZM187.448 273.594C187.253 273.594 187.094 273.551 186.971 273.465C186.849 273.368 186.764 273.245 186.715 273.099C186.678 272.94 186.678 272.775 186.715 272.603C186.764 272.42 186.861 272.249 187.008 272.09L191.996 265.616V266.075H187.338C187.106 266.075 186.929 266.014 186.806 265.891C186.684 265.757 186.623 265.58 186.623 265.36C186.623 265.127 186.684 264.95 186.806 264.828C186.929 264.705 187.106 264.644 187.338 264.644H192.877C193.109 264.644 193.292 264.693 193.427 264.791C193.573 264.889 193.665 265.011 193.702 265.158C193.751 265.305 193.757 265.463 193.72 265.635C193.684 265.806 193.592 265.971 193.445 266.13L188.384 272.677V272.182H193.28C193.769 272.182 194.014 272.414 194.014 272.879C194.014 273.099 193.946 273.276 193.812 273.41C193.69 273.533 193.512 273.594 193.28 273.594H187.448ZM199.387 273.759C198.482 273.759 197.7 273.569 197.04 273.19C196.392 272.811 195.884 272.273 195.518 271.576C195.151 270.88 194.967 270.06 194.967 269.119C194.967 268.398 195.071 267.756 195.279 267.193C195.487 266.631 195.78 266.148 196.159 265.745C196.551 265.329 197.015 265.017 197.553 264.809C198.103 264.589 198.715 264.479 199.387 264.479C200.28 264.479 201.05 264.669 201.698 265.048C202.358 265.427 202.871 265.965 203.238 266.662C203.605 267.346 203.788 268.165 203.788 269.119C203.788 269.828 203.684 270.47 203.477 271.045C203.269 271.619 202.969 272.108 202.578 272.512C202.199 272.915 201.734 273.227 201.184 273.447C200.646 273.655 200.047 273.759 199.387 273.759ZM199.387 272.328C199.888 272.328 200.328 272.206 200.707 271.962C201.086 271.717 201.38 271.356 201.588 270.88C201.808 270.403 201.918 269.816 201.918 269.119C201.918 268.068 201.686 267.273 201.221 266.735C200.756 266.197 200.145 265.928 199.387 265.928C198.874 265.928 198.427 266.05 198.048 266.295C197.669 266.527 197.37 266.882 197.15 267.359C196.942 267.835 196.838 268.422 196.838 269.119C196.838 270.158 197.07 270.953 197.535 271.503C197.999 272.053 198.617 272.328 199.387 272.328ZM206.786 273.722C206.492 273.722 206.266 273.643 206.107 273.484C205.948 273.313 205.869 273.08 205.869 272.787V265.451C205.869 265.146 205.948 264.913 206.107 264.754C206.266 264.595 206.486 264.516 206.767 264.516C207.061 264.516 207.281 264.595 207.427 264.754C207.586 264.913 207.666 265.146 207.666 265.451V266.882L207.464 266.552C207.733 265.867 208.155 265.353 208.729 265.011C209.304 264.657 209.964 264.479 210.71 264.479C211.419 264.479 212.006 264.614 212.471 264.883C212.947 265.14 213.302 265.537 213.534 266.075C213.767 266.601 213.883 267.267 213.883 268.074V272.787C213.883 273.08 213.803 273.313 213.644 273.484C213.485 273.643 213.259 273.722 212.966 273.722C212.66 273.722 212.428 273.643 212.269 273.484C212.11 273.313 212.03 273.08 212.03 272.787V268.184C212.03 267.414 211.878 266.851 211.572 266.497C211.279 266.142 210.814 265.965 210.178 265.965C209.432 265.965 208.833 266.197 208.381 266.662C207.941 267.126 207.721 267.75 207.721 268.532V272.787C207.721 273.41 207.409 273.722 206.786 273.722ZM220.635 273.759C219.656 273.759 218.813 273.575 218.104 273.209C217.407 272.83 216.863 272.298 216.472 271.613C216.093 270.916 215.903 270.091 215.903 269.137C215.903 268.208 216.093 267.395 216.472 266.698C216.851 266.001 217.37 265.457 218.03 265.066C218.691 264.675 219.443 264.479 220.286 264.479C220.91 264.479 221.466 264.583 221.955 264.791C222.444 264.987 222.86 265.28 223.202 265.671C223.557 266.05 223.819 266.515 223.991 267.065C224.174 267.615 224.266 268.233 224.266 268.917C224.266 269.125 224.205 269.284 224.082 269.394C223.96 269.492 223.777 269.541 223.532 269.541H217.37V268.404H223.019L222.707 268.661C222.707 268.049 222.615 267.53 222.432 267.102C222.261 266.674 221.998 266.35 221.643 266.13C221.301 265.898 220.873 265.781 220.359 265.781C219.785 265.781 219.296 265.916 218.892 266.185C218.501 266.454 218.202 266.827 217.994 267.304C217.786 267.78 217.682 268.337 217.682 268.972V269.082C217.682 270.158 217.933 270.971 218.434 271.521C218.947 272.059 219.687 272.328 220.653 272.328C221.02 272.328 221.405 272.279 221.808 272.182C222.224 272.084 222.615 271.919 222.982 271.687C223.19 271.564 223.373 271.509 223.532 271.521C223.703 271.534 223.838 271.589 223.936 271.687C224.046 271.784 224.113 271.907 224.137 272.053C224.162 272.2 224.137 272.353 224.064 272.512C223.991 272.658 223.862 272.793 223.679 272.915C223.263 273.196 222.78 273.41 222.23 273.557C221.68 273.692 221.148 273.759 220.635 273.759Z" fill="white"/>
<path fill-rule="evenodd" clip-rule="evenodd" d="M354.628 150.668C356.419 148.313 357.494 145.3 357.494 142.017C357.494 134.479 351.83 128.369 344.843 128.369C337.855 128.369 332.191 134.479 332.191 142.017C332.191 145.3 333.266 148.312 335.056 150.667L343.123 163.36C343.923 164.619 345.762 164.619 346.562 163.36L354.628 150.668Z" fill="#5487EA"/>
<path d="M340.889 149.797H338.687L343.635 136.046H346.032L350.981 149.797H348.778L344.891 138.544H344.783L340.889 149.797ZM341.258 144.412H348.402V146.158H341.258V144.412Z" fill="white"/>
<path d="M344.823 215.581H345.842V213.544H344.823V215.581ZM341.875 213.544C341.313 213.544 340.857 214 340.857 214.562C340.857 215.125 341.313 215.581 341.875 215.581V213.544ZM335.981 215.581C336.543 215.581 337 215.125 337 214.562C337 214 336.543 213.544 335.981 213.544V215.581ZM330.086 213.544C329.523 213.544 329.067 214 329.067 214.562C329.067 215.125 329.523 215.581 330.086 215.581V213.544ZM324.191 215.581C324.754 215.581 325.21 215.125 325.21 214.562C325.21 214 324.754 213.544 324.191 213.544V215.581ZM318.297 213.544C317.734 213.544 317.278 214 317.278 214.562C317.278 215.125 317.734 215.581 318.297 215.581V213.544ZM312.402 215.581C312.965 215.581 313.421 215.125 313.421 214.562C313.421 214 312.965 213.544 312.402 213.544V215.581ZM306.508 213.544C305.945 213.544 305.489 214 305.489 214.562C305.489 215.125 305.945 215.581 306.508 215.581V213.544ZM300.613 215.581C301.176 215.581 301.632 215.125 301.632 214.562C301.632 214 301.176 213.544 300.613 213.544V215.581ZM294.718 213.544C294.156 213.544 293.699 214 293.699 214.562C293.699 215.125 294.156 215.581 294.718 215.581V213.544ZM288.824 215.581C289.386 215.581 289.842 215.125 289.842 214.562C289.842 214 289.386 213.544 288.824 213.544V215.581ZM282.929 213.544C282.366 213.544 281.91 214 281.91 214.562C281.91 215.125 282.366 215.581 282.929 215.581V213.544ZM277.034 215.581C277.597 215.581 278.053 215.125 278.053 214.562C278.053 214 277.597 213.544 277.034 213.544V215.581ZM271.14 213.544C270.577 213.544 270.121 214 270.121 214.562C270.121 215.125 270.577 215.581 271.14 215.581V213.544ZM265.245 215.581C265.808 215.581 266.264 215.125 266.264 214.562C266.264 214 265.808 213.544 265.245 213.544V215.581ZM259.35 213.544C258.788 213.544 258.331 214 258.331 214.562C258.331 215.125 258.788 215.581 259.35 215.581V213.544ZM253.456 215.581C254.018 215.581 254.474 215.125 254.474 214.562C254.474 214 254.018 213.544 253.456 213.544V215.581ZM247.561 213.544C246.998 213.544 246.542 214 246.542 214.562C246.542 215.125 246.998 215.581 247.561 215.581V213.544ZM241.666 215.581C242.229 215.581 242.685 215.125 242.685 214.562C242.685 214 242.229 213.544 241.666 213.544V215.581ZM235.772 213.544C235.209 213.544 234.753 214 234.753 214.562C234.753 215.125 235.209 215.581 235.772 215.581V213.544ZM229.877 215.581C230.44 215.581 230.896 215.125 230.896 214.562C230.896 214 230.44 213.544 229.877 213.544V215.581ZM223.982 213.544C223.42 213.544 222.964 214 222.964 214.562C222.964 215.125 223.42 215.581 223.982 215.581V213.544ZM218.088 215.581C218.65 215.581 219.107 215.125 219.107 214.562C219.107 214 218.65 213.544 218.088 213.544V215.581ZM212.193 213.544C211.63 213.544 211.174 214 211.174 214.562C211.174 215.125 211.63 215.581 212.193 215.581V213.544ZM206.298 215.581C206.861 215.581 207.317 215.125 207.317 214.562C207.317 214 206.861 213.544 206.298 213.544V215.581ZM200.404 213.544C199.841 213.544 199.385 214 199.385 214.562C199.385 215.125 199.841 215.581 200.404 215.581V213.544ZM194.509 215.581C195.072 215.581 195.528 215.125 195.528 214.562C195.528 214 195.072 213.544 194.509 213.544V215.581ZM188.614 213.544C188.052 213.544 187.596 214 187.596 214.562C187.596 215.125 188.052 215.581 188.614 215.581V213.544ZM182.72 215.581C183.283 215.581 183.739 215.125 183.739 214.562C183.739 214 183.283 213.544 182.72 213.544V215.581ZM344.823 213.544H341.875V215.581H344.823V213.544ZM335.981 213.544H330.086V215.581H335.981V213.544ZM324.191 213.544H318.297V215.581H324.191V213.544ZM312.402 213.544H306.508V215.581H312.402V213.544ZM300.613 213.544H294.718V215.581H300.613V213.544ZM288.824 213.544H282.929V215.581H288.824V213.544ZM277.034 213.544H271.14V215.581H277.034V213.544ZM265.245 213.544H259.35V215.581H265.245V213.544ZM253.456 213.544H247.561V215.581H253.456V213.544ZM241.666 213.544H235.772V215.581H241.666V213.544ZM229.877 213.544H223.982V215.581H229.877V213.544ZM218.088 213.544H212.193V215.581H218.088V213.544ZM206.298 213.544H200.404V215.581H206.298V213.544ZM194.509 213.544H188.614V215.581H194.509V213.544ZM182.72 213.544H179.773V215.581H182.72V213.544Z" fill="#D9D9D9" fill-opacity="0.23"/>
<g filter="url(#filter3_d_114_110)">
<circle cx="180.282" cy="213.033" r="7.43745" fill="#64CE9B"/>
</g>
<path d="M375.39 218.946C374.412 218.946 373.569 218.763 372.86 218.396C372.163 218.017 371.619 217.485 371.227 216.801C370.848 216.104 370.659 215.279 370.659 214.325C370.659 213.396 370.848 212.583 371.227 211.886C371.606 211.189 372.126 210.645 372.786 210.254C373.446 209.862 374.198 209.667 375.042 209.667C375.665 209.667 376.222 209.771 376.711 209.979C377.2 210.174 377.615 210.468 377.958 210.859C378.312 211.238 378.575 211.702 378.746 212.253C378.93 212.803 379.021 213.42 379.021 214.105C379.021 214.313 378.96 214.472 378.838 214.582C378.716 214.679 378.532 214.728 378.288 214.728H372.126V213.591H377.774L377.463 213.848C377.463 213.237 377.371 212.717 377.188 212.289C377.016 211.861 376.754 211.537 376.399 211.317C376.057 211.085 375.629 210.969 375.115 210.969C374.541 210.969 374.052 211.103 373.648 211.372C373.257 211.641 372.957 212.014 372.75 212.491C372.542 212.968 372.438 213.524 372.438 214.16V214.27C372.438 215.346 372.688 216.159 373.19 216.709C373.703 217.247 374.443 217.516 375.409 217.516C375.775 217.516 376.161 217.467 376.564 217.369C376.98 217.271 377.371 217.106 377.738 216.874C377.946 216.752 378.129 216.697 378.288 216.709C378.459 216.721 378.594 216.776 378.691 216.874C378.801 216.972 378.869 217.094 378.893 217.241C378.918 217.387 378.893 217.54 378.82 217.699C378.746 217.846 378.618 217.98 378.435 218.103C378.019 218.384 377.536 218.598 376.986 218.745C376.436 218.879 375.904 218.946 375.39 218.946ZM381.958 218.91C381.664 218.91 381.438 218.83 381.279 218.671C381.12 218.5 381.041 218.268 381.041 217.974V210.639C381.041 210.333 381.12 210.101 381.279 209.942C381.438 209.783 381.658 209.703 381.939 209.703C382.233 209.703 382.453 209.783 382.6 209.942C382.758 210.101 382.838 210.333 382.838 210.639V212.069L382.636 211.739C382.905 211.054 383.327 210.541 383.902 210.199C384.476 209.844 385.136 209.667 385.882 209.667C386.591 209.667 387.178 209.801 387.643 210.07C388.12 210.327 388.474 210.724 388.706 211.262C388.939 211.788 389.055 212.454 389.055 213.261V217.974C389.055 218.268 388.975 218.5 388.816 218.671C388.657 218.83 388.431 218.91 388.138 218.91C387.832 218.91 387.6 218.83 387.441 218.671C387.282 218.5 387.203 218.268 387.203 217.974V213.371C387.203 212.601 387.05 212.039 386.744 211.684C386.451 211.33 385.986 211.152 385.35 211.152C384.605 211.152 384.006 211.385 383.553 211.849C383.113 212.314 382.893 212.937 382.893 213.72V217.974C382.893 218.598 382.581 218.91 381.958 218.91ZM395.018 218.946C394.236 218.946 393.545 218.763 392.946 218.396C392.359 218.017 391.901 217.479 391.57 216.782C391.24 216.073 391.075 215.248 391.075 214.307C391.075 213.341 391.24 212.515 391.57 211.831C391.901 211.146 392.359 210.614 392.946 210.235C393.545 209.856 394.236 209.667 395.018 209.667C395.801 209.667 396.473 209.862 397.035 210.254C397.61 210.633 397.995 211.146 398.191 211.794H397.989V206.659C397.989 206.354 398.069 206.121 398.227 205.962C398.386 205.803 398.613 205.724 398.906 205.724C399.199 205.724 399.426 205.803 399.585 205.962C399.756 206.121 399.841 206.354 399.841 206.659V217.974C399.841 218.268 399.762 218.5 399.603 218.671C399.444 218.83 399.218 218.91 398.924 218.91C398.631 218.91 398.405 218.83 398.246 218.671C398.087 218.5 398.007 218.268 398.007 217.974V216.361L398.209 216.764C398.013 217.424 397.628 217.956 397.054 218.359C396.491 218.751 395.813 218.946 395.018 218.946ZM395.495 217.516C395.996 217.516 396.436 217.394 396.815 217.149C397.194 216.905 397.488 216.544 397.696 216.067C397.916 215.59 398.026 215.003 398.026 214.307C398.026 213.255 397.793 212.46 397.329 211.922C396.864 211.385 396.253 211.116 395.495 211.116C394.981 211.116 394.535 211.238 394.156 211.482C393.777 211.715 393.478 212.069 393.258 212.546C393.05 213.023 392.946 213.61 392.946 214.307C392.946 215.346 393.178 216.14 393.643 216.691C394.107 217.241 394.725 217.516 395.495 217.516ZM408.195 222.211C407.901 222.211 407.675 222.131 407.516 221.972C407.357 221.813 407.278 221.581 407.278 221.275V210.639C407.278 210.333 407.357 210.101 407.516 209.942C407.675 209.783 407.895 209.703 408.176 209.703C408.47 209.703 408.696 209.783 408.855 209.942C409.014 210.101 409.093 210.333 409.093 210.639V212.234L408.891 211.849C409.087 211.189 409.472 210.663 410.047 210.272C410.621 209.869 411.3 209.667 412.082 209.667C412.877 209.667 413.568 209.856 414.155 210.235C414.754 210.614 415.212 211.146 415.53 211.831C415.86 212.515 416.025 213.341 416.025 214.307C416.025 215.248 415.86 216.073 415.53 216.782C415.212 217.479 414.76 218.017 414.173 218.396C413.586 218.763 412.889 218.946 412.082 218.946C411.312 218.946 410.64 218.751 410.065 218.359C409.49 217.968 409.105 217.449 408.91 216.801H409.13V221.275C409.13 221.581 409.044 221.813 408.873 221.972C408.714 222.131 408.488 222.211 408.195 222.211ZM411.624 217.516C412.137 217.516 412.584 217.394 412.963 217.149C413.342 216.905 413.635 216.544 413.843 216.067C414.051 215.59 414.155 215.003 414.155 214.307C414.155 213.255 413.922 212.46 413.458 211.922C413.005 211.385 412.394 211.116 411.624 211.116C411.123 211.116 410.676 211.238 410.285 211.482C409.906 211.715 409.613 212.069 409.405 212.546C409.197 213.023 409.093 213.61 409.093 214.307C409.093 215.346 409.325 216.14 409.79 216.691C410.255 217.241 410.866 217.516 411.624 217.516ZM419.048 218.91C418.742 218.91 418.51 218.83 418.351 218.671C418.192 218.5 418.113 218.268 418.113 217.974V210.639C418.113 210.333 418.192 210.101 418.351 209.942C418.51 209.783 418.73 209.703 419.011 209.703C419.305 209.703 419.525 209.783 419.671 209.942C419.83 210.101 419.91 210.333 419.91 210.639V211.978H419.726C419.922 211.244 420.283 210.688 420.808 210.309C421.334 209.93 422.007 209.71 422.826 209.648C423.046 209.636 423.217 209.691 423.339 209.814C423.474 209.936 423.547 210.125 423.559 210.382C423.584 210.639 423.529 210.847 423.394 211.006C423.26 211.152 423.052 211.238 422.771 211.262L422.422 211.299C421.628 211.372 421.022 211.623 420.607 212.051C420.191 212.479 419.983 213.066 419.983 213.811V217.974C419.983 218.268 419.904 218.5 419.745 218.671C419.598 218.83 419.366 218.91 419.048 218.91ZM425.871 218.891C425.577 218.891 425.351 218.806 425.192 218.635C425.033 218.451 424.954 218.201 424.954 217.883V210.73C424.954 210.413 425.033 210.168 425.192 209.997C425.351 209.826 425.577 209.74 425.871 209.74C426.164 209.74 426.39 209.826 426.549 209.997C426.72 210.168 426.806 210.413 426.806 210.73V217.883C426.806 218.201 426.727 218.451 426.568 218.635C426.409 218.806 426.176 218.891 425.871 218.891ZM425.871 207.833C425.504 207.833 425.217 207.741 425.009 207.558C424.813 207.374 424.715 207.118 424.715 206.788C424.715 206.445 424.813 206.189 425.009 206.017C425.217 205.834 425.504 205.742 425.871 205.742C426.238 205.742 426.519 205.834 426.714 206.017C426.922 206.189 427.026 206.445 427.026 206.788C427.026 207.118 426.922 207.374 426.714 207.558C426.519 207.741 426.238 207.833 425.871 207.833ZM433.356 218.946C432.439 218.946 431.644 218.757 430.972 218.378C430.312 217.987 429.798 217.443 429.432 216.746C429.065 216.037 428.881 215.205 428.881 214.252C428.881 213.542 428.985 212.907 429.193 212.344C429.401 211.77 429.694 211.287 430.073 210.896C430.465 210.504 430.935 210.205 431.485 209.997C432.048 209.777 432.671 209.667 433.356 209.667C433.784 209.667 434.23 209.734 434.695 209.869C435.172 209.991 435.612 210.199 436.015 210.492C436.174 210.59 436.272 210.712 436.309 210.859C436.358 210.993 436.364 211.134 436.327 211.281C436.303 211.427 436.235 211.556 436.125 211.666C436.027 211.764 435.905 211.825 435.758 211.849C435.612 211.861 435.453 211.819 435.282 211.721C434.988 211.513 434.689 211.366 434.383 211.281C434.077 211.183 433.784 211.134 433.503 211.134C433.063 211.134 432.671 211.207 432.329 211.354C431.999 211.488 431.718 211.69 431.485 211.959C431.253 212.216 431.076 212.54 430.954 212.931C430.844 213.322 430.789 213.769 430.789 214.27C430.789 215.272 431.021 216.061 431.485 216.636C431.962 217.198 432.635 217.479 433.503 217.479C433.784 217.479 434.077 217.436 434.383 217.351C434.689 217.265 434.988 217.119 435.282 216.911C435.453 216.813 435.612 216.776 435.758 216.801C435.905 216.825 436.021 216.892 436.107 217.002C436.205 217.1 436.266 217.222 436.29 217.369C436.327 217.504 436.321 217.644 436.272 217.791C436.223 217.938 436.119 218.06 435.96 218.158C435.569 218.439 435.141 218.641 434.676 218.763C434.224 218.885 433.784 218.946 433.356 218.946ZM441.994 218.946C441.016 218.946 440.173 218.763 439.463 218.396C438.767 218.017 438.223 217.485 437.831 216.801C437.452 216.104 437.263 215.279 437.263 214.325C437.263 213.396 437.452 212.583 437.831 211.886C438.21 211.189 438.73 210.645 439.39 210.254C440.05 209.862 440.802 209.667 441.646 209.667C442.269 209.667 442.826 209.771 443.315 209.979C443.804 210.174 444.219 210.468 444.562 210.859C444.916 211.238 445.179 211.702 445.35 212.253C445.534 212.803 445.625 213.42 445.625 214.105C445.625 214.313 445.564 214.472 445.442 214.582C445.32 214.679 445.136 214.728 444.892 214.728H438.73V213.591H444.378L444.067 213.848C444.067 213.237 443.975 212.717 443.791 212.289C443.62 211.861 443.357 211.537 443.003 211.317C442.661 211.085 442.233 210.969 441.719 210.969C441.145 210.969 440.656 211.103 440.252 211.372C439.861 211.641 439.561 212.014 439.353 212.491C439.146 212.968 439.042 213.524 439.042 214.16V214.27C439.042 215.346 439.292 216.159 439.794 216.709C440.307 217.247 441.047 217.516 442.013 217.516C442.379 217.516 442.765 217.467 443.168 217.369C443.584 217.271 443.975 217.106 444.342 216.874C444.549 216.752 444.733 216.697 444.892 216.709C445.063 216.721 445.197 216.776 445.295 216.874C445.405 216.972 445.473 217.094 445.497 217.241C445.521 217.387 445.497 217.54 445.424 217.699C445.35 217.846 445.222 217.98 445.039 218.103C444.623 218.384 444.14 218.598 443.59 218.745C443.04 218.879 442.508 218.946 441.994 218.946Z" fill="white"/>
<rect x="362.35" y="213.34" width="2.03766" height="11.2071" transform="rotate(90 362.35 213.34)" fill="white"/>
<defs>
<filter id="filter0_d_114_110" x="9.13147" y="52.8093" width="342.39" height="265.932" filterUnits="userSpaceOnUse" color-interpolation-filters="sRGB">
<feFlood flood-opacity="0" result="BackgroundImageFix"/>
<feColorMatrix in="SourceAlpha" type="matrix" values="0 0 0 0 0 0 0 0 0 0 0 0 0 0 0 0 0 0 127 0" result="hardAlpha"/>
<feOffset dy="4.68661"/>
<feGaussianBlur stdDeviation="2.85272"/>
<feComposite in2="hardAlpha" operator="out"/>
<feColorMatrix type="matrix" values="0 0 0 0 0 0 0 0 0 0 0 0 0 0 0 0 0 0 0.3 0"/>
<feBlend mode="normal" in2="BackgroundImageFix" result="effect1_dropShadow_114_110"/>
<feBlend mode="normal" in="SourceGraphic" in2="effect1_dropShadow_114_110" result="shape"/>
</filter>
<filter id="filter1_d_114_110" x="0.868201" y="0.200418" width="352.107" height="344.568" filterUnits="userSpaceOnUse" color-interpolation-filters="sRGB">
<feFlood flood-opacity="0" result="BackgroundImageFix"/>
<feColorMatrix in="SourceAlpha" type="matrix" values="0 0 0 0 0 0 0 0 0 0 0 0 0 0 0 0 0 0 127 0" result="hardAlpha"/>
<feOffset dy="-3.66778"/>
<feGaussianBlur stdDeviation="3.5659"/>
<feComposite in2="hardAlpha" operator="out"/>
<feColorMatrix type="matrix" values="0 0 0 0 0 0 0 0 0 0 0 0 0 0 0 0 0 0 0.27 0"/>
<feBlend mode="normal" in2="BackgroundImageFix" result="effect1_dropShadow_114_110"/>
<feBlend mode="normal" in="SourceGraphic" in2="effect1_dropShadow_114_110" result="shape"/>
</filter>
<filter id="filter2_d_114_110" x="2.0908" y="38.1017" width="26.6934" height="26.6934" filterUnits="userSpaceOnUse" color-interpolation-filters="sRGB">
<feFlood flood-opacity="0" result="BackgroundImageFix"/>
<feColorMatrix in="SourceAlpha" type="matrix" values="0 0 0 0 0 0 0 0 0 0 0 0 0 0 0 0 0 0 127 0" result="hardAlpha"/>
<feMorphology radius="1.63013" operator="dilate" in="SourceAlpha" result="effect1_dropShadow_114_110"/>
<feOffset dy="2.24142"/>
<feGaussianBlur stdDeviation="2.13954"/>
<feComposite in2="hardAlpha" operator="out"/>
<feColorMatrix type="matrix" values="0 0 0 0 0 0 0 0 0 0 0 0 0 0 0 0 0 0 0.39 0"/>
<feBlend mode="normal" in2="BackgroundImageFix" result="effect1_dropShadow_114_110"/>
<feBlend mode="normal" in="SourceGraphic" in2="effect1_dropShadow_114_110" result="shape"/>
</filter>
<filter id="filter3_d_114_110" x="166.935" y="201.928" width="26.6934" height="26.6934" filterUnits="userSpaceOnUse" color-interpolation-filters="sRGB">
<feFlood flood-opacity="0" result="BackgroundImageFix"/>
<feColorMatrix in="SourceAlpha" type="matrix" values="0 0 0 0 0 0 0 0 0 0 0 0 0 0 0 0 0 0 127 0" result="hardAlpha"/>
<feMorphology radius="1.63013" operator="dilate" in="SourceAlpha" result="effect1_dropShadow_114_110"/>
<feOffset dy="2.24142"/>
<feGaussianBlur stdDeviation="2.13954"/>
<feComposite in2="hardAlpha" operator="out"/>
<feColorMatrix type="matrix" values="0 0 0 0 0 0 0 0 0 0 0 0 0 0 0 0 0 0 0.39 0"/>
<feBlend mode="normal" in2="BackgroundImageFix" result="effect1_dropShadow_114_110"/>
<feBlend mode="normal" in="SourceGraphic" in2="effect1_dropShadow_114_110" result="shape"/>
</filter>
<linearGradient id="paint0_linear_114_110" x1="457.505" y1="514.3" x2="457.505" y2="339.266" gradientUnits="userSpaceOnUse">
<stop stop-color="#7022D5"/>
<stop offset="1" stop-color="#0B0F73"/>
</linearGradient>
</defs>
</svg>
