<svg width="408" height="126" viewBox="0 0 408 126" fill="none" xmlns="http://www.w3.org/2000/svg">
<rect x="407.735" y="93.7324" width="407.735" height="25.2669" rx="12.6335" transform="rotate(-180 407.735 93.7324)" fill="url(#paint0_linear_114_98)"/>
<path d="M301.167 68.4648L394.899 68.4649C401.876 68.4649 407.532 74.1211 407.532 81.0983C407.532 88.0756 401.876 93.7318 394.899 93.7318L301.167 93.7318L301.167 68.4648Z" fill="url(#paint1_linear_114_98)"/>
<path d="M140.526 121.105H136.006V107.768H140.617C141.941 107.768 143.078 108.035 144.029 108.569C144.984 109.099 145.718 109.861 146.23 110.855C146.743 111.849 146.999 113.039 146.999 114.424C146.999 115.813 146.741 117.007 146.224 118.006C145.712 119.004 144.971 119.77 144.003 120.304C143.039 120.838 141.88 121.105 140.526 121.105ZM138.422 119.015H140.408C141.337 119.015 142.112 118.846 142.733 118.507C143.354 118.164 143.821 117.654 144.133 116.977C144.446 116.295 144.602 115.444 144.602 114.424C144.602 113.403 144.446 112.557 144.133 111.884C143.821 111.207 143.358 110.701 142.746 110.367C142.138 110.028 141.383 109.859 140.48 109.859H138.422V119.015ZM161.212 114.437C161.212 115.874 160.943 117.105 160.405 118.129C159.871 119.15 159.141 119.931 158.216 120.474C157.296 121.016 156.252 121.288 155.084 121.288C153.916 121.288 152.87 121.016 151.945 120.474C151.025 119.927 150.295 119.143 149.757 118.123C149.223 117.098 148.956 115.87 148.956 114.437C148.956 113 149.223 111.771 149.757 110.751C150.295 109.726 151.025 108.942 151.945 108.4C152.87 107.857 153.916 107.586 155.084 107.586C156.252 107.586 157.296 107.857 158.216 108.4C159.141 108.942 159.871 109.726 160.405 110.751C160.943 111.771 161.212 113 161.212 114.437ZM158.783 114.437C158.783 113.425 158.625 112.572 158.308 111.877C157.995 111.178 157.561 110.651 157.005 110.295C156.449 109.935 155.809 109.754 155.084 109.754C154.359 109.754 153.719 109.935 153.163 110.295C152.607 110.651 152.171 111.178 151.854 111.877C151.541 112.572 151.385 113.425 151.385 114.437C151.385 115.448 151.541 116.304 151.854 117.003C152.171 117.697 152.607 118.225 153.163 118.585C153.719 118.941 154.359 119.119 155.084 119.119C155.809 119.119 156.449 118.941 157.005 118.585C157.561 118.225 157.995 117.697 158.308 117.003C158.625 116.304 158.783 115.448 158.783 114.437ZM165.963 121.105L162.199 107.768H164.797L167.2 117.569H167.324L169.89 107.768H172.254L174.826 117.576H174.944L177.347 107.768H179.945L176.181 121.105H173.797L171.127 111.747H171.023L168.347 121.105H165.963ZM192.581 107.768V121.105H190.432L184.147 112.021H184.036V121.105H181.62V107.768H183.783L190.06 116.859H190.178V107.768H192.581Z" fill="white"/>
<path d="M134.068 87.4844V77.4813H136.425V87.4844H134.068ZM135.253 76.0616C134.88 76.0616 134.558 75.9379 134.289 75.6904C134.02 75.4386 133.885 75.1369 133.885 74.7852C133.885 74.4292 134.02 74.1274 134.289 73.88C134.558 73.6282 134.88 73.5023 135.253 73.5023C135.631 73.5023 135.952 73.6282 136.217 73.88C136.486 74.1274 136.621 74.4292 136.621 74.7852C136.621 75.1369 136.486 75.4386 136.217 75.6904C135.952 75.9379 135.631 76.0616 135.253 76.0616ZM141.207 81.6232V87.4844H138.849V77.4813H141.103V79.1811H141.22C141.45 78.621 141.817 78.176 142.321 77.846C142.829 77.5161 143.456 77.3511 144.203 77.3511C144.893 77.3511 145.494 77.4987 146.007 77.7939C146.523 78.0892 146.923 78.5168 147.205 79.0769C147.491 79.6369 147.633 80.3164 147.628 81.1152V87.4844H145.271V81.4799C145.271 80.8113 145.097 80.2882 144.75 79.9105C144.407 79.5327 143.931 79.3439 143.323 79.3439C142.911 79.3439 142.544 79.4351 142.223 79.6174C141.906 79.7954 141.656 80.0537 141.474 80.3924C141.296 80.731 141.207 81.1413 141.207 81.6232ZM154.574 91.2355V77.4813H156.892V79.1355H157.029C157.15 78.8924 157.322 78.634 157.543 78.3605C157.765 78.0826 158.064 77.846 158.442 77.6507C158.82 77.4509 159.302 77.3511 159.888 77.3511C160.661 77.3511 161.357 77.5486 161.978 77.9437C162.603 78.3345 163.098 78.9141 163.463 79.6825C163.832 80.4466 164.017 81.3844 164.017 82.4959C164.017 83.5943 163.836 84.5277 163.476 85.2962C163.116 86.0647 162.625 86.6508 162.004 87.0546C161.383 87.4583 160.68 87.6602 159.894 87.6602C159.321 87.6602 158.846 87.5647 158.468 87.3737C158.09 87.1826 157.786 86.9525 157.556 86.6833C157.331 86.4098 157.155 86.1515 157.029 85.9084H156.931V91.2355H154.574ZM156.886 82.4829C156.886 83.1298 156.977 83.6963 157.159 84.1826C157.346 84.6688 157.613 85.0487 157.96 85.3223C158.312 85.5914 158.737 85.726 159.237 85.726C159.758 85.726 160.194 85.5871 160.546 85.3092C160.897 85.027 161.162 84.6428 161.34 84.1565C161.522 83.6659 161.614 83.108 161.614 82.4829C161.614 81.862 161.525 81.3106 161.347 80.8287C161.169 80.3468 160.904 79.9691 160.552 79.6955C160.2 79.422 159.762 79.2853 159.237 79.2853C158.733 79.2853 158.305 79.4177 157.954 79.6825C157.602 79.9474 157.335 80.3186 157.153 80.7961C156.975 81.2737 156.886 81.836 156.886 82.4829ZM166.035 87.4844V77.4813H168.321V79.1485H168.426C168.608 78.5711 168.92 78.1261 169.363 77.8135C169.811 77.4965 170.321 77.3381 170.894 77.3381C171.024 77.3381 171.169 77.3446 171.33 77.3576C171.495 77.3663 171.632 77.3815 171.74 77.4032V79.5718C171.64 79.5371 171.482 79.5067 171.265 79.4806C171.052 79.4502 170.846 79.4351 170.646 79.4351C170.216 79.4351 169.83 79.5284 169.487 79.7151C169.148 79.8974 168.881 80.1514 168.686 80.477C168.491 80.8027 168.393 81.1782 168.393 81.6037V87.4844H166.035ZM177.258 87.6797C176.281 87.6797 175.435 87.4648 174.718 87.035C174.002 86.6052 173.446 86.0039 173.051 85.2311C172.66 84.4583 172.465 83.5552 172.465 82.5219C172.465 81.4886 172.66 80.5834 173.051 79.8063C173.446 79.0291 174.002 78.4256 174.718 77.9958C175.435 77.566 176.281 77.3511 177.258 77.3511C178.235 77.3511 179.081 77.566 179.798 77.9958C180.514 78.4256 181.068 79.0291 181.458 79.8063C181.854 80.5834 182.051 81.4886 182.051 82.5219C182.051 83.5552 181.854 84.4583 181.458 85.2311C181.068 86.0039 180.514 86.6052 179.798 87.035C179.081 87.4648 178.235 87.6797 177.258 87.6797ZM177.271 85.7912C177.801 85.7912 178.244 85.6457 178.6 85.3548C178.956 85.0596 179.22 84.6645 179.394 84.1696C179.572 83.6746 179.661 83.1232 179.661 82.5154C179.661 81.9032 179.572 81.3497 179.394 80.8548C179.22 80.3555 178.956 79.9582 178.6 79.663C178.244 79.3678 177.801 79.2201 177.271 79.2201C176.728 79.2201 176.277 79.3678 175.916 79.663C175.56 79.9582 175.293 80.3555 175.115 80.8548C174.942 81.3497 174.855 81.9032 174.855 82.5154C174.855 83.1232 174.942 83.6746 175.115 84.1696C175.293 84.6645 175.56 85.0596 175.916 85.3548C176.277 85.6457 176.728 85.7912 177.271 85.7912ZM189.119 77.4813V79.3048H183.205V77.4813H189.119ZM184.684 87.4844V76.537C184.684 75.8641 184.823 75.304 185.101 74.8568C185.383 74.4097 185.76 74.0753 186.234 73.8539C186.707 73.6325 187.232 73.5218 187.81 73.5218C188.218 73.5218 188.58 73.5544 188.897 73.6195C189.214 73.6846 189.449 73.7432 189.601 73.7953L189.132 75.6188C189.032 75.5884 188.906 75.558 188.754 75.5276C188.602 75.4929 188.433 75.4755 188.246 75.4755C187.808 75.4755 187.497 75.5819 187.315 75.7946C187.137 76.003 187.048 76.3026 187.048 76.6933V87.4844H184.684ZM190.965 87.4844V77.4813H193.322V87.4844H190.965ZM192.15 76.0616C191.777 76.0616 191.456 75.9379 191.186 75.6904C190.917 75.4386 190.783 75.1369 190.783 74.7852C190.783 74.4292 190.917 74.1274 191.186 73.88C191.456 73.6282 191.777 73.5023 192.15 73.5023C192.528 73.5023 192.849 73.6282 193.114 73.88C193.383 74.1274 193.518 74.4292 193.518 74.7852C193.518 75.1369 193.383 75.4386 193.114 75.6904C192.849 75.9379 192.528 76.0616 192.15 76.0616ZM200.742 77.4813V79.3048H194.991V77.4813H200.742ZM196.411 75.0848H198.768V84.4756C198.768 84.7926 198.816 85.0357 198.912 85.205C199.012 85.37 199.142 85.4829 199.302 85.5437C199.463 85.6045 199.641 85.6349 199.836 85.6349C199.984 85.6349 200.119 85.624 200.24 85.6023C200.366 85.5806 200.462 85.561 200.527 85.5437L200.924 87.3867C200.798 87.4301 200.618 87.4779 200.383 87.53C200.153 87.5821 199.871 87.6125 199.537 87.6211C198.946 87.6385 198.415 87.5495 197.941 87.3541C197.468 87.1544 197.093 86.8462 196.815 86.4294C196.541 86.0126 196.407 85.4916 196.411 84.8664V75.0848Z" fill="white"/>
<path fill-rule="evenodd" clip-rule="evenodd" d="M318.053 67.1802C321.142 63.1199 322.995 57.925 322.995 52.2631C322.995 39.2664 313.228 28.7305 301.18 28.7305C289.131 28.7305 279.364 39.2664 279.364 52.2631C279.364 57.9245 281.218 63.119 284.306 67.1791L301.18 93.7317L318.053 67.1802Z" fill="#5487EA"/>
<path d="M294.363 65.6406H290.565L299.098 41.9297H303.231L311.764 65.6406H307.966L301.263 46.2366H301.078L294.363 65.6406ZM295 56.3554H307.318V59.3656H295V56.3554Z" fill="white"/>
<path d="M274.462 21.7511V7.99696H276.781V9.65111H276.917C277.039 9.40798 277.211 9.14965 277.432 8.87613C277.653 8.59827 277.953 8.36165 278.331 8.16628C278.708 7.96657 279.19 7.86671 279.776 7.86671C280.549 7.86671 281.246 8.06425 281.867 8.45934C282.492 8.85008 282.987 9.42968 283.352 10.1981C283.721 10.9623 283.905 11.9001 283.905 13.0115C283.905 14.1099 283.725 15.0434 283.365 15.8118C283.004 16.5803 282.514 17.1664 281.893 17.5702C281.272 17.974 280.569 18.1758 279.783 18.1758C279.21 18.1758 278.734 18.0803 278.357 17.8893C277.979 17.6983 277.675 17.4682 277.445 17.199C277.219 16.9255 277.043 16.6671 276.917 16.424H276.82V21.7511H274.462ZM276.774 12.9985C276.774 13.6454 276.865 14.212 277.048 14.6982C277.234 15.1845 277.501 15.5644 277.849 15.8379C278.2 16.1071 278.626 16.2417 279.125 16.2417C279.646 16.2417 280.082 16.1027 280.434 15.8249C280.786 15.5427 281.051 15.1584 281.229 14.6722C281.411 14.1816 281.502 13.6237 281.502 12.9985C281.502 12.3776 281.413 11.8262 281.235 11.3443C281.057 10.8624 280.792 10.4847 280.441 10.2112C280.089 9.93765 279.65 9.80089 279.125 9.80089C278.622 9.80089 278.194 9.93331 277.842 10.1981C277.491 10.463 277.224 10.8342 277.041 11.3118C276.863 11.7893 276.774 12.3516 276.774 12.9985ZM285.924 18V7.99696H288.21V9.66413H288.314C288.497 9.0867 288.809 8.64168 289.252 8.32909C289.699 8.01215 290.209 7.85368 290.782 7.85368C290.913 7.85368 291.058 7.8602 291.219 7.87322C291.384 7.8819 291.52 7.8971 291.629 7.91881V10.0874C291.529 10.0527 291.371 10.0223 291.154 9.99626C290.941 9.96587 290.735 9.95068 290.535 9.95068C290.105 9.95068 289.719 10.044 289.376 10.2307C289.037 10.4131 288.77 10.667 288.575 10.9927C288.379 11.3183 288.282 11.6938 288.282 12.1193V18H285.924ZM293.195 18V7.99696H295.553V18H293.195ZM294.38 6.57725C294.007 6.57725 293.686 6.45352 293.417 6.20605C293.147 5.95423 293.013 5.65249 293.013 5.30082C293.013 4.94481 293.147 4.64307 293.417 4.3956C293.686 4.14379 294.007 4.01788 294.38 4.01788C294.758 4.01788 295.079 4.14379 295.344 4.3956C295.613 4.64307 295.748 4.94481 295.748 5.30082C295.748 5.65249 295.613 5.95423 295.344 6.20605C295.079 6.45352 294.758 6.57725 294.38 6.57725ZM302.34 18.1954C301.342 18.1954 300.484 17.9761 299.768 17.5376C299.056 17.0991 298.507 16.4935 298.12 15.7207C297.738 14.9435 297.547 14.0491 297.547 13.0376C297.547 12.0216 297.742 11.1251 298.133 10.3479C298.524 9.56644 299.075 8.95862 299.787 8.52446C300.504 8.08596 301.35 7.86671 302.327 7.86671C303.139 7.86671 303.858 8.01649 304.483 8.31606C305.112 8.61129 305.614 9.03026 305.987 9.57296C306.361 10.1113 306.573 10.7408 306.625 11.4616H304.372C304.281 10.9796 304.064 10.578 303.721 10.2568C303.382 9.93114 302.929 9.76833 302.36 9.76833C301.878 9.76833 301.455 9.89858 301.09 10.1591C300.725 10.4152 300.441 10.7843 300.237 11.2662C300.037 11.7481 299.937 12.3255 299.937 12.9985C299.937 13.6801 300.037 14.2662 300.237 14.7568C300.436 15.2431 300.716 15.6186 301.077 15.8835C301.442 16.144 301.869 16.2742 302.36 16.2742C302.707 16.2742 303.018 16.2091 303.291 16.0788C303.569 15.9443 303.801 15.7511 303.988 15.4992C304.175 15.2474 304.303 14.9413 304.372 14.581H306.625C306.569 15.2887 306.361 15.916 306 16.4631C305.64 17.0058 305.149 17.4313 304.528 17.7395C303.908 18.0434 303.178 18.1954 302.34 18.1954ZM312.99 18.1954C311.987 18.1954 311.121 17.987 310.391 17.5702C309.666 17.149 309.108 16.5542 308.717 15.7858C308.327 15.013 308.131 14.1034 308.131 13.0571C308.131 12.0281 308.327 11.1251 308.717 10.3479C309.113 9.56644 309.664 8.95862 310.372 8.52446C311.079 8.08596 311.911 7.86671 312.866 7.86671C313.482 7.86671 314.064 7.96657 314.611 8.16628C315.163 8.36165 315.649 8.66556 316.07 9.07801C316.495 9.49047 316.83 10.0158 317.073 10.654C317.316 11.2879 317.438 12.0433 317.438 12.9203V13.6432H309.238V12.0542H315.178C315.173 11.6027 315.076 11.2011 314.885 10.8494C314.694 10.4934 314.427 10.2133 314.084 10.0093C313.745 9.80523 313.35 9.7032 312.898 9.7032C312.417 9.7032 311.993 9.82043 311.629 10.0549C311.264 10.285 310.979 10.5889 310.775 10.9666C310.576 11.34 310.474 11.7503 310.469 12.1975V13.5846C310.469 14.1664 310.576 14.6657 310.788 15.0824C311.001 15.4949 311.299 15.8118 311.681 16.0333C312.063 16.2503 312.51 16.3589 313.022 16.3589C313.365 16.3589 313.676 16.3111 313.953 16.2156C314.231 16.1157 314.472 15.9703 314.676 15.7793C314.88 15.5882 315.035 15.3516 315.139 15.0694L317.34 15.3169C317.201 15.8987 316.936 16.4066 316.545 16.8408C316.159 17.2706 315.664 17.6049 315.061 17.8437C314.457 18.0781 313.767 18.1954 312.99 18.1954ZM329.38 4.66261V18H326.964V7.01358H326.885L323.766 9.00638V6.79216L327.081 4.66261H329.38Z" fill="white"/>
<defs>
<linearGradient id="paint0_linear_114_98" x1="407.735" y1="93.7324" x2="815.47" y2="93.7324" gradientUnits="userSpaceOnUse">
<stop stop-color="#3E6FCE"/>
<stop offset="1" stop-color="#7022D5"/>
</linearGradient>
<linearGradient id="paint1_linear_114_98" x1="302.496" y1="94.445" x2="404.82" y2="94.445" gradientUnits="userSpaceOnUse">
<stop stop-color="#A32222"/>
<stop offset="1" stop-color="#CE7A7A"/>
</linearGradient>
</defs>
</svg>
