<svg width="454" height="376" viewBox="0 0 454 376" fill="none" xmlns="http://www.w3.org/2000/svg">
<rect width="326.229" height="178.499" transform="matrix(-1 0 0 1 341.806 85.377)" fill="url(#paint0_linear_114_162)"/>
<path d="M341.806 215.38H342.824V213.342H341.806V215.38ZM338.833 213.342C338.27 213.342 337.814 213.799 337.814 214.361C337.814 214.924 338.27 215.38 338.833 215.38V213.342ZM332.887 215.38C333.45 215.38 333.906 214.924 333.906 214.361C333.906 213.799 333.45 213.342 332.887 213.342V215.38ZM326.942 213.342C326.379 213.342 325.923 213.799 325.923 214.361C325.923 214.924 326.379 215.38 326.942 215.38V213.342ZM320.996 215.38C321.559 215.38 322.015 214.924 322.015 214.361C322.015 213.799 321.559 213.342 320.996 213.342V215.38ZM315.051 213.342C314.488 213.342 314.032 213.799 314.032 214.361C314.032 214.924 314.488 215.38 315.051 215.38V213.342ZM309.105 215.38C309.668 215.38 310.124 214.924 310.124 214.361C310.124 213.799 309.668 213.342 309.105 213.342V215.38ZM303.159 213.342C302.597 213.342 302.14 213.799 302.14 214.361C302.14 214.924 302.597 215.38 303.159 215.38V213.342ZM297.214 215.38C297.776 215.38 298.233 214.924 298.233 214.361C298.233 213.799 297.776 213.342 297.214 213.342V215.38ZM291.268 213.342C290.705 213.342 290.249 213.799 290.249 214.361C290.249 214.924 290.705 215.38 291.268 215.38V213.342ZM285.323 215.38C285.885 215.38 286.341 214.924 286.341 214.361C286.341 213.799 285.885 213.342 285.323 213.342V215.38ZM279.377 213.342C278.814 213.342 278.358 213.799 278.358 214.361C278.358 214.924 278.814 215.38 279.377 215.38V213.342ZM273.431 215.38C273.994 215.38 274.45 214.924 274.45 214.361C274.45 213.799 273.994 213.342 273.431 213.342V215.38ZM267.486 213.342C266.923 213.342 266.467 213.799 266.467 214.361C266.467 214.924 266.923 215.38 267.486 215.38V213.342ZM261.54 215.38C262.103 215.38 262.559 214.924 262.559 214.361C262.559 213.799 262.103 213.342 261.54 213.342V215.38ZM255.595 213.342C255.032 213.342 254.576 213.799 254.576 214.361C254.576 214.924 255.032 215.38 255.595 215.38V213.342ZM249.649 215.38C250.212 215.38 250.668 214.924 250.668 214.361C250.668 213.799 250.212 213.342 249.649 213.342V215.38ZM243.703 213.342C243.141 213.342 242.685 213.799 242.685 214.361C242.685 214.924 243.141 215.38 243.703 215.38V213.342ZM237.758 215.38C238.32 215.38 238.777 214.924 238.777 214.361C238.777 213.799 238.32 213.342 237.758 213.342V215.38ZM231.812 213.342C231.25 213.342 230.793 213.799 230.793 214.361C230.793 214.924 231.25 215.38 231.812 215.38V213.342ZM225.867 215.38C226.429 215.38 226.885 214.924 226.885 214.361C226.885 213.799 226.429 213.342 225.867 213.342V215.38ZM219.921 213.342C219.358 213.342 218.902 213.799 218.902 214.361C218.902 214.924 219.358 215.38 219.921 215.38V213.342ZM213.975 215.38C214.538 215.38 214.994 214.924 214.994 214.361C214.994 213.799 214.538 213.342 213.975 213.342V215.38ZM208.03 213.342C207.467 213.342 207.011 213.799 207.011 214.361C207.011 214.924 207.467 215.38 208.03 215.38V213.342ZM202.084 215.38C202.647 215.38 203.103 214.924 203.103 214.361C203.103 213.799 202.647 213.342 202.084 213.342V215.38ZM196.139 213.342C195.576 213.342 195.12 213.799 195.12 214.361C195.12 214.924 195.576 215.38 196.139 215.38V213.342ZM190.193 215.38C190.756 215.38 191.212 214.924 191.212 214.361C191.212 213.799 190.756 213.342 190.193 213.342V215.38ZM184.247 213.342C183.685 213.342 183.229 213.799 183.229 214.361C183.229 214.924 183.685 215.38 184.247 215.38V213.342ZM178.302 215.38C178.865 215.38 179.321 214.924 179.321 214.361C179.321 213.799 178.865 213.342 178.302 213.342V215.38ZM341.806 213.342H338.833V215.38H341.806V213.342ZM332.887 213.342H326.942V215.38H332.887V213.342ZM320.996 213.342H315.051V215.38H320.996V213.342ZM309.105 213.342H303.159V215.38H309.105V213.342ZM297.214 213.342H291.268V215.38H297.214V213.342ZM285.323 213.342H279.377V215.38H285.323V213.342ZM273.431 213.342H267.486V215.38H273.431V213.342ZM261.54 213.342H255.595V215.38H261.54V213.342ZM249.649 213.342H243.703V215.38H249.649V213.342ZM237.758 213.342H231.812V215.38H237.758V213.342ZM225.867 213.342H219.921V215.38H225.867V213.342ZM213.975 213.342H208.03V215.38H213.975V213.342ZM202.084 213.342H196.139V215.38H202.084V213.342ZM190.193 213.342H184.247V215.38H190.193V213.342ZM178.302 213.342H175.329V215.38H178.302V213.342Z" fill="#D9D9D9" fill-opacity="0.23"/>
<g filter="url(#filter0_d_114_162)">
<path d="M14.5591 135.188L19.2302 111.464C19.6466 109.349 22.633 109.245 23.1963 111.325L27.7648 128.2C28.3025 130.187 31.1102 130.215 31.6875 128.24L37.0745 109.807C37.6508 107.836 40.4521 107.859 40.9954 109.84L49.5116 140.888C50.016 142.727 52.578 142.849 53.2538 141.065V141.065C53.9376 139.261 56.5388 139.414 57.0072 141.285L61.6809 159.959C62.1938 162.008 65.1019 162.019 65.6305 159.974L72.8266 132.127C73.3625 130.054 76.3243 130.105 76.7887 132.195L78.0256 137.764C78.4982 139.892 81.5313 139.892 82.0039 137.764L83.0604 133.008C83.5346 130.873 86.5812 130.883 87.0415 133.021L93.5245 163.125C93.9003 164.87 96.179 165.323 97.1933 163.854L97.4425 163.493C98.4654 162.011 100.766 162.487 101.118 164.253L109.89 208.322C110.305 210.409 113.239 210.542 113.842 208.502L123.717 175.122C124.31 173.116 127.18 173.199 127.655 175.237L129.272 182.166C129.731 184.131 132.461 184.306 133.166 182.415L139.442 165.579C140.137 163.713 142.821 163.85 143.323 165.777L160.436 231.47C160.968 233.514 163.876 233.497 164.385 231.447L166.566 222.664C167.045 220.733 169.724 220.563 170.443 222.418L171.627 225.473C172.329 227.283 174.925 227.179 175.48 225.319L184.161 196.222C184.761 194.211 187.642 194.311 188.102 196.359L189.296 201.68C189.737 203.645 192.457 203.848 193.184 201.97L207.166 165.9C207.898 164.013 210.637 164.232 211.059 166.212L224.853 230.931C225.299 233.025 228.26 233.102 228.814 231.034L245.687 168.067C246.247 165.979 249.245 166.084 249.656 168.206L252.145 181.047C252.544 183.11 255.426 183.291 256.081 181.295L265.462 152.72C266.079 150.841 268.743 150.854 269.341 152.74L278.695 182.252C279.306 184.18 282.05 184.136 282.599 182.189L297.069 130.825C297.626 128.848 300.425 128.843 300.99 130.817L310.266 163.262C310.734 164.9 312.952 165.146 313.767 163.65V163.65C314.586 162.149 316.814 162.404 317.273 164.05L322.259 181.934C322.808 183.903 325.591 183.928 326.175 181.968L328.09 175.536C328.696 173.504 331.617 173.633 332.04 175.711L336.759 198.886C337.198 201.039 340.263 201.07 340.744 198.926L343.029 188.742" stroke="#64CE9B" stroke-width="2.03766"/>
</g>
<path d="M160.482 369.644C159.699 369.644 159.008 369.46 158.409 369.093C157.823 368.714 157.364 368.176 157.034 367.48C156.704 366.77 156.539 365.945 156.539 365.004C156.539 364.038 156.704 363.213 157.034 362.528C157.364 361.843 157.823 361.312 158.409 360.933C159.008 360.554 159.699 360.364 160.482 360.364C161.264 360.364 161.937 360.56 162.499 360.951C163.074 361.33 163.459 361.843 163.654 362.491H163.453V357.356C163.453 357.051 163.532 356.819 163.691 356.66C163.85 356.501 164.076 356.421 164.37 356.421C164.663 356.421 164.889 356.501 165.048 356.66C165.219 356.819 165.305 357.051 165.305 357.356V368.672C165.305 368.965 165.225 369.197 165.066 369.368C164.907 369.527 164.681 369.607 164.388 369.607C164.094 369.607 163.868 369.527 163.709 369.368C163.55 369.197 163.471 368.965 163.471 368.672V367.058L163.673 367.461C163.477 368.121 163.092 368.653 162.517 369.057C161.955 369.448 161.276 369.644 160.482 369.644ZM160.958 368.213C161.46 368.213 161.9 368.091 162.279 367.846C162.658 367.602 162.951 367.241 163.159 366.764C163.379 366.288 163.489 365.701 163.489 365.004C163.489 363.952 163.257 363.158 162.792 362.62C162.328 362.082 161.716 361.813 160.958 361.813C160.445 361.813 159.999 361.935 159.62 362.18C159.241 362.412 158.941 362.766 158.721 363.243C158.513 363.72 158.409 364.307 158.409 365.004C158.409 366.043 158.642 366.838 159.106 367.388C159.571 367.938 160.188 368.213 160.958 368.213ZM170.766 369.644C170.143 369.644 169.581 369.521 169.079 369.277C168.59 369.032 168.205 368.702 167.924 368.286C167.643 367.871 167.502 367.4 167.502 366.874C167.502 366.214 167.667 365.695 167.997 365.316C168.34 364.924 168.896 364.649 169.666 364.49C170.449 364.319 171.5 364.234 172.82 364.234H173.682V365.371H172.839C171.959 365.371 171.262 365.413 170.748 365.499C170.235 365.585 169.868 365.731 169.648 365.939C169.44 366.135 169.336 366.41 169.336 366.764C169.336 367.229 169.495 367.608 169.813 367.901C170.131 368.183 170.571 368.323 171.133 368.323C171.586 368.323 171.983 368.219 172.325 368.011C172.668 367.791 172.937 367.498 173.132 367.131C173.34 366.764 173.444 366.343 173.444 365.866V363.757C173.444 363.06 173.297 362.559 173.004 362.253C172.71 361.947 172.227 361.795 171.555 361.795C171.164 361.795 170.754 361.843 170.326 361.941C169.911 362.039 169.477 362.204 169.024 362.436C168.816 362.534 168.639 362.565 168.492 362.528C168.346 362.491 168.23 362.412 168.144 362.29C168.058 362.155 168.01 362.015 167.997 361.868C167.997 361.709 168.034 361.556 168.107 361.409C168.193 361.263 168.334 361.153 168.529 361.079C169.067 360.823 169.599 360.639 170.125 360.529C170.65 360.419 171.145 360.364 171.61 360.364C172.429 360.364 173.102 360.492 173.627 360.749C174.165 361.006 174.563 361.397 174.819 361.923C175.076 362.449 175.205 363.127 175.205 363.959V368.672C175.205 368.965 175.131 369.197 174.984 369.368C174.838 369.527 174.624 369.607 174.343 369.607C174.074 369.607 173.86 369.527 173.701 369.368C173.542 369.197 173.462 368.965 173.462 368.672V367.48H173.627C173.53 367.932 173.346 368.323 173.077 368.653C172.82 368.971 172.496 369.216 172.105 369.387C171.714 369.558 171.268 369.644 170.766 369.644ZM179.775 372.908C179.555 372.908 179.372 372.847 179.225 372.725C179.09 372.614 179.011 372.462 178.986 372.266C178.974 372.083 179.011 371.881 179.097 371.661L180.344 368.855V369.644L176.914 361.666C176.829 361.446 176.798 361.238 176.822 361.043C176.847 360.847 176.939 360.694 177.098 360.584C177.257 360.462 177.47 360.401 177.739 360.401C177.972 360.401 178.155 360.456 178.29 360.566C178.424 360.676 178.546 360.865 178.656 361.134L181.426 367.975H180.912L183.718 361.134C183.828 360.853 183.956 360.664 184.103 360.566C184.25 360.456 184.451 360.401 184.708 360.401C184.928 360.401 185.099 360.462 185.222 360.584C185.356 360.694 185.436 360.847 185.46 361.043C185.497 361.226 185.466 361.428 185.368 361.648L180.784 372.193C180.661 372.474 180.521 372.663 180.362 372.761C180.215 372.859 180.02 372.908 179.775 372.908ZM196.027 369.644C195.342 369.644 194.646 369.552 193.936 369.368C193.227 369.173 192.61 368.886 192.084 368.507C191.889 368.384 191.754 368.238 191.681 368.066C191.62 367.883 191.607 367.718 191.644 367.571C191.681 367.412 191.754 367.278 191.864 367.168C191.986 367.058 192.133 366.997 192.304 366.984C192.475 366.96 192.665 367.009 192.873 367.131C193.398 367.449 193.912 367.681 194.413 367.828C194.914 367.962 195.434 368.03 195.972 368.03C196.559 368.03 197.054 367.944 197.457 367.773C197.861 367.602 198.16 367.351 198.356 367.021C198.564 366.691 198.668 366.294 198.668 365.829C198.668 365.132 198.436 364.613 197.971 364.27C197.519 363.916 196.858 363.738 195.99 363.738H194.743C194.462 363.738 194.248 363.671 194.101 363.537C193.955 363.39 193.881 363.188 193.881 362.932C193.881 362.687 193.955 362.498 194.101 362.363C194.248 362.216 194.462 362.143 194.743 362.143H195.807C196.333 362.143 196.779 362.057 197.146 361.886C197.513 361.703 197.794 361.452 197.989 361.134C198.197 360.804 198.301 360.407 198.301 359.942C198.301 359.319 198.093 358.842 197.678 358.512C197.274 358.17 196.681 357.998 195.899 357.998C195.397 357.998 194.921 358.066 194.468 358.2C194.028 358.335 193.57 358.573 193.093 358.915C192.909 359.038 192.732 359.093 192.561 359.08C192.402 359.056 192.261 358.995 192.139 358.897C192.029 358.787 191.95 358.652 191.901 358.494C191.864 358.335 191.876 358.17 191.937 357.998C191.999 357.827 192.121 357.68 192.304 357.558C192.818 357.179 193.398 356.892 194.046 356.696C194.694 356.488 195.361 356.385 196.045 356.385C196.901 356.385 197.635 356.519 198.246 356.788C198.87 357.057 199.34 357.442 199.658 357.943C199.988 358.445 200.153 359.044 200.153 359.741C200.153 360.266 200.056 360.743 199.86 361.171C199.664 361.599 199.383 361.966 199.016 362.271C198.662 362.565 198.228 362.773 197.714 362.895V362.693C198.607 362.84 199.297 363.207 199.787 363.793C200.276 364.368 200.52 365.089 200.52 365.957C200.52 366.715 200.337 367.376 199.97 367.938C199.615 368.488 199.102 368.91 198.429 369.203C197.757 369.497 196.956 369.644 196.027 369.644Z" fill="white"/>
<path d="M179.813 216.195L179.813 215.176L177.776 215.176L177.776 216.195L179.813 216.195ZM177.776 219.308C177.776 219.871 178.232 220.327 178.794 220.327C179.357 220.327 179.813 219.871 179.813 219.308L177.776 219.308ZM179.813 225.535C179.813 224.972 179.357 224.516 178.794 224.516C178.232 224.516 177.776 224.972 177.776 225.535L179.813 225.535ZM177.776 231.761C177.776 232.323 178.232 232.78 178.794 232.78C179.357 232.78 179.813 232.323 179.813 231.761L177.776 231.761ZM179.813 237.987C179.813 237.424 179.357 236.968 178.794 236.968C178.232 236.968 177.776 237.424 177.776 237.987L179.813 237.987ZM177.776 244.213C177.776 244.776 178.232 245.232 178.794 245.232C179.357 245.232 179.813 244.776 179.813 244.213L177.776 244.213ZM179.813 250.439C179.813 249.877 179.357 249.42 178.794 249.42C178.232 249.42 177.776 249.877 177.776 250.439L179.813 250.439ZM177.776 256.665C177.776 257.228 178.232 257.684 178.794 257.684C179.357 257.684 179.813 257.228 179.813 256.665L177.776 256.665ZM179.813 262.892C179.813 262.329 179.357 261.873 178.794 261.873C178.232 261.873 177.776 262.329 177.776 262.892L179.813 262.892ZM177.776 269.118C177.776 269.68 178.232 270.137 178.794 270.137C179.357 270.137 179.813 269.68 179.813 269.118L177.776 269.118ZM179.813 275.344C179.813 274.781 179.357 274.325 178.794 274.325C178.232 274.325 177.776 274.781 177.776 275.344L179.813 275.344ZM177.776 281.57C177.776 282.133 178.232 282.589 178.794 282.589C179.357 282.589 179.813 282.133 179.813 281.57L177.776 281.57ZM179.813 287.796C179.813 287.234 179.357 286.777 178.794 286.777C178.232 286.777 177.776 287.234 177.776 287.796L179.813 287.796ZM177.776 294.022C177.776 294.585 178.232 295.041 178.794 295.041C179.357 295.041 179.813 294.585 179.813 294.022L177.776 294.022ZM179.813 300.249C179.813 299.686 179.357 299.23 178.794 299.23C178.232 299.23 177.776 299.686 177.776 300.249L179.813 300.249ZM177.776 306.475C177.776 307.038 178.232 307.494 178.794 307.494C179.357 307.494 179.813 307.038 179.813 306.475L177.776 306.475ZM179.813 312.701C179.813 312.138 179.357 311.682 178.794 311.682C178.232 311.682 177.776 312.138 177.776 312.701L179.813 312.701ZM177.776 318.927C177.776 319.49 178.232 319.946 178.794 319.946C179.357 319.946 179.813 319.49 179.813 318.927L177.776 318.927ZM179.813 325.153C179.813 324.591 179.357 324.135 178.794 324.135C178.232 324.135 177.776 324.591 177.776 325.153L179.813 325.153ZM177.776 216.195L177.776 219.308L179.813 219.308L179.813 216.195L177.776 216.195ZM177.776 225.535L177.776 231.761L179.813 231.761L179.813 225.535L177.776 225.535ZM177.776 237.987L177.776 244.213L179.813 244.213L179.813 237.987L177.776 237.987ZM177.776 250.439L177.776 256.665L179.813 256.665L179.813 250.439L177.776 250.439ZM177.776 262.892L177.776 269.118L179.813 269.118L179.813 262.892L177.776 262.892ZM177.776 275.344L177.776 281.57L179.813 281.57L179.813 275.344L177.776 275.344ZM177.776 287.796L177.776 294.022L179.813 294.022L179.813 287.796L177.776 287.796ZM177.776 300.249L177.776 306.475L179.813 306.475L179.813 300.249L177.776 300.249ZM177.776 312.701L177.776 318.927L179.813 318.927L179.813 312.701L177.776 312.701ZM177.776 325.153L177.776 328.266L179.813 328.266L179.813 325.153L177.776 325.153Z" fill="#D9D9D9" fill-opacity="0.23"/>
<path d="M373.574 264.425C373.354 264.425 373.17 264.351 373.024 264.205C372.889 264.058 372.822 263.881 372.822 263.673V261.931L373.189 262.279C372.333 262.267 371.563 262.157 370.878 261.949C370.193 261.729 369.619 261.466 369.154 261.161C368.983 261.05 368.861 260.91 368.787 260.739C368.714 260.568 368.689 260.396 368.714 260.225C368.751 260.054 368.824 259.907 368.934 259.785C369.044 259.663 369.179 259.589 369.337 259.565C369.496 259.541 369.68 259.589 369.888 259.712C370.267 259.956 370.737 260.176 371.3 260.372C371.874 260.568 372.571 260.665 373.39 260.665C374.051 260.665 374.588 260.58 375.004 260.409C375.432 260.237 375.744 260.005 375.939 259.712C376.147 259.418 376.251 259.076 376.251 258.685C376.251 258.367 376.178 258.092 376.031 257.86C375.897 257.627 375.67 257.432 375.353 257.273C375.035 257.102 374.613 256.961 374.087 256.851L372.198 256.447C371.086 256.203 370.254 255.799 369.704 255.237C369.166 254.675 368.897 253.935 368.897 253.018C368.897 252.297 369.068 251.655 369.411 251.092C369.765 250.53 370.254 250.084 370.878 249.754C371.514 249.424 372.253 249.234 373.097 249.185L372.822 249.442V247.773C372.822 247.565 372.889 247.388 373.024 247.241C373.17 247.095 373.354 247.021 373.574 247.021C373.782 247.021 373.959 247.095 374.106 247.241C374.252 247.388 374.326 247.565 374.326 247.773V249.442L374.014 249.185C374.576 249.197 375.175 249.314 375.811 249.534C376.447 249.741 376.991 250.041 377.443 250.432C377.59 250.555 377.682 250.695 377.718 250.854C377.767 251.013 377.767 251.166 377.718 251.313C377.682 251.459 377.608 251.581 377.498 251.679C377.388 251.777 377.248 251.832 377.076 251.844C376.905 251.857 376.722 251.795 376.526 251.661C376.135 251.392 375.701 251.178 375.224 251.019C374.76 250.86 374.203 250.781 373.555 250.781C372.7 250.781 372.021 250.982 371.52 251.386C371.019 251.789 370.768 252.315 370.768 252.963C370.768 253.452 370.921 253.849 371.226 254.155C371.532 254.448 372.045 254.675 372.767 254.834L374.692 255.237C375.866 255.494 376.734 255.891 377.297 256.429C377.859 256.967 378.14 257.682 378.14 258.575C378.14 259.272 377.963 259.889 377.608 260.427C377.254 260.953 376.765 261.374 376.141 261.692C375.53 261.998 374.821 262.188 374.014 262.261L374.326 261.912V263.673C374.326 263.881 374.252 264.058 374.106 264.205C373.971 264.351 373.794 264.425 373.574 264.425ZM388.268 262.353C387.73 262.353 387.168 262.261 386.581 262.077C386.007 261.882 385.481 261.595 385.004 261.216C384.845 261.106 384.741 260.971 384.692 260.812C384.656 260.641 384.656 260.482 384.692 260.335C384.729 260.176 384.802 260.042 384.912 259.932C385.022 259.81 385.157 259.742 385.316 259.73C385.487 259.706 385.664 259.755 385.848 259.877C386.263 260.182 386.673 260.403 387.076 260.537C387.492 260.671 387.902 260.739 388.305 260.739C389.063 260.739 389.705 260.555 390.231 260.189C390.756 259.822 391.154 259.272 391.423 258.538C391.692 257.804 391.826 256.894 391.826 255.806V254.247H392.028C391.942 254.895 391.734 255.463 391.404 255.952C391.086 256.441 390.671 256.814 390.157 257.071C389.644 257.328 389.075 257.456 388.452 257.456C387.706 257.456 387.04 257.279 386.453 256.924C385.866 256.57 385.407 256.081 385.077 255.457C384.747 254.834 384.582 254.131 384.582 253.348C384.582 252.517 384.76 251.783 385.114 251.147C385.469 250.499 385.958 249.998 386.581 249.644C387.217 249.277 387.944 249.094 388.764 249.094C389.815 249.094 390.701 249.344 391.423 249.845C392.144 250.334 392.694 251.056 393.073 252.009C393.464 252.963 393.66 254.106 393.66 255.439C393.66 256.551 393.538 257.536 393.293 258.391C393.049 259.247 392.694 259.968 392.23 260.555C391.765 261.142 391.196 261.588 390.524 261.894C389.864 262.2 389.112 262.353 388.268 262.353ZM388.892 255.897C389.381 255.897 389.815 255.787 390.194 255.567C390.573 255.347 390.866 255.035 391.074 254.632C391.294 254.228 391.404 253.77 391.404 253.256C391.404 252.731 391.294 252.272 391.074 251.881C390.866 251.478 390.573 251.166 390.194 250.946C389.815 250.726 389.381 250.616 388.892 250.616C388.391 250.616 387.95 250.726 387.571 250.946C387.205 251.166 386.911 251.478 386.691 251.881C386.483 252.272 386.379 252.731 386.379 253.256C386.379 253.77 386.483 254.228 386.691 254.632C386.911 255.035 387.205 255.347 387.571 255.567C387.95 255.787 388.391 255.897 388.892 255.897ZM400.218 262.353C398.714 262.353 397.565 261.784 396.77 260.647C395.988 259.498 395.597 257.853 395.597 255.714C395.597 254.259 395.774 253.042 396.129 252.064C396.483 251.086 397.003 250.347 397.687 249.845C398.372 249.344 399.216 249.094 400.218 249.094C401.734 249.094 402.883 249.656 403.666 250.781C404.448 251.893 404.84 253.532 404.84 255.696C404.84 257.126 404.662 258.336 404.308 259.327C403.953 260.317 403.434 261.069 402.749 261.582C402.064 262.096 401.221 262.353 400.218 262.353ZM400.218 260.775C401.16 260.775 401.85 260.366 402.29 259.547C402.743 258.715 402.969 257.432 402.969 255.696C402.969 253.947 402.743 252.676 402.29 251.881C401.85 251.074 401.16 250.671 400.218 250.671C399.289 250.671 398.598 251.074 398.146 251.881C397.694 252.676 397.467 253.947 397.467 255.696C397.467 257.432 397.694 258.715 398.146 259.547C398.598 260.366 399.289 260.775 400.218 260.775ZM411.214 262.353C409.711 262.353 408.561 261.784 407.767 260.647C406.984 259.498 406.593 257.853 406.593 255.714C406.593 254.259 406.77 253.042 407.125 252.064C407.479 251.086 407.999 250.347 408.684 249.845C409.368 249.344 410.212 249.094 411.214 249.094C412.73 249.094 413.88 249.656 414.662 250.781C415.445 251.893 415.836 253.532 415.836 255.696C415.836 257.126 415.658 258.336 415.304 259.327C414.949 260.317 414.43 261.069 413.745 261.582C413.06 262.096 412.217 262.353 411.214 262.353ZM411.214 260.775C412.156 260.775 412.847 260.366 413.287 259.547C413.739 258.715 413.965 257.432 413.965 255.696C413.965 253.947 413.739 252.676 413.287 251.881C412.847 251.074 412.156 250.671 411.214 250.671C410.285 250.671 409.594 251.074 409.142 251.881C408.69 252.676 408.464 253.947 408.464 255.696C408.464 257.432 408.69 258.715 409.142 259.547C409.594 260.366 410.285 260.775 411.214 260.775ZM370.108 282.617C369.814 282.617 369.588 282.537 369.429 282.378C369.27 282.22 369.191 281.987 369.191 281.682V271.045C369.191 270.739 369.27 270.507 369.429 270.348C369.588 270.189 369.808 270.11 370.089 270.11C370.383 270.11 370.609 270.189 370.768 270.348C370.927 270.507 371.006 270.739 371.006 271.045V272.641L370.805 272.255C371 271.595 371.385 271.069 371.96 270.678C372.535 270.275 373.213 270.073 373.996 270.073C374.79 270.073 375.481 270.263 376.068 270.642C376.667 271.021 377.125 271.552 377.443 272.237C377.773 272.922 377.938 273.747 377.938 274.713C377.938 275.654 377.773 276.479 377.443 277.189C377.125 277.885 376.673 278.423 376.086 278.802C375.499 279.169 374.802 279.353 373.996 279.353C373.225 279.353 372.553 279.157 371.978 278.766C371.404 278.374 371.019 277.855 370.823 277.207H371.043V281.682C371.043 281.987 370.957 282.22 370.786 282.378C370.627 282.537 370.401 282.617 370.108 282.617ZM373.537 277.922C374.051 277.922 374.497 277.8 374.876 277.555C375.255 277.311 375.548 276.95 375.756 276.473C375.964 275.997 376.068 275.41 376.068 274.713C376.068 273.661 375.836 272.867 375.371 272.329C374.919 271.791 374.307 271.522 373.537 271.522C373.036 271.522 372.59 271.644 372.198 271.889C371.819 272.121 371.526 272.475 371.318 272.952C371.11 273.429 371.006 274.016 371.006 274.713C371.006 275.752 371.239 276.547 371.703 277.097C372.168 277.647 372.779 277.922 373.537 277.922ZM380.961 279.316C380.655 279.316 380.423 279.236 380.264 279.077C380.105 278.906 380.026 278.674 380.026 278.381V271.045C380.026 270.739 380.105 270.507 380.264 270.348C380.423 270.189 380.643 270.11 380.924 270.11C381.218 270.11 381.438 270.189 381.585 270.348C381.743 270.507 381.823 270.739 381.823 271.045V272.384H381.64C381.835 271.65 382.196 271.094 382.722 270.715C383.247 270.336 383.92 270.116 384.739 270.055C384.959 270.042 385.13 270.098 385.252 270.22C385.387 270.342 385.46 270.532 385.472 270.788C385.497 271.045 385.442 271.253 385.307 271.412C385.173 271.559 384.965 271.644 384.684 271.669L384.335 271.705C383.541 271.779 382.936 272.029 382.52 272.457C382.104 272.885 381.896 273.472 381.896 274.218V278.381C381.896 278.674 381.817 278.906 381.658 279.077C381.511 279.236 381.279 279.316 380.961 279.316ZM387.784 279.298C387.491 279.298 387.264 279.212 387.105 279.041C386.946 278.857 386.867 278.607 386.867 278.289V271.137C386.867 270.819 386.946 270.574 387.105 270.403C387.264 270.232 387.491 270.146 387.784 270.146C388.077 270.146 388.304 270.232 388.462 270.403C388.634 270.574 388.719 270.819 388.719 271.137V278.289C388.719 278.607 388.64 278.857 388.481 279.041C388.322 279.212 388.09 279.298 387.784 279.298ZM387.784 268.239C387.417 268.239 387.13 268.147 386.922 267.964C386.726 267.781 386.629 267.524 386.629 267.194C386.629 266.852 386.726 266.595 386.922 266.424C387.13 266.24 387.417 266.149 387.784 266.149C388.151 266.149 388.432 266.24 388.628 266.424C388.835 266.595 388.939 266.852 388.939 267.194C388.939 267.524 388.835 267.781 388.628 267.964C388.432 268.147 388.151 268.239 387.784 268.239ZM395.269 279.353C394.352 279.353 393.558 279.163 392.885 278.784C392.225 278.393 391.711 277.849 391.345 277.152C390.978 276.443 390.795 275.611 390.795 274.658C390.795 273.949 390.898 273.313 391.106 272.751C391.314 272.176 391.608 271.693 391.987 271.302C392.378 270.911 392.849 270.611 393.399 270.403C393.961 270.183 394.585 270.073 395.269 270.073C395.697 270.073 396.143 270.14 396.608 270.275C397.085 270.397 397.525 270.605 397.928 270.898C398.087 270.996 398.185 271.118 398.222 271.265C398.271 271.4 398.277 271.54 398.24 271.687C398.216 271.834 398.148 271.962 398.038 272.072C397.941 272.17 397.818 272.231 397.672 272.255C397.525 272.268 397.366 272.225 397.195 272.127C396.901 271.919 396.602 271.772 396.296 271.687C395.991 271.589 395.697 271.54 395.416 271.54C394.976 271.54 394.585 271.614 394.242 271.76C393.912 271.895 393.631 272.096 393.399 272.365C393.166 272.622 392.989 272.946 392.867 273.337C392.757 273.729 392.702 274.175 392.702 274.676C392.702 275.679 392.934 276.467 393.399 277.042C393.875 277.604 394.548 277.885 395.416 277.885C395.697 277.885 395.991 277.843 396.296 277.757C396.602 277.671 396.901 277.525 397.195 277.317C397.366 277.219 397.525 277.182 397.672 277.207C397.818 277.231 397.934 277.299 398.02 277.409C398.118 277.506 398.179 277.629 398.203 277.775C398.24 277.91 398.234 278.05 398.185 278.197C398.136 278.344 398.032 278.466 397.873 278.564C397.482 278.845 397.054 279.047 396.59 279.169C396.137 279.291 395.697 279.353 395.269 279.353ZM403.907 279.353C402.929 279.353 402.086 279.169 401.377 278.802C400.68 278.423 400.136 277.892 399.745 277.207C399.366 276.51 399.176 275.685 399.176 274.731C399.176 273.802 399.366 272.989 399.745 272.292C400.124 271.595 400.643 271.051 401.303 270.66C401.964 270.269 402.715 270.073 403.559 270.073C404.183 270.073 404.739 270.177 405.228 270.385C405.717 270.58 406.133 270.874 406.475 271.265C406.829 271.644 407.092 272.109 407.263 272.659C407.447 273.209 407.539 273.826 407.539 274.511C407.539 274.719 407.477 274.878 407.355 274.988C407.233 275.086 407.05 275.135 406.805 275.135H400.643V273.998H406.292L405.98 274.254C405.98 273.643 405.888 273.123 405.705 272.696C405.533 272.268 405.271 271.944 404.916 271.724C404.574 271.491 404.146 271.375 403.632 271.375C403.058 271.375 402.569 271.51 402.165 271.779C401.774 272.048 401.474 272.42 401.267 272.897C401.059 273.374 400.955 273.93 400.955 274.566V274.676C400.955 275.752 401.206 276.565 401.707 277.115C402.22 277.653 402.96 277.922 403.926 277.922C404.293 277.922 404.678 277.873 405.081 277.775C405.497 277.678 405.888 277.513 406.255 277.28C406.463 277.158 406.646 277.103 406.805 277.115C406.976 277.127 407.111 277.182 407.208 277.28C407.318 277.378 407.386 277.5 407.41 277.647C407.435 277.794 407.41 277.947 407.337 278.106C407.263 278.252 407.135 278.387 406.952 278.509C406.536 278.79 406.053 279.004 405.503 279.151C404.953 279.285 404.421 279.353 403.907 279.353ZM414.522 279.316C414.277 279.316 414.082 279.261 413.935 279.151C413.788 279.041 413.703 278.894 413.678 278.711C413.654 278.527 413.69 278.319 413.788 278.087L418.758 266.937C418.88 266.644 419.033 266.436 419.216 266.314C419.412 266.191 419.626 266.13 419.858 266.13C420.078 266.13 420.28 266.191 420.463 266.314C420.659 266.436 420.818 266.644 420.94 266.937L425.91 278.087C426.02 278.319 426.063 278.533 426.038 278.729C426.014 278.912 425.935 279.059 425.8 279.169C425.666 279.267 425.476 279.316 425.232 279.316C424.963 279.316 424.749 279.249 424.59 279.114C424.431 278.98 424.29 278.772 424.168 278.491L422.884 275.52L423.746 276.033H415.934L416.777 275.52L415.512 278.491C415.39 278.784 415.255 278.998 415.109 279.132C414.962 279.255 414.766 279.316 414.522 279.316ZM419.822 268.368L417.052 274.933L416.594 274.493H423.068L422.646 274.933L419.858 268.368H419.822Z" fill="white"/>
<rect x="13.5396" y="337.029" width="2.03766" height="11.2071" fill="white"/>
<rect x="67.9448" y="337.029" width="2.03766" height="11.2071" fill="white"/>
<rect x="122.758" y="337.029" width="2.03766" height="11.2071" fill="white"/>
<rect x="177.774" y="337.029" width="1.83389" height="11.2071" fill="white"/>
<rect x="232.18" y="337.029" width="2.03766" height="11.2071" fill="white"/>
<rect x="286.993" y="337.029" width="2.03766" height="11.2071" fill="white"/>
<rect x="341.806" y="337.029" width="2.03766" height="11.2071" fill="white"/>
<rect x="360.349" y="262.857" width="2.03766" height="11.2071" transform="rotate(90 360.349 262.857)" fill="white"/>
<path d="M136.387 117.275C136.094 117.275 135.868 117.196 135.709 117.037C135.55 116.878 135.471 116.645 135.471 116.34V105.703C135.471 105.398 135.55 105.165 135.709 105.006C135.868 104.847 136.088 104.768 136.369 104.768C136.663 104.768 136.889 104.847 137.048 105.006C137.207 105.165 137.286 105.398 137.286 105.703V107.299L137.084 106.914C137.28 106.253 137.665 105.728 138.24 105.336C138.814 104.933 139.493 104.731 140.275 104.731C141.07 104.731 141.761 104.921 142.348 105.3C142.947 105.679 143.405 106.211 143.723 106.895C144.053 107.58 144.218 108.405 144.218 109.371C144.218 110.312 144.053 111.138 143.723 111.847C143.405 112.544 142.953 113.082 142.366 113.461C141.779 113.827 141.082 114.011 140.275 114.011C139.505 114.011 138.833 113.815 138.258 113.424C137.683 113.033 137.298 112.513 137.103 111.865H137.323V116.34C137.323 116.645 137.237 116.878 137.066 117.037C136.907 117.196 136.681 117.275 136.387 117.275ZM139.817 112.58C140.33 112.58 140.777 112.458 141.156 112.214C141.535 111.969 141.828 111.608 142.036 111.132C142.244 110.655 142.348 110.068 142.348 109.371C142.348 108.32 142.115 107.525 141.651 106.987C141.198 106.449 140.587 106.18 139.817 106.18C139.316 106.18 138.869 106.302 138.478 106.547C138.099 106.779 137.806 107.134 137.598 107.61C137.39 108.087 137.286 108.674 137.286 109.371C137.286 110.41 137.518 111.205 137.983 111.755C138.448 112.305 139.059 112.58 139.817 112.58ZM147.241 113.974C146.935 113.974 146.703 113.895 146.544 113.736C146.385 113.565 146.306 113.332 146.306 113.039V105.703C146.306 105.398 146.385 105.165 146.544 105.006C146.703 104.847 146.923 104.768 147.204 104.768C147.498 104.768 147.718 104.847 147.864 105.006C148.023 105.165 148.103 105.398 148.103 105.703V107.042H147.919C148.115 106.308 148.476 105.752 149.001 105.373C149.527 104.994 150.199 104.774 151.019 104.713C151.239 104.701 151.41 104.756 151.532 104.878C151.667 105 151.74 105.19 151.752 105.446C151.777 105.703 151.722 105.911 151.587 106.07C151.453 106.217 151.245 106.302 150.964 106.327L150.615 106.363C149.82 106.437 149.215 106.687 148.8 107.115C148.384 107.543 148.176 108.13 148.176 108.876V113.039C148.176 113.332 148.097 113.565 147.938 113.736C147.791 113.895 147.559 113.974 147.241 113.974ZM156.909 114.011C156.005 114.011 155.222 113.821 154.562 113.442C153.914 113.063 153.407 112.525 153.04 111.828C152.673 111.132 152.49 110.312 152.49 109.371C152.49 108.65 152.594 108.008 152.801 107.445C153.009 106.883 153.303 106.4 153.682 105.997C154.073 105.581 154.537 105.269 155.075 105.061C155.626 104.841 156.237 104.731 156.909 104.731C157.802 104.731 158.572 104.921 159.22 105.3C159.88 105.679 160.394 106.217 160.76 106.914C161.127 107.598 161.311 108.417 161.311 109.371C161.311 110.08 161.207 110.722 160.999 111.297C160.791 111.871 160.491 112.36 160.1 112.764C159.721 113.167 159.257 113.479 158.706 113.699C158.169 113.907 157.569 114.011 156.909 114.011ZM156.909 112.58C157.411 112.58 157.851 112.458 158.23 112.214C158.609 111.969 158.902 111.608 159.11 111.132C159.33 110.655 159.44 110.068 159.44 109.371C159.44 108.32 159.208 107.525 158.743 106.987C158.279 106.449 157.667 106.18 156.909 106.18C156.396 106.18 155.95 106.302 155.571 106.547C155.192 106.779 154.892 107.134 154.672 107.61C154.464 108.087 154.36 108.674 154.36 109.371C154.36 110.41 154.592 111.205 155.057 111.755C155.522 112.305 156.139 112.58 156.909 112.58ZM164.768 113.974C164.475 113.974 164.243 113.895 164.071 113.736C163.913 113.565 163.833 113.332 163.833 113.039V106.327H162.806C162.574 106.327 162.39 106.266 162.256 106.143C162.121 106.009 162.054 105.832 162.054 105.612C162.054 105.379 162.121 105.202 162.256 105.08C162.39 104.957 162.574 104.896 162.806 104.896H164.365L163.833 105.391V104.731C163.833 103.545 164.127 102.641 164.713 102.017C165.3 101.394 166.162 101.027 167.299 100.917L167.849 100.88C168.069 100.856 168.247 100.886 168.381 100.972C168.516 101.045 168.607 101.155 168.656 101.302C168.705 101.436 168.711 101.577 168.675 101.724C168.638 101.87 168.571 101.999 168.473 102.109C168.387 102.207 168.277 102.262 168.143 102.274L167.648 102.311C166.963 102.359 166.462 102.561 166.144 102.916C165.838 103.27 165.685 103.79 165.685 104.475V105.19L165.429 104.896H170.453C170.759 104.896 170.991 104.988 171.15 105.171C171.309 105.343 171.389 105.581 171.389 105.887V112.947C171.389 113.265 171.309 113.516 171.15 113.699C171.004 113.87 170.771 113.956 170.453 113.956C170.16 113.956 169.934 113.87 169.775 113.699C169.616 113.516 169.536 113.265 169.536 112.947V106.327H165.685V113.039C165.685 113.662 165.38 113.974 164.768 113.974ZM170.49 102.897C170.136 102.897 169.86 102.806 169.665 102.622C169.469 102.439 169.371 102.182 169.371 101.852C169.371 101.51 169.469 101.253 169.665 101.082C169.86 100.898 170.136 100.807 170.49 100.807C170.857 100.807 171.132 100.898 171.315 101.082C171.511 101.253 171.609 101.51 171.609 101.852C171.609 102.182 171.511 102.439 171.315 102.622C171.132 102.806 170.857 102.897 170.49 102.897ZM177.79 114.011C177.056 114.011 176.439 113.882 175.937 113.626C175.436 113.369 175.063 112.99 174.819 112.489C174.574 111.987 174.452 111.376 174.452 110.655V106.327H173.352C173.107 106.327 172.918 106.266 172.783 106.143C172.649 106.009 172.581 105.832 172.581 105.612C172.581 105.379 172.649 105.202 172.783 105.08C172.918 104.957 173.107 104.896 173.352 104.896H174.452V103.007C174.452 102.702 174.531 102.469 174.69 102.311C174.861 102.152 175.094 102.072 175.387 102.072C175.681 102.072 175.907 102.152 176.066 102.311C176.225 102.469 176.304 102.702 176.304 103.007V104.896H178.45C178.694 104.896 178.884 104.957 179.018 105.08C179.153 105.202 179.22 105.379 179.22 105.612C179.22 105.832 179.153 106.009 179.018 106.143C178.884 106.266 178.694 106.327 178.45 106.327H176.304V110.508C176.304 111.156 176.439 111.645 176.708 111.975C176.989 112.305 177.441 112.47 178.065 112.47C178.285 112.47 178.474 112.452 178.633 112.415C178.804 112.366 178.945 112.336 179.055 112.324C179.189 112.324 179.299 112.372 179.385 112.47C179.471 112.556 179.513 112.727 179.513 112.984C179.513 113.167 179.477 113.338 179.403 113.497C179.342 113.656 179.226 113.76 179.055 113.809C178.908 113.858 178.707 113.901 178.45 113.937C178.205 113.986 177.985 114.011 177.79 114.011ZM185.857 113.846C185.661 113.846 185.502 113.803 185.38 113.717C185.258 113.62 185.172 113.497 185.123 113.351C185.087 113.192 185.087 113.027 185.123 112.855C185.172 112.672 185.27 112.501 185.417 112.342L190.405 105.868V106.327H185.747C185.515 106.327 185.337 106.266 185.215 106.143C185.093 106.009 185.032 105.832 185.032 105.612C185.032 105.379 185.093 105.202 185.215 105.08C185.337 104.957 185.515 104.896 185.747 104.896H191.285C191.518 104.896 191.701 104.945 191.835 105.043C191.982 105.141 192.074 105.263 192.111 105.41C192.159 105.557 192.166 105.715 192.129 105.887C192.092 106.058 192.001 106.223 191.854 106.382L186.792 112.929V112.434H191.689C192.178 112.434 192.422 112.666 192.422 113.13C192.422 113.351 192.355 113.528 192.221 113.662C192.098 113.785 191.921 113.846 191.689 113.846H185.857ZM197.796 114.011C196.891 114.011 196.109 113.821 195.448 113.442C194.8 113.063 194.293 112.525 193.926 111.828C193.559 111.132 193.376 110.312 193.376 109.371C193.376 108.65 193.48 108.008 193.688 107.445C193.896 106.883 194.189 106.4 194.568 105.997C194.959 105.581 195.424 105.269 195.962 105.061C196.512 104.841 197.123 104.731 197.796 104.731C198.688 104.731 199.458 104.921 200.106 105.3C200.767 105.679 201.28 106.217 201.647 106.914C202.014 107.598 202.197 108.417 202.197 109.371C202.197 110.08 202.093 110.722 201.885 111.297C201.677 111.871 201.378 112.36 200.987 112.764C200.608 113.167 200.143 113.479 199.593 113.699C199.055 113.907 198.456 114.011 197.796 114.011ZM197.796 112.58C198.297 112.58 198.737 112.458 199.116 112.214C199.495 111.969 199.789 111.608 199.996 111.132C200.216 110.655 200.327 110.068 200.327 109.371C200.327 108.32 200.094 107.525 199.63 106.987C199.165 106.449 198.554 106.18 197.796 106.18C197.282 106.18 196.836 106.302 196.457 106.547C196.078 106.779 195.778 107.134 195.558 107.61C195.351 108.087 195.247 108.674 195.247 109.371C195.247 110.41 195.479 111.205 195.944 111.755C196.408 112.305 197.026 112.58 197.796 112.58ZM205.194 113.974C204.901 113.974 204.675 113.895 204.516 113.736C204.357 113.565 204.277 113.332 204.277 113.039V105.703C204.277 105.398 204.357 105.165 204.516 105.006C204.675 104.847 204.895 104.768 205.176 104.768C205.469 104.768 205.689 104.847 205.836 105.006C205.995 105.165 206.074 105.398 206.074 105.703V107.134L205.873 106.804C206.142 106.119 206.564 105.605 207.138 105.263C207.713 104.909 208.373 104.731 209.119 104.731C209.828 104.731 210.415 104.866 210.879 105.135C211.356 105.391 211.711 105.789 211.943 106.327C212.175 106.852 212.291 107.519 212.291 108.326V113.039C212.291 113.332 212.212 113.565 212.053 113.736C211.894 113.895 211.668 113.974 211.374 113.974C211.069 113.974 210.836 113.895 210.678 113.736C210.519 113.565 210.439 113.332 210.439 113.039V108.436C210.439 107.665 210.286 107.103 209.981 106.749C209.687 106.394 209.223 106.217 208.587 106.217C207.841 106.217 207.242 106.449 206.79 106.914C206.35 107.378 206.129 108.002 206.129 108.784V113.039C206.129 113.662 205.818 113.974 205.194 113.974ZM219.043 114.011C218.065 114.011 217.222 113.827 216.512 113.461C215.816 113.082 215.272 112.55 214.88 111.865C214.501 111.168 214.312 110.343 214.312 109.389C214.312 108.46 214.501 107.647 214.88 106.95C215.259 106.253 215.779 105.709 216.439 105.318C217.099 104.927 217.851 104.731 218.695 104.731C219.318 104.731 219.875 104.835 220.364 105.043C220.853 105.239 221.268 105.532 221.611 105.923C221.965 106.302 222.228 106.767 222.399 107.317C222.583 107.867 222.674 108.485 222.674 109.169C222.674 109.377 222.613 109.536 222.491 109.646C222.369 109.744 222.185 109.793 221.941 109.793H215.779V108.656H221.427L221.116 108.913C221.116 108.301 221.024 107.782 220.84 107.354C220.669 106.926 220.406 106.602 220.052 106.382C219.71 106.149 219.282 106.033 218.768 106.033C218.194 106.033 217.704 106.168 217.301 106.437C216.91 106.706 216.61 107.079 216.402 107.555C216.195 108.032 216.091 108.589 216.091 109.224V109.334C216.091 110.41 216.341 111.223 216.843 111.773C217.356 112.311 218.096 112.58 219.062 112.58C219.428 112.58 219.813 112.531 220.217 112.434C220.633 112.336 221.024 112.171 221.391 111.938C221.598 111.816 221.782 111.761 221.941 111.773C222.112 111.786 222.246 111.841 222.344 111.938C222.454 112.036 222.522 112.159 222.546 112.305C222.57 112.452 222.546 112.605 222.473 112.764C222.399 112.91 222.271 113.045 222.087 113.167C221.672 113.448 221.189 113.662 220.639 113.809C220.089 113.944 219.557 114.011 219.043 114.011Z" fill="white"/>
<rect x="14.5584" y="1.01883" width="328.267" height="328.267" stroke="white" stroke-width="2.03766"/>
<path d="M341.806 130.818H342.824V128.78H341.806V130.818ZM338.8 128.78C338.237 128.78 337.781 129.236 337.781 129.799C337.781 130.362 338.237 130.818 338.8 130.818V128.78ZM332.789 130.818C333.352 130.818 333.808 130.362 333.808 129.799C333.808 129.236 333.352 128.78 332.789 128.78V130.818ZM326.778 128.78C326.215 128.78 325.759 129.236 325.759 129.799C325.759 130.362 326.215 130.818 326.778 130.818V128.78ZM320.767 130.818C321.33 130.818 321.786 130.362 321.786 129.799C321.786 129.236 321.33 128.78 320.767 128.78V130.818ZM314.756 128.78C314.193 128.78 313.737 129.236 313.737 129.799C313.737 130.362 314.193 130.818 314.756 130.818V128.78ZM308.745 130.818C309.307 130.818 309.764 130.362 309.764 129.799C309.764 129.236 309.307 128.78 308.745 128.78V130.818ZM302.734 128.78C302.171 128.78 301.715 129.236 301.715 129.799C301.715 130.362 302.171 130.818 302.734 130.818V128.78ZM296.723 130.818C297.285 130.818 297.741 130.362 297.741 129.799C297.741 129.236 297.285 128.78 296.723 128.78V130.818ZM290.711 128.78C290.149 128.78 289.693 129.236 289.693 129.799C289.693 130.362 290.149 130.818 290.711 130.818V128.78ZM284.7 130.818C285.263 130.818 285.719 130.362 285.719 129.799C285.719 129.236 285.263 128.78 284.7 128.78V130.818ZM278.689 128.78C278.127 128.78 277.67 129.236 277.67 129.799C277.67 130.362 278.127 130.818 278.689 130.818V128.78ZM272.678 130.818C273.241 130.818 273.697 130.362 273.697 129.799C273.697 129.236 273.241 128.78 272.678 128.78V130.818ZM266.667 128.78C266.104 128.78 265.648 129.236 265.648 129.799C265.648 130.362 266.104 130.818 266.667 130.818V128.78ZM260.656 130.818C261.219 130.818 261.675 130.362 261.675 129.799C261.675 129.236 261.219 128.78 260.656 128.78V130.818ZM254.645 128.78C254.082 128.78 253.626 129.236 253.626 129.799C253.626 130.362 254.082 130.818 254.645 130.818V128.78ZM248.634 130.818C249.196 130.818 249.653 130.362 249.653 129.799C249.653 129.236 249.196 128.78 248.634 128.78V130.818ZM242.623 128.78C242.06 128.78 241.604 129.236 241.604 129.799C241.604 130.362 242.06 130.818 242.623 130.818V128.78ZM236.612 130.818C237.174 130.818 237.63 130.362 237.63 129.799C237.63 129.236 237.174 128.78 236.612 128.78V130.818ZM230.601 128.78C230.038 128.78 229.582 129.236 229.582 129.799C229.582 130.362 230.038 130.818 230.601 130.818V128.78ZM224.589 130.818C225.152 130.818 225.608 130.362 225.608 129.799C225.608 129.236 225.152 128.78 224.589 128.78V130.818ZM218.578 128.78C218.016 128.78 217.56 129.236 217.56 129.799C217.56 130.362 218.016 130.818 218.578 130.818V128.78ZM212.567 130.818C213.13 130.818 213.586 130.362 213.586 129.799C213.586 129.236 213.13 128.78 212.567 128.78V130.818ZM206.556 128.78C205.994 128.78 205.537 129.236 205.537 129.799C205.537 130.362 205.994 130.818 206.556 130.818V128.78ZM200.545 130.818C201.108 130.818 201.564 130.362 201.564 129.799C201.564 129.236 201.108 128.78 200.545 128.78V130.818ZM194.534 128.78C193.971 128.78 193.515 129.236 193.515 129.799C193.515 130.362 193.971 130.818 194.534 130.818V128.78ZM188.523 130.818C189.086 130.818 189.542 130.362 189.542 129.799C189.542 129.236 189.086 128.78 188.523 128.78V130.818ZM182.512 128.78C181.949 128.78 181.493 129.236 181.493 129.799C181.493 130.362 181.949 130.818 182.512 130.818V128.78ZM176.501 130.818C177.063 130.818 177.52 130.362 177.52 129.799C177.52 129.236 177.063 128.78 176.501 128.78V130.818ZM170.49 128.78C169.927 128.78 169.471 129.236 169.471 129.799C169.471 130.362 169.927 130.818 170.49 130.818V128.78ZM164.479 130.818C165.041 130.818 165.497 130.362 165.497 129.799C165.497 129.236 165.041 128.78 164.479 128.78V130.818ZM158.467 128.78C157.905 128.78 157.449 129.236 157.449 129.799C157.449 130.362 157.905 130.818 158.467 130.818V128.78ZM152.456 130.818C153.019 130.818 153.475 130.362 153.475 129.799C153.475 129.236 153.019 128.78 152.456 128.78V130.818ZM146.445 128.78C145.883 128.78 145.426 129.236 145.426 129.799C145.426 130.362 145.883 130.818 146.445 130.818V128.78ZM140.434 130.818C140.997 130.818 141.453 130.362 141.453 129.799C141.453 129.236 140.997 128.78 140.434 128.78V130.818ZM134.423 128.78C133.86 128.78 133.404 129.236 133.404 129.799C133.404 130.362 133.86 130.818 134.423 130.818V128.78ZM128.412 130.818C128.975 130.818 129.431 130.362 129.431 129.799C129.431 129.236 128.975 128.78 128.412 128.78V130.818ZM122.401 128.78C121.838 128.78 121.382 129.236 121.382 129.799C121.382 130.362 121.838 130.818 122.401 130.818V128.78ZM116.39 130.818C116.952 130.818 117.409 130.362 117.409 129.799C117.409 129.236 116.952 128.78 116.39 128.78V130.818ZM110.379 128.78C109.816 128.78 109.36 129.236 109.36 129.799C109.36 130.362 109.816 130.818 110.379 130.818V128.78ZM104.368 130.818C104.93 130.818 105.386 130.362 105.386 129.799C105.386 129.236 104.93 128.78 104.368 128.78V130.818ZM98.3565 128.78C97.7938 128.78 97.3377 129.236 97.3377 129.799C97.3377 130.362 97.7938 130.818 98.3565 130.818V128.78ZM92.3454 130.818C92.9081 130.818 93.3643 130.362 93.3643 129.799C93.3643 129.236 92.9081 128.78 92.3454 128.78V130.818ZM86.3343 128.78C85.7717 128.78 85.3155 129.236 85.3155 129.799C85.3155 130.362 85.7717 130.818 86.3343 130.818V128.78ZM80.3232 130.818C80.8859 130.818 81.3421 130.362 81.3421 129.799C81.3421 129.236 80.8859 128.78 80.3232 128.78V130.818ZM74.3122 128.78C73.7495 128.78 73.2933 129.236 73.2933 129.799C73.2933 130.362 73.7495 130.818 74.3122 130.818V128.78ZM68.3011 130.818C68.8638 130.818 69.3199 130.362 69.3199 129.799C69.3199 129.236 68.8638 128.78 68.3011 128.78V130.818ZM62.29 128.78C61.7273 128.78 61.2712 129.236 61.2712 129.799C61.2712 130.362 61.7273 130.818 62.29 130.818V128.78ZM56.2789 130.818C56.8416 130.818 57.2978 130.362 57.2978 129.799C57.2978 129.236 56.8416 128.78 56.2789 128.78V130.818ZM50.2679 128.78C49.7052 128.78 49.249 129.236 49.249 129.799C49.249 130.362 49.7052 130.818 50.2679 130.818V128.78ZM44.2568 130.818C44.8195 130.818 45.2756 130.362 45.2756 129.799C45.2756 129.236 44.8195 128.78 44.2568 128.78V130.818ZM38.2457 128.78C37.683 128.78 37.2269 129.236 37.2269 129.799C37.2269 130.362 37.683 130.818 38.2457 130.818V128.78ZM32.2346 130.818C32.7973 130.818 33.2534 130.362 33.2534 129.799C33.2534 129.236 32.7973 128.78 32.2346 128.78V130.818ZM26.2235 128.78C25.6609 128.78 25.2047 129.236 25.2047 129.799C25.2047 130.362 25.6609 130.818 26.2235 130.818V128.78ZM20.2125 130.818C20.7751 130.818 21.2313 130.362 21.2313 129.799C21.2313 129.236 20.7751 128.78 20.2125 128.78V130.818ZM341.806 128.78H338.8V130.818H341.806V128.78ZM332.789 128.78H326.778V130.818H332.789V128.78ZM320.767 128.78H314.756V130.818H320.767V128.78ZM308.745 128.78H302.734V130.818H308.745V128.78ZM296.723 128.78H290.711V130.818H296.723V128.78ZM284.7 128.78H278.689V130.818H284.7V128.78ZM272.678 128.78H266.667V130.818H272.678V128.78ZM260.656 128.78H254.645V130.818H260.656V128.78ZM248.634 128.78H242.623V130.818H248.634V128.78ZM236.612 128.78H230.601V130.818H236.612V128.78ZM224.589 128.78H218.578V130.818H224.589V128.78ZM212.567 128.78H206.556V130.818H212.567V128.78ZM200.545 128.78H194.534V130.818H200.545V128.78ZM188.523 128.78H182.512V130.818H188.523V128.78ZM176.501 128.78H170.49V130.818H176.501V128.78ZM164.479 128.78H158.467V130.818H164.479V128.78ZM152.456 128.78H146.445V130.818H152.456V128.78ZM140.434 128.78H134.423V130.818H140.434V128.78ZM128.412 128.78H122.401V130.818H128.412V128.78ZM116.39 128.78H110.379V130.818H116.39V128.78ZM104.368 128.78H98.3565V130.818H104.368V128.78ZM92.3454 128.78H86.3343V130.818H92.3454V128.78ZM80.3232 128.78H74.3122V130.818H80.3232V128.78ZM68.3011 128.78H62.29V130.818H68.3011V128.78ZM56.2789 128.78H50.2679V130.818H56.2789V128.78ZM44.2568 128.78H38.2457V130.818H44.2568V128.78ZM32.2346 128.78H26.2235V130.818H32.2346V128.78ZM20.2125 128.78H17.2069V130.818H20.2125V128.78Z" fill="#D9D9D9" fill-opacity="0.23"/>
<g filter="url(#filter1_d_114_162)">
<circle cx="13.4374" cy="129.697" r="7.43745" fill="#CE7A7A"/>
</g>
<g filter="url(#filter2_d_114_162)">
<path fill-rule="evenodd" clip-rule="evenodd" d="M352.627 250.515C354.418 248.161 355.493 245.148 355.493 241.864C355.493 234.327 349.829 228.217 342.842 228.217C335.854 228.217 330.19 234.327 330.19 241.864C330.19 245.147 331.265 248.16 333.055 250.514L341.122 263.207C341.922 264.467 343.761 264.467 344.561 263.207L352.627 250.515Z" fill="#5487EA"/>
<path d="M339.297 249.645H337.095L342.043 235.894H344.44L349.389 249.645H347.187L343.299 238.391H343.192L339.297 249.645ZM339.667 244.26H346.811V246.005H339.667V244.26Z" fill="white"/>
</g>
<g filter="url(#filter3_d_114_162)">
<path fill-rule="evenodd" clip-rule="evenodd" d="M352.832 72.6287C354.623 70.274 355.698 67.2612 355.698 63.9775C355.698 56.4402 350.034 50.3301 343.047 50.3301C336.059 50.3301 330.395 56.4402 330.395 63.9775C330.395 67.2607 331.47 70.2731 333.26 72.6277L341.327 85.3206C342.127 86.5802 343.966 86.5802 344.766 85.3206L352.832 72.6287Z" fill="#5487EA"/>
<path d="M338.34 71.7578V58.007H343.376C344.352 58.007 345.16 58.1681 345.8 58.4904C346.44 58.8082 346.919 59.2402 347.237 59.7863C347.555 60.3279 347.713 60.9389 347.713 61.6192C347.713 62.1922 347.608 62.6756 347.398 63.0695C347.187 63.459 346.905 63.7723 346.552 64.0095C346.203 64.2423 345.818 64.4124 345.397 64.5198V64.6541C345.854 64.6765 346.299 64.8242 346.733 65.0972C347.172 65.3658 347.534 65.7485 347.821 66.2454C348.107 66.7422 348.251 67.3465 348.251 68.0582C348.251 68.761 348.085 69.3921 347.754 69.9517C347.427 70.5067 346.921 70.9476 346.236 71.2744C345.551 71.5967 344.676 71.7578 343.611 71.7578H338.34ZM340.415 69.9785H343.41C344.403 69.9785 345.115 69.7861 345.545 69.4011C345.974 69.0161 346.189 68.535 346.189 67.9575C346.189 67.5233 346.08 67.125 345.86 66.7624C345.641 66.3998 345.328 66.1111 344.92 65.8962C344.517 65.6814 344.038 65.574 343.483 65.574H340.415V69.9785ZM340.415 63.9558H343.195C343.66 63.9558 344.079 63.8663 344.45 63.6872C344.826 63.5082 345.124 63.2575 345.343 62.9352C345.567 62.6085 345.679 62.2235 345.679 61.7804C345.679 61.2119 345.48 60.7352 345.081 60.3503C344.683 59.9653 344.072 59.7728 343.248 59.7728H340.415V63.9558Z" fill="white"/>
</g>
<g filter="url(#filter4_d_114_162)">
<circle cx="178.692" cy="214.463" r="7.43745" fill="#64CE9B"/>
</g>
<path d="M373.574 85.7217C373.354 85.7217 373.171 85.6484 373.024 85.5017C372.89 85.3549 372.822 85.1777 372.822 84.9698V83.2276L373.189 83.5761C372.333 83.5638 371.563 83.4538 370.878 83.246C370.194 83.0259 369.619 82.763 369.155 82.4574C368.983 82.3474 368.861 82.2068 368.788 82.0356C368.714 81.8644 368.69 81.6933 368.714 81.5221C368.751 81.3509 368.824 81.2042 368.934 81.082C369.045 80.9597 369.179 80.8864 369.338 80.8619C369.497 80.8375 369.68 80.8864 369.888 81.0086C370.267 81.2531 370.738 81.4732 371.3 81.6688C371.875 81.8644 372.572 81.9622 373.391 81.9622C374.051 81.9622 374.589 81.8767 375.005 81.7055C375.433 81.5343 375.744 81.302 375.94 81.0086C376.148 80.7152 376.252 80.3729 376.252 79.9816C376.252 79.6638 376.178 79.3887 376.032 79.1564C375.897 78.9241 375.671 78.7285 375.353 78.5695C375.035 78.3984 374.613 78.2578 374.088 78.1478L372.199 77.7443C371.086 77.4998 370.255 77.0963 369.705 76.5339C369.167 75.9715 368.898 75.2319 368.898 74.3149C368.898 73.5936 369.069 72.9517 369.411 72.3893C369.766 71.8269 370.255 71.3807 370.878 71.0506C371.514 70.7205 372.254 70.531 373.097 70.4821L372.822 70.7388V69.07C372.822 68.8621 372.89 68.6849 373.024 68.5382C373.171 68.3914 373.354 68.3181 373.574 68.3181C373.782 68.3181 373.959 68.3914 374.106 68.5382C374.253 68.6849 374.326 68.8621 374.326 69.07V70.7388L374.014 70.4821C374.577 70.4943 375.176 70.6105 375.812 70.8305C376.447 71.0384 376.991 71.3379 377.444 71.7291C377.59 71.8514 377.682 71.992 377.719 72.1509C377.768 72.3099 377.768 72.4627 377.719 72.6094C377.682 72.7561 377.609 72.8784 377.499 72.9762C377.389 73.074 377.248 73.129 377.077 73.1412C376.906 73.1535 376.722 73.0923 376.527 72.9578C376.136 72.6889 375.702 72.4749 375.225 72.316C374.76 72.157 374.204 72.0776 373.556 72.0776C372.7 72.0776 372.022 72.2793 371.52 72.6828C371.019 73.0862 370.768 73.6119 370.768 74.2599C370.768 74.7489 370.921 75.1463 371.227 75.4519C371.532 75.7454 372.046 75.9715 372.767 76.1305L374.693 76.5339C375.867 76.7907 376.735 77.188 377.297 77.726C377.859 78.2639 378.141 78.9791 378.141 79.8716C378.141 80.5685 377.963 81.1859 377.609 81.7238C377.254 82.2496 376.765 82.6713 376.142 82.9892C375.53 83.2949 374.821 83.4844 374.014 83.5577L374.326 83.2093V84.9698C374.326 85.1777 374.253 85.3549 374.106 85.5017C373.972 85.6484 373.794 85.7217 373.574 85.7217ZM386.563 83.4844C386.307 83.4844 386.105 83.411 385.958 83.2643C385.811 83.1176 385.738 82.922 385.738 82.6775C385.738 82.4207 385.811 82.2251 385.958 82.0906C386.105 81.9561 386.307 81.8889 386.563 81.8889H388.801V72.1326H389.754L387.077 73.8381C386.881 73.9481 386.698 73.9909 386.527 73.9665C386.368 73.942 386.227 73.8748 386.105 73.7648C385.995 73.6547 385.915 73.5202 385.866 73.3613C385.83 73.2024 385.842 73.0373 385.903 72.8661C385.976 72.695 386.105 72.5544 386.288 72.4443L388.819 70.8489C389.027 70.7266 389.222 70.6288 389.406 70.5554C389.601 70.4699 389.785 70.4271 389.956 70.4271C390.164 70.4271 390.335 70.4882 390.47 70.6105C390.616 70.7205 390.69 70.91 390.69 71.179V81.8889H392.744C393.013 81.8889 393.22 81.9561 393.367 82.0906C393.514 82.2251 393.587 82.4207 393.587 82.6775C393.587 82.9342 393.514 83.1359 393.367 83.2826C393.22 83.4171 393.013 83.4844 392.744 83.4844H386.563ZM400.42 83.6494C399.748 83.6494 399.069 83.5577 398.385 83.3743C397.7 83.1787 397.077 82.8792 396.514 82.4757C396.331 82.3657 396.209 82.2251 396.147 82.0539C396.086 81.8828 396.074 81.7177 396.111 81.5588C396.147 81.3876 396.221 81.247 396.331 81.137C396.453 81.027 396.6 80.9658 396.771 80.9536C396.942 80.9292 397.125 80.9781 397.321 81.1003C397.798 81.406 398.287 81.6383 398.788 81.7972C399.302 81.9561 399.834 82.0356 400.384 82.0356C400.946 82.0356 401.429 81.9317 401.832 81.7238C402.236 81.516 402.542 81.2287 402.749 80.8619C402.969 80.4829 403.08 80.0428 403.08 79.5415C403.08 78.7713 402.853 78.1416 402.401 77.6526C401.949 77.1636 401.319 76.919 400.512 76.919C400.047 76.919 399.613 77.0046 399.21 77.1758C398.807 77.3347 398.421 77.6037 398.055 77.9827C397.969 78.0805 397.853 78.1722 397.706 78.2578C397.572 78.3311 397.419 78.3678 397.248 78.3678C396.991 78.3678 396.795 78.3006 396.661 78.1661C396.526 78.0316 396.459 77.8482 396.459 77.6159V71.399C396.459 71.1301 396.533 70.9222 396.679 70.7755C396.826 70.6288 397.034 70.5554 397.303 70.5554H403.446C403.715 70.5554 403.923 70.6227 404.07 70.7572C404.217 70.8917 404.29 71.0873 404.29 71.344C404.29 71.6008 404.217 71.8025 404.07 71.9492C403.923 72.0837 403.715 72.1509 403.446 72.1509H398.311V76.809H397.798C398.128 76.3444 398.562 75.9838 399.1 75.727C399.65 75.4703 400.255 75.3419 400.916 75.3419C401.735 75.3419 402.444 75.5131 403.043 75.8554C403.642 76.1977 404.107 76.6806 404.437 77.3042C404.767 77.9155 404.932 78.6307 404.932 79.4498C404.932 80.2812 404.748 81.0147 404.382 81.6505C404.015 82.274 403.495 82.763 402.823 83.1176C402.15 83.4721 401.35 83.6494 400.42 83.6494ZM411.215 83.6494C409.711 83.6494 408.562 83.0809 407.767 81.9439C406.985 80.7947 406.593 79.1503 406.593 77.0107C406.593 75.5559 406.771 74.3394 407.125 73.3613C407.48 72.3832 407.999 71.6435 408.684 71.1423C409.369 70.641 410.212 70.3904 411.215 70.3904C412.731 70.3904 413.88 70.9528 414.663 72.0776C415.445 73.1901 415.836 74.8284 415.836 76.9924C415.836 78.4228 415.659 79.6332 415.304 80.6235C414.95 81.6138 414.43 82.3657 413.746 82.8792C413.061 83.3927 412.217 83.6494 411.215 83.6494ZM411.215 82.0723C412.156 82.0723 412.847 81.6627 413.287 80.8436C413.74 80.0122 413.966 78.7285 413.966 76.9924C413.966 75.2441 413.74 73.9726 413.287 73.1779C412.847 72.371 412.156 71.9675 411.215 71.9675C410.286 71.9675 409.595 72.371 409.143 73.1779C408.69 73.9726 408.464 75.2441 408.464 76.9924C408.464 78.7285 408.69 80.0122 409.143 80.8436C409.595 81.6627 410.286 82.0723 411.215 82.0723ZM422.211 83.6494C420.707 83.6494 419.558 83.0809 418.763 81.9439C417.981 80.7947 417.59 79.1503 417.59 77.0107C417.59 75.5559 417.767 74.3394 418.121 73.3613C418.476 72.3832 418.996 71.6435 419.68 71.1423C420.365 70.641 421.209 70.3904 422.211 70.3904C423.727 70.3904 424.876 70.9528 425.659 72.0776C426.441 73.1901 426.832 74.8284 426.832 76.9924C426.832 78.4228 426.655 79.6332 426.301 80.6235C425.946 81.6138 425.426 82.3657 424.742 82.8792C424.057 83.3927 423.214 83.6494 422.211 83.6494ZM422.211 82.0723C423.152 82.0723 423.843 81.6627 424.283 80.8436C424.736 80.0122 424.962 78.7285 424.962 76.9924C424.962 75.2441 424.736 73.9726 424.283 73.1779C423.843 72.371 423.152 71.9675 422.211 71.9675C421.282 71.9675 420.591 72.371 420.139 73.1779C419.686 73.9726 419.46 75.2441 419.46 76.9924C419.46 78.7285 419.686 80.0122 420.139 80.8436C420.591 81.6627 421.282 82.0723 422.211 82.0723ZM370.108 103.914C369.815 103.914 369.589 103.834 369.43 103.675C369.271 103.516 369.191 103.284 369.191 102.978V92.3419C369.191 92.0362 369.271 91.804 369.43 91.645C369.589 91.4861 369.809 91.4066 370.09 91.4066C370.383 91.4066 370.609 91.4861 370.768 91.645C370.927 91.804 371.007 92.0362 371.007 92.3419V93.9374L370.805 93.5523C371.001 92.8921 371.386 92.3663 371.96 91.9751C372.535 91.5717 373.214 91.3699 373.996 91.3699C374.791 91.3699 375.481 91.5594 376.068 91.9384C376.667 92.3174 377.126 92.8493 377.444 93.5339C377.774 94.2186 377.939 95.0438 377.939 96.0097C377.939 96.9511 377.774 97.7763 377.444 98.4854C377.126 99.1823 376.674 99.7203 376.087 100.099C375.5 100.466 374.803 100.649 373.996 100.649C373.226 100.649 372.553 100.454 371.979 100.063C371.404 99.6713 371.019 99.1517 370.823 98.5038H371.043V102.978C371.043 103.284 370.958 103.516 370.787 103.675C370.628 103.834 370.402 103.914 370.108 103.914ZM373.538 99.219C374.051 99.219 374.497 99.0967 374.876 98.8522C375.255 98.6077 375.549 98.247 375.757 97.7702C375.964 97.2934 376.068 96.7066 376.068 96.0097C376.068 94.9582 375.836 94.1636 375.371 93.6256C374.919 93.0877 374.308 92.8187 373.538 92.8187C373.036 92.8187 372.59 92.941 372.199 93.1855C371.82 93.4178 371.526 93.7723 371.319 94.2491C371.111 94.726 371.007 95.3128 371.007 96.0097C371.007 97.0489 371.239 97.8436 371.704 98.3937C372.168 98.9439 372.78 99.219 373.538 99.219ZM380.962 100.613C380.656 100.613 380.424 100.533 380.265 100.374C380.106 100.203 380.026 99.9709 380.026 99.6775V92.3419C380.026 92.0362 380.106 91.804 380.265 91.645C380.424 91.4861 380.644 91.4066 380.925 91.4066C381.218 91.4066 381.438 91.4861 381.585 91.645C381.744 91.804 381.823 92.0362 381.823 92.3419V93.6806H381.64C381.836 92.9471 382.196 92.3908 382.722 92.0118C383.248 91.6328 383.92 91.4127 384.739 91.3516C384.959 91.3394 385.131 91.3944 385.253 91.5166C385.387 91.6389 385.461 91.8284 385.473 92.0852C385.497 92.3419 385.442 92.5497 385.308 92.7087C385.173 92.8554 384.966 92.941 384.684 92.9654L384.336 93.0021C383.541 93.0755 382.936 93.3261 382.52 93.754C382.105 94.1819 381.897 94.7687 381.897 95.5145V99.6775C381.897 99.9709 381.817 100.203 381.658 100.374C381.512 100.533 381.279 100.613 380.962 100.613ZM387.784 100.594C387.491 100.594 387.265 100.509 387.106 100.338C386.947 100.154 386.868 99.9036 386.868 99.5858V92.4336C386.868 92.1157 386.947 91.8712 387.106 91.7C387.265 91.5289 387.491 91.4433 387.784 91.4433C388.078 91.4433 388.304 91.5289 388.463 91.7C388.634 91.8712 388.72 92.1157 388.72 92.4336V99.5858C388.72 99.9036 388.64 100.154 388.481 100.338C388.322 100.509 388.09 100.594 387.784 100.594ZM387.784 89.536C387.418 89.536 387.13 89.4443 386.923 89.261C386.727 89.0776 386.629 88.8208 386.629 88.4907C386.629 88.1484 386.727 87.8917 386.923 87.7205C387.13 87.5371 387.418 87.4454 387.784 87.4454C388.151 87.4454 388.432 87.5371 388.628 87.7205C388.836 87.8917 388.94 88.1484 388.94 88.4907C388.94 88.8208 388.836 89.0776 388.628 89.261C388.432 89.4443 388.151 89.536 387.784 89.536ZM395.27 100.649C394.353 100.649 393.558 100.46 392.886 100.081C392.225 99.6897 391.712 99.1456 391.345 98.4488C390.978 97.7397 390.795 96.9083 390.795 95.9547C390.795 95.2456 390.899 94.6098 391.107 94.0474C391.315 93.4728 391.608 92.9899 391.987 92.5986C392.378 92.2074 392.849 91.9079 393.399 91.7C393.962 91.48 394.585 91.3699 395.27 91.3699C395.698 91.3699 396.144 91.4372 396.608 91.5717C397.085 91.6939 397.525 91.9018 397.929 92.1952C398.088 92.293 398.186 92.4153 398.222 92.562C398.271 92.6964 398.277 92.837 398.241 92.9838C398.216 93.1305 398.149 93.2588 398.039 93.3689C397.941 93.4667 397.819 93.5278 397.672 93.5523C397.525 93.5645 397.366 93.5217 397.195 93.4239C396.902 93.2161 396.602 93.0693 396.297 92.9838C395.991 92.886 395.698 92.837 395.416 92.837C394.976 92.837 394.585 92.9104 394.243 93.0571C393.913 93.1916 393.631 93.3933 393.399 93.6623C393.167 93.919 392.99 94.243 392.867 94.6343C392.757 95.0255 392.702 95.4717 392.702 95.973C392.702 96.9755 392.935 97.7641 393.399 98.3387C393.876 98.9011 394.548 99.1823 395.416 99.1823C395.698 99.1823 395.991 99.1395 396.297 99.0539C396.602 98.9684 396.902 98.8216 397.195 98.6138C397.366 98.516 397.525 98.4793 397.672 98.5038C397.819 98.5282 397.935 98.5955 398.021 98.7055C398.118 98.8033 398.18 98.9256 398.204 99.0723C398.241 99.2068 398.235 99.3474 398.186 99.4941C398.137 99.6408 398.033 99.763 397.874 99.8609C397.483 100.142 397.055 100.344 396.59 100.466C396.138 100.588 395.698 100.649 395.27 100.649ZM403.908 100.649C402.93 100.649 402.086 100.466 401.377 100.099C400.68 99.7203 400.136 99.1884 399.745 98.5038C399.366 97.8069 399.176 96.9816 399.176 96.028C399.176 95.0988 399.366 94.2858 399.745 93.5889C400.124 92.8921 400.644 92.348 401.304 91.9568C401.964 91.5656 402.716 91.3699 403.559 91.3699C404.183 91.3699 404.739 91.4739 405.228 91.6817C405.717 91.8773 406.133 92.1707 406.475 92.562C406.83 92.941 407.093 93.4056 407.264 93.9557C407.447 94.5059 407.539 95.1233 407.539 95.808C407.539 96.0158 407.478 96.1747 407.356 96.2848C407.233 96.3826 407.05 96.4315 406.805 96.4315H400.644V95.2945H406.292L405.98 95.5512C405.98 94.9399 405.889 94.4203 405.705 93.9924C405.534 93.5645 405.271 93.2405 404.917 93.0204C404.574 92.7881 404.146 92.672 403.633 92.672C403.058 92.672 402.569 92.8065 402.166 93.0755C401.775 93.3444 401.475 93.7173 401.267 94.1941C401.059 94.6709 400.955 95.2272 400.955 95.863V95.973C400.955 97.0489 401.206 97.8619 401.707 98.4121C402.221 98.95 402.96 99.219 403.926 99.219C404.293 99.219 404.678 99.1701 405.082 99.0723C405.497 98.9745 405.889 98.8094 406.255 98.5771C406.463 98.4549 406.647 98.3999 406.805 98.4121C406.977 98.4243 407.111 98.4793 407.209 98.5771C407.319 98.6749 407.386 98.7972 407.411 98.9439C407.435 99.0906 407.411 99.2434 407.337 99.4024C407.264 99.5491 407.136 99.6836 406.952 99.8058C406.537 100.087 406.054 100.301 405.503 100.448C404.953 100.582 404.421 100.649 403.908 100.649ZM415.622 100.484C415.292 100.484 415.036 100.399 414.852 100.228C414.681 100.044 414.596 99.7875 414.596 99.4574V88.5824C414.596 88.2523 414.681 88.0017 414.852 87.8305C415.036 87.6471 415.292 87.5554 415.622 87.5554H419.987C420.88 87.5554 421.638 87.6899 422.261 87.9589C422.897 88.2279 423.38 88.613 423.71 89.1142C424.052 89.6155 424.223 90.2207 424.223 90.9298C424.223 91.7123 423.991 92.3725 423.527 92.9104C423.062 93.4483 422.432 93.809 421.638 93.9924V93.7173C422.542 93.8396 423.251 94.1819 423.765 94.7443C424.278 95.2945 424.535 96.0158 424.535 96.9083C424.535 98.0575 424.156 98.9439 423.398 99.5674C422.64 100.179 421.577 100.484 420.207 100.484H415.622ZM416.429 99.0173H419.987C420.904 99.0173 421.583 98.84 422.023 98.4854C422.463 98.1187 422.683 97.5685 422.683 96.8349C422.683 96.1014 422.463 95.5573 422.023 95.2028C421.583 94.8482 420.904 94.6709 419.987 94.6709H416.429V99.0173ZM416.429 93.2038H419.694C420.574 93.2038 421.24 93.0266 421.693 92.672C422.145 92.3174 422.371 91.7978 422.371 91.1132C422.371 90.4285 422.145 89.9089 421.693 89.5544C421.24 89.1998 420.574 89.0226 419.694 89.0226H416.429V93.2038Z" fill="white"/>
<rect x="360.35" y="84.1543" width="2.03766" height="11.2071" transform="rotate(90 360.35 84.1543)" fill="white"/>
<path d="M373.391 219.356C372.413 219.356 371.569 219.173 370.86 218.806C370.163 218.427 369.619 217.895 369.228 217.211C368.849 216.514 368.659 215.689 368.659 214.735C368.659 213.806 368.849 212.993 369.228 212.296C369.607 211.599 370.127 211.055 370.787 210.664C371.447 210.273 372.199 210.077 373.042 210.077C373.666 210.077 374.222 210.181 374.711 210.389C375.2 210.584 375.616 210.878 375.958 211.269C376.313 211.648 376.576 212.113 376.747 212.663C376.93 213.213 377.022 213.83 377.022 214.515C377.022 214.723 376.961 214.882 376.839 214.992C376.716 215.09 376.533 215.139 376.288 215.139H370.127V214.001H375.775L375.463 214.258C375.463 213.647 375.371 213.127 375.188 212.699C375.017 212.272 374.754 211.948 374.399 211.727C374.057 211.495 373.629 211.379 373.116 211.379C372.541 211.379 372.052 211.514 371.649 211.782C371.257 212.051 370.958 212.424 370.75 212.901C370.542 213.378 370.438 213.934 370.438 214.57V214.68C370.438 215.756 370.689 216.569 371.19 217.119C371.704 217.657 372.443 217.926 373.409 217.926C373.776 217.926 374.161 217.877 374.565 217.779C374.98 217.682 375.371 217.516 375.738 217.284C375.946 217.162 376.129 217.107 376.288 217.119C376.46 217.131 376.594 217.186 376.692 217.284C376.802 217.382 376.869 217.504 376.894 217.651C376.918 217.798 376.894 217.95 376.82 218.109C376.747 218.256 376.618 218.391 376.435 218.513C376.019 218.794 375.536 219.008 374.986 219.155C374.436 219.289 373.904 219.356 373.391 219.356ZM379.958 219.32C379.665 219.32 379.439 219.24 379.28 219.081C379.121 218.91 379.041 218.678 379.041 218.384V211.049C379.041 210.743 379.121 210.511 379.28 210.352C379.439 210.193 379.659 210.114 379.94 210.114C380.233 210.114 380.453 210.193 380.6 210.352C380.759 210.511 380.838 210.743 380.838 211.049V212.479L380.637 212.149C380.906 211.465 381.327 210.951 381.902 210.609C382.477 210.254 383.137 210.077 383.883 210.077C384.592 210.077 385.179 210.211 385.643 210.48C386.12 210.737 386.475 211.135 386.707 211.672C386.939 212.198 387.055 212.864 387.055 213.671V218.384C387.055 218.678 386.976 218.91 386.817 219.081C386.658 219.24 386.432 219.32 386.138 219.32C385.833 219.32 385.6 219.24 385.442 219.081C385.283 218.91 385.203 218.678 385.203 218.384V213.781C385.203 213.011 385.05 212.449 384.745 212.094C384.451 211.74 383.987 211.562 383.351 211.562C382.605 211.562 382.006 211.795 381.554 212.259C381.114 212.724 380.893 213.347 380.893 214.13V218.384C380.893 219.008 380.582 219.32 379.958 219.32ZM393.019 219.356C392.236 219.356 391.545 219.173 390.946 218.806C390.359 218.427 389.901 217.889 389.571 217.192C389.241 216.483 389.076 215.658 389.076 214.717C389.076 213.751 389.241 212.926 389.571 212.241C389.901 211.556 390.359 211.024 390.946 210.645C391.545 210.266 392.236 210.077 393.019 210.077C393.801 210.077 394.474 210.273 395.036 210.664C395.611 211.043 395.996 211.556 396.191 212.204H395.99V207.069C395.99 206.764 396.069 206.531 396.228 206.373C396.387 206.214 396.613 206.134 396.906 206.134C397.2 206.134 397.426 206.214 397.585 206.373C397.756 206.531 397.842 206.764 397.842 207.069V218.384C397.842 218.678 397.762 218.91 397.603 219.081C397.444 219.24 397.218 219.32 396.925 219.32C396.631 219.32 396.405 219.24 396.246 219.081C396.087 218.91 396.008 218.678 396.008 218.384V216.771L396.21 217.174C396.014 217.834 395.629 218.366 395.054 218.77C394.492 219.161 393.813 219.356 393.019 219.356ZM393.495 217.926C393.997 217.926 394.437 217.804 394.816 217.559C395.195 217.315 395.488 216.954 395.696 216.477C395.916 216 396.026 215.414 396.026 214.717C396.026 213.665 395.794 212.871 395.329 212.333C394.865 211.795 394.253 211.526 393.495 211.526C392.982 211.526 392.536 211.648 392.157 211.893C391.778 212.125 391.478 212.479 391.258 212.956C391.05 213.433 390.946 214.02 390.946 214.717C390.946 215.756 391.179 216.551 391.643 217.101C392.108 217.651 392.725 217.926 393.495 217.926ZM406.195 222.621C405.902 222.621 405.675 222.541 405.516 222.382C405.358 222.223 405.278 221.991 405.278 221.685V211.049C405.278 210.743 405.358 210.511 405.516 210.352C405.675 210.193 405.895 210.114 406.177 210.114C406.47 210.114 406.696 210.193 406.855 210.352C407.014 210.511 407.094 210.743 407.094 211.049V212.644L406.892 212.259C407.087 211.599 407.473 211.073 408.047 210.682C408.622 210.279 409.3 210.077 410.083 210.077C410.878 210.077 411.568 210.266 412.155 210.645C412.754 211.024 413.213 211.556 413.531 212.241C413.861 212.926 414.026 213.751 414.026 214.717C414.026 215.658 413.861 216.483 413.531 217.192C413.213 217.889 412.76 218.427 412.173 218.806C411.587 219.173 410.89 219.356 410.083 219.356C409.313 219.356 408.64 219.161 408.066 218.77C407.491 218.378 407.106 217.859 406.91 217.211H407.13V221.685C407.13 221.991 407.045 222.223 406.874 222.382C406.715 222.541 406.488 222.621 406.195 222.621ZM409.624 217.926C410.138 217.926 410.584 217.804 410.963 217.559C411.342 217.315 411.636 216.954 411.843 216.477C412.051 216 412.155 215.414 412.155 214.717C412.155 213.665 411.923 212.871 411.458 212.333C411.006 211.795 410.395 211.526 409.624 211.526C409.123 211.526 408.677 211.648 408.286 211.893C407.907 212.125 407.613 212.479 407.405 212.956C407.198 213.433 407.094 214.02 407.094 214.717C407.094 215.756 407.326 216.551 407.79 217.101C408.255 217.651 408.866 217.926 409.624 217.926ZM417.048 219.32C416.743 219.32 416.51 219.24 416.351 219.081C416.193 218.91 416.113 218.678 416.113 218.384V211.049C416.113 210.743 416.193 210.511 416.351 210.352C416.51 210.193 416.73 210.114 417.012 210.114C417.305 210.114 417.525 210.193 417.672 210.352C417.831 210.511 417.91 210.743 417.91 211.049V212.388H417.727C417.922 211.654 418.283 211.098 418.809 210.719C419.335 210.34 420.007 210.12 420.826 210.059C421.046 210.046 421.217 210.101 421.34 210.224C421.474 210.346 421.547 210.535 421.56 210.792C421.584 211.049 421.529 211.257 421.395 211.416C421.26 211.562 421.052 211.648 420.771 211.672L420.423 211.709C419.628 211.782 419.023 212.033 418.607 212.461C418.191 212.889 417.984 213.476 417.984 214.222V218.384C417.984 218.678 417.904 218.91 417.745 219.081C417.599 219.24 417.366 219.32 417.048 219.32ZM423.871 219.301C423.578 219.301 423.352 219.216 423.193 219.045C423.034 218.861 422.954 218.611 422.954 218.293V211.141C422.954 210.823 423.034 210.578 423.193 210.407C423.352 210.236 423.578 210.15 423.871 210.15C424.165 210.15 424.391 210.236 424.55 210.407C424.721 210.578 424.807 210.823 424.807 211.141V218.293C424.807 218.611 424.727 218.861 424.568 219.045C424.409 219.216 424.177 219.301 423.871 219.301ZM423.871 208.243C423.504 208.243 423.217 208.151 423.009 207.968C422.814 207.785 422.716 207.528 422.716 207.198C422.716 206.855 422.814 206.599 423.009 206.428C423.217 206.244 423.504 206.152 423.871 206.152C424.238 206.152 424.519 206.244 424.715 206.428C424.923 206.599 425.027 206.855 425.027 207.198C425.027 207.528 424.923 207.785 424.715 207.968C424.519 208.151 424.238 208.243 423.871 208.243ZM431.357 219.356C430.44 219.356 429.645 219.167 428.972 218.788C428.312 218.397 427.799 217.853 427.432 217.156C427.065 216.447 426.882 215.615 426.882 214.662C426.882 213.953 426.986 213.317 427.194 212.754C427.401 212.18 427.695 211.697 428.074 211.306C428.465 210.914 428.936 210.615 429.486 210.407C430.048 210.187 430.672 210.077 431.357 210.077C431.784 210.077 432.231 210.144 432.695 210.279C433.172 210.401 433.612 210.609 434.016 210.902C434.175 211 434.272 211.122 434.309 211.269C434.358 211.403 434.364 211.544 434.327 211.691C434.303 211.838 434.236 211.966 434.126 212.076C434.028 212.174 433.906 212.235 433.759 212.259C433.612 212.272 433.453 212.229 433.282 212.131C432.989 211.923 432.689 211.776 432.384 211.691C432.078 211.593 431.784 211.544 431.503 211.544C431.063 211.544 430.672 211.617 430.33 211.764C429.999 211.899 429.718 212.1 429.486 212.369C429.254 212.626 429.076 212.95 428.954 213.341C428.844 213.733 428.789 214.179 428.789 214.68C428.789 215.683 429.021 216.471 429.486 217.046C429.963 217.608 430.635 217.889 431.503 217.889C431.784 217.889 432.078 217.847 432.384 217.761C432.689 217.675 432.989 217.529 433.282 217.321C433.453 217.223 433.612 217.186 433.759 217.211C433.906 217.235 434.022 217.302 434.107 217.413C434.205 217.51 434.266 217.633 434.291 217.779C434.327 217.914 434.321 218.054 434.272 218.201C434.224 218.348 434.12 218.47 433.961 218.568C433.569 218.849 433.142 219.051 432.677 219.173C432.225 219.295 431.784 219.356 431.357 219.356ZM439.995 219.356C439.017 219.356 438.173 219.173 437.464 218.806C436.767 218.427 436.223 217.895 435.832 217.211C435.453 216.514 435.263 215.689 435.263 214.735C435.263 213.806 435.453 212.993 435.832 212.296C436.211 211.599 436.73 211.055 437.391 210.664C438.051 210.273 438.803 210.077 439.646 210.077C440.27 210.077 440.826 210.181 441.315 210.389C441.804 210.584 442.22 210.878 442.562 211.269C442.917 211.648 443.18 212.113 443.351 212.663C443.534 213.213 443.626 213.83 443.626 214.515C443.626 214.723 443.565 214.882 443.442 214.992C443.32 215.09 443.137 215.139 442.892 215.139H436.73V214.001H442.379L442.067 214.258C442.067 213.647 441.975 213.127 441.792 212.699C441.621 212.272 441.358 211.948 441.003 211.727C440.661 211.495 440.233 211.379 439.72 211.379C439.145 211.379 438.656 211.514 438.253 211.782C437.861 212.051 437.562 212.424 437.354 212.901C437.146 213.378 437.042 213.934 437.042 214.57V214.68C437.042 215.756 437.293 216.569 437.794 217.119C438.308 217.657 439.047 217.926 440.013 217.926C440.38 217.926 440.765 217.877 441.168 217.779C441.584 217.682 441.975 217.516 442.342 217.284C442.55 217.162 442.733 217.107 442.892 217.119C443.063 217.131 443.198 217.186 443.296 217.284C443.406 217.382 443.473 217.504 443.497 217.651C443.522 217.798 443.497 217.95 443.424 218.109C443.351 218.256 443.222 218.391 443.039 218.513C442.623 218.794 442.14 219.008 441.59 219.155C441.04 219.289 440.508 219.356 439.995 219.356Z" fill="white"/>
<rect x="360.35" y="213.342" width="2.03766" height="11.2071" transform="rotate(90 360.35 213.342)" fill="white"/>
<path d="M372.531 134.794C371.993 134.794 371.437 134.733 370.862 134.611C370.3 134.488 369.78 134.28 369.304 133.987C369.145 133.877 369.035 133.755 368.974 133.62C368.912 133.486 368.888 133.351 368.9 133.217C368.925 133.07 368.98 132.948 369.065 132.85C369.163 132.74 369.279 132.673 369.414 132.648C369.56 132.624 369.713 132.654 369.872 132.74C370.349 133.009 370.807 133.198 371.248 133.309C371.688 133.406 372.122 133.455 372.55 133.455C373.198 133.455 373.687 133.339 374.017 133.107C374.347 132.874 374.512 132.563 374.512 132.171C374.512 131.854 374.402 131.609 374.182 131.438C373.962 131.255 373.632 131.114 373.191 131.016L371.449 130.668C370.691 130.509 370.117 130.228 369.725 129.824C369.334 129.421 369.139 128.907 369.139 128.284C369.139 127.721 369.291 127.232 369.597 126.817C369.903 126.401 370.331 126.083 370.881 125.863C371.431 125.631 372.067 125.514 372.788 125.514C373.326 125.514 373.833 125.582 374.31 125.716C374.787 125.851 375.227 126.052 375.631 126.321C375.789 126.407 375.893 126.523 375.942 126.67C375.991 126.804 375.997 126.939 375.961 127.073C375.936 127.208 375.875 127.33 375.777 127.44C375.679 127.538 375.557 127.599 375.41 127.623C375.276 127.636 375.123 127.599 374.952 127.513C374.585 127.281 374.218 127.116 373.852 127.018C373.497 126.92 373.143 126.872 372.788 126.872C372.14 126.872 371.651 126.994 371.321 127.238C371.003 127.471 370.844 127.788 370.844 128.192C370.844 128.498 370.942 128.748 371.138 128.944C371.333 129.139 371.639 129.28 372.054 129.366L373.797 129.714C374.591 129.873 375.19 130.142 375.594 130.521C376.01 130.9 376.217 131.413 376.217 132.061C376.217 132.905 375.881 133.571 375.209 134.06C374.536 134.549 373.644 134.794 372.531 134.794ZM382.003 134.794C381.27 134.794 380.652 134.666 380.151 134.409C379.65 134.152 379.277 133.773 379.032 133.272C378.788 132.771 378.666 132.159 378.666 131.438V127.11H377.565C377.321 127.11 377.131 127.049 376.997 126.927C376.862 126.792 376.795 126.615 376.795 126.395C376.795 126.162 376.862 125.985 376.997 125.863C377.131 125.741 377.321 125.68 377.565 125.68H378.666V123.791C378.666 123.485 378.745 123.253 378.904 123.094C379.075 122.935 379.307 122.855 379.601 122.855C379.894 122.855 380.12 122.935 380.279 123.094C380.438 123.253 380.518 123.485 380.518 123.791V125.68H382.663C382.908 125.68 383.097 125.741 383.232 125.863C383.366 125.985 383.434 126.162 383.434 126.395C383.434 126.615 383.366 126.792 383.232 126.927C383.097 127.049 382.908 127.11 382.663 127.11H380.518V131.291C380.518 131.939 380.652 132.428 380.921 132.758C381.202 133.088 381.655 133.253 382.278 133.253C382.498 133.253 382.688 133.235 382.847 133.198C383.018 133.15 383.159 133.119 383.269 133.107C383.403 133.107 383.513 133.156 383.599 133.253C383.684 133.339 383.727 133.51 383.727 133.767C383.727 133.95 383.69 134.122 383.617 134.28C383.556 134.439 383.44 134.543 383.269 134.592C383.122 134.641 382.92 134.684 382.663 134.721C382.419 134.77 382.199 134.794 382.003 134.794ZM387.748 134.794C387.124 134.794 386.562 134.672 386.06 134.427C385.571 134.183 385.186 133.853 384.905 133.437C384.624 133.021 384.483 132.55 384.483 132.025C384.483 131.365 384.648 130.845 384.978 130.466C385.321 130.075 385.877 129.8 386.647 129.641C387.43 129.47 388.481 129.384 389.802 129.384H390.663V130.521H389.82C388.94 130.521 388.243 130.564 387.729 130.649C387.216 130.735 386.849 130.882 386.629 131.089C386.421 131.285 386.317 131.56 386.317 131.915C386.317 132.379 386.476 132.758 386.794 133.052C387.112 133.333 387.552 133.474 388.114 133.474C388.567 133.474 388.964 133.37 389.306 133.162C389.649 132.942 389.918 132.648 390.113 132.282C390.321 131.915 390.425 131.493 390.425 131.016V128.907C390.425 128.21 390.278 127.709 389.985 127.403C389.691 127.098 389.209 126.945 388.536 126.945C388.145 126.945 387.735 126.994 387.307 127.092C386.892 127.189 386.458 127.354 386.005 127.587C385.798 127.685 385.62 127.715 385.474 127.678C385.327 127.642 385.211 127.562 385.125 127.44C385.04 127.306 384.991 127.165 384.978 127.018C384.978 126.859 385.015 126.706 385.088 126.56C385.174 126.413 385.315 126.303 385.51 126.23C386.048 125.973 386.58 125.79 387.106 125.68C387.631 125.569 388.127 125.514 388.591 125.514C389.41 125.514 390.083 125.643 390.608 125.9C391.146 126.156 391.544 126.548 391.8 127.073C392.057 127.599 392.186 128.278 392.186 129.109V133.822C392.186 134.115 392.112 134.348 391.966 134.519C391.819 134.678 391.605 134.757 391.324 134.757C391.055 134.757 390.841 134.678 390.682 134.519C390.523 134.348 390.443 134.115 390.443 133.822V132.63H390.608C390.511 133.082 390.327 133.474 390.058 133.804C389.802 134.122 389.478 134.366 389.086 134.537C388.695 134.708 388.249 134.794 387.748 134.794ZM395.672 134.757C395.366 134.757 395.134 134.678 394.975 134.519C394.816 134.348 394.737 134.115 394.737 133.822V126.486C394.737 126.181 394.816 125.948 394.975 125.79C395.134 125.631 395.354 125.551 395.635 125.551C395.929 125.551 396.149 125.631 396.296 125.79C396.454 125.948 396.534 126.181 396.534 126.486V127.825H396.351C396.546 127.092 396.907 126.535 397.433 126.156C397.958 125.777 398.631 125.557 399.45 125.496C399.67 125.484 399.841 125.539 399.963 125.661C400.098 125.783 400.171 125.973 400.183 126.23C400.208 126.486 400.153 126.694 400.018 126.853C399.884 127 399.676 127.085 399.395 127.11L399.046 127.147C398.252 127.22 397.646 127.471 397.231 127.899C396.815 128.326 396.607 128.913 396.607 129.659V133.822C396.607 134.115 396.528 134.348 396.369 134.519C396.222 134.678 395.99 134.757 395.672 134.757ZM405.894 134.794C405.16 134.794 404.543 134.666 404.042 134.409C403.54 134.152 403.168 133.773 402.923 133.272C402.678 132.771 402.556 132.159 402.556 131.438V127.11H401.456C401.211 127.11 401.022 127.049 400.887 126.927C400.753 126.792 400.686 126.615 400.686 126.395C400.686 126.162 400.753 125.985 400.887 125.863C401.022 125.741 401.211 125.68 401.456 125.68H402.556V123.791C402.556 123.485 402.636 123.253 402.795 123.094C402.966 122.935 403.198 122.855 403.492 122.855C403.785 122.855 404.011 122.935 404.17 123.094C404.329 123.253 404.408 123.485 404.408 123.791V125.68H406.554C406.799 125.68 406.988 125.741 407.123 125.863C407.257 125.985 407.324 126.162 407.324 126.395C407.324 126.615 407.257 126.792 407.123 126.927C406.988 127.049 406.799 127.11 406.554 127.11H404.408V131.291C404.408 131.939 404.543 132.428 404.812 132.758C405.093 133.088 405.545 133.253 406.169 133.253C406.389 133.253 406.579 133.235 406.738 133.198C406.909 133.15 407.049 133.119 407.159 133.107C407.294 133.107 407.404 133.156 407.489 133.253C407.575 133.339 407.618 133.51 407.618 133.767C407.618 133.95 407.581 134.122 407.508 134.28C407.447 134.439 407.33 134.543 407.159 134.592C407.013 134.641 406.811 134.684 406.554 134.721C406.31 134.77 406.09 134.794 405.894 134.794ZM414.53 138.058C414.236 138.058 414.01 137.979 413.851 137.82C413.692 137.661 413.613 137.429 413.613 137.123V126.486C413.613 126.181 413.692 125.948 413.851 125.79C414.01 125.631 414.23 125.551 414.511 125.551C414.805 125.551 415.031 125.631 415.19 125.79C415.349 125.948 415.428 126.181 415.428 126.486V128.082L415.227 127.697C415.422 127.037 415.807 126.511 416.382 126.12C416.957 125.716 417.635 125.514 418.418 125.514C419.212 125.514 419.903 125.704 420.49 126.083C421.089 126.462 421.548 126.994 421.865 127.678C422.195 128.363 422.361 129.188 422.361 130.154C422.361 131.096 422.195 131.921 421.865 132.63C421.548 133.327 421.095 133.865 420.508 134.244C419.921 134.611 419.225 134.794 418.418 134.794C417.647 134.794 416.975 134.598 416.4 134.207C415.826 133.816 415.441 133.296 415.245 132.648H415.465V137.123C415.465 137.429 415.38 137.661 415.208 137.82C415.049 137.979 414.823 138.058 414.53 138.058ZM417.959 133.364C418.473 133.364 418.919 133.241 419.298 132.997C419.677 132.752 419.97 132.392 420.178 131.915C420.386 131.438 420.49 130.851 420.49 130.154C420.49 129.103 420.258 128.308 419.793 127.77C419.341 127.232 418.729 126.963 417.959 126.963C417.458 126.963 417.012 127.085 416.62 127.33C416.241 127.562 415.948 127.917 415.74 128.394C415.532 128.87 415.428 129.457 415.428 130.154C415.428 131.193 415.661 131.988 416.125 132.538C416.59 133.088 417.201 133.364 417.959 133.364ZM425.383 134.757C425.078 134.757 424.845 134.678 424.686 134.519C424.527 134.348 424.448 134.115 424.448 133.822V126.486C424.448 126.181 424.527 125.948 424.686 125.79C424.845 125.631 425.065 125.551 425.346 125.551C425.64 125.551 425.86 125.631 426.007 125.79C426.166 125.948 426.245 126.181 426.245 126.486V127.825H426.062C426.257 127.092 426.618 126.535 427.144 126.156C427.669 125.777 428.342 125.557 429.161 125.496C429.381 125.484 429.552 125.539 429.674 125.661C429.809 125.783 429.882 125.973 429.895 126.23C429.919 126.486 429.864 126.694 429.729 126.853C429.595 127 429.387 127.085 429.106 127.11L428.758 127.147C427.963 127.22 427.358 127.471 426.942 127.899C426.526 128.326 426.318 128.913 426.318 129.659V133.822C426.318 134.115 426.239 134.348 426.08 134.519C425.933 134.678 425.701 134.757 425.383 134.757ZM432.206 134.739C431.913 134.739 431.686 134.653 431.528 134.482C431.369 134.299 431.289 134.048 431.289 133.73V126.578C431.289 126.26 431.369 126.016 431.528 125.845C431.686 125.673 431.913 125.588 432.206 125.588C432.5 125.588 432.726 125.673 432.885 125.845C433.056 126.016 433.141 126.26 433.141 126.578V133.73C433.141 134.048 433.062 134.299 432.903 134.482C432.744 134.653 432.512 134.739 432.206 134.739ZM432.206 123.681C431.839 123.681 431.552 123.589 431.344 123.405C431.149 123.222 431.051 122.965 431.051 122.635C431.051 122.293 431.149 122.036 431.344 121.865C431.552 121.682 431.839 121.59 432.206 121.59C432.573 121.59 432.854 121.682 433.05 121.865C433.258 122.036 433.361 122.293 433.361 122.635C433.361 122.965 433.258 123.222 433.05 123.405C432.854 123.589 432.573 123.681 432.206 123.681ZM439.691 134.794C438.774 134.794 437.98 134.604 437.307 134.225C436.647 133.834 436.134 133.29 435.767 132.593C435.4 131.884 435.217 131.053 435.217 130.099C435.217 129.39 435.321 128.754 435.528 128.192C435.736 127.617 436.03 127.134 436.409 126.743C436.8 126.352 437.271 126.052 437.821 125.845C438.383 125.624 439.007 125.514 439.691 125.514C440.119 125.514 440.566 125.582 441.03 125.716C441.507 125.838 441.947 126.046 442.351 126.34C442.509 126.438 442.607 126.56 442.644 126.706C442.693 126.841 442.699 126.982 442.662 127.128C442.638 127.275 442.571 127.403 442.461 127.513C442.363 127.611 442.24 127.672 442.094 127.697C441.947 127.709 441.788 127.666 441.617 127.568C441.324 127.361 441.024 127.214 440.718 127.128C440.413 127.03 440.119 126.982 439.838 126.982C439.398 126.982 439.007 127.055 438.664 127.202C438.334 127.336 438.053 127.538 437.821 127.807C437.589 128.064 437.411 128.388 437.289 128.779C437.179 129.17 437.124 129.616 437.124 130.118C437.124 131.12 437.356 131.909 437.821 132.483C438.298 133.046 438.97 133.327 439.838 133.327C440.119 133.327 440.413 133.284 440.718 133.198C441.024 133.113 441.324 132.966 441.617 132.758C441.788 132.661 441.947 132.624 442.094 132.648C442.24 132.673 442.357 132.74 442.442 132.85C442.54 132.948 442.601 133.07 442.626 133.217C442.662 133.351 442.656 133.492 442.607 133.639C442.558 133.785 442.454 133.908 442.296 134.005C441.904 134.287 441.476 134.488 441.012 134.611C440.559 134.733 440.119 134.794 439.691 134.794ZM448.33 134.794C447.352 134.794 446.508 134.611 445.799 134.244C445.102 133.865 444.558 133.333 444.167 132.648C443.788 131.951 443.598 131.126 443.598 130.173C443.598 129.243 443.788 128.43 444.167 127.733C444.546 127.037 445.065 126.493 445.725 126.101C446.386 125.71 447.138 125.514 447.981 125.514C448.605 125.514 449.161 125.618 449.65 125.826C450.139 126.022 450.555 126.315 450.897 126.706C451.252 127.085 451.514 127.55 451.686 128.1C451.869 128.65 451.961 129.268 451.961 129.952C451.961 130.16 451.9 130.319 451.777 130.429C451.655 130.527 451.472 130.576 451.227 130.576H445.065V129.439H450.714L450.402 129.696C450.402 129.084 450.31 128.565 450.127 128.137C449.956 127.709 449.693 127.385 449.338 127.165C448.996 126.933 448.568 126.817 448.055 126.817C447.48 126.817 446.991 126.951 446.587 127.22C446.196 127.489 445.897 127.862 445.689 128.339C445.481 128.815 445.377 129.372 445.377 130.008V130.118C445.377 131.193 445.628 132.006 446.129 132.557C446.642 133.095 447.382 133.364 448.348 133.364C448.715 133.364 449.1 133.315 449.503 133.217C449.919 133.119 450.31 132.954 450.677 132.722C450.885 132.599 451.068 132.544 451.227 132.557C451.398 132.569 451.533 132.624 451.631 132.722C451.741 132.819 451.808 132.942 451.832 133.088C451.857 133.235 451.832 133.388 451.759 133.547C451.686 133.694 451.557 133.828 451.374 133.95C450.958 134.232 450.475 134.446 449.925 134.592C449.375 134.727 448.843 134.794 448.33 134.794Z" fill="white"/>
<rect x="360.554" y="128.779" width="2.03766" height="11.2071" transform="rotate(90 360.554 128.779)" fill="white"/>
<defs>
<filter id="filter0_d_114_162" x="7.85413" y="105.285" width="341.875" height="138.1" filterUnits="userSpaceOnUse" color-interpolation-filters="sRGB">
<feFlood flood-opacity="0" result="BackgroundImageFix"/>
<feColorMatrix in="SourceAlpha" type="matrix" values="0 0 0 0 0 0 0 0 0 0 0 0 0 0 0 0 0 0 127 0" result="hardAlpha"/>
<feOffset dy="3.66778"/>
<feGaussianBlur stdDeviation="2.85272"/>
<feComposite in2="hardAlpha" operator="out"/>
<feColorMatrix type="matrix" values="0 0 0 0 0 0 0 0 0 0 0 0 0 0 0 0 0 0 0.3 0"/>
<feBlend mode="normal" in2="BackgroundImageFix" result="effect1_dropShadow_114_162"/>
<feBlend mode="normal" in="SourceGraphic" in2="effect1_dropShadow_114_162" result="shape"/>
</filter>
<filter id="filter1_d_114_162" x="0.090795" y="118.592" width="26.6934" height="26.6934" filterUnits="userSpaceOnUse" color-interpolation-filters="sRGB">
<feFlood flood-opacity="0" result="BackgroundImageFix"/>
<feColorMatrix in="SourceAlpha" type="matrix" values="0 0 0 0 0 0 0 0 0 0 0 0 0 0 0 0 0 0 127 0" result="hardAlpha"/>
<feMorphology radius="1.63013" operator="dilate" in="SourceAlpha" result="effect1_dropShadow_114_162"/>
<feOffset dy="2.24142"/>
<feGaussianBlur stdDeviation="2.13954"/>
<feComposite in2="hardAlpha" operator="out"/>
<feColorMatrix type="matrix" values="0 0 0 0 0 0 0 0 0 0 0 0 0 0 0 0 0 0 0.39 0"/>
<feBlend mode="normal" in2="BackgroundImageFix" result="effect1_dropShadow_114_162"/>
<feBlend mode="normal" in="SourceGraphic" in2="effect1_dropShadow_114_162" result="shape"/>
</filter>
<filter id="filter2_d_114_162" x="323.058" y="217.417" width="39.5668" height="50.1991" filterUnits="userSpaceOnUse" color-interpolation-filters="sRGB">
<feFlood flood-opacity="0" result="BackgroundImageFix"/>
<feColorMatrix in="SourceAlpha" type="matrix" values="0 0 0 0 0 0 0 0 0 0 0 0 0 0 0 0 0 0 127 0" result="hardAlpha"/>
<feOffset dy="-3.66778"/>
<feGaussianBlur stdDeviation="3.5659"/>
<feComposite in2="hardAlpha" operator="out"/>
<feColorMatrix type="matrix" values="0 0 0 0 0 0 0 0 0 0 0 0 0 0 0 0 0 0 0.27 0"/>
<feBlend mode="normal" in2="BackgroundImageFix" result="effect1_dropShadow_114_162"/>
<feBlend mode="normal" in="SourceGraphic" in2="effect1_dropShadow_114_162" result="shape"/>
</filter>
<filter id="filter3_d_114_162" x="323.263" y="39.5305" width="39.5668" height="50.1991" filterUnits="userSpaceOnUse" color-interpolation-filters="sRGB">
<feFlood flood-opacity="0" result="BackgroundImageFix"/>
<feColorMatrix in="SourceAlpha" type="matrix" values="0 0 0 0 0 0 0 0 0 0 0 0 0 0 0 0 0 0 127 0" result="hardAlpha"/>
<feOffset dy="-3.66778"/>
<feGaussianBlur stdDeviation="3.5659"/>
<feComposite in2="hardAlpha" operator="out"/>
<feColorMatrix type="matrix" values="0 0 0 0 0 0 0 0 0 0 0 0 0 0 0 0 0 0 0.27 0"/>
<feBlend mode="normal" in2="BackgroundImageFix" result="effect1_dropShadow_114_162"/>
<feBlend mode="normal" in="SourceGraphic" in2="effect1_dropShadow_114_162" result="shape"/>
</filter>
<filter id="filter4_d_114_162" x="165.346" y="203.358" width="26.6934" height="26.6934" filterUnits="userSpaceOnUse" color-interpolation-filters="sRGB">
<feFlood flood-opacity="0" result="BackgroundImageFix"/>
<feColorMatrix in="SourceAlpha" type="matrix" values="0 0 0 0 0 0 0 0 0 0 0 0 0 0 0 0 0 0 127 0" result="hardAlpha"/>
<feMorphology radius="1.63013" operator="dilate" in="SourceAlpha" result="effect1_dropShadow_114_162"/>
<feOffset dy="2.24142"/>
<feGaussianBlur stdDeviation="2.13954"/>
<feComposite in2="hardAlpha" operator="out"/>
<feColorMatrix type="matrix" values="0 0 0 0 0 0 0 0 0 0 0 0 0 0 0 0 0 0 0.39 0"/>
<feBlend mode="normal" in2="BackgroundImageFix" result="effect1_dropShadow_114_162"/>
<feBlend mode="normal" in="SourceGraphic" in2="effect1_dropShadow_114_162" result="shape"/>
</filter>
<linearGradient id="paint0_linear_114_162" x1="113.701" y1="178.499" x2="113.701" y2="0" gradientUnits="userSpaceOnUse">
<stop stop-color="#7022D5"/>
<stop offset="1" stop-color="#0B0F73"/>
</linearGradient>
</defs>
</svg>
