<svg width="408" height="121" viewBox="0 0 408 121" fill="none" xmlns="http://www.w3.org/2000/svg">
<rect x="83.9517" y="67.0391" width="239.832" height="25.2669" fill="url(#paint0_linear_114_145)"/>
<path d="M83.9517 92.3066L12.6337 92.3066C5.65641 92.3066 0.000198859 86.6504 0.000199469 79.6732C0.000200079 72.6959 5.6564 67.0397 12.6337 67.0397L83.9517 67.0397L83.9517 92.3066Z" fill="url(#paint1_linear_114_145)"/>
<path d="M323.784 67.0391L395.102 67.0391C402.079 67.0391 407.735 72.6953 407.735 79.6725C407.735 86.6498 402.079 92.306 395.102 92.306H323.784V67.0391Z" fill="url(#paint2_linear_114_145)"/>
<path d="M197.513 103.489V116.826H195.097V103.489H197.513ZM211.09 103.489V116.826H208.94L202.656 107.741H202.545V116.826H200.129V103.489H202.291L208.569 112.58H208.687V103.489H211.09Z" fill="white"/>
<path fill-rule="evenodd" clip-rule="evenodd" d="M100.838 65.7536C103.926 61.6935 105.779 56.4989 105.779 50.8373C105.779 37.8406 96.0123 27.3047 83.9639 27.3047C71.9156 27.3047 62.1484 37.8406 62.1484 50.8373C62.1484 56.4991 64.002 61.694 67.0903 65.7542L83.964 92.3059L100.838 65.7536Z" fill="#5487EA"/>
<path fill-rule="evenodd" clip-rule="evenodd" d="M340.67 65.7544C343.758 61.6941 345.612 56.4992 345.612 50.8373C345.612 37.8406 335.845 27.3047 323.796 27.3047C311.748 27.3047 301.981 37.8406 301.981 50.8373C301.981 56.4987 303.834 61.6933 306.922 65.7533L323.796 92.3059L340.67 65.7544Z" fill="#5A0FBD"/>
<path d="M77.1484 64.2148H73.351L81.8836 40.5039H86.0168L94.5495 64.2148H90.7521L84.0487 44.8108H83.8634L77.1484 64.2148ZM77.7852 54.9296H90.1037V57.9398H77.7852V54.9296Z" fill="white"/>
<path d="M315.589 64.2148V40.5039H324.272C325.955 40.5039 327.348 40.7818 328.452 41.3375C329.555 41.8855 330.381 42.6303 330.929 43.572C331.477 44.5059 331.751 45.5595 331.751 46.7327C331.751 47.7206 331.57 48.5542 331.207 49.2334C330.844 49.9049 330.358 50.4452 329.748 50.8543C329.146 51.2557 328.482 51.549 327.757 51.7342V51.9657C328.544 52.0043 329.312 52.259 330.061 52.7299C330.817 53.193 331.442 53.8529 331.936 54.7096C332.43 55.5664 332.677 56.6084 332.677 57.8356C332.677 59.0474 332.392 60.1357 331.821 61.1005C331.257 62.0576 330.385 62.8178 329.204 63.3813C328.023 63.937 326.514 64.2148 324.677 64.2148H315.589ZM319.166 61.1468H324.33C326.043 61.1468 327.271 60.8149 328.012 60.1511C328.753 59.4873 329.123 58.6576 329.123 57.6619C329.123 56.9132 328.934 56.2263 328.556 55.6011C328.178 54.9759 327.637 54.4781 326.935 54.1076C326.24 53.7371 325.414 53.5519 324.457 53.5519H319.166V61.1468ZM319.166 50.7617H323.959C324.762 50.7617 325.484 50.6073 326.124 50.2986C326.773 49.9898 327.286 49.5576 327.664 49.0019C328.05 48.4384 328.243 47.7747 328.243 47.0105C328.243 46.0303 327.9 45.2083 327.213 44.5445C326.526 43.8807 325.472 43.5488 324.052 43.5488H319.166V50.7617Z" fill="white"/>
<path d="M169.929 86.2617V76.2587H172.287V86.2617H169.929ZM171.114 74.839C170.741 74.839 170.42 74.7152 170.151 74.4678C169.881 74.216 169.747 73.9142 169.747 73.5625C169.747 73.2065 169.881 72.9048 170.151 72.6573C170.42 72.4055 170.741 72.2796 171.114 72.2796C171.492 72.2796 171.813 72.4055 172.078 72.6573C172.347 72.9048 172.482 73.2065 172.482 73.5625C172.482 73.9142 172.347 74.216 172.078 74.4678C171.813 74.7152 171.492 74.839 171.114 74.839ZM177.068 80.4006V86.2617H174.711V76.2587H176.964V77.9584H177.081C177.311 77.3983 177.678 76.9533 178.182 76.6234C178.69 76.2934 179.317 76.1284 180.064 76.1284C180.754 76.1284 181.356 76.276 181.868 76.5713C182.385 76.8665 182.784 77.2941 183.066 77.8542C183.353 78.4143 183.494 79.0937 183.49 79.8926V86.2617H181.132V80.2573C181.132 79.5887 180.958 79.0655 180.611 78.6878C180.268 78.3101 179.793 78.1212 179.185 78.1212C178.772 78.1212 178.406 78.2124 178.084 78.3947C177.767 78.5727 177.518 78.8311 177.335 79.1697C177.157 79.5084 177.068 79.9186 177.068 80.4006ZM190.435 90.0129V76.2587H192.753V77.9128H192.89C193.012 77.6697 193.183 77.4114 193.405 77.1378C193.626 76.86 193.926 76.6234 194.303 76.428C194.681 76.2283 195.163 76.1284 195.749 76.1284C196.522 76.1284 197.219 76.326 197.84 76.7211C198.465 77.1118 198.96 77.6914 199.324 78.4599C199.693 79.224 199.878 80.1618 199.878 81.2732C199.878 82.3716 199.698 83.3051 199.337 84.0736C198.977 84.842 198.486 85.4281 197.866 85.8319C197.245 86.2357 196.541 86.4376 195.756 86.4376C195.183 86.4376 194.707 86.342 194.329 86.151C193.952 85.96 193.648 85.7299 193.418 85.4607C193.192 85.1872 193.016 84.9288 192.89 84.6857H192.792V90.0129H190.435ZM192.747 81.2602C192.747 81.9071 192.838 82.4737 193.02 82.9599C193.207 83.4462 193.474 83.8261 193.821 84.0996C194.173 84.3688 194.599 84.5034 195.098 84.5034C195.619 84.5034 196.055 84.3644 196.407 84.0866C196.759 83.8044 197.023 83.4201 197.201 82.9339C197.384 82.4433 197.475 81.8854 197.475 81.2602C197.475 80.6393 197.386 80.088 197.208 79.606C197.03 79.1241 196.765 78.7464 196.413 78.4729C196.062 78.1994 195.623 78.0626 195.098 78.0626C194.594 78.0626 194.167 78.195 193.815 78.4599C193.463 78.7247 193.196 79.0959 193.014 79.5735C192.836 80.0511 192.747 80.6133 192.747 81.2602ZM201.897 86.2617V76.2587H204.183V77.9258H204.287C204.469 77.3484 204.782 76.9034 205.225 76.5908C205.672 76.2739 206.182 76.1154 206.755 76.1154C206.885 76.1154 207.031 76.1219 207.191 76.1349C207.356 76.1436 207.493 76.1588 207.602 76.1805V78.3492C207.502 78.3144 207.343 78.284 207.126 78.258C206.914 78.2276 206.707 78.2124 206.508 78.2124C206.078 78.2124 205.691 78.3057 205.348 78.4924C205.01 78.6748 204.743 78.9288 204.547 79.2544C204.352 79.58 204.254 79.9555 204.254 80.381V86.2617H201.897ZM213.119 86.4571C212.142 86.4571 211.296 86.2422 210.579 85.8124C209.863 85.3825 209.307 84.7812 208.912 84.0084C208.522 83.2356 208.326 82.3326 208.326 81.2993C208.326 80.266 208.522 79.3607 208.912 78.5836C209.307 77.8065 209.863 77.203 210.579 76.7732C211.296 76.3433 212.142 76.1284 213.119 76.1284C214.096 76.1284 214.943 76.3433 215.659 76.7732C216.376 77.203 216.929 77.8065 217.32 78.5836C217.715 79.3607 217.912 80.266 217.912 81.2993C217.912 82.3326 217.715 83.2356 217.32 84.0084C216.929 84.7812 216.376 85.3825 215.659 85.8124C214.943 86.2422 214.096 86.4571 213.119 86.4571ZM213.132 84.5685C213.662 84.5685 214.105 84.4231 214.461 84.1322C214.817 83.8369 215.082 83.4419 215.255 82.9469C215.433 82.452 215.522 81.9006 215.522 81.2928C215.522 80.6806 215.433 80.127 215.255 79.6321C215.082 79.1328 214.817 78.7356 214.461 78.4403C214.105 78.1451 213.662 77.9975 213.132 77.9975C212.59 77.9975 212.138 78.1451 211.778 78.4403C211.422 78.7356 211.155 79.1328 210.977 79.6321C210.803 80.127 210.716 80.6806 210.716 81.2928C210.716 81.9006 210.803 82.452 210.977 82.9469C211.155 83.4419 211.422 83.8369 211.778 84.1322C212.138 84.4231 212.59 84.5685 213.132 84.5685ZM224.98 76.2587V78.0821H219.067V76.2587H224.98ZM220.545 86.2617V75.3144C220.545 74.6414 220.684 74.0814 220.962 73.6342C221.244 73.187 221.622 72.8527 222.095 72.6313C222.568 72.4098 223.094 72.2991 223.671 72.2991C224.079 72.2991 224.442 72.3317 224.759 72.3968C225.076 72.4619 225.31 72.5206 225.462 72.5727L224.993 74.3961C224.893 74.3657 224.767 74.3353 224.615 74.305C224.463 74.2702 224.294 74.2529 224.107 74.2529C223.669 74.2529 223.358 74.3592 223.176 74.572C222.998 74.7804 222.909 75.0799 222.909 75.4707V86.2617H220.545ZM226.826 86.2617V76.2587H229.184V86.2617H226.826ZM228.012 74.839C227.638 74.839 227.317 74.7152 227.048 74.4678C226.779 74.216 226.644 73.9142 226.644 73.5625C226.644 73.2065 226.779 72.9048 227.048 72.6573C227.317 72.4055 227.638 72.2796 228.012 72.2796C228.389 72.2796 228.711 72.4055 228.975 72.6573C229.245 72.9048 229.379 73.2065 229.379 73.5625C229.379 73.9142 229.245 74.216 228.975 74.4678C228.711 74.7152 228.389 74.839 228.012 74.839ZM236.603 76.2587V78.0821H230.853V76.2587H236.603ZM232.272 73.8621H234.63V83.253C234.63 83.5699 234.678 83.8131 234.773 83.9824C234.873 84.1474 235.003 84.2602 235.164 84.321C235.324 84.3818 235.502 84.4122 235.698 84.4122C235.845 84.4122 235.98 84.4013 236.102 84.3796C236.227 84.3579 236.323 84.3384 236.388 84.321L236.785 86.164C236.659 86.2074 236.479 86.2552 236.245 86.3073C236.015 86.3594 235.733 86.3898 235.398 86.3985C234.808 86.4158 234.276 86.3268 233.803 86.1315C233.329 85.9318 232.954 85.6235 232.676 85.2067C232.403 84.7899 232.268 84.2689 232.272 83.6437V73.8621Z" fill="white"/>
<path d="M56.0238 21.7511V7.99696H58.3422V9.65111H58.479C58.6005 9.40798 58.772 9.14965 58.9935 8.87613C59.2149 8.59827 59.5145 8.36165 59.8922 8.16628C60.2699 7.96657 60.7518 7.86671 61.3379 7.86671C62.1107 7.86671 62.8076 8.06425 63.4284 8.45934C64.0536 8.85008 64.5485 9.42968 64.9132 10.1981C65.2823 10.9623 65.4668 11.9001 65.4668 13.0115C65.4668 14.1099 65.2866 15.0434 64.9263 15.8118C64.5659 16.5803 64.0753 17.1664 63.4545 17.5702C62.8336 17.974 62.1303 18.1758 61.3444 18.1758C60.7713 18.1758 60.2959 18.0803 59.9182 17.8893C59.5405 17.6983 59.2366 17.4682 59.0065 17.199C58.7807 16.9255 58.6049 16.6671 58.479 16.424H58.3813V21.7511H56.0238ZM58.3357 12.9985C58.3357 13.6454 58.4269 14.212 58.6092 14.6982C58.7959 15.1845 59.0629 15.5644 59.4103 15.8379C59.7619 16.1071 60.1874 16.2417 60.6867 16.2417C61.2077 16.2417 61.644 16.1027 61.9957 15.8249C62.3473 15.5427 62.6122 15.1584 62.7902 14.6722C62.9725 14.1816 63.0637 13.6237 63.0637 12.9985C63.0637 12.3776 62.9747 11.8262 62.7967 11.3443C62.6187 10.8624 62.3539 10.4847 62.0022 10.2112C61.6505 9.93765 61.212 9.80089 60.6867 9.80089C60.1831 9.80089 59.7554 9.93331 59.4037 10.1981C59.0521 10.463 58.7851 10.8342 58.6027 11.3118C58.4247 11.7893 58.3357 12.3516 58.3357 12.9985ZM67.4856 18V7.99696H69.7715V9.66413H69.8757C70.058 9.0867 70.3706 8.64168 70.8135 8.32909C71.2606 8.01215 71.7708 7.85368 72.3439 7.85368C72.4741 7.85368 72.6196 7.8602 72.7802 7.87322C72.9452 7.8819 73.0819 7.8971 73.1905 7.91881V10.0874C73.0906 10.0527 72.9322 10.0223 72.7151 9.99626C72.5023 9.96587 72.2961 9.95068 72.0964 9.95068C71.6666 9.95068 71.2802 10.044 70.9372 10.2307C70.5986 10.4131 70.3315 10.667 70.1362 10.9927C69.9408 11.3183 69.8431 11.6938 69.8431 12.1193V18H67.4856ZM74.7567 18V7.99696H77.1142V18H74.7567ZM75.942 6.57725C75.5686 6.57725 75.2473 6.45352 74.9781 6.20605C74.709 5.95423 74.5744 5.65249 74.5744 5.30082C74.5744 4.94481 74.709 4.64307 74.9781 4.3956C75.2473 4.14379 75.5686 4.01788 75.942 4.01788C76.3197 4.01788 76.641 4.14379 76.9058 4.3956C77.175 4.64307 77.3096 4.94481 77.3096 5.30082C77.3096 5.65249 77.175 5.95423 76.9058 6.20605C76.641 6.45352 76.3197 6.57725 75.942 6.57725ZM83.9018 18.1954C82.9032 18.1954 82.0457 17.9761 81.3294 17.5376C80.6173 17.0991 80.0681 16.4935 79.6817 15.7207C79.2997 14.9435 79.1086 14.0491 79.1086 13.0376C79.1086 12.0216 79.304 11.1251 79.6947 10.3479C80.0855 9.56644 80.6369 8.95862 81.3489 8.52446C82.0653 8.08596 82.9119 7.86671 83.8887 7.86671C84.7006 7.86671 85.4191 8.01649 86.0443 8.31606C86.6739 8.61129 87.1753 9.03026 87.5487 9.57296C87.9221 10.1113 88.1348 10.7408 88.1869 11.4616H85.9336C85.8424 10.9796 85.6254 10.578 85.2824 10.2568C84.9437 9.93114 84.49 9.76833 83.9213 9.76833C83.4394 9.76833 83.0161 9.89858 82.6514 10.1591C82.2867 10.4152 82.0023 10.7843 81.7982 11.2662C81.5985 11.7481 81.4987 12.3255 81.4987 12.9985C81.4987 13.6801 81.5985 14.2662 81.7982 14.7568C81.998 15.2431 82.278 15.6186 82.6383 15.8835C83.003 16.144 83.4307 16.2742 83.9213 16.2742C84.2686 16.2742 84.579 16.2091 84.8526 16.0788C85.1304 15.9443 85.3627 15.7511 85.5494 15.4992C85.7361 15.2474 85.8642 14.9413 85.9336 14.581H88.1869C88.1305 15.2887 87.9221 15.916 87.5617 16.4631C87.2014 17.0058 86.7108 17.4313 86.0899 17.7395C85.4691 18.0434 84.7397 18.1954 83.9018 18.1954ZM94.5512 18.1954C93.5482 18.1954 92.6821 17.987 91.9527 17.5702C91.2277 17.149 90.6698 16.5542 90.279 15.7858C89.8883 15.013 89.6929 14.1034 89.6929 13.0571C89.6929 12.0281 89.8883 11.1251 90.279 10.3479C90.6741 9.56644 91.2255 8.95862 91.9332 8.52446C92.6408 8.08596 93.4723 7.86671 94.4274 7.86671C95.0439 7.86671 95.6257 7.96657 96.1727 8.16628C96.7241 8.36165 97.2104 8.66556 97.6315 9.07801C98.057 9.49047 98.3913 10.0158 98.6344 10.654C98.8776 11.2879 98.9991 12.0433 98.9991 12.9203V13.6432H90.8V12.0542H96.7393C96.735 11.6027 96.6373 11.2011 96.4463 10.8494C96.2552 10.4934 95.9882 10.2133 95.6452 10.0093C95.3066 9.80523 94.9115 9.7032 94.46 9.7032C93.9781 9.7032 93.5548 9.82043 93.1901 10.0549C92.8254 10.285 92.541 10.5889 92.3369 10.9666C92.1372 11.34 92.0352 11.7503 92.0309 12.1975V13.5846C92.0309 14.1664 92.1372 14.6657 92.35 15.0824C92.5627 15.4949 92.8601 15.8118 93.2422 16.0333C93.6242 16.2503 94.0714 16.3589 94.5837 16.3589C94.9267 16.3589 95.2371 16.3111 95.515 16.2156C95.7928 16.1157 96.0338 15.9703 96.2379 15.7793C96.4419 15.5882 96.596 15.3516 96.7002 15.0694L98.9014 15.3169C98.7625 15.8987 98.4977 16.4066 98.1069 16.8408C97.7205 17.2706 97.2256 17.6049 96.6221 17.8437C96.0186 18.0781 95.3283 18.1954 94.5512 18.1954ZM110.941 4.66261V18H108.525V7.01358H108.447L105.328 9.00638V6.79216L108.642 4.66261H110.941Z" fill="white"/>
<path d="M295.653 21.7511V7.99696H297.971V9.65111H298.108C298.229 9.40798 298.401 9.14965 298.622 8.87613C298.844 8.59827 299.143 8.36165 299.521 8.16628C299.899 7.96657 300.381 7.86671 300.967 7.86671C301.74 7.86671 302.436 8.06425 303.057 8.45934C303.682 8.85008 304.177 9.42968 304.542 10.1981C304.911 10.9623 305.096 11.9001 305.096 13.0115C305.096 14.1099 304.916 15.0434 304.555 15.8118C304.195 16.5803 303.704 17.1664 303.083 17.5702C302.463 17.974 301.759 18.1758 300.973 18.1758C300.4 18.1758 299.925 18.0803 299.547 17.8893C299.169 17.6983 298.865 17.4682 298.635 17.199C298.41 16.9255 298.234 16.6671 298.108 16.424H298.01V21.7511H295.653ZM297.965 12.9985C297.965 13.6454 298.056 14.212 298.238 14.6982C298.425 15.1845 298.692 15.5644 299.039 15.8379C299.391 16.1071 299.816 16.2417 300.316 16.2417C300.837 16.2417 301.273 16.1027 301.625 15.8249C301.976 15.5427 302.241 15.1584 302.419 14.6722C302.601 14.1816 302.693 13.6237 302.693 12.9985C302.693 12.3776 302.604 11.8262 302.426 11.3443C302.248 10.8624 301.983 10.4847 301.631 10.2112C301.279 9.93765 300.841 9.80089 300.316 9.80089C299.812 9.80089 299.384 9.93331 299.033 10.1981C298.681 10.463 298.414 10.8342 298.232 11.3118C298.054 11.7893 297.965 12.3516 297.965 12.9985ZM307.115 18V7.99696H309.4V9.66413H309.505C309.687 9.0867 310 8.64168 310.442 8.32909C310.89 8.01215 311.4 7.85368 311.973 7.85368C312.103 7.85368 312.248 7.8602 312.409 7.87322C312.574 7.8819 312.711 7.8971 312.819 7.91881V10.0874C312.72 10.0527 312.561 10.0223 312.344 9.99626C312.131 9.96587 311.925 9.95068 311.725 9.95068C311.295 9.95068 310.909 10.044 310.566 10.2307C310.227 10.4131 309.96 10.667 309.765 10.9927C309.57 11.3183 309.472 11.6938 309.472 12.1193V18H307.115ZM314.386 18V7.99696H316.743V18H314.386ZM315.571 6.57725C315.198 6.57725 314.876 6.45352 314.607 6.20605C314.338 5.95423 314.203 5.65249 314.203 5.30082C314.203 4.94481 314.338 4.64307 314.607 4.3956C314.876 4.14379 315.198 4.01788 315.571 4.01788C315.949 4.01788 316.27 4.14379 316.535 4.3956C316.804 4.64307 316.938 4.94481 316.938 5.30082C316.938 5.65249 316.804 5.95423 316.535 6.20605C316.27 6.45352 315.949 6.57725 315.571 6.57725ZM323.531 18.1954C322.532 18.1954 321.675 17.9761 320.958 17.5376C320.246 17.0991 319.697 16.4935 319.311 15.7207C318.929 14.9435 318.738 14.0491 318.738 13.0376C318.738 12.0216 318.933 11.1251 319.324 10.3479C319.714 9.56644 320.266 8.95862 320.978 8.52446C321.694 8.08596 322.541 7.86671 323.518 7.86671C324.33 7.86671 325.048 8.01649 325.673 8.31606C326.303 8.61129 326.804 9.03026 327.178 9.57296C327.551 10.1113 327.764 10.7408 327.816 11.4616H325.563C325.471 10.9796 325.254 10.578 324.911 10.2568C324.573 9.93114 324.119 9.76833 323.55 9.76833C323.068 9.76833 322.645 9.89858 322.28 10.1591C321.916 10.4152 321.631 10.7843 321.427 11.2662C321.227 11.7481 321.128 12.3255 321.128 12.9985C321.128 13.6801 321.227 14.2662 321.427 14.7568C321.627 15.2431 321.907 15.6186 322.267 15.8835C322.632 16.144 323.06 16.2742 323.55 16.2742C323.898 16.2742 324.208 16.2091 324.481 16.0788C324.759 15.9443 324.992 15.7511 325.178 15.4992C325.365 15.2474 325.493 14.9413 325.563 14.581H327.816C327.759 15.2887 327.551 15.916 327.191 16.4631C326.83 17.0058 326.34 17.4313 325.719 17.7395C325.098 18.0434 324.369 18.1954 323.531 18.1954ZM334.18 18.1954C333.177 18.1954 332.311 17.987 331.582 17.5702C330.857 17.149 330.299 16.5542 329.908 15.7858C329.517 15.013 329.322 14.1034 329.322 13.0571C329.322 12.0281 329.517 11.1251 329.908 10.3479C330.303 9.56644 330.854 8.95862 331.562 8.52446C332.27 8.08596 333.101 7.86671 334.056 7.86671C334.673 7.86671 335.255 7.96657 335.802 8.16628C336.353 8.36165 336.839 8.66556 337.26 9.07801C337.686 9.49047 338.02 10.0158 338.263 10.654C338.506 11.2879 338.628 12.0433 338.628 12.9203V13.6432H330.429V12.0542H336.368C336.364 11.6027 336.266 11.2011 336.075 10.8494C335.884 10.4934 335.617 10.2133 335.274 10.0093C334.935 9.80523 334.54 9.7032 334.089 9.7032C333.607 9.7032 333.184 9.82043 332.819 10.0549C332.454 10.285 332.17 10.5889 331.966 10.9666C331.766 11.34 331.664 11.7503 331.66 12.1975V13.5846C331.66 14.1664 331.766 14.6657 331.979 15.0824C332.192 15.4949 332.489 15.8118 332.871 16.0333C333.253 16.2503 333.7 16.3589 334.213 16.3589C334.556 16.3589 334.866 16.3111 335.144 16.2156C335.422 16.1157 335.663 15.9703 335.867 15.7793C336.071 15.5882 336.225 15.3516 336.329 15.0694L338.53 15.3169C338.391 15.8987 338.127 16.4066 337.736 16.8408C337.349 17.2706 336.854 17.6049 336.251 17.8437C335.648 18.0781 334.957 18.1954 334.18 18.1954ZM345.145 18V16.2547L349.776 11.7155C350.218 11.2684 350.588 10.8711 350.883 10.5238C351.178 10.1764 351.399 9.83996 351.547 9.51434C351.695 9.18873 351.768 8.8414 351.768 8.47236C351.768 8.05123 351.673 7.69087 351.482 7.3913C351.291 7.08739 351.028 6.85295 350.694 6.68796C350.36 6.52298 349.98 6.44049 349.554 6.44049C349.116 6.44049 348.731 6.53167 348.402 6.71401C348.072 6.89202 347.815 7.146 347.633 7.47596C347.455 7.80593 347.366 8.19884 347.366 8.65471H345.067C345.067 7.8081 345.26 7.0722 345.647 6.44701C346.033 5.82181 346.565 5.33773 347.242 4.99474C347.924 4.65175 348.705 4.48026 349.587 4.48026C350.481 4.48026 351.267 4.64741 351.944 4.98172C352.622 5.31602 353.147 5.77406 353.52 6.35583C353.898 6.93761 354.087 7.60187 354.087 8.34863C354.087 8.84791 353.991 9.33851 353.8 9.82043C353.609 10.3023 353.273 10.8364 352.791 11.4225C352.313 12.0086 351.643 12.7184 350.779 13.552L348.48 15.89V15.9812H354.289V18H345.145Z" fill="white"/>
<defs>
<linearGradient id="paint0_linear_114_145" x1="83.9517" y1="67.0391" x2="323.784" y2="67.0391" gradientUnits="userSpaceOnUse">
<stop stop-color="#3E6FCE"/>
<stop offset="1" stop-color="#7022D5"/>
</linearGradient>
<linearGradient id="paint1_linear_114_145" x1="0.000200423" y1="71.8282" x2="154.556" y2="74.0696" gradientUnits="userSpaceOnUse">
<stop stop-color="#CE7A7A"/>
<stop offset="1" stop-color="#A32222"/>
</linearGradient>
<linearGradient id="paint2_linear_114_145" x1="216.195" y1="67.0391" x2="407.735" y2="67.0391" gradientUnits="userSpaceOnUse">
<stop stop-color="#CE7A7A"/>
<stop offset="1" stop-color="#A32222"/>
</linearGradient>
</defs>
</svg>
