<?xml version="1.0" encoding="utf-8"?>
<!-- Generator: Adobe Illustrator 27.9.3, SVG Export Plug-In . SVG Version: 9.03 Build 53313)  -->
<svg version="1.1" id="Layer_1" xmlns="http://www.w3.org/2000/svg" xmlns:xlink="http://www.w3.org/1999/xlink" x="0px" y="0px"
	 viewBox="0 0 251.3 396.2" style="enable-background:new 0 0 251.3 396.2;" xml:space="preserve">
<style type="text/css">
	.st0{fill:none;stroke:#F0E9FE;stroke-width:0.3722;stroke-miterlimit:10;}
	.st1{fill:#F0E9FE;}
</style>
<g>
	<path class="st0" d="M10.2,197.5c0-104,86.9-188.3,194.2-188.3c16.1,0,31.8,1.9,46.7,5.5V5.4c-15-3.4-30.7-5.2-46.8-5.2
		C91.6,0.2,0.2,88.8,0.2,198.1c0,0.3,0,0.5,0,0.8h10.1C10.3,198.4,10.2,198,10.2,197.5z"/>
	<path class="st0" d="M204.4,385.7C204.4,385.7,204.4,385.7,204.4,385.7L204.4,385.7L204.4,385.7c-33.1,0-64.3-8.1-91.6-22.2
		c-0.1,0-0.1,0-0.2,0c-1,0-1.8-0.5-2.3-1.3c-59.3-31.9-99.5-93-100.1-163.3H0.2C0.6,307.9,91.9,396,204.3,396
		c16.1,0,31.8-1.8,46.8-5.2v-10.6C236.2,383.8,220.5,385.7,204.4,385.7z"/>
	<path class="st1" d="M112.6,363.5c0.1,0,0.1,0,0.2,0c-0.8-0.4-1.6-0.9-2.5-1.3C110.8,363,111.6,363.5,112.6,363.5z"/>
	<path class="st0" d="M28.7,197.9c0-65.2,37.7-121.8,93.1-150.6l4.3-7.6c-0.5-0.3-0.9-0.8-0.9-1.4c0-0.9,0.7-1.6,1.6-1.6
		c0.9,0,1.6,0.7,1.6,1.6c0,0.9-0.7,1.6-1.6,1.6c-0.3,0-0.5-0.1-0.8-0.2l-4.3,7.6c24.6-12.8,52.7-20,82.6-20.1V9.2v18.1
		c0.1,0,0.2,0,0.3,0c5.1,0,10.1,0.2,15,0.6c0,0,0,0,0,0c0-1.4,1.2-2.5,2.6-2.5c1.4,0,2.6,1.1,2.6,2.5c0,0.2,0,0.4-0.1,0.5
		c9,1,17.8,2.6,26.3,4.9V14.7c-15-3.6-30.6-5.5-46.7-5.5C97.2,9.2,10.2,93.5,10.2,197.5c0,0.5,0,1,0,1.5h18.5
		C28.7,198.6,28.7,198.2,28.7,197.9z M229.1,12.3c1.2,0,2.1,0.9,2.1,2c0,1.1-0.9,2-2.1,2s-2.1-0.9-2.1-2
		C227,13.2,228,12.3,229.1,12.3z M72.3,77.6c0.9,0,1.6,0.7,1.6,1.6s-0.7,1.6-1.6,1.6c-0.9,0-1.6-0.7-1.6-1.6S71.4,77.6,72.3,77.6z
		 M65.4,67.7c1.4,0,2.6,1.1,2.6,2.5s-1.2,2.5-2.6,2.5c-1.4,0-2.6-1.1-2.6-2.5S63.9,67.7,65.4,67.7z"/>
	<path class="st0" d="M204.7,368.5c-0.1,0-0.2,0-0.3,0v17.2c0,0,0,0,0,0c16.1,0,31.8-1.9,46.7-5.5v-17.8
		C236.3,366.4,220.8,368.5,204.7,368.5z"/>
	<path class="st0" d="M28.7,199.9C28.7,199.9,28.7,199.9,28.7,199.9C28.7,199.9,28.7,199.9,28.7,199.9c0-0.3,0-0.7,0-1H10.3
		c0.5,70.3,40.8,131.4,100.1,163.3c-0.2-0.4-0.3-0.8-0.3-1.2c0-1.4,1.2-2.5,2.6-2.5c1.4,0,2.6,1.1,2.6,2.5c0,1.3-1.1,2.4-2.4,2.5
		c27.3,14.2,58.5,22.2,91.6,22.2v-17.2C108.1,368.4,29.9,293.1,28.7,199.9z M91.9,346.2c-1.4,0-2.6-1.1-2.6-2.5
		c0-1.4,1.2-2.5,2.6-2.5c1.4,0,2.6,1.1,2.6,2.5C94.5,345.1,93.3,346.2,91.9,346.2z M107.4,349.6c-1.4,0-2.6-1.1-2.6-2.5
		c0-1.4,1.2-2.5,2.6-2.5c1.4,0,2.6,1.1,2.6,2.5C110,348.5,108.9,349.6,107.4,349.6z M180.9,381.5c-1.8,0-3.3-1.4-3.3-3.2
		c0-1.8,1.5-3.2,3.3-3.2c1.8,0,3.3,1.4,3.3,3.2C184.2,380.1,182.7,381.5,180.9,381.5z"/>
	<path class="st1" d="M107.4,344.6c-1.4,0-2.6,1.1-2.6,2.5c0,1.4,1.2,2.5,2.6,2.5c1.4,0,2.6-1.1,2.6-2.5
		C110,345.7,108.9,344.6,107.4,344.6z"/>
	<path class="st1" d="M91.9,341.2c-1.4,0-2.6,1.1-2.6,2.5c0,1.4,1.2,2.5,2.6,2.5c1.4,0,2.6-1.1,2.6-2.5
		C94.5,342.3,93.3,341.2,91.9,341.2z"/>
	<path class="st1" d="M115.2,361c0-1.4-1.2-2.5-2.6-2.5c-1.4,0-2.6,1.1-2.6,2.5c0,0.4,0.1,0.8,0.3,1.2c0.8,0.4,1.6,0.9,2.5,1.3
		C114.1,363.4,115.2,362.3,115.2,361z"/>
	<path class="st1" d="M180.9,375.2c-1.8,0-3.3,1.4-3.3,3.2c0,1.7,1.5,3.2,3.3,3.2c1.8,0,3.3-1.4,3.3-3.2
		C184.2,376.6,182.7,375.2,180.9,375.2z"/>
	<path class="st1" d="M65.4,72.7c1.4,0,2.6-1.1,2.6-2.5s-1.2-2.5-2.6-2.5c-1.4,0-2.6,1.1-2.6,2.5S63.9,72.7,65.4,72.7z"/>
	<path class="st1" d="M224.9,27.8c0-1.4-1.2-2.5-2.6-2.5c-1.4,0-2.6,1.1-2.6,2.5c0,0,0,0,0,0c1.7,0.1,3.4,0.3,5.1,0.5
		C224.9,28.2,224.9,28,224.9,27.8z"/>
	<path class="st1" d="M229.1,16.4c1.2,0,2.1-0.9,2.1-2c0-1.1-0.9-2-2.1-2s-2.1,0.9-2.1,2C227,15.5,228,16.4,229.1,16.4z"/>
	<path class="st1" d="M128.5,38.3c0-0.9-0.7-1.6-1.6-1.6c-0.9,0-1.6,0.7-1.6,1.6c0,0.6,0.3,1.1,0.9,1.4l0.8-1.4l-0.8,1.4
		c0.2,0.1,0.5,0.2,0.8,0.2C127.8,39.9,128.5,39.2,128.5,38.3z"/>
	<path class="st1" d="M72.3,80.8c0.9,0,1.6-0.7,1.6-1.6s-0.7-1.6-1.6-1.6c-0.9,0-1.6,0.7-1.6,1.6S71.4,80.8,72.3,80.8z"/>
	<path class="st0" d="M128.3,194.2c0,0.9-0.7,1.6-1.6,1.6c-0.7,0-1.3-0.4-1.5-1l-1.2,0.7c0.1,0.2,0.1,0.4,0.1,0.6
		c0,0.9-0.7,1.6-1.6,1.6c-0.9,0-1.6-0.7-1.6-1.6c0-0.2,0.1-0.5,0.2-0.7l-2.7-0.9c-0.2,0.7-0.8,1.2-1.6,1.2c-0.9,0-1.6-0.7-1.6-1.6
		c0-0.5,0.2-0.9,0.6-1.2l-1.1-0.8c-0.5,0.6-1.2,1-2.1,1c-1.4,0-2.6-1.1-2.6-2.5c0-0.7,0.3-1.3,0.8-1.8l-4.3-3.6
		c-0.3,0.3-0.7,0.5-1.2,0.5c-0.9,0-1.6-0.7-1.6-1.6c0,0,0,0,0,0l-3.7,0c0,0,0,0,0,0c0,0.9-0.7,1.6-1.6,1.6c-0.7,0-1.3-0.5-1.5-1.1
		l-5,1.9c0.1,0.2,0.1,0.4,0.1,0.6c0,0.9-0.7,1.6-1.6,1.6c-0.4,0-0.7-0.1-1-0.3l-3.1,3.9c0.6,0.2,1.1,0.8,1.1,1.5
		c0,0.9-0.7,1.6-1.6,1.6c-0.1,0-0.2,0-0.2,0l0.1,3.5h47.4l-4.6-5C128.3,194,128.3,194.1,128.3,194.2z"/>
	<polygon class="st0" points="200.4,183.3 200.2,183.4 200.2,183.4 	"/>
	<path class="st0" d="M251.1,176.8c-0.5,0.5-1.1,0.8-1.9,0.8c-1.1,0-2-0.6-2.4-1.6l-5.7,1.4c0.2,0.4,0.4,0.9,0.4,1.5
		c0,1.7-1.5,3.2-3.3,3.2c0,0,0,0,0,0l5.1,16.9h7.8V176.8z"/>
	<path class="st0" d="M195.5,198.9c1.2,0.2,2,1.2,2,2.4c0,1.2-0.8,2.2-2,2.4l5,9.5c0.3-0.2,0.7-0.3,1.2-0.3c1.4,0,2.6,1.1,2.6,2.5
		c0,1-0.6,1.8-1.4,2.2l1.5,2.4v-21.3H195.5z"/>
	<path class="st0" d="M250.7,89.5c-0.1,0.8-0.6,1.6-1.2,2l1.7,2.1v-4.1L250.7,89.5z"/>
	<polygon class="st0" points="204.3,184 201.1,185.4 204.4,185.7 204.4,181.6 203.3,182.1 200.8,184.3 	"/>
	<path class="st0" d="M126.7,192.7c0.2,0,0.3,0,0.5,0.1l-7.3-8c-0.2,0.3-0.5,0.6-0.8,0.8l6.4,7.8
		C125.7,192.9,126.2,192.7,126.7,192.7z"/>
	<path class="st0" d="M179.6,325c-1.4,0-2.6-1.1-2.6-2.5c0-0.7,0.3-1.4,0.8-1.8l-13.2-12.2c-0.4,0.9-1.3,1.5-2.4,1.5
		c-1.1,0-2.1-0.7-2.4-1.7l-6.6,5.1c0.5,0.5,0.9,1.1,0.9,1.8c0,1.1-0.7,2-1.7,2.4l1.9,3.4c9.1,2.5,18.7,4.4,28.9,5.5l-1.8-2.1
		C180.9,324.8,180.3,325,179.6,325z"/>
	<path class="st0" d="M141,198.9h-8.2l2.8,3c0.3-0.4,0.7-0.6,1.2-0.6c0.8,0,1.5,0.6,1.6,1.4l2.9-0.9c-0.4-0.4-0.7-1.1-0.7-1.7
		C140.7,199.7,140.8,199.3,141,198.9z"/>
	<path class="st0" d="M251.1,287.2v-0.8l-0.2,0.7C251,287.1,251.1,287.1,251.1,287.2z"/>
	<polygon class="st0" points="150.3,119.5 150.3,119.5 150.3,119.5 	"/>
	<path class="st0" d="M204.4,198.9v-12.5l-3.4,0.1l3,1.9l-3.5-0.9l2.2,2.7l-3-1.9l1.2,3.3l-2.2-2.7l-0.6,8.3l-0.5-8.1l-1.1,3.3
		l0-3.2l-1.4,9.7c0.2,0,0.3,0,0.5,0.1H204.4z"/>
	<path class="st0" d="M236.5,313.8C236.5,313.8,236.5,313.8,236.5,313.8l-18.2-6.5c-0.2,0.6-0.8,1-1.5,1c-0.2,0-0.4,0-0.6-0.1
		l-7.6,19.1c8.4-0.3,16.5-1.1,24.2-2.3l4.9-9.7C237,315.1,236.5,314.6,236.5,313.8z"/>
	<path class="st0" d="M137.6,239.6L137.6,239.6C137.6,239.6,137.6,239.5,137.6,239.6L137.6,239.6z"/>
	<path class="st0" d="M63,196.6c-0.5,0.2-1,0.4-1.5,0.4c-1.8,0-3.3-1.4-3.3-3.2c0-0.1,0-0.2,0-0.3l-9.3-0.3c0,0.8-0.7,1.5-1.6,1.5
		c-0.9,0-1.6-0.7-1.6-1.6c0-0.3,0.1-0.6,0.3-0.9l-8.1-5.1c-0.2,0.6-0.8,1-1.5,1c-0.9,0-1.6-0.7-1.6-1.6s0.7-1.6,1.6-1.6
		c0.9,0,1.6,0.7,1.6,1.6c0,0.2,0,0.4-0.1,0.6l8.1,5.1c0.3-0.4,0.8-0.7,1.4-0.7c0.9,0,1.6,0.7,1.6,1.6c0,0,0,0,0,0l9.3,0.3
		c0.2-1.6,1.5-2.8,3.2-2.8c0.1,0,0.3,0,0.4,0l2.2-15.1c-1.1-0.3-1.9-1.3-1.9-2.4c0-0.7,0.3-1.3,0.7-1.7l-5-6.3
		c-0.3,0.1-0.6,0.2-1,0.2c-1.4,0-2.6-1.1-2.6-2.5c0-1.4,1.2-2.5,2.6-2.5c0,0,0.1,0,0.1,0l0.5-9c-1.1-0.3-1.8-1.3-1.8-2.4
		c0-1.4,1.2-2.5,2.6-2.5c0.1,0,0.3,0,0.4,0l7.1-11.6c-0.6-0.6-1-1.4-1-2.3c0-1.8,1.5-3.2,3.3-3.2c1.8,0,3.3,1.4,3.3,3.2
		c0,1.7-1.5,3.2-3.3,3.2c-0.9,0-1.7-0.3-2.3-0.9l-7.1,11.6c1.2,0.2,2.2,1.2,2.2,2.5c0,1.4-1.2,2.5-2.6,2.5c-0.3,0-0.5,0-0.7-0.1
		l-0.5,9c1.4,0.1,2.4,1.2,2.4,2.5c0,1-0.7,1.9-1.6,2.3l5,6.3c0.5-0.5,1.1-0.8,1.9-0.8c0.7,0,1.4,0.3,1.9,0.8l4.5-4.3
		c-0.5-0.5-0.8-1.1-0.8-1.8c0-1.4,1.2-2.5,2.6-2.5c1,0,1.9,0.6,2.4,1.5l8.1-2.8c0,0,0,0,0,0c0-0.9,0.7-1.6,1.6-1.6s1.6,0.7,1.6,1.6
		c0,0.9-0.7,1.6-1.6,1.6c-0.9,0-1.6-0.7-1.6-1.6l-8.1,2.8c0.1,0.3,0.2,0.7,0.2,1c0,1.4-1.2,2.5-2.6,2.5c-0.7,0-1.4-0.3-1.8-0.7
		l-4.5,4.3c0.4,0.4,0.7,1.1,0.7,1.7c0,1.4-1.2,2.5-2.6,2.5c-0.2,0-0.4,0-0.6-0.1l-2.2,15.1c1.6,0.2,2.8,1.5,2.8,3.1
		C64.7,195.1,64,196.1,63,196.6l0.7,2.3h21.8l-0.1-3.5c-0.8-0.1-1.4-0.8-1.4-1.5c0-0.9,0.7-1.6,1.6-1.6c0.2,0,0.4,0,0.6,0.1l3.1-3.9
		c-0.4-0.3-0.6-0.7-0.6-1.2c0-0.9,0.7-1.6,1.6-1.6c0.7,0,1.3,0.4,1.5,1l5-1.9c-0.1-0.2-0.1-0.3-0.1-0.5c0-0.9,0.7-1.6,1.6-1.6
		c0.9,0,1.6,0.7,1.6,1.6l3.7,0c0-0.9,0.7-1.6,1.6-1.6c0.9,0,1.6,0.7,1.6,1.6c0,0.4-0.2,0.7-0.4,1l4.3,3.6c0.5-0.4,1.1-0.7,1.8-0.7
		c1.4,0,2.6,1.1,2.6,2.5c0,0.6-0.2,1.1-0.5,1.5l1.1,0.8c0.3-0.2,0.6-0.4,1-0.4c0.9,0,1.6,0.7,1.6,1.6c0,0.1,0,0.2,0,0.3l2.7,0.9
		c0.3-0.5,0.8-0.9,1.5-0.9c0.7,0,1.3,0.4,1.5,1l1.2-0.7c-0.1-0.2-0.1-0.4-0.1-0.6c0-0.4,0.1-0.7,0.4-1l-6.4-7.8
		c-0.4,0.3-0.9,0.4-1.4,0.4c-1.4,0-2.6-1.1-2.6-2.5c0-1.4,1.2-2.5,2.6-2.5c1.4,0,2.6,1.1,2.6,2.5c0,0.5-0.1,0.9-0.4,1.3l7.3,8
		c0.6,0.2,1,0.6,1.1,1.2l4.6,5h8.2c0.3-0.5,0.8-0.9,1.4-1.1l-1.1-3.1c-0.1,0-0.2,0-0.3,0c-0.9,0-1.6-0.7-1.6-1.6
		c0-0.4,0.2-0.7,0.4-1l-2-1.7c-0.5,0.5-1.2,0.9-1.9,0.9c-1.4,0-2.6-1.1-2.6-2.5c0-1.3,1.1-2.4,2.4-2.5l-1.3-18.7c-0.1,0-0.1,0-0.2,0
		c-0.9,0-1.6-0.7-1.6-1.6c0-0.5,0.2-0.9,0.5-1.2l-4.1-1.6c-0.4,0.9-1.3,1.6-2.4,1.6c-1.4,0-2.6-1.1-2.6-2.5c0-0.6,0.2-1.2,0.6-1.6
		l-2.3-1.9c-0.3,0.3-0.7,0.6-1.2,0.6c-0.9,0-1.6-0.7-1.6-1.6c0-0.9,0.7-1.6,1.6-1.6c0.4,0,0.7,0.1,1,0.3l8.7-11.2
		c-0.4-0.3-0.7-0.7-0.7-1.3c0-0.9,0.7-1.6,1.6-1.6c0.6,0,1.1,0.3,1.4,0.8l10.7-5.7c-0.1-0.2-0.2-0.5-0.2-0.8c0-0.9,0.7-1.6,1.6-1.6
		c0,0,0.1,0,0.1,0l0.4-5.1c-0.8-0.1-1.5-0.7-1.5-1.6c0-0.9,0.7-1.6,1.6-1.6c0.2,0,0.5,0.1,0.7,0.1l2.8-6l-1.3,0.8l2.2-2.7l0,0
		l-3.5,0.9l3-1.9l-8.4-0.2l8.3-0.9l-3.3-1.4l3.6,0.3l-2.6-2.3l3.3,1.4l-1.7-3l2.6,2.4l-0.6-3.4l1.7,3.1l0.5-8.4l0.6,8.4l1.7-3.1
		l-0.6,3.4l2.6-2.4l-1.7,3l3.3-1.4l-2.6,2.3l3.6-0.3l-3.3,1.4l8.2,0.8l-8.3,0.3l3,1.9l-3.5-0.9l2.2,2.7l-3-1.9l1.2,3.3l-2.2-2.7
		l-0.6,8.3l-0.5-8.1l-1.1,3.3l0-3.5l-2.2,2.7l1.2-3.3l-1.7,1.1l-2.8,6c0.6,0.2,1,0.8,1,1.4c0,0.9-0.7,1.6-1.6,1.6c0,0-0.1,0-0.1,0
		l-0.4,5.1c0.8,0.1,1.5,0.7,1.5,1.6c0,0.9-0.7,1.6-1.6,1.6c-0.6,0-1.1-0.3-1.4-0.8l-10.7,5.7c0.1,0.2,0.2,0.5,0.2,0.8
		c0,0.9-0.7,1.6-1.6,1.6c-0.4,0-0.7-0.1-1-0.3l-8.7,11.2c0.4,0.3,0.6,0.7,0.6,1.2c0,0.4-0.1,0.7-0.4,1l2.3,1.9
		c0.5-0.6,1.2-0.9,2-0.9c1.4,0,2.6,1.1,2.6,2.5c0,0.3-0.1,0.6-0.2,0.9l4.1,1.6c0.3-0.3,0.7-0.4,1.1-0.4c0.9,0,1.6,0.7,1.6,1.6
		c0,0.8-0.6,1.5-1.5,1.6l1.3,18.7c0.1,0,0.1,0,0.2,0c1.4,0,2.6,1.1,2.6,2.5c0,0.6-0.2,1.2-0.6,1.6l2,1.7c0.3-0.3,0.7-0.5,1.2-0.5
		c0.9,0,1.6,0.7,1.6,1.6c0,0.8-0.6,1.4-1.3,1.5l1.1,3.1c0.3-0.1,0.5-0.1,0.8-0.1c0.9,0,1.8,0.5,2.2,1.2h48.9c0.2,0,0.4-0.1,0.6-0.1
		c0,0,0.1,0,0.1,0l1.4-9.7l0-0.3l-2.2,2.7l1.2-3.3l-3,1.9l2.2-2.7l-3.5,0.9l3-1.9l-8.4-0.2l8.3-0.9l-3.3-1.4l3.6,0.3l-2.6-2.3
		l3.3,1.4l-1.7-3l2.6,2.4l-0.6-3.4l1.7,3.1l0.5-8.4l0.6,8.4l1.7-3.1l-0.6,3.4l2.6-2.4l-1.7,3l0.3-0.1l3-1.3l-0.1,0.1l1.1-0.4V52.4
		c-0.5,0.3-1,0.4-1.6,0.4c-1.4,0-2.5-0.8-3-1.9l-8.6,4.4l8.6-4.4c-0.2-0.4-0.3-0.8-0.3-1.2c0-1.7,1.5-3.2,3.3-3.2
		c0.6,0,1.1,0.2,1.6,0.4V27.3c-29.8,0-57.9,7.3-82.6,20.1l-6.2,11c0.5,0.3,0.9,0.8,0.9,1.4c0,0.9-0.7,1.6-1.6,1.6
		c-0.5,0-1-0.2-1.3-0.6l-5.6,4.4c0.4,0.5,0.7,1.2,0.7,2c0,1.7-1.5,3.2-3.3,3.2c-1.8,0-3.3-1.4-3.3-3.2s1.5-3.2,3.3-3.2
		c1,0,1.9,0.5,2.5,1.2l5.6-4.4c-0.2-0.3-0.4-0.6-0.4-1c0-0.9,0.7-1.6,1.6-1.6c0.3,0,0.5,0.1,0.8,0.2l6.2-11
		C66.4,76,28.7,132.7,28.7,197.9c0,0.3,0,0.7,0,1h34.9L63,196.6z M183.3,34.2c1.4,0,2.6,1.1,2.6,2.5c0,1-0.6,1.8-1.5,2.2l5.4,15.5
		c0.9,0,1.6,0.7,1.6,1.6c0,0.9-0.7,1.6-1.6,1.6c-0.9,0-1.6-0.7-1.6-1.6c0-0.9,0.7-1.6,1.6-1.6c0,0,0,0,0,0L184.4,39
		c-0.3,0.2-0.7,0.3-1.1,0.3c-1.4,0-2.6-1.1-2.6-2.5S181.8,34.2,183.3,34.2z M143.1,56.1l13.6,0.5c0.1-1.6,1.5-2.9,3.2-2.9
		c1.8,0,3.3,1.4,3.3,3.2c0,1.7-1.5,3.2-3.3,3.2s-3.3-1.4-3.3-3.2c0-0.1,0-0.2,0-0.3L143.1,56.1C143.1,56.1,143.1,56.1,143.1,56.1
		c0,0.9-0.7,1.6-1.6,1.6c0,0-0.1,0-0.1,0l-1.3,16c0.2,0,0.4-0.1,0.6-0.1c1.8,0,3.3,1.4,3.3,3.2s-1.5,3.2-3.3,3.2
		c-1.8,0-3.3-1.4-3.3-3.2c0-1.5,1.1-2.8,2.6-3.1l1.3-16c-0.8-0.1-1.5-0.7-1.5-1.6c0-0.8,0.5-1.4,1.3-1.5l-2.2-5.6l2.2,5.6
		c0.1,0,0.2,0,0.3,0C142.4,54.5,143.1,55.2,143.1,56.1z M138.9,43.9c1.4,0,2.6,1.1,2.6,2.5s-1.2,2.5-2.6,2.5c-1.4,0-2.6-1.1-2.6-2.5
		S137.5,43.9,138.9,43.9z"/>
	<path class="st0" d="M250.5,290.2c-0.6,0-1.1-0.3-1.4-0.7l-5.4,3.4c0.2,0.2,0.3,0.5,0.3,0.8c0,0.9-0.7,1.6-1.6,1.6
		c-0.6,0-1.2-0.4-1.4-0.9l-2.4,1.1c0.1,0.3,0.2,0.6,0.2,0.9c0,1.2-1,2.2-2.2,2.2c-1.2,0-2.2-1-2.2-2.2c0-0.2,0-0.4,0.1-0.6l-3.1-0.9
		c-0.2,0.6-0.8,1.1-1.5,1.1c-0.9,0-1.6-0.7-1.6-1.6c0-0.9,0.7-1.6,1.6-1.6c0.9,0,1.6,0.7,1.6,1.6c0,0.2,0,0.3-0.1,0.4l3.1,0.9
		c0.3-0.9,1.1-1.6,2.1-1.6c0.9,0,1.6,0.5,2,1.2l2.4-1.1c-0.1-0.2-0.2-0.4-0.2-0.7c0-0.9,0.7-1.6,1.6-1.6c0.6,0,1.1,0.3,1.4,0.7
		l5.4-3.4c-0.2-0.2-0.3-0.5-0.3-0.8c0-0.9,0.7-1.6,1.6-1.6c0.1,0,0.3,0,0.4,0.1l0.2-0.7v-87.4h-7.8l1.7,5.7c0.3-0.1,0.6-0.1,0.9-0.1
		c1.8,0,3.3,1.4,3.3,3.2c0,1.8-1.5,3.2-3.3,3.2c-0.6,0-1.2-0.2-1.6-0.4l-11.8,27.3l11.8-27.3c-1-0.6-1.7-1.6-1.7-2.8
		c0-1.5,1-2.7,2.4-3.1l-1.7-5.7h-38.9v21.3l2.4,3.9c0.3-0.1,0.6-0.2,1-0.2c1.4,0,2.6,1.1,2.6,2.5c0,1.1-0.7,2-1.7,2.3l6,9l-6-9
		c-0.3,0.1-0.6,0.2-0.9,0.2c-1.4,0-2.6-1.1-2.6-2.5c0-1,0.7-1.9,1.6-2.3l-2.4-3.9v70.6l4.8,0.5l-4.8,0.2v36c1.4,0,2.8,0,4.2-0.1
		l7.6-19.1c-0.6-0.2-1-0.8-1-1.5c0-0.9,0.7-1.6,1.6-1.6c0.9,0,1.6,0.7,1.6,1.6c0,0.2,0,0.4-0.1,0.5l18.2,6.4c0-0.8,0.7-1.5,1.6-1.5
		c0.9,0,1.6,0.7,1.6,1.6c0,0.9-0.7,1.6-1.6,1.6c-0.2,0-0.3,0-0.5-0.1l-4.9,9.7c6.4-1,12.5-2.4,18.3-4v-31
		C250.9,290.1,250.7,290.2,250.5,290.2z M219.5,202.7c1.4,0,2.6,1.1,2.6,2.5c0,1.4-1.2,2.5-2.6,2.5c-1.4,0-2.6-1.1-2.6-2.5
		C216.9,203.9,218.1,202.7,219.5,202.7z M216.9,241.4c-1.4,0-2.6-1.1-2.6-2.5c0-1.4,1.2-2.5,2.6-2.5c1.4,0,2.6,1.1,2.6,2.5
		c0,0,0,0.1,0,0.1l8.8,0.6c0.1-1.3,1.2-2.4,2.6-2.4c1.4,0,2.6,1.1,2.6,2.5c0,1.4-1.2,2.5-2.6,2.5c-1.4,0-2.6-1.1-2.6-2.5
		c0,0,0-0.1,0-0.1l-8.8-0.6C219.5,240.3,218.3,241.4,216.9,241.4z"/>
	<path class="st0" d="M207.1,331.3c0.6,0.2,1,0.8,1,1.5h19.2c0-0.9,0.7-1.6,1.6-1.6c0.3,0,0.5,0.1,0.7,0.2l3.2-6.3
		c-7.7,1.3-15.7,2.1-24.2,2.3L207.1,331.3z"/>
	<path class="st0" d="M156.4,324.7c0.4-0.3,1-0.5,1.6-0.5c1.4,0,2.6,1.1,2.6,2.5c0,0.7-0.3,1.4-0.8,1.8l12.7,7.7
		c0.3-0.3,0.7-0.5,1.2-0.5c0.9,0,1.6,0.7,1.6,1.6c0,0.4-0.2,0.8-0.4,1.1l3.4,6.5c0.5-0.2,1-0.4,1.5-0.4c1.1,0,2.1,0.5,2.7,1.3l8.4-6
		c-0.1-0.3-0.2-0.6-0.2-1c0-1,0.5-1.9,1.2-2.5l-8.6-9.9c-10.2-1.1-19.9-2.9-28.9-5.5L156.4,324.7z"/>
	<path class="st0" d="M99.6,293.8l-0.5-8.1l0,0l-1.1,3.3l0-3.5l-2.2,2.7l1.2-3.3l-3,1.9l2.2-2.7l-2.7,0.7c-0.1,0.8-0.8,1.4-1.6,1.4
		c-0.9,0-1.6-0.7-1.6-1.6s0.7-1.6,1.6-1.6c0.9,0,1.5,0.6,1.6,1.4l2.2-1.4l-8.4-0.2l8.3-0.9l-1.2-0.5c-0.3,0.2-0.6,0.3-0.9,0.3
		c-0.9,0-1.6-0.7-1.6-1.6c0-0.8,0.6-1.5,1.4-1.6l-0.1-0.1l0.2,0.1c0,0,0.1,0,0.1,0c0.5,0,1,0.2,1.3,0.6l1.2,0.5l-4.9-3.6
		c-0.3,0.1-0.7,0.2-1,0.2c-1,0-1.9-0.6-2.3-1.5H77.3c7.2,7.2,15.3,14.3,24.3,20.7l-1.7-6.5L99.6,293.8z"/>
	<path class="st0" d="M202.8,327.5c-6.8,0-13.3-0.4-19.6-1l8.6,9.9c0.6-0.5,1.3-0.8,2.2-0.8c1.9,0,3.4,1.5,3.4,3.3s-1.5,3.3-3.4,3.3
		c-1.5,0-2.8-1-3.2-2.3l-8.4,6c0.4,0.5,0.7,1.2,0.7,1.9c0,1.8-1.5,3.3-3.4,3.3s-3.4-1.5-3.4-3.3c0-1.3,0.8-2.4,1.9-2.9l-3.4-6.5
		c-0.3,0.3-0.7,0.5-1.2,0.5c-0.9,0-1.6-0.7-1.6-1.6c0-0.4,0.2-0.8,0.5-1.1l-12.7-7.7c-0.5,0.4-1.1,0.7-1.8,0.7
		c-1.4,0-2.6-1.1-2.6-2.5c0-0.8,0.4-1.5,1-2l-2.1-3.7c-20.4-5.7-37.8-14.7-52.7-25.3l6.8,26.3c0.2,0,0.4-0.1,0.6-0.1
		c1.3,0,2.4,1,2.4,2.3c0,1.3-1.1,2.3-2.4,2.3c-1.3,0-2.4-1-2.4-2.3c0-1.1,0.8-2,1.8-2.2l-6.8-26.3c-9-6.5-17.1-13.5-24.3-20.7H66.1
		c0,0.8-0.7,1.5-1.5,1.5c-0.8,0-1.5-0.7-1.5-1.5c0-0.8,0.7-1.5,1.5-1.5c0.8,0,1.5,0.7,1.5,1.5c0,0,0,0,0,0h11.2
		c-34.3-34.6-48.1-73.7-48.6-75c1.1,93.2,79.3,168.4,175.7,168.6v-41.1C203.9,327.4,203.3,327.5,202.8,327.5z M60.1,280.2
		c-0.8,0-1.5-0.7-1.5-1.5c0-0.8,0.7-1.5,1.5-1.5c0.8,0,1.5,0.7,1.5,1.5C61.6,279.6,60.9,280.2,60.1,280.2z M60.1,276.4
		c-0.8,0-1.5-0.7-1.5-1.5c0-0.8,0.7-1.5,1.5-1.5c0.8,0,1.5,0.7,1.5,1.5C61.6,275.7,60.9,276.4,60.1,276.4z M64.2,281.8
		c-1.4,0-2.6-1.1-2.6-2.5c0-1.4,1.2-2.5,2.6-2.5c1.4,0,2.6,1.1,2.6,2.5C66.8,280.6,65.6,281.8,64.2,281.8z"/>
	<path class="st0" d="M206.1,49.6c0,1.2-0.7,2.2-1.7,2.8v129.2l23.7-9.9c0.1-1.7,1.5-3,3.2-3c0,0,0.1,0,0.1,0l2.7-18.9
		c-1.2-0.5-2-1.6-2-2.9c0-1.7,1.5-3.2,3.3-3.2c1.2,0,2.2,0.6,2.8,1.6l2.5-2.4c-0.1-0.2-0.2-0.4-0.2-0.6c0-0.8,0.7-1.5,1.5-1.5
		c0.8,0,1.5,0.7,1.5,1.5s-0.7,1.5-1.5,1.5c-0.6,0-1.1-0.3-1.3-0.8l-2.5,2.4c0.3,0.5,0.5,1,0.5,1.6c0,0.4-0.1,0.8-0.2,1.2l6,1
		c0.1-0.7,0.7-1.2,1.5-1.2c0.8,0,1.5,0.7,1.5,1.5c0,0.8-0.7,1.5-1.5,1.5c-0.8,0-1.5-0.7-1.5-1.5c0-0.1,0-0.2,0-0.2l-6-1
		c-0.5,1.2-1.7,2-3,2c-0.4,0-0.8-0.1-1.2-0.2l-2.7,18.9c1.8,0.1,3.2,1.4,3.2,3.2c0,1.8-1.5,3.2-3.3,3.2s-3.3-1.4-3.3-3.2
		c0-0.1,0-0.1,0-0.2l-23.7,9.9v4.1l4.8,0.5l-4.8,0.2v12.5h38.9l-5.1-16.9c-1.8,0-3.3-1.4-3.3-3.2c0-1.8,1.5-3.2,3.3-3.2
		c1.3,0,2.3,0.7,2.9,1.7l5.7-1.4c-0.1-0.3-0.2-0.6-0.2-0.9c0-1.4,1.2-2.5,2.6-2.5c0.7,0,1.4,0.3,1.9,0.8v-15.9l-2.9,1.4
		c0.2,0.3,0.3,0.7,0.3,1.1c0,1.4-1.2,2.5-2.6,2.5c-0.1,0-0.2,0-0.3,0l-2,3.6c1.3,0.1,2.4,1.2,2.4,2.5c0,1.4-1.2,2.5-2.6,2.5
		c-0.6,0-1.1-0.2-1.5-0.5l-3.6,5.2l3.6-5.2c-0.7-0.5-1.1-1.2-1.1-2c0-1.4,1.2-2.5,2.6-2.5c0.1,0,0.2,0,0.2,0l2-3.6
		c-1.3-0.1-2.3-1.2-2.3-2.5c0-1.4,1.2-2.5,2.6-2.5c1,0,1.9,0.6,2.3,1.4l2.9-1.4V93.7l-1.7-2.1c-0.6,0.4-1.2,0.7-2,0.7
		c-1.8,0-3.3-1.4-3.3-3.2c0-1.7,1.5-3.2,3.3-3.2s3.3,1.4,3.3,3.2c0,0.2,0,0.3,0,0.4l0.5,0.1V33.3c-8.5-2.3-17.3-3.9-26.3-4.9
		c-0.2,1.1-1.3,2-2.5,2c-1.4,0-2.6-1.1-2.6-2.5c-5-0.4-10-0.6-15-0.6c-0.1,0-0.2,0-0.3,0v19.6C205.4,47.4,206.1,48.4,206.1,49.6z
		 M222.8,193.8c-1.4,0-2.6-1.1-2.6-2.5s1.2-2.5,2.6-2.5c1.4,0,2.6,1.1,2.6,2.5S224.2,193.8,222.8,193.8z"/>
	<path class="st0" d="M95.8,281l-0.8-0.7c0,0.2-0.1,0.4-0.1,0.6L95.8,281z"/>
	<polygon class="st0" points="99,285.7 99,285.7 99,285.7 	"/>
	<path class="st0" d="M87.6,274.9c-0.2-0.3-0.2-0.7-0.2-1c0-1.4,1.2-2.5,2.6-2.5c1.4,0,2.6,1.1,2.6,2.5c0,1-0.6,1.9-1.5,2.3l4.9,3.6
		l0.6,0.2l-1.7-3l2.6,2.4l-0.6-3.4l1.7,3.1l0.5-8.4l0.6,8.4l1.7-3.1l-0.6,3.4l2.6-2.4l-1.7,3l3.3-1.4l-2.6,2.3l3.6-0.3l-3.3,1.4
		l8.2,0.8l-8.3,0.3l3,1.9l-1-0.3l24.4,19.9c0.5-0.5,1.2-0.9,2-0.9c1.4,0,2.6,1.1,2.6,2.5c0,1.4-1.2,2.5-2.6,2.5s-2.6-1.1-2.6-2.5
		c0-0.6,0.2-1.2,0.6-1.6l-24.4-19.9l-2.4-0.6l2.2,2.7l-3-1.9l1.2,3.3l-2.2-2.7l-0.3,3.6l1.7,6.5c14.9,10.6,32.3,19.6,52.7,25.3
		l-1.9-3.4c-0.3,0.1-0.6,0.2-0.9,0.2c-1.4,0-2.6-1.1-2.6-2.5c0,0,0-0.1,0-0.1h-2.2c-0.4,1-1.3,1.7-2.4,1.7c-1.4,0-2.6-1.1-2.6-2.5
		c0-1.4,1.2-2.5,2.6-2.5c1.4,0,2.6,1.1,2.6,2.5c0,0.3-0.1,0.6-0.2,0.8h2.2c0.1-1.3,1.2-2.4,2.6-2.4c0.7,0,1.3,0.3,1.7,0.7l6.6-5.1
		c-0.1-0.2-0.1-0.5-0.1-0.8c0-1.4,1.2-2.5,2.6-2.5c1.4,0,2.6,1.1,2.6,2.5c0,0.4-0.1,0.7-0.2,1l13.2,12.2c0.5-0.4,1.1-0.7,1.8-0.7
		c1.4,0,2.6,1.1,2.6,2.5c0,0.7-0.3,1.3-0.8,1.8l1.8,2.1c6.3,0.7,12.8,1,19.6,1c0.5,0,1.1,0,1.6,0v-36l-3.4,0.1l3,1.9l-3.5-0.9
		l2.2,2.7l-3-1.9l1.2,3.3l-2.2-2.7l-0.6,8.3l-0.5-8.1l-1.1,3.3l0-3.5l-2.2,2.7l1.2-3.3l-3,1.9l2.2-2.7l-3.2,0.8l-3.8,2.1
		c0.5,0.3,0.8,0.8,0.8,1.3c0,0.9-0.7,1.6-1.6,1.6c-0.9,0-1.6-0.7-1.6-1.6c0,0,0,0,0,0l0,0l0,0c0-0.9,0.7-1.6,1.6-1.6
		c0.3,0,0.6,0.1,0.8,0.2l3.8-2.1l-0.3,0.1l3-1.9l-8.4-0.2l8.3-0.9l-3.3-1.4l3.6,0.3l-2.6-2.3l3.3,1.4l-1.7-3l2.6,2.4l-0.6-3.4
		l1.7,3.1l0.5-8.4l0.6,8.4l1.7-3.1l-0.6,3.4l2.6-2.4l-1.7,3l3.3-1.4l-2.6,2.3l3.6-0.3l-3.3,1.4l3.3,0.3v-70.6l-1.5-2.4
		c-0.4,0.2-0.8,0.3-1.2,0.3c-1.4,0-2.6-1.1-2.6-2.5c0-1,0.6-1.8,1.4-2.2l-5-9.5c-0.2,0-0.4,0.1-0.6,0.1c-1.4,0-2.6-1.1-2.6-2.5
		c0-1.2,0.9-2.2,2-2.4h-48.9c0.2,0.4,0.4,0.8,0.4,1.3c0,1.4-1.2,2.5-2.6,2.5c-0.7,0-1.4-0.3-1.9-0.8l-2.9,0.9c0,0,0,0.1,0,0.1
		c0,0.9-0.7,1.6-1.6,1.6c-0.9,0-1.6-0.7-1.6-1.6c0-0.4,0.1-0.7,0.4-1l-2.8-3H85.4l0.2,6.6c0.3-0.2,0.6-0.4,1-0.4
		c0.9,0,1.6,0.7,1.6,1.6c0,0.4-0.2,0.8-0.5,1.1l3.8,3.7c0.5-0.6,1.2-0.9,2-0.9c1.4,0,2.6,1.1,2.6,2.5c0,0.9-0.5,1.6-1.1,2.1l2.1,2
		c0.5-0.5,1.1-0.7,1.8-0.7c1.4,0,2.6,1.1,2.6,2.5c0,0.1,0,0.3,0,0.4l5.5,1.5c0.3-1.1,1.3-2,2.5-2c1.4,0,2.6,1.1,2.6,2.5
		c0,1.4-1.2,2.5-2.6,2.5c-0.2,0-0.5,0-0.7-0.1l-4.7,9.4c0.3,0.1,0.6,0.4,0.7,0.7l2.9-1.3c-0.2-0.2-0.3-0.5-0.3-0.8
		c0-0.8,0.7-1.5,1.5-1.5c0.8,0,1.5,0.7,1.5,1.5c0,0.6-0.4,1.2-1,1.4l2.7,10.6c0.1,0,0.3-0.1,0.5-0.1c0.8,0,1.5,0.7,1.5,1.5
		c0,0.4-0.2,0.7-0.4,1l14.6,8.1c0.2-1.2,1.3-2.1,2.5-2.1c1.4,0,2.6,1.1,2.6,2.5c0,1.4-1.2,2.5-2.6,2.5s-2.6-1.1-2.6-2.5
		c0-0.1,0-0.3,0-0.4l-14.6-8.1c-0.3,0.3-0.7,0.5-1.1,0.5c-0.8,0-1.5-0.7-1.5-1.5c0-0.6,0.4-1.2,1-1.4l-2.7-10.6
		c-0.2,0.1-0.3,0.1-0.5,0.1c-0.5,0-1-0.2-1.2-0.6l-2.9,1.3c0.1,0.2,0.1,0.4,0.1,0.6c0,0.8-0.7,1.5-1.5,1.5c-0.8,0-1.5-0.7-1.5-1.5
		c0-0.8,0.7-1.5,1.5-1.5c0.2,0,0.5,0.1,0.7,0.2l4.7-9.4c-1.1-0.3-1.9-1.3-1.9-2.4c0-0.2,0-0.4,0.1-0.5l-5.5-1.5
		c-0.2,1.2-1.3,2.1-2.5,2.1c-1.4,0-2.6-1.1-2.6-2.5c0-0.7,0.3-1.3,0.8-1.8l-2.1-2c-0.4,0.3-0.9,0.4-1.4,0.4c-1.4,0-2.6-1.1-2.6-2.5
		c0-0.6,0.2-1.2,0.6-1.6l-3.8-3.7c-0.3,0.3-0.7,0.5-1.1,0.5c-0.9,0-1.6-0.7-1.6-1.6c0-0.5,0.2-0.9,0.6-1.2l-0.2-6.6H63.6l3.7,12.7
		c0.1,0,0.1,0,0.2,0c0.8,0,1.5,0.7,1.5,1.5c0,0.8-0.7,1.5-1.5,1.5c-0.2,0-0.3,0-0.5-0.1l-1.5,4.5c1.1,0.3,2,1.3,2,2.4
		c0,0.8-0.4,1.5-0.9,1.9l1.7,1.3c0.5-0.5,1.1-0.8,1.8-0.8c1.4,0,2.6,1.1,2.6,2.5c0,1.4-1.2,2.5-2.6,2.5c-1.4,0-2.6-1.1-2.6-2.5
		c0-0.7,0.3-1.3,0.7-1.8l-1.7-1.3c-0.4,0.4-1,0.6-1.6,0.6c-1.4,0-2.6-1.1-2.6-2.5c0-1.4,1.2-2.5,2.6-2.5c0.2,0,0.4,0,0.6,0.1
		l1.5-4.5c-0.6-0.2-1.1-0.7-1.1-1.4c0-0.7,0.6-1.3,1.3-1.4l-3.7-12.7H28.7c0,0.3,0,0.7,0,1c0.4,1.2,14.3,40.4,48.6,75H87.6z
		 M131.1,286.1c0-0.8,0.7-1.5,1.5-1.5c0.8,0,1.5,0.7,1.5,1.5c0,0.8-0.7,1.5-1.5,1.5C131.7,287.6,131.1,286.9,131.1,286.1z
		 M133,292.1c-0.8,0-1.5-0.7-1.5-1.5s0.7-1.5,1.5-1.5c0.8,0,1.5,0.7,1.5,1.5S133.9,292.1,133,292.1z M192.1,231.8
		c0,1.1-0.7,2-1.8,2.4c-0.4,0.2-0.8,0.3-1.3,0.3c-1.4,0-2.6-1.1-2.6-2.5c0-1.1,0.7-2,1.8-2.4c0.4-0.2,0.8-0.3,1.3-0.3
		C190.9,229.3,192.1,230.4,192.1,231.8z M184.3,222.6c1.8,0,3.3,1.4,3.3,3.2c0,1.7-1.5,3.2-3.3,3.2s-3.3-1.4-3.3-3.2
		C181,224,182.5,222.6,184.3,222.6z M178.5,241.9l3.3,1.4l-1.7-3l2.6,2.4l-0.6-3.4l1.7,3.1l0.5-8.4l0.6,8.4l1.7-3.1l-0.6,3.4
		l2.6-2.4l-1.7,3l7.8-6.3c-0.3-0.5-0.5-1-0.5-1.6c0-1.7,1.5-3.2,3.3-3.2c1.8,0,3.3,1.4,3.3,3.2c0,1.8-1.5,3.2-3.3,3.2
		c-1.2,0-2.2-0.6-2.8-1.5l-7.8,6.3l0,0l3.3-1.4l-2.6,2.3l3.6-0.3l-3.3,1.4l8.2,0.8l-8.3,0.3l3,1.9l-3.5-0.9l2.2,2.7l-3-1.9l1.2,3.3
		l-2.2-2.7l-0.6,8.3l-0.5-8.1l-1.1,3.3l0-3.5l-2.2,2.7l1.2-3.3l-3,1.9l2.2-2.7l-3.5,0.9l3-1.9l-8.4-0.2l8.3-0.9l-3.3-1.4l3.6,0.3
		L178.5,241.9z M176,229.7c0,1.4-1.2,2.5-2.6,2.5c-0.2,0-0.4,0-0.6-0.1l-2.3,8.5c1,0.4,1.7,1.3,1.7,2.3c0,1.4-1.2,2.5-2.6,2.5
		c-1.4,0-2.6-1.1-2.6-2.5s1.2-2.5,2.6-2.5c0.3,0,0.6,0.1,0.9,0.2l2.3-8.5c-1.1-0.3-1.9-1.3-1.9-2.4c0-1.4,1.2-2.5,2.6-2.5
		C174.9,227.2,176,228.3,176,229.7z M162.2,205.9c0.6,0,1.1,0.2,1.5,0.5l5.9-1.4c0.1-0.7,0.7-1.3,1.5-1.3c0.8,0,1.5,0.7,1.5,1.5
		c0,0.8-0.7,1.5-1.5,1.5c-0.8,0-1.5-0.7-1.5-1.5c0-0.1,0-0.1,0-0.2l-5.9,1.4c0.7,0.5,1.1,1.2,1.1,2.1c0,0.2,0,0.4-0.1,0.5l7.3,2.2
		c0.2-0.6,0.8-1,1.4-1c0.8,0,1.5,0.7,1.5,1.5c0,0.8-0.7,1.5-1.5,1.5c-0.8,0-1.5-0.7-1.5-1.5c0-0.2,0-0.3,0.1-0.4l-7.3-2.2
		c-0.3,1.1-1.3,2-2.5,2c-1.4,0-2.6-1.1-2.6-2.5C159.6,207.1,160.7,205.9,162.2,205.9z M116.5,278.3
		C116.5,278.3,116.5,278.3,116.5,278.3l1-2.9c-1.1-0.4-1.9-1.4-1.9-2.6c0-1.5,1.3-2.8,2.8-2.8c0.4,0,0.7,0.1,1,0.2l0.8-2.9
		c-0.4-0.3-0.6-0.7-0.6-1.2c0-0.8,0.7-1.5,1.5-1.5c0.4,0,0.7,0.1,1,0.3l2.3-3c-0.2-0.3-0.4-0.6-0.4-1c0-0.8,0.7-1.5,1.5-1.5
		c0.7,0,1.3,0.5,1.5,1.1l7.9,5.3c0.3-1.4,1.6-2.5,3.2-2.5c0,0,0,0,0,0v-8.3l-0.2,3.4l-0.5-8.1l-1.1,3.3l0-3.5l-2.2,2.7l1.2-3.3
		l-3,1.9l2.2-2.7l-3.5,0.9l3-1.9l-8.4-0.2l8.3-0.9l-3.3-1.4l3.6,0.3l-2.6-2.3l3.3,1.4l-1.7-3l2.6,2.4l-0.6-3.4l1.7,3.1l0.3-4.2h-2.9
		c0,0.8-0.7,1.5-1.5,1.5c-0.8,0-1.5-0.7-1.5-1.5c0-0.8,0.7-1.5,1.5-1.5c0.8,0,1.5,0.7,1.5,1.5c0,0,0,0,0,0h2.9l0.3-4.2l0.2,3.1
		c0.2-0.6,0.8-1.1,1.4-1.1c0.8,0,1.4,0.5,1.5,1.2l3-1.5c-0.1-0.2-0.1-0.5-0.1-0.8c0-1.1,0.8-2.1,1.9-2.4l-0.3-4.9c0,0,0,0,0,0
		c-0.8,0-1.5-0.7-1.5-1.5c0-0.8,0.7-1.5,1.5-1.5c0.8,0,1.5,0.7,1.5,1.5c0,0.8-0.7,1.4-1.5,1.5l0.3,4.9c0.2-0.1,0.5-0.1,0.7-0.1
		c1.4,0,2.6,1.1,2.6,2.5c0,0.6-0.2,1.1-0.6,1.6l2.6,3c0.2-0.2,0.5-0.3,0.9-0.3c0.8,0,1.4,0.5,1.5,1.2l2.8-0.4c0,0,0,0,0,0
		c0-0.8,0.7-1.5,1.5-1.5c0.8,0,1.5,0.7,1.5,1.5c0,0.8-0.7,1.5-1.5,1.5c-0.8,0-1.5-0.6-1.5-1.4l-2.8,0.4c0,0.1,0,0.1,0,0.2
		c0,0.8-0.7,1.5-1.5,1.5c-0.8,0-1.5-0.7-1.5-1.5c0-0.5,0.3-0.9,0.6-1.2l-2.6-3c-0.5,0.6-1.2,0.9-2,0.9c-1.2,0-2.1-0.7-2.4-1.7
		l-3,1.5c0,0.1,0,0.1,0,0.2c0,0.8-0.7,1.5-1.5,1.5c-0.6,0-1.1-0.3-1.3-0.8h0l0.3,4.2l1.7-3.1l-0.6,3.4l2.6-2.4l-1.7,3l3.3-1.4
		l-2.6,2.3l3.6-0.3l-3.3,1.4l8.2,0.8l-8.3,0.3l3,1.9l-3.5-0.9l2.2,2.7l-3-1.9l1.2,3.3l-2.2-2.7l-0.4,4.9v8.3c1.7,0,3.1,1.3,3.2,2.9
		c0.6-1,1.6-1.7,2.9-1.7c1.2,0,2.3,0.7,2.8,1.6c0.6-1,1.6-1.6,2.8-1.6c0.1,0,0.1,0,0.2,0l4.1-11.3c-1.1-0.3-1.9-1.3-1.9-2.4
		c0-1.4,1.2-2.5,2.6-2.5c1.4,0,2.6,1.1,2.6,2.5c0,1.4-1.2,2.5-2.6,2.5c-0.2,0-0.5,0-0.7-0.1l-4.1,11.3c1.7,0.1,3,1.5,3,3.1
		c0,1.8-1.5,3.2-3.3,3.2c-0.1,0-0.2,0-0.2,0l-0.9,10.8l0.5-0.9l-0.6,3.4l2.6-2.4l-1.7,3l3.3-1.4l-2.6,2.3l3.6-0.3l-3.3,1.4l8.2,0.8
		l-8.3,0.3l3,1.9l-3.5-0.9l2.2,2.7l-3-1.9l1.2,3.3l-2.2-2.7l-0.6,8.3l-0.5-8.1l-1.1,3.3l0-3.5l-2.2,2.7l1.2-3.3l-3,1.9l2.2-2.7
		l-3.5,0.9l3-1.9l-4.1-0.1c0.1,0.2,0.1,0.4,0.1,0.6c0,0.8-0.7,1.5-1.5,1.5c-0.8,0-1.5-0.7-1.5-1.5c0-0.2,0.1-0.4,0.2-0.6l-1.5,0
		l1.7-0.2c0.3-0.4,0.7-0.6,1.2-0.6c0.4,0,0.7,0.1,1,0.4l4.4-0.5l-3.3-1.4l3.6,0.3l-2.6-2.3l3.3,1.4l-1.7-3l2.6,2.4l-0.6-3.4l1.7,3.1
		l0.5-8.4l0.6,8.4l1.2-2.1l0.9-10.8c-1.1-0.1-2.1-0.7-2.6-1.6c-0.6,1-1.6,1.6-2.8,1.6c-1.7,0-3.1-1.3-3.2-2.9
		c-0.6,1-1.6,1.7-2.9,1.7c-1,0-1.9-0.5-2.5-1.2l-3.2,4.2c1,0.5,1.7,1.6,1.7,2.8c0,1.8-1.5,3.2-3.3,3.2c-1.8,0-3.3-1.4-3.3-3.2
		c0-1.7,1.5-3.2,3.3-3.2c0.6,0,1.1,0.2,1.6,0.4l3.2-4.2c-0.5-0.5-0.7-1.2-0.7-2c0-0.2,0-0.5,0.1-0.7l-7.9-5.3c0,0.1,0,0.2,0,0.3
		c0,0.8-0.7,1.5-1.5,1.5c-0.5,0-0.9-0.2-1.1-0.5l-2.3,3c0.3,0.3,0.6,0.7,0.6,1.1c0,0.8-0.7,1.5-1.5,1.5c-0.3,0-0.6-0.1-0.9-0.3
		l-0.8,2.9c1.1,0.4,1.8,1.4,1.8,2.6c0,1.5-1.3,2.8-2.8,2.8c-0.3,0-0.6-0.1-0.9-0.2L116.5,278.3c0.9,0.1,1.5,0.7,1.5,1.5
		c0,0.8-0.7,1.5-1.5,1.5c-0.8,0-1.5-0.7-1.5-1.5C115,279,115.6,278.3,116.5,278.3z"/>
	<path class="st0" d="M232.8,325.1l-3.2,6.3c0.5,0.3,0.9,0.8,0.9,1.4c0,0.9-0.7,1.6-1.6,1.6s-1.6-0.7-1.6-1.6c0,0,0,0,0,0h-19.2
		c0,0,0,0,0,0c0,0.9-0.7,1.6-1.6,1.6s-1.6-0.7-1.6-1.6c0-0.9,0.7-1.6,1.6-1.6c0.2,0,0.4,0,0.6,0.1l1.6-3.9c-1.4,0-2.8,0.1-4.2,0.1
		v41.1c0.1,0,0.2,0,0.3,0c16.1,0,31.7-2.1,46.5-6V321C245.3,322.7,239.2,324,232.8,325.1z"/>
	<polygon class="st1" points="203.4,182 200.4,183.3 203.3,182.1 	"/>
	<polygon class="st1" points="197.6,189.1 198.1,197.2 198.7,188.9 200.9,191.6 199.7,188.4 202.7,190.3 200.5,187.5 204,188.4 
		201,186.5 204.4,186.4 204.4,185.7 201.1,185.4 204.3,184 200.8,184.3 203.3,182.1 200.4,183.3 200.2,183.4 200.2,183.4 
		200.1,183.4 200.2,183.4 201.9,180.4 199.2,182.7 199.9,179.3 198.2,182.4 197.5,174 197,182.4 195.3,179.3 195.9,182.7 
		193.3,180.4 195,183.4 191.8,182 194.4,184.3 190.8,184 194.1,185.4 185.8,186.4 194.2,186.5 191.2,188.4 194.7,187.5 192.5,190.3 
		195.4,188.4 194.3,191.6 196.5,188.9 196.5,189.2 196.7,187.7 196.5,189.2 196.4,192.4 	"/>
	<polygon class="st1" points="209.2,186.2 204.4,185.7 204.4,186.4 	"/>
	<polygon class="st1" points="180.9,245.4 172.6,246.3 181,246.5 178,248.4 181.4,247.5 179.2,250.2 182.2,248.3 181,251.6 
		183.2,248.8 183.2,252.3 184.4,249 184.9,257.1 185.5,248.8 187.7,251.6 186.5,248.3 189.5,250.2 187.3,247.5 190.7,248.4 
		187.7,246.5 196,246.2 187.8,245.4 191.1,244 187.6,244.3 190.2,241.9 186.9,243.3 186.9,243.3 185.8,244.2 186.9,243.3 
		188.6,240.3 186,242.7 186.6,239.2 184.9,242.3 184.3,233.9 183.8,242.3 182.1,239.2 182.7,242.7 180.1,240.3 181.8,243.3 
		178.5,241.9 181.2,244.3 177.6,244 	"/>
	<polygon class="st1" points="204.4,290.8 204.4,291.5 209.2,291.3 	"/>
	<polygon class="st1" points="201.1,290.5 204.3,289.1 200.8,289.4 203.4,287.1 200.2,288.5 201.9,285.4 199.2,287.8 199.9,284.4 
		198.2,287.4 197.5,279 197,287.4 195.3,284.4 195.9,287.8 193.3,285.4 195,288.5 191.8,287.1 194.4,289.4 190.8,289.1 194.1,290.5 
		185.8,291.4 194.2,291.6 191.2,293.5 191.5,293.4 197.5,290.2 191.5,293.4 194.7,292.6 192.5,295.4 195.4,293.4 194.3,296.7 
		196.5,294 196.4,297.4 197.6,294.2 198.1,302.3 198.7,294 200.9,296.7 199.7,293.4 202.7,295.4 200.5,292.6 204,293.5 201,291.6 
		204.4,291.5 204.4,290.8 	"/>
	<path class="st1" d="M146.9,275.6l-0.5,8.4l-1.7-3.1l0.6,3.4l-2.6-2.4l1.7,3l-3.3-1.4l2.6,2.3l-3.6-0.3l3.3,1.4l-4.4,0.5
		c0.2,0.1,0.3,0.3,0.4,0.5l4.1,0.1l-3,1.9l3.5-0.9l-2.2,2.7l3-1.9l-1.2,3.3l2.2-2.7l0,3.5l1.1-3.3l0.5,8.1l0.6-8.3l2.2,2.7l-1.2-3.3
		l3,1.9l-2.2-2.7l3.5,0.9l-3-1.9l8.3-0.3l-8.2-0.8l3.3-1.4l-3.6,0.3l2.6-2.3l-3.3,1.4l1.7-3l-2.6,2.4l0.6-3.4l-0.5,0.9l-0.3,3.4
		l0.3-3.4l-1.2,2.1L146.9,275.6z"/>
	<path class="st1" d="M135.2,288l1.5,0c0-0.1,0.1-0.2,0.1-0.2L135.2,288z"/>
	<polygon class="st1" points="140.6,253.1 139.4,249.8 142.4,251.7 140.2,249 143.7,249.8 140.7,247.9 148.9,247.6 140.8,246.8 
		144.1,245.5 140.5,245.8 143.1,243.4 139.9,244.8 141.6,241.8 139,244.1 139.6,240.7 137.9,243.8 137.6,239.6 137,239.6 
		136.7,243.8 135,240.7 135.6,244.1 133,241.8 134.7,244.8 131.5,243.4 134.1,245.8 130.5,245.5 133.8,246.8 125.5,247.8 
		133.9,247.9 130.9,249.8 134.4,249 132.2,251.7 135.2,249.8 134,253.1 136.2,250.3 136.2,253.8 137.3,250.5 137.8,258.6 
		138.1,255.2 138.1,247 138.1,255.2 138.4,250.3 	"/>
	<path class="st1" d="M137.5,239.5c-0.1-0.2-0.1-0.4-0.1-0.6c0-0.1,0-0.3,0.1-0.4l-0.2-3.1l-0.3,4.2L137.5,239.5L137.5,239.5z"/>
	<polygon class="st1" points="99.6,293.8 99.9,289.1 99,285.7 	"/>
	<path class="st1" d="M95.1,280.2C95.1,280.3,95.1,280.3,95.1,280.2l0.7,0.7l-0.9-0.1c-0.1,0.3-0.3,0.5-0.6,0.7l1.2,0.5l-8.3,0.9
		l8.4,0.2l-2.2,1.4c0,0,0,0.1,0,0.1c0,0.1,0,0.1,0,0.2l2.7-0.7l-2.2,2.7l3-1.9l-1.2,3.3l2.2-2.7l0,3.5l1.1-3.3l-1.6-6.4l1.6,6.4l0,0
		l0,0l0.9,3.4l0.3-3.6l2.2,2.7l-1.2-3.3l3,1.9l-2.2-2.7l2.4,0.6l-5.5-4.5l5.5,4.5l1,0.3l-3-1.9l8.3-0.3l-8.2-0.8l3.3-1.4l-3.6,0.3
		l2.6-2.3l-3.3,1.4l1.7-3l-2.6,2.4l0.6-3.4l-1.7,3.1l-0.6-8.4l-0.5,8.4l-1.7-3.1l0.6,3.4l-2.6-2.4l1.7,3l-0.6-0.2l2,1.5l-2-1.5
		l-1.2-0.5C95,279.5,95.1,279.9,95.1,280.2z"/>
	<path class="st1" d="M93.2,278.6L93.2,278.6c0.1,0.1,0.1,0.1,0.2,0.1L93.2,278.6z"/>
	<path class="st1" d="M195,198.9c0,0-0.1,0-0.1,0c-0.2,0-0.4,0-0.6,0.1L195,198.9L195,198.9z"/>
	<path class="st1" d="M195.5,198.9c-0.1,0-0.3,0-0.5-0.1l0,0.1H195.5z"/>
	<path class="st1" d="M197.5,201.4c0-1.2-0.9-2.2-2-2.4H195l-0.1,0.8l0.1-0.8h-0.7c-1.2,0.2-2,1.2-2,2.4c0,1.4,1.2,2.5,2.6,2.5
		c0.2,0,0.4,0,0.6-0.1l-1.3-2.4l1.3,2.4C196.7,203.5,197.5,202.6,197.5,201.4z"/>
	<path class="st1" d="M204.3,215.6c0-1.4-1.2-2.5-2.6-2.5c-0.4,0-0.8,0.1-1.2,0.3l0.2,0.4l-0.2-0.4c-0.8,0.4-1.4,1.3-1.4,2.2
		c0,1.4,1.2,2.5,2.6,2.5c0.4,0,0.8-0.1,1.2-0.3l-0.7-1.1l0.7,1.1C203.7,217.3,204.3,216.5,204.3,215.6z"/>
	<path class="st1" d="M205.2,226.4c0,1.4,1.2,2.5,2.6,2.5c0.3,0,0.6-0.1,0.9-0.2l-0.9-1.3l0.9,1.3c1-0.3,1.7-1.3,1.7-2.3
		c0-1.4-1.2-2.5-2.6-2.5c-0.3,0-0.7,0.1-1,0.2l0.3,0.5l-0.3-0.5C205.9,224.5,205.2,225.4,205.2,226.4z"/>
	<path class="st1" d="M218.3,238.9l1.2,0.1c0,0,0-0.1,0-0.1c0-1.4-1.2-2.5-2.6-2.5c-1.4,0-2.6,1.1-2.6,2.5c0,1.4,1.2,2.5,2.6,2.5
		c1.4,0,2.5-1.1,2.6-2.4L218.3,238.9z"/>
	<path class="st1" d="M230.9,242.2c1.4,0,2.6-1.1,2.6-2.5c0-1.4-1.2-2.5-2.6-2.5c-1.4,0-2.5,1.1-2.6,2.4l1.4,0.1l-1.4-0.1
		c0,0,0,0.1,0,0.1C228.3,241.1,229.5,242.2,230.9,242.2z"/>
	<path class="st1" d="M242.7,207.7c0,1.2,0.7,2.2,1.7,2.8l0.2-0.4l-0.2,0.4c0.5,0.3,1,0.4,1.6,0.4c1.8,0,3.3-1.4,3.3-3.2
		c0-1.8-1.5-3.2-3.3-3.2c-0.3,0-0.6,0.1-0.9,0.1l0.2,0.6l-0.2-0.6C243.7,205,242.7,206.3,242.7,207.7z"/>
	<path class="st1" d="M222.8,188.8c-1.4,0-2.6,1.1-2.6,2.5s1.2,2.5,2.6,2.5c1.4,0,2.6-1.1,2.6-2.5S224.2,188.8,222.8,188.8z"/>
	<path class="st1" d="M219.5,207.7c1.4,0,2.6-1.1,2.6-2.5c0-1.4-1.2-2.5-2.6-2.5c-1.4,0-2.6,1.1-2.6,2.5
		C216.9,206.6,218.1,207.7,219.5,207.7z"/>
	<path class="st1" d="M240.8,168.5c0,0.8,0.4,1.6,1.1,2l0.8-1.1l-0.8,1.1c0.4,0.3,0.9,0.5,1.5,0.5c1.4,0,2.6-1.1,2.6-2.5
		c0-1.3-1-2.4-2.4-2.5l-1,1.7l1-1.7c-0.1,0-0.2,0-0.2,0C242,166,240.8,167.1,240.8,168.5z"/>
	<path class="st1" d="M246,157.4c-1.4,0-2.6,1.1-2.6,2.5c0,1.3,1,2.3,2.3,2.5l1-1.8l-1,1.8c0.1,0,0.2,0,0.3,0c1.4,0,2.6-1.1,2.6-2.5
		c0-0.4-0.1-0.8-0.3-1.1l-2.3,1.1l2.3-1.1C247.8,158,247,157.4,246,157.4z"/>
	<path class="st1" d="M249.3,177.6c0.7,0,1.4-0.3,1.9-0.8v-3.5c-0.5-0.5-1.1-0.8-1.9-0.8c-1.4,0-2.6,1.1-2.6,2.5
		c0,0.3,0.1,0.6,0.2,0.9l1.2-0.3l-1.2,0.3C247.3,176.9,248.2,177.6,249.3,177.6z"/>
	<path class="st1" d="M245.9,150.8c0.8,0,1.5-0.7,1.5-1.5c0-0.8-0.7-1.5-1.5-1.5c-0.7,0-1.4,0.5-1.5,1.2l1.5,0.2l-1.5-0.2
		c0,0.1,0,0.2,0,0.2C244.4,150.1,245.1,150.8,245.9,150.8z"/>
	<path class="st1" d="M242.1,143.8c0.8,0,1.5-0.7,1.5-1.5s-0.7-1.5-1.5-1.5c-0.8,0-1.5,0.7-1.5,1.5c0,0.2,0.1,0.4,0.2,0.6l0.7-0.6
		l-0.7,0.6C241,143.4,241.5,143.8,242.1,143.8z"/>
	<path class="st1" d="M238.4,148.1l-1.5-0.2L238.4,148.1c0.2-0.4,0.2-0.8,0.2-1.2c0-0.6-0.2-1.1-0.5-1.6l-0.6,0.6l0.6-0.6
		c-0.6-0.9-1.6-1.6-2.8-1.6c-1.8,0-3.3,1.4-3.3,3.2c0,1.3,0.8,2.5,2,2.9l0.4-2.9l-0.4,2.9c0.4,0.1,0.8,0.2,1.2,0.2
		C236.8,150.1,238,149.3,238.4,148.1z"/>
	<path class="st1" d="M231.4,175.1c1.8,0,3.3-1.4,3.3-3.2c0-1.7-1.4-3.1-3.2-3.2l-0.1,0.7l0.1-0.7c0,0-0.1,0-0.1,0
		c-1.7,0-3.2,1.3-3.2,3l1.6-0.7l-1.6,0.7c0,0.1,0,0.1,0,0.2C228.1,173.6,229.5,175.1,231.4,175.1z"/>
	<path class="st1" d="M241.5,178.9c0-0.5-0.2-1-0.4-1.5l-0.7,0.2l0.7-0.2c-0.5-1-1.6-1.7-2.9-1.7c-1.8,0-3.3,1.4-3.3,3.2
		c0,1.7,1.5,3.2,3.3,3.2l-0.6-2.1l0.6,2.1c0,0,0,0,0,0C240.1,182,241.5,180.6,241.5,178.9z"/>
	<path class="st1" d="M184.3,228.9c1.8,0,3.3-1.4,3.3-3.2c0-1.8-1.5-3.2-3.3-3.2s-3.3,1.4-3.3,3.2
		C181,227.5,182.5,228.9,184.3,228.9z"/>
	<path class="st1" d="M197.5,238.5c1.8,0,3.3-1.4,3.3-3.2c0-1.7-1.5-3.2-3.3-3.2c-1.8,0-3.3,1.4-3.3,3.2c0,0.6,0.2,1.2,0.5,1.6
		l0.7-0.6l-0.7,0.6C195.3,237.9,196.3,238.5,197.5,238.5z"/>
	<path class="st1" d="M162.2,210.9c1.2,0,2.3-0.8,2.5-2l-1.8-0.5l1.8,0.5c0-0.2,0.1-0.3,0.1-0.5c0-0.9-0.4-1.6-1.1-2.1l-1.3,0.3
		l1.3-0.3c-0.4-0.3-0.9-0.5-1.5-0.5c-1.4,0-2.6,1.1-2.6,2.5C159.6,209.8,160.7,210.9,162.2,210.9z"/>
	<path class="st1" d="M171.1,206.7c0.8,0,1.5-0.7,1.5-1.5c0-0.8-0.7-1.5-1.5-1.5c-0.8,0-1.4,0.5-1.5,1.3l2.2-0.5l-2.2,0.5
		c0,0.1,0,0.1,0,0.2C169.6,206,170.2,206.7,171.1,206.7z"/>
	<path class="st1" d="M173.4,213.1c0.8,0,1.5-0.7,1.5-1.5c0-0.8-0.7-1.5-1.5-1.5c-0.7,0-1.2,0.4-1.4,1l1.4,0.4l-1.4-0.4
		c0,0.1-0.1,0.3-0.1,0.4C171.9,212.4,172.6,213.1,173.4,213.1z"/>
	<path class="st1" d="M189,229.5c1.4,0,2.6,1.1,2.6,2.5c0,0.9-0.5,1.7-1.3,2.2c1-0.3,1.8-1.3,1.8-2.4c0-1.4-1.2-2.5-2.6-2.5
		c-0.5,0-0.9,0.1-1.3,0.3C188.4,229.5,188.7,229.5,189,229.5z"/>
	<path class="st1" d="M167,243c0,1.4,1.2,2.5,2.6,2.5c1.4,0,2.6-1.1,2.6-2.5c0-1.1-0.7-2-1.7-2.3l-0.4,1.5l0.4-1.5
		c-0.3-0.1-0.6-0.2-0.9-0.2C168.1,240.5,167,241.6,167,243z"/>
	<path class="st1" d="M170.8,229.7c0,1.2,0.8,2.1,1.9,2.4l0.7-2.4l-0.7,2.4c0.2,0.1,0.4,0.1,0.6,0.1c1.4,0,2.6-1.1,2.6-2.5
		c0-1.4-1.2-2.5-2.6-2.5C172,227.2,170.8,228.3,170.8,229.7z"/>
	<path class="st1" d="M145.8,238.9c0.8,0,1.5-0.4,2-0.9l-0.2-0.2l0.2,0.2c0.4-0.4,0.6-1,0.6-1.6c0-1.4-1.2-2.5-2.6-2.5
		c-0.3,0-0.5,0-0.7,0.1l0.1,1.4l-0.1-1.4c-1.1,0.3-1.9,1.3-1.9,2.4c0,0.3,0.1,0.5,0.1,0.8l0.8-0.4l-0.8,0.4
		C143.7,238.2,144.7,238.9,145.8,238.9z"/>
	<path class="st1" d="M130.7,257.1c1.4,0,2.6-1.1,2.6-2.5c0-1.4-1.2-2.5-2.6-2.5c-1.3,0-2.4,0.9-2.5,2.1l0.7,0.4l-0.7-0.4
		c0,0.1,0,0.2,0,0.4C128.2,256,129.3,257.1,130.7,257.1z"/>
	<path class="st1" d="M157.5,251c0-1.4-1.2-2.5-2.6-2.5c-1.4,0-2.6,1.1-2.6,2.5c0,1.1,0.8,2.1,1.9,2.4l0.7-1.9l-0.7,1.9
		c0.2,0.1,0.5,0.1,0.7,0.1C156.3,253.5,157.5,252.4,157.5,251z"/>
	<path class="st1" d="M108.7,223.8l0.3-0.6L108.7,223.8c0.2,0.1,0.5,0.1,0.7,0.1c1.4,0,2.6-1.1,2.6-2.5c0-1.4-1.2-2.5-2.6-2.5
		c-1.2,0-2.3,0.8-2.5,2l1.9,0.5l-1.9-0.5c0,0.2-0.1,0.4-0.1,0.5C106.8,222.5,107.6,223.5,108.7,223.8z"/>
	<path class="st1" d="M89.9,276.4c0.4,0,0.7-0.1,1-0.2l-1.7-1.2l1.7,1.2c0.9-0.4,1.5-1.3,1.5-2.3c0-1.4-1.2-2.5-2.6-2.5
		c-1.4,0-2.6,1.1-2.6,2.5c0,0.4,0.1,0.7,0.2,1h1.7h-1.7C88,275.8,88.9,276.4,89.9,276.4z"/>
	<path class="st1" d="M64.2,276.8c-1.4,0-2.6,1.1-2.6,2.5c0,1.4,1.2,2.5,2.6,2.5c1.4,0,2.6-1.1,2.6-2.5
		C66.8,277.9,65.6,276.8,64.2,276.8z"/>
	<path class="st1" d="M130.7,308.8c1.4,0,2.6-1.1,2.6-2.5c0-1.4-1.2-2.5-2.6-2.5c-0.8,0-1.5,0.4-2,0.9l2,1.6l-2-1.6
		c-0.4,0.4-0.6,1-0.6,1.6C128.2,307.7,129.3,308.8,130.7,308.8z"/>
	<path class="st1" d="M162.3,310c1.1,0,2-0.6,2.4-1.5l-1.1-1l1.1,1c0.1-0.3,0.2-0.6,0.2-1c0-1.4-1.2-2.5-2.6-2.5
		c-1.4,0-2.6,1.1-2.6,2.5c0,0.3,0.1,0.5,0.1,0.8l1.8-1.4l-1.8,1.4C160.2,309.3,161.1,310,162.3,310z"/>
	<path class="st1" d="M153.3,313.4c-0.5-0.4-1.1-0.7-1.7-0.7c-1.4,0-2.5,1.1-2.6,2.4h2.1L153.3,313.4z"/>
	<path class="st1" d="M154.1,315.3c0-0.7-0.3-1.4-0.9-1.8l-2.2,1.8h0h0h-2.1c0,0,0,0.1,0,0.1c0,1.4,1.2,2.5,2.6,2.5
		c0.3,0,0.6-0.1,0.9-0.2l-1.4-2.4l1.4,2.4C153.4,317.3,154.1,316.3,154.1,315.3z"/>
	<path class="st1" d="M144.3,311.8c-1.4,0-2.6,1.1-2.6,2.5c0,1.4,1.2,2.5,2.6,2.5c1.1,0,2.1-0.7,2.4-1.7h-2.6h2.6
		c0.1-0.3,0.2-0.5,0.2-0.8C146.9,313,145.7,311.8,144.3,311.8z"/>
	<path class="st1" d="M177,322.5c0,1.4,1.2,2.5,2.6,2.5c0.7,0,1.3-0.3,1.8-0.7l-1.3-1.5l1.3,1.5c0.5-0.5,0.8-1.1,0.8-1.8
		c0-1.4-1.2-2.5-2.6-2.5c-0.7,0-1.3,0.3-1.8,0.7l2.3,2.1l-2.3-2.1C177.3,321.2,177,321.8,177,322.5z"/>
	<path class="st1" d="M156.4,324.7c-0.6,0.5-1,1.2-1,2c0,1.4,1.2,2.5,2.6,2.5c0.7,0,1.3-0.3,1.8-0.7l-1.8-1.1L156.4,324.7z"/>
	<path class="st1" d="M160.6,326.7c0-1.4-1.2-2.5-2.6-2.5c-0.6,0-1.1,0.2-1.6,0.5l1.6,2.7l1.8,1.1
		C160.2,328.1,160.6,327.4,160.6,326.7z"/>
	<path class="st1" d="M190.6,338.9c0,0.3,0.1,0.7,0.2,1l2.5-1.8l-2.5,1.8c0.4,1.3,1.7,2.3,3.2,2.3c1.9,0,3.4-1.5,3.4-3.3
		s-1.5-3.3-3.4-3.3c-0.8,0-1.6,0.3-2.2,0.8l2.2,2.5l-2.2-2.5C191.1,337,190.6,337.9,190.6,338.9z"/>
	<path class="st1" d="M179.6,347.9L179.6,347.9L179.6,347.9L179.6,347.9l-1.5-2.9c-1.1,0.5-1.9,1.6-1.9,2.9c0,1.8,1.5,3.3,3.4,3.3
		s3.4-1.5,3.4-3.3c0-0.7-0.3-1.4-0.7-1.9L179.6,347.9L179.6,347.9z"/>
	<path class="st1" d="M179.6,344.6c-0.5,0-1,0.1-1.5,0.4l1.5,2.9l2.7-1.9C181.7,345.1,180.7,344.6,179.6,344.6z"/>
	<path class="st1" d="M157.1,243c0.8,0,1.5-0.7,1.5-1.5c0-0.8-0.7-1.5-1.5-1.5c-0.8,0-1.5,0.7-1.5,1.5c0,0,0,0,0,0l1-0.1l-1,0.1
		C155.6,242.4,156.3,243,157.1,243z"/>
	<path class="st1" d="M149.8,242.2c0,0.8,0.7,1.5,1.5,1.5c0.8,0,1.5-0.7,1.5-1.5c0-0.1,0-0.1,0-0.2l-1.5,0.2l1.5-0.2
		c-0.1-0.7-0.7-1.2-1.5-1.2c-0.3,0-0.6,0.1-0.9,0.3l0.4,0.4l-0.4-0.4C150.1,241.3,149.8,241.7,149.8,242.2z"/>
	<path class="st1" d="M146.3,227.6c0-0.8-0.7-1.5-1.5-1.5c-0.8,0-1.5,0.7-1.5,1.5c0,0.8,0.7,1.5,1.5,1.5c0,0,0,0,0,0l0-0.5l0,0.5
		C145.6,229.1,146.3,228.4,146.3,227.6z"/>
	<path class="st1" d="M137.6,239.6h0.5H137.6c0.3,0.5,0.7,0.8,1.3,0.8c0.8,0,1.5-0.7,1.5-1.5c0-0.1,0-0.2,0-0.2l-0.4,0.2l0.4-0.2
		c-0.1-0.7-0.7-1.2-1.5-1.2c-0.7,0-1.3,0.5-1.4,1.1L137.6,239.6C137.6,239.5,137.6,239.6,137.6,239.6z"/>
	<path class="st1" d="M137.5,239.5l-0.1-1c0,0.1-0.1,0.3-0.1,0.4C137.4,239.1,137.5,239.3,137.5,239.5z"/>
	<path class="st1" d="M132.6,238.1c-0.8,0-1.5,0.7-1.5,1.5c0,0.8,0.7,1.5,1.5,1.5c0.8,0,1.5-0.7,1.5-1.5h-0.4h0.4c0,0,0,0,0,0
		C134.1,238.8,133.4,238.1,132.6,238.1z"/>
	<path class="st1" d="M147,269.4c0.5,0.9,1.5,1.5,2.6,1.6l0.2-2.8l-0.2,2.8c0.1,0,0.2,0,0.2,0c1.8,0,3.3-1.4,3.3-3.2
		c0-1.7-1.3-3-3-3.1l-0.2,0.6l0.2-0.6c-0.1,0-0.1,0-0.2,0c-1.2,0-2.3,0.7-2.8,1.6c0.3,0.5,0.4,1,0.4,1.5
		C147.4,268.4,147.3,269,147,269.4z"/>
	<path class="st1" d="M135.5,268.7l0.3-0.4L135.5,268.7c0.6,0.7,1.5,1.2,2.5,1.2c1.2,0,2.3-0.7,2.9-1.7c0-0.1,0-0.2,0-0.3
		c0-0.5,0.2-1,0.4-1.5c-0.2-1.6-1.5-2.9-3.2-2.9v0.7v-0.7c0,0,0,0,0,0c-1.6,0-2.9,1.1-3.2,2.5l0.3,0.2l-0.3-0.2
		c-0.1,0.2-0.1,0.5-0.1,0.7C134.8,267.5,135.1,268.1,135.5,268.7z"/>
	<path class="st1" d="M140.9,268.2c0.2,1.6,1.5,2.9,3.2,2.9c1.2,0,2.3-0.7,2.8-1.6c-0.3-0.5-0.4-1-0.4-1.5c0-0.6,0.2-1.1,0.4-1.5
		c-0.6-1-1.6-1.6-2.8-1.6c-1.2,0-2.3,0.7-2.9,1.7c0,0.1,0,0.2,0,0.3C141.3,267.2,141.2,267.7,140.9,268.2z"/>
	<path class="st1" d="M147,269.4c0.3-0.5,0.4-1,0.4-1.5c0-0.6-0.2-1.1-0.4-1.5c-0.3,0.5-0.4,1-0.4,1.5
		C146.6,268.4,146.8,269,147,269.4z"/>
	<path class="st1" d="M140.9,268.2c0.2-0.4,0.4-0.9,0.4-1.5c0-0.1,0-0.2,0-0.3c-0.2,0.4-0.4,0.9-0.4,1.5
		C140.9,268,140.9,268.1,140.9,268.2z"/>
	<path class="st1" d="M125.5,262.5c0.8,0,1.5-0.7,1.5-1.5c0-0.1,0-0.2,0-0.3l-0.7-0.5l0.7,0.5c-0.2-0.6-0.7-1.1-1.5-1.1
		c-0.8,0-1.5,0.7-1.5,1.5c0,0.4,0.1,0.7,0.4,1l0.3-0.4l-0.3,0.4C124.7,262.4,125.1,262.5,125.5,262.5z"/>
	<path class="st1" d="M122.7,266.2c0-0.5-0.2-0.9-0.6-1.1l-0.2,0.3l0.2-0.3c-0.3-0.2-0.6-0.3-1-0.3c-0.8,0-1.5,0.7-1.5,1.5
		c0,0.5,0.2,0.9,0.6,1.2l0.2-0.7l-0.2,0.7c0.3,0.2,0.6,0.3,0.9,0.3C122,267.7,122.7,267,122.7,266.2z"/>
	<path class="st1" d="M116.5,281.2c0.8,0,1.5-0.7,1.5-1.5c0-0.8-0.6-1.4-1.4-1.5l-0.5,1.5l0.5-1.5c0,0-0.1,0-0.1,0
		c-0.8,0-1.5,0.7-1.5,1.5C115,280.6,115.6,281.2,116.5,281.2z"/>
	<path class="st1" d="M134.1,286.1c0-0.8-0.7-1.5-1.5-1.5c-0.8,0-1.5,0.7-1.5,1.5c0,0.8,0.7,1.5,1.5,1.5
		C133.4,287.6,134.1,286.9,134.1,286.1z"/>
	<path class="st1" d="M133,289.2c-0.8,0-1.5,0.7-1.5,1.5s0.7,1.5,1.5,1.5c0.8,0,1.5-0.7,1.5-1.5S133.9,289.2,133,289.2z"/>
	<path class="st1" d="M136.6,288.7c0,0.8,0.7,1.5,1.5,1.5c0.8,0,1.5-0.7,1.5-1.5c0-0.2,0-0.4-0.1-0.6l-2.7-0.1
		C136.6,288.2,136.6,288.4,136.6,288.7z"/>
	<path class="st1" d="M138.1,287.2c-0.5,0-0.9,0.2-1.2,0.6l2.2-0.2C138.8,287.3,138.5,287.2,138.1,287.2z"/>
	<path class="st1" d="M139.1,287.6l-2.2,0.2c-0.1,0.1-0.1,0.1-0.1,0.2l2.7,0.1C139.4,287.9,139.2,287.7,139.1,287.6z"/>
	<path class="st1" d="M111,245.1c0,0.8,0.7,1.5,1.5,1.5c0.4,0,0.8-0.2,1.1-0.5l-1.1-0.6l1.1,0.6c0.3-0.3,0.4-0.6,0.4-1
		c0-0.8-0.7-1.5-1.5-1.5c-0.2,0-0.3,0-0.5,0.1l0.5,1.8l-0.5-1.8C111.4,243.9,111,244.5,111,245.1z"/>
	<path class="st1" d="M108.8,233.2c0.2,0,0.3,0,0.5-0.1l-0.5-1.9l0.5,1.9c0.6-0.2,1-0.7,1-1.4c0-0.8-0.7-1.5-1.5-1.5
		c-0.8,0-1.5,0.7-1.5,1.5c0,0.3,0.1,0.6,0.3,0.8l1.4-0.6l-1.4,0.6C107.8,233,108.3,233.2,108.8,233.2z"/>
	<path class="st1" d="M101.8,234.5c0,0.8,0.7,1.5,1.5,1.5c0.8,0,1.5-0.7,1.5-1.5c0-0.2-0.1-0.4-0.1-0.6l-1.4,0.6l0.7-1.3
		c-0.2-0.1-0.4-0.2-0.7-0.2C102.5,233,101.8,233.7,101.8,234.5z"/>
	<path class="st1" d="M104.7,233.9c-0.1-0.3-0.4-0.6-0.7-0.7l-0.7,1.3L104.7,233.9z"/>
	<path class="st1" d="M66.1,213.1c0,0.7,0.4,1.2,1.1,1.4l0.5-1.4l-0.5,1.4c0.1,0,0.3,0.1,0.5,0.1c0.8,0,1.5-0.7,1.5-1.5
		c0-0.8-0.7-1.5-1.5-1.5c-0.1,0-0.2,0-0.2,0l0.2,0.8l-0.2-0.8C66.7,211.7,66.1,212.3,66.1,213.1z"/>
	<path class="st1" d="M64.6,273.4c-0.8,0-1.5,0.7-1.5,1.5c0,0.8,0.7,1.5,1.5,1.5c0.8,0,1.5-0.7,1.5-1.5h-1.5h1.5c0,0,0,0,0,0
		C66.1,274.1,65.4,273.4,64.6,273.4z"/>
	<path class="st1" d="M60.1,273.4c-0.8,0-1.5,0.7-1.5,1.5c0,0.8,0.7,1.5,1.5,1.5c0.8,0,1.5-0.7,1.5-1.5
		C61.6,274.1,60.9,273.4,60.1,273.4z"/>
	<path class="st1" d="M60.1,277.3c-0.8,0-1.5,0.7-1.5,1.5c0,0.8,0.7,1.5,1.5,1.5c0.8,0,1.5-0.7,1.5-1.5
		C61.6,278,60.9,277.3,60.1,277.3z"/>
	<path class="st1" d="M127.5,275.6c0,1.8,1.5,3.2,3.3,3.2c1.8,0,3.3-1.4,3.3-3.2c0-1.2-0.7-2.2-1.7-2.8l-0.8,1l0.8-1
		c-0.5-0.3-1-0.4-1.6-0.4C128.9,272.4,127.5,273.8,127.5,275.6z"/>
	<path class="st1" d="M250.7,89.5l-3.2-0.4L250.7,89.5c0-0.1,0-0.3,0-0.4c0-1.7-1.5-3.2-3.3-3.2s-3.3,1.4-3.3,3.2
		c0,1.8,1.5,3.2,3.3,3.2c0.8,0,1.4-0.3,2-0.7l-2-2.5l2,2.5C250.1,91.1,250.5,90.4,250.7,89.5z"/>
	<path class="st1" d="M202.8,46.5c-1.8,0-3.3,1.4-3.3,3.2c0,0.4,0.1,0.9,0.3,1.2l2.4-1.2l-2.4,1.2c0.5,1.1,1.7,1.9,3,1.9
		c0.6,0,1.1-0.2,1.6-0.4v-5.5C203.9,46.6,203.4,46.5,202.8,46.5z"/>
	<path class="st1" d="M206.1,49.6c0-1.2-0.7-2.2-1.7-2.8v5.5C205.4,51.8,206.1,50.8,206.1,49.6z"/>
	<path class="st1" d="M160,60.1c1.8,0,3.3-1.4,3.3-3.2c0-1.7-1.5-3.2-3.3-3.2c-1.7,0-3.1,1.3-3.2,2.9l0.9,0l-0.9,0
		c0,0.1,0,0.2,0,0.3C156.7,58.7,158.2,60.1,160,60.1z"/>
	<path class="st1" d="M137.4,76.8c0,1.7,1.5,3.2,3.3,3.2c1.8,0,3.3-1.4,3.3-3.2s-1.5-3.2-3.3-3.2c-0.2,0-0.4,0-0.6,0.1l-0.1,1.7
		l0.1-1.7C138.5,73.9,137.4,75.2,137.4,76.8z"/>
	<path class="st1" d="M105.5,63.8c-1.8,0-3.3,1.4-3.3,3.2s1.5,3.2,3.3,3.2c1.8,0,3.3-1.4,3.3-3.2c0-0.7-0.3-1.4-0.7-2l-0.7,0.5
		l0.7-0.5C107.5,64.3,106.6,63.8,105.5,63.8z"/>
	<path class="st1" d="M71.3,132.6c0-1.8-1.5-3.2-3.3-3.2c-1.8,0-3.3,1.4-3.3,3.2c0,0.9,0.4,1.7,1,2.3l1.9-3.1l-1.9,3.1
		c0.6,0.6,1.4,0.9,2.3,0.9C69.8,135.8,71.3,134.4,71.3,132.6z"/>
	<path class="st1" d="M64.7,193.8c0-1.6-1.2-2.9-2.8-3.1l-0.4,2.9l0.4-2.9c-0.1,0-0.3,0-0.4,0c-1.7,0-3,1.2-3.2,2.8l2.8,0.1
		l-2.8-0.1c0,0.1,0,0.2,0,0.3c0,1.8,1.5,3.2,3.3,3.2c0.5,0,1.1-0.1,1.5-0.4l-0.8-2.8l0.8,2.8C64,196.1,64.7,195.1,64.7,193.8z"/>
	<path class="st1" d="M98.9,221.4c1.3,0,2.3-0.9,2.5-2.1l-1.5-0.4l1.5,0.4c0-0.1,0-0.3,0-0.4c0-1.4-1.2-2.5-2.6-2.5
		c-0.7,0-1.4,0.3-1.8,0.7l1.8,1.8l-1.8-1.8c-0.5,0.5-0.8,1.1-0.8,1.8C96.3,220.3,97.4,221.4,98.9,221.4z"/>
	<path class="st1" d="M93.5,215.6c0.5,0,1-0.2,1.4-0.4l-1.4-1.4l1.4,1.4c0.7-0.5,1.1-1.2,1.1-2.1c0-1.4-1.2-2.5-2.6-2.5
		c-0.8,0-1.5,0.4-2,0.9l1,0.9l-1-0.9c-0.4,0.4-0.6,1-0.6,1.6C90.9,214.4,92.1,215.6,93.5,215.6z"/>
	<path class="st1" d="M109.9,190.7c0,1.4,1.2,2.5,2.6,2.5c0.8,0,1.6-0.4,2.1-1l-2-1.5l2,1.5c0.3-0.4,0.5-0.9,0.5-1.5
		c0-1.4-1.2-2.5-2.6-2.5c-0.7,0-1.3,0.3-1.8,0.7l1.8,1.5l-1.8-1.5C110.2,189.3,109.9,190,109.9,190.7z"/>
	<path class="st1" d="M119.8,184.7l-1.5-1.7L119.8,184.7c0.2-0.4,0.4-0.8,0.4-1.3c0-1.4-1.2-2.5-2.6-2.5c-1.4,0-2.6,1.1-2.6,2.5
		c0,1.4,1.2,2.5,2.6,2.5c0.5,0,1-0.1,1.4-0.4l-1.7-2.1l1.7,2.1C119.4,185.3,119.6,185,119.8,184.7z"/>
	<path class="st1" d="M135.9,186.3c-0.1,0-0.1,0-0.2,0l0.2,2.5l-0.2-2.5c-1.3,0.1-2.4,1.2-2.4,2.5c0,1.4,1.2,2.5,2.6,2.5
		c0.8,0,1.5-0.3,1.9-0.9l-1.9-1.6l1.9,1.6c0.4-0.4,0.6-1,0.6-1.6C138.5,187.4,137.3,186.3,135.9,186.3z"/>
	<path class="st1" d="M142.4,197.9c-0.6,0.2-1.1,0.6-1.4,1.1h1.8L142.4,197.9z"/>
	<path class="st1" d="M143.3,200.2l-0.5-1.3H141c-0.2,0.4-0.4,0.8-0.4,1.3c0,0.7,0.3,1.3,0.7,1.7l1.9-0.6l-1.9,0.6
		c0.5,0.5,1.1,0.8,1.9,0.8c1.4,0,2.6-1.1,2.6-2.5c0-0.5-0.1-0.9-0.4-1.3h-2.7L143.3,200.2z"/>
	<path class="st1" d="M143.3,197.7c-0.3,0-0.6,0.1-0.8,0.1l0.4,1.1h2.7C145,198.2,144.2,197.7,143.3,197.7z"/>
	<path class="st1" d="M62.4,221.4c0,1.4,1.2,2.5,2.6,2.5c0.6,0,1.2-0.2,1.6-0.6l-2-1.6l2,1.6c0.6-0.5,0.9-1.1,0.9-1.9
		c0-1.2-0.8-2.2-2-2.4l-0.9,2.8l0.9-2.8c-0.2,0-0.4-0.1-0.6-0.1C63.6,218.9,62.4,220,62.4,221.4z"/>
	<path class="st1" d="M70.2,228.9c1.4,0,2.6-1.1,2.6-2.5c0-1.4-1.2-2.5-2.6-2.5c-0.7,0-1.4,0.3-1.8,0.8l2.2,1.8l-2.2-1.8
		c-0.5,0.5-0.7,1.1-0.7,1.8C67.6,227.8,68.8,228.9,70.2,228.9z"/>
	<path class="st1" d="M67.3,173.2c0-0.7-0.3-1.3-0.7-1.7l-1.1,1.1l1.1-1.1c-0.5-0.5-1.1-0.8-1.9-0.8c-0.7,0-1.4,0.3-1.9,0.8l1.6,2
		l0,0l0,0l0,0l0,0l-0.3,2.1c0.2,0.1,0.4,0.1,0.6,0.1C66.2,175.7,67.3,174.6,67.3,173.2z"/>
	<path class="st1" d="M62.8,171.5c-0.4,0.4-0.7,1-0.7,1.7c0,1.2,0.8,2.1,1.9,2.4l0.3-2.1L62.8,171.5z"/>
	<path class="st1" d="M75.5,165.4c0-0.4-0.1-0.7-0.2-1l-1.8,0.6l1.8-0.6c-0.4-0.9-1.3-1.5-2.4-1.5c-1.4,0-2.6,1.1-2.6,2.5
		c0,0.7,0.3,1.3,0.8,1.8l1.8-1.8l-1.8,1.8c0.5,0.5,1.1,0.7,1.8,0.7C74.3,167.9,75.5,166.7,75.5,165.4z"/>
	<path class="st1" d="M59.4,162.9c0-1.3-1.1-2.4-2.4-2.5l-0.1,2.7l0.1-2.7c0,0-0.1,0-0.1,0c-1.4,0-2.6,1.1-2.6,2.5
		c0,1.4,1.2,2.5,2.6,2.5c0.4,0,0.7-0.1,1-0.2l-1-1.3l1,1.3C58.8,164.8,59.4,163.9,59.4,162.9z"/>
	<path class="st1" d="M60.8,149c0-1.2-0.9-2.3-2.2-2.5l-1,1.6l1-1.6c-0.1,0-0.3,0-0.4,0c-1.4,0-2.6,1.1-2.6,2.5
		c0,1.1,0.8,2.1,1.8,2.4l0.2-3.2l-0.2,3.2c0.2,0.1,0.5,0.1,0.7,0.1C59.6,151.5,60.8,150.3,60.8,149z"/>
	<path class="st1" d="M126.7,159.9c-0.8,0-1.5,0.4-2,0.9l2,1.6l-2-1.6c-0.4,0.4-0.6,1-0.6,1.6c0,1.4,1.2,2.5,2.6,2.5
		c1.1,0,2-0.7,2.4-1.6l-2.4-0.9l2.4,0.9c0.1-0.3,0.2-0.6,0.2-0.9C129.3,161.1,128.1,159.9,126.7,159.9z"/>
	<path class="st1" d="M183.3,39.2c0.4,0,0.8-0.1,1.1-0.3l-1.1-3.2l1.1,3.2c0.9-0.4,1.5-1.3,1.5-2.2c0-1.4-1.2-2.5-2.6-2.5
		s-2.6,1.1-2.6,2.5S181.8,39.2,183.3,39.2z"/>
	<path class="st1" d="M138.9,49c1.4,0,2.6-1.1,2.6-2.5s-1.2-2.5-2.6-2.5c-1.4,0-2.6,1.1-2.6,2.5S137.5,49,138.9,49z"/>
	<path class="st1" d="M222.3,30.3c1.2,0,2.3-0.9,2.5-2c-1.7-0.2-3.4-0.4-5.1-0.5C219.8,29.2,220.9,30.3,222.3,30.3z"/>
	<path class="st1" d="M186.9,231.8c0-0.9,0.5-1.7,1.3-2.2c-1,0.3-1.8,1.3-1.8,2.4c0,1.4,1.2,2.5,2.6,2.5c0.5,0,0.9-0.1,1.3-0.3
		c-0.3,0.1-0.5,0.1-0.8,0.1C188,234.3,186.9,233.1,186.9,231.8z"/>
	<path class="st1" d="M191.6,232c0-1.4-1.2-2.5-2.6-2.5c-0.3,0-0.6,0.1-0.8,0.1c-0.8,0.4-1.3,1.2-1.3,2.2c0,1.4,1.2,2.5,2.6,2.5
		c0.3,0,0.6-0.1,0.8-0.1C191.1,233.7,191.6,232.9,191.6,232z"/>
	<path class="st1" d="M188.2,56.1c0,0.9,0.7,1.6,1.6,1.6c0.9,0,1.6-0.7,1.6-1.6c0-0.9-0.7-1.6-1.6-1.6l0,0l0,0c0,0,0,0,0,0
		C188.9,54.5,188.2,55.2,188.2,56.1z"/>
	<path class="st1" d="M250.5,288.6l0.4-1.5c-0.1,0-0.3-0.1-0.4-0.1c-0.9,0-1.6,0.7-1.6,1.6c0,0.3,0.1,0.6,0.3,0.8L250.5,288.6
		l-1.4,0.8c0.3,0.4,0.8,0.7,1.4,0.7c0.2,0,0.4,0,0.6-0.1v-2.9c-0.1,0-0.1,0-0.2-0.1L250.5,288.6z"/>
	<path class="st1" d="M242.4,292.1c-0.9,0-1.6,0.7-1.6,1.6c0,0.2,0.1,0.5,0.2,0.7l1.4-0.7l-1.4,0.7c0.3,0.5,0.8,0.9,1.4,0.9
		c0.9,0,1.6-0.7,1.6-1.6c0-0.3-0.1-0.6-0.3-0.8l-1.4,0.9l1.4-0.9C243.4,292.4,242.9,292.1,242.4,292.1z"/>
	<path class="st1" d="M229.8,292.9c-0.9,0-1.6,0.7-1.6,1.6c0,0.9,0.7,1.6,1.6,1.6c0.7,0,1.3-0.5,1.5-1.1l-1.5-0.4l1.5,0.4
		c0-0.1,0.1-0.3,0.1-0.4C231.4,293.6,230.7,292.9,229.8,292.9z"/>
	<path class="st1" d="M237.7,315.3l0.5-1l-1.6-0.6c0,0,0,0,0,0.1C236.5,314.6,237,315.1,237.7,315.3z"/>
	<path class="st1" d="M238.2,314.3L238.2,314.3L238.2,314.3L238.2,314.3l-0.5,1c0.2,0,0.3,0.1,0.5,0.1c0.9,0,1.6-0.7,1.6-1.6
		c0-0.9-0.7-1.6-1.6-1.6c-0.9,0-1.6,0.7-1.6,1.5L238.2,314.3L238.2,314.3z"/>
	<path class="st1" d="M218.3,307.4l-1.5-0.5L218.3,307.4c0.1-0.2,0.1-0.3,0.1-0.5c0-0.9-0.7-1.6-1.6-1.6c-0.9,0-1.6,0.7-1.6,1.6
		c0,0.7,0.4,1.2,1,1.5l0.6-1.5l-0.6,1.5c0.2,0.1,0.4,0.1,0.6,0.1C217.5,308.4,218.1,308,218.3,307.4z"/>
	<path class="st1" d="M227.3,332.8h1.6H227.3C227.3,332.8,227.3,332.8,227.3,332.8c0,0.9,0.7,1.6,1.6,1.6s1.6-0.7,1.6-1.6
		c0-0.6-0.4-1.2-0.9-1.4l-0.7,1.4l0.7-1.4c-0.2-0.1-0.5-0.2-0.7-0.2C228,331.2,227.3,331.9,227.3,332.8z"/>
	<path class="st1" d="M207.1,331.3l-0.6,1.5L207.1,331.3c-0.2-0.1-0.4-0.1-0.6-0.1c-0.9,0-1.6,0.7-1.6,1.6c0,0.9,0.7,1.6,1.6,1.6
		s1.6-0.7,1.6-1.6c0,0,0,0,0,0h-1.6h1.6C208.1,332.1,207.7,331.5,207.1,331.3z"/>
	<path class="st1" d="M185.2,296.8l2.5-1.3c-0.2-0.1-0.5-0.2-0.8-0.2C186,295.2,185.2,295.9,185.2,296.8z"/>
	<path class="st1" d="M185.2,296.8c0,0.9,0.7,1.6,1.6,1.6c0.9,0,1.6-0.7,1.6-1.6c0-0.6-0.3-1.1-0.8-1.3L185.2,296.8
		C185.2,296.8,185.2,296.8,185.2,296.8z"/>
	<path class="st1" d="M173.5,335.8c-0.5,0-0.9,0.2-1.2,0.5l1.8,1.1l-1.8-1.1c-0.3,0.3-0.5,0.7-0.5,1.1c0,0.9,0.7,1.6,1.6,1.6
		c0.5,0,0.9-0.2,1.2-0.5l-0.6-1.1l0.6,1.1c0.3-0.3,0.4-0.7,0.4-1.1C175.2,336.5,174.4,335.8,173.5,335.8z"/>
	<path class="st1" d="M236.5,294.3c-1,0-1.9,0.7-2.1,1.6l2.1,0.6l2-0.9C238.2,294.8,237.4,294.3,236.5,294.3z"/>
	<path class="st1" d="M236.5,296.4L236.5,296.4L236.5,296.4L236.5,296.4l-2.1-0.6c-0.1,0.2-0.1,0.4-0.1,0.6c0,1.2,1,2.2,2.2,2.2
		c1.2,0,2.2-1,2.2-2.2c0-0.3-0.1-0.7-0.2-0.9L236.5,296.4L236.5,296.4z"/>
	<path class="st1" d="M141.4,55.3l-0.3-0.7c-0.7,0.2-1.3,0.8-1.3,1.5c0,0.8,0.7,1.5,1.5,1.6l0.1-1.6l-0.1,1.6c0,0,0.1,0,0.1,0
		c0.9,0,1.6-0.7,1.6-1.6c0,0,0,0,0,0l0,0l0,0c0-0.9-0.7-1.6-1.6-1.6c-0.1,0-0.2,0-0.3,0L141.4,55.3z"/>
	<path class="st1" d="M113.3,59.7c0,0.4,0.1,0.7,0.4,1l1.2-1l-1.2,1c0.3,0.4,0.7,0.6,1.3,0.6c0.9,0,1.6-0.7,1.6-1.6
		c0-0.6-0.3-1.1-0.9-1.4l-0.8,1.4l0.8-1.4c-0.2-0.1-0.5-0.2-0.8-0.2C114,58.1,113.3,58.8,113.3,59.7z"/>
	<path class="st1" d="M147.6,128.8c0-0.6-0.4-1.2-1-1.4l-0.7,1.4l0.7-1.4c-0.2-0.1-0.4-0.1-0.7-0.1c-0.9,0-1.6,0.7-1.6,1.6
		c0,0.8,0.7,1.5,1.5,1.6l0.1-1.6l-0.1,1.6c0,0,0.1,0,0.1,0C146.9,130.3,147.6,129.6,147.6,128.8z"/>
	<path class="st1" d="M145.4,138.6c0.9,0,1.6-0.7,1.6-1.6c0-0.8-0.7-1.5-1.5-1.6l-0.1,1.6l0.1-1.6c0,0-0.1,0-0.1,0
		c-0.9,0-1.6,0.7-1.6,1.6c0,0.3,0.1,0.5,0.2,0.8l1.4-0.8l-1.4,0.8C144.2,138.2,144.8,138.6,145.4,138.6z"/>
	<path class="st1" d="M133.4,144.2c0-0.3-0.1-0.5-0.2-0.8l-1.4,0.8l1.4-0.8c-0.3-0.5-0.8-0.8-1.4-0.8c-0.9,0-1.6,0.7-1.6,1.6
		c0,0.5,0.3,1,0.7,1.3l1-1.3l-1,1.3c0.3,0.2,0.6,0.3,1,0.3C132.7,145.8,133.4,145.1,133.4,144.2z"/>
	<path class="st1" d="M122.1,156.7l-1,1.2L122.1,156.7c-0.3-0.2-0.6-0.3-1-0.3c-0.9,0-1.6,0.7-1.6,1.6c0,0.9,0.7,1.6,1.6,1.6
		c0.5,0,0.9-0.2,1.2-0.6l-1.2-1l1.2,1c0.2-0.3,0.4-0.6,0.4-1C122.7,157.5,122.5,157,122.1,156.7z"/>
	<path class="st1" d="M135.9,166.1c0-0.9-0.7-1.6-1.6-1.6c-0.4,0-0.8,0.2-1.1,0.4l1.1,0.4l-1.1-0.4c-0.3,0.3-0.5,0.7-0.5,1.2
		c0,0.9,0.7,1.6,1.6,1.6c0.1,0,0.1,0,0.2,0l-0.2-2.3l0.2,2.3C135.2,167.6,135.9,166.9,135.9,166.1z"/>
	<path class="st1" d="M139.8,192.2c-0.2,0.3-0.4,0.6-0.4,1c0,0.9,0.7,1.6,1.6,1.6c0.1,0,0.2,0,0.3,0l-0.7-1.9L139.8,192.2z"/>
	<path class="st1" d="M142.7,193.2c0-0.9-0.7-1.6-1.6-1.6c-0.5,0-0.9,0.2-1.2,0.5l0.8,0.7l0,0l0,0l0.4,0.3l-0.4-0.3l0.7,1.9
		C142.1,194.6,142.7,194,142.7,193.2z"/>
	<path class="st1" d="M126.7,195.8c0.9,0,1.6-0.7,1.6-1.6c0-0.1,0-0.2,0-0.3l-1.1-1.2c-0.2,0-0.3-0.1-0.5-0.1c-0.5,0-1,0.2-1.3,0.6
		l0.8,1l0,0l0,0l0,0l0,0l-1,0.6C125.4,195.4,126,195.8,126.7,195.8z"/>
	<path class="st1" d="M125.4,193.3c-0.2,0.3-0.4,0.6-0.4,1c0,0.2,0,0.4,0.1,0.6l1-0.6L125.4,193.3z"/>
	<path class="st1" d="M127.2,192.7l1.1,1.2C128.2,193.4,127.7,192.9,127.2,192.7z"/>
	<path class="st1" d="M136.8,201.4c-0.5,0-1,0.2-1.2,0.6l1.2,1.3l-1.2-1.3c-0.2,0.3-0.4,0.6-0.4,1c0,0.9,0.7,1.6,1.6,1.6
		c0.9,0,1.6-0.7,1.6-1.6c0,0,0-0.1,0-0.1l-1.6,0.5l1.6-0.5C138.4,202,137.7,201.4,136.8,201.4z"/>
	<path class="st1" d="M122.5,197.7c0.9,0,1.6-0.7,1.6-1.6c0-0.2,0-0.4-0.1-0.6l-1,0.6l1-0.6c-0.2-0.6-0.8-1-1.5-1
		c-0.7,0-1.2,0.4-1.5,0.9l2,0.7l-2-0.7c-0.1,0.2-0.2,0.4-0.2,0.7C120.8,197,121.6,197.7,122.5,197.7z"/>
	<path class="st1" d="M118.3,194.6c0-0.1,0-0.2,0-0.3c0-0.9-0.7-1.6-1.6-1.6c-0.4,0-0.7,0.1-1,0.4l1.6,1.2L118.3,194.6z"/>
	<path class="st1" d="M115.1,194.2c0,0.9,0.7,1.6,1.6,1.6c0.8,0,1.4-0.5,1.6-1.2l-1-0.3l0,0l0,0l0,0l0,0l-1.6-1.2
		C115.3,193.3,115.1,193.7,115.1,194.2z"/>
	<path class="st1" d="M105.2,185.8c0.5,0,0.9-0.2,1.2-0.5l-1.2-1l1.2,1c0.2-0.3,0.4-0.6,0.4-1c0-0.9-0.7-1.6-1.6-1.6
		c-0.9,0-1.6,0.7-1.6,1.6l1.6,0l-1.6,0c0,0,0,0,0,0C103.6,185.1,104.3,185.8,105.2,185.8z"/>
	<path class="st1" d="M98.3,185.8c0.9,0,1.6-0.7,1.6-1.6c0,0,0,0,0,0l-1.6,0l1.6,0c0-0.9-0.7-1.6-1.6-1.6c-0.9,0-1.6,0.7-1.6,1.6
		c0,0.2,0,0.3,0.1,0.5l1.2-0.5l-1.2,0.5C96.9,185.4,97.5,185.8,98.3,185.8z"/>
	<path class="st1" d="M91.9,187.3c0-0.2,0-0.4-0.1-0.6l-1.5,0.6l1.5-0.6c-0.2-0.6-0.8-1-1.5-1c-0.9,0-1.6,0.7-1.6,1.6
		c0,0.5,0.3,1,0.6,1.2l1-1.2l-1,1.2c0.3,0.2,0.6,0.3,1,0.3C91.1,188.8,91.9,188.1,91.9,187.3z"/>
	<path class="st1" d="M87.2,193.8c0-0.7-0.4-1.2-1.1-1.5l-1.2,1.5l1.2-1.5c-0.2-0.1-0.4-0.1-0.6-0.1c-0.9,0-1.6,0.7-1.6,1.6
		c0,0.8,0.6,1.4,1.4,1.5l0-1.5l0,1.5c0.1,0,0.2,0,0.2,0C86.5,195.4,87.2,194.7,87.2,193.8z"/>
	<path class="st1" d="M85,206.7c0,0.9,0.7,1.6,1.6,1.6c0.4,0,0.9-0.2,1.1-0.5l-1.1-1.1l1.1,1.1c0.3-0.3,0.5-0.7,0.5-1.1
		c0-0.9-0.7-1.6-1.6-1.6c-0.4,0-0.7,0.1-1,0.4l0,0.5l0-0.5C85.2,205.8,85,206.2,85,206.7z"/>
	<path class="st1" d="M85,163.1c0.9,0,1.6-0.7,1.6-1.6c0-0.9-0.7-1.6-1.6-1.6s-1.6,0.7-1.6,1.6c0,0,0,0,0,0L85,161l-1.6,0.6
		C83.4,162.4,84.1,163.1,85,163.1z"/>
	<path class="st1" d="M47.3,191.6c-0.6,0-1.1,0.3-1.4,0.7l1.4,0.9l-1.4-0.9c-0.2,0.2-0.3,0.5-0.3,0.9c0,0.9,0.7,1.6,1.6,1.6
		c0.9,0,1.6-0.7,1.6-1.5l-1.6,0l1.6,0c0,0,0,0,0,0C49,192.3,48.2,191.6,47.3,191.6z"/>
	<path class="st1" d="M36.4,185c-0.9,0-1.6,0.7-1.6,1.6s0.7,1.6,1.6,1.6c0.7,0,1.2-0.4,1.5-1l-1-0.6l1,0.6c0.1-0.2,0.1-0.4,0.1-0.6
		C38,185.7,37.3,185,36.4,185z"/>
	<path class="st1" d="M93.5,284.5c-0.1-0.8-0.8-1.4-1.6-1.4c-0.9,0-1.6,0.7-1.6,1.6s0.7,1.6,1.6,1.6c0.8,0,1.5-0.6,1.6-1.4l-0.8,0.2
		L93.5,284.5z"/>
	<path class="st1" d="M93.5,284.5l-0.8,0.5l0.8-0.2c0-0.1,0-0.1,0-0.2C93.5,284.6,93.5,284.6,93.5,284.5z"/>
	<path class="st1" d="M93.5,278.7c0,0-0.1,0-0.1,0l1.4,0.6C94.5,278.9,94,278.7,93.5,278.7z"/>
	<path class="st1" d="M95,280.9c0.1-0.2,0.1-0.4,0.1-0.6l-1.8-1.6c-0.8,0.1-1.4,0.7-1.4,1.6c0,0.9,0.7,1.6,1.6,1.6
		c0.3,0,0.7-0.1,0.9-0.3l-2.1-0.9L95,280.9z"/>
	<path class="st1" d="M95,280.9l-2.7-0.2l2.1,0.9C94.6,281.4,94.8,281.1,95,280.9z"/>
	<path class="st1" d="M95.1,280.2c0-0.4-0.1-0.7-0.3-1l-1.4-0.6c0,0,0,0-0.1,0L95.1,280.2C95.1,280.3,95.1,280.3,95.1,280.2z"/>
	<path class="st1" d="M106.6,324.2c0,1.3,1.1,2.3,2.4,2.3c1.3,0,2.4-1,2.4-2.3c0-1.3-1.1-2.3-2.4-2.3c-0.2,0-0.4,0-0.6,0.1l0.6,2.2
		l-0.6-2.2C107.4,322.2,106.6,323.1,106.6,324.2z"/>
	<polygon class="st1" points="149.9,123.6 152.1,120.9 152.1,124.3 153.2,121 153.7,129.1 154.3,120.9 156.5,123.6 155.3,120.3 
		158.3,122.2 156.1,119.5 159.6,120.4 156.6,118.5 164.8,118.2 156.7,117.4 160,116 156.4,116.3 159,114 155.8,115.4 157.5,112.3 
		154.9,114.7 155.5,111.3 153.8,114.3 153.1,105.9 152.6,114.3 150.9,111.3 151.5,114.7 148.9,112.3 150.6,115.4 147.4,114 
		150,116.3 146.4,116 149.7,117.4 141.4,118.3 149.8,118.5 146.8,120.4 150.3,119.5 150.3,119.5 150.3,119.5 150.3,119.5 
		150.3,119.5 149.4,121.4 151.1,120.3 	"/>
	<polygon class="st1" points="148.1,122.2 149.4,121.4 150.3,119.5 	"/>
	<path class="st1" d="M121.3,272.8c0-1.2-0.8-2.2-1.8-2.6l-0.6,2.1l0.6-2.1c-0.3-0.1-0.7-0.2-1-0.2c-1.6,0-2.8,1.2-2.8,2.8
		c0,1.2,0.8,2.2,1.9,2.6l0.5-1.6l-0.5,1.6c0.3,0.1,0.6,0.2,0.9,0.2C120,275.6,121.3,274.4,121.3,272.8z"/>
</g>
</svg>
