<svg width="408" height="123" viewBox="0 0 408 123" fill="none" xmlns="http://www.w3.org/2000/svg">
<rect y="68.4648" width="407.735" height="25.2669" rx="12.6335" fill="url(#paint0_linear_114_204)"/>
<rect x="263.265" y="93.7324" width="118.999" height="25.2669" transform="rotate(-180 263.265 93.7324)" fill="url(#paint1_linear_114_204)"/>
<path d="M65.3973 111.38C65.3973 112.817 65.1281 114.048 64.5897 115.073C64.0557 116.093 63.3263 116.874 62.4016 117.417C61.4811 117.96 60.437 118.231 59.2691 118.231C58.1012 118.231 57.0549 117.96 56.1301 117.417C55.2097 116.87 54.4803 116.086 53.9419 115.066C53.4079 114.042 53.1409 112.813 53.1409 111.38C53.1409 109.943 53.4079 108.714 53.9419 107.694C54.4803 106.669 55.2097 105.886 56.1301 105.343C57.0549 104.8 58.1012 104.529 59.2691 104.529C60.437 104.529 61.4811 104.8 62.4016 105.343C63.3263 105.886 64.0557 106.669 64.5897 107.694C65.1281 108.714 65.3973 109.943 65.3973 111.38ZM62.9681 111.38C62.9681 110.369 62.8097 109.515 62.4927 108.821C62.1801 108.122 61.746 107.594 61.1902 107.238C60.6345 106.878 59.9941 106.698 59.2691 106.698C58.544 106.698 57.9037 106.878 57.3479 107.238C56.7922 107.594 56.3559 108.122 56.0389 108.821C55.7263 109.515 55.57 110.369 55.57 111.38C55.57 112.392 55.7263 113.247 56.0389 113.946C56.3559 114.641 56.7922 115.168 57.3479 115.529C57.9037 115.885 58.544 116.063 59.2691 116.063C59.9941 116.063 60.6345 115.885 61.1902 115.529C61.746 115.168 62.1801 114.641 62.4927 113.946C62.8097 113.247 62.9681 112.392 62.9681 111.38ZM76.089 104.711H78.5051V113.425C78.5051 114.38 78.2793 115.22 77.8278 115.945C77.3806 116.67 76.7511 117.237 75.9392 117.645C75.1273 118.049 74.1787 118.251 73.0933 118.251C72.0035 118.251 71.0527 118.049 70.2409 117.645C69.429 117.237 68.7994 116.67 68.3523 115.945C67.9051 115.22 67.6815 114.38 67.6815 113.425V104.711H70.0976V113.223C70.0976 113.779 70.2191 114.274 70.4623 114.708C70.7097 115.142 71.0571 115.483 71.5043 115.73C71.9514 115.974 72.4811 116.095 73.0933 116.095C73.7054 116.095 74.2351 115.974 74.6823 115.73C75.1338 115.483 75.4812 115.142 75.7243 114.708C75.9674 114.274 76.089 113.779 76.089 113.223V104.711ZM80.5451 106.737V104.711H91.1864V106.737H87.064V118.049H84.6674V106.737H80.5451Z" fill="white"/>
<path d="M327.847 111.786C327.847 113.223 327.578 114.454 327.04 115.479C326.506 116.499 325.777 117.281 324.852 117.823C323.931 118.366 322.887 118.637 321.719 118.637C320.551 118.637 319.505 118.366 318.58 117.823C317.66 117.276 316.931 116.493 316.392 115.472C315.858 114.448 315.591 113.219 315.591 111.786C315.591 110.349 315.858 109.121 316.392 108.1C316.931 107.076 317.66 106.292 318.58 105.749C319.505 105.207 320.551 104.935 321.719 104.935C322.887 104.935 323.931 105.207 324.852 105.749C325.777 106.292 326.506 107.076 327.04 108.1C327.578 109.121 327.847 110.349 327.847 111.786ZM325.418 111.786C325.418 110.775 325.26 109.922 324.943 109.227C324.63 108.528 324.196 108.001 323.64 107.644C323.085 107.284 322.444 107.104 321.719 107.104C320.994 107.104 320.354 107.284 319.798 107.644C319.242 108.001 318.806 108.528 318.489 109.227C318.177 109.922 318.02 110.775 318.02 111.786C318.02 112.798 318.177 113.653 318.489 114.352C318.806 115.047 319.242 115.574 319.798 115.935C320.354 116.291 320.994 116.469 321.719 116.469C322.444 116.469 323.085 116.291 323.64 115.935C324.196 115.574 324.63 115.047 324.943 114.352C325.26 113.653 325.418 112.798 325.418 111.786ZM338.539 105.118H340.955V113.831C340.955 114.786 340.73 115.627 340.278 116.352C339.831 117.077 339.201 117.643 338.389 118.051C337.578 118.455 336.629 118.657 335.543 118.657C334.454 118.657 333.503 118.455 332.691 118.051C331.879 117.643 331.25 117.077 330.802 116.352C330.355 115.627 330.132 114.786 330.132 113.831V105.118H332.548V113.629C332.548 114.185 332.669 114.68 332.912 115.114C333.16 115.548 333.507 115.889 333.954 116.137C334.402 116.38 334.931 116.501 335.543 116.501C336.156 116.501 336.685 116.38 337.133 116.137C337.584 115.889 337.931 115.548 338.174 115.114C338.418 114.68 338.539 114.185 338.539 113.629V105.118ZM342.995 107.143V105.118H353.637V107.143H349.514V118.455H347.118V107.143H342.995Z" fill="white"/>
<path fill-rule="evenodd" clip-rule="evenodd" d="M161.152 67.1802C164.241 63.1199 166.094 57.925 166.094 52.2631C166.094 39.2664 156.327 28.7305 144.279 28.7305C132.231 28.7305 122.463 39.2664 122.463 52.2631C122.463 57.9245 124.317 63.1191 127.405 67.1792L144.279 93.7317L161.152 67.1802Z" fill="#5487EA"/>
<path fill-rule="evenodd" clip-rule="evenodd" d="M280.151 67.1802C283.239 63.1199 285.093 57.925 285.093 52.2631C285.093 39.2664 275.326 28.7305 263.277 28.7305C251.229 28.7305 241.462 39.2664 241.462 52.2631C241.462 57.9246 243.315 63.1191 246.403 67.1792L263.277 93.7317L280.151 67.1802Z" fill="#5A0FBD"/>
<path d="M137.463 65.6406H133.666L142.199 41.9297H146.332L154.864 65.6406H151.067L144.364 46.2366H144.178L137.463 65.6406ZM138.1 56.3554H150.419V59.3656H138.1V56.3554Z" fill="white"/>
<path d="M255.071 65.6406V41.9297H263.754C265.437 41.9297 266.83 42.2076 267.933 42.7633C269.037 43.3113 269.863 44.0561 270.411 44.9978C270.959 45.9317 271.233 46.9853 271.233 48.1585C271.233 49.1464 271.052 49.98 270.689 50.6592C270.326 51.3307 269.84 51.871 269.23 52.2801C268.628 52.6814 267.964 52.9747 267.239 53.16V53.3915C268.026 53.4301 268.794 53.6848 269.543 54.1556C270.299 54.6188 270.924 55.2787 271.418 56.1354C271.912 56.9922 272.159 58.0341 272.159 59.2614C272.159 60.4732 271.874 61.5615 271.303 62.5263C270.739 63.4833 269.867 64.2436 268.686 64.807C267.505 65.3628 265.996 65.6406 264.159 65.6406H255.071ZM258.648 62.5726H263.812C265.525 62.5726 266.753 62.2407 267.494 61.5769C268.235 60.9131 268.605 60.0834 268.605 59.0877C268.605 58.339 268.416 57.6521 268.038 57.0269C267.659 56.4017 267.119 55.9039 266.417 55.5334C265.722 55.1629 264.896 54.9777 263.939 54.9777H258.648V62.5726ZM258.648 52.1875H263.441C264.244 52.1875 264.966 52.0331 265.606 51.7244C266.255 51.4156 266.768 50.9834 267.146 50.4277C267.532 49.8642 267.725 49.2004 267.725 48.4363C267.725 47.4561 267.382 46.6341 266.695 45.9703C266.008 45.3065 264.954 44.9746 263.534 44.9746H258.648V52.1875Z" fill="white"/>
<path d="M304.619 87.4844V77.4813H306.976V87.4844H304.619ZM305.804 76.0616C305.43 76.0616 305.109 75.9379 304.84 75.6904C304.571 75.4386 304.436 75.1369 304.436 74.7852C304.436 74.4292 304.571 74.1274 304.84 73.88C305.109 73.6282 305.43 73.5023 305.804 73.5023C306.182 73.5023 306.503 73.6282 306.768 73.88C307.037 74.1274 307.171 74.4292 307.171 74.7852C307.171 75.1369 307.037 75.4386 306.768 75.6904C306.503 75.9379 306.182 76.0616 305.804 76.0616ZM311.758 81.6232V87.4844H309.4V77.4813H311.654V79.1811H311.771C312.001 78.621 312.368 78.176 312.871 77.846C313.379 77.5161 314.007 77.3511 314.753 77.3511C315.444 77.3511 316.045 77.4987 316.557 77.7939C317.074 78.0892 317.473 78.5168 317.756 79.0769C318.042 79.6369 318.183 80.3164 318.179 81.1152V87.4844H315.821V81.4799C315.821 80.8113 315.648 80.2882 315.3 79.9105C314.958 79.5327 314.482 79.3439 313.874 79.3439C313.462 79.3439 313.095 79.4351 312.774 79.6174C312.457 79.7954 312.207 80.0537 312.025 80.3924C311.847 80.731 311.758 81.1413 311.758 81.6232ZM325.124 91.2355V77.4813H327.443V79.1355H327.58C327.701 78.8924 327.873 78.634 328.094 78.3605C328.316 78.0826 328.615 77.846 328.993 77.6507C329.371 77.4509 329.852 77.3511 330.439 77.3511C331.211 77.3511 331.908 77.5486 332.529 77.9437C333.154 78.3345 333.649 78.9141 334.014 79.6825C334.383 80.4466 334.567 81.3844 334.567 82.4959C334.567 83.5943 334.387 84.5277 334.027 85.2962C333.667 86.0647 333.176 86.6508 332.555 87.0546C331.934 87.4583 331.231 87.6602 330.445 87.6602C329.872 87.6602 329.397 87.5647 329.019 87.3737C328.641 87.1826 328.337 86.9525 328.107 86.6833C327.881 86.4098 327.706 86.1515 327.58 85.9084H327.482V91.2355H325.124ZM327.436 82.4829C327.436 83.1298 327.528 83.6963 327.71 84.1826C327.897 84.6688 328.164 85.0487 328.511 85.3223C328.863 85.5914 329.288 85.726 329.787 85.726C330.308 85.726 330.745 85.5871 331.096 85.3092C331.448 85.027 331.713 84.6428 331.891 84.1565C332.073 83.6659 332.164 83.108 332.164 82.4829C332.164 81.862 332.075 81.3106 331.897 80.8287C331.719 80.3468 331.454 79.9691 331.103 79.6955C330.751 79.422 330.313 79.2853 329.787 79.2853C329.284 79.2853 328.856 79.4177 328.504 79.6825C328.153 79.9474 327.886 80.3186 327.703 80.7961C327.525 81.2737 327.436 81.836 327.436 82.4829ZM336.586 87.4844V77.4813H338.872V79.1485H338.976C339.159 78.5711 339.471 78.1261 339.914 77.8135C340.361 77.4965 340.871 77.3381 341.445 77.3381C341.575 77.3381 341.72 77.3446 341.881 77.3576C342.046 77.3663 342.183 77.3815 342.291 77.4032V79.5718C342.191 79.5371 342.033 79.5067 341.816 79.4806C341.603 79.4502 341.397 79.4351 341.197 79.4351C340.767 79.4351 340.381 79.5284 340.038 79.7151C339.699 79.8974 339.432 80.1514 339.237 80.477C339.041 80.8027 338.944 81.1782 338.944 81.6037V87.4844H336.586ZM347.809 87.6797C346.832 87.6797 345.985 87.4648 345.269 87.035C344.553 86.6052 343.997 86.0039 343.602 85.2311C343.211 84.4583 343.016 83.5552 343.016 82.5219C343.016 81.4886 343.211 80.5834 343.602 79.8063C343.997 79.0291 344.553 78.4256 345.269 77.9958C345.985 77.566 346.832 77.3511 347.809 77.3511C348.786 77.3511 349.632 77.566 350.349 77.9958C351.065 78.4256 351.619 79.0291 352.009 79.8063C352.404 80.5834 352.602 81.4886 352.602 82.5219C352.602 83.5552 352.404 84.4583 352.009 85.2311C351.619 86.0039 351.065 86.6052 350.349 87.035C349.632 87.4648 348.786 87.6797 347.809 87.6797ZM347.822 85.7912C348.351 85.7912 348.794 85.6457 349.15 85.3548C349.506 85.0596 349.771 84.6645 349.945 84.1696C350.123 83.6746 350.212 83.1232 350.212 82.5154C350.212 81.9032 350.123 81.3497 349.945 80.8548C349.771 80.3555 349.506 79.9582 349.15 79.663C348.794 79.3678 348.351 79.2201 347.822 79.2201C347.279 79.2201 346.828 79.3678 346.467 79.663C346.111 79.9582 345.844 80.3555 345.666 80.8548C345.493 81.3497 345.406 81.9032 345.406 82.5154C345.406 83.1232 345.493 83.6746 345.666 84.1696C345.844 84.6645 346.111 85.0596 346.467 85.3548C346.828 85.6457 347.279 85.7912 347.822 85.7912ZM359.669 77.4813V79.3048H353.756V77.4813H359.669ZM355.235 87.4844V76.537C355.235 75.8641 355.373 75.304 355.651 74.8568C355.934 74.4097 356.311 74.0753 356.784 73.8539C357.258 73.6325 357.783 73.5218 358.36 73.5218C358.769 73.5218 359.131 73.5544 359.448 73.6195C359.765 73.6846 359.999 73.7432 360.151 73.7953L359.682 75.6188C359.583 75.5884 359.457 75.558 359.305 75.5276C359.153 75.4929 358.983 75.4755 358.797 75.4755C358.358 75.4755 358.048 75.5819 357.866 75.7946C357.688 76.003 357.599 76.3026 357.599 76.6933V87.4844H355.235ZM361.516 87.4844V77.4813H363.873V87.4844H361.516ZM362.701 76.0616C362.328 76.0616 362.006 75.9379 361.737 75.6904C361.468 75.4386 361.333 75.1369 361.333 74.7852C361.333 74.4292 361.468 74.1274 361.737 73.88C362.006 73.6282 362.328 73.5023 362.701 73.5023C363.079 73.5023 363.4 73.6282 363.665 73.88C363.934 74.1274 364.069 74.4292 364.069 74.7852C364.069 75.1369 363.934 75.4386 363.665 75.6904C363.4 75.9379 363.079 76.0616 362.701 76.0616ZM371.292 77.4813V79.3048H365.542V77.4813H371.292ZM366.962 75.0848H369.319V84.4756C369.319 84.7926 369.367 85.0357 369.462 85.205C369.562 85.37 369.693 85.4829 369.853 85.5437C370.014 85.6045 370.192 85.6349 370.387 85.6349C370.535 85.6349 370.669 85.624 370.791 85.6023C370.917 85.5806 371.012 85.561 371.078 85.5437L371.475 87.3867C371.349 87.4301 371.169 87.4779 370.934 87.53C370.704 87.5821 370.422 87.6125 370.088 87.6211C369.497 87.6385 368.965 87.5495 368.492 87.3541C368.019 87.1544 367.643 86.8462 367.365 86.4294C367.092 86.0126 366.957 85.4916 366.962 84.8664V75.0848Z" fill="white"/>
<path d="M37.4818 87.4844V77.4813H39.8393V87.4844H37.4818ZM38.6671 76.0616C38.2937 76.0616 37.9724 75.9379 37.7032 75.6904C37.4341 75.4386 37.2995 75.1369 37.2995 74.7852C37.2995 74.4292 37.4341 74.1274 37.7032 73.88C37.9724 73.6282 38.2937 73.5023 38.6671 73.5023C39.0448 73.5023 39.3661 73.6282 39.6309 73.88C39.9001 74.1274 40.0347 74.4292 40.0347 74.7852C40.0347 75.1369 39.9001 75.4386 39.6309 75.6904C39.3661 75.9379 39.0448 76.0616 38.6671 76.0616ZM44.621 81.6232V87.4844H42.2635V77.4813H44.5168V79.1811H44.6341C44.8642 78.621 45.231 78.176 45.7347 77.846C46.2426 77.5161 46.87 77.3511 47.6167 77.3511C48.307 77.3511 48.9084 77.4987 49.4207 77.7939C49.9373 78.0892 50.3367 78.5168 50.6189 79.0769C50.9055 79.6369 51.0466 80.3164 51.0423 81.1152V87.4844H48.6848V81.4799C48.6848 80.8113 48.5111 80.2882 48.1638 79.9105C47.8208 79.5327 47.3454 79.3439 46.7376 79.3439C46.3251 79.3439 45.9582 79.4351 45.637 79.6174C45.32 79.7954 45.0704 80.0537 44.888 80.3924C44.71 80.731 44.621 81.1413 44.621 81.6232ZM57.9877 91.2355V77.4813H60.3061V79.1355H60.4429C60.5645 78.8924 60.736 78.634 60.9574 78.3605C61.1788 78.0826 61.4784 77.846 61.8561 77.6507C62.2338 77.4509 62.7157 77.3511 63.3018 77.3511C64.0746 77.3511 64.7715 77.5486 65.3923 77.9437C66.0175 78.3345 66.5125 78.9141 66.8771 79.6825C67.2462 80.4466 67.4307 81.3844 67.4307 82.4959C67.4307 83.5943 67.2505 84.5277 66.8902 85.2962C66.5298 86.0647 66.0392 86.6508 65.4184 87.0546C64.7975 87.4583 64.0942 87.6602 63.3084 87.6602C62.7353 87.6602 62.2599 87.5647 61.8821 87.3737C61.5044 87.1826 61.2005 86.9525 60.9704 86.6833C60.7446 86.4098 60.5688 86.1515 60.4429 85.9084H60.3452V91.2355H57.9877ZM60.2996 82.4829C60.2996 83.1298 60.3908 83.6963 60.5731 84.1826C60.7598 84.6688 61.0268 85.0487 61.3742 85.3223C61.7258 85.5914 62.1513 85.726 62.6506 85.726C63.1716 85.726 63.6079 85.5871 63.9596 85.3092C64.3113 85.027 64.5761 84.6428 64.7541 84.1565C64.9365 83.6659 65.0276 83.108 65.0276 82.4829C65.0276 81.862 64.9386 81.3106 64.7606 80.8287C64.5826 80.3468 64.3178 79.9691 63.9661 79.6955C63.6144 79.422 63.1759 79.2853 62.6506 79.2853C62.147 79.2853 61.7193 79.4177 61.3677 79.6825C61.016 79.9474 60.749 80.3186 60.5666 80.7961C60.3886 81.2737 60.2996 81.836 60.2996 82.4829ZM69.4495 87.4844V77.4813H71.7354V79.1485H71.8396C72.0219 78.5711 72.3345 78.1261 72.7774 77.8135C73.2246 77.4965 73.7347 77.3381 74.3078 77.3381C74.438 77.3381 74.5835 77.3446 74.7441 77.3576C74.9091 77.3663 75.0459 77.3815 75.1544 77.4032V79.5718C75.0546 79.5371 74.8961 79.5067 74.679 79.4806C74.4663 79.4502 74.26 79.4351 74.0603 79.4351C73.6305 79.4351 73.2441 79.5284 72.9011 79.7151C72.5625 79.8974 72.2955 80.1514 72.1001 80.477C71.9047 80.8027 71.807 81.1782 71.807 81.6037V87.4844H69.4495ZM80.672 87.6797C79.6952 87.6797 78.8486 87.4648 78.1322 87.035C77.4158 86.6052 76.8601 86.0039 76.465 85.2311C76.0743 84.4583 75.8789 83.5552 75.8789 82.5219C75.8789 81.4886 76.0743 80.5834 76.465 79.8063C76.8601 79.0291 77.4158 78.4256 78.1322 77.9958C78.8486 77.566 79.6952 77.3511 80.672 77.3511C81.6489 77.3511 82.4955 77.566 83.2119 77.9958C83.9282 78.4256 84.4818 79.0291 84.8725 79.8063C85.2676 80.5834 85.4652 81.4886 85.4652 82.5219C85.4652 83.5552 85.2676 84.4583 84.8725 85.2311C84.4818 86.0039 83.9282 86.6052 83.2119 87.035C82.4955 87.4648 81.6489 87.6797 80.672 87.6797ZM80.6851 85.7912C81.2147 85.7912 81.6576 85.6457 82.0136 85.3548C82.3696 85.0596 82.6344 84.6645 82.8081 84.1696C82.9861 83.6746 83.0751 83.1232 83.0751 82.5154C83.0751 81.9032 82.9861 81.3497 82.8081 80.8548C82.6344 80.3555 82.3696 79.9582 82.0136 79.663C81.6576 79.3678 81.2147 79.2201 80.6851 79.2201C80.1424 79.2201 79.6908 79.3678 79.3305 79.663C78.9745 79.9582 78.7075 80.3555 78.5295 80.8548C78.3558 81.3497 78.269 81.9032 78.269 82.5154C78.269 83.1232 78.3558 83.6746 78.5295 84.1696C78.7075 84.6645 78.9745 85.0596 79.3305 85.3548C79.6908 85.6457 80.1424 85.7912 80.6851 85.7912ZM92.5327 77.4813V79.3048H86.6195V77.4813H92.5327ZM88.0978 87.4844V76.537C88.0978 75.8641 88.2367 75.304 88.5146 74.8568C88.7968 74.4097 89.1745 74.0753 89.6478 73.8539C90.121 73.6325 90.6463 73.5218 91.2238 73.5218C91.6319 73.5218 91.9944 73.5544 92.3113 73.6195C92.6283 73.6846 92.8627 73.7432 93.0147 73.7953L92.5458 75.6188C92.4459 75.5884 92.32 75.558 92.168 75.5276C92.0161 75.4929 91.8468 75.4755 91.6601 75.4755C91.2216 75.4755 90.9112 75.5819 90.7288 75.7946C90.5508 76.003 90.4618 76.3026 90.4618 76.6933V87.4844H88.0978ZM94.379 87.4844V77.4813H96.7365V87.4844H94.379ZM95.5643 76.0616C95.1909 76.0616 94.8696 75.9379 94.6004 75.6904C94.3313 75.4386 94.1967 75.1369 94.1967 74.7852C94.1967 74.4292 94.3313 74.1274 94.6004 73.88C94.8696 73.6282 95.1909 73.5023 95.5643 73.5023C95.942 73.5023 96.2633 73.6282 96.5281 73.88C96.7973 74.1274 96.9319 74.4292 96.9319 74.7852C96.9319 75.1369 96.7973 75.4386 96.5281 75.6904C96.2633 75.9379 95.942 76.0616 95.5643 76.0616ZM104.156 77.4813V79.3048H98.4053V77.4813H104.156ZM99.825 75.0848H102.182V84.4756C102.182 84.7926 102.23 85.0357 102.326 85.205C102.426 85.37 102.556 85.4829 102.717 85.5437C102.877 85.6045 103.055 85.6349 103.251 85.6349C103.398 85.6349 103.533 85.624 103.654 85.6023C103.78 85.5806 103.876 85.561 103.941 85.5437L104.338 87.3867C104.212 87.4301 104.032 87.4779 103.798 87.53C103.567 87.5821 103.285 87.6125 102.951 87.6211C102.36 87.6385 101.829 87.5495 101.355 87.3541C100.882 87.1544 100.507 86.8462 100.229 86.4294C99.9552 86.0126 99.8207 85.4916 99.825 84.8664V75.0848Z" fill="white"/>
<path d="M118.58 21.7511V7.99696H120.899V9.65111H121.036C121.157 9.40798 121.329 9.14965 121.55 8.87613C121.772 8.59827 122.071 8.36165 122.449 8.16628C122.827 7.96657 123.308 7.86671 123.895 7.86671C124.667 7.86671 125.364 8.06425 125.985 8.45934C126.61 8.85008 127.105 9.42968 127.47 10.1981C127.839 10.9623 128.023 11.9001 128.023 13.0115C128.023 14.1099 127.843 15.0434 127.483 15.8118C127.123 16.5803 126.632 17.1664 126.011 17.5702C125.39 17.974 124.687 18.1758 123.901 18.1758C123.328 18.1758 122.853 18.0803 122.475 17.8893C122.097 17.6983 121.793 17.4682 121.563 17.199C121.337 16.9255 121.162 16.6671 121.036 16.424H120.938V21.7511H118.58ZM120.892 12.9985C120.892 13.6454 120.984 14.212 121.166 14.6982C121.353 15.1845 121.62 15.5644 121.967 15.8379C122.319 16.1071 122.744 16.2417 123.243 16.2417C123.764 16.2417 124.201 16.1027 124.552 15.8249C124.904 15.5427 125.169 15.1584 125.347 14.6722C125.529 14.1816 125.62 13.6237 125.62 12.9985C125.62 12.3776 125.531 11.8262 125.353 11.3443C125.175 10.8624 124.91 10.4847 124.559 10.2112C124.207 9.93765 123.769 9.80089 123.243 9.80089C122.74 9.80089 122.312 9.93331 121.96 10.1981C121.609 10.463 121.342 10.8342 121.159 11.3118C120.981 11.7893 120.892 12.3516 120.892 12.9985ZM130.042 18V7.99696H132.328V9.66413H132.432C132.615 9.0867 132.927 8.64168 133.37 8.32909C133.817 8.01215 134.327 7.85368 134.901 7.85368C135.031 7.85368 135.176 7.8602 135.337 7.87322C135.502 7.8819 135.639 7.8971 135.747 7.91881V10.0874C135.647 10.0527 135.489 10.0223 135.272 9.99626C135.059 9.96587 134.853 9.95068 134.653 9.95068C134.223 9.95068 133.837 10.044 133.494 10.2307C133.155 10.4131 132.888 10.667 132.693 10.9927C132.497 11.3183 132.4 11.6938 132.4 12.1193V18H130.042ZM137.313 18V7.99696H139.671V18H137.313ZM138.499 6.57725C138.125 6.57725 137.804 6.45352 137.535 6.20605C137.266 5.95423 137.131 5.65249 137.131 5.30082C137.131 4.94481 137.266 4.64307 137.535 4.3956C137.804 4.14379 138.125 4.01788 138.499 4.01788C138.876 4.01788 139.198 4.14379 139.462 4.3956C139.732 4.64307 139.866 4.94481 139.866 5.30082C139.866 5.65249 139.732 5.95423 139.462 6.20605C139.198 6.45352 138.876 6.57725 138.499 6.57725ZM146.458 18.1954C145.46 18.1954 144.602 17.9761 143.886 17.5376C143.174 17.0991 142.625 16.4935 142.238 15.7207C141.856 14.9435 141.665 14.0491 141.665 13.0376C141.665 12.0216 141.861 11.1251 142.251 10.3479C142.642 9.56644 143.194 8.95862 143.906 8.52446C144.622 8.08596 145.469 7.86671 146.445 7.86671C147.257 7.86671 147.976 8.01649 148.601 8.31606C149.231 8.61129 149.732 9.03026 150.105 9.57296C150.479 10.1113 150.691 10.7408 150.744 11.4616H148.49C148.399 10.9796 148.182 10.578 147.839 10.2568C147.5 9.93114 147.047 9.76833 146.478 9.76833C145.996 9.76833 145.573 9.89858 145.208 10.1591C144.843 10.4152 144.559 10.7843 144.355 11.2662C144.155 11.7481 144.055 12.3255 144.055 12.9985C144.055 13.6801 144.155 14.2662 144.355 14.7568C144.555 15.2431 144.835 15.6186 145.195 15.8835C145.56 16.144 145.987 16.2742 146.478 16.2742C146.825 16.2742 147.136 16.2091 147.409 16.0788C147.687 15.9443 147.919 15.7511 148.106 15.4992C148.293 15.2474 148.421 14.9413 148.49 14.581H150.744C150.687 15.2887 150.479 15.916 150.118 16.4631C149.758 17.0058 149.267 17.4313 148.647 17.7395C148.026 18.0434 147.296 18.1954 146.458 18.1954ZM157.108 18.1954C156.105 18.1954 155.239 17.987 154.509 17.5702C153.784 17.149 153.226 16.5542 152.836 15.7858C152.445 15.013 152.25 14.1034 152.25 13.0571C152.25 12.0281 152.445 11.1251 152.836 10.3479C153.231 9.56644 153.782 8.95862 154.49 8.52446C155.197 8.08596 156.029 7.86671 156.984 7.86671C157.601 7.86671 158.182 7.96657 158.729 8.16628C159.281 8.36165 159.767 8.66556 160.188 9.07801C160.614 9.49047 160.948 10.0158 161.191 10.654C161.434 11.2879 161.556 12.0433 161.556 12.9203V13.6432H153.357V12.0542H159.296C159.292 11.6027 159.194 11.2011 159.003 10.8494C158.812 10.4934 158.545 10.2133 158.202 10.0093C157.863 9.80523 157.468 9.7032 157.017 9.7032C156.535 9.7032 156.111 9.82043 155.747 10.0549C155.382 10.285 155.098 10.5889 154.894 10.9666C154.694 11.34 154.592 11.7503 154.587 12.1975V13.5846C154.587 14.1664 154.694 14.6657 154.907 15.0824C155.119 15.4949 155.417 15.8118 155.799 16.0333C156.181 16.2503 156.628 16.3589 157.14 16.3589C157.483 16.3589 157.794 16.3111 158.072 16.2156C158.349 16.1157 158.59 15.9703 158.795 15.7793C158.999 15.5882 159.153 15.3516 159.257 15.0694L161.458 15.3169C161.319 15.8987 161.054 16.4066 160.664 16.8408C160.277 17.2706 159.782 17.6049 159.179 17.8437C158.575 18.0781 157.885 18.1954 157.108 18.1954ZM173.498 4.66261V18H171.082V7.01358H171.004L167.884 9.00638V6.79216L171.199 4.66261H173.498Z" fill="white"/>
<path d="M234.93 21.7511V7.99696H237.248V9.65111H237.385C237.507 9.40798 237.678 9.14965 237.9 8.87613C238.121 8.59827 238.421 8.36165 238.798 8.16628C239.176 7.96657 239.658 7.86671 240.244 7.86671C241.017 7.86671 241.714 8.06425 242.335 8.45934C242.96 8.85008 243.455 9.42968 243.819 10.1981C244.189 10.9623 244.373 11.9001 244.373 13.0115C244.373 14.1099 244.193 15.0434 243.833 15.8118C243.472 16.5803 242.982 17.1664 242.361 17.5702C241.74 17.974 241.037 18.1758 240.251 18.1758C239.678 18.1758 239.202 18.0803 238.824 17.8893C238.447 17.6983 238.143 17.4682 237.913 17.199C237.687 16.9255 237.511 16.6671 237.385 16.424H237.288V21.7511H234.93ZM237.242 12.9985C237.242 13.6454 237.333 14.212 237.515 14.6982C237.702 15.1845 237.969 15.5644 238.317 15.8379C238.668 16.1071 239.094 16.2417 239.593 16.2417C240.114 16.2417 240.55 16.1027 240.902 15.8249C241.254 15.5427 241.518 15.1584 241.696 14.6722C241.879 14.1816 241.97 13.6237 241.97 12.9985C241.97 12.3776 241.881 11.8262 241.703 11.3443C241.525 10.8624 241.26 10.4847 240.908 10.2112C240.557 9.93765 240.118 9.80089 239.593 9.80089C239.089 9.80089 238.662 9.93331 238.31 10.1981C237.958 10.463 237.691 10.8342 237.509 11.3118C237.331 11.7893 237.242 12.3516 237.242 12.9985ZM246.392 18V7.99696H248.678V9.66413H248.782C248.964 9.0867 249.277 8.64168 249.72 8.32909C250.167 8.01215 250.677 7.85368 251.25 7.85368C251.38 7.85368 251.526 7.8602 251.686 7.87322C251.851 7.8819 251.988 7.8971 252.097 7.91881V10.0874C251.997 10.0527 251.838 10.0223 251.621 9.99626C251.409 9.96587 251.202 9.95068 251.003 9.95068C250.573 9.95068 250.186 10.044 249.843 10.2307C249.505 10.4131 249.238 10.667 249.042 10.9927C248.847 11.3183 248.749 11.6938 248.749 12.1193V18H246.392ZM253.663 18V7.99696H256.02V18H253.663ZM254.848 6.57725C254.475 6.57725 254.154 6.45352 253.884 6.20605C253.615 5.95423 253.481 5.65249 253.481 5.30082C253.481 4.94481 253.615 4.64307 253.884 4.3956C254.154 4.14379 254.475 4.01788 254.848 4.01788C255.226 4.01788 255.547 4.14379 255.812 4.3956C256.081 4.64307 256.216 4.94481 256.216 5.30082C256.216 5.65249 256.081 5.95423 255.812 6.20605C255.547 6.45352 255.226 6.57725 254.848 6.57725ZM262.808 18.1954C261.809 18.1954 260.952 17.9761 260.236 17.5376C259.524 17.0991 258.974 16.4935 258.588 15.7207C258.206 14.9435 258.015 14.0491 258.015 13.0376C258.015 12.0216 258.21 11.1251 258.601 10.3479C258.992 9.56644 259.543 8.95862 260.255 8.52446C260.972 8.08596 261.818 7.86671 262.795 7.86671C263.607 7.86671 264.325 8.01649 264.951 8.31606C265.58 8.61129 266.082 9.03026 266.455 9.57296C266.828 10.1113 267.041 10.7408 267.093 11.4616H264.84C264.749 10.9796 264.532 10.578 264.189 10.2568C263.85 9.93114 263.396 9.76833 262.828 9.76833C262.346 9.76833 261.922 9.89858 261.558 10.1591C261.193 10.4152 260.909 10.7843 260.704 11.2662C260.505 11.7481 260.405 12.3255 260.405 12.9985C260.405 13.6801 260.505 14.2662 260.704 14.7568C260.904 15.2431 261.184 15.6186 261.545 15.8835C261.909 16.144 262.337 16.2742 262.828 16.2742C263.175 16.2742 263.485 16.2091 263.759 16.0788C264.037 15.9443 264.269 15.7511 264.456 15.4992C264.642 15.2474 264.77 14.9413 264.84 14.581H267.093C267.037 15.2887 266.828 15.916 266.468 16.4631C266.108 17.0058 265.617 17.4313 264.996 17.7395C264.375 18.0434 263.646 18.1954 262.808 18.1954ZM273.457 18.1954C272.454 18.1954 271.588 17.987 270.859 17.5702C270.134 17.149 269.576 16.5542 269.185 15.7858C268.795 15.013 268.599 14.1034 268.599 13.0571C268.599 12.0281 268.795 11.1251 269.185 10.3479C269.58 9.56644 270.132 8.95862 270.839 8.52446C271.547 8.08596 272.379 7.86671 273.334 7.86671C273.95 7.86671 274.532 7.96657 275.079 8.16628C275.63 8.36165 276.117 8.66556 276.538 9.07801C276.963 9.49047 277.298 10.0158 277.541 10.654C277.784 11.2879 277.905 12.0433 277.905 12.9203V13.6432H269.706V12.0542H275.646C275.641 11.6027 275.544 11.2011 275.353 10.8494C275.161 10.4934 274.894 10.2133 274.551 10.0093C274.213 9.80523 273.818 9.7032 273.366 9.7032C272.884 9.7032 272.461 9.82043 272.096 10.0549C271.732 10.285 271.447 10.5889 271.243 10.9666C271.043 11.34 270.941 11.7503 270.937 12.1975V13.5846C270.937 14.1664 271.043 14.6657 271.256 15.0824C271.469 15.4949 271.766 15.8118 272.148 16.0333C272.53 16.2503 272.978 16.3589 273.49 16.3589C273.833 16.3589 274.143 16.3111 274.421 16.2156C274.699 16.1157 274.94 15.9703 275.144 15.7793C275.348 15.5882 275.502 15.3516 275.606 15.0694L277.808 15.3169C277.669 15.8987 277.404 16.4066 277.013 16.8408C276.627 17.2706 276.132 17.6049 275.528 17.8437C274.925 18.0781 274.235 18.1954 273.457 18.1954ZM284.423 18V16.2547L289.053 11.7155C289.496 11.2684 289.865 10.8711 290.16 10.5238C290.455 10.1764 290.677 9.83996 290.824 9.51434C290.972 9.18873 291.046 8.8414 291.046 8.47236C291.046 8.05123 290.95 7.69087 290.759 7.3913C290.568 7.08739 290.306 6.85295 289.971 6.68796C289.637 6.52298 289.257 6.44049 288.832 6.44049C288.393 6.44049 288.009 6.53167 287.679 6.71401C287.349 6.89202 287.093 7.146 286.91 7.47596C286.732 7.80593 286.643 8.19884 286.643 8.65471H284.345C284.345 7.8081 284.538 7.0722 284.924 6.44701C285.311 5.82181 285.842 5.33773 286.52 4.99474C287.201 4.65175 287.983 4.48026 288.864 4.48026C289.758 4.48026 290.544 4.64741 291.222 4.98172C291.899 5.31602 292.424 5.77406 292.798 6.35583C293.175 6.93761 293.364 7.60187 293.364 8.34863C293.364 8.84791 293.269 9.33851 293.078 9.82043C292.887 10.3023 292.55 10.8364 292.068 11.4225C291.591 12.0086 290.92 12.7184 290.056 13.552L287.757 15.89V15.9812H293.566V18H284.423Z" fill="white"/>
<defs>
<linearGradient id="paint0_linear_114_204" x1="0" y1="68.4648" x2="407.735" y2="68.4648" gradientUnits="userSpaceOnUse">
<stop stop-color="#3E6FCE"/>
<stop offset="1" stop-color="#7022D5"/>
</linearGradient>
<linearGradient id="paint1_linear_114_204" x1="264.59" y1="95.0569" x2="367.695" y2="116.962" gradientUnits="userSpaceOnUse">
<stop stop-color="#A32222"/>
<stop offset="1" stop-color="#CE7A7A"/>
</linearGradient>
</defs>
</svg>
