<?xml version="1.0" encoding="utf-8"?>
<!-- Generator: Adobe Illustrator 27.9.3, SVG Export Plug-In . SVG Version: 9.03 Build 53313)  -->
<svg version="1.1" id="Layer_1" xmlns="http://www.w3.org/2000/svg" xmlns:xlink="http://www.w3.org/1999/xlink" x="0px" y="0px"
	 viewBox="0 0 244.9 396.2" style="enable-background:new 0 0 244.9 396.2;" xml:space="preserve">
<style type="text/css">
	.st0{fill:none;stroke:#F0E9FE;stroke-width:0.3722;stroke-miterlimit:10;}
	.st1{fill:#F0E9FE;}
</style>
<g>
	<path class="st0" d="M40.6,0.2C26.8,0.2,13.3,1.5,0.3,4v8.3C13,9.9,26.2,8.5,39.6,8.5v0v0c0,0,0,0,0,0
		c108.2,0,195.9,84.9,196.3,189.7h6.3h-6.3c0,0.2,0,0.4,0,0.7c0,105.1-87.9,190.3-196.3,190.3c0,0,0,0,0,0v0v0
		c-13.5,0-26.6-1.3-39.3-3.8v6.8c13,2.5,26.5,3.9,40.3,3.9c112.7,0,204.1-88.6,204.1-197.9C244.7,88.8,153.3,0.2,40.6,0.2z"/>
	<path class="st0" d="M37.6,28.6c0.7,0,1.4,0,2.1,0V8.5C26.2,8.5,13,9.9,0.3,12.4v20C12.3,29.9,24.8,28.6,37.6,28.6z"/>
	<path class="st0" d="M119.8,48.3l4.7-0.5c0-0.1,0-0.1,0-0.2c0-0.9,0.7-1.6,1.6-1.6c0.9,0,1.6,0.7,1.6,1.6c0,0.1,0,0.2,0,0.3l5.2,1
		c0.3-1.5,1.6-2.6,3.2-2.6c1.8,0,3.3,1.4,3.3,3.2c0,1.7-1.5,3.2-3.3,3.2c-1.8,0-3.3-1.4-3.3-3.2c0-0.2,0-0.4,0.1-0.6l-5.2-1
		c-0.1,0.7-0.8,1.3-1.6,1.3c-0.8,0-1.5-0.6-1.6-1.4L119.8,48.3c47.4,24.3,81.9,69,91.2,122.1c0.1,0.3,0.2,0.6,0.2,1
		c0,0.1,0,0.1,0,0.2c0.1,0.8,0.3,1.7,0.4,2.5l10,9.1c0.3-0.3,0.7-0.5,1.2-0.5c0.9,0,1.6,0.7,1.6,1.6c0,0.9-0.7,1.6-1.6,1.6
		c-0.9,0-1.6-0.7-1.6-1.6c0-0.4,0.2-0.8,0.4-1.1l-10-9.1c1.2,7.9,1.8,16,1.9,24.2h22.4C235.5,93.4,147.8,8.5,39.6,8.5c0,0,0,0,0,0
		v20.1C68.6,28.9,95.8,36,119.8,48.3z M116.1,27.4c0.9,0,1.6,0.7,1.6,1.6c0,0.9-0.7,1.6-1.6,1.6c-0.9,0-1.6-0.7-1.6-1.6
		C114.5,28.2,115.2,27.4,116.1,27.4z M112.3,36.5c1.4,0,2.6,1.1,2.6,2.5s-1.1,2.5-2.6,2.5c-1.4,0-2.5-1.1-2.5-2.5
		S110.8,36.5,112.3,36.5z"/>
	<path class="st0" d="M213.5,199.2c0,0.6,0,1.2,0,1.8c9.2,28.2,10.9,49.7,10.9,49.7s-1.6-21.5-10.9-49.7
		c-0.4,39-14.3,74.9-37.5,103.5l14.9-2.7c0-0.2,0-0.3,0-0.5c0-1.4,1.1-2.5,2.6-2.5c1.4,0,2.6,1.1,2.6,2.5c0,1.4-1.1,2.5-2.6,2.5
		c-1.3,0-2.3-0.9-2.5-2l-14.9,2.7c-8.7,10.7-18.7,20.4-29.7,28.9c0.1,0.2,0.1,0.5,0.1,0.7c0,1.4-1.2,2.5-2.6,2.5
		c-0.5,0-1-0.1-1.4-0.4c-0.4,0.3-0.9,0.6-1.3,0.9l1.4,0.1l-1.7,0.1c-1.7,1.2-3.5,2.4-5.2,3.5l0.4,0.4l-0.5-0.3c-0.5,0.3-1,0.7-1.5,1
		l0.3,0.7l-0.5-0.6c-0.6,0.4-1.3,0.8-2,1.2l-0.3,4.9l-0.3-4.5c-4.4,2.7-9,5.2-13.7,7.5c0,0,0,0.1,0,0.1c0,1.8-1.5,3.2-3.3,3.2
		c-0.8,0-1.5-0.3-2.1-0.8c-22.1,10-46.6,15.7-72.5,16v19.4c0,0,0,0,0,0c108.4,0,196.3-85.2,196.3-190.3c0-0.2,0-0.4,0-0.7h-22.4
		C213.5,198.5,213.5,198.9,213.5,199.2z M205.2,262.4c-1.4,0-2.6-1.1-2.6-2.5c0-1.4,1.2-2.5,2.6-2.5c1.4,0,2.6,1.1,2.6,2.5
		C207.8,261.3,206.6,262.4,205.2,262.4z"/>
	<path class="st0" d="M37.6,369.8c-12.8,0-25.3-1.3-37.3-3.8v19.4c12.7,2.5,25.9,3.8,39.3,3.8v-19.4
		C38.9,369.8,38.3,369.8,37.6,369.8z"/>
	<path class="st1" d="M142.6,337.2l-1.4-0.1c-0.1,0.1-0.2,0.1-0.3,0.2L142.6,337.2z"/>
	<path class="st1" d="M131.5,348.2l0.3-4.9c-0.2,0.1-0.4,0.3-0.7,0.4L131.5,348.2z"/>
	<path class="st1" d="M134.3,342.7l-0.3-0.7c-0.1,0-0.1,0.1-0.2,0.1L134.3,342.7z"/>
	<path class="st1" d="M136.1,341.3l-0.4-0.4c-0.1,0-0.1,0.1-0.2,0.1L136.1,341.3z"/>
	<path class="st1" d="M136,52.7c1.8,0,3.3-1.4,3.3-3.2c0-1.7-1.5-3.2-3.3-3.2c-1.6,0-2.9,1.1-3.2,2.6l3.2,0.6l-3.2-0.6
		c0,0.2-0.1,0.4-0.1,0.6C132.7,51.3,134.2,52.7,136,52.7z"/>
	<path class="st1" d="M114.3,354.5c1.8,0,3.3-1.4,3.3-3.2c0,0,0-0.1,0-0.1c-1.8,0.9-3.6,1.7-5.4,2.5
		C112.7,354.2,113.5,354.5,114.3,354.5z"/>
	<path class="st1" d="M112.3,41.5c1.4,0,2.6-1.1,2.6-2.5s-1.1-2.5-2.6-2.5c-1.4,0-2.5,1.1-2.5,2.5S110.8,41.5,112.3,41.5z"/>
	<path class="st1" d="M211.2,171.4c0-0.4-0.1-0.7-0.2-1c0.1,0.4,0.1,0.8,0.2,1.1C211.2,171.5,211.2,171.4,211.2,171.4z"/>
	<path class="st1" d="M205.2,257.5c-1.4,0-2.6,1.1-2.6,2.5c0,1.4,1.2,2.5,2.6,2.5c1.4,0,2.6-1.1,2.6-2.5
		C207.8,258.6,206.6,257.5,205.2,257.5z"/>
	<path class="st1" d="M193.4,303.8c1.4,0,2.6-1.1,2.6-2.5c0-1.4-1.1-2.5-2.6-2.5c-1.4,0-2.6,1.1-2.6,2.5c0,0.2,0,0.3,0,0.5l2.5-0.5
		l-2.5,0.5C191.1,302.9,192.2,303.8,193.4,303.8z"/>
	<path class="st1" d="M143.8,336.6c1.4,0,2.6-1.1,2.6-2.5c0-0.3-0.1-0.5-0.1-0.7c-1.3,1-2.5,1.9-3.8,2.8
		C142.9,336.4,143.3,336.6,143.8,336.6z"/>
	<path class="st1" d="M116.1,30.6c0.9,0,1.6-0.7,1.6-1.6c0-0.9-0.7-1.6-1.6-1.6c-0.9,0-1.6,0.7-1.6,1.6
		C114.5,29.9,115.2,30.6,116.1,30.6z"/>
	<path class="st1" d="M126,49.2c0.8,0,1.4-0.5,1.6-1.3l-1.6-0.3l1.6,0.3c0-0.1,0-0.2,0-0.3c0-0.9-0.7-1.6-1.6-1.6
		c-0.9,0-1.6,0.7-1.6,1.6c0,0.1,0,0.1,0,0.2l1.6-0.2l-1.6,0.2C124.5,48.6,125.2,49.2,126,49.2z"/>
	<path class="st1" d="M222.8,185.8c0.9,0,1.6-0.7,1.6-1.6c0-0.9-0.7-1.6-1.6-1.6c-0.5,0-0.9,0.2-1.2,0.5l1.2,1.1l-1.2-1.1
		c-0.3,0.3-0.4,0.7-0.4,1.1C221.2,185.1,221.9,185.8,222.8,185.8z"/>
	<path class="st0" d="M211.6,174c-0.1-0.8-0.3-1.7-0.4-2.5c0,0.6-0.3,1.1-0.7,1.5L211.6,174z"/>
	<polygon class="st0" points="39.6,124 39.6,124.5 40.1,124.7 	"/>
	<polygon class="st0" points="39.6,128.9 39.6,128.9 39.7,128.8 	"/>
	<path class="st0" d="M38.6,272.3l-7.5,4c0.2,0.4,0.3,0.7,0.3,1.2c0,1.4-1.2,2.5-2.6,2.5c-1.4,0-2.6-1.1-2.6-2.5s1.2-2.5,2.6-2.5
		v-4.3c-1.4,0-2.6-1.1-2.6-2.5c0-1.4,1.2-2.5,2.6-2.5c1.4,0,2.6,1.1,2.6,2.5l5.6-2.3l-5.6,2.3c0,1.4-1.2,2.5-2.6,2.5v4.3
		c1,0,1.8,0.5,2.2,1.3L38.6,272.3c-0.1-0.2-0.2-0.5-0.2-0.7c0-0.6,0.4-1.1,0.9-1.4l-2.3-4.3l2.3,4.3c0.1-0.1,0.2-0.1,0.3-0.1v-29.9
		l-2.7,0.6c0,0.2,0.1,0.3,0.1,0.5c0,1.4-1.1,2.5-2.6,2.5c-1.2,0-2.1-0.7-2.4-1.8l-5.8,1.7c0.1,0.2,0.1,0.5,0.1,0.7
		c0,1.4-1.1,2.5-2.6,2.5c-1.3,0-2.4-0.9-2.5-2.2l-9.2,1.2c0,0.1,0,0.2,0,0.3c0,1.4-1.1,2.5-2.6,2.5c-0.5,0-1-0.1-1.3-0.4L5.7,252
		c0.7,0.4,1.2,1.2,1.2,2.1c0,1.3-1.1,2.4-2.5,2.5l0.7,15.9c0,0,0.1,0,0.1,0c1.4,0,2.6,1.1,2.6,2.5c0,0.9-0.5,1.7-1.2,2.1l1.5,2.5
		c0.4-0.2,0.8-0.4,1.3-0.4c1.4,0,2.6,1.1,2.6,2.5c0,0.8-0.4,1.5-1,1.9l5.5,6.6c0.4-0.3,1-0.6,1.6-0.6c1.4,0,2.6,1.1,2.6,2.5
		c0,0.9-0.5,1.6-1.2,2.1l4.4,6.7c0.2-0.1,0.4-0.1,0.7-0.1c1.4,0,2.6,1.1,2.6,2.5c0,1.4-1.1,2.5-2.6,2.5c-1.4,0-2.5-1.1-2.5-2.5
		c0-1.1,0.8-2.1,1.9-2.4l-4.4-6.7c-0.4,0.2-0.9,0.4-1.4,0.4c-1.4,0-2.6-1.1-2.6-2.5c0-0.8,0.4-1.5,1-1.9l-5.5-6.6
		c-0.4,0.3-1,0.6-1.6,0.6c-1.4,0-2.6-1.1-2.6-2.5c0-0.9,0.5-1.7,1.2-2.1l-1.5-2.5c-0.4,0.2-0.8,0.4-1.3,0.4c-1.4,0-2.6-1.1-2.6-2.5
		c0-1.3,1.1-2.4,2.4-2.5l-0.7-15.9c0,0-0.1,0-0.1,0c-1.4,0-2.6-1.1-2.6-2.5c0-1.4,1.2-2.5,2.6-2.5c0.5,0,1,0.1,1.3,0.4l2.4-3.7
		c-0.7-0.4-1.2-1.2-1.2-2.1c0-1.4,1.1-2.5,2.6-2.5c1.3,0,2.4,0.9,2.5,2.2l9.2-1.2c0-0.1,0-0.2,0-0.3c0-1.4,1.2-2.5,2.6-2.5
		c1.1,0,2.1,0.7,2.4,1.8l5.8-1.7c-0.1-0.2-0.1-0.5-0.1-0.7c0-0.9,0.5-1.7,1.3-2.1l-5.6-9.4c-0.4,0.2-0.8,0.3-1.3,0.3
		c-1.4,0-2.6-1.1-2.6-2.5c0-0.2,0-0.4,0.1-0.6l-4.8-1.2c-0.3,1.1-1.3,1.9-2.5,1.9c-1.4,0-2.6-1.1-2.6-2.5s1.2-2.5,2.6-2.5
		c1.4,0,2.6,1.1,2.6,2.5c0,0.2,0,0.4-0.1,0.6l4.8,1.2c0.3-1,1.1-1.7,2.2-1.8l-0.4-4.1c-0.1,0-0.2,0-0.3,0c-1.4,0-2.6-1.1-2.6-2.5
		c0-1.4,1.2-2.5,2.6-2.5c1.4,0,2.6,1.1,2.6,2.5c0,1.3-1,2.3-2.3,2.5l0.4,4.1c0.1,0,0.2,0,0.3,0c1.4,0,2.6,1.1,2.6,2.5
		c0,0.9-0.5,1.7-1.3,2.1l5.6,9.4c0.4-0.2,0.8-0.3,1.3-0.3c1.2,0,2.3,0.8,2.5,2l2.7-0.6v-41.9h-5.5l0.1,0.4l-0.3-0.4h-2.1l-0.4,5.9
		l-0.4-5.9h-0.9l-0.4,1.1l0-1.1h-1.9l-0.3,0.4l0.1-0.4H0.6c0.5,0.4,0.7,1.1,0.7,1.7c0,0.8-0.4,1.5-1,2l12.4,9.7
		c0.3-0.4,0.7-0.6,1.3-0.6c0.9,0,1.6,0.7,1.6,1.6c0,0.9-0.7,1.6-1.6,1.6c-0.9,0-1.6-0.7-1.6-1.6c0-0.4,0.1-0.7,0.4-1l-12.4-9.7
		c0,0,0,0,0,0v104.3l11.5,8.3c0.4-1.3,1.6-2.3,3.1-2.3c1.8,0,3.3,1.4,3.3,3.2c0,0.6-0.2,1.1-0.4,1.5l18.2,9.8
		c0.3-0.5,0.8-0.8,1.4-0.8c0.9,0,1.6,0.7,1.6,1.6c0,0.9-0.7,1.6-1.6,1.6s-1.6-0.7-1.6-1.6c0-0.3,0.1-0.5,0.2-0.8l-18.2-9.8
		c-0.6,1-1.6,1.6-2.9,1.6c-0.7,0-1.3-0.2-1.8-0.6l-7.1,4.5c0.3,0.5,0.5,1.1,0.5,1.7c0,1.1-0.6,2-1.4,2.6l11.6,15.9
		c0.3-0.2,0.6-0.3,0.9-0.3c0.9,0,1.6,0.7,1.6,1.6c0,0,0,0,0,0.1l8.2,8.3c0.3-0.3,0.7-0.4,1.1-0.4c0.9,0,1.6,0.7,1.6,1.6
		c0,0.9-0.7,1.6-1.6,1.6c-0.9,0-1.6-0.7-1.6-1.6c0-0.4,0.2-0.8,0.5-1.1l-8.2-8.3c0,0.7-0.5,1.2-1.1,1.4l4,11.3
		c0.2-0.1,0.3-0.1,0.5-0.1c0.9,0,1.6,0.7,1.6,1.6c0,0.9-0.7,1.6-1.6,1.6s-1.6-0.7-1.6-1.6c0-0.7,0.5-1.3,1.1-1.5l-4-11.3
		c-0.2,0.1-0.3,0.1-0.5,0.1c-0.9,0-1.6-0.7-1.6-1.6c0-0.5,0.3-1,0.7-1.3L5.1,326.9c-0.5,0.4-1.2,0.6-1.9,0.6c-1.3,0-2.4-0.7-2.9-1.8
		V366c12,2.5,24.5,3.8,37.3,3.8c0.7,0,1.4,0,2.1,0v-96.7C39.2,273,38.8,272.7,38.6,272.3z"/>
	<polygon class="st0" points="31.9,198.2 33.9,198.2 32,195.8 	"/>
	<path class="st0" d="M131.8,343.3c0.7-0.4,1.3-0.8,2-1.2l-1.7-2.2L131.8,343.3z"/>
	<path class="st0" d="M6.9,73.4l-6.6-3.8v5C2.5,74.1,4.6,73.7,6.9,73.4z"/>
	<polygon class="st0" points="34.3,193.5 37.3,195.3 33.8,194.5 36,197.2 33,195.3 34.1,198.2 39.6,198.2 39.6,193.3 	"/>
	<path class="st0" d="M196.6,161.7c-0.2-0.4-0.4-0.7-0.6-1.1c-0.1,0.1-0.2,0.3-0.3,0.4L196.6,161.7z"/>
	<polygon class="st0" points="39.6,130.2 39.6,132 40.5,129.7 	"/>
	<path class="st0" d="M0.3,197.9c0.1,0.1,0.2,0.2,0.3,0.3h27.1l1-2.9l-3,1.9l2.2-2.7l-3.5,0.9l3-1.9l-8.4-0.2l8.3-0.9l-3.3-1.4
		l3.6,0.3l-2.6-2.3l3.3,1.4l-1.7-3l2.6,2.4l-0.4-2.3c-0.3-0.4-0.5-0.9-0.5-1.5c0-1.3,1.1-2.4,2.4-2.5l0.1-2.5l0.2,2.5
		c1.3,0.1,2.4,1.2,2.4,2.5c0,0.5-0.2,1-0.4,1.3l-0.4,2.5l2.6-2.4l-1.7,3l3.3-1.4l-2.6,2.3l3.6-0.3l-3.3,1.4l5.3,0.5v-6.7
		c-0.5,0.5-1.2,0.9-2,0.9c-1.4,0-2.6-1.1-2.6-2.5c0-1.4,1.2-2.5,2.6-2.5c0.8,0,1.5,0.4,2,0.9v-16.6c-1.2-0.2-2.2-1.2-2.2-2.4
		c0-1.2,0.9-2.3,2.2-2.4v-24.7c-0.3,0.2-0.7,0.3-1.2,0.3c-1,0-1.8-0.5-2.3-1.3l-10.7,5.5c0.2,0.3,0.3,0.7,0.3,1.2
		c0,1.4-1.2,2.5-2.6,2.5c-1.4,0-2.5-1.1-2.5-2.5c0-1.4,1.1-2.5,2.5-2.5c1,0,1.8,0.5,2.3,1.3l10.7-5.5c-0.2-0.3-0.3-0.7-0.3-1.2
		c0-1.4,1.2-2.5,2.6-2.5c0.4,0,0.7,0.1,1,0.2l0.1-0.3v-1.8l-2.1,1.4l2.1-2.6v-0.1l-3.4,0.8l3-1.9l-8.4-0.2l8.3-0.9l-3.3-1.4l3.6,0.3
		l-2.7-2.3l2.8,1.2V124l-1.3-2.3l1.3,1.2v-52c-11.6,0-22.5,0.9-32.8,2.6l3.2,1.9c0.4-0.7,1.3-1.2,2.2-1.2c1.4,0,2.6,1.1,2.6,2.5
		c0,1.4-1.1,2.5-2.6,2.5s-2.6-1.1-2.6-2.5c0-0.5,0.1-0.9,0.4-1.3l-3.2-1.9c-2.2,0.4-4.4,0.8-6.6,1.2V197.9z M21.7,150.5
		c0,1.4-1.1,2.5-2.6,2.5c-1.4,0-2.5-1.1-2.5-2.5c0-1.4,1.1-2.5,2.5-2.5C20.6,148.1,21.7,149.2,21.7,150.5z M8.6,103.2
		c1.4,0,2.6,1.1,2.6,2.5c0,0.6-0.2,1.1-0.6,1.5l14.6,11.4c0.5-0.6,1.2-0.9,2-0.9c1.4,0,2.6,1.1,2.6,2.5c0,1.4-1.2,2.5-2.6,2.5
		s-2.6-1.1-2.6-2.5c0-0.6,0.2-1.1,0.6-1.5l-14.6-11.4c-0.5,0.6-1.2,0.9-2,0.9c-1.4,0-2.6-1.1-2.6-2.5C6,104.4,7.2,103.2,8.6,103.2z"
		/>
	<polygon class="st0" points="30.1,198.2 31.1,198.2 30.9,196 	"/>
	<path class="st0" d="M46.6,70.9l3.1-5.7c-0.5-0.3-0.9-0.8-0.9-1.4c0-0.9,0.7-1.6,1.6-1.6c0.6,0,1.1,0.3,1.4,0.8l7.9-4.6
		c-0.1-0.2-0.2-0.5-0.2-0.8c0-0.9,0.7-1.6,1.6-1.6s1.6,0.7,1.6,1.6c0,0.3-0.1,0.5-0.2,0.7l25.5,13c0.3-0.5,0.8-0.8,1.4-0.8
		c0.9,0,1.6,0.7,1.6,1.6h2.8c0-0.9,0.7-1.6,1.6-1.6c0.9,0,1.6,0.7,1.6,1.6c0,0.1,0,0.2,0,0.2l9.6,1.5c0.3-1,1.3-1.7,2.4-1.7
		c1.4,0,2.6,1.1,2.6,2.5c0,1.4-1.1,2.5-2.6,2.5c-1.4,0-2.6-1.1-2.6-2.5c0-0.3,0.1-0.5,0.1-0.7L97,72.3c-0.1,0.7-0.8,1.3-1.6,1.3
		c-0.9,0-1.6-0.7-1.6-1.6c0,0,0,0,0,0H91c0,0,0,0,0,0c0,0.9-0.7,1.6-1.6,1.6c-0.9,0-1.6-0.7-1.6-1.6c0-0.3,0.1-0.5,0.2-0.7l-25.5-13
		c-0.3,0.5-0.8,0.8-1.4,0.8c-0.6,0-1.1-0.3-1.4-0.8L51.8,63c0.1,0.2,0.2,0.5,0.2,0.8c0,0.9-0.7,1.6-1.6,1.6c-0.3,0-0.5-0.1-0.8-0.2
		L46.6,70.9c30.2,0.9,55.2,7.5,76.1,17.7l11.7-4c-0.1-0.3-0.2-0.5-0.2-0.8c0-1.4,1.2-2.5,2.6-2.5c0.5,0,0.9,0.1,1.2,0.3l2.2-3.8
		c-0.5-0.3-0.8-0.8-0.8-1.4c0-0.9,0.7-1.6,1.6-1.6c0.9,0,1.6,0.7,1.6,1.6c0,0.9-0.7,1.6-1.6,1.6c-0.3,0-0.6-0.1-0.8-0.2l-2.2,3.8
		c0.8,0.4,1.3,1.2,1.3,2.2c0,1.4-1.1,2.5-2.5,2.5c-0.1,0-0.2,0-0.2,0l-0.4,4.4c0.8,0.1,1.5,0.7,1.5,1.6c0,0.9-0.7,1.6-1.6,1.6
		c-0.9,0-1.6-0.7-1.6-1.6c0-0.9,0.7-1.6,1.6-1.6c0.1,0,0.1,0,0.2,0l0.4-4.4c-1-0.1-1.8-0.7-2.2-1.6l-11.7,4
		c33.5,16.4,56.1,42.1,71.3,68.3c1.3,0.1,2.4,1.2,2.4,2.5c0,0.4-0.1,0.8-0.3,1.2c0.2,0.4,0.4,0.7,0.6,1.1l10.1,8.1
		c0.5-0.5,1.2-0.9,2-0.9c1,0,1.9,0.6,2.3,1.5c-9.3-53-43.9-97.7-91.2-122.1l-5.9,0.7c0,0.1,0,0.1,0,0.2c0,0.9-0.7,1.6-1.6,1.6
		s-1.6-0.7-1.6-1.6c0-0.9,0.7-1.6,1.6-1.6c0.8,0,1.5,0.6,1.6,1.4l5.9-0.7C95.8,36,68.6,28.9,39.6,28.6v42.2
		C42,70.8,44.3,70.8,46.6,70.9z"/>
	<path class="st0" d="M213.5,201c0-0.6,0-1.2,0-1.8c0-0.3,0-0.7,0-1h-1C212.9,199.2,213.2,200.1,213.5,201z"/>
	<path class="st0" d="M30.3,189.3l0.1-1c-0.3-0.1-0.5-0.2-0.8-0.3L30.3,189.3z"/>
	<path class="st0" d="M175.5,198.2c-0.2,0.7-0.8,1.2-1.6,1.2c-0.8,0-1.4-0.5-1.6-1.2h-9.2l1.4,2.3c0.4-0.2,0.8-0.3,1.3-0.3
		c1.4,0,2.5,1.1,2.5,2.5c0,1.2-0.9,2.2-2.1,2.4l3,17.9c1.7,0.1,3.1,1.5,3.1,3.2c0,1.8-1.5,3.2-3.3,3.2c-0.1,0-0.2,0-0.4,0l-2,17.6
		c1.6,0.2,2.9,1.5,2.9,3.1c0,1.8-1.5,3.2-3.3,3.2c-1.8,0-3.3-1.4-3.3-3.2c0-1.7,1.5-3.2,3.3-3.2c0.1,0,0.2,0,0.3,0l2-17.6
		c-0.6-0.1-1.1-0.3-1.6-0.6l-15.6,20.2c0.4,0.3,0.7,0.7,0.7,1.3c0,0.9-0.7,1.6-1.6,1.6c-0.2,0-0.4,0-0.6-0.1l-1.4,3.4l1.4-3.4
		c-0.6-0.2-1-0.8-1-1.5c0-0.9,0.7-1.6,1.6-1.6c0.4,0,0.7,0.1,1,0.3l15.6-20.2c-0.8-0.6-1.3-1.5-1.3-2.5c0-1.7,1.5-3.2,3.3-3.2
		c0.1,0,0.1,0,0.2,0l-3-17.9c-0.1,0-0.3,0-0.4,0c-1.4,0-2.6-1.1-2.6-2.5c0-0.9,0.5-1.7,1.3-2.1l-1.4-2.3H39.6v41.9l14.3-3
		c0-0.2-0.1-0.3-0.1-0.5c0-1.4,1.2-2.5,2.6-2.5s2.6,1.1,2.6,2.5c0,1.4-1.1,2.5-2.6,2.5c-1.2,0-2.3-0.8-2.5-2l-14.3,3V270
		c0.1,0,0.3-0.1,0.4-0.1c0.9,0,1.6,0.7,1.6,1.6h7.9c0-0.9,0.7-1.6,1.6-1.6c0.9,0,1.6,0.7,1.6,1.6c0,0.3-0.1,0.5-0.2,0.8l5,2.8
		c0.3-0.5,0.8-0.8,1.4-0.8c0.9,0,1.6,0.7,1.6,1.6c0,0.3-0.1,0.6-0.3,0.9l4.5,3c0.6-0.8,1.6-1.4,2.7-1.4c1.8,0,3.3,1.4,3.3,3.2
		c0,1.8-1.5,3.2-3.3,3.2c-1.8,0-3.3-1.4-3.3-3.2c0-0.7,0.2-1.3,0.6-1.8l-4.5-3c-0.3,0.4-0.8,0.7-1.3,0.7c-0.9,0-1.6-0.7-1.6-1.6
		c0-0.3,0.1-0.6,0.2-0.8l-5-2.8c-0.3,0.5-0.8,0.8-1.4,0.8c-0.9,0-1.6-0.7-1.6-1.6c0,0,0,0,0,0h-7.9c0,0,0,0,0,0
		c0,0.9-0.7,1.6-1.6,1.6c-0.1,0-0.3,0-0.4-0.1v96.7c25.9-0.3,50.5-6,72.5-16c-0.7-0.6-1.2-1.4-1.2-2.4c0-1,0.5-1.9,1.3-2.5l-5.1-6.7
		c-0.4,0.3-1,0.5-1.5,0.5c-1.4,0-2.6-1.1-2.6-2.5c0-1.4,1.2-2.5,2.6-2.5c1.4,0,2.6,1.1,2.6,2.5c0,0.8-0.4,1.5-1,2l5.1,6.7
		c0.5-0.4,1.2-0.6,2-0.6c1,0,1.8,0.4,2.4,1.1l10-8.5l-0.9,0.5l2.2-2.7l-3.5,0.9l3-1.9l-8.4-0.2l8.3-0.9l-3.3-1.4l3.6,0.3l-2.6-2.3
		l3.3,1.4l-1.7-3l2.6,2.4l-0.6-3.4l1.7,3.1l0.5-8.4l0.6,8.4l1.7-3.1l-0.6,3.4l2.6-2.4l-1.7,3l3.3-1.4l-2.6,2.3l3.6-0.3l-3.3,1.4
		l0.5,0l6.5-1.7c-0.1-0.2-0.1-0.4-0.1-0.6c0-1.4,1.2-2.5,2.6-2.5c1.1,0,2.1,0.7,2.4,1.7c11.1-8.4,21.1-18.1,29.7-28.9l-7.1,1.3
		c0,0.1,0,0.3,0,0.5c0,1.4-1.1,2.5-2.6,2.5c-1.4,0-2.6-1.1-2.6-2.5c0-0.1,0-0.3,0-0.4l-11.2-1.7c0,0,0,0,0,0l0,0l0,0
		c-1.2,0-2.1-0.9-2.1-2c0-0.8,0.5-1.5,1.2-1.8l-1.3-5.7c-0.5,0.4-1.2,0.6-1.9,0.6c-1.8,0-3.3-1.4-3.3-3.2c0-1.4,0.9-2.6,2.2-3
		l-1.9-5.2c-0.3,0.1-0.5,0.1-0.8,0.1c-1.4,0-2.6-1.1-2.6-2.5c0-1.4,1.1-2.5,2.6-2.5c1.4,0,2.5,1.1,2.5,2.5c0,1.1-0.7,2-1.7,2.3
		l1.9,5.2c0.3-0.1,0.7-0.2,1.1-0.2c1.4,0,2.5,0.8,3,2l17-4.4c-0.1-0.2-0.1-0.4-0.1-0.6c0-1.4,1.1-2.5,2.6-2.5s2.6,1.1,2.6,2.5
		c0,1.4-1.2,2.5-2.6,2.5c-1.2,0-2.2-0.8-2.5-1.8l-17,4.4c0.2,0.4,0.2,0.8,0.2,1.2c0,1.1-0.5,2-1.4,2.6l1.3,5.7
		c0.3-0.1,0.6-0.2,0.9-0.2c1.2,0,2.1,0.9,2.1,2c0,1.1-0.9,2-2.1,2l11.2,1.7c0.2-1.2,1.2-2.1,2.5-2.1c1.2,0,2.3,0.9,2.5,2l7.1-1.3
		c23.1-28.6,37-64.4,37.5-103.5c-0.3-0.9-0.6-1.9-0.9-2.8H175.5z M47,336.5c-0.9,0-1.6-0.7-1.6-1.6c0-0.9,0.7-1.6,1.6-1.6
		c0.9,0,1.6,0.7,1.6,1.6C48.6,335.8,47.9,336.5,47,336.5z M96.6,240.5c0,0.9-0.7,1.6-1.6,1.6c-0.8,0-1.5-0.6-1.6-1.4l-12.9,1
		c0,0.1,0,0.1,0,0.2c0,1-0.6,1.8-1.5,2.2l8,16.2c0.4-0.2,0.9-0.3,1.4-0.3c1.8,0,3.3,1.4,3.3,3.2c0,1.8-1.5,3.2-3.3,3.2
		c-1.8,0-3.3-1.4-3.3-3.2c0-1.3,0.8-2.3,1.9-2.8l-8-16.2c-0.3,0.2-0.7,0.3-1.1,0.3c-1.4,0-2.6-1.1-2.6-2.5c0-1.4,1.1-2.5,2.6-2.5
		c0.1,0,0.3,0,0.4,0l1.7-10.2c-1.2-0.2-2.1-1.2-2.1-2.4c0-1.4,1.1-2.5,2.6-2.5c1.4,0,2.5,1.1,2.5,2.5c0,1.4-1.1,2.5-2.5,2.5
		c-0.1,0-0.3,0-0.4,0l-1.7,10.2c1.1,0.2,2,1.1,2.1,2.2l12.9-1c0,0,0-0.1,0-0.1c0-0.9,0.7-1.6,1.6-1.6v-11.8c-0.9,0-1.6-0.7-1.6-1.6
		c0-0.9,0.7-1.6,1.6-1.6c0.9,0,1.6,0.7,1.6,1.6c0,0.9-0.7,1.6-1.6,1.6v11.8C95.9,238.9,96.6,239.6,96.6,240.5z M128.7,263.1
		c-0.6,0-1.2-0.2-1.7-0.6l-3.4,3.8c0.5,0.5,0.9,1.1,0.9,1.9c0,1.4-1.1,2.5-2.6,2.5c-1.4,0-2.6-1.1-2.6-2.5c0-1.4,1.1-2.5,2.6-2.5
		c0.6,0,1.2,0.2,1.7,0.6l3.4-3.8c-0.5-0.5-0.9-1.1-0.9-1.9c0-0.5,0.2-1,0.5-1.4l-4.5-3.1c-0.5,0.6-1.2,1.1-2.1,1.1
		c-1.4,0-2.6-1.1-2.6-2.5c0-1.4,1.2-2.5,2.6-2.5c0.6,0,1.1,0.2,1.5,0.5l5.2-7c-0.6-0.4-1.1-1.2-1.1-2c0-0.3,0.1-0.5,0.1-0.7
		l-5.2-1.5c-0.4,1.3-1.6,2.2-3.1,2.2c-1.8,0-3.3-1.4-3.3-3.2c0-1.7,1.5-3.2,3.3-3.2c1.8,0,3.3,1.4,3.3,3.2c0,0.3-0.1,0.6-0.2,0.9
		l5.2,1.5c0.3-1,1.3-1.8,2.4-1.8c1.4,0,2.6,1.1,2.6,2.5c0,1.4-1.1,2.5-2.6,2.5c-0.6,0-1.1-0.2-1.5-0.5l-5.2,7c0.6,0.5,1.1,1.2,1.1,2
		c0,0.5-0.2,1-0.5,1.4l4.5,3.1c0.5-0.6,1.2-1.1,2.1-1.1c1.4,0,2.5,1.1,2.5,2.5C131.2,262,130.1,263.1,128.7,263.1z M148.5,258.2
		c-0.9,0-1.6-0.7-1.6-1.6c0-0.9,0.7-1.6,1.6-1.6c0.9,0,1.6,0.7,1.6,1.6C150.1,257.4,149.4,258.2,148.5,258.2z M178.2,217.3
		c0.9,0,1.6,0.7,1.6,1.6c0,0.9-0.7,1.6-1.6,1.6c-0.9,0-1.6-0.7-1.6-1.6C176.6,218,177.3,217.3,178.2,217.3z M186.1,248
		c-0.9,0-1.6-0.7-1.6-1.6c0-0.8,0.6-1.5,1.5-1.6l-1-8.9c-0.1,0-0.2,0-0.3,0c-0.5,0-0.9-0.1-1.3-0.4l-4,6.3c1.3,0.1,2.3,1.2,2.3,2.5
		c0,1.4-1.1,2.5-2.6,2.5c-1.4,0-2.6-1.1-2.6-2.5c0-1.4,1.1-2.5,2.6-2.5c0.1,0,0.2,0,0.3,0l4-6.3c-0.7-0.4-1.2-1.2-1.2-2.1
		c0-1.4,1.2-2.5,2.6-2.5c1.4,0,2.6,1.1,2.6,2.5c0,1.3-1,2.3-2.3,2.5l1,8.9c0.1,0,0.1,0,0.2,0c0.9,0,1.6,0.7,1.6,1.6
		C187.7,247.3,186.9,248,186.1,248z M200.9,229.3c-0.2,0-0.5,0-0.7-0.1l-0.8,2.7c1.2,0.4,2.1,1.6,2.1,3c0,1.8-1.5,3.2-3.3,3.2
		c-1.8,0-3.3-1.4-3.3-3.2c0-1.7,1.5-3.2,3.3-3.2c0.4,0,0.8,0.1,1.1,0.2l0.8-2.7c-1.1-0.3-1.9-1.2-1.9-2.4c0-1.4,1.2-2.5,2.6-2.5
		c1.4,0,2.6,1.1,2.6,2.5C203.4,228.2,202.3,229.3,200.9,229.3z M206,227.9c-0.9,0-1.6-0.7-1.6-1.6c0-0.9,0.7-1.6,1.6-1.6
		c0.9,0,1.6,0.7,1.6,1.6C207.6,227.2,206.9,227.9,206,227.9z"/>
	<path class="st0" d="M0.7,322.3c0.6-0.7,1.5-1.1,2.5-1.1c1.1,0,2.1,0.6,2.7,1.4l7.1-4.5c-0.9-0.6-1.4-1.5-1.4-2.6
		c0-0.3,0.1-0.6,0.1-0.8l-11.5-8.3v15.6L0.7,322.3z"/>
	<path class="st0" d="M31.5,189.3l0.8-1.4c-0.3,0.2-0.5,0.3-0.8,0.3L31.5,189.3z"/>
	<path class="st0" d="M129.8,343.4l0-3.5l-2.2,2.7l1.2-3.3l-2.1,1.4l-10,8.5c0.5,0.5,0.8,1.2,0.8,2c4.7-2.3,9.2-4.8,13.7-7.5
		l-0.2-3.6L129.8,343.4z"/>
	<polygon class="st0" points="27.9,198.2 29.8,198.2 29.8,195.8 	"/>
	<path class="st0" d="M41,124l-0.6-3.4l1.7,3.1l0.2-3.5c-1.2-0.2-2-1.2-2-2.4c0-1.3,1-2.3,2.3-2.5l0,0l0,0c0.1,0,0.2,0,0.2,0
		c0.3,0,0.6,0.1,0.9,0.2L47,107c-1-0.4-1.6-1.3-1.6-2.3c0-1.4,1.1-2.5,2.5-2.5s2.6,1.1,2.6,2.5c0,1.4-1.2,2.5-2.6,2.5
		c-0.3,0-0.6-0.1-0.9-0.2l-3.3,8.4c1,0.4,1.7,1.3,1.7,2.3c0,1.3-1.1,2.4-2.4,2.5l0.3,3.5l1.7-3.1l-0.6,3.4l2.6-2.4l-1.7,3l3.3-1.4
		l-2.6,2.3l3.6-0.3l-3.3,1.4l8.2,0.8l-8.3,0.3l3,1.9l-3.5-0.9l2.2,2.7l-3-1.9l1.2,3.3l-2.2-2.7l-0.6,8.3l-0.5-8.1l-1.1,3.3l0-3.5
		l-1.8,2.2c0.8,0.4,1.3,1.2,1.3,2.2c0,1-0.6,1.8-1.4,2.2v24.7c0.1,0,0.3,0,0.4,0c1.4,0,2.6,1.1,2.6,2.5c0,0.5-0.2,1-0.5,1.4l9.6,6.6
		c0.5-0.6,1.2-1,2.1-1c1.4,0,2.6,1.1,2.6,2.5c0,0.6-0.2,1.2-0.6,1.6l8.3,6.8c0.5-0.5,1.2-0.9,1.9-0.9c0.5,0,0.9,0.1,1.3,0.3l4.4-7.7
		c-0.8-0.4-1.3-1.2-1.3-2.2c0-1.4,1.2-2.5,2.6-2.5c1,0,1.9,0.6,2.3,1.4l8.2-3.8c-0.2-0.3-0.3-0.7-0.3-1.1c0-1.4,1.1-2.5,2.6-2.5
		c1.4,0,2.6,1.1,2.6,2.5c0,1.4-1.1,2.5-2.6,2.5c-1,0-1.9-0.6-2.3-1.4l-8.2,3.8c0.2,0.3,0.3,0.7,0.3,1.1c0,1.4-1.2,2.5-2.6,2.5
		c-0.5,0-0.9-0.1-1.2-0.3l-4.4,7.7c0.8,0.4,1.3,1.2,1.3,2.2c0,0.8-0.4,1.5-1,2l4.9,6.4c0.4-0.1,0.8-0.2,1.2-0.2
		c1.8,0,3.3,1.4,3.3,3.2c0,1.8-1.5,3.2-3.3,3.2s-3.3-1.4-3.3-3.2c0-1.3,0.9-2.5,2.1-2.9l-4.9-6.4c-0.4,0.3-1,0.5-1.5,0.5
		c-0.8,0-1.5-0.4-2-1l-9.3,7c0.3,0.4,0.5,0.9,0.5,1.4c0,1.4-1.1,2.5-2.6,2.5c-1.4,0-2.6-1.1-2.6-2.5c0-1.4,1.1-2.5,2.6-2.5
		c0.9,0,1.6,0.4,2.1,1.1l9.3-7c-0.3-0.4-0.5-0.9-0.5-1.5c0-0.6,0.2-1.2,0.6-1.6l-8.3-6.8c-0.5,0.5-1.2,0.9-1.9,0.9
		c-1.4,0-2.6-1.1-2.6-2.5c0-0.5,0.2-1,0.5-1.4l-9.6-6.6c-0.5,0.6-1.2,1.1-2.1,1.1c-0.1,0-0.3,0-0.4,0V183c0.4,0.4,0.6,1,0.6,1.6
		c0,0.6-0.2,1.1-0.6,1.6v6.7l2.9,0.3l-2.9,0.1v5h123.5l-3.6-6.1c-0.5,0.3-1,0.4-1.6,0.4c-1.8,0-3.3-1.4-3.3-3.2
		c0-0.6,0.2-1.2,0.5-1.7l-3.3-2.1l3.3,2.1c0.6-0.9,1.6-1.4,2.7-1.4c0.6,0,1.1,0.2,1.6,0.4l10.5-18.2c-0.7-0.4-1.1-1.2-1.1-2
		c0-0.5,0.2-1,0.4-1.4l-23.9-15.3c-0.6,0.9-1.6,1.4-2.7,1.4c-0.2,0-0.5,0-0.7-0.1l-4.7,21.6c1.3,0.4,2.2,1.6,2.2,3
		c0,0.6-0.2,1.2-0.5,1.7l12.4,7.8l-12.4-7.8c-0.6,0.9-1.6,1.4-2.7,1.4c-1.8,0-3.3-1.4-3.3-3.2c0-1.7,1.5-3.2,3.3-3.2
		c0.4,0,0.8,0.1,1.1,0.2l4.7-21.6c-1.5-0.3-2.6-1.6-2.6-3.1c0-0.8,0.3-1.6,0.9-2.2l-11.9-10.9c-0.5,0.5-1.1,0.8-1.9,0.8
		c-1.4,0-2.6-1.1-2.6-2.5c0-0.8,0.4-1.5,1-1.9l-6.8-8.5c-0.5,0.6-1.2,1.1-2.1,1.1c-1.4,0-2.6-1.1-2.6-2.5c0-0.1,0-0.3,0-0.4
		l-10.6,3.2c0.4,0.5,0.6,1.2,0.6,1.9c0,1.7-1.5,3.2-3.3,3.2c-1.8,0-3.3-1.4-3.3-3.2c0-1.8,1.5-3.2,3.3-3.2c1.1,0,2,0.5,2.6,1.3
		l10.6-3.2c0.2-1.2,1.2-2.1,2.5-2.1c1.4,0,2.6,1.1,2.6,2.5c0,0.5-0.2,1-0.5,1.4l6.8,8.5c0.4-0.3,1-0.5,1.6-0.5
		c1.4,0,2.6,1.1,2.6,2.5c0,0.7-0.3,1.3-0.7,1.7l11.9,10.9c0.6-0.6,1.4-1,2.4-1c1.8,0,3.3,1.4,3.3,3.2c0,0.6-0.2,1.2-0.5,1.7
		l23.9,15.3c0.5-0.7,1.2-1.1,2.1-1.1c1.4,0,2.6,1.1,2.6,2.5c0,1.4-1.2,2.5-2.6,2.5c-0.5,0-1-0.2-1.5-0.4l-10.5,18.2
		c1,0.5,1.7,1.6,1.7,2.8c0,1.2-0.7,2.2-1.6,2.7l3.6,6.1h9.2c0-0.1-0.1-0.2-0.1-0.4c0-0.9,0.7-1.6,1.6-1.6c0.9,0,1.6,0.7,1.6,1.6
		c0,0.1,0,0.3,0,0.4h37c-3.9-11.5-9.1-24-15.9-36.6l-0.9-0.7c-0.5,0.5-1.2,0.9-2,0.9c-1.4,0-2.5-1.1-2.5-2.5c0-0.6,0.2-1.2,0.6-1.6
		l-18.3-14.9c-0.3,0.3-0.7,0.6-1.2,0.6c-0.9,0-1.6-0.7-1.6-1.6c0-0.2,0.1-0.4,0.1-0.6l-12.1-5.2c-0.2,0.7-0.8,1.2-1.6,1.2
		c-0.9,0-1.6-0.7-1.6-1.6c0-0.5,0.2-0.9,0.6-1.2l-7.1-8.3c-0.3,0.2-0.6,0.4-1,0.4c-0.9,0-1.6-0.7-1.6-1.6c0-0.9,0.7-1.6,1.6-1.6
		c0.9,0,1.6,0.7,1.6,1.6c0,0.5-0.2,0.9-0.6,1.2l7.1,8.3c0.3-0.2,0.6-0.4,1-0.4c0.9,0,1.6,0.7,1.6,1.6c0,0.1,0,0.2,0,0.4l12.1,5.2
		c0.2-0.6,0.8-0.9,1.5-0.9c0.9,0,1.6,0.7,1.6,1.6c0,0.4-0.1,0.7-0.4,1l18.3,14.9c0.5-0.5,1.2-0.9,1.9-0.9c0.1,0,0.1,0,0.2,0
		c-15.2-26.2-37.7-51.9-71.3-68.3l-5.7,2c0.1,0.2,0.1,0.3,0.1,0.5c0,0.6-0.3,1.1-0.8,1.3l5.3,8.5c0.3-0.1,0.6-0.2,1-0.2
		c1.4,0,2.6,1.1,2.6,2.5c0,0.7-0.3,1.3-0.8,1.8l1.5,1.5c0.5-0.4,1.1-0.7,1.8-0.7c1.4,0,2.6,1.1,2.6,2.5c0,1.4-1.1,2.5-2.6,2.5
		c-1.4,0-2.6-1.1-2.6-2.5c0-0.7,0.3-1.3,0.7-1.8l-1.5-1.5c-0.5,0.4-1.1,0.7-1.8,0.7c-1,0-1.9-0.6-2.3-1.4l-5.7,2.8
		c0.2,0.3,0.3,0.7,0.3,1.1c0,1.4-1.1,2.5-2.6,2.5c-1.4,0-2.5-1.1-2.5-2.5c0-0.7,0.3-1.4,0.8-1.8L93.3,93.8c-0.4,0.8-1.3,1.3-2.3,1.3
		c-1.4,0-2.6-1.1-2.6-2.5c0-0.4,0.1-0.8,0.3-1.1l-15.1-7.1c-0.3,0.5-0.8,0.9-1.4,0.9c-0.8,0-1.5-0.6-1.6-1.3l-3.2,0.5
		c0.1,0.2,0.1,0.3,0.1,0.5c0,0.9-0.7,1.6-1.6,1.6c-0.9,0-1.6-0.7-1.6-1.6h0h0c0,0,0,0,0,0c0-0.9,0.7-1.6,1.6-1.6
		c0.7,0,1.3,0.5,1.5,1.1l3.2-0.5c0-0.1,0-0.2,0-0.2c0-0.9,0.7-1.6,1.6-1.6c0.9,0,1.6,0.7,1.6,1.6c0,0.2-0.1,0.5-0.2,0.7l15.1,7.1
		c0.4-0.8,1.3-1.4,2.3-1.4c1.4,0,2.6,1.1,2.6,2.5c0,0.4-0.1,0.8-0.3,1.1l17.3,12.6c0.5-0.4,1.1-0.7,1.7-0.7c1,0,1.9,0.6,2.3,1.4
		l5.7-2.8c-0.2-0.3-0.3-0.7-0.3-1.1c0-1,0.6-1.9,1.6-2.3l-5.3-8.5c-0.2,0.1-0.5,0.2-0.8,0.2c-0.9,0-1.6-0.7-1.6-1.6
		c0-0.9,0.7-1.6,1.6-1.6c0.7,0,1.3,0.4,1.5,1l5.7-2c-20.8-10.2-45.9-16.8-76.1-17.7l-0.7,1.2c1.1,0.3,2,1.2,2,2.4
		c0,1.4-1.1,2.5-2.6,2.5c-0.3,0-0.5,0-0.7-0.1v5.7c1.4,0,2.5,1.1,2.5,2.5c0,1.4-1.2,2.5-2.6,2.5c-1.4,0-2.6-1.1-2.6-2.5
		c0-1.4,1.2-2.5,2.6-2.5c0,0,0,0,0,0v-5.7c-1-0.3-1.8-1.2-1.8-2.4c0-1.4,1.1-2.5,2.6-2.5c0.2,0,0.4,0,0.6,0.1l0.7-1.2
		c-2.3-0.1-4.6-0.1-6.9-0.1v52L41,124z M123.4,171.8c0.9,0,1.6,0.7,1.6,1.6c0,0.9-0.7,1.6-1.6,1.6c-0.9,0-1.6-0.7-1.6-1.6
		C121.7,172.5,122.5,171.8,123.4,171.8z M121.6,108.2c0.9,0,1.6,0.7,1.6,1.6c0,0.9-0.7,1.6-1.6,1.6c-0.9,0-1.6-0.7-1.6-1.6
		C120,108.9,120.7,108.2,121.6,108.2z M73.5,132.6c0.9,0,1.6,0.7,1.6,1.6c0,0.9-0.7,1.6-1.6,1.6c-0.9,0-1.6-0.7-1.6-1.6
		C71.9,133.3,72.7,132.6,73.5,132.6z M72.8,137.8c0.9,0,1.6,0.7,1.6,1.6c0,0.9-0.7,1.6-1.6,1.6c-0.9,0-1.6-0.7-1.6-1.6
		C71.2,138.5,71.9,137.8,72.8,137.8z M71.2,137.1c0,0.9-0.7,1.6-1.6,1.6c-0.9,0-1.6-0.7-1.6-1.6c0-0.9,0.7-1.6,1.6-1.6
		C70.5,135.5,71.2,136.2,71.2,137.1z M68.9,132.1c-0.9,0-1.6-0.7-1.6-1.6c0-0.9,0.7-1.6,1.6-1.6s1.6,0.7,1.6,1.6
		C70.6,131.4,69.8,132.1,68.9,132.1z M68.5,124.5c0.9,0,1.6,0.7,1.6,1.6c0,0.9-0.7,1.6-1.6,1.6c-0.9,0-1.6-0.7-1.6-1.6
		C66.9,125.2,67.6,124.5,68.5,124.5z M66.4,131.7c0.9,0,1.6,0.7,1.6,1.6c0,0.9-0.7,1.6-1.6,1.6c-0.9,0-1.6-0.7-1.6-1.6
		C64.7,132.4,65.5,131.7,66.4,131.7z"/>
	<path class="st0" d="M16,63.3c0.2-0.6,0.8-1,1.5-1c0.7,0,1.3,0.4,1.5,1l8.7-3.4c-0.1-0.2-0.1-0.4-0.1-0.6c0-0.9,0.7-1.6,1.6-1.6
		c0.9,0,1.6,0.7,1.6,1.6s-0.7,1.6-1.6,1.6c-0.7,0-1.3-0.4-1.5-1L19,63.2c0.1,0.2,0.1,0.4,0.1,0.6c0,0.9-0.7,1.6-1.6,1.6
		s-1.6-0.7-1.6-1.6C15.9,63.6,15.9,63.4,16,63.3L0.3,57.4v12.2l6.6,3.8c10.2-1.6,21.1-2.6,32.8-2.6V28.6c-0.7,0-1.4,0-2.1,0
		c-12.8,0-25.3,1.3-37.3,3.8v25L16,63.3z"/>
	<path class="st0" d="M208.7,173.8c-1.4,0-2.6-1.1-2.6-2.5c0-0.6,0.2-1.1,0.6-1.6l-10.1-8.1c6.8,12.5,12,25,15.9,36.6h1
		c0-8.2-0.7-16.3-1.9-24.2l-1.1-1C210.1,173.5,209.4,173.8,208.7,173.8z"/>
	<path class="st0" d="M137.3,339.4l-3.5-0.9l1.8,2.3c1.8-1.2,3.5-2.3,5.2-3.5l-6.6,0.2L137.3,339.4z"/>
	<path class="st0" d="M141.4,334.8l-6.5,1.7l6.3,0.6c0.4-0.3,0.9-0.6,1.3-0.9C141.9,335.9,141.6,335.4,141.4,334.8z"/>
	<path class="st0" d="M134,341.9c0.5-0.3,1-0.7,1.5-1l-2.5-1.6L134,341.9z"/>
	<path class="st0" d="M0.3,321.9v1c0.1-0.2,0.3-0.5,0.4-0.7L0.3,321.9z"/>
	<path class="st1" d="M39.7,132.4l1.8-2.2l0,3.5l1.1-3.3l0.5,8.1l0.6-8.3l2.2,2.7l-1.2-3.3l3,1.9l-2.2-2.7l3.5,0.9l-3-1.9l8.3-0.3
		l-8.2-0.8l3.3-1.4l-3.6,0.3l2.6-2.3l-3.3,1.4l1.7-3l-2.6,2.4l0.6-3.4l-1.7,3.1l-0.3-3.5c0,0-0.1,0-0.1,0c-0.2,0-0.4,0-0.5-0.1
		l-0.2,3.5l-1.7-3.1L41,124l-1.3-1.2v1.1l0.4,0.7l-0.4-0.2v4.3l0.1,0l-0.1,0.1v1.3l0.8-0.5l-0.8,2.4L39.7,132.4
		C39.7,132.4,39.7,132.4,39.7,132.4z"/>
	<polygon class="st1" points="42.6,115.3 42.6,115.3 42.6,115.3 	"/>
	<polygon class="st1" points="38.3,121.7 39.6,124 39.6,122.8 	"/>
	<path class="st1" d="M39.6,132l-0.1,0.3c0,0,0.1,0,0.1,0.1V132z"/>
	<polygon class="st1" points="37.5,131.6 39.6,130.2 39.6,128.9 	"/>
	<polygon class="st1" points="36.8,123.3 39.4,125.6 35.9,125.3 39.1,126.7 30.8,127.7 39.2,127.8 36.2,129.7 39.6,128.9 
		39.6,124.5 	"/>
	<polygon class="st1" points="31.4,204.1 31.9,198.2 31.1,198.2 	"/>
	<polygon class="st1" points="42.6,193.1 39.6,192.9 39.6,193.3 	"/>
	<path class="st1" d="M36,197.2l-2.2-2.7l3.5,0.9l-3-1.9l5.3-0.2v-0.4l-5.3-0.5l3.3-1.4l-3.6,0.3l2.6-2.3l-3.3,1.4l1.7-3l-2.6,2.4
		l0.4-2.5c-0.2,0.3-0.4,0.5-0.7,0.7l-0.8,1.4l-0.1-1.1c-0.2,0-0.4,0.1-0.5,0.1c-0.2,0-0.3,0-0.5,0l-0.1,1l-0.7-1.3
		c-0.3-0.2-0.6-0.4-0.8-0.6l0.4,2.3l-2.6-2.4l1.7,3l-3.3-1.4l2.6,2.3l-3.6-0.3l3.3,1.4l-8.3,0.9l8.4,0.2l-3,1.9l3.5-0.9l-2.2,2.7
		l3-1.9l-1,2.9h0.2l1.9-2.4l0,2.4h0.4l0.8-2.2l0.1,2.2h0.8l0.2-2.4l1.9,2.4h0.2l-1.1-2.9L36,197.2z"/>
	<polygon class="st1" points="34.2,198.6 34.1,198.2 33.9,198.2 	"/>
	<path class="st1" d="M31,183.4l-0.2-2.5l-0.1,2.5c0.1,0,0.1,0,0.2,0C30.9,183.3,31,183.4,31,183.4z"/>
	<polygon class="st1" points="29.8,199.3 30.1,198.2 29.8,198.2 	"/>
	<polygon class="st1" points="27.6,198.6 27.9,198.2 27.7,198.2 	"/>
	<path class="st1" d="M130.2,337.7l-3.5,3l2.1-1.4l-1.2,3.3l2.2-2.7l0,3.5l1.1-3.3l0.2,3.6c0.2-0.1,0.4-0.3,0.7-0.4l0.2-3.4l1.7,2.2
		c0.1,0,0.1-0.1,0.2-0.1l-0.9-2.6l2.5,1.6c0.1,0,0.1-0.1,0.2-0.1l-1.8-2.3l3.5,0.9l-3-1.9l6.6-0.2c0.1-0.1,0.2-0.1,0.3-0.2l-6.3-0.6
		L130.2,337.7z"/>
	<polygon class="st1" points="134.9,336.5 134.4,336.4 137.7,335.1 134.1,335.4 136.8,333 133.5,334.4 135.2,331.4 132.6,333.7 
		133.2,330.3 131.5,333.4 130.9,325 130.4,333.4 128.7,330.3 129.3,333.7 126.7,331.4 128.4,334.4 125.1,333 127.7,335.4 
		124.2,335.1 127.5,336.4 119.2,337.4 127.6,337.5 124.6,339.4 128,338.6 125.8,341.3 126.7,340.7 130.2,337.7 	"/>
	<path class="st1" d="M142.6,144.9c-0.9,0-1.8,0.4-2.4,1l2.4,2.2l0,0l0,0l0,0l0,0l0,0l2.7,1.7c0.3-0.5,0.5-1.1,0.5-1.7
		C145.9,146.3,144.4,144.9,142.6,144.9z"/>
	<path class="st1" d="M141.9,151.2c0.2,0,0.4,0.1,0.7,0.1c1.1,0,2.1-0.6,2.7-1.4l-2.7-1.7L141.9,151.2z"/>
	<path class="st1" d="M142.6,148.1L142.6,148.1L142.6,148.1l-2.4-2.2c-0.6,0.6-0.9,1.3-0.9,2.2c0,1.5,1.1,2.8,2.6,3.1L142.6,148.1
		L142.6,148.1z"/>
	<path class="st1" d="M100.3,122.9c-1.8,0-3.3,1.4-3.3,3.2c0,1.7,1.5,3.2,3.3,3.2c1.8,0,3.3-1.4,3.3-3.2c0-0.7-0.2-1.3-0.6-1.9
		l-2.6,0.8l2.6-0.8C102.4,123.4,101.4,122.9,100.3,122.9z"/>
	<path class="st1" d="M132.8,175.7c0,1.8,1.5,3.2,3.3,3.2c1.1,0,2.2-0.6,2.7-1.4l-1.5-0.9l1.5,0.9c0.3-0.5,0.5-1.1,0.5-1.7
		c0-1.4-0.9-2.5-2.2-3l-0.5,2.2l0.5-2.2c-0.3-0.1-0.7-0.2-1.1-0.2C134.3,172.5,132.8,173.9,132.8,175.7z M136.7,176.1l-0.6-0.4
		L136.7,176.1z"/>
	<path class="st1" d="M161.1,189.4c0-1.2-0.7-2.2-1.7-2.8l-1.6,2.8l1.6,2.7C160.5,191.6,161.1,190.6,161.1,189.4z"/>
	<path class="st1" d="M159.5,186.7c-0.5-0.3-1-0.4-1.6-0.4c-1.1,0-2.2,0.6-2.7,1.4l0.9,0.6l-0.9-0.6c-0.3,0.5-0.5,1.1-0.5,1.7
		c0,1.7,1.5,3.2,3.3,3.2c0.6,0,1.2-0.2,1.6-0.4l-1.6-2.7L159.5,186.7z M157.2,189l0.6,0.4L157.2,189z"/>
	<path class="st1" d="M167.1,228.7c0.5,0.3,1,0.5,1.6,0.6l0.3-3.1L167.1,228.7z"/>
	<path class="st1" d="M165.8,226.1c0,1,0.5,1.9,1.3,2.5l1.9-2.5l0,0l0,0l0,0l0,0l-0.3,3.1c0.1,0,0.2,0,0.4,0c1.8,0,3.3-1.4,3.3-3.2
		c0-1.7-1.4-3.1-3.1-3.2l0.4,2.6l-0.4-2.6c-0.1,0-0.1,0-0.2,0C167.3,223,165.8,224.4,165.8,226.1z"/>
	<path class="st1" d="M163.1,250c0,1.8,1.5,3.2,3.3,3.2c1.8,0,3.3-1.4,3.3-3.2c0-1.6-1.3-3-2.9-3.1l-0.4,3.1l0.4-3.1
		c-0.1,0-0.2,0-0.3,0C164.6,246.8,163.1,248.3,163.1,250z"/>
	<path class="st1" d="M195.1,234.9c0,1.8,1.5,3.2,3.3,3.2c1.8,0,3.3-1.4,3.3-3.2c0-1.4-0.9-2.5-2.1-3l-1.1,4.1l1.1-4.1
		c-0.4-0.1-0.7-0.2-1.1-0.2C196.5,231.7,195.1,233.1,195.1,234.9z"/>
	<path class="st1" d="M117.4,237.3c-1.8,0-3.3,1.4-3.3,3.2c0,1.8,1.5,3.2,3.3,3.2c1.5,0,2.7-1,3.1-2.2l-3.1-0.9l3.1,0.9
		c0.1-0.3,0.2-0.6,0.2-0.9C120.7,238.8,119.2,237.3,117.4,237.3z"/>
	<path class="st1" d="M70.3,194.7c0,1.8,1.5,3.2,3.3,3.2s3.3-1.4,3.3-3.2c0-1.7-1.5-3.2-3.3-3.2c-0.4,0-0.8,0.1-1.2,0.2l1.2,1.5
		l-1.2-1.5C71.2,192.2,70.3,193.3,70.3,194.7z"/>
	<path class="st1" d="M85.2,263.1c0,1.8,1.5,3.2,3.3,3.2c1.8,0,3.3-1.4,3.3-3.2c0-1.7-1.5-3.2-3.3-3.2c-0.5,0-1,0.1-1.4,0.3l1.4,2.8
		l-1.4-2.8C85.9,260.8,85.2,261.9,85.2,263.1z"/>
	<path class="st1" d="M67.6,284.8c1.8,0,3.3-1.4,3.3-3.2c0-1.7-1.5-3.2-3.3-3.2c-1.1,0-2.1,0.5-2.7,1.4l2.7,1.8l-2.7-1.8
		c-0.4,0.5-0.6,1.1-0.6,1.8C64.3,283.4,65.8,284.8,67.6,284.8z"/>
	<path class="st1" d="M151.7,292.1c0-0.4-0.1-0.8-0.2-1.2l-1.9,0.5l1.9-0.5c-0.5-1.2-1.7-2-3-2c-0.4,0-0.7,0.1-1.1,0.2l1.1,3l-1.1-3
		c-1.3,0.4-2.2,1.6-2.2,3c0,1.8,1.5,3.2,3.3,3.2c0.7,0,1.4-0.2,1.9-0.6l-0.8-3.3l0.8,3.3C151.2,294.1,151.7,293.2,151.7,292.1z"/>
	<path class="st1" d="M114.3,351.4l2.4-2.1c-0.6-0.7-1.5-1.1-2.4-1.1c-0.7,0-1.4,0.2-2,0.6L114.3,351.4l-2-2.5
		c-0.8,0.6-1.3,1.5-1.3,2.5c0,1,0.5,1.8,1.2,2.4c1.8-0.8,3.6-1.7,5.4-2.5c0-0.8-0.3-1.4-0.8-2L114.3,351.4z"/>
	<path class="st1" d="M13.1,318l1.8-1.2L13.1,318c0.5,0.3,1.2,0.6,1.8,0.6c1.2,0,2.3-0.7,2.9-1.6l-2.8-1.5l2.8,1.5
		c0.3-0.5,0.4-1,0.4-1.5c0-1.8-1.5-3.2-3.3-3.2c-1.5,0-2.8,1-3.1,2.3l3.1,2.3l-3.1-2.3c-0.1,0.3-0.1,0.5-0.1,0.8
		C11.7,316.5,12.2,317.5,13.1,318z"/>
	<path class="st1" d="M3.2,324.3l-2.5-2.1c-0.2,0.2-0.3,0.4-0.4,0.7v2.8c0.5,1,1.6,1.8,2.9,1.8c0.7,0,1.3-0.2,1.9-0.6L3.2,324.3
		L3.2,324.3z"/>
	<path class="st1" d="M5.1,326.9c0.8-0.6,1.4-1.5,1.4-2.6c0-0.6-0.2-1.2-0.5-1.7l-2.7,1.7L5.1,326.9z"/>
	<path class="st1" d="M3.2,321.1c-1,0-1.9,0.4-2.5,1.1l2.5,2.1l0,0l0,0l0,0l2.7-1.7C5.4,321.7,4.4,321.1,3.2,321.1z"/>
	<path class="st1" d="M12.3,79c1.4,0,2.6-1.1,2.6-2.5c0-1.4-1.1-2.5-2.6-2.5c-0.9,0-1.7,0.5-2.2,1.2l2.2,1.3l-2.2-1.3
		c-0.2,0.4-0.4,0.8-0.4,1.3C9.7,77.9,10.9,79,12.3,79z"/>
	<path class="st1" d="M50.5,104.7c0-1.4-1.2-2.5-2.6-2.5s-2.5,1.1-2.5,2.5c0,1.1,0.7,2,1.6,2.3l0.9-2.3L47,107
		c0.3,0.1,0.6,0.2,0.9,0.2C49.3,107.2,50.5,106.1,50.5,104.7z"/>
	<path class="st1" d="M45.3,117.7c0-1.1-0.7-2-1.7-2.3l-0.9,2.3l0.9-2.3c-0.3-0.1-0.6-0.2-0.9-0.2c-0.1,0-0.2,0-0.2,0l0.4,4.9
		C44.3,120.1,45.3,119.1,45.3,117.7z"/>
	<path class="st1" d="M40.2,117.7c0,1.2,0.9,2.2,2,2.4l0.3-4.9C41.3,115.4,40.2,116.5,40.2,117.7z"/>
	<path class="st1" d="M42.9,120.2l-0.4-4.9c0,0,0,0,0,0l-0.3,4.9c0.2,0,0.3,0.1,0.5,0.1C42.8,120.2,42.9,120.2,42.9,120.2z"/>
	<path class="st1" d="M41,134.6c0-0.9-0.5-1.7-1.3-2.2l-0.1,0.1v4.3C40.5,136.4,41,135.6,41,134.6z"/>
	<path class="st1" d="M39.3,132.9l0.2-0.6c-0.3-0.1-0.7-0.2-1-0.2c-1.4,0-2.6,1.1-2.6,2.5c0,0.4,0.1,0.8,0.3,1.2l2.3-1.2l-2.3,1.2
		c0.4,0.8,1.3,1.3,2.3,1.3c0.4,0,0.8-0.1,1.2-0.3v-4.3L39.3,132.9z"/>
	<path class="st1" d="M39.6,132.5v-0.1c0,0-0.1,0-0.1-0.1l-0.2,0.6L39.6,132.5z"/>
	<path class="st1" d="M39.6,132.5L39.6,132.5c0-0.1,0-0.1,0-0.1V132.5z"/>
	<path class="st1" d="M23.3,139.9c-1.4,0-2.5,1.1-2.5,2.5c0,1.4,1.1,2.5,2.5,2.5c1.4,0,2.6-1.1,2.6-2.5c0-0.4-0.1-0.8-0.3-1.2
		l-2.3,1.2l2.3-1.2C25.1,140.5,24.2,139.9,23.3,139.9z"/>
	<path class="st1" d="M27.2,122.7c1.4,0,2.6-1.1,2.6-2.5c0-1.4-1.2-2.5-2.6-2.5c-0.8,0-1.5,0.4-2,0.9l2,1.5l-2-1.5
		c-0.4,0.4-0.6,1-0.6,1.5C24.6,121.6,25.8,122.7,27.2,122.7z"/>
	<path class="st1" d="M8.6,108.2c0.8,0,1.5-0.4,2-0.9l-2-1.5l2,1.5c0.4-0.4,0.6-1,0.6-1.5c0-1.4-1.2-2.5-2.6-2.5
		c-1.4,0-2.6,1.1-2.6,2.5C6,107.1,7.2,108.2,8.6,108.2z"/>
	<path class="st1" d="M42,85c0,1.4,1.2,2.5,2.6,2.5c1.4,0,2.6-1.1,2.6-2.5c0-1.4-1.1-2.5-2.5-2.5V85v-2.5c0,0,0,0,0,0
		C43.2,82.5,42,83.7,42,85z"/>
	<path class="st1" d="M42.8,74.5c0,1.1,0.8,2.1,1.8,2.4v-2.4v2.4c0.2,0.1,0.5,0.1,0.7,0.1c1.4,0,2.6-1.1,2.6-2.5
		c0-1.2-0.8-2.2-2-2.4l-1.3,2.4l1.3-2.4c-0.2,0-0.4-0.1-0.6-0.1C43.9,72,42.8,73.2,42.8,74.5z"/>
	<path class="st1" d="M109.1,77c1.4,0,2.6-1.1,2.6-2.5c0-1.4-1.1-2.5-2.6-2.5c-1.1,0-2.1,0.7-2.4,1.7l1.5,0.2l-1.5-0.2
		c-0.1,0.2-0.1,0.5-0.1,0.7C106.5,75.9,107.7,77,109.1,77z"/>
	<path class="st1" d="M136.5,86.2l0.2-2.5l-2.4,0.8C134.6,85.5,135.5,86.1,136.5,86.2z"/>
	<path class="st1" d="M136.7,83.8L136.7,83.8L136.7,83.8L136.7,83.8l-0.2,2.5c0.1,0,0.2,0,0.2,0c1.4,0,2.5-1.1,2.5-2.5
		c0-0.9-0.5-1.7-1.3-2.2L136.7,83.8l1.2-2.2c-0.4-0.2-0.8-0.3-1.2-0.3c-1.4,0-2.6,1.1-2.6,2.5c0,0.3,0.1,0.6,0.2,0.8L136.7,83.8
		L136.7,83.8z"/>
	<path class="st1" d="M120,103.2c0,0.4,0.1,0.8,0.3,1.1l2.3-1.1l-2.3,1.1c0.4,0.8,1.3,1.4,2.3,1.4c0.7,0,1.3-0.3,1.8-0.7l-1.8-1.8
		l1.8,1.8c0.5-0.4,0.8-1.1,0.8-1.8c0-1.4-1.2-2.5-2.6-2.5c-0.4,0-0.7,0.1-1,0.2l1,1.6l-1-1.6C120.6,101.3,120,102.2,120,103.2z"/>
	<path class="st1" d="M125.1,108.2c0,1.4,1.1,2.5,2.6,2.5c1.4,0,2.6-1.1,2.6-2.5c0-1.4-1.1-2.5-2.6-2.5c-0.7,0-1.3,0.3-1.8,0.7
		l1.8,1.8l-1.8-1.8C125.4,106.9,125.1,107.5,125.1,108.2z"/>
	<path class="st1" d="M112.3,105.7c-0.7,0-1.3,0.3-1.7,0.7l1.1,0.8l-1.1-0.8c-0.5,0.5-0.8,1.1-0.8,1.8c0,1.4,1.1,2.5,2.5,2.5
		c1.4,0,2.6-1.1,2.6-2.5c0-0.4-0.1-0.8-0.3-1.1l-2.3,1.1l2.3-1.1C114.1,106.3,113.3,105.7,112.3,105.7z"/>
	<path class="st1" d="M91,90.2c-1,0-1.9,0.6-2.3,1.4l2.3,1.1l-2.3-1.1c-0.2,0.3-0.3,0.7-0.3,1.1c0,1.4,1.2,2.5,2.6,2.5
		c1,0,1.8-0.5,2.3-1.3L91,92.2l2.3,1.6c0.2-0.3,0.3-0.7,0.3-1.1C93.6,91.3,92.4,90.2,91,90.2z"/>
	<path class="st1" d="M113.5,121c0,0.1,0,0.3,0,0.4c0,1.4,1.2,2.5,2.6,2.5c0.9,0,1.6-0.4,2.1-1.1l-2.1-2.6L113.5,121z"/>
	<path class="st1" d="M116.1,118.9c-1.3,0-2.3,0.9-2.5,2.1l2.5-0.8l2.1,2.6c0.3-0.4,0.5-0.9,0.5-1.4
		C118.6,120,117.5,118.9,116.1,118.9z"/>
	<path class="st1" d="M126.5,130.8c-0.6,0-1.1,0.2-1.6,0.5l1.6,1.9l-1.6-1.9c-0.6,0.5-1,1.2-1,1.9c0,1.4,1.2,2.5,2.6,2.5
		c0.7,0,1.4-0.3,1.9-0.8l-1.8-1.7l1.8,1.7c0.4-0.4,0.7-1,0.7-1.7C129.1,131.9,127.9,130.8,126.5,130.8z"/>
	<path class="st1" d="M169.3,165c-0.3,0.4-0.4,0.9-0.4,1.4c0,0.8,0.4,1.6,1.1,2l1.2-2.2L169.3,165z"/>
	<path class="st1" d="M173.9,166.4c0-1.4-1.2-2.5-2.6-2.5c-0.9,0-1.7,0.4-2.1,1.1l1.9,1.2l0.2-0.4l-0.2,0.4l0.2,0.1l-0.2-0.1
		l-1.2,2.2c0.4,0.3,0.9,0.4,1.5,0.4C172.8,168.9,173.9,167.8,173.9,166.4z"/>
	<path class="st1" d="M196.3,159.4c0-1.3-1-2.4-2.4-2.5c0.7,1.2,1.4,2.4,2.1,3.6C196.2,160.2,196.3,159.8,196.3,159.4z"/>
	<path class="st1" d="M191.8,157.8l2,1.6L191.8,157.8c-0.4,0.4-0.6,1-0.6,1.6c0,1.4,1.1,2.5,2.5,2.5c0.8,0,1.5-0.4,2-0.9l-2-1.6
		l2,1.6c0.1-0.1,0.2-0.3,0.3-0.4c-0.7-1.2-1.4-2.4-2.1-3.6c-0.1,0-0.1,0-0.2,0C193,156.9,192.3,157.2,191.8,157.8z"/>
	<path class="st1" d="M208.7,168.9c-0.8,0-1.5,0.4-2,0.9l2,1.6l-2-1.6c-0.4,0.4-0.6,1-0.6,1.6c0,1.4,1.1,2.5,2.6,2.5
		c0.7,0,1.4-0.3,1.9-0.8l-1.9-1.7l1.9,1.7c0.4-0.4,0.6-0.9,0.7-1.5c-0.1-0.4-0.1-0.8-0.2-1.1C210.6,169.5,209.7,168.9,208.7,168.9z"
		/>
	<path class="st1" d="M163.3,202.7c0,1.4,1.1,2.5,2.6,2.5c0.1,0,0.3,0,0.4,0l-0.4-2.4l0.4,2.4c1.2-0.2,2.1-1.2,2.1-2.4
		c0-1.4-1.1-2.5-2.5-2.5c-0.5,0-0.9,0.1-1.3,0.3l1.3,2.1l-1.3-2.1C163.8,201,163.3,201.8,163.3,202.7z"/>
	<path class="st1" d="M187.2,233.5c0-1.4-1.2-2.5-2.6-2.5c-1.4,0-2.6,1.1-2.6,2.5c0,0.9,0.5,1.7,1.2,2.1l1.3-2.1l-1.3,2.1
		c0.4,0.2,0.8,0.4,1.3,0.4c0.1,0,0.2,0,0.3,0l-0.3-2.5l0.3,2.5C186.2,235.8,187.2,234.8,187.2,233.5z"/>
	<path class="st1" d="M176.5,244.4c0,1.4,1.1,2.5,2.6,2.5c1.4,0,2.6-1.1,2.6-2.5c0-1.3-1-2.3-2.3-2.5l-1.1,1.8l1.1-1.8
		c-0.1,0-0.2,0-0.3,0C177.6,241.9,176.5,243,176.5,244.4z"/>
	<path class="st1" d="M200.9,224.3c-1.4,0-2.6,1.1-2.6,2.5c0,1.1,0.8,2.1,1.9,2.4l0.7-2.4l-0.7,2.4c0.2,0.1,0.4,0.1,0.7,0.1
		c1.4,0,2.6-1.1,2.6-2.5C203.4,225.4,202.3,224.3,200.9,224.3z"/>
	<path class="st1" d="M170.9,288.4c1.4,0,2.6-1.1,2.6-2.5c0-1.4-1.2-2.5-2.6-2.5s-2.6,1.1-2.6,2.5c0,0.2,0,0.4,0.1,0.6l2.5-0.6
		l-2.5,0.6C168.7,287.6,169.7,288.4,170.9,288.4z"/>
	<path class="st1" d="M147.3,281.6c0-1.4-1.1-2.5-2.5-2.5c-1.4,0-2.6,1.1-2.6,2.5c0,1.4,1.1,2.5,2.6,2.5c0.3,0,0.6-0.1,0.8-0.1
		l-0.8-2.3l0.8,2.3C146.5,283.6,147.3,282.7,147.3,281.6z"/>
	<path class="st1" d="M163.9,305.9c0,0.1,0,0.2,0,0.4c0,1.4,1.1,2.5,2.6,2.5c1.4,0,2.6-1.1,2.6-2.5c0-0.2,0-0.3,0-0.5l-2.5,0.5
		L163.9,305.9z"/>
	<path class="st1" d="M166.4,303.8c-1.3,0-2.3,0.9-2.5,2.1l2.5,0.4l2.5-0.5C168.7,304.7,167.7,303.8,166.4,303.8z"/>
	<path class="st1" d="M121.5,252.7l-1.5,2L121.5,252.7c-0.4-0.3-0.9-0.5-1.5-0.5c-1.4,0-2.6,1.1-2.6,2.5c0,1.4,1.2,2.5,2.6,2.5
		c0.9,0,1.6-0.4,2.1-1.1l-2.1-1.4l2.1,1.4c0.3-0.4,0.5-0.9,0.5-1.4C122.5,253.9,122.1,253.2,121.5,252.7z"/>
	<path class="st1" d="M130.7,243.7c0-1.4-1.1-2.5-2.6-2.5c-1.2,0-2.1,0.7-2.4,1.8l2.4,0.7l-1.5,2c0.4,0.3,0.9,0.5,1.5,0.5
		C129.6,246.2,130.7,245.1,130.7,243.7z"/>
	<path class="st1" d="M125.7,243c-0.1,0.2-0.1,0.5-0.1,0.7c0,0.8,0.4,1.6,1.1,2l1.5-2L125.7,243z"/>
	<path class="st1" d="M119.4,268.2c0,1.4,1.1,2.5,2.6,2.5c1.4,0,2.6-1.1,2.6-2.5c0-0.7-0.3-1.4-0.9-1.9l-1.7,1.9l1.7-1.9
		c-0.4-0.4-1-0.6-1.7-0.6C120.5,265.7,119.4,266.8,119.4,268.2z"/>
	<path class="st1" d="M126.6,259.2c-0.3,0.4-0.5,0.9-0.5,1.4c0,0.7,0.3,1.4,0.9,1.9l1.7-1.9L126.6,259.2z"/>
	<path class="st1" d="M128.7,258.2c-0.9,0-1.6,0.4-2.1,1.1l2.1,1.4l-1.7,1.9c0.4,0.4,1,0.6,1.7,0.6c1.4,0,2.5-1.1,2.5-2.5
		C131.2,259.3,130.1,258.2,128.7,258.2z"/>
	<path class="st1" d="M79,244.1c0.9-0.4,1.5-1.2,1.5-2.2c0-0.1,0-0.1,0-0.2l-2.5,0.2L79,244.1z"/>
	<path class="st1" d="M78.3,239.4l-0.4,2.4l2.5-0.2C80.4,240.5,79.5,239.6,78.3,239.4z"/>
	<path class="st1" d="M78.3,239.4c-0.1,0-0.3,0-0.4,0c-1.4,0-2.6,1.1-2.6,2.5c0,1.4,1.1,2.5,2.6,2.5c0.4,0,0.8-0.1,1.1-0.3l-1.1-2.2
		L78.3,239.4z"/>
	<path class="st1" d="M83,226.8c0-1.4-1.1-2.5-2.5-2.5c-1.4,0-2.6,1.1-2.6,2.5c0,1.2,0.9,2.2,2.1,2.4l0.4-2.4l-0.4,2.4
		c0.1,0,0.3,0,0.4,0C81.9,229.3,83,228.2,83,226.8z"/>
	<path class="st1" d="M56.4,239.1c1.4,0,2.6-1.1,2.6-2.5c0-1.4-1.1-2.5-2.6-2.5s-2.6,1.1-2.6,2.5c0,0.2,0,0.3,0.1,0.5l2.5-0.5
		l-2.5,0.5C54.2,238.3,55.2,239.1,56.4,239.1z"/>
	<path class="st1" d="M33.1,239.1c-0.8,0.4-1.3,1.2-1.3,2.1c0,0.3,0.1,0.5,0.1,0.7l2.4-0.7l-2.4,0.7c0.3,1,1.3,1.8,2.4,1.8
		c1.4,0,2.6-1.1,2.6-2.5c0-0.2,0-0.4-0.1-0.5l-2.5,0.5L33.1,239.1z"/>
	<path class="st1" d="M34.4,238.7c-0.5,0-0.9,0.1-1.3,0.3l1.3,2.1l2.5-0.5C36.7,239.6,35.6,238.7,34.4,238.7z"/>
	<path class="st1" d="M23.7,241.9c-1.4,0-2.6,1.1-2.6,2.5c0,0.1,0,0.2,0,0.3l2.5-0.3l-2.5,0.3c0.2,1.2,1.2,2.2,2.5,2.2
		c1.4,0,2.6-1.1,2.6-2.5c0-0.3-0.1-0.5-0.1-0.7l-2.4,0.7l2.4-0.7C25.8,242.6,24.9,241.9,23.7,241.9z"/>
	<path class="st1" d="M28.8,227.5c0-1.4-1.1-2.5-2.6-2.5c-0.1,0-0.2,0-0.3,0l0.3,2.5l-2.5-0.6c-0.1,0.2-0.1,0.4-0.1,0.6
		c0,1.4,1.1,2.5,2.6,2.5c0.5,0,0.9-0.1,1.3-0.3l-1.3-2.1l1.3,2.1C28.3,229.2,28.8,228.4,28.8,227.5z"/>
	<path class="st1" d="M26,225.1c-1.1,0.1-1.9,0.8-2.2,1.8l2.5,0.6L26,225.1z"/>
	<path class="st1" d="M16.6,222.6c-1.4,0-2.6,1.1-2.6,2.5s1.2,2.5,2.6,2.5c1.2,0,2.2-0.8,2.5-1.9l-2.5-0.6l2.5,0.6
		c0.1-0.2,0.1-0.4,0.1-0.6C19.1,223.7,18,222.6,16.6,222.6z"/>
	<path class="st1" d="M27.9,218.5c0-1.4-1.2-2.5-2.6-2.5c-1.4,0-2.6,1.1-2.6,2.5c0,1.4,1.2,2.5,2.6,2.5c0.1,0,0.2,0,0.3,0l-0.3-2.5
		l0.3,2.5C26.9,220.9,27.9,219.8,27.9,218.5z"/>
	<path class="st1" d="M8.1,248.3c0.4,0.2,0.8,0.4,1.3,0.4c1.4,0,2.6-1.1,2.6-2.5c0-0.1,0-0.2,0-0.3l-2.5,0.3L8.1,248.3z"/>
	<path class="st1" d="M9.5,243.7c-1.4,0-2.6,1.1-2.6,2.5c0,0.9,0.5,1.7,1.2,2.1l1.4-2.1l2.5-0.3C11.8,244.6,10.8,243.7,9.5,243.7z"
		/>
	<path class="st1" d="M1.8,254.1c0,1.4,1.2,2.5,2.6,2.5c0,0,0.1,0,0.1,0l-0.1-2.5l0.1,2.5c1.4-0.1,2.5-1.1,2.5-2.5
		c0-0.9-0.5-1.7-1.2-2.1l-1.4,2.1l1.4-2.1c-0.4-0.2-0.9-0.4-1.3-0.4C3,251.6,1.8,252.7,1.8,254.1z"/>
	<path class="st1" d="M28.8,274.9L28.8,274.9L28.8,274.9c-1.4,0-2.6,1.1-2.6,2.5s1.2,2.5,2.6,2.5c1.4,0,2.6-1.1,2.6-2.5
		c0-0.4-0.1-0.8-0.3-1.2l-2.2,1.2l2.2-1.2C30.7,275.5,29.8,274.9,28.8,274.9z"/>
	<path class="st1" d="M31.4,268.2c0-1.4-1.2-2.5-2.6-2.5c-1.4,0-2.6,1.1-2.6,2.5c0,1.4,1.2,2.5,2.6,2.5v-2.5v2.5
		C30.3,270.6,31.4,269.5,31.4,268.2z"/>
	<path class="st1" d="M2.7,274.9c0,1.4,1.2,2.5,2.6,2.5c0.5,0,0.9-0.1,1.3-0.4l-1.3-2.1l1.3,2.1c0.7-0.4,1.2-1.2,1.2-2.1
		c0-1.4-1.2-2.5-2.6-2.5c0,0-0.1,0-0.1,0l0.1,2.5l-0.1-2.5C3.8,272.5,2.7,273.6,2.7,274.9z"/>
	<path class="st1" d="M6.9,281.6c0,1.4,1.1,2.5,2.6,2.5c0.6,0,1.2-0.2,1.6-0.6l-1.6-1.9l1.6,1.9c0.6-0.5,1-1.1,1-1.9
		c0-1.4-1.1-2.5-2.6-2.5c-0.5,0-0.9,0.1-1.3,0.4l1.3,2.1l-1.3-2.1C7.4,280,6.9,280.7,6.9,281.6z"/>
	<path class="st1" d="M15.6,292.1c0,1.4,1.1,2.5,2.6,2.5c0.5,0,1-0.1,1.4-0.4l-1.4-2.1l1.4,2.1c0.7-0.4,1.2-1.2,1.2-2.1
		c0-1.4-1.1-2.5-2.6-2.5c-0.6,0-1.2,0.2-1.6,0.6l1.6,1.9l-1.6-1.9C16,290.6,15.6,291.3,15.6,292.1z"/>
	<path class="st1" d="M22.1,303.3c0,1.4,1.1,2.5,2.5,2.5c1.4,0,2.6-1.1,2.6-2.5c0-1.4-1.1-2.5-2.6-2.5c-0.2,0-0.4,0-0.7,0.1l1.9,2.9
		l-1.9-2.9C22.9,301.2,22.1,302.2,22.1,303.3z"/>
	<path class="st1" d="M108.2,340.2c0-1.4-1.2-2.5-2.6-2.5c-1.4,0-2.6,1.1-2.6,2.5c0,1.4,1.2,2.5,2.6,2.5c0.6,0,1.1-0.2,1.5-0.5
		l-1.5-2l1.5,2C107.8,341.7,108.2,341,108.2,340.2z"/>
	<path class="st1" d="M143.8,331.6c-1.4,0-2.6,1.1-2.6,2.5c0,0.2,0,0.4,0.1,0.6l2.5-0.6l-2.5,0.6c0.2,0.6,0.6,1.1,1.1,1.4
		c1.3-0.9,2.6-1.9,3.8-2.8C146,332.4,145,331.6,143.8,331.6z"/>
	<path class="st1" d="M0.3,197.9v0.3h0.3C0.5,198.1,0.4,198,0.3,197.9z"/>
	<path class="st1" d="M0.3,202C0.3,202,0.3,201.9,0.3,202L0.3,202L0.3,202z"/>
	<path class="st1" d="M0.3,201.9L0.3,201.9c0.6-0.4,1.1-1.2,1.1-2c0-0.7-0.3-1.3-0.7-1.7H0.3V201.9z"/>
	<path class="st1" d="M32.3,187.9l0.9-1.7l-0.2,0.9c0.3-0.4,0.4-0.8,0.4-1.3c0-1.3-1.1-2.4-2.4-2.5l0.4,4.9
		C31.7,188.2,32,188.1,32.3,187.9z"/>
	<path class="st1" d="M29.6,188c0.2,0.1,0.5,0.2,0.8,0.3l0.3-4.9c-1.3,0.1-2.4,1.1-2.4,2.5c0,0.6,0.2,1.1,0.5,1.5l-0.2-1.1L29.6,188
		z"/>
	<path class="st1" d="M30.9,188.3c0.2,0,0.4,0,0.5-0.1l-0.4-4.9c-0.1,0-0.1,0-0.2,0c-0.1,0-0.1,0-0.2,0l-0.3,4.9
		C30.5,188.3,30.7,188.3,30.9,188.3z"/>
	<path class="st1" d="M32.3,187.9c0.3-0.2,0.6-0.4,0.7-0.7l0.2-0.9L32.3,187.9z"/>
	<path class="st1" d="M29.6,188l-1-1.7l0.2,1.1C29,187.6,29.3,187.8,29.6,188z"/>
	<path class="st1" d="M37.7,182.1c-1.4,0-2.6,1.1-2.6,2.5c0,1.4,1.2,2.5,2.6,2.5c0.8,0,1.5-0.4,2-0.9V183
		C39.2,182.4,38.5,182.1,37.7,182.1z"/>
	<path class="st1" d="M39.6,183v3.2c0.4-0.4,0.6-1,0.6-1.6C40.2,184,40,183.4,39.6,183z"/>
	<path class="st1" d="M37.5,163.9c0,1.2,0.9,2.3,2.2,2.4v-4.9C38.4,161.7,37.5,162.7,37.5,163.9z"/>
	<path class="st1" d="M42.1,165.3l-2.1-1.4L42.1,165.3c0.3-0.4,0.5-0.9,0.5-1.4c0-1.4-1.1-2.5-2.6-2.5c-0.1,0-0.3,0-0.4,0v4.9
		c0.1,0,0.3,0,0.4,0C40.9,166.4,41.6,166,42.1,165.3z"/>
	<path class="st1" d="M16.6,150.5c0,1.4,1.1,2.5,2.5,2.5c1.4,0,2.6-1.1,2.6-2.5c0-1.4-1.1-2.5-2.6-2.5
		C17.7,148.1,16.6,149.2,16.6,150.5z"/>
	<path class="st1" d="M53.8,175.8c0.8,0,1.5-0.3,1.9-0.9l-1.9-1.6l1.9,1.6c0.4-0.4,0.6-1,0.6-1.6c0-1.4-1.1-2.5-2.6-2.5
		c-0.9,0-1.6,0.4-2.1,1l2.1,1.4l-2.1-1.4c-0.3,0.4-0.5,0.9-0.5,1.4C51.2,174.7,52.3,175.8,53.8,175.8z"/>
	<path class="st1" d="M65.9,183.3L65.9,183.3L65.9,183.3L65.9,183.3l-2,1.5c0.5,0.6,1.2,1,2,1c0.6,0,1.1-0.2,1.5-0.5L65.9,183.3
		L65.9,183.3L65.9,183.3L65.9,183.3L65.9,183.3l1.3-2.2c-0.4-0.2-0.8-0.3-1.3-0.3c-0.8,0-1.5,0.3-1.9,0.9L65.9,183.3L65.9,183.3z"/>
	<path class="st1" d="M63.9,184.9l2-1.5l-1.9-1.6c-0.4,0.4-0.6,1-0.6,1.6C63.4,183.9,63.6,184.4,63.9,184.9z"/>
	<path class="st1" d="M67.5,185.3c0.6-0.5,1-1.2,1-2c0-0.9-0.5-1.7-1.3-2.2l-1.2,2.2L67.5,185.3z"/>
	<path class="st1" d="M75.4,171.4c0-0.4-0.1-0.8-0.3-1.1l-2.3,1.1l2.3-1.1c-0.4-0.8-1.3-1.4-2.3-1.4c-1.4,0-2.6,1.1-2.6,2.5
		c0,0.9,0.5,1.7,1.3,2.2l1.2-2.2l-1.2,2.2c0.4,0.2,0.8,0.3,1.2,0.3C74.3,173.8,75.4,172.7,75.4,171.4z"/>
	<path class="st1" d="M85.6,167.9c1.4,0,2.6-1.1,2.6-2.5c0-1.4-1.1-2.5-2.6-2.5c-1.4,0-2.6,1.1-2.6,2.5c0,0.4,0.1,0.7,0.3,1.1
		l2.3-1.1l-2.3,1.1C83.7,167.3,84.6,167.9,85.6,167.9z"/>
	<path class="st1" d="M52.5,190.8c-1.4,0-2.6,1.1-2.6,2.5c0,1.4,1.1,2.5,2.6,2.5c1.4,0,2.6-1.1,2.6-2.5c0-0.5-0.2-1-0.5-1.4
		l-0.9,0.7l0.9-0.7C54.2,191.2,53.4,190.8,52.5,190.8z"/>
	<path class="st1" d="M17.5,65.4c0.9,0,1.6-0.7,1.6-1.6c0-0.2,0-0.4-0.1-0.6l-1.5,0.6l1.5-0.6c-0.2-0.6-0.8-1-1.5-1
		c-0.7,0-1.3,0.4-1.5,1l1.5,0.6L16,63.3c-0.1,0.2-0.1,0.4-0.1,0.6C15.9,64.7,16.6,65.4,17.5,65.4z"/>
	<path class="st1" d="M29.2,60.8c0.9,0,1.6-0.7,1.6-1.6s-0.7-1.6-1.6-1.6c-0.9,0-1.6,0.7-1.6,1.6c0,0.2,0,0.4,0.1,0.6l1.5-0.6
		l-1.5,0.6C28,60.4,28.6,60.8,29.2,60.8z"/>
	<path class="st1" d="M61.1,59.2c0.6,0,1.2-0.3,1.4-0.8l-1.4-0.7l1.4,0.7c0.1-0.2,0.2-0.5,0.2-0.7c0-0.9-0.7-1.6-1.6-1.6
		s-1.6,0.7-1.6,1.6c0,0.3,0.1,0.6,0.2,0.8l1.4-0.8l-1.4,0.8C60,58.9,60.5,59.2,61.1,59.2z"/>
	<path class="st1" d="M52.1,63.8c0-0.3-0.1-0.6-0.2-0.8l-1.4,0.8l1.4-0.8c-0.3-0.5-0.8-0.8-1.4-0.8c-0.9,0-1.6,0.7-1.6,1.6
		c0,0.6,0.4,1.1,0.9,1.4l0.8-1.4l-0.8,1.4c0.2,0.1,0.5,0.2,0.8,0.2C51.3,65.4,52.1,64.7,52.1,63.8z"/>
	<path class="st1" d="M89.4,73.6c0.9,0,1.6-0.7,1.6-1.6c0,0,0,0,0,0h-1.6h0h0L88,71.3c-0.1,0.2-0.2,0.5-0.2,0.7
		C87.8,72.9,88.5,73.6,89.4,73.6z"/>
	<path class="st1" d="M91,72c0-0.9-0.7-1.6-1.6-1.6c-0.6,0-1.2,0.3-1.4,0.8l1.4,0.7H91z"/>
	<path class="st1" d="M95.5,73.6c0.8,0,1.5-0.6,1.6-1.3L95.5,72l1.6,0.2c0-0.1,0-0.2,0-0.2c0-0.9-0.7-1.6-1.6-1.6
		c-0.9,0-1.6,0.7-1.6,1.6h1.6h-1.6c0,0,0,0,0,0C93.8,72.9,94.6,73.6,95.5,73.6z"/>
	<path class="st1" d="M112.3,47.6c-0.9,0-1.6,0.7-1.6,1.6c0,0.9,0.7,1.6,1.6,1.6s1.6-0.7,1.6-1.6c0-0.1,0-0.1,0-0.2l-1.6,0.2
		l1.6-0.2C113.8,48.2,113.1,47.6,112.3,47.6z"/>
	<path class="st1" d="M70.6,84c0.1,0.7,0.8,1.3,1.6,1.3c0.6,0,1.2-0.4,1.4-0.9l-1.5-0.7L70.6,84z"/>
	<path class="st1" d="M72.2,82.2c-0.9,0-1.6,0.7-1.6,1.6c0,0.1,0,0.2,0,0.2l1.6-0.2l1.5,0.7c0.1-0.2,0.2-0.4,0.2-0.7
		C73.8,82.9,73.1,82.2,72.2,82.2z"/>
	<path class="st1" d="M65.8,83.4c-0.9,0-1.6,0.7-1.6,1.6c0,0,0,0,0,0l3.1-0.5C67.2,83.9,66.6,83.4,65.8,83.4z"/>
	<path class="st1" d="M65.8,86.6c0.9,0,1.6-0.7,1.6-1.6c0-0.2,0-0.3-0.1-0.5L64.2,85C64.2,85.9,65,86.6,65.8,86.6z"/>
	<path class="st1" d="M134.3,92.2c0,0.9,0.7,1.6,1.6,1.6c0.9,0,1.6-0.7,1.6-1.6c0-0.8-0.6-1.5-1.5-1.6l-0.2,1.6l0.2-1.6
		c-0.1,0-0.1,0-0.2,0C135,90.6,134.3,91.3,134.3,92.2z"/>
	<path class="st1" d="M142.5,76.5c0-0.9-0.7-1.6-1.6-1.6c-0.9,0-1.6,0.7-1.6,1.6c0,0.6,0.3,1.1,0.8,1.4l0.8-1.4l-0.8,1.4
		c0.2,0.1,0.5,0.2,0.8,0.2C141.8,78.1,142.5,77.3,142.5,76.5z"/>
	<path class="st1" d="M115.4,89.5c-0.9,0-1.6,0.7-1.6,1.6c0,0.9,0.7,1.6,1.6,1.6c0.3,0,0.6-0.1,0.8-0.2l-0.8-1.3l0.8,1.3
		c0.5-0.3,0.8-0.8,0.8-1.3c0-0.2,0-0.4-0.1-0.5l-1.5,0.5l1.5-0.5C116.7,90,116.1,89.5,115.4,89.5z"/>
	<path class="st1" d="M121.6,111.3c0.9,0,1.6-0.7,1.6-1.6c0-0.9-0.7-1.6-1.6-1.6c-0.9,0-1.6,0.7-1.6,1.6
		C120,110.6,120.7,111.3,121.6,111.3z"/>
	<path class="st1" d="M157.1,134.1c-0.4,0-0.7,0.1-1,0.4l1,1.2l-1-1.2c-0.4,0.3-0.6,0.7-0.6,1.2c0,0.9,0.7,1.6,1.6,1.6
		c0.8,0,1.4-0.5,1.6-1.2l-0.8-0.4l0.8,0.4c0-0.1,0-0.2,0-0.4C158.8,134.8,158,134.1,157.1,134.1z"/>
	<path class="st1" d="M149.6,125c0-0.9-0.7-1.6-1.6-1.6c-0.9,0-1.6,0.7-1.6,1.6c0,0.9,0.7,1.6,1.6,1.6c0.4,0,0.8-0.1,1-0.4l-1-1.2
		l1,1.2C149.4,125.9,149.6,125.5,149.6,125z"/>
	<path class="st1" d="M172.3,140.3c-0.7,0-1.2,0.4-1.5,0.9l1.5,0.6l-1.5-0.6c-0.1,0.2-0.1,0.4-0.1,0.6c0,0.9,0.7,1.6,1.6,1.6
		c0.5,0,0.9-0.2,1.2-0.6l-1.2-1l1.2,1c0.2-0.3,0.4-0.6,0.4-1C173.9,141,173.2,140.3,172.3,140.3z"/>
	<path class="st1" d="M173.9,199.4c0.8,0,1.4-0.5,1.6-1.2h-3.1C172.5,198.9,173.2,199.4,173.9,199.4z"/>
	<path class="st1" d="M173.9,196.3c-0.9,0-1.6,0.7-1.6,1.6c0,0.1,0,0.3,0.1,0.4h3.1c0-0.1,0-0.2,0-0.4
		C175.6,197,174.8,196.3,173.9,196.3z"/>
	<path class="st1" d="M178.2,220.4c0.9,0,1.6-0.7,1.6-1.6c0-0.9-0.7-1.6-1.6-1.6c-0.9,0-1.6,0.7-1.6,1.6
		C176.6,219.7,177.3,220.4,178.2,220.4z"/>
	<path class="st1" d="M206,224.7c-0.9,0-1.6,0.7-1.6,1.6c0,0.9,0.7,1.6,1.6,1.6c0.9,0,1.6-0.7,1.6-1.6
		C207.6,225.5,206.9,224.7,206,224.7z"/>
	<path class="st1" d="M186.1,244.9c-0.1,0-0.1,0-0.2,0l0.2,1.6l-0.2-1.6c-0.8,0.1-1.5,0.7-1.5,1.6c0,0.9,0.7,1.6,1.6,1.6
		s1.6-0.7,1.6-1.6C187.7,245.6,186.9,244.9,186.1,244.9z"/>
	<path class="st1" d="M150.5,302.2c0,1.1,0.9,2,2.1,2l-0.9-3.9C151,300.7,150.5,301.4,150.5,302.2z"/>
	<path class="st1" d="M154.7,302.2c0-1.1-0.9-2-2.1-2c-0.3,0-0.6,0.1-0.9,0.2l0.9,3.9c0,0,0,0,0,0
		C153.8,304.2,154.7,303.3,154.7,302.2z"/>
	<path class="st1" d="M93.4,240.5c0,0,0,0.1,0,0.1l1.6-0.1l-1.6,0.1c0.1,0.8,0.8,1.4,1.6,1.4c0.9,0,1.6-0.7,1.6-1.6
		c0-0.9-0.7-1.6-1.6-1.6v1.6v-1.6C94.1,238.9,93.4,239.6,93.4,240.5z"/>
	<path class="st1" d="M96.6,225.5c0-0.9-0.7-1.6-1.6-1.6c-0.9,0-1.6,0.7-1.6,1.6c0,0.9,0.7,1.6,1.6,1.6v0v0
		C95.9,227.1,96.6,226.4,96.6,225.5z"/>
	<path class="st1" d="M123.4,174.9c0.9,0,1.6-0.7,1.6-1.6c0-0.9-0.7-1.6-1.6-1.6c-0.9,0-1.6,0.7-1.6,1.6
		C121.7,174.2,122.5,174.9,123.4,174.9z"/>
	<path class="st1" d="M72.8,140.9c0.9,0,1.6-0.7,1.6-1.6c0-0.9-0.7-1.6-1.6-1.6c-0.9,0-1.6,0.7-1.6,1.6
		C71.2,140.2,71.9,140.9,72.8,140.9z"/>
	<path class="st1" d="M73.5,135.7c0.9,0,1.6-0.7,1.6-1.6c0-0.9-0.7-1.6-1.6-1.6c-0.9,0-1.6,0.7-1.6,1.6
		C71.9,135,72.7,135.7,73.5,135.7z"/>
	<path class="st1" d="M68,137.1c0,0.9,0.7,1.6,1.6,1.6c0.9,0,1.6-0.7,1.6-1.6c0-0.9-0.7-1.6-1.6-1.6C68.7,135.5,68,136.2,68,137.1z"
		/>
	<path class="st1" d="M66.4,134.8c0.9,0,1.6-0.7,1.6-1.6c0-0.9-0.7-1.6-1.6-1.6c-0.9,0-1.6,0.7-1.6,1.6
		C64.7,134.1,65.5,134.8,66.4,134.8z"/>
	<path class="st1" d="M68.9,128.9c-0.9,0-1.6,0.7-1.6,1.6c0,0.9,0.7,1.6,1.6,1.6s1.6-0.7,1.6-1.6C70.6,129.6,69.8,128.9,68.9,128.9z
		"/>
	<path class="st1" d="M68.5,127.6c0.9,0,1.6-0.7,1.6-1.6c0-0.9-0.7-1.6-1.6-1.6c-0.9,0-1.6,0.7-1.6,1.6
		C66.9,126.9,67.6,127.6,68.5,127.6z"/>
	<path class="st1" d="M14,214.2c0.9,0,1.6-0.7,1.6-1.6c0-0.9-0.7-1.6-1.6-1.6c-0.5,0-1,0.2-1.3,0.6l1.3,1l-1.3-1
		c-0.2,0.3-0.4,0.6-0.4,1C12.4,213.5,13.1,214.2,14,214.2z"/>
	<path class="st1" d="M16,344.1c0,0.9,0.7,1.6,1.6,1.6c0.2,0,0.4,0,0.5-0.1l-0.5-1.5l-0.9-1.3C16.3,343.1,16,343.6,16,344.1z"/>
	<path class="st1" d="M18.1,345.6c0.6-0.2,1.1-0.8,1.1-1.4l-1.6-1.6l1.6,1.6c0,0,0,0,0-0.1c0-0.9-0.7-1.6-1.6-1.6
		c-0.3,0-0.7,0.1-0.9,0.3l0.9,1.3L18.1,345.6z"/>
	<path class="st1" d="M27,353.6c0,0.9,0.7,1.6,1.6,1.6c0.9,0,1.6-0.7,1.6-1.6c0-0.9-0.7-1.6-1.6-1.6c-0.4,0-0.8,0.2-1.1,0.4l1.1,1.1
		l-1.1-1.1C27.2,352.8,27,353.2,27,353.6z"/>
	<path class="st1" d="M21,358.4c0,0.9,0.7,1.6,1.6,1.6s1.6-0.7,1.6-1.6c0-0.9-0.7-1.6-1.6-1.6c-0.2,0-0.4,0-0.5,0.1l0.5,1.5
		l-0.5-1.5C21.5,357.1,21,357.7,21,358.4z"/>
	<path class="st1" d="M37.4,329c0.9,0,1.6-0.7,1.6-1.6c0-0.9-0.7-1.6-1.6-1.6c-0.6,0-1.1,0.3-1.4,0.8l1.4,0.8l-1.4-0.8
		c-0.1,0.2-0.2,0.5-0.2,0.8C35.8,328.3,36.5,329,37.4,329z"/>
	<path class="st1" d="M47,333.3c-0.9,0-1.6,0.7-1.6,1.6c0,0.9,0.7,1.6,1.6,1.6c0.9,0,1.6-0.7,1.6-1.6C48.6,334,47.9,333.3,47,333.3z
		"/>
	<path class="st1" d="M51.2,273.1c0.6,0,1.1-0.3,1.4-0.8l-1.4-0.8l1.4,0.8c0.1-0.2,0.2-0.5,0.2-0.8c0-0.9-0.7-1.6-1.6-1.6
		c-0.9,0-1.6,0.7-1.6,1.6h1.6h-1.6c0,0,0,0,0,0C49.6,272.4,50.3,273.1,51.2,273.1z"/>
	<path class="st1" d="M59,277.5c0.6,0,1-0.3,1.3-0.7l-1.3-0.9l1.3,0.9c0.2-0.3,0.3-0.6,0.3-0.9c0-0.9-0.7-1.6-1.6-1.6
		c-0.6,0-1.1,0.3-1.4,0.8l1.4,0.8l-1.4-0.8c-0.1,0.2-0.2,0.5-0.2,0.8C57.4,276.8,58.1,277.5,59,277.5z"/>
	<path class="st1" d="M148.5,255c-0.9,0-1.6,0.7-1.6,1.6c0,0.9,0.7,1.6,1.6,1.6c0.9,0,1.6-0.7,1.6-1.6
		C150.1,255.7,149.4,255,148.5,255z"/>
	<path class="st1" d="M148.9,250.1c0,0.7,0.4,1.2,1,1.5l0.6-1.5l-0.6,1.5c0.2,0.1,0.4,0.1,0.6,0.1c0.9,0,1.6-0.7,1.6-1.6
		c0-0.5-0.3-1-0.7-1.3l-1,1.3l1-1.3c-0.3-0.2-0.6-0.3-1-0.3C149.6,248.6,148.9,249.3,148.9,250.1z"/>
	<path class="st1" d="M40,271.6L40,271.6l-0.4-0.8v1L40,271.6l-0.4,0.2v1.3c0.1,0,0.3,0.1,0.4,0.1c0.9,0,1.6-0.7,1.6-1.6
		c0,0,0,0,0,0H40L40,271.6z"/>
	<path class="st1" d="M40,271.6h1.6c0-0.9-0.7-1.6-1.6-1.6c-0.1,0-0.3,0-0.4,0.1v0.8L40,271.6z"/>
	<path class="st1" d="M39.6,270.8V270c-0.1,0-0.2,0.1-0.3,0.1L39.6,270.8z"/>
	<path class="st1" d="M39.6,270.8l-0.3-0.6c-0.5,0.3-0.9,0.8-0.9,1.4c0,0.3,0.1,0.5,0.2,0.7l1-0.5V270.8z"/>
	<path class="st1" d="M38.6,272.3c0.2,0.4,0.6,0.7,1,0.8v-1.3L38.6,272.3z"/>
</g>
</svg>
