<svg width="452" height="376" viewBox="0 0 452 376" fill="none" xmlns="http://www.w3.org/2000/svg">
<rect width="326.229" height="182.574" transform="matrix(-1 0 0 1 340.583 2.03711)" fill="url(#paint0_linear_114_65)"/>
<g filter="url(#filter0_d_114_65)">
<path d="M13.0433 299.462L16.6091 285.587C16.8355 284.706 18.0869 284.705 18.3137 285.586V285.586C18.5336 286.441 19.7339 286.476 20.0038 285.636L22.8901 276.654C23.5112 274.722 26.2681 274.787 26.7973 276.747L30.1917 289.318C30.6946 291.181 33.2642 291.367 34.0294 289.595L49.3451 254.146C50.0644 252.481 52.4372 252.515 53.1085 254.2L55.8019 260.96C56.4755 262.65 58.8586 262.677 59.5702 261.002L61.2371 257.08C61.8101 255.731 63.7716 255.894 64.114 257.319L64.5099 258.966C64.726 259.865 65.9633 259.968 66.3259 259.118V259.118C66.6822 258.282 67.8919 258.363 68.1339 259.239L73.1036 277.218C73.5317 278.767 75.6944 278.857 76.2496 277.349L76.7887 275.884C77.0853 275.079 78.201 275.017 78.5843 275.785V275.785C78.9947 276.607 80.2092 276.463 80.4153 275.568L93.2832 219.647C93.7821 217.479 96.8987 217.565 97.2769 219.758L98.1866 225.031C98.595 227.399 102.048 227.232 102.227 224.836L102.569 220.253C102.756 217.745 106.429 217.734 106.632 220.24L108.095 238.367C108.284 240.718 111.65 240.922 112.122 238.611L118.957 205.134C119.395 202.987 122.45 202.951 122.939 205.087L123.08 205.7C123.583 207.898 126.756 207.771 127.082 205.54L131.949 172.271C132.277 170.031 135.466 169.916 135.955 172.126L137.689 179.971C138.173 182.162 141.326 182.075 141.689 179.86L146.132 152.756C146.501 150.502 149.732 150.47 150.146 152.716L154.965 178.851C155.363 181.009 158.424 181.099 158.948 178.968L162.514 164.457C163.018 162.405 165.927 162.382 166.464 164.426L167.203 167.241C167.761 169.366 170.824 169.224 171.184 167.057L175.536 140.833C175.907 138.597 179.103 138.546 179.544 140.77L185.7 171.788C186.141 174.008 189.331 173.962 189.708 171.731L194.828 141.403C195.061 140.018 197.103 140.189 197.103 141.594V141.594C197.103 143.01 199.167 143.167 199.381 141.767L201.819 125.824L202.542 121.695C202.925 119.51 206.029 119.423 206.533 121.583L211.635 143.427C212.108 145.454 214.957 145.551 215.567 143.561L222.751 120.135L222.899 119.489C223.366 117.442 226.25 117.355 226.84 119.37L230.632 132.302C231.151 134.073 233.569 134.297 234.404 132.651L248.823 104.238C249.567 102.773 251.649 102.745 252.432 104.19L257.003 112.632C257.797 114.097 259.918 114.042 260.635 112.537L277.959 76.1596C278.654 74.7011 280.688 74.5923 281.534 75.9684L282.143 76.9577C283.026 78.3942 285.172 78.1972 285.779 76.6239L287.699 71.6491C288.411 69.8055 291.066 69.9522 291.57 71.863L293.505 79.1952C294.032 81.1966 296.862 81.2272 297.433 79.2376L303.495 58.1199C303.913 56.6624 305.945 56.5744 306.488 57.9902V57.9902C306.976 59.2624 308.737 59.3617 309.365 58.1523L317.896 41.7115C318.665 40.2296 320.792 40.2506 321.532 41.7474L329.277 57.4231C330.037 58.9624 332.244 58.9288 332.957 57.3671L341.4 38.8818" stroke="#64CE9B" stroke-width="2.03766"/>
</g>
<path d="M159.258 369.642C158.476 369.642 157.785 369.458 157.186 369.091C156.599 368.712 156.14 368.174 155.81 367.478C155.48 366.769 155.315 365.943 155.315 365.002C155.315 364.036 155.48 363.211 155.81 362.526C156.14 361.841 156.599 361.31 157.186 360.931C157.785 360.552 158.476 360.362 159.258 360.362C160.04 360.362 160.713 360.558 161.275 360.949C161.85 361.328 162.235 361.841 162.431 362.489H162.229V357.355C162.229 357.049 162.308 356.817 162.467 356.658C162.626 356.499 162.852 356.419 163.146 356.419C163.439 356.419 163.665 356.499 163.824 356.658C163.996 356.817 164.081 357.049 164.081 357.355V368.67C164.081 368.963 164.002 369.195 163.843 369.367C163.684 369.525 163.458 369.605 163.164 369.605C162.871 369.605 162.645 369.525 162.486 369.367C162.327 369.195 162.247 368.963 162.247 368.67V367.056L162.449 367.459C162.253 368.119 161.868 368.651 161.294 369.055C160.731 369.446 160.053 369.642 159.258 369.642ZM159.735 368.211C160.236 368.211 160.676 368.089 161.055 367.844C161.434 367.6 161.728 367.239 161.936 366.762C162.156 366.286 162.266 365.699 162.266 365.002C162.266 363.95 162.033 363.156 161.569 362.618C161.104 362.08 160.493 361.811 159.735 361.811C159.221 361.811 158.775 361.933 158.396 362.178C158.017 362.41 157.718 362.765 157.497 363.241C157.29 363.718 157.186 364.305 157.186 365.002C157.186 366.041 157.418 366.836 157.883 367.386C158.347 367.936 158.965 368.211 159.735 368.211ZM169.543 369.642C168.919 369.642 168.357 369.519 167.856 369.275C167.367 369.03 166.982 368.7 166.7 368.285C166.419 367.869 166.279 367.398 166.279 366.872C166.279 366.212 166.444 365.693 166.774 365.314C167.116 364.922 167.672 364.647 168.443 364.488C169.225 364.317 170.276 364.232 171.597 364.232H172.459V365.369H171.615C170.735 365.369 170.038 365.411 169.525 365.497C169.011 365.583 168.644 365.729 168.424 365.937C168.216 366.133 168.112 366.408 168.112 366.762C168.112 367.227 168.271 367.606 168.589 367.899C168.907 368.181 169.347 368.321 169.91 368.321C170.362 368.321 170.759 368.217 171.102 368.009C171.444 367.789 171.713 367.496 171.909 367.129C172.116 366.762 172.22 366.341 172.22 365.864V363.755C172.22 363.058 172.074 362.557 171.78 362.251C171.487 361.945 171.004 361.793 170.331 361.793C169.94 361.793 169.531 361.841 169.103 361.939C168.687 362.037 168.253 362.202 167.801 362.434C167.593 362.532 167.416 362.563 167.269 362.526C167.122 362.489 167.006 362.41 166.92 362.288C166.835 362.153 166.786 362.013 166.774 361.866C166.774 361.707 166.81 361.554 166.884 361.407C166.969 361.261 167.11 361.151 167.306 361.077C167.843 360.821 168.375 360.637 168.901 360.527C169.427 360.417 169.922 360.362 170.386 360.362C171.206 360.362 171.878 360.49 172.404 360.747C172.942 361.004 173.339 361.395 173.596 361.921C173.853 362.447 173.981 363.125 173.981 363.957V368.67C173.981 368.963 173.908 369.195 173.761 369.367C173.614 369.525 173.4 369.605 173.119 369.605C172.85 369.605 172.636 369.525 172.477 369.367C172.318 369.195 172.239 368.963 172.239 368.67V367.478H172.404C172.306 367.93 172.123 368.321 171.854 368.651C171.597 368.969 171.273 369.214 170.882 369.385C170.49 369.556 170.044 369.642 169.543 369.642ZM178.551 372.906C178.331 372.906 178.148 372.845 178.001 372.723C177.867 372.613 177.787 372.46 177.763 372.264C177.751 372.081 177.787 371.879 177.873 371.659L179.12 368.853V369.642L175.691 361.664C175.605 361.444 175.574 361.236 175.599 361.041C175.623 360.845 175.715 360.692 175.874 360.582C176.033 360.46 176.247 360.399 176.516 360.399C176.748 360.399 176.931 360.454 177.066 360.564C177.2 360.674 177.323 360.863 177.433 361.132L180.202 367.973H179.688L182.494 361.132C182.604 360.851 182.733 360.662 182.879 360.564C183.026 360.454 183.228 360.399 183.485 360.399C183.705 360.399 183.876 360.46 183.998 360.582C184.133 360.692 184.212 360.845 184.236 361.041C184.273 361.224 184.243 361.426 184.145 361.646L179.56 372.191C179.438 372.472 179.297 372.661 179.138 372.759C178.992 372.857 178.796 372.906 178.551 372.906ZM194.803 369.642C194.119 369.642 193.422 369.55 192.713 369.367C192.004 369.171 191.386 368.884 190.861 368.505C190.665 368.382 190.53 368.236 190.457 368.064C190.396 367.881 190.384 367.716 190.42 367.569C190.457 367.41 190.53 367.276 190.64 367.166C190.763 367.056 190.909 366.995 191.081 366.982C191.252 366.958 191.441 367.007 191.649 367.129C192.175 367.447 192.688 367.679 193.19 367.826C193.691 367.961 194.21 368.028 194.748 368.028C195.335 368.028 195.83 367.942 196.234 367.771C196.637 367.6 196.937 367.349 197.132 367.019C197.34 366.689 197.444 366.292 197.444 365.827C197.444 365.13 197.212 364.611 196.747 364.268C196.295 363.914 195.635 363.736 194.767 363.736H193.52C193.239 363.736 193.025 363.669 192.878 363.535C192.731 363.388 192.658 363.186 192.658 362.93C192.658 362.685 192.731 362.496 192.878 362.361C193.025 362.214 193.239 362.141 193.52 362.141H194.583C195.109 362.141 195.555 362.055 195.922 361.884C196.289 361.701 196.57 361.45 196.766 361.132C196.974 360.802 197.077 360.405 197.077 359.94C197.077 359.317 196.87 358.84 196.454 358.51C196.05 358.168 195.458 357.996 194.675 357.996C194.174 357.996 193.697 358.064 193.245 358.198C192.804 358.333 192.346 358.571 191.869 358.913C191.686 359.036 191.509 359.091 191.337 359.078C191.178 359.054 191.038 358.993 190.916 358.895C190.806 358.785 190.726 358.65 190.677 358.492C190.64 358.333 190.653 358.168 190.714 357.996C190.775 357.825 190.897 357.679 191.081 357.556C191.594 357.177 192.175 356.89 192.823 356.694C193.471 356.486 194.137 356.383 194.822 356.383C195.678 356.383 196.411 356.517 197.022 356.786C197.646 357.055 198.117 357.44 198.435 357.941C198.765 358.443 198.93 359.042 198.93 359.739C198.93 360.264 198.832 360.741 198.636 361.169C198.441 361.597 198.159 361.964 197.793 362.269C197.438 362.563 197.004 362.771 196.491 362.893V362.691C197.383 362.838 198.074 363.205 198.563 363.791C199.052 364.366 199.296 365.087 199.296 365.955C199.296 366.713 199.113 367.374 198.746 367.936C198.392 368.486 197.878 368.908 197.206 369.201C196.533 369.495 195.733 369.642 194.803 369.642Z" fill="white"/>
<path d="M178.589 141.006L178.589 139.987L176.551 139.987L176.551 141.006L178.589 141.006ZM176.551 144.127C176.551 144.69 177.008 145.146 177.57 145.146C178.133 145.146 178.589 144.69 178.589 144.127L176.551 144.127ZM178.589 150.369C178.589 149.806 178.133 149.35 177.57 149.35C177.008 149.35 176.551 149.806 176.551 150.369L178.589 150.369ZM176.551 156.611C176.551 157.174 177.008 157.63 177.57 157.63C178.133 157.63 178.589 157.174 178.589 156.611L176.551 156.611ZM178.589 162.853C178.589 162.29 178.133 161.834 177.57 161.834C177.008 161.834 176.551 162.29 176.551 162.853L178.589 162.853ZM176.551 169.095C176.551 169.658 177.008 170.114 177.57 170.114C178.133 170.114 178.589 169.658 178.589 169.095L176.551 169.095ZM178.589 175.337C178.589 174.774 178.133 174.318 177.57 174.318C177.008 174.318 176.551 174.774 176.551 175.337L178.589 175.337ZM176.551 181.579C176.551 182.142 177.008 182.598 177.57 182.598C178.133 182.598 178.589 182.142 178.589 181.579L176.551 181.579ZM178.589 187.821C178.589 187.258 178.133 186.802 177.57 186.802C177.008 186.802 176.551 187.258 176.551 187.821L178.589 187.821ZM176.551 194.063C176.551 194.626 177.008 195.082 177.57 195.082C178.133 195.082 178.589 194.626 178.589 194.063L176.551 194.063ZM178.589 200.305C178.589 199.742 178.133 199.286 177.57 199.286C177.008 199.286 176.551 199.742 176.551 200.305L178.589 200.305ZM176.551 206.547C176.551 207.11 177.008 207.566 177.57 207.566C178.133 207.566 178.589 207.11 178.589 206.547L176.551 206.547ZM178.589 212.789C178.589 212.226 178.133 211.77 177.57 211.77C177.008 211.77 176.551 212.226 176.551 212.789L178.589 212.789ZM176.551 219.031C176.551 219.594 177.008 220.05 177.57 220.05C178.133 220.05 178.589 219.594 178.589 219.031L176.551 219.031ZM178.589 225.273C178.589 224.71 178.133 224.254 177.57 224.254C177.008 224.254 176.551 224.71 176.551 225.273L178.589 225.273ZM176.551 231.515C176.551 232.078 177.008 232.534 177.57 232.534C178.133 232.534 178.589 232.078 178.589 231.515L176.551 231.515ZM178.589 237.757C178.589 237.195 178.133 236.738 177.57 236.738C177.008 236.738 176.551 237.195 176.551 237.757L178.589 237.757ZM176.551 243.999C176.551 244.562 177.008 245.018 177.57 245.018C178.133 245.018 178.589 244.562 178.589 243.999L176.551 243.999ZM178.589 250.241C178.589 249.679 178.133 249.222 177.57 249.222C177.008 249.222 176.551 249.679 176.551 250.241L178.589 250.241ZM176.551 256.483C176.551 257.046 177.008 257.502 177.57 257.502C178.133 257.502 178.589 257.046 178.589 256.483L176.551 256.483ZM178.589 262.725C178.589 262.163 178.133 261.706 177.57 261.706C177.008 261.706 176.551 262.163 176.551 262.725L178.589 262.725ZM176.551 268.967C176.551 269.53 177.008 269.986 177.57 269.986C178.133 269.986 178.589 269.53 178.589 268.967L176.551 268.967ZM178.589 275.209C178.589 274.647 178.133 274.19 177.57 274.19C177.008 274.19 176.551 274.647 176.551 275.209L178.589 275.209ZM176.551 281.451C176.551 282.014 177.008 282.47 177.57 282.47C178.133 282.47 178.589 282.014 178.589 281.451L176.551 281.451ZM178.589 287.693C178.589 287.131 178.133 286.675 177.57 286.675C177.008 286.675 176.551 287.131 176.551 287.693L178.589 287.693ZM176.551 293.935C176.551 294.498 177.008 294.954 177.57 294.954C178.133 294.954 178.589 294.498 178.589 293.935L176.551 293.935ZM178.589 300.177C178.589 299.615 178.133 299.159 177.57 299.159C177.008 299.159 176.551 299.615 176.551 300.177L178.589 300.177ZM176.551 306.419C176.551 306.982 177.008 307.438 177.57 307.438C178.133 307.438 178.589 306.982 178.589 306.419L176.551 306.419ZM178.589 312.661C178.589 312.099 178.133 311.643 177.57 311.643C177.008 311.643 176.551 312.099 176.551 312.661L178.589 312.661ZM176.551 318.903C176.551 319.466 177.008 319.922 177.57 319.922C178.133 319.922 178.589 319.466 178.589 318.903L176.551 318.903ZM178.589 325.145C178.589 324.583 178.133 324.127 177.57 324.127C177.008 324.127 176.551 324.583 176.551 325.145L178.589 325.145ZM176.551 141.006L176.551 144.127L178.589 144.127L178.589 141.006L176.551 141.006ZM176.551 150.369L176.551 156.611L178.589 156.611L178.589 150.369L176.551 150.369ZM176.551 162.853L176.551 169.095L178.589 169.095L178.589 162.853L176.551 162.853ZM176.551 175.337L176.551 181.579L178.589 181.579L178.589 175.337L176.551 175.337ZM176.551 187.821L176.551 194.063L178.589 194.063L178.589 187.821L176.551 187.821ZM176.551 200.305L176.551 206.547L178.589 206.547L178.589 200.305L176.551 200.305ZM176.551 212.789L176.551 219.031L178.589 219.031L178.589 212.789L176.551 212.789ZM176.551 225.273L176.551 231.515L178.589 231.515L178.589 225.273L176.551 225.273ZM176.551 237.757L176.551 243.999L178.589 243.999L178.589 237.757L176.551 237.757ZM176.551 250.241L176.551 256.483L178.589 256.483L178.589 250.241L176.551 250.241ZM176.551 262.725L176.551 268.967L178.589 268.967L178.589 262.725L176.551 262.725ZM176.551 275.209L176.551 281.451L178.589 281.451L178.589 275.209L176.551 275.209ZM176.551 287.693L176.551 293.935L178.589 293.935L178.589 287.693L176.551 287.693ZM176.551 300.177L176.551 306.419L178.589 306.419L178.589 300.177L176.551 300.177ZM176.551 312.661L176.551 318.903L178.589 318.903L178.589 312.661L176.551 312.661ZM176.551 325.145L176.551 328.267L178.589 328.267L178.589 325.145L176.551 325.145Z" fill="#D9D9D9" fill-opacity="0.23"/>
<path d="M372.353 298.452C372.132 298.452 371.949 298.379 371.802 298.232C371.668 298.085 371.601 297.908 371.601 297.7V295.958L371.967 296.307C371.112 296.294 370.341 296.184 369.657 295.976C368.972 295.756 368.397 295.494 367.933 295.188C367.762 295.078 367.639 294.937 367.566 294.766C367.493 294.595 367.468 294.424 367.493 294.253C367.529 294.081 367.603 293.935 367.713 293.812C367.823 293.69 367.957 293.617 368.116 293.592C368.275 293.568 368.459 293.617 368.666 293.739C369.045 293.984 369.516 294.204 370.079 294.399C370.653 294.595 371.35 294.693 372.169 294.693C372.829 294.693 373.367 294.607 373.783 294.436C374.211 294.265 374.523 294.033 374.718 293.739C374.926 293.446 375.03 293.103 375.03 292.712C375.03 292.394 374.957 292.119 374.81 291.887C374.675 291.655 374.449 291.459 374.131 291.3C373.814 291.129 373.392 290.988 372.866 290.878L370.977 290.475C369.865 290.23 369.033 289.827 368.483 289.264C367.945 288.702 367.676 287.962 367.676 287.045C367.676 286.324 367.847 285.682 368.19 285.12C368.544 284.557 369.033 284.111 369.657 283.781C370.292 283.451 371.032 283.261 371.876 283.213L371.601 283.469V281.8C371.601 281.593 371.668 281.415 371.802 281.269C371.949 281.122 372.132 281.049 372.353 281.049C372.56 281.049 372.738 281.122 372.884 281.269C373.031 281.415 373.104 281.593 373.104 281.8V283.469L372.793 283.213C373.355 283.225 373.954 283.341 374.59 283.561C375.226 283.769 375.77 284.068 376.222 284.46C376.369 284.582 376.46 284.722 376.497 284.881C376.546 285.04 376.546 285.193 376.497 285.34C376.46 285.487 376.387 285.609 376.277 285.707C376.167 285.804 376.026 285.859 375.855 285.872C375.684 285.884 375.501 285.823 375.305 285.688C374.914 285.419 374.48 285.205 374.003 285.046C373.538 284.888 372.982 284.808 372.334 284.808C371.478 284.808 370.8 285.01 370.299 285.413C369.797 285.817 369.547 286.342 369.547 286.99C369.547 287.479 369.7 287.877 370.005 288.182C370.311 288.476 370.824 288.702 371.546 288.861L373.471 289.264C374.645 289.521 375.513 289.918 376.075 290.456C376.638 290.994 376.919 291.71 376.919 292.602C376.919 293.299 376.742 293.916 376.387 294.454C376.033 294.98 375.544 295.402 374.92 295.72C374.309 296.025 373.6 296.215 372.793 296.288L373.104 295.94V297.7C373.104 297.908 373.031 298.085 372.884 298.232C372.75 298.379 372.573 298.452 372.353 298.452ZM387.047 296.38C386.509 296.38 385.947 296.288 385.36 296.105C384.785 295.909 384.26 295.622 383.783 295.243C383.624 295.133 383.52 294.998 383.471 294.839C383.434 294.668 383.434 294.509 383.471 294.363C383.508 294.204 383.581 294.069 383.691 293.959C383.801 293.837 383.936 293.77 384.095 293.757C384.266 293.733 384.443 293.782 384.626 293.904C385.042 294.21 385.452 294.43 385.855 294.564C386.271 294.699 386.68 294.766 387.084 294.766C387.842 294.766 388.484 294.583 389.009 294.216C389.535 293.849 389.932 293.299 390.201 292.565C390.47 291.832 390.605 290.921 390.605 289.833V288.274H390.807C390.721 288.922 390.513 289.491 390.183 289.98C389.865 290.469 389.45 290.842 388.936 291.098C388.423 291.355 387.854 291.483 387.231 291.483C386.485 291.483 385.818 291.306 385.232 290.952C384.645 290.597 384.186 290.108 383.856 289.484C383.526 288.861 383.361 288.158 383.361 287.375C383.361 286.544 383.538 285.811 383.893 285.175C384.247 284.527 384.736 284.026 385.36 283.671C385.996 283.304 386.723 283.121 387.542 283.121C388.594 283.121 389.48 283.371 390.201 283.873C390.923 284.362 391.473 285.083 391.852 286.037C392.243 286.99 392.439 288.133 392.439 289.466C392.439 290.579 392.317 291.563 392.072 292.419C391.828 293.275 391.473 293.996 391.008 294.583C390.544 295.17 389.975 295.616 389.303 295.921C388.643 296.227 387.891 296.38 387.047 296.38ZM387.671 289.925C388.16 289.925 388.594 289.815 388.973 289.594C389.352 289.374 389.645 289.063 389.853 288.659C390.073 288.256 390.183 287.797 390.183 287.284C390.183 286.758 390.073 286.3 389.853 285.908C389.645 285.505 389.352 285.193 388.973 284.973C388.594 284.753 388.16 284.643 387.671 284.643C387.169 284.643 386.729 284.753 386.35 284.973C385.984 285.193 385.69 285.505 385.47 285.908C385.262 286.3 385.158 286.758 385.158 287.284C385.158 287.797 385.262 288.256 385.47 288.659C385.69 289.063 385.984 289.374 386.35 289.594C386.729 289.815 387.169 289.925 387.671 289.925ZM399.199 296.38C398.526 296.38 397.848 296.288 397.163 296.105C396.478 295.909 395.855 295.61 395.293 295.206C395.109 295.096 394.987 294.956 394.926 294.784C394.865 294.613 394.852 294.448 394.889 294.289C394.926 294.118 394.999 293.977 395.109 293.867C395.231 293.757 395.378 293.696 395.549 293.684C395.72 293.66 395.904 293.709 396.099 293.831C396.576 294.136 397.065 294.369 397.567 294.528C398.08 294.687 398.612 294.766 399.162 294.766C399.724 294.766 400.207 294.662 400.611 294.454C401.014 294.246 401.32 293.959 401.528 293.592C401.748 293.213 401.858 292.773 401.858 292.272C401.858 291.502 401.632 290.872 401.179 290.383C400.727 289.894 400.097 289.65 399.29 289.65C398.826 289.65 398.392 289.735 397.988 289.906C397.585 290.065 397.2 290.334 396.833 290.713C396.747 290.811 396.631 290.903 396.485 290.988C396.35 291.062 396.197 291.098 396.026 291.098C395.769 291.098 395.574 291.031 395.439 290.897C395.305 290.762 395.238 290.579 395.238 290.346V284.129C395.238 283.861 395.311 283.653 395.458 283.506C395.604 283.359 395.812 283.286 396.081 283.286H402.225C402.494 283.286 402.701 283.353 402.848 283.488C402.995 283.622 403.068 283.818 403.068 284.074C403.068 284.331 402.995 284.533 402.848 284.68C402.701 284.814 402.494 284.881 402.225 284.881H397.09V289.539H396.576C396.906 289.075 397.34 288.714 397.878 288.457C398.428 288.201 399.034 288.072 399.694 288.072C400.513 288.072 401.222 288.244 401.821 288.586C402.42 288.928 402.885 289.411 403.215 290.035C403.545 290.646 403.71 291.361 403.71 292.18C403.71 293.012 403.527 293.745 403.16 294.381C402.793 295.004 402.274 295.494 401.601 295.848C400.929 296.203 400.128 296.38 399.199 296.38ZM409.993 296.38C408.489 296.38 407.34 295.811 406.545 294.674C405.763 293.525 405.372 291.881 405.372 289.741C405.372 288.286 405.549 287.07 405.904 286.092C406.258 285.114 406.778 284.374 407.462 283.873C408.147 283.371 408.991 283.121 409.993 283.121C411.509 283.121 412.658 283.683 413.441 284.808C414.223 285.921 414.615 287.559 414.615 289.723C414.615 291.153 414.437 292.364 414.083 293.354C413.728 294.344 413.209 295.096 412.524 295.61C411.839 296.123 410.996 296.38 409.993 296.38ZM409.993 294.803C410.935 294.803 411.625 294.393 412.065 293.574C412.518 292.743 412.744 291.459 412.744 289.723C412.744 287.975 412.518 286.703 412.065 285.908C411.625 285.101 410.935 284.698 409.993 284.698C409.064 284.698 408.373 285.101 407.921 285.908C407.469 286.703 407.242 287.975 407.242 289.723C407.242 291.459 407.469 292.743 407.921 293.574C408.373 294.393 409.064 294.803 409.993 294.803ZM371.105 313.38C370.568 313.38 370.011 313.319 369.437 313.197C368.874 313.074 368.355 312.866 367.878 312.573C367.719 312.463 367.609 312.341 367.548 312.206C367.487 312.072 367.462 311.937 367.474 311.803C367.499 311.656 367.554 311.534 367.639 311.436C367.737 311.326 367.853 311.259 367.988 311.234C368.135 311.21 368.287 311.24 368.446 311.326C368.923 311.595 369.382 311.784 369.822 311.894C370.262 311.992 370.696 312.041 371.124 312.041C371.772 312.041 372.261 311.925 372.591 311.693C372.921 311.46 373.086 311.149 373.086 310.757C373.086 310.44 372.976 310.195 372.756 310.024C372.536 309.84 372.206 309.7 371.766 309.602L370.024 309.254C369.265 309.095 368.691 308.814 368.3 308.41C367.908 308.007 367.713 307.493 367.713 306.87C367.713 306.307 367.866 305.818 368.171 305.402C368.477 304.987 368.905 304.669 369.455 304.449C370.005 304.217 370.641 304.1 371.362 304.1C371.9 304.1 372.408 304.168 372.884 304.302C373.361 304.437 373.801 304.638 374.205 304.907C374.364 304.993 374.468 305.109 374.517 305.256C374.565 305.39 374.572 305.525 374.535 305.659C374.51 305.794 374.449 305.916 374.351 306.026C374.254 306.124 374.131 306.185 373.985 306.209C373.85 306.222 373.697 306.185 373.526 306.099C373.159 305.867 372.793 305.702 372.426 305.604C372.071 305.506 371.717 305.457 371.362 305.457C370.714 305.457 370.225 305.58 369.895 305.824C369.577 306.057 369.418 306.374 369.418 306.778C369.418 307.084 369.516 307.334 369.712 307.53C369.907 307.725 370.213 307.866 370.629 307.952L372.371 308.3C373.166 308.459 373.765 308.728 374.168 309.107C374.584 309.486 374.792 309.999 374.792 310.647C374.792 311.491 374.455 312.157 373.783 312.646C373.111 313.135 372.218 313.38 371.105 313.38ZM380.577 313.38C379.844 313.38 379.226 313.252 378.725 312.995C378.224 312.738 377.851 312.359 377.606 311.858C377.362 311.357 377.24 310.745 377.24 310.024V305.696H376.139C375.895 305.696 375.705 305.635 375.571 305.512C375.436 305.378 375.369 305.201 375.369 304.981C375.369 304.748 375.436 304.571 375.571 304.449C375.705 304.327 375.895 304.265 376.139 304.265H377.24V302.377C377.24 302.071 377.319 301.839 377.478 301.68C377.649 301.521 377.882 301.441 378.175 301.441C378.468 301.441 378.695 301.521 378.854 301.68C379.012 301.839 379.092 302.071 379.092 302.377V304.265H381.238C381.482 304.265 381.672 304.327 381.806 304.449C381.941 304.571 382.008 304.748 382.008 304.981C382.008 305.201 381.941 305.378 381.806 305.512C381.672 305.635 381.482 305.696 381.238 305.696H379.092V309.877C379.092 310.525 379.226 311.014 379.495 311.344C379.777 311.674 380.229 311.839 380.852 311.839C381.073 311.839 381.262 311.821 381.421 311.784C381.592 311.736 381.733 311.705 381.843 311.693C381.977 311.693 382.087 311.742 382.173 311.839C382.258 311.925 382.301 312.096 382.301 312.353C382.301 312.536 382.265 312.707 382.191 312.866C382.13 313.025 382.014 313.129 381.843 313.178C381.696 313.227 381.494 313.27 381.238 313.307C380.993 313.355 380.773 313.38 380.577 313.38ZM386.322 313.38C385.698 313.38 385.136 313.258 384.635 313.013C384.146 312.769 383.76 312.438 383.479 312.023C383.198 311.607 383.057 311.136 383.057 310.611C383.057 309.951 383.223 309.431 383.553 309.052C383.895 308.661 384.451 308.386 385.221 308.227C386.004 308.055 387.055 307.97 388.376 307.97H389.238V309.107H388.394C387.514 309.107 386.817 309.15 386.303 309.235C385.79 309.321 385.423 309.468 385.203 309.675C384.995 309.871 384.891 310.146 384.891 310.501C384.891 310.965 385.05 311.344 385.368 311.638C385.686 311.919 386.126 312.059 386.689 312.059C387.141 312.059 387.538 311.956 387.881 311.748C388.223 311.528 388.492 311.234 388.688 310.867C388.895 310.501 388.999 310.079 388.999 309.602V307.493C388.999 306.796 388.853 306.295 388.559 305.989C388.266 305.684 387.783 305.531 387.11 305.531C386.719 305.531 386.31 305.58 385.882 305.678C385.466 305.775 385.032 305.94 384.58 306.173C384.372 306.271 384.194 306.301 384.048 306.264C383.901 306.228 383.785 306.148 383.699 306.026C383.614 305.892 383.565 305.751 383.553 305.604C383.553 305.445 383.589 305.292 383.663 305.146C383.748 304.999 383.889 304.889 384.084 304.816C384.622 304.559 385.154 304.375 385.68 304.265C386.206 304.155 386.701 304.1 387.165 304.1C387.985 304.1 388.657 304.229 389.183 304.486C389.721 304.742 390.118 305.133 390.375 305.659C390.631 306.185 390.76 306.863 390.76 307.695V312.408C390.76 312.701 390.686 312.934 390.54 313.105C390.393 313.264 390.179 313.343 389.898 313.343C389.629 313.343 389.415 313.264 389.256 313.105C389.097 312.934 389.018 312.701 389.018 312.408V311.216H389.183C389.085 311.668 388.901 312.059 388.632 312.39C388.376 312.707 388.052 312.952 387.661 313.123C387.269 313.294 386.823 313.38 386.322 313.38ZM394.246 313.343C393.941 313.343 393.708 313.264 393.549 313.105C393.39 312.934 393.311 312.701 393.311 312.408V305.072C393.311 304.767 393.39 304.534 393.549 304.375C393.708 304.217 393.928 304.137 394.21 304.137C394.503 304.137 394.723 304.217 394.87 304.375C395.029 304.534 395.108 304.767 395.108 305.072V306.411H394.925C395.12 305.678 395.481 305.121 396.007 304.742C396.532 304.363 397.205 304.143 398.024 304.082C398.244 304.07 398.415 304.125 398.538 304.247C398.672 304.369 398.745 304.559 398.758 304.816C398.782 305.072 398.727 305.28 398.593 305.439C398.458 305.586 398.25 305.671 397.969 305.696L397.621 305.733C396.826 305.806 396.221 306.057 395.805 306.484C395.389 306.912 395.181 307.499 395.181 308.245V312.408C395.181 312.701 395.102 312.934 394.943 313.105C394.796 313.264 394.564 313.343 394.246 313.343ZM404.468 313.38C403.735 313.38 403.117 313.252 402.616 312.995C402.115 312.738 401.742 312.359 401.497 311.858C401.253 311.357 401.13 310.745 401.13 310.024V305.696H400.03C399.786 305.696 399.596 305.635 399.462 305.512C399.327 305.378 399.26 305.201 399.26 304.981C399.26 304.748 399.327 304.571 399.462 304.449C399.596 304.327 399.786 304.265 400.03 304.265H401.13V302.377C401.13 302.071 401.21 301.839 401.369 301.68C401.54 301.521 401.772 301.441 402.066 301.441C402.359 301.441 402.585 301.521 402.744 301.68C402.903 301.839 402.983 302.071 402.983 302.377V304.265H405.128C405.373 304.265 405.562 304.327 405.697 304.449C405.831 304.571 405.899 304.748 405.899 304.981C405.899 305.201 405.831 305.378 405.697 305.512C405.562 305.635 405.373 305.696 405.128 305.696H402.983V309.877C402.983 310.525 403.117 311.014 403.386 311.344C403.667 311.674 404.12 311.839 404.743 311.839C404.963 311.839 405.153 311.821 405.312 311.784C405.483 311.736 405.623 311.705 405.734 311.693C405.868 311.693 405.978 311.742 406.064 311.839C406.149 311.925 406.192 312.096 406.192 312.353C406.192 312.536 406.155 312.707 406.082 312.866C406.021 313.025 405.905 313.129 405.734 313.178C405.587 313.227 405.385 313.27 405.128 313.307C404.884 313.355 404.664 313.38 404.468 313.38ZM413.104 316.644C412.811 316.644 412.584 316.565 412.426 316.406C412.267 316.247 412.187 316.015 412.187 315.709V305.072C412.187 304.767 412.267 304.534 412.426 304.375C412.584 304.217 412.805 304.137 413.086 304.137C413.379 304.137 413.605 304.217 413.764 304.375C413.923 304.534 414.003 304.767 414.003 305.072V306.668L413.801 306.283C413.997 305.623 414.382 305.097 414.956 304.706C415.531 304.302 416.209 304.1 416.992 304.1C417.787 304.1 418.477 304.29 419.064 304.669C419.663 305.048 420.122 305.58 420.44 306.264C420.77 306.949 420.935 307.774 420.935 308.74C420.935 309.682 420.77 310.507 420.44 311.216C420.122 311.913 419.669 312.451 419.083 312.83C418.496 313.197 417.799 313.38 416.992 313.38C416.222 313.38 415.549 313.184 414.975 312.793C414.4 312.402 414.015 311.882 413.819 311.234H414.039V315.709C414.039 316.015 413.954 316.247 413.783 316.406C413.624 316.565 413.397 316.644 413.104 316.644ZM416.533 311.949C417.047 311.949 417.493 311.827 417.872 311.583C418.251 311.338 418.545 310.977 418.752 310.501C418.96 310.024 419.064 309.437 419.064 308.74C419.064 307.689 418.832 306.894 418.367 306.356C417.915 305.818 417.304 305.549 416.533 305.549C416.032 305.549 415.586 305.671 415.195 305.916C414.816 306.148 414.522 306.503 414.314 306.98C414.107 307.456 414.003 308.043 414.003 308.74C414.003 309.779 414.235 310.574 414.7 311.124C415.164 311.674 415.775 311.949 416.533 311.949ZM423.957 313.343C423.652 313.343 423.419 313.264 423.261 313.105C423.102 312.934 423.022 312.701 423.022 312.408V305.072C423.022 304.767 423.102 304.534 423.261 304.375C423.419 304.217 423.64 304.137 423.921 304.137C424.214 304.137 424.434 304.217 424.581 304.375C424.74 304.534 424.819 304.767 424.819 305.072V306.411H424.636C424.832 305.678 425.192 305.121 425.718 304.742C426.244 304.363 426.916 304.143 427.735 304.082C427.955 304.07 428.126 304.125 428.249 304.247C428.383 304.369 428.457 304.559 428.469 304.816C428.493 305.072 428.438 305.28 428.304 305.439C428.169 305.586 427.961 305.671 427.68 305.696L427.332 305.733C426.537 305.806 425.932 306.057 425.516 306.484C425.101 306.912 424.893 307.499 424.893 308.245V312.408C424.893 312.701 424.813 312.934 424.654 313.105C424.508 313.264 424.275 313.343 423.957 313.343ZM430.78 313.325C430.487 313.325 430.261 313.239 430.102 313.068C429.943 312.885 429.863 312.634 429.863 312.316V305.164C429.863 304.846 429.943 304.602 430.102 304.431C430.261 304.259 430.487 304.174 430.78 304.174C431.074 304.174 431.3 304.259 431.459 304.431C431.63 304.602 431.716 304.846 431.716 305.164V312.316C431.716 312.634 431.636 312.885 431.477 313.068C431.318 313.239 431.086 313.325 430.78 313.325ZM430.78 302.267C430.414 302.267 430.126 302.175 429.918 301.991C429.723 301.808 429.625 301.551 429.625 301.221C429.625 300.879 429.723 300.622 429.918 300.451C430.126 300.268 430.414 300.176 430.78 300.176C431.147 300.176 431.428 300.268 431.624 300.451C431.832 300.622 431.936 300.879 431.936 301.221C431.936 301.551 431.832 301.808 431.624 301.991C431.428 302.175 431.147 302.267 430.78 302.267ZM438.266 313.38C437.349 313.38 436.554 313.19 435.882 312.811C435.221 312.42 434.708 311.876 434.341 311.179C433.974 310.47 433.791 309.639 433.791 308.685C433.791 307.976 433.895 307.34 434.103 306.778C434.311 306.203 434.604 305.72 434.983 305.329C435.374 304.938 435.845 304.638 436.395 304.431C436.957 304.21 437.581 304.1 438.266 304.1C438.694 304.1 439.14 304.168 439.604 304.302C440.081 304.424 440.521 304.632 440.925 304.926C441.084 305.023 441.181 305.146 441.218 305.292C441.267 305.427 441.273 305.568 441.237 305.714C441.212 305.861 441.145 305.989 441.035 306.099C440.937 306.197 440.815 306.258 440.668 306.283C440.521 306.295 440.362 306.252 440.191 306.154C439.898 305.947 439.598 305.8 439.293 305.714C438.987 305.616 438.694 305.568 438.412 305.568C437.972 305.568 437.581 305.641 437.239 305.788C436.909 305.922 436.627 306.124 436.395 306.393C436.163 306.65 435.985 306.974 435.863 307.365C435.753 307.756 435.698 308.202 435.698 308.703C435.698 309.706 435.93 310.495 436.395 311.069C436.872 311.632 437.544 311.913 438.412 311.913C438.694 311.913 438.987 311.87 439.293 311.784C439.598 311.699 439.898 311.552 440.191 311.344C440.362 311.246 440.521 311.21 440.668 311.234C440.815 311.259 440.931 311.326 441.016 311.436C441.114 311.534 441.175 311.656 441.2 311.803C441.237 311.937 441.23 312.078 441.181 312.225C441.133 312.371 441.029 312.494 440.87 312.591C440.479 312.873 440.051 313.074 439.586 313.197C439.134 313.319 438.694 313.38 438.266 313.38ZM446.904 313.38C445.926 313.38 445.082 313.197 444.373 312.83C443.676 312.451 443.132 311.919 442.741 311.234C442.362 310.537 442.172 309.712 442.172 308.758C442.172 307.829 442.362 307.016 442.741 306.319C443.12 305.623 443.639 305.078 444.3 304.687C444.96 304.296 445.712 304.1 446.555 304.1C447.179 304.1 447.735 304.204 448.224 304.412C448.713 304.608 449.129 304.901 449.471 305.292C449.826 305.671 450.089 306.136 450.26 306.686C450.443 307.236 450.535 307.854 450.535 308.538C450.535 308.746 450.474 308.905 450.352 309.015C450.229 309.113 450.046 309.162 449.801 309.162H443.639V308.025H449.288L448.976 308.282C448.976 307.67 448.884 307.151 448.701 306.723C448.53 306.295 448.267 305.971 447.912 305.751C447.57 305.519 447.142 305.402 446.629 305.402C446.054 305.402 445.565 305.537 445.162 305.806C444.77 306.075 444.471 306.448 444.263 306.925C444.055 307.401 443.951 307.958 443.951 308.593V308.703C443.951 309.779 444.202 310.592 444.703 311.143C445.217 311.68 445.956 311.949 446.922 311.949C447.289 311.949 447.674 311.901 448.077 311.803C448.493 311.705 448.884 311.54 449.251 311.308C449.459 311.185 449.642 311.13 449.801 311.143C449.973 311.155 450.107 311.21 450.205 311.308C450.315 311.405 450.382 311.528 450.407 311.674C450.431 311.821 450.407 311.974 450.333 312.133C450.26 312.28 450.131 312.414 449.948 312.536C449.532 312.818 449.049 313.031 448.499 313.178C447.949 313.313 447.417 313.38 446.904 313.38Z" fill="white"/>
<path d="M372.353 192.901C372.132 192.901 371.949 192.828 371.802 192.681C371.668 192.535 371.601 192.357 371.601 192.15V190.407L371.967 190.756C371.112 190.744 370.341 190.633 369.657 190.426C368.972 190.206 368.397 189.943 367.933 189.637C367.762 189.527 367.639 189.386 367.566 189.215C367.493 189.044 367.468 188.873 367.493 188.702C367.529 188.531 367.603 188.384 367.713 188.262C367.823 188.139 367.957 188.066 368.116 188.042C368.275 188.017 368.459 188.066 368.666 188.188C369.045 188.433 369.516 188.653 370.079 188.849C370.653 189.044 371.35 189.142 372.169 189.142C372.829 189.142 373.367 189.056 373.783 188.885C374.211 188.714 374.523 188.482 374.718 188.188C374.926 187.895 375.03 187.553 375.03 187.161C375.03 186.843 374.957 186.568 374.81 186.336C374.675 186.104 374.449 185.908 374.131 185.749C373.814 185.578 373.392 185.437 372.866 185.327L370.977 184.924C369.865 184.679 369.033 184.276 368.483 183.714C367.945 183.151 367.676 182.412 367.676 181.495C367.676 180.773 367.847 180.131 368.19 179.569C368.544 179.007 369.033 178.56 369.657 178.23C370.292 177.9 371.032 177.711 371.876 177.662L371.601 177.919V176.25C371.601 176.042 371.668 175.865 371.802 175.718C371.949 175.571 372.132 175.498 372.353 175.498C372.56 175.498 372.738 175.571 372.884 175.718C373.031 175.865 373.104 176.042 373.104 176.25V177.919L372.793 177.662C373.355 177.674 373.954 177.79 374.59 178.01C375.226 178.218 375.77 178.518 376.222 178.909C376.369 179.031 376.46 179.172 376.497 179.331C376.546 179.49 376.546 179.642 376.497 179.789C376.46 179.936 376.387 180.058 376.277 180.156C376.167 180.254 376.026 180.309 375.855 180.321C375.684 180.333 375.501 180.272 375.305 180.138C374.914 179.869 374.48 179.655 374.003 179.496C373.538 179.337 372.982 179.257 372.334 179.257C371.478 179.257 370.8 179.459 370.299 179.862C369.797 180.266 369.547 180.792 369.547 181.44C369.547 181.929 369.7 182.326 370.005 182.632C370.311 182.925 370.824 183.151 371.546 183.31L373.471 183.714C374.645 183.97 375.513 184.368 376.075 184.906C376.638 185.444 376.919 186.159 376.919 187.051C376.919 187.748 376.742 188.366 376.387 188.904C376.033 189.429 375.544 189.851 374.92 190.169C374.309 190.475 373.6 190.664 372.793 190.737L373.104 190.389V192.15C373.104 192.357 373.031 192.535 372.884 192.681C372.75 192.828 372.573 192.901 372.353 192.901ZM385.342 190.664C385.085 190.664 384.883 190.591 384.736 190.444C384.59 190.297 384.516 190.102 384.516 189.857C384.516 189.6 384.59 189.405 384.736 189.27C384.883 189.136 385.085 189.069 385.342 189.069H387.579V179.312H388.533L385.855 181.018C385.66 181.128 385.476 181.171 385.305 181.146C385.146 181.122 385.005 181.054 384.883 180.944C384.773 180.834 384.694 180.7 384.645 180.541C384.608 180.382 384.62 180.217 384.681 180.046C384.755 179.875 384.883 179.734 385.067 179.624L387.597 178.029C387.805 177.906 388.001 177.808 388.184 177.735C388.38 177.65 388.563 177.607 388.734 177.607C388.942 177.607 389.113 177.668 389.248 177.79C389.395 177.9 389.468 178.09 389.468 178.359V189.069H391.522C391.791 189.069 391.999 189.136 392.145 189.27C392.292 189.405 392.365 189.6 392.365 189.857C392.365 190.114 392.292 190.316 392.145 190.462C391.999 190.597 391.791 190.664 391.522 190.664H385.342ZM398.997 190.829C397.493 190.829 396.344 190.261 395.549 189.124C394.767 187.974 394.376 186.33 394.376 184.19C394.376 182.736 394.553 181.519 394.907 180.541C395.262 179.563 395.782 178.823 396.466 178.322C397.151 177.821 397.994 177.57 398.997 177.57C400.513 177.57 401.662 178.132 402.445 179.257C403.227 180.37 403.618 182.008 403.618 184.172C403.618 185.603 403.441 186.813 403.087 187.803C402.732 188.793 402.212 189.545 401.528 190.059C400.843 190.572 400 190.829 398.997 190.829ZM398.997 189.252C399.938 189.252 400.629 188.842 401.069 188.023C401.522 187.192 401.748 185.908 401.748 184.172C401.748 182.424 401.522 181.152 401.069 180.358C400.629 179.551 399.938 179.147 398.997 179.147C398.068 179.147 397.377 179.551 396.925 180.358C396.472 181.152 396.246 182.424 396.246 184.172C396.246 185.908 396.472 187.192 396.925 188.023C397.377 188.842 398.068 189.252 398.997 189.252ZM409.993 190.829C408.489 190.829 407.34 190.261 406.545 189.124C405.763 187.974 405.372 186.33 405.372 184.19C405.372 182.736 405.549 181.519 405.904 180.541C406.258 179.563 406.778 178.823 407.462 178.322C408.147 177.821 408.991 177.57 409.993 177.57C411.509 177.57 412.658 178.132 413.441 179.257C414.223 180.37 414.615 182.008 414.615 184.172C414.615 185.603 414.437 186.813 414.083 187.803C413.728 188.793 413.209 189.545 412.524 190.059C411.839 190.572 410.996 190.829 409.993 190.829ZM409.993 189.252C410.935 189.252 411.625 188.842 412.065 188.023C412.518 187.192 412.744 185.908 412.744 184.172C412.744 182.424 412.518 181.152 412.065 180.358C411.625 179.551 410.935 179.147 409.993 179.147C409.064 179.147 408.373 179.551 407.921 180.358C407.469 181.152 407.242 182.424 407.242 184.172C407.242 185.908 407.469 187.192 407.921 188.023C408.373 188.842 409.064 189.252 409.993 189.252ZM420.989 190.829C419.486 190.829 418.336 190.261 417.542 189.124C416.759 187.974 416.368 186.33 416.368 184.19C416.368 182.736 416.545 181.519 416.9 180.541C417.254 179.563 417.774 178.823 418.459 178.322C419.143 177.821 419.987 177.57 420.989 177.57C422.505 177.57 423.655 178.132 424.437 179.257C425.22 180.37 425.611 182.008 425.611 184.172C425.611 185.603 425.433 186.813 425.079 187.803C424.724 188.793 424.205 189.545 423.52 190.059C422.835 190.572 421.992 190.829 420.989 190.829ZM420.989 189.252C421.931 189.252 422.622 188.842 423.062 188.023C423.514 187.192 423.74 185.908 423.74 184.172C423.74 182.424 423.514 181.152 423.062 180.358C422.622 179.551 421.931 179.147 420.989 179.147C420.06 179.147 419.369 179.551 418.917 180.358C418.465 181.152 418.239 182.424 418.239 184.172C418.239 185.908 418.465 187.192 418.917 188.023C419.369 188.842 420.06 189.252 420.989 189.252Z" fill="white"/>
<path d="M341.806 141.21H342.824V139.173H341.806V141.21ZM338.858 139.173C338.296 139.173 337.84 139.629 337.84 140.191C337.84 140.754 338.296 141.21 338.858 141.21V139.173ZM332.964 141.21C333.526 141.21 333.983 140.754 333.983 140.191C333.983 139.629 333.526 139.173 332.964 139.173V141.21ZM327.069 139.173C326.506 139.173 326.05 139.629 326.05 140.191C326.05 140.754 326.506 141.21 327.069 141.21V139.173ZM321.174 141.21C321.737 141.21 322.193 140.754 322.193 140.191C322.193 139.629 321.737 139.173 321.174 139.173V141.21ZM315.28 139.173C314.717 139.173 314.261 139.629 314.261 140.191C314.261 140.754 314.717 141.21 315.28 141.21V139.173ZM309.385 141.21C309.948 141.21 310.404 140.754 310.404 140.191C310.404 139.629 309.948 139.173 309.385 139.173V141.21ZM303.49 139.173C302.928 139.173 302.472 139.629 302.472 140.191C302.472 140.754 302.928 141.21 303.49 141.21V139.173ZM297.596 141.21C298.158 141.21 298.615 140.754 298.615 140.191C298.615 139.629 298.158 139.173 297.596 139.173V141.21ZM291.701 139.173C291.138 139.173 290.682 139.629 290.682 140.191C290.682 140.754 291.138 141.21 291.701 141.21V139.173ZM285.806 141.21C286.369 141.21 286.825 140.754 286.825 140.191C286.825 139.629 286.369 139.173 285.806 139.173V141.21ZM279.912 139.173C279.349 139.173 278.893 139.629 278.893 140.191C278.893 140.754 279.349 141.21 279.912 141.21V139.173ZM274.017 141.21C274.58 141.21 275.036 140.754 275.036 140.191C275.036 139.629 274.58 139.173 274.017 139.173V141.21ZM268.123 139.173C267.56 139.173 267.104 139.629 267.104 140.191C267.104 140.754 267.56 141.21 268.123 141.21V139.173ZM262.228 141.21C262.791 141.21 263.247 140.754 263.247 140.191C263.247 139.629 262.791 139.173 262.228 139.173V141.21ZM256.333 139.173C255.771 139.173 255.314 139.629 255.314 140.191C255.314 140.754 255.771 141.21 256.333 141.21V139.173ZM250.439 141.21C251.001 141.21 251.457 140.754 251.457 140.191C251.457 139.629 251.001 139.173 250.439 139.173V141.21ZM244.544 139.173C243.981 139.173 243.525 139.629 243.525 140.191C243.525 140.754 243.981 141.21 244.544 141.21V139.173ZM238.649 141.21C239.212 141.21 239.668 140.754 239.668 140.191C239.668 139.629 239.212 139.173 238.649 139.173V141.21ZM232.755 139.173C232.192 139.173 231.736 139.629 231.736 140.191C231.736 140.754 232.192 141.21 232.755 141.21V139.173ZM226.86 141.21C227.423 141.21 227.879 140.754 227.879 140.191C227.879 139.629 227.423 139.173 226.86 139.173V141.21ZM220.965 139.173C220.403 139.173 219.946 139.629 219.946 140.191C219.946 140.754 220.403 141.21 220.965 141.21V139.173ZM215.071 141.21C215.633 141.21 216.089 140.754 216.089 140.191C216.089 139.629 215.633 139.173 215.071 139.173V141.21ZM209.176 139.173C208.613 139.173 208.157 139.629 208.157 140.191C208.157 140.754 208.613 141.21 209.176 141.21V139.173ZM203.281 141.21C203.844 141.21 204.3 140.754 204.3 140.191C204.3 139.629 203.844 139.173 203.281 139.173V141.21ZM197.387 139.173C196.824 139.173 196.368 139.629 196.368 140.191C196.368 140.754 196.824 141.21 197.387 141.21V139.173ZM191.492 141.21C192.055 141.21 192.511 140.754 192.511 140.191C192.511 139.629 192.055 139.173 191.492 139.173V141.21ZM185.597 139.173C185.035 139.173 184.579 139.629 184.579 140.191C184.579 140.754 185.035 141.21 185.597 141.21V139.173ZM179.703 141.21C180.265 141.21 180.722 140.754 180.722 140.191C180.722 139.629 180.265 139.173 179.703 139.173V141.21ZM341.806 139.173H338.858V141.21H341.806V139.173ZM332.964 139.173H327.069V141.21H332.964V139.173ZM321.174 139.173H315.28V141.21H321.174V139.173ZM309.385 139.173H303.49V141.21H309.385V139.173ZM297.596 139.173H291.701V141.21H297.596V139.173ZM285.806 139.173H279.912V141.21H285.806V139.173ZM274.017 139.173H268.123V141.21H274.017V139.173ZM262.228 139.173H256.333V141.21H262.228V139.173ZM250.439 139.173H244.544V141.21H250.439V139.173ZM238.649 139.173H232.755V141.21H238.649V139.173ZM226.86 139.173H220.965V141.21H226.86V139.173ZM215.071 139.173H209.176V141.21H215.071V139.173ZM203.281 139.173H197.387V141.21H203.281V139.173ZM191.492 139.173H185.597V141.21H191.492V139.173ZM179.703 139.173H176.755V141.21H179.703V139.173Z" fill="#D9D9D9" fill-opacity="0.23"/>
<g filter="url(#filter1_d_114_65)">
<circle cx="177.265" cy="138.662" r="7.43745" fill="#64CE9B"/>
</g>
<path d="M372.371 144.575C371.393 144.575 370.549 144.392 369.84 144.025C369.143 143.646 368.599 143.114 368.208 142.43C367.829 141.733 367.639 140.907 367.639 139.954C367.639 139.025 367.829 138.212 368.208 137.515C368.587 136.818 369.106 136.274 369.767 135.883C370.427 135.491 371.179 135.296 372.022 135.296C372.646 135.296 373.202 135.4 373.691 135.607C374.18 135.803 374.596 136.097 374.938 136.488C375.293 136.867 375.556 137.331 375.727 137.882C375.91 138.432 376.002 139.049 376.002 139.734C376.002 139.942 375.941 140.101 375.819 140.211C375.696 140.308 375.513 140.357 375.268 140.357H369.106V139.22H374.755L374.443 139.477C374.443 138.866 374.351 138.346 374.168 137.918C373.997 137.49 373.734 137.166 373.379 136.946C373.037 136.714 372.609 136.598 372.096 136.598C371.521 136.598 371.032 136.732 370.629 137.001C370.237 137.27 369.938 137.643 369.73 138.12C369.522 138.597 369.418 139.153 369.418 139.789V139.899C369.418 140.975 369.669 141.788 370.17 142.338C370.684 142.876 371.423 143.145 372.389 143.145C372.756 143.145 373.141 143.096 373.545 142.998C373.96 142.9 374.351 142.735 374.718 142.503C374.926 142.381 375.109 142.326 375.268 142.338C375.44 142.35 375.574 142.405 375.672 142.503C375.782 142.601 375.849 142.723 375.874 142.87C375.898 143.016 375.874 143.169 375.8 143.328C375.727 143.475 375.598 143.609 375.415 143.732C374.999 144.013 374.516 144.227 373.966 144.373C373.416 144.508 372.884 144.575 372.371 144.575ZM378.938 144.539C378.645 144.539 378.419 144.459 378.26 144.3C378.101 144.129 378.021 143.897 378.021 143.603V136.268C378.021 135.962 378.101 135.73 378.26 135.571C378.419 135.412 378.639 135.332 378.92 135.332C379.213 135.332 379.433 135.412 379.58 135.571C379.739 135.73 379.818 135.962 379.818 136.268V137.698L379.617 137.368C379.886 136.683 380.307 136.17 380.882 135.828C381.457 135.473 382.117 135.296 382.863 135.296C383.572 135.296 384.159 135.43 384.623 135.699C385.1 135.956 385.455 136.353 385.687 136.891C385.919 137.417 386.035 138.083 386.035 138.89V143.603C386.035 143.897 385.956 144.129 385.797 144.3C385.638 144.459 385.412 144.539 385.118 144.539C384.813 144.539 384.58 144.459 384.421 144.3C384.263 144.129 384.183 143.897 384.183 143.603V139C384.183 138.23 384.03 137.668 383.725 137.313C383.431 136.958 382.967 136.781 382.331 136.781C381.585 136.781 380.986 137.013 380.534 137.478C380.094 137.943 379.873 138.566 379.873 139.349V143.603C379.873 144.227 379.562 144.539 378.938 144.539ZM391.999 144.575C391.216 144.575 390.525 144.392 389.926 144.025C389.339 143.646 388.881 143.108 388.551 142.411C388.221 141.702 388.056 140.877 388.056 139.935C388.056 138.97 388.221 138.144 388.551 137.46C388.881 136.775 389.339 136.243 389.926 135.864C390.525 135.485 391.216 135.296 391.999 135.296C392.781 135.296 393.453 135.491 394.016 135.883C394.591 136.262 394.976 136.775 395.171 137.423H394.97V132.288C394.97 131.982 395.049 131.75 395.208 131.591C395.367 131.432 395.593 131.353 395.886 131.353C396.18 131.353 396.406 131.432 396.565 131.591C396.736 131.75 396.822 131.982 396.822 132.288V143.603C396.822 143.897 396.742 144.129 396.583 144.3C396.424 144.459 396.198 144.539 395.905 144.539C395.611 144.539 395.385 144.459 395.226 144.3C395.067 144.129 394.988 143.897 394.988 143.603V141.989L395.19 142.393C394.994 143.053 394.609 143.585 394.034 143.988C393.472 144.38 392.793 144.575 391.999 144.575ZM392.475 143.145C392.977 143.145 393.417 143.023 393.796 142.778C394.175 142.533 394.468 142.173 394.676 141.696C394.896 141.219 395.006 140.632 395.006 139.935C395.006 138.884 394.774 138.089 394.309 137.551C393.845 137.013 393.233 136.744 392.475 136.744C391.962 136.744 391.516 136.867 391.137 137.111C390.758 137.344 390.458 137.698 390.238 138.175C390.03 138.652 389.926 139.239 389.926 139.935C389.926 140.975 390.159 141.769 390.623 142.32C391.088 142.87 391.705 143.145 392.475 143.145ZM405.175 147.84C404.882 147.84 404.655 147.76 404.496 147.601C404.337 147.442 404.258 147.21 404.258 146.904V136.268C404.258 135.962 404.337 135.73 404.496 135.571C404.655 135.412 404.875 135.332 405.157 135.332C405.45 135.332 405.676 135.412 405.835 135.571C405.994 135.73 406.074 135.962 406.074 136.268V137.863L405.872 137.478C406.067 136.818 406.453 136.292 407.027 135.901C407.602 135.497 408.28 135.296 409.063 135.296C409.858 135.296 410.548 135.485 411.135 135.864C411.734 136.243 412.193 136.775 412.511 137.46C412.841 138.144 413.006 138.97 413.006 139.935C413.006 140.877 412.841 141.702 412.511 142.411C412.193 143.108 411.74 143.646 411.153 144.025C410.567 144.392 409.87 144.575 409.063 144.575C408.293 144.575 407.62 144.38 407.046 143.988C406.471 143.597 406.086 143.078 405.89 142.43H406.11V146.904C406.11 147.21 406.025 147.442 405.854 147.601C405.695 147.76 405.468 147.84 405.175 147.84ZM408.604 143.145C409.118 143.145 409.564 143.023 409.943 142.778C410.322 142.533 410.616 142.173 410.823 141.696C411.031 141.219 411.135 140.632 411.135 139.935C411.135 138.884 410.903 138.089 410.438 137.551C409.986 137.013 409.375 136.744 408.604 136.744C408.103 136.744 407.657 136.867 407.266 137.111C406.887 137.344 406.593 137.698 406.385 138.175C406.178 138.652 406.074 139.239 406.074 139.935C406.074 140.975 406.306 141.769 406.77 142.32C407.235 142.87 407.846 143.145 408.604 143.145ZM416.028 144.539C415.723 144.539 415.49 144.459 415.331 144.3C415.173 144.129 415.093 143.897 415.093 143.603V136.268C415.093 135.962 415.173 135.73 415.331 135.571C415.49 135.412 415.71 135.332 415.992 135.332C416.285 135.332 416.505 135.412 416.652 135.571C416.811 135.73 416.89 135.962 416.89 136.268V137.606H416.707C416.902 136.873 417.263 136.317 417.789 135.938C418.315 135.559 418.987 135.339 419.806 135.277C420.026 135.265 420.197 135.32 420.32 135.442C420.454 135.565 420.527 135.754 420.54 136.011C420.564 136.268 420.509 136.476 420.375 136.634C420.24 136.781 420.032 136.867 419.751 136.891L419.403 136.928C418.608 137.001 418.003 137.252 417.587 137.68C417.171 138.108 416.964 138.695 416.964 139.44V143.603C416.964 143.897 416.884 144.129 416.725 144.3C416.578 144.459 416.346 144.539 416.028 144.539ZM422.851 144.52C422.558 144.52 422.332 144.435 422.173 144.263C422.014 144.08 421.934 143.829 421.934 143.512V136.359C421.934 136.041 422.014 135.797 422.173 135.626C422.332 135.455 422.558 135.369 422.851 135.369C423.145 135.369 423.371 135.455 423.53 135.626C423.701 135.797 423.787 136.041 423.787 136.359V143.512C423.787 143.829 423.707 144.08 423.548 144.263C423.389 144.435 423.157 144.52 422.851 144.52ZM422.851 133.462C422.484 133.462 422.197 133.37 421.989 133.187C421.794 133.003 421.696 132.747 421.696 132.417C421.696 132.074 421.794 131.817 421.989 131.646C422.197 131.463 422.484 131.371 422.851 131.371C423.218 131.371 423.499 131.463 423.695 131.646C423.903 131.817 424.007 132.074 424.007 132.417C424.007 132.747 423.903 133.003 423.695 133.187C423.499 133.37 423.218 133.462 422.851 133.462ZM430.337 144.575C429.42 144.575 428.625 144.386 427.952 144.007C427.292 143.615 426.779 143.071 426.412 142.375C426.045 141.665 425.862 140.834 425.862 139.88C425.862 139.171 425.966 138.536 426.174 137.973C426.381 137.399 426.675 136.916 427.054 136.524C427.445 136.133 427.916 135.834 428.466 135.626C429.028 135.406 429.652 135.296 430.337 135.296C430.764 135.296 431.211 135.363 431.675 135.497C432.152 135.62 432.592 135.828 432.996 136.121C433.155 136.219 433.252 136.341 433.289 136.488C433.338 136.622 433.344 136.763 433.307 136.91C433.283 137.056 433.216 137.185 433.106 137.295C433.008 137.392 432.886 137.454 432.739 137.478C432.592 137.49 432.433 137.447 432.262 137.35C431.969 137.142 431.669 136.995 431.364 136.91C431.058 136.812 430.764 136.763 430.483 136.763C430.043 136.763 429.652 136.836 429.31 136.983C428.979 137.117 428.698 137.319 428.466 137.588C428.234 137.845 428.056 138.169 427.934 138.56C427.824 138.951 427.769 139.398 427.769 139.899C427.769 140.901 428.001 141.69 428.466 142.265C428.943 142.827 429.615 143.108 430.483 143.108C430.764 143.108 431.058 143.065 431.364 142.98C431.669 142.894 431.969 142.747 432.262 142.54C432.433 142.442 432.592 142.405 432.739 142.43C432.886 142.454 433.002 142.521 433.087 142.631C433.185 142.729 433.246 142.851 433.271 142.998C433.307 143.133 433.301 143.273 433.252 143.42C433.204 143.567 433.1 143.689 432.941 143.787C432.549 144.068 432.122 144.27 431.657 144.392C431.205 144.514 430.764 144.575 430.337 144.575ZM438.975 144.575C437.997 144.575 437.153 144.392 436.444 144.025C435.747 143.646 435.203 143.114 434.812 142.43C434.433 141.733 434.243 140.907 434.243 139.954C434.243 139.025 434.433 138.212 434.812 137.515C435.191 136.818 435.71 136.274 436.371 135.883C437.031 135.491 437.783 135.296 438.626 135.296C439.25 135.296 439.806 135.4 440.295 135.607C440.784 135.803 441.2 136.097 441.542 136.488C441.897 136.867 442.16 137.331 442.331 137.882C442.514 138.432 442.606 139.049 442.606 139.734C442.606 139.942 442.545 140.101 442.422 140.211C442.3 140.308 442.117 140.357 441.872 140.357H435.71V139.22H441.359L441.047 139.477C441.047 138.866 440.955 138.346 440.772 137.918C440.601 137.49 440.338 137.166 439.983 136.946C439.641 136.714 439.213 136.598 438.7 136.598C438.125 136.598 437.636 136.732 437.233 137.001C436.841 137.27 436.542 137.643 436.334 138.12C436.126 138.597 436.022 139.153 436.022 139.789V139.899C436.022 140.975 436.273 141.788 436.774 142.338C437.288 142.876 438.027 143.145 438.993 143.145C439.36 143.145 439.745 143.096 440.148 142.998C440.564 142.9 440.955 142.735 441.322 142.503C441.53 142.381 441.713 142.326 441.872 142.338C442.043 142.35 442.178 142.405 442.276 142.503C442.386 142.601 442.453 142.723 442.477 142.87C442.502 143.016 442.477 143.169 442.404 143.328C442.331 143.475 442.202 143.609 442.019 143.732C441.603 144.013 441.12 144.227 440.57 144.373C440.02 144.508 439.488 144.575 438.975 144.575Z" fill="white"/>
<rect x="359.33" y="138.969" width="2.03766" height="11.2071" transform="rotate(90 359.33 138.969)" fill="white"/>
<path d="M339.564 299.128H340.583V297.091H339.564V299.128ZM336.553 297.091C335.991 297.091 335.534 297.547 335.534 298.109C335.534 298.672 335.991 299.128 336.553 299.128V297.091ZM330.531 299.128C331.094 299.128 331.55 298.672 331.55 298.109C331.55 297.547 331.094 297.091 330.531 297.091V299.128ZM324.508 297.091C323.946 297.091 323.49 297.547 323.49 298.109C323.49 298.672 323.946 299.128 324.508 299.128V297.091ZM318.486 299.128C319.049 299.128 319.505 298.672 319.505 298.109C319.505 297.547 319.049 297.091 318.486 297.091V299.128ZM312.464 297.091C311.901 297.091 311.445 297.547 311.445 298.109C311.445 298.672 311.901 299.128 312.464 299.128V297.091ZM306.441 299.128C307.004 299.128 307.46 298.672 307.46 298.109C307.46 297.547 307.004 297.091 306.441 297.091V299.128ZM300.419 297.091C299.856 297.091 299.4 297.547 299.4 298.109C299.4 298.672 299.856 299.128 300.419 299.128V297.091ZM294.396 299.128C294.959 299.128 295.415 298.672 295.415 298.109C295.415 297.547 294.959 297.091 294.396 297.091V299.128ZM288.374 297.091C287.811 297.091 287.355 297.547 287.355 298.109C287.355 298.672 287.811 299.128 288.374 299.128V297.091ZM282.352 299.128C282.914 299.128 283.37 298.672 283.37 298.109C283.37 297.547 282.914 297.091 282.352 297.091V299.128ZM276.329 297.091C275.766 297.091 275.31 297.547 275.31 298.109C275.31 298.672 275.766 299.128 276.329 299.128V297.091ZM270.307 299.128C270.869 299.128 271.326 298.672 271.326 298.109C271.326 297.547 270.869 297.091 270.307 297.091V299.128ZM264.284 297.091C263.722 297.091 263.266 297.547 263.266 298.109C263.266 298.672 263.722 299.128 264.284 299.128V297.091ZM258.262 299.128C258.825 299.128 259.281 298.672 259.281 298.109C259.281 297.547 258.825 297.091 258.262 297.091V299.128ZM252.24 297.091C251.677 297.091 251.221 297.547 251.221 298.109C251.221 298.672 251.677 299.128 252.24 299.128V297.091ZM246.217 299.128C246.78 299.128 247.236 298.672 247.236 298.109C247.236 297.547 246.78 297.091 246.217 297.091V299.128ZM240.195 297.091C239.632 297.091 239.176 297.547 239.176 298.109C239.176 298.672 239.632 299.128 240.195 299.128V297.091ZM234.172 299.128C234.735 299.128 235.191 298.672 235.191 298.109C235.191 297.547 234.735 297.091 234.172 297.091V299.128ZM228.15 297.091C227.587 297.091 227.131 297.547 227.131 298.109C227.131 298.672 227.587 299.128 228.15 299.128V297.091ZM222.128 299.128C222.69 299.128 223.146 298.672 223.146 298.109C223.146 297.547 222.69 297.091 222.128 297.091V299.128ZM216.105 297.091C215.542 297.091 215.086 297.547 215.086 298.109C215.086 298.672 215.542 299.128 216.105 299.128V297.091ZM210.083 299.128C210.645 299.128 211.102 298.672 211.102 298.109C211.102 297.547 210.645 297.091 210.083 297.091V299.128ZM204.06 297.091C203.498 297.091 203.041 297.547 203.041 298.109C203.041 298.672 203.498 299.128 204.06 299.128V297.091ZM198.038 299.128C198.601 299.128 199.057 298.672 199.057 298.109C199.057 297.547 198.601 297.091 198.038 297.091V299.128ZM192.015 297.091C191.453 297.091 190.997 297.547 190.997 298.109C190.997 298.672 191.453 299.128 192.015 299.128V297.091ZM185.993 299.128C186.556 299.128 187.012 298.672 187.012 298.109C187.012 297.547 186.556 297.091 185.993 297.091V299.128ZM179.971 297.091C179.408 297.091 178.952 297.547 178.952 298.109C178.952 298.672 179.408 299.128 179.971 299.128V297.091ZM173.948 299.128C174.511 299.128 174.967 298.672 174.967 298.109C174.967 297.547 174.511 297.091 173.948 297.091V299.128ZM167.926 297.091C167.363 297.091 166.907 297.547 166.907 298.109C166.907 298.672 167.363 299.128 167.926 299.128V297.091ZM161.903 299.128C162.466 299.128 162.922 298.672 162.922 298.109C162.922 297.547 162.466 297.091 161.903 297.091V299.128ZM155.881 297.091C155.318 297.091 154.862 297.547 154.862 298.109C154.862 298.672 155.318 299.128 155.881 299.128V297.091ZM149.859 299.128C150.421 299.128 150.877 298.672 150.877 298.109C150.877 297.547 150.421 297.091 149.859 297.091V299.128ZM143.836 297.091C143.273 297.091 142.817 297.547 142.817 298.109C142.817 298.672 143.273 299.128 143.836 299.128V297.091ZM137.814 299.128C138.376 299.128 138.833 298.672 138.833 298.109C138.833 297.547 138.376 297.091 137.814 297.091V299.128ZM131.791 297.091C131.229 297.091 130.772 297.547 130.772 298.109C130.772 298.672 131.229 299.128 131.791 299.128V297.091ZM125.769 299.128C126.332 299.128 126.788 298.672 126.788 298.109C126.788 297.547 126.332 297.091 125.769 297.091V299.128ZM119.746 297.091C119.184 297.091 118.728 297.547 118.728 298.109C118.728 298.672 119.184 299.128 119.746 299.128V297.091ZM113.724 299.128C114.287 299.128 114.743 298.672 114.743 298.109C114.743 297.547 114.287 297.091 113.724 297.091V299.128ZM107.702 297.091C107.139 297.091 106.683 297.547 106.683 298.109C106.683 298.672 107.139 299.128 107.702 299.128V297.091ZM101.679 299.128C102.242 299.128 102.698 298.672 102.698 298.109C102.698 297.547 102.242 297.091 101.679 297.091V299.128ZM95.6568 297.091C95.0941 297.091 94.638 297.547 94.638 298.109C94.638 298.672 95.0941 299.128 95.6568 299.128V297.091ZM89.6344 299.128C90.1971 299.128 90.6532 298.672 90.6532 298.109C90.6532 297.547 90.1971 297.091 89.6344 297.091V299.128ZM83.612 297.091C83.0493 297.091 82.5931 297.547 82.5931 298.109C82.5931 298.672 83.0493 299.128 83.612 299.128V297.091ZM77.5896 299.128C78.1523 299.128 78.6084 298.672 78.6084 298.109C78.6084 297.547 78.1523 297.091 77.5896 297.091V299.128ZM71.5672 297.091C71.0045 297.091 70.5483 297.547 70.5483 298.109C70.5483 298.672 71.0045 299.128 71.5672 299.128V297.091ZM65.5448 299.128C66.1075 299.128 66.5636 298.672 66.5636 298.109C66.5636 297.547 66.1075 297.091 65.5448 297.091V299.128ZM59.5224 297.091C58.9597 297.091 58.5035 297.547 58.5035 298.109C58.5035 298.672 58.9597 299.128 59.5224 299.128V297.091ZM53.5 299.128C54.0627 299.128 54.5188 298.672 54.5188 298.109C54.5188 297.547 54.0627 297.091 53.5 297.091V299.128ZM47.4776 297.091C46.9149 297.091 46.4587 297.547 46.4587 298.109C46.4587 298.672 46.9149 299.128 47.4776 299.128V297.091ZM41.4552 299.128C42.0179 299.128 42.474 298.672 42.474 298.109C42.474 297.547 42.0179 297.091 41.4552 297.091V299.128ZM35.4328 297.091C34.8701 297.091 34.4139 297.547 34.4139 298.109C34.4139 298.672 34.8701 299.128 35.4328 299.128V297.091ZM29.4104 299.128C29.9731 299.128 30.4292 298.672 30.4292 298.109C30.4292 297.547 29.9731 297.091 29.4104 297.091V299.128ZM23.388 297.091C22.8253 297.091 22.3691 297.547 22.3691 298.109C22.3691 298.672 22.8253 299.128 23.388 299.128V297.091ZM17.3656 299.128C17.9283 299.128 18.3844 298.672 18.3844 298.109C18.3844 297.547 17.9283 297.091 17.3656 297.091V299.128ZM339.564 297.091H336.553V299.128H339.564V297.091ZM330.531 297.091H324.508V299.128H330.531V297.091ZM318.486 297.091H312.464V299.128H318.486V297.091ZM306.441 297.091H300.419V299.128H306.441V297.091ZM294.396 297.091H288.374V299.128H294.396V297.091ZM282.352 297.091H276.329V299.128H282.352V297.091ZM270.307 297.091H264.284V299.128H270.307V297.091ZM258.262 297.091H252.24V299.128H258.262V297.091ZM246.217 297.091H240.195V299.128H246.217V297.091ZM234.172 297.091H228.15V299.128H234.172V297.091ZM222.128 297.091H216.105V299.128H222.128V297.091ZM210.083 297.091H204.06V299.128H210.083V297.091ZM198.038 297.091H192.015V299.128H198.038V297.091ZM185.993 297.091H179.971V299.128H185.993V297.091ZM173.948 297.091H167.926V299.128H173.948V297.091ZM161.903 297.091H155.881V299.128H161.903V297.091ZM149.859 297.091H143.836V299.128H149.859V297.091ZM137.814 297.091H131.791V299.128H137.814V297.091ZM125.769 297.091H119.746V299.128H125.769V297.091ZM113.724 297.091H107.702V299.128H113.724V297.091ZM101.679 297.091H95.6568V299.128H101.679V297.091ZM89.6344 297.091H83.612V299.128H89.6344V297.091ZM77.5896 297.091H71.5672V299.128H77.5896V297.091ZM65.5448 297.091H59.5224V299.128H65.5448V297.091ZM53.5 297.091H47.4776V299.128H53.5V297.091ZM41.4552 297.091H35.4328V299.128H41.4552V297.091ZM29.4104 297.091H23.388V299.128H29.4104V297.091ZM17.3656 297.091H14.3544V299.128H17.3656V297.091Z" fill="#D9D9D9" fill-opacity="0.23"/>
<rect x="12.3169" y="337.029" width="2.03766" height="11.2071" fill="white"/>
<rect x="66.7222" y="337.029" width="2.03766" height="11.2071" fill="white"/>
<rect x="121.535" y="337.029" width="2.03766" height="11.2071" fill="white"/>
<rect x="176.552" y="337.029" width="1.83389" height="11.2071" fill="white"/>
<rect x="230.958" y="337.029" width="2.03766" height="11.2071" fill="white"/>
<rect x="285.771" y="337.029" width="2.03766" height="11.2071" fill="white"/>
<rect x="340.583" y="337.029" width="2.03766" height="11.2071" fill="white"/>
<rect x="359.126" y="297.09" width="2.03766" height="11.2071" transform="rotate(90 359.126 297.09)" fill="white"/>
<rect x="359.126" y="183.389" width="2.03766" height="11.2071" transform="rotate(90 359.126 183.389)" fill="white"/>
<path d="M135.165 101.789C134.871 101.789 134.645 101.709 134.486 101.55C134.327 101.391 134.248 101.159 134.248 100.853V90.2169C134.248 89.9112 134.327 89.679 134.486 89.52C134.645 89.3611 134.865 89.2816 135.146 89.2816C135.44 89.2816 135.666 89.3611 135.825 89.52C135.984 89.679 136.063 89.9112 136.063 90.2169V91.8124L135.862 91.4273C136.057 90.7671 136.442 90.2413 137.017 89.8501C137.592 89.4467 138.27 89.2449 139.053 89.2449C139.847 89.2449 140.538 89.4344 141.125 89.8134C141.724 90.1924 142.183 90.7243 142.5 91.4089C142.83 92.0936 142.996 92.9188 142.996 93.8847C142.996 94.8261 142.83 95.6513 142.5 96.3604C142.183 97.0573 141.73 97.5953 141.143 97.9743C140.556 98.341 139.86 98.5244 139.053 98.5244C138.282 98.5244 137.61 98.3288 137.035 97.9376C136.461 97.5463 136.076 97.0267 135.88 96.3788H136.1V100.853C136.1 101.159 136.015 101.391 135.843 101.55C135.684 101.709 135.458 101.789 135.165 101.789ZM138.594 97.094C139.108 97.094 139.554 96.9717 139.933 96.7272C140.312 96.4827 140.605 96.122 140.813 95.6452C141.021 95.1684 141.125 94.5816 141.125 93.8847C141.125 92.8332 140.893 92.0386 140.428 91.5006C139.976 90.9627 139.364 90.6937 138.594 90.6937C138.093 90.6937 137.647 90.816 137.255 91.0605C136.876 91.2928 136.583 91.6473 136.375 92.1241C136.167 92.601 136.063 93.1878 136.063 93.8847C136.063 94.9239 136.296 95.7186 136.76 96.2687C137.225 96.8189 137.836 97.094 138.594 97.094ZM146.018 98.4877C145.713 98.4877 145.48 98.4083 145.321 98.2493C145.162 98.0782 145.083 97.8459 145.083 97.5525V90.2169C145.083 89.9112 145.162 89.679 145.321 89.52C145.48 89.3611 145.7 89.2816 145.981 89.2816C146.275 89.2816 146.495 89.3611 146.642 89.52C146.801 89.679 146.88 89.9112 146.88 90.2169V91.5556H146.697C146.892 90.8221 147.253 90.2658 147.779 89.8868C148.304 89.5078 148.977 89.2877 149.796 89.2266C150.016 89.2144 150.187 89.2694 150.309 89.3916C150.444 89.5139 150.517 89.7034 150.53 89.9602C150.554 90.2169 150.499 90.4247 150.364 90.5837C150.23 90.7304 150.022 90.816 149.741 90.8404L149.393 90.8771C148.598 90.9505 147.993 91.2011 147.577 91.629C147.161 92.0569 146.953 92.6437 146.953 93.3895V97.5525C146.953 97.8459 146.874 98.0782 146.715 98.2493C146.568 98.4083 146.336 98.4877 146.018 98.4877ZM155.687 98.5244C154.782 98.5244 153.999 98.3349 153.339 97.9559C152.691 97.5769 152.184 97.039 151.817 96.3421C151.45 95.6452 151.267 94.8261 151.267 93.8847C151.267 93.1633 151.371 92.5215 151.579 91.9591C151.787 91.3967 152.08 90.9138 152.459 90.5103C152.85 90.0946 153.315 89.7829 153.853 89.575C154.403 89.355 155.014 89.2449 155.687 89.2449C156.579 89.2449 157.349 89.4344 157.997 89.8134C158.658 90.1924 159.171 90.7304 159.538 91.4273C159.905 92.1119 160.088 92.9311 160.088 93.8847C160.088 94.5938 159.984 95.2356 159.776 95.8103C159.568 96.3849 159.269 96.8739 158.878 97.2774C158.499 97.6808 158.034 97.9926 157.484 98.2127C156.946 98.4205 156.347 98.5244 155.687 98.5244ZM155.687 97.094C156.188 97.094 156.628 96.9717 157.007 96.7272C157.386 96.4827 157.679 96.122 157.887 95.6452C158.107 95.1684 158.217 94.5816 158.217 93.8847C158.217 92.8332 157.985 92.0386 157.521 91.5006C157.056 90.9627 156.445 90.6937 155.687 90.6937C155.173 90.6937 154.727 90.816 154.348 91.0605C153.969 91.2928 153.669 91.6473 153.449 92.1241C153.241 92.601 153.138 93.1878 153.138 93.8847C153.138 94.9239 153.37 95.7186 153.834 96.2687C154.299 96.8189 154.916 97.094 155.687 97.094ZM163.546 98.4877C163.252 98.4877 163.02 98.4083 162.849 98.2493C162.69 98.0782 162.61 97.8459 162.61 97.5525V90.8404H161.583C161.351 90.8404 161.168 90.7793 161.033 90.657C160.899 90.5225 160.832 90.3453 160.832 90.1252C160.832 89.8929 160.899 89.7156 161.033 89.5934C161.168 89.4711 161.351 89.41 161.583 89.41H163.142L162.61 89.9051V89.2449C162.61 88.059 162.904 87.1543 163.491 86.5308C164.078 85.9073 164.939 85.5405 166.076 85.4304L166.627 85.3938C166.847 85.3693 167.024 85.3999 167.158 85.4855C167.293 85.5588 167.385 85.6688 167.434 85.8156C167.482 85.95 167.489 86.0906 167.452 86.2374C167.415 86.3841 167.348 86.5124 167.25 86.6225C167.165 86.7203 167.055 86.7753 166.92 86.7875L166.425 86.8242C165.74 86.8731 165.239 87.0748 164.921 87.4294C164.615 87.7839 164.463 88.3035 164.463 88.9882V89.7034L164.206 89.41H169.231C169.536 89.41 169.769 89.5017 169.928 89.6851C170.087 89.8562 170.166 90.0946 170.166 90.4003V97.4608C170.166 97.7786 170.087 98.0293 169.928 98.2127C169.781 98.3838 169.549 98.4694 169.231 98.4694C168.937 98.4694 168.711 98.3838 168.552 98.2127C168.393 98.0293 168.314 97.7786 168.314 97.4608V90.8404H164.463V97.5525C164.463 98.176 164.157 98.4877 163.546 98.4877ZM169.267 87.411C168.913 87.411 168.638 87.3193 168.442 87.136C168.247 86.9526 168.149 86.6958 168.149 86.3657C168.149 86.0234 168.247 85.7667 168.442 85.5955C168.638 85.4121 168.913 85.3204 169.267 85.3204C169.634 85.3204 169.909 85.4121 170.093 85.5955C170.288 85.7667 170.386 86.0234 170.386 86.3657C170.386 86.6958 170.288 86.9526 170.093 87.136C169.909 87.3193 169.634 87.411 169.267 87.411ZM176.567 98.5244C175.833 98.5244 175.216 98.3961 174.715 98.1393C174.213 97.8826 173.841 97.5036 173.596 97.0023C173.351 96.501 173.229 95.8897 173.229 95.1684V90.8404H172.129C171.884 90.8404 171.695 90.7793 171.56 90.657C171.426 90.5225 171.359 90.3453 171.359 90.1252C171.359 89.8929 171.426 89.7156 171.56 89.5934C171.695 89.4711 171.884 89.41 172.129 89.41H173.229V87.5211C173.229 87.2154 173.309 86.9831 173.468 86.8242C173.639 86.6653 173.871 86.5858 174.165 86.5858C174.458 86.5858 174.684 86.6653 174.843 86.8242C175.002 86.9831 175.081 87.2154 175.081 87.5211V89.41H177.227C177.472 89.41 177.661 89.4711 177.796 89.5934C177.93 89.7156 177.997 89.8929 177.997 90.1252C177.997 90.3453 177.93 90.5225 177.796 90.657C177.661 90.7793 177.472 90.8404 177.227 90.8404H175.081V95.0217C175.081 95.6697 175.216 96.1587 175.485 96.4888C175.766 96.8189 176.218 96.984 176.842 96.984C177.062 96.984 177.252 96.9656 177.411 96.9289C177.582 96.88 177.722 96.8495 177.832 96.8372C177.967 96.8372 178.077 96.8861 178.162 96.984C178.248 97.0695 178.291 97.2407 178.291 97.4974C178.291 97.6808 178.254 97.852 178.181 98.0109C178.12 98.1699 178.003 98.2738 177.832 98.3227C177.686 98.3716 177.484 98.4144 177.227 98.4511C176.983 98.5 176.763 98.5244 176.567 98.5244ZM184.634 98.3594C184.439 98.3594 184.28 98.3166 184.158 98.231C184.035 98.1332 183.95 98.0109 183.901 97.8642C183.864 97.7053 183.864 97.5402 183.901 97.3691C183.95 97.1857 184.047 97.0145 184.194 96.8556L189.182 90.3819V90.8404H184.524C184.292 90.8404 184.115 90.7793 183.992 90.657C183.87 90.5225 183.809 90.3453 183.809 90.1252C183.809 89.8929 183.87 89.7156 183.992 89.5934C184.115 89.4711 184.292 89.41 184.524 89.41H190.063C190.295 89.41 190.478 89.4589 190.613 89.5567C190.76 89.6545 190.851 89.7768 190.888 89.9235C190.937 90.0702 190.943 90.2291 190.906 90.4003C190.87 90.5714 190.778 90.7365 190.631 90.8954L185.57 97.4424V96.9473H190.466C190.955 96.9473 191.2 97.1796 191.2 97.6442C191.2 97.8642 191.132 98.0415 190.998 98.176C190.876 98.2982 190.698 98.3594 190.466 98.3594H184.634ZM196.573 98.5244C195.668 98.5244 194.886 98.3349 194.226 97.9559C193.578 97.5769 193.07 97.039 192.704 96.3421C192.337 95.6452 192.153 94.8261 192.153 93.8847C192.153 93.1633 192.257 92.5215 192.465 91.9591C192.673 91.3967 192.966 90.9138 193.345 90.5103C193.737 90.0946 194.201 89.7829 194.739 89.575C195.289 89.355 195.901 89.2449 196.573 89.2449C197.466 89.2449 198.236 89.4344 198.884 89.8134C199.544 90.1924 200.057 90.7304 200.424 91.4273C200.791 92.1119 200.974 92.9311 200.974 93.8847C200.974 94.5938 200.871 95.2356 200.663 95.8103C200.455 96.3849 200.155 96.8739 199.764 97.2774C199.385 97.6808 198.92 97.9926 198.37 98.2127C197.832 98.4205 197.233 98.5244 196.573 98.5244ZM196.573 97.094C197.074 97.094 197.514 96.9717 197.893 96.7272C198.272 96.4827 198.566 96.122 198.774 95.6452C198.994 95.1684 199.104 94.5816 199.104 93.8847C199.104 92.8332 198.872 92.0386 198.407 91.5006C197.942 90.9627 197.331 90.6937 196.573 90.6937C196.06 90.6937 195.613 90.816 195.234 91.0605C194.855 91.2928 194.556 91.6473 194.336 92.1241C194.128 92.601 194.024 93.1878 194.024 93.8847C194.024 94.9239 194.256 95.7186 194.721 96.2687C195.185 96.8189 195.803 97.094 196.573 97.094ZM203.972 98.4877C203.678 98.4877 203.452 98.4083 203.293 98.2493C203.134 98.0782 203.055 97.8459 203.055 97.5525V90.2169C203.055 89.9112 203.134 89.679 203.293 89.52C203.452 89.3611 203.672 89.2816 203.953 89.2816C204.247 89.2816 204.467 89.3611 204.613 89.52C204.772 89.679 204.852 89.9112 204.852 90.2169V91.6473L204.65 91.3172C204.919 90.6326 205.341 90.1191 205.915 89.7768C206.49 89.4222 207.15 89.2449 207.896 89.2449C208.605 89.2449 209.192 89.3794 209.657 89.6484C210.133 89.9051 210.488 90.3025 210.72 90.8404C210.953 91.3661 211.069 92.0324 211.069 92.8394V97.5525C211.069 97.8459 210.989 98.0782 210.83 98.2493C210.671 98.4083 210.445 98.4877 210.152 98.4877C209.846 98.4877 209.614 98.4083 209.455 98.2493C209.296 98.0782 209.216 97.8459 209.216 97.5525V92.9494C209.216 92.1792 209.064 91.6168 208.758 91.2622C208.465 90.9077 208 90.7304 207.364 90.7304C206.618 90.7304 206.019 90.9627 205.567 91.4273C205.127 91.8919 204.907 92.5154 204.907 93.2978V97.5525C204.907 98.176 204.595 98.4877 203.972 98.4877ZM217.821 98.5244C216.843 98.5244 215.999 98.341 215.29 97.9743C214.593 97.5953 214.049 97.0634 213.658 96.3788C213.279 95.6819 213.089 94.8566 213.089 93.903C213.089 92.9738 213.279 92.1608 213.658 91.4639C214.037 90.7671 214.556 90.223 215.216 89.8318C215.877 89.4406 216.629 89.2449 217.472 89.2449C218.096 89.2449 218.652 89.3489 219.141 89.5567C219.63 89.7523 220.046 90.0457 220.388 90.437C220.743 90.816 221.005 91.2806 221.177 91.8307C221.36 92.3809 221.452 92.9983 221.452 93.683C221.452 93.8908 221.391 94.0497 221.268 94.1598C221.146 94.2576 220.963 94.3065 220.718 94.3065H214.556V93.1695H220.205L219.893 93.4262C219.893 92.8149 219.801 92.2953 219.618 91.8674C219.447 91.4395 219.184 91.1155 218.829 90.8954C218.487 90.6631 218.059 90.547 217.545 90.547C216.971 90.547 216.482 90.6815 216.078 90.9505C215.687 91.2194 215.388 91.5923 215.18 92.0691C214.972 92.5459 214.868 93.1022 214.868 93.738V93.848C214.868 94.9239 215.119 95.7369 215.62 96.2871C216.133 96.825 216.873 97.094 217.839 97.094C218.206 97.094 218.591 97.0451 218.994 96.9473C219.41 96.8495 219.801 96.6844 220.168 96.4521C220.376 96.3299 220.559 96.2749 220.718 96.2871C220.889 96.2993 221.024 96.3543 221.122 96.4521C221.232 96.5499 221.299 96.6722 221.323 96.8189C221.348 96.9656 221.323 97.1184 221.25 97.2774C221.177 97.4241 221.048 97.5586 220.865 97.6808C220.449 97.962 219.966 98.176 219.416 98.3227C218.866 98.4572 218.334 98.5244 217.821 98.5244Z" fill="white"/>
<rect x="13.3357" y="1.01883" width="328.267" height="328.267" stroke="white" stroke-width="2.03766"/>
<g filter="url(#filter2_d_114_65)">
<circle cx="13.4374" cy="298.008" r="7.43745" fill="#CE7A7A"/>
</g>
<g filter="url(#filter3_d_114_65)">
<path fill-rule="evenodd" clip-rule="evenodd" d="M350.793 171.863C352.585 169.508 353.66 166.496 353.66 163.212C353.66 155.675 347.995 149.564 341.008 149.564C334.021 149.564 328.356 155.675 328.356 163.212C328.356 166.495 329.431 169.508 331.222 171.862L339.288 184.555C340.089 185.815 341.927 185.815 342.728 184.555L350.793 171.863Z" fill="#5487EA"/>
<path d="M337.056 170.992H334.853L339.802 157.241H342.199L347.147 170.992H344.945L341.057 159.739H340.95L337.056 170.992ZM337.425 165.607H344.569V167.353H337.425V165.607Z" fill="white"/>
</g>
<defs>
<filter id="filter0_d_114_65" x="6.3512" y="37.4402" width="341.68" height="272.667" filterUnits="userSpaceOnUse" color-interpolation-filters="sRGB">
<feFlood flood-opacity="0" result="BackgroundImageFix"/>
<feColorMatrix in="SourceAlpha" type="matrix" values="0 0 0 0 0 0 0 0 0 0 0 0 0 0 0 0 0 0 127 0" result="hardAlpha"/>
<feOffset dy="4.68661"/>
<feGaussianBlur stdDeviation="2.85272"/>
<feComposite in2="hardAlpha" operator="out"/>
<feColorMatrix type="matrix" values="0 0 0 0 0 0 0 0 0 0 0 0 0 0 0 0 0 0 0.3 0"/>
<feBlend mode="normal" in2="BackgroundImageFix" result="effect1_dropShadow_114_65"/>
<feBlend mode="normal" in="SourceGraphic" in2="effect1_dropShadow_114_65" result="shape"/>
</filter>
<filter id="filter1_d_114_65" x="163.918" y="127.557" width="26.6934" height="26.6934" filterUnits="userSpaceOnUse" color-interpolation-filters="sRGB">
<feFlood flood-opacity="0" result="BackgroundImageFix"/>
<feColorMatrix in="SourceAlpha" type="matrix" values="0 0 0 0 0 0 0 0 0 0 0 0 0 0 0 0 0 0 127 0" result="hardAlpha"/>
<feMorphology radius="1.63013" operator="dilate" in="SourceAlpha" result="effect1_dropShadow_114_65"/>
<feOffset dy="2.24142"/>
<feGaussianBlur stdDeviation="2.13954"/>
<feComposite in2="hardAlpha" operator="out"/>
<feColorMatrix type="matrix" values="0 0 0 0 0 0 0 0 0 0 0 0 0 0 0 0 0 0 0.39 0"/>
<feBlend mode="normal" in2="BackgroundImageFix" result="effect1_dropShadow_114_65"/>
<feBlend mode="normal" in="SourceGraphic" in2="effect1_dropShadow_114_65" result="shape"/>
</filter>
<filter id="filter2_d_114_65" x="0.090795" y="286.903" width="26.6934" height="26.6934" filterUnits="userSpaceOnUse" color-interpolation-filters="sRGB">
<feFlood flood-opacity="0" result="BackgroundImageFix"/>
<feColorMatrix in="SourceAlpha" type="matrix" values="0 0 0 0 0 0 0 0 0 0 0 0 0 0 0 0 0 0 127 0" result="hardAlpha"/>
<feMorphology radius="1.63013" operator="dilate" in="SourceAlpha" result="effect1_dropShadow_114_65"/>
<feOffset dy="2.24142"/>
<feGaussianBlur stdDeviation="2.13954"/>
<feComposite in2="hardAlpha" operator="out"/>
<feColorMatrix type="matrix" values="0 0 0 0 0 0 0 0 0 0 0 0 0 0 0 0 0 0 0.39 0"/>
<feBlend mode="normal" in2="BackgroundImageFix" result="effect1_dropShadow_114_65"/>
<feBlend mode="normal" in="SourceGraphic" in2="effect1_dropShadow_114_65" result="shape"/>
</filter>
<filter id="filter3_d_114_65" x="321.225" y="138.765" width="39.5668" height="50.1991" filterUnits="userSpaceOnUse" color-interpolation-filters="sRGB">
<feFlood flood-opacity="0" result="BackgroundImageFix"/>
<feColorMatrix in="SourceAlpha" type="matrix" values="0 0 0 0 0 0 0 0 0 0 0 0 0 0 0 0 0 0 127 0" result="hardAlpha"/>
<feOffset dy="-3.66778"/>
<feGaussianBlur stdDeviation="3.5659"/>
<feComposite in2="hardAlpha" operator="out"/>
<feColorMatrix type="matrix" values="0 0 0 0 0 0 0 0 0 0 0 0 0 0 0 0 0 0 0.27 0"/>
<feBlend mode="normal" in2="BackgroundImageFix" result="effect1_dropShadow_114_65"/>
<feBlend mode="normal" in="SourceGraphic" in2="effect1_dropShadow_114_65" result="shape"/>
</filter>
<linearGradient id="paint0_linear_114_65" x1="113.701" y1="182.574" x2="113.701" y2="0" gradientUnits="userSpaceOnUse">
<stop stop-color="#7022D5"/>
<stop offset="1" stop-color="#0B0F73"/>
</linearGradient>
</defs>
</svg>
