<svg width="408" height="126" viewBox="0 0 408 126" fill="none" xmlns="http://www.w3.org/2000/svg">
<rect y="68.4648" width="407.735" height="25.2669" rx="12.6335" fill="url(#paint0_linear_114_50)"/>
<path d="M252.405 107.768H254.821V116.482C254.821 117.437 254.595 118.277 254.143 119.002C253.696 119.727 253.067 120.294 252.255 120.702C251.443 121.105 250.494 121.307 249.409 121.307C248.319 121.307 247.368 121.105 246.557 120.702C245.745 120.294 245.115 119.727 244.668 119.002C244.221 118.277 243.997 117.437 243.997 116.482V107.768H246.413V116.28C246.413 116.836 246.535 117.33 246.778 117.765C247.025 118.199 247.373 118.54 247.82 118.787C248.267 119.03 248.797 119.152 249.409 119.152C250.021 119.152 250.551 119.03 250.998 118.787C251.449 118.54 251.797 118.199 252.04 117.765C252.283 117.33 252.405 116.836 252.405 116.28V107.768ZM257.447 121.105V107.768H262.448C263.473 107.768 264.333 107.959 265.027 108.341C265.726 108.723 266.254 109.249 266.61 109.917C266.97 110.581 267.15 111.337 267.15 112.183C267.15 113.039 266.97 113.799 266.61 114.463C266.249 115.127 265.718 115.65 265.014 116.032C264.311 116.41 263.445 116.599 262.416 116.599H259.101V114.613H262.09C262.689 114.613 263.18 114.508 263.562 114.3C263.944 114.092 264.226 113.805 264.409 113.44C264.595 113.076 264.689 112.657 264.689 112.183C264.689 111.71 264.595 111.293 264.409 110.933C264.226 110.573 263.942 110.293 263.556 110.093C263.173 109.889 262.681 109.787 262.077 109.787H259.863V121.105H257.447Z" fill="white"/>
<path d="M224.335 87.8906V77.8876H226.692V87.8906H224.335ZM225.52 76.4679C225.147 76.4679 224.825 76.3441 224.556 76.0967C224.287 75.8449 224.152 75.5431 224.152 75.1914C224.152 74.8354 224.287 74.5337 224.556 74.2862C224.825 74.0344 225.147 73.9085 225.52 73.9085C225.898 73.9085 226.219 74.0344 226.484 74.2862C226.753 74.5337 226.888 74.8354 226.888 75.1914C226.888 75.5431 226.753 75.8449 226.484 76.0967C226.219 76.3441 225.898 76.4679 225.52 76.4679ZM231.474 82.0295V87.8906H229.117V77.8876H231.37V79.5873H231.487C231.717 79.0273 232.084 78.5822 232.588 78.2523C233.096 77.9223 233.723 77.7573 234.47 77.7573C235.16 77.7573 235.761 77.9049 236.274 78.2002C236.79 78.4954 237.19 78.9231 237.472 79.4831C237.759 80.0432 237.9 80.7226 237.895 81.5215V87.8906H235.538V81.8862C235.538 81.2176 235.364 80.6944 235.017 80.3167C234.674 79.939 234.198 79.7501 233.591 79.7501C233.178 79.7501 232.811 79.8413 232.49 80.0236C232.173 80.2017 231.923 80.46 231.741 80.7986C231.563 81.1373 231.474 81.5475 231.474 82.0295ZM244.841 91.6418V77.8876H247.159V79.5417H247.296C247.417 79.2986 247.589 79.0403 247.81 78.7668C248.032 78.4889 248.331 78.2523 248.709 78.0569C249.087 77.8572 249.569 77.7573 250.155 77.7573C250.928 77.7573 251.625 77.9549 252.245 78.35C252.871 78.7407 253.365 79.3203 253.73 80.0888C254.099 80.8529 254.284 81.7907 254.284 82.9021C254.284 84.0006 254.104 84.934 253.743 85.7025C253.383 86.4709 252.892 87.057 252.271 87.4608C251.651 87.8646 250.947 88.0665 250.161 88.0665C249.588 88.0665 249.113 87.9709 248.735 87.7799C248.357 87.5889 248.054 87.3588 247.823 87.0896C247.598 86.8161 247.422 86.5578 247.296 86.3146H247.198V91.6418H244.841ZM247.153 82.8891C247.153 83.536 247.244 84.1026 247.426 84.5888C247.613 85.0751 247.88 85.455 248.227 85.7285C248.579 85.9977 249.004 86.1323 249.504 86.1323C250.025 86.1323 250.461 85.9933 250.813 85.7155C251.164 85.4333 251.429 85.049 251.607 84.5628C251.789 84.0722 251.881 83.5143 251.881 82.8891C251.881 82.2683 251.792 81.7169 251.614 81.235C251.436 80.753 251.171 80.3753 250.819 80.1018C250.467 79.8283 250.029 79.6915 249.504 79.6915C249 79.6915 248.572 79.8239 248.221 80.0888C247.869 80.3536 247.602 80.7248 247.42 81.2024C247.242 81.68 247.153 82.2422 247.153 82.8891ZM256.303 87.8906V77.8876H258.588V79.5548H258.693C258.875 78.9773 259.188 78.5323 259.63 78.2197C260.078 77.9028 260.588 77.7443 261.161 77.7443C261.291 77.7443 261.437 77.7508 261.597 77.7638C261.762 77.7725 261.899 77.7877 262.007 77.8094V79.9781C261.908 79.9433 261.749 79.9129 261.532 79.8869C261.319 79.8565 261.113 79.8413 260.913 79.8413C260.484 79.8413 260.097 79.9346 259.754 80.1213C259.416 80.3037 259.148 80.5577 258.953 80.8833C258.758 81.2089 258.66 81.5845 258.66 82.0099V87.8906H256.303ZM267.525 88.086C266.548 88.086 265.702 87.8711 264.985 87.4413C264.269 87.0115 263.713 86.4101 263.318 85.6373C262.927 84.8645 262.732 83.9615 262.732 82.9282C262.732 81.8949 262.927 80.9897 263.318 80.2125C263.713 79.4354 264.269 78.8319 264.985 78.4021C265.702 77.9722 266.548 77.7573 267.525 77.7573C268.502 77.7573 269.349 77.9722 270.065 78.4021C270.781 78.8319 271.335 79.4354 271.726 80.2125C272.121 80.9897 272.318 81.8949 272.318 82.9282C272.318 83.9615 272.121 84.8645 271.726 85.6373C271.335 86.4101 270.781 87.0115 270.065 87.4413C269.349 87.8711 268.502 88.086 267.525 88.086ZM267.538 86.1974C268.068 86.1974 268.511 86.052 268.867 85.7611C269.223 85.4658 269.487 85.0708 269.661 84.5758C269.839 84.0809 269.928 83.5295 269.928 82.9217C269.928 82.3095 269.839 81.7559 269.661 81.261C269.487 80.7617 269.223 80.3645 268.867 80.0692C268.511 79.774 268.068 79.6264 267.538 79.6264C266.995 79.6264 266.544 79.774 266.184 80.0692C265.827 80.3645 265.56 80.7617 265.382 81.261C265.209 81.7559 265.122 82.3095 265.122 82.9217C265.122 83.5295 265.209 84.0809 265.382 84.5758C265.56 85.0708 265.827 85.4658 266.184 85.7611C266.544 86.052 266.995 86.1974 267.538 86.1974ZM279.386 77.8876V79.7111H273.473V77.8876H279.386ZM274.951 87.8906V76.9433C274.951 76.2703 275.09 75.7103 275.368 75.2631C275.65 74.8159 276.028 74.4816 276.501 74.2602C276.974 74.0388 277.499 73.928 278.077 73.928C278.485 73.928 278.847 73.9606 279.164 74.0257C279.481 74.0909 279.716 74.1495 279.868 74.2016L279.399 76.025C279.299 75.9946 279.173 75.9643 279.021 75.9339C278.869 75.8991 278.7 75.8818 278.513 75.8818C278.075 75.8818 277.764 75.9881 277.582 76.2009C277.404 76.4093 277.315 76.7088 277.315 77.0996V87.8906H274.951ZM281.232 87.8906V77.8876H283.59V87.8906H281.232ZM282.417 76.4679C282.044 76.4679 281.723 76.3441 281.453 76.0967C281.184 75.8449 281.05 75.5431 281.05 75.1914C281.05 74.8354 281.184 74.5337 281.453 74.2862C281.723 74.0344 282.044 73.9085 282.417 73.9085C282.795 73.9085 283.116 74.0344 283.381 74.2862C283.65 74.5337 283.785 74.8354 283.785 75.1914C283.785 75.5431 283.65 75.8449 283.381 76.0967C283.116 76.3441 282.795 76.4679 282.417 76.4679ZM291.009 77.8876V79.7111H285.258V77.8876H291.009ZM286.678 75.491H289.036V84.8819C289.036 85.1988 289.083 85.442 289.179 85.6113C289.279 85.7763 289.409 85.8891 289.57 85.9499C289.73 86.0107 289.908 86.0411 290.104 86.0411C290.251 86.0411 290.386 86.0302 290.507 86.0085C290.633 85.9868 290.729 85.9673 290.794 85.9499L291.191 87.7929C291.065 87.8364 290.885 87.8841 290.651 87.9362C290.42 87.9883 290.138 88.0187 289.804 88.0274C289.214 88.0448 288.682 87.9557 288.208 87.7604C287.735 87.5607 287.36 87.2524 287.082 86.8356C286.808 86.4188 286.674 85.8978 286.678 85.2726V75.491Z" fill="white"/>
<path d="M142.636 93.7324L12.6332 93.7324C5.65596 93.7324 -0.000243794 88.0762 -0.000243368 81.0989C-0.000242941 74.1217 5.65595 68.4655 12.6332 68.4655L142.636 68.4655L142.636 93.7324Z" fill="url(#paint1_linear_114_50)"/>
<path fill-rule="evenodd" clip-rule="evenodd" d="M159.726 67.1801C162.814 63.1199 164.668 57.925 164.668 52.2631C164.668 39.2664 154.901 28.7305 142.853 28.7305C130.804 28.7305 121.037 39.2664 121.037 52.2631C121.037 57.9245 122.89 63.1191 125.978 67.1792L142.853 93.7317L159.726 67.1801Z" fill="#5487EA"/>
<path d="M136.038 65.6406H132.24L140.773 41.9297H144.906L153.439 65.6406H149.641L142.938 46.2366H142.753L136.038 65.6406ZM136.674 56.3554H148.993V59.3656H136.674V56.3554Z" fill="white"/>
<path d="M116.135 21.7511V7.99696H118.454V9.65111H118.59C118.712 9.40798 118.883 9.14965 119.105 8.87613C119.326 8.59827 119.626 8.36165 120.003 8.16628C120.381 7.96657 120.863 7.86671 121.449 7.86671C122.222 7.86671 122.919 8.06425 123.54 8.45934C124.165 8.85008 124.66 9.42968 125.025 10.1981C125.394 10.9623 125.578 11.9001 125.578 13.0115C125.578 14.1099 125.398 15.0434 125.038 15.8118C124.677 16.5803 124.187 17.1664 123.566 17.5702C122.945 17.974 122.242 18.1758 121.456 18.1758C120.883 18.1758 120.407 18.0803 120.03 17.8893C119.652 17.6983 119.348 17.4682 119.118 17.199C118.892 16.9255 118.716 16.6671 118.59 16.424H118.493V21.7511H116.135ZM118.447 12.9985C118.447 13.6454 118.538 14.212 118.721 14.6982C118.907 15.1845 119.174 15.5644 119.522 15.8379C119.873 16.1071 120.299 16.2417 120.798 16.2417C121.319 16.2417 121.755 16.1027 122.107 15.8249C122.459 15.5427 122.724 15.1584 122.902 14.6722C123.084 14.1816 123.175 13.6237 123.175 12.9985C123.175 12.3776 123.086 11.8262 122.908 11.3443C122.73 10.8624 122.465 10.4847 122.114 10.2112C121.762 9.93765 121.323 9.80089 120.798 9.80089C120.294 9.80089 119.867 9.93331 119.515 10.1981C119.163 10.463 118.896 10.8342 118.714 11.3118C118.536 11.7893 118.447 12.3516 118.447 12.9985ZM127.597 18V7.99696H129.883V9.66413H129.987C130.169 9.0867 130.482 8.64168 130.925 8.32909C131.372 8.01215 131.882 7.85368 132.455 7.85368C132.585 7.85368 132.731 7.8602 132.892 7.87322C133.057 7.8819 133.193 7.8971 133.302 7.91881V10.0874C133.202 10.0527 133.043 10.0223 132.826 9.99626C132.614 9.96587 132.407 9.95068 132.208 9.95068C131.778 9.95068 131.392 10.044 131.049 10.2307C130.71 10.4131 130.443 10.667 130.248 10.9927C130.052 11.3183 129.954 11.6938 129.954 12.1193V18H127.597ZM134.868 18V7.99696H137.226V18H134.868ZM136.053 6.57725C135.68 6.57725 135.359 6.45352 135.089 6.20605C134.82 5.95423 134.686 5.65249 134.686 5.30082C134.686 4.94481 134.82 4.64307 135.089 4.3956C135.359 4.14379 135.68 4.01788 136.053 4.01788C136.431 4.01788 136.752 4.14379 137.017 4.3956C137.286 4.64307 137.421 4.94481 137.421 5.30082C137.421 5.65249 137.286 5.95423 137.017 6.20605C136.752 6.45352 136.431 6.57725 136.053 6.57725ZM144.013 18.1954C143.015 18.1954 142.157 17.9761 141.441 17.5376C140.729 17.0991 140.179 16.4935 139.793 15.7207C139.411 14.9435 139.22 14.0491 139.22 13.0376C139.22 12.0216 139.415 11.1251 139.806 10.3479C140.197 9.56644 140.748 8.95862 141.46 8.52446C142.177 8.08596 143.023 7.86671 144 7.86671C144.812 7.86671 145.53 8.01649 146.156 8.31606C146.785 8.61129 147.287 9.03026 147.66 9.57296C148.033 10.1113 148.246 10.7408 148.298 11.4616H146.045C145.954 10.9796 145.737 10.578 145.394 10.2568C145.055 9.93114 144.601 9.76833 144.033 9.76833C143.551 9.76833 143.127 9.89858 142.763 10.1591C142.398 10.4152 142.114 10.7843 141.91 11.2662C141.71 11.7481 141.61 12.3255 141.61 12.9985C141.61 13.6801 141.71 14.2662 141.91 14.7568C142.109 15.2431 142.389 15.6186 142.75 15.8835C143.114 16.144 143.542 16.2742 144.033 16.2742C144.38 16.2742 144.69 16.2091 144.964 16.0788C145.242 15.9443 145.474 15.7511 145.661 15.4992C145.847 15.2474 145.975 14.9413 146.045 14.581H148.298C148.242 15.2887 148.033 15.916 147.673 16.4631C147.313 17.0058 146.822 17.4313 146.201 17.7395C145.58 18.0434 144.851 18.1954 144.013 18.1954ZM154.662 18.1954C153.66 18.1954 152.793 17.987 152.064 17.5702C151.339 17.149 150.781 16.5542 150.39 15.7858C150 15.013 149.804 14.1034 149.804 13.0571C149.804 12.0281 150 11.1251 150.39 10.3479C150.785 9.56644 151.337 8.95862 152.044 8.52446C152.752 8.08596 153.584 7.86671 154.539 7.86671C155.155 7.86671 155.737 7.96657 156.284 8.16628C156.835 8.36165 157.322 8.66556 157.743 9.07801C158.168 9.49047 158.503 10.0158 158.746 10.654C158.989 11.2879 159.11 12.0433 159.11 12.9203V13.6432H150.911V12.0542H156.851C156.846 11.6027 156.749 11.2011 156.558 10.8494C156.367 10.4934 156.1 10.2133 155.757 10.0093C155.418 9.80523 155.023 9.7032 154.571 9.7032C154.089 9.7032 153.666 9.82043 153.301 10.0549C152.937 10.285 152.652 10.5889 152.448 10.9666C152.249 11.34 152.147 11.7503 152.142 12.1975V13.5846C152.142 14.1664 152.249 14.6657 152.461 15.0824C152.674 15.4949 152.971 15.8118 153.353 16.0333C153.736 16.2503 154.183 16.3589 154.695 16.3589C155.038 16.3589 155.348 16.3111 155.626 16.2156C155.904 16.1157 156.145 15.9703 156.349 15.7793C156.553 15.5882 156.707 15.3516 156.812 15.0694L159.013 15.3169C158.874 15.8987 158.609 16.4066 158.218 16.8408C157.832 17.2706 157.337 17.6049 156.733 17.8437C156.13 18.0781 155.44 18.1954 154.662 18.1954ZM171.053 4.66261V18H168.636V7.01358H168.558L165.439 9.00638V6.79216L168.754 4.66261H171.053Z" fill="white"/>
<defs>
<linearGradient id="paint0_linear_114_50" x1="0" y1="68.4648" x2="407.735" y2="68.4648" gradientUnits="userSpaceOnUse">
<stop offset="0.498828" stop-color="#3E6FCE"/>
<stop offset="1" stop-color="#7022D5"/>
</linearGradient>
<linearGradient id="paint1_linear_114_50" x1="8.13001" y1="93.7324" x2="142.636" y2="93.7324" gradientUnits="userSpaceOnUse">
<stop stop-color="#CE7A7A"/>
<stop offset="1" stop-color="#A32222"/>
</linearGradient>
</defs>
</svg>
