<svg width="114" height="114" viewBox="0 0 114 114" fill="none" xmlns="http://www.w3.org/2000/svg">
<path d="M73.4059 30.0258C68.6618 26.1294 62.7131 23.9997 56.5743 24C50.4277 23.9881 44.4691 26.1189 39.7235 30.0258C36.3376 32.7992 33.69 36.367 32.0166 40.4115C30.3432 44.456 29.6959 48.8517 30.1323 53.207C30.5687 57.5623 32.0753 61.742 34.5179 65.374C36.9606 69.0059 40.2634 71.9773 44.1323 74.0235C44.2279 74.3296 44.3235 74.6357 44.4383 74.98C44.8577 76.1413 45.4302 77.2414 46.1406 78.2512C46.6804 79.0121 47.4797 79.5496 48.388 79.7624C48.8847 79.8835 49.4005 79.9052 49.9057 79.8265C50.4109 79.7477 50.8955 79.5699 51.3318 79.3032C51.7681 79.0366 52.1474 78.6865 52.4481 78.2728C52.7487 77.8592 52.9647 77.3903 53.0836 76.893C53.3527 75.6882 53.4652 74.4537 53.4184 73.2201C53.3876 72.0352 53.2597 70.8547 53.0358 69.6907C52.9043 68.9071 52.5815 68.1681 52.096 67.5391C51.6106 66.9101 50.9775 66.4106 50.2529 66.0848H50.0998C46.5728 64.5438 43.6779 61.8442 41.8944 58.4331C40.8535 56.3271 40.2697 54.0248 40.1812 51.6773C40.0927 49.3297 40.5016 46.99 41.3809 44.8116C42.2603 42.6333 43.5904 40.6655 45.2838 39.0375C46.9772 37.4095 48.9957 36.158 51.2068 35.3652C53.4179 34.5724 55.7716 34.2562 58.1135 34.4374C60.4554 34.6185 62.7325 35.2929 64.7954 36.4163C66.8584 37.5397 68.6604 39.0867 70.0834 40.9558C71.5064 42.8249 72.5181 44.9738 73.0521 47.2615C73.8818 51.0538 73.3785 55.0164 71.6271 58.4809C69.8471 61.9678 66.952 64.759 63.4026 66.41H63.3356L62.9053 66.6205C62.7618 66.697 62.6279 66.7831 62.4941 66.8691L62.188 67.1083C62.057 67.2156 61.9325 67.3306 61.815 67.4526C61.4834 67.7833 61.2059 68.1642 60.9926 68.5812L60.8587 68.8299L60.7918 68.9925L60.6196 69.3368C60.5443 69.5241 60.4805 69.7157 60.4284 69.9107C60.2946 70.4527 60.1925 71.002 60.1223 71.5559C60.0363 72.5123 59.998 73.3158 59.9693 74.1192L59.9024 78.6911C59.9024 80.1737 59.8545 81.6466 59.8354 83.11C59.792 84.6398 59.4236 86.1429 58.7548 87.5194V87.5194C58.2912 88.4243 58.0727 89.4349 58.1207 90.4505C58.1688 91.4661 58.4818 92.4515 59.0287 93.3086C59.5756 94.1657 60.3373 94.8647 61.2381 95.3361C62.1389 95.8075 63.1474 96.0349 64.1632 95.9957C65.1791 95.9564 66.167 95.6519 67.0287 95.1123C67.8904 94.5728 68.5959 93.8171 69.0751 92.9203C69.5542 92.0236 69.7903 91.017 69.7599 90.0007C69.7294 88.9843 69.4335 87.9937 68.9016 87.1272C68.1322 85.8736 67.6762 84.453 67.5722 82.9857C67.4957 81.5892 67.4383 80.2024 67.4862 78.8346C67.5044 77.5045 67.6227 76.1776 67.84 74.8652C67.8878 74.5783 67.9452 74.3105 68.0026 74.0522C73.0654 71.6876 77.2308 67.753 79.8804 62.8328C82.7798 57.4637 83.7195 51.2524 82.538 45.2657C81.3565 39.279 78.1277 33.8905 73.4059 30.0258V30.0258Z" fill="#1B314F"/>
<path d="M63.3856 57.401L56.6338 50.6483L49.8725 43.886L49.3274 43.3408C47.4589 45.2914 46.4287 47.8965 46.4576 50.5977C46.4866 53.2988 47.5723 55.8812 49.4822 57.7913C51.3921 59.7014 53.9741 60.7873 56.6749 60.8163C59.3757 60.8452 61.9804 59.8149 63.9307 57.9462L63.3856 57.401Z" fill="#1B314F"/>
<circle cx="57" cy="57" r="53" stroke="#1B314F" stroke-width="8"/>
</svg>
