<svg width="342" height="323" viewBox="0 0 342 323" fill="none" xmlns="http://www.w3.org/2000/svg">
<circle cx="172" cy="193" r="124" stroke="#9299B2" stroke-width="2"/>
<circle cx="172" cy="57" r="53.5" fill="#1B314F" stroke="#F7F7F7" stroke-width="7"/>
<circle cx="171" cy="193" r="53.5" fill="#1B314F" stroke="#F7F7F7" stroke-width="7"/>
<circle cx="57" cy="266" r="53.5" fill="#1B314F" stroke="#F7F7F7" stroke-width="7"/>
<circle cx="285" cy="266" r="53.5" fill="#1B314F" stroke="#F7F7F7" stroke-width="7"/>
<path d="M172.707 116.293C172.317 115.902 171.683 115.902 171.293 116.293L164.929 122.657C164.538 123.047 164.538 123.681 164.929 124.071C165.319 124.462 165.953 124.462 166.343 124.071L172 118.414L177.657 124.071C178.047 124.462 178.681 124.462 179.071 124.071C179.462 123.681 179.462 123.047 179.071 122.657L172.707 116.293ZM173 135L173 117L171 117L171 135L173 135Z" fill="#9299B2"/>
<path d="M230 243C230.552 243 231 242.552 231 242V233C231 232.448 230.552 232 230 232C229.448 232 229 232.448 229 233V241H221C220.448 241 220 241.448 220 242C220 242.552 220.448 243 221 243H230ZM216.293 229.707L229.293 242.707L230.707 241.293L217.707 228.293L216.293 229.707Z" fill="#9299B2"/>
<path d="M109 241C109 241.552 109.448 242 110 242H119C119.552 242 120 241.552 120 241C120 240.448 119.552 240 119 240H111V232C111 231.448 110.552 231 110 231C109.448 231 109 231.448 109 232V241ZM124.293 225.293L109.293 240.293L110.707 241.707L125.707 226.707L124.293 225.293Z" fill="#9299B2"/>
<path fill-rule="evenodd" clip-rule="evenodd" d="M120.266 79.0611L109.641 75L109.06 76.5179L119.686 80.579L115.625 91.2044L117.143 91.7845L121.204 81.1592L121.784 79.6413L120.266 79.0611Z" fill="#9299B2"/>
<path fill-rule="evenodd" clip-rule="evenodd" d="M49.9841 209.077L57.3203 200.384L56.0784 199.336L48.7423 208.029L40.0491 200.693L39.0011 201.935L47.6942 209.271L48.9361 210.319L49.9841 209.077Z" fill="#9299B2"/>
<path fill-rule="evenodd" clip-rule="evenodd" d="M222.423 80.9345L225.367 91.9219L226.937 91.5013L223.993 80.5139L234.98 77.5698L234.56 76.0002L223.572 78.9443L222.003 79.3648L222.423 80.9345Z" fill="#9299B2"/>
<path fill-rule="evenodd" clip-rule="evenodd" d="M103.338 297.284L105.695 308.412L107.285 308.075L104.928 296.947L116.056 294.59L115.719 293L104.591 295.358L103.001 295.694L103.338 297.284Z" fill="#9299B2"/>
<path fill-rule="evenodd" clip-rule="evenodd" d="M237.578 297.206L226.664 294L226.206 295.559L237.12 298.765L233.914 309.679L235.473 310.137L238.679 299.223L239.137 297.664L237.578 297.206Z" fill="#9299B2"/>
<path fill-rule="evenodd" clip-rule="evenodd" d="M295.853 210.274L304.352 202.713L303.271 201.499L294.773 209.059L287.212 200.561L285.998 201.641L293.559 210.14L294.639 211.354L295.853 210.274Z" fill="#9299B2"/>
<path d="M128.804 61.108C128.5 61.108 128.268 61.024 128.108 60.856C127.948 60.688 127.868 60.452 127.868 60.148V54.076H125.744C125.224 54.076 124.964 53.82 124.964 53.308C124.964 52.796 125.224 52.54 125.744 52.54H131.852C132.372 52.54 132.632 52.796 132.632 53.308C132.632 53.82 132.372 54.076 131.852 54.076H129.728V60.148C129.728 60.452 129.648 60.688 129.488 60.856C129.336 61.024 129.108 61.108 128.804 61.108ZM134.37 61.108C134.066 61.108 133.834 61.024 133.674 60.856C133.514 60.688 133.434 60.452 133.434 60.148V53.392C133.434 52.752 133.746 52.432 134.37 52.432C134.986 52.432 135.294 52.752 135.294 53.392V55.936H139.23V53.392C139.23 52.752 139.538 52.432 140.154 52.432C140.778 52.432 141.09 52.752 141.09 53.392V60.148C141.09 60.452 141.01 60.688 140.85 60.856C140.69 61.024 140.458 61.108 140.154 61.108C139.858 61.108 139.63 61.024 139.47 60.856C139.31 60.688 139.23 60.452 139.23 60.148V57.484H135.294V60.148C135.294 60.788 134.986 61.108 134.37 61.108ZM143.037 61.108C142.701 61.108 142.461 60.996 142.317 60.772C142.173 60.548 142.177 60.272 142.329 59.944L145.401 53.212C145.529 52.94 145.681 52.744 145.857 52.624C146.033 52.496 146.237 52.432 146.469 52.432C146.701 52.432 146.905 52.496 147.081 52.624C147.257 52.744 147.405 52.94 147.525 53.212L150.621 59.944C150.773 60.28 150.777 60.56 150.633 60.784C150.497 61 150.273 61.108 149.961 61.108C149.689 61.108 149.477 61.044 149.325 60.916C149.181 60.788 149.053 60.588 148.941 60.316L148.437 59.164H144.489L143.997 60.316C143.877 60.596 143.749 60.8 143.613 60.928C143.477 61.048 143.285 61.108 143.037 61.108ZM146.445 54.52L145.113 57.712H147.825L146.469 54.52H146.445ZM152.78 61C152.468 61 152.232 60.92 152.072 60.76C151.912 60.592 151.832 60.356 151.832 60.052V53.464C151.832 53.16 151.912 52.928 152.072 52.768C152.232 52.6 152.464 52.516 152.768 52.516C153.384 52.516 153.692 52.832 153.692 53.464V59.428H156.908C157.444 59.428 157.712 59.688 157.712 60.208C157.712 60.736 157.444 61 156.908 61H152.78ZM159.683 61C159.035 61 158.711 60.676 158.711 60.028V53.512C158.711 52.864 159.035 52.54 159.683 52.54H163.871C164.359 52.54 164.603 52.78 164.603 53.26C164.603 53.748 164.359 53.992 163.871 53.992H160.487V55.972H163.595C164.091 55.972 164.339 56.216 164.339 56.704C164.339 57.192 164.091 57.436 163.595 57.436H160.487V59.548H163.871C164.359 59.548 164.603 59.788 164.603 60.268C164.603 60.756 164.359 61 163.871 61H159.683ZM168.884 61.132C168.372 61.132 167.86 61.076 167.348 60.964C166.836 60.852 166.392 60.688 166.016 60.472C165.792 60.352 165.652 60.192 165.596 59.992C165.54 59.784 165.552 59.584 165.632 59.392C165.712 59.2 165.84 59.064 166.016 58.984C166.192 58.904 166.404 58.924 166.652 59.044C166.972 59.228 167.328 59.364 167.72 59.452C168.112 59.54 168.5 59.584 168.884 59.584C169.46 59.584 169.872 59.496 170.12 59.32C170.376 59.136 170.504 58.908 170.504 58.636C170.504 58.404 170.416 58.22 170.24 58.084C170.064 57.948 169.756 57.832 169.316 57.736L167.96 57.448C166.448 57.128 165.692 56.344 165.692 55.096C165.692 54.56 165.836 54.092 166.124 53.692C166.412 53.284 166.812 52.968 167.324 52.744C167.844 52.52 168.444 52.408 169.124 52.408C169.572 52.408 170.012 52.464 170.444 52.576C170.876 52.68 171.256 52.836 171.584 53.044C171.784 53.164 171.908 53.32 171.956 53.512C172.004 53.704 171.988 53.888 171.908 54.064C171.836 54.24 171.708 54.364 171.524 54.436C171.348 54.508 171.128 54.48 170.864 54.352C170.6 54.216 170.32 54.116 170.024 54.052C169.728 53.988 169.424 53.956 169.112 53.956C168.608 53.956 168.216 54.056 167.936 54.256C167.664 54.448 167.528 54.7 167.528 55.012C167.528 55.244 167.612 55.432 167.78 55.576C167.948 55.72 168.24 55.836 168.656 55.924L170.012 56.212C171.564 56.548 172.34 57.308 172.34 58.492C172.34 59.02 172.196 59.484 171.908 59.884C171.628 60.276 171.228 60.584 170.708 60.808C170.196 61.024 169.588 61.132 168.884 61.132ZM181.003 61.132C180.091 61.132 179.311 60.952 178.663 60.592C178.015 60.232 177.515 59.728 177.163 59.08C176.819 58.424 176.647 57.652 176.647 56.764C176.647 55.884 176.819 55.12 177.163 54.472C177.515 53.816 178.015 53.308 178.663 52.948C179.311 52.588 180.091 52.408 181.003 52.408C181.403 52.408 181.807 52.46 182.215 52.564C182.631 52.668 182.991 52.808 183.295 52.984C183.543 53.128 183.695 53.308 183.751 53.524C183.807 53.74 183.787 53.944 183.691 54.136C183.603 54.328 183.463 54.464 183.271 54.544C183.079 54.624 182.863 54.596 182.623 54.46C182.383 54.316 182.131 54.212 181.867 54.148C181.603 54.084 181.335 54.052 181.063 54.052C180.255 54.052 179.643 54.288 179.227 54.76C178.819 55.224 178.615 55.892 178.615 56.764C178.615 57.636 178.819 58.308 179.227 58.78C179.643 59.252 180.255 59.488 181.063 59.488C181.319 59.488 181.579 59.456 181.843 59.392C182.115 59.328 182.375 59.228 182.623 59.092C182.879 58.956 183.103 58.928 183.295 59.008C183.487 59.08 183.627 59.208 183.715 59.392C183.811 59.568 183.835 59.764 183.787 59.98C183.739 60.188 183.603 60.36 183.379 60.496C183.075 60.696 182.707 60.852 182.275 60.964C181.851 61.076 181.427 61.132 181.003 61.132ZM187.356 61.132C186.724 61.132 186.172 61.008 185.7 60.76C185.236 60.504 184.876 60.148 184.62 59.692C184.364 59.228 184.236 58.68 184.236 58.048C184.236 57.424 184.364 56.884 184.62 56.428C184.876 55.964 185.236 55.608 185.7 55.36C186.172 55.112 186.724 54.988 187.356 54.988C187.988 54.988 188.536 55.112 189 55.36C189.472 55.608 189.836 55.964 190.092 56.428C190.356 56.884 190.488 57.424 190.488 58.048C190.488 58.68 190.356 59.228 190.092 59.692C189.836 60.148 189.472 60.504 189 60.76C188.536 61.008 187.988 61.132 187.356 61.132ZM187.356 59.776C187.74 59.776 188.052 59.636 188.292 59.356C188.54 59.076 188.664 58.64 188.664 58.048C188.664 57.464 188.54 57.036 188.292 56.764C188.052 56.484 187.74 56.344 187.356 56.344C186.972 56.344 186.66 56.484 186.42 56.764C186.18 57.036 186.06 57.464 186.06 58.048C186.06 58.64 186.18 59.076 186.42 59.356C186.66 59.636 186.972 59.776 187.356 59.776ZM193.763 61.132C193.011 61.132 192.455 60.924 192.095 60.508C191.743 60.092 191.567 59.468 191.567 58.636V55.924C191.567 55.316 191.867 55.012 192.467 55.012C193.075 55.012 193.379 55.316 193.379 55.924V58.684C193.379 59.38 193.679 59.728 194.279 59.728C194.623 59.728 194.903 59.608 195.119 59.368C195.343 59.12 195.455 58.796 195.455 58.396V55.924C195.455 55.316 195.755 55.012 196.355 55.012C196.963 55.012 197.267 55.316 197.267 55.924V60.184C197.267 60.8 196.975 61.108 196.391 61.108C196.103 61.108 195.883 61.028 195.731 60.868C195.579 60.708 195.503 60.484 195.503 60.196C195.111 60.82 194.531 61.132 193.763 61.132ZM199.581 61.108C198.973 61.108 198.669 60.8 198.669 60.184V55.924C198.669 55.316 198.965 55.012 199.557 55.012C200.149 55.012 200.445 55.316 200.445 55.924V55.972C200.645 55.652 200.913 55.408 201.249 55.24C201.585 55.072 201.961 54.988 202.377 54.988C203.073 54.988 203.593 55.192 203.937 55.6C204.281 56 204.453 56.62 204.453 57.46V60.184C204.453 60.8 204.149 61.108 203.541 61.108C203.253 61.108 203.029 61.028 202.869 60.868C202.717 60.708 202.641 60.48 202.641 60.184V57.544C202.641 57.136 202.565 56.844 202.413 56.668C202.261 56.484 202.037 56.392 201.741 56.392C201.357 56.392 201.049 56.512 200.817 56.752C200.593 56.992 200.481 57.312 200.481 57.712V60.184C200.481 60.8 200.181 61.108 199.581 61.108ZM208.673 61.132C208.033 61.132 207.473 61.008 206.993 60.76C206.521 60.504 206.157 60.144 205.901 59.68C205.645 59.216 205.517 58.668 205.517 58.036C205.517 57.404 205.645 56.86 205.901 56.404C206.157 55.948 206.521 55.6 206.993 55.36C207.473 55.112 208.033 54.988 208.673 54.988C208.921 54.988 209.185 55.02 209.465 55.084C209.753 55.14 210.029 55.24 210.293 55.384C210.493 55.48 210.617 55.616 210.665 55.792C210.713 55.96 210.701 56.128 210.629 56.296C210.565 56.464 210.457 56.588 210.305 56.668C210.161 56.74 209.989 56.724 209.789 56.62C209.469 56.452 209.157 56.368 208.853 56.368C208.381 56.368 208.013 56.516 207.749 56.812C207.493 57.1 207.365 57.512 207.365 58.048C207.365 58.576 207.493 58.992 207.749 59.296C208.013 59.592 208.381 59.74 208.853 59.74C208.997 59.74 209.149 59.724 209.309 59.692C209.469 59.652 209.629 59.588 209.789 59.5C209.989 59.396 210.161 59.384 210.305 59.464C210.457 59.544 210.561 59.668 210.617 59.836C210.673 59.996 210.677 60.164 210.629 60.34C210.581 60.516 210.461 60.652 210.269 60.748C209.997 60.884 209.725 60.98 209.453 61.036C209.181 61.1 208.921 61.132 208.673 61.132ZM212.448 54.028C212.112 54.028 211.852 53.952 211.668 53.8C211.492 53.64 211.404 53.416 211.404 53.128C211.404 52.832 211.492 52.608 211.668 52.456C211.852 52.296 212.112 52.216 212.448 52.216C213.136 52.216 213.48 52.52 213.48 53.128C213.48 53.728 213.136 54.028 212.448 54.028ZM212.448 61.096C212.152 61.096 211.924 61.012 211.764 60.844C211.612 60.668 211.536 60.424 211.536 60.112V56.008C211.536 55.344 211.84 55.012 212.448 55.012C212.736 55.012 212.956 55.1 213.108 55.276C213.268 55.444 213.348 55.688 213.348 56.008V60.112C213.348 60.424 213.272 60.668 213.12 60.844C212.968 61.012 212.744 61.096 212.448 61.096ZM216.871 61.132C215.455 61.132 214.747 60.344 214.747 58.768V53.356C214.747 52.74 215.051 52.432 215.659 52.432C216.259 52.432 216.559 52.74 216.559 53.356V58.696C216.559 59.024 216.627 59.268 216.763 59.428C216.907 59.58 217.095 59.656 217.327 59.656C217.391 59.656 217.451 59.652 217.507 59.644C217.571 59.636 217.631 59.632 217.687 59.632C217.815 59.624 217.903 59.664 217.951 59.752C218.007 59.84 218.035 60.02 218.035 60.292C218.035 60.756 217.839 61.02 217.447 61.084C217.367 61.092 217.275 61.1 217.171 61.108C217.067 61.124 216.967 61.132 216.871 61.132Z" fill="#F7F7F7"/>
<path d="M247.788 270.108C247.484 270.108 247.252 270.024 247.092 269.856C246.932 269.688 246.852 269.452 246.852 269.148V262.488C246.852 261.856 247.168 261.54 247.8 261.54H250.716C251.66 261.54 252.388 261.78 252.9 262.26C253.412 262.732 253.668 263.392 253.668 264.24C253.668 265.088 253.412 265.752 252.9 266.232C252.388 266.712 251.66 266.952 250.716 266.952H248.712V269.148C248.712 269.452 248.632 269.688 248.472 269.856C248.32 270.024 248.092 270.108 247.788 270.108ZM248.712 265.512H250.404C251.388 265.512 251.88 265.088 251.88 264.24C251.88 263.408 251.388 262.992 250.404 262.992H248.712V265.512ZM255.484 270.108C254.86 270.108 254.548 269.8 254.548 269.184V264.924C254.548 264.316 254.844 264.012 255.436 264.012C256.028 264.012 256.324 264.316 256.324 264.924V265.14C256.612 264.428 257.208 264.044 258.112 263.988C258.312 263.972 258.464 264.024 258.568 264.144C258.68 264.256 258.74 264.444 258.748 264.708C258.764 264.956 258.712 265.152 258.592 265.296C258.48 265.44 258.288 265.528 258.016 265.56L257.74 265.584C256.844 265.672 256.396 266.128 256.396 266.952V269.184C256.396 269.8 256.092 270.108 255.484 270.108ZM262.219 270.132C261.587 270.132 261.035 270.008 260.563 269.76C260.099 269.504 259.739 269.148 259.483 268.692C259.227 268.228 259.099 267.68 259.099 267.048C259.099 266.424 259.227 265.884 259.483 265.428C259.739 264.964 260.099 264.608 260.563 264.36C261.035 264.112 261.587 263.988 262.219 263.988C262.851 263.988 263.399 264.112 263.863 264.36C264.335 264.608 264.699 264.964 264.955 265.428C265.219 265.884 265.351 266.424 265.351 267.048C265.351 267.68 265.219 268.228 264.955 268.692C264.699 269.148 264.335 269.504 263.863 269.76C263.399 270.008 262.851 270.132 262.219 270.132ZM262.219 268.776C262.603 268.776 262.915 268.636 263.155 268.356C263.403 268.076 263.527 267.64 263.527 267.048C263.527 266.464 263.403 266.036 263.155 265.764C262.915 265.484 262.603 265.344 262.219 265.344C261.835 265.344 261.523 265.484 261.283 265.764C261.043 266.036 260.923 266.464 260.923 267.048C260.923 267.64 261.043 268.076 261.283 268.356C261.523 268.636 261.835 268.776 262.219 268.776ZM269.287 270.132C267.631 270.132 266.803 269.328 266.803 267.72V265.464H266.299C265.827 265.464 265.591 265.24 265.591 264.792C265.591 264.336 265.827 264.108 266.299 264.108H266.803V263.196C266.803 262.58 267.107 262.272 267.715 262.272C268.315 262.272 268.615 262.58 268.615 263.196V264.108H269.755C270.219 264.108 270.451 264.336 270.451 264.792C270.451 265.24 270.219 265.464 269.755 265.464H268.615V267.648C268.615 267.984 268.691 268.236 268.843 268.404C269.003 268.572 269.255 268.656 269.599 268.656C269.719 268.656 269.831 268.644 269.935 268.62C270.039 268.596 270.135 268.58 270.223 268.572C270.335 268.564 270.427 268.6 270.499 268.68C270.571 268.76 270.607 268.924 270.607 269.172C270.607 269.372 270.575 269.544 270.511 269.688C270.447 269.824 270.335 269.924 270.175 269.988C270.071 270.028 269.927 270.06 269.743 270.084C269.567 270.116 269.415 270.132 269.287 270.132ZM274.02 270.132C273.388 270.132 272.836 270.008 272.364 269.76C271.9 269.504 271.54 269.148 271.284 268.692C271.028 268.228 270.9 267.68 270.9 267.048C270.9 266.424 271.028 265.884 271.284 265.428C271.54 264.964 271.9 264.608 272.364 264.36C272.836 264.112 273.388 263.988 274.02 263.988C274.652 263.988 275.2 264.112 275.664 264.36C276.136 264.608 276.5 264.964 276.756 265.428C277.02 265.884 277.152 266.424 277.152 267.048C277.152 267.68 277.02 268.228 276.756 268.692C276.5 269.148 276.136 269.504 275.664 269.76C275.2 270.008 274.652 270.132 274.02 270.132ZM274.02 268.776C274.404 268.776 274.716 268.636 274.956 268.356C275.204 268.076 275.328 267.64 275.328 267.048C275.328 266.464 275.204 266.036 274.956 265.764C274.716 265.484 274.404 265.344 274.02 265.344C273.636 265.344 273.324 265.484 273.084 265.764C272.844 266.036 272.724 266.464 272.724 267.048C272.724 267.64 272.844 268.076 273.084 268.356C273.324 268.636 273.636 268.776 274.02 268.776ZM281.123 270.132C280.483 270.132 279.923 270.008 279.443 269.76C278.971 269.504 278.607 269.144 278.351 268.68C278.095 268.216 277.967 267.668 277.967 267.036C277.967 266.404 278.095 265.86 278.351 265.404C278.607 264.948 278.971 264.6 279.443 264.36C279.923 264.112 280.483 263.988 281.123 263.988C281.371 263.988 281.635 264.02 281.915 264.084C282.203 264.14 282.479 264.24 282.743 264.384C282.943 264.48 283.067 264.616 283.115 264.792C283.163 264.96 283.151 265.128 283.079 265.296C283.015 265.464 282.907 265.588 282.755 265.668C282.611 265.74 282.439 265.724 282.239 265.62C281.919 265.452 281.607 265.368 281.303 265.368C280.831 265.368 280.463 265.516 280.199 265.812C279.943 266.1 279.815 266.512 279.815 267.048C279.815 267.576 279.943 267.992 280.199 268.296C280.463 268.592 280.831 268.74 281.303 268.74C281.447 268.74 281.599 268.724 281.759 268.692C281.919 268.652 282.079 268.588 282.239 268.5C282.439 268.396 282.611 268.384 282.755 268.464C282.907 268.544 283.011 268.668 283.067 268.836C283.123 268.996 283.127 269.164 283.079 269.34C283.031 269.516 282.911 269.652 282.719 269.748C282.447 269.884 282.175 269.98 281.903 270.036C281.631 270.1 281.371 270.132 281.123 270.132ZM286.7 270.132C286.068 270.132 285.516 270.008 285.044 269.76C284.58 269.504 284.22 269.148 283.964 268.692C283.708 268.228 283.58 267.68 283.58 267.048C283.58 266.424 283.708 265.884 283.964 265.428C284.22 264.964 284.58 264.608 285.044 264.36C285.516 264.112 286.068 263.988 286.7 263.988C287.332 263.988 287.88 264.112 288.344 264.36C288.816 264.608 289.18 264.964 289.436 265.428C289.7 265.884 289.832 266.424 289.832 267.048C289.832 267.68 289.7 268.228 289.436 268.692C289.18 269.148 288.816 269.504 288.344 269.76C287.88 270.008 287.332 270.132 286.7 270.132ZM286.7 268.776C287.084 268.776 287.396 268.636 287.636 268.356C287.884 268.076 288.008 267.64 288.008 267.048C288.008 266.464 287.884 266.036 287.636 265.764C287.396 265.484 287.084 265.344 286.7 265.344C286.316 265.344 286.004 265.484 285.764 265.764C285.524 266.036 285.404 266.464 285.404 267.048C285.404 267.64 285.524 268.076 285.764 268.356C286.004 268.636 286.316 268.776 286.7 268.776ZM293.058 270.132C291.642 270.132 290.934 269.344 290.934 267.768V262.356C290.934 261.74 291.238 261.432 291.846 261.432C292.446 261.432 292.746 261.74 292.746 262.356V267.696C292.746 268.024 292.814 268.268 292.95 268.428C293.094 268.58 293.282 268.656 293.514 268.656C293.578 268.656 293.638 268.652 293.694 268.644C293.758 268.636 293.818 268.632 293.874 268.632C294.002 268.624 294.09 268.664 294.138 268.752C294.194 268.84 294.222 269.02 294.222 269.292C294.222 269.756 294.026 270.02 293.634 270.084C293.554 270.092 293.462 270.1 293.358 270.108C293.254 270.124 293.154 270.132 293.058 270.132ZM299.41 270C298.762 270 298.438 269.676 298.438 269.028V262.512C298.438 261.864 298.762 261.54 299.41 261.54H301.75C303.19 261.54 304.306 261.908 305.098 262.644C305.89 263.372 306.286 264.412 306.286 265.764C306.286 267.116 305.89 268.16 305.098 268.896C304.306 269.632 303.19 270 301.75 270H299.41ZM300.298 268.476H301.642C303.442 268.476 304.342 267.572 304.342 265.764C304.342 263.964 303.442 263.064 301.642 263.064H300.298V268.476ZM307.772 270.108C307.436 270.108 307.196 269.996 307.052 269.772C306.908 269.548 306.912 269.272 307.064 268.944L310.136 262.212C310.264 261.94 310.416 261.744 310.592 261.624C310.768 261.496 310.972 261.432 311.204 261.432C311.436 261.432 311.64 261.496 311.816 261.624C311.992 261.744 312.14 261.94 312.26 262.212L315.356 268.944C315.508 269.28 315.512 269.56 315.368 269.784C315.232 270 315.008 270.108 314.696 270.108C314.424 270.108 314.212 270.044 314.06 269.916C313.916 269.788 313.788 269.588 313.676 269.316L313.172 268.164H309.224L308.732 269.316C308.612 269.596 308.484 269.8 308.348 269.928C308.212 270.048 308.02 270.108 307.772 270.108ZM311.18 263.52L309.848 266.712H312.56L311.204 263.52H311.18ZM320.292 270.132C319.46 270.132 318.728 269.952 318.096 269.592C317.472 269.224 316.984 268.716 316.632 268.068C316.288 267.412 316.116 266.644 316.116 265.764C316.116 264.884 316.288 264.12 316.632 263.472C316.984 262.816 317.472 262.308 318.096 261.948C318.72 261.588 319.452 261.408 320.292 261.408C321.132 261.408 321.864 261.588 322.488 261.948C323.12 262.308 323.608 262.816 323.952 263.472C324.304 264.12 324.48 264.88 324.48 265.752C324.48 266.632 324.304 267.4 323.952 268.056C323.608 268.712 323.12 269.224 322.488 269.592C321.864 269.952 321.132 270.132 320.292 270.132ZM320.292 268.548C320.996 268.548 321.544 268.304 321.936 267.816C322.336 267.32 322.536 266.636 322.536 265.764C322.536 264.884 322.34 264.204 321.948 263.724C321.556 263.236 321.004 262.992 320.292 262.992C319.596 262.992 319.048 263.236 318.648 263.724C318.256 264.204 318.06 264.884 318.06 265.764C318.06 266.636 318.256 267.32 318.648 267.816C319.048 268.304 319.596 268.548 320.292 268.548Z" fill="#F7F7F7"/>
<path d="M19.804 270.108C19.5 270.108 19.268 270.024 19.108 269.856C18.948 269.688 18.868 269.452 18.868 269.148V263.076H16.744C16.224 263.076 15.964 262.82 15.964 262.308C15.964 261.796 16.224 261.54 16.744 261.54H22.852C23.372 261.54 23.632 261.796 23.632 262.308C23.632 262.82 23.372 263.076 22.852 263.076H20.728V269.148C20.728 269.452 20.648 269.688 20.488 269.856C20.336 270.024 20.108 270.108 19.804 270.108ZM24.2648 270.108C23.6408 270.108 23.3288 269.8 23.3288 269.184V264.924C23.3288 264.316 23.6248 264.012 24.2168 264.012C24.8088 264.012 25.1048 264.316 25.1048 264.924V265.14C25.3928 264.428 25.9888 264.044 26.8928 263.988C27.0928 263.972 27.2448 264.024 27.3488 264.144C27.4608 264.256 27.5208 264.444 27.5288 264.708C27.5448 264.956 27.4928 265.152 27.3728 265.296C27.2608 265.44 27.0688 265.528 26.7968 265.56L26.5208 265.584C25.6248 265.672 25.1768 266.128 25.1768 266.952V269.184C25.1768 269.8 24.8728 270.108 24.2648 270.108ZM31.2287 270.132C30.5327 270.132 29.9327 270.008 29.4287 269.76C28.9327 269.504 28.5487 269.148 28.2767 268.692C28.0127 268.228 27.8807 267.684 27.8807 267.06C27.8807 266.452 28.0087 265.92 28.2647 265.464C28.5287 265 28.8847 264.64 29.3327 264.384C29.7887 264.12 30.3127 263.988 30.9047 263.988C31.7607 263.988 32.4407 264.26 32.9447 264.804C33.4487 265.34 33.7007 266.068 33.7007 266.988C33.7007 267.292 33.5127 267.444 33.1367 267.444H29.6087C29.6727 267.908 29.8407 268.248 30.1127 268.464C30.3927 268.672 30.7767 268.776 31.2647 268.776C31.4567 268.776 31.6727 268.756 31.9127 268.716C32.1607 268.668 32.3967 268.588 32.6207 268.476C32.8527 268.364 33.0487 268.344 33.2087 268.416C33.3687 268.48 33.4767 268.592 33.5327 268.752C33.5967 268.912 33.5967 269.08 33.5327 269.256C33.4767 269.424 33.3447 269.564 33.1367 269.676C32.8567 269.828 32.5447 269.94 32.2007 270.012C31.8647 270.092 31.5407 270.132 31.2287 270.132ZM30.9767 265.188C30.5927 265.188 30.2807 265.304 30.0407 265.536C29.8087 265.768 29.6647 266.092 29.6087 266.508H32.2007C32.1527 265.628 31.7447 265.188 30.9767 265.188ZM36.7466 270.132C36.3066 270.132 35.9186 270.048 35.5826 269.88C35.2466 269.712 34.9786 269.484 34.7786 269.196C34.5866 268.908 34.4906 268.584 34.4906 268.224C34.4906 267.8 34.6026 267.46 34.8266 267.204C35.0506 266.948 35.4146 266.768 35.9186 266.664C36.4226 266.552 37.0906 266.496 37.9226 266.496H38.3546V266.292C38.3546 265.94 38.2746 265.692 38.1146 265.548C37.9546 265.396 37.6826 265.32 37.2986 265.32C37.0826 265.32 36.8466 265.348 36.5906 265.404C36.3346 265.452 36.0586 265.536 35.7626 265.656C35.5386 265.752 35.3506 265.76 35.1986 265.68C35.0466 265.592 34.9466 265.464 34.8986 265.296C34.8506 265.12 34.8626 264.944 34.9346 264.768C35.0146 264.592 35.1666 264.464 35.3906 264.384C35.7666 264.24 36.1186 264.14 36.4466 264.084C36.7826 264.02 37.0906 263.988 37.3706 263.988C38.2826 263.988 38.9626 264.196 39.4106 264.612C39.8586 265.02 40.0826 265.656 40.0826 266.52V269.184C40.0826 269.8 39.8026 270.108 39.2426 270.108C38.6746 270.108 38.3906 269.8 38.3906 269.184V269.112C38.2706 269.424 38.0666 269.672 37.7786 269.856C37.4986 270.04 37.1546 270.132 36.7466 270.132ZM37.1546 268.92C37.4906 268.92 37.7746 268.804 38.0066 268.572C38.2386 268.34 38.3546 268.04 38.3546 267.672V267.432H37.9346C37.3186 267.432 36.8826 267.488 36.6266 267.6C36.3706 267.704 36.2426 267.888 36.2426 268.152C36.2426 268.376 36.3186 268.56 36.4706 268.704C36.6306 268.848 36.8586 268.92 37.1546 268.92ZM43.6903 270.132C43.3383 270.132 42.9743 270.1 42.5983 270.036C42.2303 269.972 41.8943 269.864 41.5903 269.712C41.3903 269.608 41.2583 269.476 41.1943 269.316C41.1383 269.156 41.1383 269 41.1943 268.848C41.2503 268.696 41.3503 268.584 41.4943 268.512C41.6383 268.432 41.8063 268.432 41.9983 268.512C42.3263 268.648 42.6263 268.744 42.8983 268.8C43.1783 268.856 43.4463 268.884 43.7023 268.884C44.0383 268.884 44.2863 268.832 44.4463 268.728C44.6063 268.616 44.6863 268.472 44.6863 268.296C44.6863 268.016 44.4823 267.84 44.0743 267.768L42.8143 267.54C42.3103 267.452 41.9263 267.272 41.6623 267C41.3983 266.728 41.2663 266.372 41.2663 265.932C41.2663 265.532 41.3783 265.188 41.6023 264.9C41.8263 264.612 42.1343 264.388 42.5263 264.228C42.9183 264.068 43.3703 263.988 43.8823 263.988C44.5863 263.988 45.2103 264.124 45.7543 264.396C45.9383 264.484 46.0503 264.608 46.0903 264.768C46.1383 264.928 46.1303 265.084 46.0663 265.236C46.0023 265.388 45.8983 265.504 45.7543 265.584C45.6103 265.656 45.4383 265.648 45.2383 265.56C44.9743 265.44 44.7343 265.356 44.5183 265.308C44.3023 265.252 44.0983 265.224 43.9063 265.224C43.5463 265.224 43.2863 265.284 43.1263 265.404C42.9663 265.516 42.8863 265.66 42.8863 265.836C42.8863 266.116 43.0743 266.292 43.4503 266.364L44.7103 266.592C45.2303 266.68 45.6263 266.856 45.8983 267.12C46.1703 267.376 46.3063 267.728 46.3063 268.176C46.3063 268.792 46.0663 269.272 45.5863 269.616C45.1063 269.96 44.4743 270.132 43.6903 270.132ZM49.5125 270.132C48.7605 270.132 48.2045 269.924 47.8445 269.508C47.4925 269.092 47.3165 268.468 47.3165 267.636V264.924C47.3165 264.316 47.6165 264.012 48.2165 264.012C48.8245 264.012 49.1285 264.316 49.1285 264.924V267.684C49.1285 268.38 49.4285 268.728 50.0285 268.728C50.3725 268.728 50.6525 268.608 50.8685 268.368C51.0925 268.12 51.2045 267.796 51.2045 267.396V264.924C51.2045 264.316 51.5045 264.012 52.1045 264.012C52.7125 264.012 53.0165 264.316 53.0165 264.924V269.184C53.0165 269.8 52.7245 270.108 52.1405 270.108C51.8525 270.108 51.6325 270.028 51.4805 269.868C51.3285 269.708 51.2525 269.484 51.2525 269.196C50.8605 269.82 50.2805 270.132 49.5125 270.132ZM55.3547 270.108C54.7307 270.108 54.4187 269.8 54.4187 269.184V264.924C54.4187 264.316 54.7147 264.012 55.3067 264.012C55.8987 264.012 56.1947 264.316 56.1947 264.924V265.14C56.4827 264.428 57.0787 264.044 57.9827 263.988C58.1827 263.972 58.3347 264.024 58.4387 264.144C58.5507 264.256 58.6107 264.444 58.6187 264.708C58.6347 264.956 58.5827 265.152 58.4627 265.296C58.3507 265.44 58.1587 265.528 57.8867 265.56L57.6107 265.584C56.7147 265.672 56.2667 266.128 56.2667 266.952V269.184C56.2667 269.8 55.9627 270.108 55.3547 270.108ZM61.3353 272.268C61.0153 272.268 60.7873 272.148 60.6513 271.908C60.5233 271.676 60.5313 271.404 60.6753 271.092L61.3113 269.676L59.3553 265.188C59.2273 264.876 59.2273 264.604 59.3553 264.372C59.4913 264.132 59.7593 264.012 60.1593 264.012C60.3753 264.012 60.5473 264.064 60.6753 264.168C60.8113 264.264 60.9353 264.452 61.0473 264.732L62.2713 267.852L63.5433 264.72C63.6553 264.448 63.7793 264.264 63.9153 264.168C64.0593 264.064 64.2513 264.012 64.4913 264.012C64.7953 264.012 65.0073 264.132 65.1273 264.372C65.2553 264.604 65.2513 264.872 65.1153 265.176L62.2953 271.572C62.1753 271.844 62.0393 272.028 61.8873 272.124C61.7433 272.22 61.5593 272.268 61.3353 272.268ZM70.6053 270C69.9573 270 69.6333 269.676 69.6333 269.028V262.512C69.6333 261.864 69.9573 261.54 70.6053 261.54H72.9453C74.3853 261.54 75.5013 261.908 76.2933 262.644C77.0853 263.372 77.4813 264.412 77.4813 265.764C77.4813 267.116 77.0853 268.16 76.2933 268.896C75.5013 269.632 74.3853 270 72.9453 270H70.6053ZM71.4933 268.476H72.8373C74.6373 268.476 75.5373 267.572 75.5373 265.764C75.5373 263.964 74.6373 263.064 72.8373 263.064H71.4933V268.476ZM78.967 270.108C78.631 270.108 78.391 269.996 78.247 269.772C78.103 269.548 78.107 269.272 78.259 268.944L81.331 262.212C81.459 261.94 81.611 261.744 81.787 261.624C81.963 261.496 82.167 261.432 82.399 261.432C82.631 261.432 82.835 261.496 83.011 261.624C83.187 261.744 83.335 261.94 83.455 262.212L86.551 268.944C86.703 269.28 86.707 269.56 86.563 269.784C86.427 270 86.203 270.108 85.891 270.108C85.619 270.108 85.407 270.044 85.255 269.916C85.111 269.788 84.983 269.588 84.871 269.316L84.367 268.164H80.419L79.927 269.316C79.807 269.596 79.679 269.8 79.543 269.928C79.407 270.048 79.215 270.108 78.967 270.108ZM82.375 263.52L81.043 266.712H83.755L82.399 263.52H82.375ZM91.4869 270.132C90.6549 270.132 89.9229 269.952 89.2909 269.592C88.6669 269.224 88.1789 268.716 87.8269 268.068C87.4829 267.412 87.3109 266.644 87.3109 265.764C87.3109 264.884 87.4829 264.12 87.8269 263.472C88.1789 262.816 88.6669 262.308 89.2909 261.948C89.9149 261.588 90.6469 261.408 91.4869 261.408C92.3269 261.408 93.0589 261.588 93.6829 261.948C94.3149 262.308 94.8029 262.816 95.1469 263.472C95.4989 264.12 95.6749 264.88 95.6749 265.752C95.6749 266.632 95.4989 267.4 95.1469 268.056C94.8029 268.712 94.3149 269.224 93.6829 269.592C93.0589 269.952 92.3269 270.132 91.4869 270.132ZM91.4869 268.548C92.1909 268.548 92.7389 268.304 93.1309 267.816C93.5309 267.32 93.7309 266.636 93.7309 265.764C93.7309 264.884 93.5349 264.204 93.1429 263.724C92.7509 263.236 92.1989 262.992 91.4869 262.992C90.7909 262.992 90.2429 263.236 89.8429 263.724C89.4509 264.204 89.2549 264.884 89.2549 265.764C89.2549 266.636 89.4509 267.32 89.8429 267.816C90.2429 268.304 90.7909 268.548 91.4869 268.548Z" fill="#F7F7F7"/>
<path d="M126.804 196.108C126.5 196.108 126.268 196.024 126.108 195.856C125.948 195.688 125.868 195.452 125.868 195.148V189.076H123.744C123.224 189.076 122.964 188.82 122.964 188.308C122.964 187.796 123.224 187.54 123.744 187.54H129.852C130.372 187.54 130.632 187.796 130.632 188.308C130.632 188.82 130.372 189.076 129.852 189.076H127.728V195.148C127.728 195.452 127.648 195.688 127.488 195.856C127.336 196.024 127.108 196.108 126.804 196.108ZM132.37 196.108C132.066 196.108 131.834 196.024 131.674 195.856C131.514 195.688 131.434 195.452 131.434 195.148V188.392C131.434 187.752 131.746 187.432 132.37 187.432C132.986 187.432 133.294 187.752 133.294 188.392V190.936H137.23V188.392C137.23 187.752 137.538 187.432 138.154 187.432C138.778 187.432 139.09 187.752 139.09 188.392V195.148C139.09 195.452 139.01 195.688 138.85 195.856C138.69 196.024 138.458 196.108 138.154 196.108C137.858 196.108 137.63 196.024 137.47 195.856C137.31 195.688 137.23 195.452 137.23 195.148V192.484H133.294V195.148C133.294 195.788 132.986 196.108 132.37 196.108ZM141.037 196.108C140.701 196.108 140.461 195.996 140.317 195.772C140.173 195.548 140.177 195.272 140.329 194.944L143.401 188.212C143.529 187.94 143.681 187.744 143.857 187.624C144.033 187.496 144.237 187.432 144.469 187.432C144.701 187.432 144.905 187.496 145.081 187.624C145.257 187.744 145.405 187.94 145.525 188.212L148.621 194.944C148.773 195.28 148.777 195.56 148.633 195.784C148.497 196 148.273 196.108 147.961 196.108C147.689 196.108 147.477 196.044 147.325 195.916C147.181 195.788 147.053 195.588 146.941 195.316L146.437 194.164H142.489L141.997 195.316C141.877 195.596 141.749 195.8 141.613 195.928C141.477 196.048 141.285 196.108 141.037 196.108ZM144.445 189.52L143.113 192.712H145.825L144.469 189.52H144.445ZM150.78 196C150.468 196 150.232 195.92 150.072 195.76C149.912 195.592 149.832 195.356 149.832 195.052V188.464C149.832 188.16 149.912 187.928 150.072 187.768C150.232 187.6 150.464 187.516 150.768 187.516C151.384 187.516 151.692 187.832 151.692 188.464V194.428H154.908C155.444 194.428 155.712 194.688 155.712 195.208C155.712 195.736 155.444 196 154.908 196H150.78ZM157.683 196C157.035 196 156.711 195.676 156.711 195.028V188.512C156.711 187.864 157.035 187.54 157.683 187.54H161.871C162.359 187.54 162.603 187.78 162.603 188.26C162.603 188.748 162.359 188.992 161.871 188.992H158.487V190.972H161.595C162.091 190.972 162.339 191.216 162.339 191.704C162.339 192.192 162.091 192.436 161.595 192.436H158.487V194.548H161.871C162.359 194.548 162.603 194.788 162.603 195.268C162.603 195.756 162.359 196 161.871 196H157.683ZM166.884 196.132C166.372 196.132 165.86 196.076 165.348 195.964C164.836 195.852 164.392 195.688 164.016 195.472C163.792 195.352 163.652 195.192 163.596 194.992C163.54 194.784 163.552 194.584 163.632 194.392C163.712 194.2 163.84 194.064 164.016 193.984C164.192 193.904 164.404 193.924 164.652 194.044C164.972 194.228 165.328 194.364 165.72 194.452C166.112 194.54 166.5 194.584 166.884 194.584C167.46 194.584 167.872 194.496 168.12 194.32C168.376 194.136 168.504 193.908 168.504 193.636C168.504 193.404 168.416 193.22 168.24 193.084C168.064 192.948 167.756 192.832 167.316 192.736L165.96 192.448C164.448 192.128 163.692 191.344 163.692 190.096C163.692 189.56 163.836 189.092 164.124 188.692C164.412 188.284 164.812 187.968 165.324 187.744C165.844 187.52 166.444 187.408 167.124 187.408C167.572 187.408 168.012 187.464 168.444 187.576C168.876 187.68 169.256 187.836 169.584 188.044C169.784 188.164 169.908 188.32 169.956 188.512C170.004 188.704 169.988 188.888 169.908 189.064C169.836 189.24 169.708 189.364 169.524 189.436C169.348 189.508 169.128 189.48 168.864 189.352C168.6 189.216 168.32 189.116 168.024 189.052C167.728 188.988 167.424 188.956 167.112 188.956C166.608 188.956 166.216 189.056 165.936 189.256C165.664 189.448 165.528 189.7 165.528 190.012C165.528 190.244 165.612 190.432 165.78 190.576C165.948 190.72 166.24 190.836 166.656 190.924L168.012 191.212C169.564 191.548 170.34 192.308 170.34 193.492C170.34 194.02 170.196 194.484 169.908 194.884C169.628 195.276 169.228 195.584 168.708 195.808C168.196 196.024 167.588 196.132 166.884 196.132ZM177.923 196.132C177.411 196.132 176.899 196.076 176.387 195.964C175.875 195.852 175.431 195.688 175.055 195.472C174.831 195.352 174.691 195.192 174.635 194.992C174.579 194.784 174.591 194.584 174.671 194.392C174.751 194.2 174.879 194.064 175.055 193.984C175.231 193.904 175.443 193.924 175.691 194.044C176.011 194.228 176.367 194.364 176.759 194.452C177.151 194.54 177.539 194.584 177.923 194.584C178.499 194.584 178.911 194.496 179.159 194.32C179.415 194.136 179.543 193.908 179.543 193.636C179.543 193.404 179.455 193.22 179.279 193.084C179.103 192.948 178.795 192.832 178.355 192.736L176.999 192.448C175.487 192.128 174.731 191.344 174.731 190.096C174.731 189.56 174.875 189.092 175.163 188.692C175.451 188.284 175.851 187.968 176.363 187.744C176.883 187.52 177.483 187.408 178.163 187.408C178.611 187.408 179.051 187.464 179.483 187.576C179.915 187.68 180.295 187.836 180.623 188.044C180.823 188.164 180.947 188.32 180.995 188.512C181.043 188.704 181.027 188.888 180.947 189.064C180.875 189.24 180.747 189.364 180.563 189.436C180.387 189.508 180.167 189.48 179.903 189.352C179.639 189.216 179.359 189.116 179.063 189.052C178.767 188.988 178.463 188.956 178.151 188.956C177.647 188.956 177.255 189.056 176.975 189.256C176.703 189.448 176.567 189.7 176.567 190.012C176.567 190.244 176.651 190.432 176.819 190.576C176.987 190.72 177.279 190.836 177.695 190.924L179.051 191.212C180.603 191.548 181.379 192.308 181.379 193.492C181.379 194.02 181.235 194.484 180.947 194.884C180.667 195.276 180.267 195.584 179.747 195.808C179.235 196.024 178.627 196.132 177.923 196.132ZM185.24 196.132C183.584 196.132 182.756 195.328 182.756 193.72V191.464H182.252C181.78 191.464 181.544 191.24 181.544 190.792C181.544 190.336 181.78 190.108 182.252 190.108H182.756V189.196C182.756 188.58 183.06 188.272 183.668 188.272C184.268 188.272 184.568 188.58 184.568 189.196V190.108H185.708C186.172 190.108 186.404 190.336 186.404 190.792C186.404 191.24 186.172 191.464 185.708 191.464H184.568V193.648C184.568 193.984 184.644 194.236 184.796 194.404C184.956 194.572 185.208 194.656 185.552 194.656C185.672 194.656 185.784 194.644 185.888 194.62C185.992 194.596 186.088 194.58 186.176 194.572C186.288 194.564 186.38 194.6 186.452 194.68C186.524 194.76 186.56 194.924 186.56 195.172C186.56 195.372 186.528 195.544 186.464 195.688C186.4 195.824 186.288 195.924 186.128 195.988C186.024 196.028 185.88 196.06 185.696 196.084C185.52 196.116 185.368 196.132 185.24 196.132ZM189.192 196.132C188.752 196.132 188.364 196.048 188.028 195.88C187.692 195.712 187.424 195.484 187.224 195.196C187.032 194.908 186.936 194.584 186.936 194.224C186.936 193.8 187.048 193.46 187.272 193.204C187.496 192.948 187.86 192.768 188.364 192.664C188.868 192.552 189.536 192.496 190.368 192.496H190.8V192.292C190.8 191.94 190.72 191.692 190.56 191.548C190.4 191.396 190.128 191.32 189.744 191.32C189.528 191.32 189.292 191.348 189.036 191.404C188.78 191.452 188.504 191.536 188.208 191.656C187.984 191.752 187.796 191.76 187.644 191.68C187.492 191.592 187.392 191.464 187.344 191.296C187.296 191.12 187.308 190.944 187.38 190.768C187.46 190.592 187.612 190.464 187.836 190.384C188.212 190.24 188.564 190.14 188.892 190.084C189.228 190.02 189.536 189.988 189.816 189.988C190.728 189.988 191.408 190.196 191.856 190.612C192.304 191.02 192.528 191.656 192.528 192.52V195.184C192.528 195.8 192.248 196.108 191.688 196.108C191.12 196.108 190.836 195.8 190.836 195.184V195.112C190.716 195.424 190.512 195.672 190.224 195.856C189.944 196.04 189.6 196.132 189.192 196.132ZM189.6 194.92C189.936 194.92 190.22 194.804 190.452 194.572C190.684 194.34 190.8 194.04 190.8 193.672V193.432H190.38C189.764 193.432 189.328 193.488 189.072 193.6C188.816 193.704 188.688 193.888 188.688 194.152C188.688 194.376 188.764 194.56 188.916 194.704C189.076 194.848 189.304 194.92 189.6 194.92ZM194.792 196.108C194.184 196.108 193.88 195.8 193.88 195.184V188.356C193.88 187.74 194.184 187.432 194.792 187.432C195.392 187.432 195.692 187.74 195.692 188.356V192.544H195.716L197.456 190.612C197.632 190.412 197.792 190.264 197.936 190.168C198.08 190.064 198.28 190.012 198.536 190.012C198.784 190.012 198.976 190.076 199.112 190.204C199.248 190.324 199.316 190.48 199.316 190.672C199.316 190.856 199.236 191.036 199.076 191.212L197.54 192.928L199.28 194.932C199.432 195.124 199.496 195.312 199.472 195.496C199.456 195.672 199.376 195.82 199.232 195.94C199.088 196.052 198.904 196.108 198.68 196.108C198.4 196.108 198.18 196.056 198.02 195.952C197.868 195.848 197.704 195.688 197.528 195.472L195.716 193.456H195.692V195.184C195.692 195.8 195.392 196.108 194.792 196.108ZM203.537 196.132C202.841 196.132 202.241 196.008 201.737 195.76C201.241 195.504 200.857 195.148 200.585 194.692C200.321 194.228 200.189 193.684 200.189 193.06C200.189 192.452 200.317 191.92 200.573 191.464C200.837 191 201.193 190.64 201.641 190.384C202.097 190.12 202.621 189.988 203.213 189.988C204.069 189.988 204.749 190.26 205.253 190.804C205.757 191.34 206.009 192.068 206.009 192.988C206.009 193.292 205.821 193.444 205.445 193.444H201.917C201.981 193.908 202.149 194.248 202.421 194.464C202.701 194.672 203.085 194.776 203.573 194.776C203.765 194.776 203.981 194.756 204.221 194.716C204.469 194.668 204.705 194.588 204.929 194.476C205.161 194.364 205.357 194.344 205.517 194.416C205.677 194.48 205.785 194.592 205.841 194.752C205.905 194.912 205.905 195.08 205.841 195.256C205.785 195.424 205.653 195.564 205.445 195.676C205.165 195.828 204.853 195.94 204.509 196.012C204.173 196.092 203.849 196.132 203.537 196.132ZM203.285 191.188C202.901 191.188 202.589 191.304 202.349 191.536C202.117 191.768 201.973 192.092 201.917 192.508H204.509C204.461 191.628 204.053 191.188 203.285 191.188ZM207.999 196.108C207.375 196.108 207.063 195.8 207.063 195.184V190.924C207.063 190.316 207.359 190.012 207.951 190.012C208.543 190.012 208.839 190.316 208.839 190.924V191.14C209.127 190.428 209.723 190.044 210.627 189.988C210.827 189.972 210.979 190.024 211.083 190.144C211.195 190.256 211.255 190.444 211.263 190.708C211.279 190.956 211.227 191.152 211.107 191.296C210.995 191.44 210.803 191.528 210.531 191.56L210.255 191.584C209.359 191.672 208.911 192.128 208.911 192.952V195.184C208.911 195.8 208.607 196.108 207.999 196.108ZM214.206 196.132C213.854 196.132 213.49 196.1 213.114 196.036C212.746 195.972 212.41 195.864 212.106 195.712C211.906 195.608 211.774 195.476 211.71 195.316C211.654 195.156 211.654 195 211.71 194.848C211.766 194.696 211.866 194.584 212.01 194.512C212.154 194.432 212.322 194.432 212.514 194.512C212.842 194.648 213.142 194.744 213.414 194.8C213.694 194.856 213.962 194.884 214.218 194.884C214.554 194.884 214.802 194.832 214.962 194.728C215.122 194.616 215.202 194.472 215.202 194.296C215.202 194.016 214.998 193.84 214.59 193.768L213.33 193.54C212.826 193.452 212.442 193.272 212.178 193C211.914 192.728 211.782 192.372 211.782 191.932C211.782 191.532 211.894 191.188 212.118 190.9C212.342 190.612 212.65 190.388 213.042 190.228C213.434 190.068 213.886 189.988 214.398 189.988C215.102 189.988 215.726 190.124 216.27 190.396C216.454 190.484 216.566 190.608 216.606 190.768C216.654 190.928 216.646 191.084 216.582 191.236C216.518 191.388 216.414 191.504 216.27 191.584C216.126 191.656 215.954 191.648 215.754 191.56C215.49 191.44 215.25 191.356 215.034 191.308C214.818 191.252 214.614 191.224 214.422 191.224C214.062 191.224 213.802 191.284 213.642 191.404C213.482 191.516 213.402 191.66 213.402 191.836C213.402 192.116 213.59 192.292 213.966 192.364L215.226 192.592C215.746 192.68 216.142 192.856 216.414 193.12C216.686 193.376 216.822 193.728 216.822 194.176C216.822 194.792 216.582 195.272 216.102 195.616C215.622 195.96 214.99 196.132 214.206 196.132Z" fill="#F7F7F7"/>
</svg>
