<svg width="342" height="323" viewBox="0 0 342 323" fill="none" xmlns="http://www.w3.org/2000/svg">
<circle cx="172" cy="193" r="124" stroke="#AEAEAE" stroke-width="2"/>
<circle cx="172" cy="57" r="57" fill="#1B314F"/>
<circle cx="171" cy="193" r="57" fill="#1B314F"/>
<circle cx="57" cy="266" r="57" fill="#1B314F"/>
<circle cx="285" cy="266" r="57" fill="#1B314F"/>
<path d="M125.121 61.117C124.792 61.117 124.54 61.026 124.367 60.844C124.194 60.662 124.107 60.4063 124.107 60.077V53.499H121.806C121.243 53.499 120.961 53.2217 120.961 52.667C120.961 52.1123 121.243 51.835 121.806 51.835H128.423C128.986 51.835 129.268 52.1123 129.268 52.667C129.268 53.2217 128.986 53.499 128.423 53.499H126.122V60.077C126.122 60.4063 126.035 60.662 125.862 60.844C125.697 61.026 125.45 61.117 125.121 61.117ZM131.151 61.117C130.822 61.117 130.57 61.026 130.397 60.844C130.224 60.662 130.137 60.4063 130.137 60.077V52.758C130.137 52.0647 130.475 51.718 131.151 51.718C131.818 51.718 132.152 52.0647 132.152 52.758V55.514H136.416V52.758C136.416 52.0647 136.75 51.718 137.417 51.718C138.093 51.718 138.431 52.0647 138.431 52.758V60.077C138.431 60.4063 138.344 60.662 138.171 60.844C137.998 61.026 137.746 61.117 137.417 61.117C137.096 61.117 136.849 61.026 136.676 60.844C136.503 60.662 136.416 60.4063 136.416 60.077V57.191H132.152V60.077C132.152 60.7703 131.818 61.117 131.151 61.117ZM140.54 61.117C140.176 61.117 139.916 60.9957 139.76 60.753C139.604 60.5103 139.609 60.2113 139.773 59.856L143.101 52.563C143.24 52.2683 143.405 52.056 143.595 51.926C143.786 51.7873 144.007 51.718 144.258 51.718C144.51 51.718 144.731 51.7873 144.921 51.926C145.112 52.056 145.272 52.2683 145.402 52.563L148.756 59.856C148.921 60.22 148.925 60.5233 148.769 60.766C148.622 61 148.379 61.117 148.041 61.117C147.747 61.117 147.517 61.0477 147.352 60.909C147.196 60.7703 147.058 60.5537 146.936 60.259L146.39 59.011H142.113L141.58 60.259C141.45 60.5623 141.312 60.7833 141.164 60.922C141.017 61.052 140.809 61.117 140.54 61.117ZM144.232 53.98L142.789 57.438H145.727L144.258 53.98H144.232ZM151.096 61C150.758 61 150.502 60.9133 150.329 60.74C150.155 60.558 150.069 60.3023 150.069 59.973V52.836C150.069 52.5067 150.155 52.2553 150.329 52.082C150.502 51.9 150.753 51.809 151.083 51.809C151.75 51.809 152.084 52.1513 152.084 52.836V59.297H155.568C156.148 59.297 156.439 59.5787 156.439 60.142C156.439 60.714 156.148 61 155.568 61H151.096ZM158.574 61C157.872 61 157.521 60.649 157.521 59.947V52.888C157.521 52.186 157.872 51.835 158.574 51.835H163.111C163.639 51.835 163.904 52.095 163.904 52.615C163.904 53.1437 163.639 53.408 163.111 53.408H159.445V55.553H162.812C163.349 55.553 163.618 55.8173 163.618 56.346C163.618 56.8747 163.349 57.139 162.812 57.139H159.445V59.427H163.111C163.639 59.427 163.904 59.687 163.904 60.207C163.904 60.7357 163.639 61 163.111 61H158.574ZM168.541 61.143C167.986 61.143 167.431 61.0823 166.877 60.961C166.322 60.8397 165.841 60.662 165.434 60.428C165.191 60.298 165.039 60.1247 164.979 59.908C164.918 59.6827 164.931 59.466 165.018 59.258C165.104 59.05 165.243 58.9027 165.434 58.816C165.624 58.7293 165.854 58.751 166.123 58.881C166.469 59.0803 166.855 59.2277 167.28 59.323C167.704 59.4183 168.125 59.466 168.541 59.466C169.165 59.466 169.611 59.3707 169.88 59.18C170.157 58.9807 170.296 58.7337 170.296 58.439C170.296 58.1877 170.2 57.9883 170.01 57.841C169.819 57.6937 169.485 57.568 169.009 57.464L167.54 57.152C165.902 56.8053 165.083 55.956 165.083 54.604C165.083 54.0233 165.239 53.5163 165.551 53.083C165.863 52.641 166.296 52.2987 166.851 52.056C167.414 51.8133 168.064 51.692 168.801 51.692C169.286 51.692 169.763 51.7527 170.231 51.874C170.699 51.9867 171.11 52.1557 171.466 52.381C171.682 52.511 171.817 52.68 171.869 52.888C171.921 53.096 171.903 53.2953 171.817 53.486C171.739 53.6767 171.6 53.811 171.401 53.889C171.21 53.967 170.972 53.9367 170.686 53.798C170.4 53.6507 170.096 53.5423 169.776 53.473C169.455 53.4037 169.126 53.369 168.788 53.369C168.242 53.369 167.817 53.4773 167.514 53.694C167.219 53.902 167.072 54.175 167.072 54.513C167.072 54.7643 167.163 54.968 167.345 55.124C167.527 55.28 167.843 55.4057 168.294 55.501L169.763 55.813C171.444 56.177 172.285 57.0003 172.285 58.283C172.285 58.855 172.129 59.3577 171.817 59.791C171.513 60.2157 171.08 60.5493 170.517 60.792C169.962 61.026 169.303 61.143 168.541 61.143ZM181.67 61.143C180.682 61.143 179.837 60.948 179.135 60.558C178.433 60.168 177.891 59.622 177.51 58.92C177.137 58.2093 176.951 57.373 176.951 56.411C176.951 55.4577 177.137 54.63 177.51 53.928C177.891 53.2173 178.433 52.667 179.135 52.277C179.837 51.887 180.682 51.692 181.67 51.692C182.103 51.692 182.541 51.7483 182.983 51.861C183.433 51.9737 183.823 52.1253 184.153 52.316C184.421 52.472 184.586 52.667 184.647 52.901C184.707 53.135 184.686 53.356 184.582 53.564C184.486 53.772 184.335 53.9193 184.127 54.006C183.919 54.0927 183.685 54.0623 183.425 53.915C183.165 53.759 182.892 53.6463 182.606 53.577C182.32 53.5077 182.029 53.473 181.735 53.473C180.859 53.473 180.196 53.7287 179.746 54.24C179.304 54.7427 179.083 55.4663 179.083 56.411C179.083 57.3557 179.304 58.0837 179.746 58.595C180.196 59.1063 180.859 59.362 181.735 59.362C182.012 59.362 182.294 59.3273 182.58 59.258C182.874 59.1887 183.156 59.0803 183.425 58.933C183.702 58.7857 183.945 58.7553 184.153 58.842C184.361 58.92 184.512 59.0587 184.608 59.258C184.712 59.4487 184.738 59.661 184.686 59.895C184.634 60.1203 184.486 60.3067 184.244 60.454C183.914 60.6707 183.516 60.8397 183.048 60.961C182.588 61.0823 182.129 61.143 181.67 61.143ZM188.552 61.143C187.868 61.143 187.27 61.0087 186.758 60.74C186.256 60.4627 185.866 60.077 185.588 59.583C185.311 59.0803 185.172 58.4867 185.172 57.802C185.172 57.126 185.311 56.541 185.588 56.047C185.866 55.5443 186.256 55.1587 186.758 54.89C187.27 54.6213 187.868 54.487 188.552 54.487C189.237 54.487 189.831 54.6213 190.333 54.89C190.845 55.1587 191.239 55.5443 191.516 56.047C191.802 56.541 191.945 57.126 191.945 57.802C191.945 58.4867 191.802 59.0803 191.516 59.583C191.239 60.077 190.845 60.4627 190.333 60.74C189.831 61.0087 189.237 61.143 188.552 61.143ZM188.552 59.674C188.968 59.674 189.306 59.5223 189.566 59.219C189.835 58.9157 189.969 58.4433 189.969 57.802C189.969 57.1693 189.835 56.7057 189.566 56.411C189.306 56.1077 188.968 55.956 188.552 55.956C188.136 55.956 187.798 56.1077 187.538 56.411C187.278 56.7057 187.148 57.1693 187.148 57.802C187.148 58.4433 187.278 58.9157 187.538 59.219C187.798 59.5223 188.136 59.674 188.552 59.674ZM195.493 61.143C194.678 61.143 194.076 60.9177 193.686 60.467C193.304 60.0163 193.114 59.3403 193.114 58.439V55.501C193.114 54.8423 193.439 54.513 194.089 54.513C194.747 54.513 195.077 54.8423 195.077 55.501V58.491C195.077 59.245 195.402 59.622 196.052 59.622C196.424 59.622 196.728 59.492 196.962 59.232C197.204 58.9633 197.326 58.6123 197.326 58.179V55.501C197.326 54.8423 197.651 54.513 198.301 54.513C198.959 54.513 199.289 54.8423 199.289 55.501V60.116C199.289 60.7833 198.972 61.117 198.34 61.117C198.028 61.117 197.789 61.0303 197.625 60.857C197.46 60.6837 197.378 60.441 197.378 60.129C196.953 60.805 196.325 61.143 195.493 61.143ZM201.796 61.117C201.137 61.117 200.808 60.7833 200.808 60.116V55.501C200.808 54.8423 201.128 54.513 201.77 54.513C202.411 54.513 202.732 54.8423 202.732 55.501V55.553C202.948 55.2063 203.239 54.942 203.603 54.76C203.967 54.578 204.374 54.487 204.825 54.487C205.579 54.487 206.142 54.708 206.515 55.15C206.887 55.5833 207.074 56.255 207.074 57.165V60.116C207.074 60.7833 206.744 61.117 206.086 61.117C205.774 61.117 205.531 61.0303 205.358 60.857C205.193 60.6837 205.111 60.4367 205.111 60.116V57.256C205.111 56.814 205.028 56.4977 204.864 56.307C204.699 56.1077 204.456 56.008 204.136 56.008C203.72 56.008 203.386 56.138 203.135 56.398C202.892 56.658 202.771 57.0047 202.771 57.438V60.116C202.771 60.7833 202.446 61.117 201.796 61.117ZM211.646 61.143C210.953 61.143 210.346 61.0087 209.826 60.74C209.315 60.4627 208.92 60.0727 208.643 59.57C208.366 59.0673 208.227 58.4737 208.227 57.789C208.227 57.1043 208.366 56.515 208.643 56.021C208.92 55.527 209.315 55.15 209.826 54.89C210.346 54.6213 210.953 54.487 211.646 54.487C211.915 54.487 212.201 54.5217 212.504 54.591C212.816 54.6517 213.115 54.76 213.401 54.916C213.618 55.02 213.752 55.1673 213.804 55.358C213.856 55.54 213.843 55.722 213.765 55.904C213.696 56.086 213.579 56.2203 213.414 56.307C213.258 56.385 213.072 56.3677 212.855 56.255C212.508 56.073 212.17 55.982 211.841 55.982C211.33 55.982 210.931 56.1423 210.645 56.463C210.368 56.775 210.229 57.2213 210.229 57.802C210.229 58.374 210.368 58.8247 210.645 59.154C210.931 59.4747 211.33 59.635 211.841 59.635C211.997 59.635 212.162 59.6177 212.335 59.583C212.508 59.5397 212.682 59.4703 212.855 59.375C213.072 59.2623 213.258 59.2493 213.414 59.336C213.579 59.4227 213.691 59.557 213.752 59.739C213.813 59.9123 213.817 60.0943 213.765 60.285C213.713 60.4757 213.583 60.623 213.375 60.727C213.08 60.8743 212.786 60.9783 212.491 61.039C212.196 61.1083 211.915 61.143 211.646 61.143ZM215.735 53.447C215.371 53.447 215.089 53.3647 214.89 53.2C214.699 53.0267 214.604 52.784 214.604 52.472C214.604 52.1513 214.699 51.9087 214.89 51.744C215.089 51.5707 215.371 51.484 215.735 51.484C216.48 51.484 216.853 51.8133 216.853 52.472C216.853 53.122 216.48 53.447 215.735 53.447ZM215.735 61.104C215.414 61.104 215.167 61.013 214.994 60.831C214.829 60.6403 214.747 60.376 214.747 60.038V55.592C214.747 54.8727 215.076 54.513 215.735 54.513C216.047 54.513 216.285 54.6083 216.45 54.799C216.623 54.981 216.71 55.2453 216.71 55.592V60.038C216.71 60.376 216.628 60.6403 216.463 60.831C216.298 61.013 216.056 61.104 215.735 61.104ZM220.527 61.143C218.993 61.143 218.226 60.2893 218.226 58.582V52.719C218.226 52.0517 218.555 51.718 219.214 51.718C219.864 51.718 220.189 52.0517 220.189 52.719V58.504C220.189 58.8593 220.262 59.1237 220.41 59.297C220.566 59.4617 220.769 59.544 221.021 59.544C221.09 59.544 221.155 59.5397 221.216 59.531C221.285 59.5223 221.35 59.518 221.411 59.518C221.549 59.5093 221.645 59.5527 221.697 59.648C221.757 59.7433 221.788 59.9383 221.788 60.233C221.788 60.7357 221.575 61.0217 221.151 61.091C221.064 61.0997 220.964 61.1083 220.852 61.117C220.739 61.1343 220.631 61.143 220.527 61.143Z" fill="white"/>
<path d="M243.937 271.117C243.608 271.117 243.356 271.026 243.183 270.844C243.01 270.662 242.923 270.406 242.923 270.077V262.862C242.923 262.177 243.265 261.835 243.95 261.835H247.109C248.132 261.835 248.92 262.095 249.475 262.615C250.03 263.126 250.307 263.841 250.307 264.76C250.307 265.679 250.03 266.398 249.475 266.918C248.92 267.438 248.132 267.698 247.109 267.698H244.938V270.077C244.938 270.406 244.851 270.662 244.678 270.844C244.513 271.026 244.266 271.117 243.937 271.117ZM244.938 266.138H246.771C247.837 266.138 248.37 265.679 248.37 264.76C248.37 263.859 247.837 263.408 246.771 263.408H244.938V266.138ZM252.274 271.117C251.598 271.117 251.26 270.783 251.26 270.116V265.501C251.26 264.842 251.581 264.513 252.222 264.513C252.863 264.513 253.184 264.842 253.184 265.501V265.735C253.496 264.964 254.142 264.548 255.121 264.487C255.338 264.47 255.502 264.526 255.615 264.656C255.736 264.777 255.801 264.981 255.81 265.267C255.827 265.536 255.771 265.748 255.641 265.904C255.52 266.06 255.312 266.155 255.017 266.19L254.718 266.216C253.747 266.311 253.262 266.805 253.262 267.698V270.116C253.262 270.783 252.933 271.117 252.274 271.117ZM259.571 271.143C258.886 271.143 258.288 271.009 257.777 270.74C257.274 270.463 256.884 270.077 256.607 269.583C256.33 269.08 256.191 268.487 256.191 267.802C256.191 267.126 256.33 266.541 256.607 266.047C256.884 265.544 257.274 265.159 257.777 264.89C258.288 264.621 258.886 264.487 259.571 264.487C260.256 264.487 260.849 264.621 261.352 264.89C261.863 265.159 262.258 265.544 262.535 266.047C262.821 266.541 262.964 267.126 262.964 267.802C262.964 268.487 262.821 269.08 262.535 269.583C262.258 270.077 261.863 270.463 261.352 270.74C260.849 271.009 260.256 271.143 259.571 271.143ZM259.571 269.674C259.987 269.674 260.325 269.522 260.585 269.219C260.854 268.916 260.988 268.443 260.988 267.802C260.988 267.169 260.854 266.706 260.585 266.411C260.325 266.108 259.987 265.956 259.571 265.956C259.155 265.956 258.817 266.108 258.557 266.411C258.297 266.706 258.167 267.169 258.167 267.802C258.167 268.443 258.297 268.916 258.557 269.219C258.817 269.522 259.155 269.674 259.571 269.674ZM267.228 271.143C265.434 271.143 264.537 270.272 264.537 268.53V266.086H263.991C263.479 266.086 263.224 265.843 263.224 265.358C263.224 264.864 263.479 264.617 263.991 264.617H264.537V263.629C264.537 262.962 264.866 262.628 265.525 262.628C266.175 262.628 266.5 262.962 266.5 263.629V264.617H267.735C268.237 264.617 268.489 264.864 268.489 265.358C268.489 265.843 268.237 266.086 267.735 266.086H266.5V268.452C266.5 268.816 266.582 269.089 266.747 269.271C266.92 269.453 267.193 269.544 267.566 269.544C267.696 269.544 267.817 269.531 267.93 269.505C268.042 269.479 268.146 269.462 268.242 269.453C268.363 269.444 268.463 269.483 268.541 269.57C268.619 269.657 268.658 269.834 268.658 270.103C268.658 270.32 268.623 270.506 268.554 270.662C268.484 270.809 268.363 270.918 268.19 270.987C268.077 271.03 267.921 271.065 267.722 271.091C267.531 271.126 267.366 271.143 267.228 271.143ZM272.355 271.143C271.671 271.143 271.073 271.009 270.561 270.74C270.059 270.463 269.669 270.077 269.391 269.583C269.114 269.08 268.975 268.487 268.975 267.802C268.975 267.126 269.114 266.541 269.391 266.047C269.669 265.544 270.059 265.159 270.561 264.89C271.073 264.621 271.671 264.487 272.355 264.487C273.04 264.487 273.634 264.621 274.136 264.89C274.648 265.159 275.042 265.544 275.319 266.047C275.605 266.541 275.748 267.126 275.748 267.802C275.748 268.487 275.605 269.08 275.319 269.583C275.042 270.077 274.648 270.463 274.136 270.74C273.634 271.009 273.04 271.143 272.355 271.143ZM272.355 269.674C272.771 269.674 273.109 269.522 273.369 269.219C273.638 268.916 273.772 268.443 273.772 267.802C273.772 267.169 273.638 266.706 273.369 266.411C273.109 266.108 272.771 265.956 272.355 265.956C271.939 265.956 271.601 266.108 271.341 266.411C271.081 266.706 270.951 267.169 270.951 267.802C270.951 268.443 271.081 268.916 271.341 269.219C271.601 269.522 271.939 269.674 272.355 269.674ZM280.049 271.143C279.356 271.143 278.749 271.009 278.229 270.74C277.718 270.463 277.324 270.073 277.046 269.57C276.769 269.067 276.63 268.474 276.63 267.789C276.63 267.104 276.769 266.515 277.046 266.021C277.324 265.527 277.718 265.15 278.229 264.89C278.749 264.621 279.356 264.487 280.049 264.487C280.318 264.487 280.604 264.522 280.907 264.591C281.219 264.652 281.518 264.76 281.804 264.916C282.021 265.02 282.155 265.167 282.207 265.358C282.259 265.54 282.246 265.722 282.168 265.904C282.099 266.086 281.982 266.22 281.817 266.307C281.661 266.385 281.475 266.368 281.258 266.255C280.912 266.073 280.574 265.982 280.244 265.982C279.733 265.982 279.334 266.142 279.048 266.463C278.771 266.775 278.632 267.221 278.632 267.802C278.632 268.374 278.771 268.825 279.048 269.154C279.334 269.475 279.733 269.635 280.244 269.635C280.4 269.635 280.565 269.618 280.738 269.583C280.912 269.54 281.085 269.47 281.258 269.375C281.475 269.262 281.661 269.249 281.817 269.336C281.982 269.423 282.095 269.557 282.155 269.739C282.216 269.912 282.22 270.094 282.168 270.285C282.116 270.476 281.986 270.623 281.778 270.727C281.484 270.874 281.189 270.978 280.894 271.039C280.6 271.108 280.318 271.143 280.049 271.143ZM286.092 271.143C285.407 271.143 284.809 271.009 284.298 270.74C283.795 270.463 283.405 270.077 283.128 269.583C282.85 269.08 282.712 268.487 282.712 267.802C282.712 267.126 282.85 266.541 283.128 266.047C283.405 265.544 283.795 265.159 284.298 264.89C284.809 264.621 285.407 264.487 286.092 264.487C286.776 264.487 287.37 264.621 287.873 264.89C288.384 265.159 288.778 265.544 289.056 266.047C289.342 266.541 289.485 267.126 289.485 267.802C289.485 268.487 289.342 269.08 289.056 269.583C288.778 270.077 288.384 270.463 287.873 270.74C287.37 271.009 286.776 271.143 286.092 271.143ZM286.092 269.674C286.508 269.674 286.846 269.522 287.106 269.219C287.374 268.916 287.509 268.443 287.509 267.802C287.509 267.169 287.374 266.706 287.106 266.411C286.846 266.108 286.508 265.956 286.092 265.956C285.676 265.956 285.338 266.108 285.078 266.411C284.818 266.706 284.688 267.169 284.688 267.802C284.688 268.443 284.818 268.916 285.078 269.219C285.338 269.522 285.676 269.674 286.092 269.674ZM292.98 271.143C291.446 271.143 290.679 270.289 290.679 268.582V262.719C290.679 262.052 291.008 261.718 291.667 261.718C292.317 261.718 292.642 262.052 292.642 262.719V268.504C292.642 268.859 292.715 269.124 292.863 269.297C293.019 269.462 293.222 269.544 293.474 269.544C293.543 269.544 293.608 269.54 293.669 269.531C293.738 269.522 293.803 269.518 293.864 269.518C294.002 269.509 294.098 269.553 294.15 269.648C294.21 269.743 294.241 269.938 294.241 270.233C294.241 270.736 294.028 271.022 293.604 271.091C293.517 271.1 293.417 271.108 293.305 271.117C293.192 271.134 293.084 271.143 292.98 271.143ZM299.861 271C299.159 271 298.808 270.649 298.808 269.947V262.888C298.808 262.186 299.159 261.835 299.861 261.835H302.396C303.956 261.835 305.165 262.234 306.023 263.031C306.881 263.82 307.31 264.946 307.31 266.411C307.31 267.876 306.881 269.007 306.023 269.804C305.165 270.601 303.956 271 302.396 271H299.861ZM300.823 269.349H302.279C304.229 269.349 305.204 268.37 305.204 266.411C305.204 264.461 304.229 263.486 302.279 263.486H300.823V269.349ZM308.919 271.117C308.555 271.117 308.295 270.996 308.139 270.753C307.983 270.51 307.988 270.211 308.152 269.856L311.48 262.563C311.619 262.268 311.784 262.056 311.974 261.926C312.165 261.787 312.386 261.718 312.637 261.718C312.889 261.718 313.11 261.787 313.3 261.926C313.491 262.056 313.651 262.268 313.781 262.563L317.135 269.856C317.3 270.22 317.304 270.523 317.148 270.766C317.001 271 316.758 271.117 316.42 271.117C316.126 271.117 315.896 271.048 315.731 270.909C315.575 270.77 315.437 270.554 315.315 270.259L314.769 269.011H310.492L309.959 270.259C309.829 270.562 309.691 270.783 309.543 270.922C309.396 271.052 309.188 271.117 308.919 271.117ZM312.611 263.98L311.168 267.438H314.106L312.637 263.98H312.611ZM322.483 271.143C321.581 271.143 320.788 270.948 320.104 270.558C319.428 270.159 318.899 269.609 318.518 268.907C318.145 268.196 317.959 267.364 317.959 266.411C317.959 265.458 318.145 264.63 318.518 263.928C318.899 263.217 319.428 262.667 320.104 262.277C320.78 261.887 321.573 261.692 322.483 261.692C323.393 261.692 324.186 261.887 324.862 262.277C325.546 262.667 326.075 263.217 326.448 263.928C326.829 264.63 327.02 265.453 327.02 266.398C327.02 267.351 326.829 268.183 326.448 268.894C326.075 269.605 325.546 270.159 324.862 270.558C324.186 270.948 323.393 271.143 322.483 271.143ZM322.483 269.427C323.245 269.427 323.839 269.163 324.264 268.634C324.697 268.097 324.914 267.356 324.914 266.411C324.914 265.458 324.701 264.721 324.277 264.201C323.852 263.672 323.254 263.408 322.483 263.408C321.729 263.408 321.135 263.672 320.702 264.201C320.277 264.721 320.065 265.458 320.065 266.411C320.065 267.356 320.277 268.097 320.702 268.634C321.135 269.163 321.729 269.427 322.483 269.427Z" fill="white"/>
<path d="M17.121 271.117C16.7917 271.117 16.5403 271.026 16.367 270.844C16.1937 270.662 16.107 270.406 16.107 270.077V263.499H13.806C13.2427 263.499 12.961 263.222 12.961 262.667C12.961 262.112 13.2427 261.835 13.806 261.835H20.423C20.9863 261.835 21.268 262.112 21.268 262.667C21.268 263.222 20.9863 263.499 20.423 263.499H18.122V270.077C18.122 270.406 18.0353 270.662 17.862 270.844C17.6973 271.026 17.4503 271.117 17.121 271.117ZM21.9535 271.117C21.2775 271.117 20.9395 270.783 20.9395 270.116V265.501C20.9395 264.842 21.2602 264.513 21.9015 264.513C22.5429 264.513 22.8635 264.842 22.8635 265.501V265.735C23.1755 264.964 23.8212 264.548 24.8005 264.487C25.0172 264.47 25.1819 264.526 25.2945 264.656C25.4159 264.777 25.4809 264.981 25.4895 265.267C25.5069 265.536 25.4505 265.748 25.3205 265.904C25.1992 266.06 24.9912 266.155 24.6965 266.19L24.3975 266.216C23.4269 266.311 22.9415 266.805 22.9415 267.698V270.116C22.9415 270.783 22.6122 271.117 21.9535 271.117ZM29.4977 271.143C28.7437 271.143 28.0937 271.009 27.5477 270.74C27.0104 270.463 26.5944 270.077 26.2997 269.583C26.0137 269.08 25.8707 268.491 25.8707 267.815C25.8707 267.156 26.0094 266.58 26.2867 266.086C26.5727 265.583 26.9584 265.193 27.4437 264.916C27.9377 264.63 28.5054 264.487 29.1467 264.487C30.074 264.487 30.8107 264.782 31.3567 265.371C31.9027 265.952 32.1757 266.74 32.1757 267.737C32.1757 268.066 31.972 268.231 31.5647 268.231H27.7427C27.812 268.734 27.994 269.102 28.2887 269.336C28.592 269.561 29.008 269.674 29.5367 269.674C29.7447 269.674 29.9787 269.652 30.2387 269.609C30.5074 269.557 30.763 269.47 31.0057 269.349C31.257 269.228 31.4694 269.206 31.6427 269.284C31.816 269.353 31.933 269.475 31.9937 269.648C32.063 269.821 32.063 270.003 31.9937 270.194C31.933 270.376 31.79 270.528 31.5647 270.649C31.2614 270.814 30.9234 270.935 30.5507 271.013C30.1867 271.1 29.8357 271.143 29.4977 271.143ZM29.2247 265.787C28.8087 265.787 28.4707 265.913 28.2107 266.164C27.9594 266.415 27.8034 266.766 27.7427 267.217H30.5507C30.4987 266.264 30.0567 265.787 29.2247 265.787ZM35.4755 271.143C34.9988 271.143 34.5785 271.052 34.2145 270.87C33.8505 270.688 33.5601 270.441 33.3435 270.129C33.1355 269.817 33.0315 269.466 33.0315 269.076C33.0315 268.617 33.1528 268.248 33.3955 267.971C33.6381 267.694 34.0325 267.499 34.5785 267.386C35.1245 267.265 35.8481 267.204 36.7495 267.204H37.2175V266.983C37.2175 266.602 37.1308 266.333 36.9575 266.177C36.7841 266.012 36.4895 265.93 36.0735 265.93C35.8395 265.93 35.5838 265.96 35.3065 266.021C35.0291 266.073 34.7301 266.164 34.4095 266.294C34.1668 266.398 33.9631 266.407 33.7985 266.32C33.6338 266.225 33.5255 266.086 33.4735 265.904C33.4215 265.713 33.4345 265.523 33.5125 265.332C33.5991 265.141 33.7638 265.003 34.0065 264.916C34.4138 264.76 34.7951 264.652 35.1505 264.591C35.5145 264.522 35.8481 264.487 36.1515 264.487C37.1395 264.487 37.8761 264.712 38.3615 265.163C38.8468 265.605 39.0895 266.294 39.0895 267.23V270.116C39.0895 270.783 38.7861 271.117 38.1795 271.117C37.5641 271.117 37.2565 270.783 37.2565 270.116V270.038C37.1265 270.376 36.9055 270.645 36.5935 270.844C36.2901 271.043 35.9175 271.143 35.4755 271.143ZM35.9175 269.83C36.2815 269.83 36.5891 269.704 36.8405 269.453C37.0918 269.202 37.2175 268.877 37.2175 268.478V268.218H36.7625C36.0951 268.218 35.6228 268.279 35.3455 268.4C35.0681 268.513 34.9295 268.712 34.9295 268.998C34.9295 269.241 35.0118 269.44 35.1765 269.596C35.3498 269.752 35.5968 269.83 35.9175 269.83ZM42.9978 271.143C42.6165 271.143 42.2221 271.108 41.8148 271.039C41.4161 270.97 41.0521 270.853 40.7228 270.688C40.5061 270.575 40.3631 270.432 40.2938 270.259C40.2331 270.086 40.2331 269.917 40.2938 269.752C40.3545 269.587 40.4628 269.466 40.6188 269.388C40.7748 269.301 40.9568 269.301 41.1648 269.388C41.5201 269.535 41.8451 269.639 42.1398 269.7C42.4431 269.761 42.7335 269.791 43.0108 269.791C43.3748 269.791 43.6435 269.735 43.8168 269.622C43.9901 269.501 44.0768 269.345 44.0768 269.154C44.0768 268.851 43.8558 268.66 43.4138 268.582L42.0488 268.335C41.5028 268.24 41.0868 268.045 40.8008 267.75C40.5148 267.455 40.3718 267.07 40.3718 266.593C40.3718 266.16 40.4931 265.787 40.7358 265.475C40.9785 265.163 41.3121 264.92 41.7368 264.747C42.1615 264.574 42.6511 264.487 43.2058 264.487C43.9685 264.487 44.6445 264.634 45.2338 264.929C45.4331 265.024 45.5545 265.159 45.5978 265.332C45.6498 265.505 45.6411 265.674 45.5718 265.839C45.5025 266.004 45.3898 266.129 45.2338 266.216C45.0778 266.294 44.8915 266.285 44.6748 266.19C44.3888 266.06 44.1288 265.969 43.8948 265.917C43.6608 265.856 43.4398 265.826 43.2318 265.826C42.8418 265.826 42.5601 265.891 42.3868 266.021C42.2135 266.142 42.1268 266.298 42.1268 266.489C42.1268 266.792 42.3305 266.983 42.7378 267.061L44.1028 267.308C44.6661 267.403 45.0951 267.594 45.3898 267.88C45.6845 268.157 45.8318 268.539 45.8318 269.024C45.8318 269.691 45.5718 270.211 45.0518 270.584C44.5318 270.957 43.8471 271.143 42.9978 271.143ZM49.3052 271.143C48.4906 271.143 47.8882 270.918 47.4982 270.467C47.1169 270.016 46.9262 269.34 46.9262 268.439V265.501C46.9262 264.842 47.2512 264.513 47.9012 264.513C48.5599 264.513 48.8892 264.842 48.8892 265.501V268.491C48.8892 269.245 49.2142 269.622 49.8642 269.622C50.2369 269.622 50.5402 269.492 50.7742 269.232C51.0169 268.963 51.1382 268.612 51.1382 268.179V265.501C51.1382 264.842 51.4632 264.513 52.1132 264.513C52.7719 264.513 53.1012 264.842 53.1012 265.501V270.116C53.1012 270.783 52.7849 271.117 52.1522 271.117C51.8402 271.117 51.6019 271.03 51.4372 270.857C51.2726 270.684 51.1902 270.441 51.1902 270.129C50.7656 270.805 50.1372 271.143 49.3052 271.143ZM55.6342 271.117C54.9582 271.117 54.6202 270.783 54.6202 270.116V265.501C54.6202 264.842 54.9409 264.513 55.5822 264.513C56.2235 264.513 56.5442 264.842 56.5442 265.501V265.735C56.8562 264.964 57.5019 264.548 58.4812 264.487C58.6979 264.47 58.8625 264.526 58.9752 264.656C59.0965 264.777 59.1615 264.981 59.1702 265.267C59.1875 265.536 59.1312 265.748 59.0012 265.904C58.8799 266.06 58.6719 266.155 58.3772 266.19L58.0782 266.216C57.1075 266.311 56.6222 266.805 56.6222 267.698V270.116C56.6222 270.783 56.2929 271.117 55.6342 271.117ZM62.1132 273.457C61.7665 273.457 61.5195 273.327 61.3722 273.067C61.2335 272.816 61.2422 272.521 61.3982 272.183L62.0872 270.649L59.9682 265.787C59.8295 265.449 59.8295 265.154 59.9682 264.903C60.1155 264.643 60.4059 264.513 60.8392 264.513C61.0732 264.513 61.2595 264.569 61.3982 264.682C61.5455 264.786 61.6799 264.99 61.8012 265.293L63.1272 268.673L64.5052 265.28C64.6265 264.985 64.7609 264.786 64.9082 264.682C65.0642 264.569 65.2722 264.513 65.5322 264.513C65.8615 264.513 66.0912 264.643 66.2212 264.903C66.3599 265.154 66.3555 265.445 66.2082 265.774L63.1532 272.703C63.0232 272.998 62.8759 273.197 62.7112 273.301C62.5552 273.405 62.3559 273.457 62.1132 273.457ZM72.1557 271C71.4537 271 71.1027 270.649 71.1027 269.947V262.888C71.1027 262.186 71.4537 261.835 72.1557 261.835H74.6907C76.2507 261.835 77.4597 262.234 78.3177 263.031C79.1757 263.82 79.6047 264.946 79.6047 266.411C79.6047 267.876 79.1757 269.007 78.3177 269.804C77.4597 270.601 76.2507 271 74.6907 271H72.1557ZM73.1177 269.349H74.5737C76.5237 269.349 77.4987 268.37 77.4987 266.411C77.4987 264.461 76.5237 263.486 74.5737 263.486H73.1177V269.349ZM81.2143 271.117C80.8503 271.117 80.5903 270.996 80.4343 270.753C80.2783 270.51 80.2826 270.211 80.4473 269.856L83.7753 262.563C83.9139 262.268 84.0786 262.056 84.2693 261.926C84.4599 261.787 84.6809 261.718 84.9323 261.718C85.1836 261.718 85.4046 261.787 85.5953 261.926C85.7859 262.056 85.9463 262.268 86.0763 262.563L89.4303 269.856C89.5949 270.22 89.5993 270.523 89.4433 270.766C89.2959 271 89.0533 271.117 88.7153 271.117C88.4206 271.117 88.1909 271.048 88.0263 270.909C87.8703 270.77 87.7316 270.554 87.6103 270.259L87.0643 269.011H82.7873L82.2543 270.259C82.1243 270.562 81.9856 270.783 81.8383 270.922C81.6909 271.052 81.4829 271.117 81.2143 271.117ZM84.9063 263.98L83.4632 267.438H86.4013L84.9323 263.98H84.9063ZM94.7775 271.143C93.8762 271.143 93.0832 270.948 92.3985 270.558C91.7225 270.159 91.1938 269.609 90.8125 268.907C90.4398 268.196 90.2535 267.364 90.2535 266.411C90.2535 265.458 90.4398 264.63 90.8125 263.928C91.1938 263.217 91.7225 262.667 92.3985 262.277C93.0745 261.887 93.8675 261.692 94.7775 261.692C95.6875 261.692 96.4805 261.887 97.1565 262.277C97.8412 262.667 98.3698 263.217 98.7425 263.928C99.1238 264.63 99.3145 265.453 99.3145 266.398C99.3145 267.351 99.1238 268.183 98.7425 268.894C98.3698 269.605 97.8412 270.159 97.1565 270.558C96.4805 270.948 95.6875 271.143 94.7775 271.143ZM94.7775 269.427C95.5402 269.427 96.1338 269.163 96.5585 268.634C96.9918 268.097 97.2085 267.356 97.2085 266.411C97.2085 265.458 96.9962 264.721 96.5715 264.201C96.1468 263.672 95.5488 263.408 94.7775 263.408C94.0235 263.408 93.4298 263.672 92.9965 264.201C92.5718 264.721 92.3595 265.458 92.3595 266.411C92.3595 267.356 92.5718 268.097 92.9965 268.634C93.4298 269.163 94.0235 269.427 94.7775 269.427Z" fill="white"/>
<path d="M123.121 197.117C122.792 197.117 122.54 197.026 122.367 196.844C122.194 196.662 122.107 196.406 122.107 196.077V189.499H119.806C119.243 189.499 118.961 189.222 118.961 188.667C118.961 188.112 119.243 187.835 119.806 187.835H126.423C126.986 187.835 127.268 188.112 127.268 188.667C127.268 189.222 126.986 189.499 126.423 189.499H124.122V196.077C124.122 196.406 124.035 196.662 123.862 196.844C123.697 197.026 123.45 197.117 123.121 197.117ZM129.151 197.117C128.822 197.117 128.57 197.026 128.397 196.844C128.224 196.662 128.137 196.406 128.137 196.077V188.758C128.137 188.065 128.475 187.718 129.151 187.718C129.818 187.718 130.152 188.065 130.152 188.758V191.514H134.416V188.758C134.416 188.065 134.75 187.718 135.417 187.718C136.093 187.718 136.431 188.065 136.431 188.758V196.077C136.431 196.406 136.344 196.662 136.171 196.844C135.998 197.026 135.746 197.117 135.417 197.117C135.096 197.117 134.849 197.026 134.676 196.844C134.503 196.662 134.416 196.406 134.416 196.077V193.191H130.152V196.077C130.152 196.77 129.818 197.117 129.151 197.117ZM138.54 197.117C138.176 197.117 137.916 196.996 137.76 196.753C137.604 196.51 137.609 196.211 137.773 195.856L141.101 188.563C141.24 188.268 141.405 188.056 141.595 187.926C141.786 187.787 142.007 187.718 142.258 187.718C142.51 187.718 142.731 187.787 142.921 187.926C143.112 188.056 143.272 188.268 143.402 188.563L146.756 195.856C146.921 196.22 146.925 196.523 146.769 196.766C146.622 197 146.379 197.117 146.041 197.117C145.747 197.117 145.517 197.048 145.352 196.909C145.196 196.77 145.058 196.554 144.936 196.259L144.39 195.011H140.113L139.58 196.259C139.45 196.562 139.312 196.783 139.164 196.922C139.017 197.052 138.809 197.117 138.54 197.117ZM142.232 189.98L140.789 193.438H143.727L142.258 189.98H142.232ZM149.096 197C148.758 197 148.502 196.913 148.329 196.74C148.155 196.558 148.069 196.302 148.069 195.973V188.836C148.069 188.507 148.155 188.255 148.329 188.082C148.502 187.9 148.753 187.809 149.083 187.809C149.75 187.809 150.084 188.151 150.084 188.836V195.297H153.568C154.148 195.297 154.439 195.579 154.439 196.142C154.439 196.714 154.148 197 153.568 197H149.096ZM156.574 197C155.872 197 155.521 196.649 155.521 195.947V188.888C155.521 188.186 155.872 187.835 156.574 187.835H161.111C161.639 187.835 161.904 188.095 161.904 188.615C161.904 189.144 161.639 189.408 161.111 189.408H157.445V191.553H160.812C161.349 191.553 161.618 191.817 161.618 192.346C161.618 192.875 161.349 193.139 160.812 193.139H157.445V195.427H161.111C161.639 195.427 161.904 195.687 161.904 196.207C161.904 196.736 161.639 197 161.111 197H156.574ZM166.541 197.143C165.986 197.143 165.431 197.082 164.877 196.961C164.322 196.84 163.841 196.662 163.434 196.428C163.191 196.298 163.039 196.125 162.979 195.908C162.918 195.683 162.931 195.466 163.018 195.258C163.104 195.05 163.243 194.903 163.434 194.816C163.624 194.729 163.854 194.751 164.123 194.881C164.469 195.08 164.855 195.228 165.28 195.323C165.704 195.418 166.125 195.466 166.541 195.466C167.165 195.466 167.611 195.371 167.88 195.18C168.157 194.981 168.296 194.734 168.296 194.439C168.296 194.188 168.2 193.988 168.01 193.841C167.819 193.694 167.485 193.568 167.009 193.464L165.54 193.152C163.902 192.805 163.083 191.956 163.083 190.604C163.083 190.023 163.239 189.516 163.551 189.083C163.863 188.641 164.296 188.299 164.851 188.056C165.414 187.813 166.064 187.692 166.801 187.692C167.286 187.692 167.763 187.753 168.231 187.874C168.699 187.987 169.11 188.156 169.466 188.381C169.682 188.511 169.817 188.68 169.869 188.888C169.921 189.096 169.903 189.295 169.817 189.486C169.739 189.677 169.6 189.811 169.401 189.889C169.21 189.967 168.972 189.937 168.686 189.798C168.4 189.651 168.096 189.542 167.776 189.473C167.455 189.404 167.126 189.369 166.788 189.369C166.242 189.369 165.817 189.477 165.514 189.694C165.219 189.902 165.072 190.175 165.072 190.513C165.072 190.764 165.163 190.968 165.345 191.124C165.527 191.28 165.843 191.406 166.294 191.501L167.763 191.813C169.444 192.177 170.285 193 170.285 194.283C170.285 194.855 170.129 195.358 169.817 195.791C169.513 196.216 169.08 196.549 168.517 196.792C167.962 197.026 167.303 197.143 166.541 197.143ZM178.5 197.143C177.945 197.143 177.39 197.082 176.836 196.961C176.281 196.84 175.8 196.662 175.393 196.428C175.15 196.298 174.998 196.125 174.938 195.908C174.877 195.683 174.89 195.466 174.977 195.258C175.063 195.05 175.202 194.903 175.393 194.816C175.583 194.729 175.813 194.751 176.082 194.881C176.428 195.08 176.814 195.228 177.239 195.323C177.663 195.418 178.084 195.466 178.5 195.466C179.124 195.466 179.57 195.371 179.839 195.18C180.116 194.981 180.255 194.734 180.255 194.439C180.255 194.188 180.159 193.988 179.969 193.841C179.778 193.694 179.444 193.568 178.968 193.464L177.499 193.152C175.861 192.805 175.042 191.956 175.042 190.604C175.042 190.023 175.198 189.516 175.51 189.083C175.822 188.641 176.255 188.299 176.81 188.056C177.373 187.813 178.023 187.692 178.76 187.692C179.245 187.692 179.722 187.753 180.19 187.874C180.658 187.987 181.069 188.156 181.425 188.381C181.641 188.511 181.776 188.68 181.828 188.888C181.88 189.096 181.862 189.295 181.776 189.486C181.698 189.677 181.559 189.811 181.36 189.889C181.169 189.967 180.931 189.937 180.645 189.798C180.359 189.651 180.055 189.542 179.735 189.473C179.414 189.404 179.085 189.369 178.747 189.369C178.201 189.369 177.776 189.477 177.473 189.694C177.178 189.902 177.031 190.175 177.031 190.513C177.031 190.764 177.122 190.968 177.304 191.124C177.486 191.28 177.802 191.406 178.253 191.501L179.722 191.813C181.403 192.177 182.244 193 182.244 194.283C182.244 194.855 182.088 195.358 181.776 195.791C181.472 196.216 181.039 196.549 180.476 196.792C179.921 197.026 179.262 197.143 178.5 197.143ZM186.427 197.143C184.633 197.143 183.736 196.272 183.736 194.53V192.086H183.19C182.679 192.086 182.423 191.843 182.423 191.358C182.423 190.864 182.679 190.617 183.19 190.617H183.736V189.629C183.736 188.962 184.065 188.628 184.724 188.628C185.374 188.628 185.699 188.962 185.699 189.629V190.617H186.934C187.437 190.617 187.688 190.864 187.688 191.358C187.688 191.843 187.437 192.086 186.934 192.086H185.699V194.452C185.699 194.816 185.781 195.089 185.946 195.271C186.119 195.453 186.392 195.544 186.765 195.544C186.895 195.544 187.016 195.531 187.129 195.505C187.242 195.479 187.346 195.462 187.441 195.453C187.562 195.444 187.662 195.483 187.74 195.57C187.818 195.657 187.857 195.834 187.857 196.103C187.857 196.32 187.822 196.506 187.753 196.662C187.684 196.809 187.562 196.918 187.389 196.987C187.276 197.03 187.12 197.065 186.921 197.091C186.73 197.126 186.566 197.143 186.427 197.143ZM190.708 197.143C190.231 197.143 189.811 197.052 189.447 196.87C189.083 196.688 188.793 196.441 188.576 196.129C188.368 195.817 188.264 195.466 188.264 195.076C188.264 194.617 188.385 194.248 188.628 193.971C188.871 193.694 189.265 193.499 189.811 193.386C190.357 193.265 191.081 193.204 191.982 193.204H192.45V192.983C192.45 192.602 192.363 192.333 192.19 192.177C192.017 192.012 191.722 191.93 191.306 191.93C191.072 191.93 190.816 191.96 190.539 192.021C190.262 192.073 189.963 192.164 189.642 192.294C189.399 192.398 189.196 192.407 189.031 192.32C188.866 192.225 188.758 192.086 188.706 191.904C188.654 191.713 188.667 191.523 188.745 191.332C188.832 191.141 188.996 191.003 189.239 190.916C189.646 190.76 190.028 190.652 190.383 190.591C190.747 190.522 191.081 190.487 191.384 190.487C192.372 190.487 193.109 190.712 193.594 191.163C194.079 191.605 194.322 192.294 194.322 193.23V196.116C194.322 196.783 194.019 197.117 193.412 197.117C192.797 197.117 192.489 196.783 192.489 196.116V196.038C192.359 196.376 192.138 196.645 191.826 196.844C191.523 197.043 191.15 197.143 190.708 197.143ZM191.15 195.83C191.514 195.83 191.822 195.704 192.073 195.453C192.324 195.202 192.45 194.877 192.45 194.478V194.218H191.995C191.328 194.218 190.855 194.279 190.578 194.4C190.301 194.513 190.162 194.712 190.162 194.998C190.162 195.241 190.244 195.44 190.409 195.596C190.582 195.752 190.829 195.83 191.15 195.83ZM196.774 197.117C196.116 197.117 195.786 196.783 195.786 196.116V188.719C195.786 188.052 196.116 187.718 196.774 187.718C197.424 187.718 197.749 188.052 197.749 188.719V193.256H197.775L199.66 191.163C199.851 190.946 200.024 190.786 200.18 190.682C200.336 190.569 200.553 190.513 200.83 190.513C201.099 190.513 201.307 190.582 201.454 190.721C201.602 190.851 201.675 191.02 201.675 191.228C201.675 191.427 201.589 191.622 201.415 191.813L199.751 193.672L201.636 195.843C201.801 196.051 201.87 196.255 201.844 196.454C201.827 196.645 201.74 196.805 201.584 196.935C201.428 197.056 201.229 197.117 200.986 197.117C200.683 197.117 200.445 197.061 200.271 196.948C200.107 196.835 199.929 196.662 199.738 196.428L197.775 194.244H197.749V196.116C197.749 196.783 197.424 197.117 196.774 197.117ZM206.249 197.143C205.495 197.143 204.845 197.009 204.299 196.74C203.761 196.463 203.345 196.077 203.051 195.583C202.765 195.08 202.622 194.491 202.622 193.815C202.622 193.156 202.76 192.58 203.038 192.086C203.324 191.583 203.709 191.193 204.195 190.916C204.689 190.63 205.256 190.487 205.898 190.487C206.825 190.487 207.562 190.782 208.108 191.371C208.654 191.952 208.927 192.74 208.927 193.737C208.927 194.066 208.723 194.231 208.316 194.231H204.494C204.563 194.734 204.745 195.102 205.04 195.336C205.343 195.561 205.759 195.674 206.288 195.674C206.496 195.674 206.73 195.652 206.99 195.609C207.258 195.557 207.514 195.47 207.757 195.349C208.008 195.228 208.22 195.206 208.394 195.284C208.567 195.353 208.684 195.475 208.745 195.648C208.814 195.821 208.814 196.003 208.745 196.194C208.684 196.376 208.541 196.528 208.316 196.649C208.012 196.814 207.674 196.935 207.302 197.013C206.938 197.1 206.587 197.143 206.249 197.143ZM205.976 191.787C205.56 191.787 205.222 191.913 204.962 192.164C204.71 192.415 204.554 192.766 204.494 193.217H207.302C207.25 192.264 206.808 191.787 205.976 191.787ZM211.082 197.117C210.406 197.117 210.068 196.783 210.068 196.116V191.501C210.068 190.842 210.389 190.513 211.03 190.513C211.672 190.513 211.992 190.842 211.992 191.501V191.735C212.304 190.964 212.95 190.548 213.929 190.487C214.146 190.47 214.311 190.526 214.423 190.656C214.545 190.777 214.61 190.981 214.618 191.267C214.636 191.536 214.579 191.748 214.449 191.904C214.328 192.06 214.12 192.155 213.825 192.19L213.526 192.216C212.556 192.311 212.07 192.805 212.07 193.698V196.116C212.07 196.783 211.741 197.117 211.082 197.117ZM217.806 197.143C217.425 197.143 217.031 197.108 216.623 197.039C216.225 196.97 215.861 196.853 215.531 196.688C215.315 196.575 215.172 196.432 215.102 196.259C215.042 196.086 215.042 195.917 215.102 195.752C215.163 195.587 215.271 195.466 215.427 195.388C215.583 195.301 215.765 195.301 215.973 195.388C216.329 195.535 216.654 195.639 216.948 195.7C217.252 195.761 217.542 195.791 217.819 195.791C218.183 195.791 218.452 195.735 218.625 195.622C218.799 195.501 218.885 195.345 218.885 195.154C218.885 194.851 218.664 194.66 218.222 194.582L216.857 194.335C216.311 194.24 215.895 194.045 215.609 193.75C215.323 193.455 215.18 193.07 215.18 192.593C215.18 192.16 215.302 191.787 215.544 191.475C215.787 191.163 216.121 190.92 216.545 190.747C216.97 190.574 217.46 190.487 218.014 190.487C218.777 190.487 219.453 190.634 220.042 190.929C220.242 191.024 220.363 191.159 220.406 191.332C220.458 191.505 220.45 191.674 220.38 191.839C220.311 192.004 220.198 192.129 220.042 192.216C219.886 192.294 219.7 192.285 219.483 192.19C219.197 192.06 218.937 191.969 218.703 191.917C218.469 191.856 218.248 191.826 218.04 191.826C217.65 191.826 217.369 191.891 217.195 192.021C217.022 192.142 216.935 192.298 216.935 192.489C216.935 192.792 217.139 192.983 217.546 193.061L218.911 193.308C219.475 193.403 219.904 193.594 220.198 193.88C220.493 194.157 220.64 194.539 220.64 195.024C220.64 195.691 220.38 196.211 219.86 196.584C219.34 196.957 218.656 197.143 217.806 197.143Z" fill="white"/>
<path d="M172.707 116.293C172.317 115.902 171.683 115.902 171.293 116.293L164.929 122.657C164.538 123.047 164.538 123.681 164.929 124.071C165.319 124.462 165.953 124.462 166.343 124.071L172 118.414L177.657 124.071C178.047 124.462 178.681 124.462 179.071 124.071C179.462 123.681 179.462 123.047 179.071 122.657L172.707 116.293ZM173 135L173 117L171 117L171 135L173 135Z" fill="#AEAEAE"/>
<path d="M230 243C230.552 243 231 242.552 231 242L231 233C231 232.448 230.552 232 230 232C229.448 232 229 232.448 229 233L229 241L221 241C220.448 241 220 241.448 220 242C220 242.552 220.448 243 221 243L230 243ZM216.293 229.707L229.293 242.707L230.707 241.293L217.707 228.293L216.293 229.707Z" fill="#AEAEAE"/>
<path d="M109 241C109 241.552 109.448 242 110 242L119 242C119.552 242 120 241.552 120 241C120 240.448 119.552 240 119 240L111 240L111 232C111 231.448 110.552 231 110 231C109.448 231 109 231.448 109 232L109 241ZM124.293 225.293L109.293 240.293L110.707 241.707L125.707 226.707L124.293 225.293Z" fill="#AEAEAE"/>
<path fill-rule="evenodd" clip-rule="evenodd" d="M120.266 79.0611L109.641 75L109.06 76.5179L119.686 80.579L115.625 91.2044L117.143 91.7845L121.204 81.1592L121.784 79.6413L120.266 79.0611Z" fill="#AEAEAE"/>
<path fill-rule="evenodd" clip-rule="evenodd" d="M49.9841 209.077L57.3203 200.384L56.0784 199.336L48.7423 208.029L40.0491 200.693L39.0011 201.935L47.6942 209.271L48.9361 210.319L49.9841 209.077Z" fill="#AEAEAE"/>
<path fill-rule="evenodd" clip-rule="evenodd" d="M222.423 80.9345L225.367 91.9219L226.937 91.5013L223.993 80.5139L234.98 77.5698L234.56 76.0002L223.572 78.9443L222.003 79.3648L222.423 80.9345Z" fill="#AEAEAE"/>
<path fill-rule="evenodd" clip-rule="evenodd" d="M103.338 297.284L105.695 308.412L107.285 308.075L104.928 296.947L116.056 294.59L115.719 293L104.591 295.358L103.001 295.694L103.338 297.284Z" fill="#AEAEAE"/>
<path fill-rule="evenodd" clip-rule="evenodd" d="M237.578 297.206L226.664 294L226.206 295.559L237.12 298.765L233.914 309.679L235.473 310.137L238.679 299.223L239.137 297.664L237.578 297.206Z" fill="#AEAEAE"/>
<path fill-rule="evenodd" clip-rule="evenodd" d="M295.853 210.274L304.352 202.713L303.271 201.499L294.773 209.059L287.212 200.561L285.998 201.641L293.559 210.14L294.639 211.354L295.853 210.274Z" fill="#AEAEAE"/>
</svg>
