<svg width="54" height="72" viewBox="0 0 54 72" fill="none" xmlns="http://www.w3.org/2000/svg">
<path d="M43.4059 6.02582C38.6618 2.1294 32.7131 -0.000277214 26.5743 4.98671e-05C20.4277 -0.0118852 14.4691 2.11889 9.72352 6.02582C6.33761 8.7992 3.69004 12.367 2.01661 16.4115C0.343192 20.456 -0.304136 24.8517 0.132281 29.207C0.568699 33.5623 2.07532 37.742 4.51795 41.374C6.96058 45.0059 10.2634 47.9773 14.1323 50.0235C14.2279 50.3296 14.3235 50.6357 14.4383 50.98C14.8577 52.1413 15.4302 53.2414 16.1406 54.2512C16.6804 55.0121 17.4797 55.5496 18.388 55.7624C18.8847 55.8835 19.4005 55.9052 19.9057 55.8265C20.4109 55.7477 20.8955 55.5699 21.3318 55.3032C21.7681 55.0366 22.1474 54.6865 22.4481 54.2728C22.7487 53.8592 22.9647 53.3903 23.0836 52.893C23.3527 51.6882 23.4652 50.4537 23.4184 49.2201C23.3876 48.0352 23.2597 46.8547 23.0358 45.6907C22.9043 44.9071 22.5815 44.1681 22.096 43.5391C21.6106 42.9101 20.9775 42.4106 20.2529 42.0848H20.0998C16.5728 40.5438 13.6779 37.8442 11.8944 34.4331C10.8535 32.3271 10.2697 30.0248 10.1812 27.6773C10.0927 25.3297 10.5016 22.99 11.3809 20.8116C12.2603 18.6333 13.5904 16.6655 15.2838 15.0375C16.9772 13.4095 18.9957 12.158 21.2068 11.3652C23.4179 10.5724 25.7716 10.2562 28.1135 10.4374C30.4554 10.6185 32.7325 11.2929 34.7954 12.4163C36.8584 13.5397 38.6604 15.0867 40.0834 16.9558C41.5064 18.8249 42.5181 20.9738 43.0521 23.2615C43.8818 27.0538 43.3785 31.0164 41.6271 34.4809C39.8471 37.9678 36.952 40.759 33.4026 42.41H33.3356L32.9053 42.6205C32.7618 42.697 32.6279 42.7831 32.4941 42.8691L32.188 43.1083C32.057 43.2156 31.9325 43.3306 31.815 43.4526C31.4834 43.7833 31.2059 44.1642 30.9926 44.5812L30.8587 44.8299L30.7918 44.9925L30.6196 45.3368C30.5443 45.5241 30.4805 45.7157 30.4284 45.9107C30.2946 46.4527 30.1925 47.002 30.1223 47.5559C30.0363 48.5123 29.998 49.3158 29.9693 50.1192L29.9024 54.6911C29.9024 56.1737 29.8545 57.6466 29.8354 59.11C29.792 60.6398 29.4236 62.1429 28.7548 63.5194V63.5194C28.2912 64.4243 28.0727 65.4349 28.1207 66.4505C28.1688 67.4661 28.4818 68.4515 29.0287 69.3086C29.5756 70.1657 30.3373 70.8647 31.2381 71.3361C32.1389 71.8075 33.1474 72.0349 34.1632 71.9957C35.1791 71.9564 36.167 71.6519 37.0287 71.1123C37.8904 70.5728 38.5959 69.8171 39.0751 68.9203C39.5542 68.0236 39.7903 67.017 39.7599 66.0007C39.7294 64.9843 39.4335 63.9937 38.9016 63.1272C38.1322 61.8736 37.6762 60.453 37.5722 58.9857C37.4957 57.5892 37.4383 56.2024 37.4862 54.8346C37.5044 53.5045 37.6227 52.1776 37.84 50.8652C37.8878 50.5783 37.9452 50.3105 38.0026 50.0522C43.0654 47.6876 47.2308 43.753 49.8804 38.8328C52.7798 33.4637 53.7195 27.2524 52.538 21.2657C51.3565 15.279 48.1277 9.89054 43.4059 6.02582V6.02582Z" fill="#F7F7F7"/>
<path d="M33.3856 33.401L26.6338 26.6483L19.8725 19.886L19.3274 19.3408C17.4589 21.2914 16.4287 23.8965 16.4576 26.5977C16.4866 29.2988 17.5723 31.8812 19.4822 33.7913C21.3921 35.7014 23.9741 36.7873 26.6749 36.8163C29.3757 36.8452 31.9804 35.8149 33.9307 33.9462L33.3856 33.401Z" fill="#F7F7F7"/>
</svg>
