<svg width="62" height="63" viewBox="0 0 62 63" fill="none" xmlns="http://www.w3.org/2000/svg">
<path d="M30.9299 62.0101C47.9513 62.0101 61.7499 48.2115 61.7499 31.1901C61.7499 14.1687 47.9513 0.370117 30.9299 0.370117C13.9084 0.370117 0.109863 14.1687 0.109863 31.1901C0.109863 48.2115 13.9084 62.0101 30.9299 62.0101Z" fill="#04045A"/>
<path d="M30.9297 57.9C45.6813 57.9 57.6397 45.9415 57.6397 31.19C57.6397 16.4385 45.6813 4.47998 30.9297 4.47998C16.1782 4.47998 4.21973 16.4385 4.21973 31.19C4.21973 45.9415 16.1782 57.9 30.9297 57.9Z" fill="white"/>
<path d="M30.9298 54.8201C43.9803 54.8201 54.5598 44.2405 54.5598 31.1901C54.5598 18.1396 43.9803 7.56006 30.9298 7.56006C17.8793 7.56006 7.2998 18.1396 7.2998 31.1901C7.2998 44.2405 17.8793 54.8201 30.9298 54.8201Z" fill="#0E052F"/>
<path d="M30.9298 54.8201C43.9803 54.8201 54.5598 44.2405 54.5598 31.1901C54.5598 18.1396 43.9803 7.56006 30.9298 7.56006C17.8793 7.56006 7.2998 18.1396 7.2998 31.1901C7.2998 44.2405 17.8793 54.8201 30.9298 54.8201Z" fill="url(#paint0_linear_6820_10777)"/>
<path opacity="0.5" d="M30.9302 52.4599C42.6773 52.4599 52.2002 42.937 52.2002 31.1899C52.2002 19.4428 42.6773 9.91992 30.9302 9.91992C19.1831 9.91992 9.66016 19.4428 9.66016 31.1899C9.66016 42.937 19.1831 52.4599 30.9302 52.4599Z" fill="white"/>
<path d="M26.0001 19.4903C25.6301 19.4303 25.6101 19.4203 25.7901 19.4003C26.344 19.3705 26.8992 19.4176 27.4401 19.5403C28.8513 19.9753 30.0942 20.8342 31.0001 22.0003L31.3201 22.3603L31.7901 22.2903C33.6851 21.9736 35.6314 22.2169 37.3901 22.9903C37.8342 23.1934 38.2564 23.4413 38.6501 23.7303C38.7087 23.8885 38.749 24.0529 38.7701 24.2203C38.9119 24.8642 38.8454 25.5366 38.5801 26.1403C38.5276 26.2224 38.4996 26.3178 38.4996 26.4153C38.4996 26.5128 38.5276 26.6082 38.5801 26.6903C38.6245 26.7798 38.6929 26.8552 38.7777 26.9082C38.8624 26.9612 38.9602 26.9896 39.0601 26.9903C39.4701 26.9903 39.9101 26.3203 40.1201 25.4003L40.2001 25.0303L40.3601 25.2103C41.2213 26.1566 41.8119 27.3171 42.0701 28.5703V28.8203L41.9201 28.5903C41.7069 28.237 41.4205 27.9336 41.0801 27.7003C40.19 27.2284 39.1849 27.017 38.1801 27.0903C37.1007 27.062 36.0304 26.8836 35.0001 26.5603C33.5701 26.0903 32.8401 25.4703 31.1301 23.2203C30.6159 22.5108 30.0475 21.8421 29.4301 21.2203C28.5073 20.2833 27.3022 19.6755 26.0001 19.4903Z" fill="#FF007A"/>
<path d="M39.0004 21.7102C39.0078 21.1918 39.113 20.6795 39.3104 20.2002C39.3544 20.1005 39.4045 20.0036 39.4604 19.9102C39.4498 19.9998 39.4263 20.0873 39.3904 20.1702C39.2551 20.6759 39.2346 21.2055 39.3304 21.7202C39.4504 22.5102 39.5104 22.6202 40.3304 23.4702C40.7204 23.8702 41.1704 24.3702 41.3304 24.5902L41.6204 24.9802L41.3304 24.7002C40.9108 24.3026 40.4666 23.9319 40.0004 23.5902C39.8804 23.5302 39.8604 23.5302 39.7804 23.5902C39.7004 23.6502 39.6904 23.7602 39.6804 24.2702C39.7029 24.8847 39.576 25.4955 39.3104 26.0502C39.1704 26.3202 39.1404 26.2602 39.3104 25.9602C39.422 25.6083 39.4561 25.2364 39.4104 24.8702C39.4104 23.3502 39.2304 22.9902 38.1704 22.3602C37.9004 22.2002 37.4604 21.9702 37.1704 21.8502C37.0049 21.7856 36.8445 21.7087 36.6904 21.6202C37.1938 21.7263 37.6885 21.8701 38.1704 22.0502C38.7904 22.2902 38.8904 22.3202 38.9604 22.2902C39.0304 22.2602 39.0004 22.1402 39.0004 21.7102Z" fill="#FF007A"/>
<path d="M26.7 24.3102C25.9284 23.2121 25.5384 21.8912 25.59 20.5502V20.1802H25.76C26.1534 20.2702 26.5333 20.4114 26.89 20.6002C27.59 21.0302 27.89 21.6002 28.21 23.0402C28.3 23.4602 28.42 23.9402 28.47 24.1002C28.6588 24.5446 28.8899 24.9699 29.16 25.3702C29.36 25.6602 29.23 25.7902 28.8 25.7502C27.9428 25.5536 27.1922 25.0389 26.7 24.3102Z" fill="#FF007A"/>
<path d="M38.1304 31.9302C34.6604 30.5302 33.4304 29.3202 33.4304 27.2702C33.4177 27.0871 33.4177 26.9033 33.4304 26.7202C33.537 26.7841 33.6374 26.8577 33.7304 26.9402C34.4404 27.5102 35.2304 27.7502 37.4104 28.0702C38.3184 28.178 39.2152 28.3654 40.0904 28.6302C41.0397 28.878 41.8978 29.3933 42.5626 30.1149C43.2275 30.8364 43.671 31.7338 43.8404 32.7002C43.919 33.4315 43.8818 34.1705 43.7304 34.8902C43.6091 35.338 43.4166 35.7635 43.1604 36.1502C43.1604 36.1502 43.1604 36.0602 43.1004 35.9302C43.08 35.546 42.9807 35.1702 42.8087 34.8261C42.6366 34.482 42.3955 34.177 42.1004 33.9302C40.8904 33.059 39.5506 32.384 38.1304 31.9302V31.9302Z" fill="#FF007A"/>
<path d="M35.6903 32.5103C35.6519 32.263 35.5951 32.019 35.5203 31.7803L35.4303 31.5103L35.6003 31.7003C35.8518 31.9929 36.0422 32.3329 36.1603 32.7003C36.2819 33.0187 36.3264 33.3613 36.2903 33.7003C36.3162 34.0185 36.2754 34.3387 36.1703 34.6403C36.0224 35.0846 35.7684 35.4862 35.4303 35.8103C34.7242 36.5089 33.7911 36.9311 32.8003 37.0003C32.6003 37.0003 32.0003 37.0703 31.4803 37.1003C30.4623 37.1145 29.4518 37.2762 28.4803 37.5803C28.4108 37.6123 28.3364 37.6326 28.2603 37.6403C28.5474 37.4127 28.8635 37.2244 29.2003 37.0803C30.0332 36.7159 30.9166 36.4799 31.8203 36.3803C32.5003 36.2703 33.2103 36.1303 33.3903 36.0803C33.7759 35.9972 34.1413 35.8389 34.4657 35.6145C34.7901 35.3901 35.067 35.1039 35.2806 34.7723C35.4943 34.4407 35.6404 34.0702 35.7107 33.682C35.781 33.2939 35.774 32.8957 35.6903 32.5103V32.5103Z" fill="#FF007A"/>
<path d="M37.2801 35.3403C36.8407 34.4603 36.7411 33.4492 37.0001 32.5003C37.0001 32.4003 37.0701 32.3203 37.1001 32.3203C37.1862 32.3556 37.267 32.4027 37.3401 32.4603C37.5501 32.6003 37.9801 32.8403 39.1101 33.4603C40.1659 33.953 41.1114 34.6536 41.8901 35.5203C42.3757 36.1324 42.696 36.8589 42.8201 37.6303C42.89 38.3244 42.8597 39.0249 42.7301 39.7103C42.5668 40.4162 42.2572 41.0799 41.8215 41.6587C41.3857 42.2374 40.8333 42.7183 40.2001 43.0703L39.8301 43.2503C39.8599 43.1166 39.9105 42.9884 39.9801 42.8703C40.187 42.4522 40.307 41.9965 40.3328 41.5307C40.3586 41.0649 40.2896 40.5987 40.1301 40.1603C39.7656 39.2624 39.292 38.4127 38.7201 37.6303C38.1841 36.9037 37.7027 36.1382 37.2801 35.3403V35.3403Z" fill="#FF007A"/>
<path d="M24.2301 40.7002C25.4752 39.6316 26.9784 38.9076 28.5901 38.6002C29.3432 38.5042 30.107 38.5346 30.8501 38.6902C31.7271 38.8918 32.5076 39.3898 33.0601 40.1002C33.5151 40.8165 33.7865 41.6339 33.8501 42.4802C33.9301 42.9602 34.0101 43.4802 34.0301 43.5402C34.1198 44.0752 34.3918 44.5628 34.8001 44.9202C35.1671 45.1231 35.5774 45.2354 35.9966 45.2476C36.4158 45.2598 36.8319 45.1715 37.2101 44.9902C37.3063 44.9463 37.4068 44.9128 37.5101 44.8902C37.5101 44.8902 37.0801 45.2402 36.7501 45.4002C36.3634 45.6091 35.9297 45.7158 35.4901 45.7102C35.0501 45.6977 34.6209 45.5703 34.2455 45.3404C33.87 45.1106 33.5613 44.7864 33.3501 44.4002C33.138 44.0282 32.9477 43.6442 32.7801 43.2502C32.1601 41.8302 31.8501 41.4002 31.1301 40.9302C30.8379 40.7364 30.5021 40.6184 30.1529 40.587C29.8037 40.5556 29.4522 40.6116 29.1301 40.7502C28.9541 40.8374 28.7999 40.9628 28.6785 41.1173C28.5572 41.2718 28.4719 41.4513 28.4287 41.643C28.3856 41.8346 28.3858 42.0334 28.4293 42.225C28.4728 42.4165 28.5585 42.5959 28.6801 42.7502C28.9482 43.0292 29.2987 43.2149 29.6801 43.2802C29.8311 43.2986 29.9844 43.2847 30.1296 43.2393C30.2748 43.1939 30.4087 43.118 30.5222 43.0167C30.6358 42.9154 30.7265 42.7911 30.7882 42.652C30.8499 42.513 30.8812 42.3623 30.8801 42.2102C30.8956 42.0248 30.8476 41.8398 30.744 41.6853C30.6404 41.5309 30.4874 41.4162 30.3101 41.3602C30.1941 41.2794 30.058 41.2321 29.9169 41.2235C29.7758 41.2149 29.635 41.2453 29.51 41.3114C29.3851 41.3775 29.2807 41.4767 29.2084 41.5982C29.1361 41.7197 29.0986 41.8588 29.1001 42.0002C29.0992 42.1019 29.1307 42.2013 29.1901 42.284C29.2494 42.3667 29.3334 42.4284 29.4301 42.4602C29.5701 42.5302 29.5801 42.5402 29.4301 42.5102C29.3117 42.4807 29.2042 42.418 29.1202 42.3294C29.0363 42.2409 28.9794 42.1302 28.9563 42.0104C28.9331 41.8906 28.9447 41.7666 28.9897 41.6532C29.0347 41.5398 29.1112 41.4416 29.2101 41.3702C29.3554 41.26 29.5228 41.1824 29.7008 41.1427C29.8788 41.103 30.0632 41.1021 30.2416 41.14C30.42 41.178 30.5881 41.2539 30.7345 41.3626C30.8809 41.4714 31.0022 41.6104 31.0901 41.7702C31.2308 42.1543 31.2308 42.576 31.0901 42.9602C30.9431 43.3475 30.6559 43.6653 30.2853 43.8506C29.9148 44.0359 29.4881 44.075 29.0901 43.9602C28.4846 43.8089 27.9486 43.4563 27.5701 42.9602C27.1538 42.4345 26.6295 42.0044 26.0325 41.699C25.4356 41.3936 24.78 41.2201 24.1101 41.1902L23.8501 41.0002L24.2301 40.7002Z" fill="#FF007A"/>
<path fill-rule="evenodd" clip-rule="evenodd" d="M18.46 17.4502C22.54 22.4002 25.39 25.1702 25.7 25.6002C26.01 26.0302 25.86 26.2802 25.42 26.5302C25.108 26.6876 24.7684 26.7827 24.42 26.8102C24.1015 26.8011 23.7982 26.6726 23.57 26.4502C23.41 26.3002 22.74 25.3002 21.19 22.9002C20 21.0702 19 19.5402 19 19.5202C19.6167 20.8157 20.3079 22.0745 21.07 23.2902C21.7398 24.3748 22.341 25.5003 22.87 26.6602C22.87 26.8902 22.81 27.0102 22.52 27.3302C21.9861 28.002 21.6906 28.8322 21.68 29.6902C21.4437 31.1985 20.7449 32.5962 19.68 33.6902C19.2496 34.1644 18.877 34.6881 18.57 35.2502C18.3382 35.6799 18.2211 36.1621 18.23 36.6502C18.1909 37.2331 18.2691 37.818 18.46 38.3702C18.654 38.9611 18.9337 39.5204 19.29 40.0302C19.5844 40.4127 19.8048 40.8468 19.94 41.3102C19.94 41.4602 19.94 41.4602 20.6 41.3102C21.8632 41.0823 23.0394 40.5115 24 39.6602C24.1883 39.4949 24.3345 39.2871 24.4267 39.0541C24.5188 38.8211 24.5542 38.5696 24.53 38.3202C24.5646 38.0703 24.5227 37.8158 24.41 37.5902C24.1149 37.0898 23.6898 36.6786 23.18 36.4002C22.8139 36.2128 22.4934 35.9473 22.2411 35.6224C21.9888 35.2976 21.8109 34.9213 21.72 34.5202C21.6575 33.7793 21.8479 33.0391 22.26 32.4202C22.7193 31.5655 22.9823 30.6193 23.03 29.6502C23.03 28.9202 23.17 28.6502 23.38 28.3902C23.5088 28.2565 23.6646 28.1516 23.837 28.0827C24.0094 28.0137 24.1945 27.9822 24.38 27.9902C25.0928 27.9468 25.7713 27.669 26.31 27.2002C26.4952 27.0439 26.6447 26.8496 26.7482 26.6305C26.8517 26.4114 26.9069 26.1725 26.91 25.9302V25.5202L26.68 25.2502C25.86 24.2502 17.89 16.7002 17.84 16.7002C17.79 16.7002 18.12 17.0002 18.46 17.4502ZM20.4 37.4502C20.5009 37.2868 20.5334 37.0902 20.4903 36.903C20.4473 36.7158 20.3322 36.5531 20.17 36.4502C19.88 36.2502 19.43 36.3502 19.43 36.6002C19.43 36.6802 19.43 36.7302 19.57 36.7802C19.71 36.8302 19.74 36.9602 19.57 37.1502C19.4 37.3402 19.45 37.5202 19.57 37.6402C19.6331 37.6979 19.7096 37.7389 19.7926 37.7593C19.8757 37.7798 19.9625 37.779 20.0451 37.7571C20.1278 37.7352 20.2036 37.6928 20.2656 37.634C20.3276 37.5751 20.3738 37.5016 20.4 37.4202V37.4502Z" fill="#FF007A"/>
<path fill-rule="evenodd" clip-rule="evenodd" d="M27.49 28.2001C27.2578 28.279 27.0469 28.4102 26.8735 28.5836C26.7001 28.757 26.5689 28.9679 26.49 29.2001C26.4148 29.5139 26.4429 29.8435 26.57 30.1401C26.76 30.3901 26.94 30.4601 27.43 30.4501C28.43 30.4501 29.21 30.0401 29.31 29.5201C29.3129 29.2577 29.2399 29.0001 29.0997 28.7783C28.9595 28.5565 28.7582 28.38 28.52 28.2701C28.1905 28.1484 27.8329 28.1241 27.49 28.2001V28.2001ZM28.61 29.0801C28.6446 29.0321 28.6679 28.9769 28.678 28.9187C28.6882 28.8604 28.685 28.8005 28.6686 28.7437C28.6522 28.6869 28.6231 28.6345 28.5835 28.5905C28.5439 28.5466 28.4948 28.5123 28.44 28.4901C27.96 28.2001 27.24 28.4401 27.24 28.8901C27.24 29.1101 27.62 29.3601 27.96 29.3601C28.2035 29.3491 28.4347 29.2495 28.61 29.0801V29.0801Z" fill="#FF007A"/>
<defs>
<linearGradient id="paint0_linear_6820_10777" x1="15.0798" y1="12.7801" x2="47.3698" y2="50.2701" gradientUnits="userSpaceOnUse">
<stop stop-color="#F8EEF4"/>
<stop offset="1" stop-color="#FBCCE2"/>
</linearGradient>
</defs>
</svg>
