<svg width="32" height="32" viewBox="0 0 32 32" fill="none" xmlns="http://www.w3.org/2000/svg">
<path fill-rule="evenodd" clip-rule="evenodd" d="M23.308 22.8137C23.24 23.387 22.7613 23.8137 22.2013 23.8137C21.6266 23.8137 21.148 23.387 21.0946 22.8137V18.4404C21.0413 18.0124 21.24 17.6137 21.6013 17.387C21.9746 17.1604 22.428 17.1604 22.7866 17.387C23.148 17.6137 23.3466 18.0124 23.308 18.4404V22.8137ZM17.1733 22.8136C17.12 23.387 16.6413 23.8136 16.0666 23.8136C15.5066 23.8136 15.028 23.387 14.96 22.8136V9.22697C14.9213 8.81364 15.12 8.39897 15.4813 8.17364C15.84 7.94697 16.2933 7.94697 16.668 8.17364C17.028 8.39897 17.2266 8.81364 17.1733 9.22697V22.8136ZM10.96 22.8137C10.9066 23.3871 10.428 23.8137 9.8533 23.8137C9.27997 23.8137 8.79997 23.3871 8.74797 22.8137V13.6004C8.70797 13.1857 8.90664 12.7737 9.26797 12.5471C9.62664 12.3204 10.0813 12.3204 10.4413 12.5471C10.8 12.7737 11.0013 13.1857 10.96 13.6004V22.8137ZM22.2266 2.66699H9.77464C5.23997 2.66699 2.66797 5.23899 2.66797 9.77366V22.227C2.66797 26.7603 5.23997 29.3337 9.77464 29.3337H22.2266C26.7613 29.3337 29.3346 26.7603 29.3346 22.227V9.77366C29.3213 5.23899 26.7613 2.66699 22.2266 2.66699Z" fill="#F6F6FE"/>
</svg>
