<svg width="33" height="32" viewBox="0 0 33 32" fill="none" xmlns="http://www.w3.org/2000/svg">
<path fill-rule="evenodd" clip-rule="evenodd" d="M24.308 22.8137C24.24 23.387 23.7613 23.8137 23.2013 23.8137C22.6266 23.8137 22.148 23.387 22.0946 22.8137V18.4404C22.0413 18.0124 22.24 17.6137 22.6013 17.387C22.9746 17.1604 23.428 17.1604 23.7866 17.387C24.148 17.6137 24.3466 18.0124 24.308 18.4404V22.8137ZM18.1733 22.8136C18.12 23.387 17.6413 23.8136 17.0666 23.8136C16.5066 23.8136 16.028 23.387 15.96 22.8136V9.22697C15.9213 8.81364 16.12 8.39897 16.4813 8.17364C16.84 7.94697 17.2933 7.94697 17.668 8.17364C18.028 8.39897 18.2266 8.81364 18.1733 9.22697V22.8136ZM11.96 22.8137C11.9066 23.3871 11.428 23.8137 10.8533 23.8137C10.28 23.8137 9.79997 23.3871 9.74797 22.8137V13.6004C9.70797 13.1857 9.90664 12.7737 10.268 12.5471C10.6266 12.3204 11.0813 12.3204 11.4413 12.5471C11.8 12.7737 12.0013 13.1857 11.96 13.6004V22.8137ZM23.2266 2.66699H10.7746C6.23997 2.66699 3.66797 5.23899 3.66797 9.77366V22.227C3.66797 26.7603 6.23997 29.3337 10.7746 29.3337H23.2266C27.7613 29.3337 30.3346 26.7603 30.3346 22.227V9.77366C30.3213 5.23899 27.7613 2.66699 23.2266 2.66699Z" fill="#748BC6"/>
</svg>
