<svg width="26" height="28" viewBox="0 0 26 28" fill="none" xmlns="http://www.w3.org/2000/svg">
<path fill-rule="evenodd" clip-rule="evenodd" d="M13.0168 14.2773C13.0168 13.8631 12.681 13.5273 12.2668 13.5273C11.8526 13.5273 11.5168 13.8631 11.5168 14.2773V16.3637H8.83984C8.42563 16.3637 8.08984 16.6995 8.08984 17.1137C8.08984 17.5279 8.42563 17.8637 8.83984 17.8637H11.5168V20.206C11.5168 20.6202 11.8526 20.956 12.2668 20.956C12.681 20.956 13.0168 20.6202 13.0168 20.206V17.8637H15.6126C16.0268 17.8637 16.3626 17.5279 16.3626 17.1137C16.3626 16.6995 16.0268 16.3637 15.6126 16.3637H13.0168V14.2773Z" fill="#748BC6"/>
<path fill-rule="evenodd" clip-rule="evenodd" d="M24.6359 23.2857V10.2857L14.7876 1H4.93932C3.89455 1 2.89257 1.39133 2.1538 2.08789C1.41503 2.78445 1 3.7292 1 4.71429V23.2857C1 24.2708 1.41503 25.2155 2.1538 25.9121C2.89257 26.6087 3.89455 27 4.93932 27H20.6966C21.7414 27 22.7434 26.6087 23.4821 25.9121C24.2209 25.2155 24.6359 24.2708 24.6359 23.2857V23.2857Z" stroke="#748BC6" stroke-width="1.5" stroke-linecap="round" stroke-linejoin="round"/>
<path d="M14.7891 1V6.57143C14.7891 7.55652 15.2041 8.50126 15.9429 9.19783C16.6816 9.89439 17.6836 10.2857 18.7284 10.2857H24.6374" stroke="#748BC6" stroke-width="1.5" stroke-linecap="round" stroke-linejoin="round"/>
</svg>
