<svg width="30" height="30" viewBox="0 0 30 30" fill="none" xmlns="http://www.w3.org/2000/svg">
<path fill-rule="evenodd" clip-rule="evenodd" d="M26.6359 24.2857V11.2857L16.7876 2H6.93932C5.89455 2 4.89257 2.39133 4.1538 3.08789C3.41503 3.78445 3 4.7292 3 5.71429V24.2857C3 25.2708 3.41503 26.2155 4.1538 26.9121C4.89257 27.6087 5.89455 28 6.93932 28H22.6966C23.7414 28 24.7434 27.6087 25.4821 26.9121C26.2209 26.2155 26.6359 25.2708 26.6359 24.2857Z" fill="#F6F6FE" stroke="#04045A" stroke-width="1.5" stroke-linecap="round" stroke-linejoin="round"/>
<path d="M17 3V8.57143C17 9.55652 17.415 10.5013 18.1538 11.1978C18.8926 11.8944 19.8945 12.2857 20.9393 12.2857H26.8483" stroke="#04045A" stroke-width="1.5" stroke-linecap="round" stroke-linejoin="round"/>
<path fill-rule="evenodd" clip-rule="evenodd" d="M15.4 15.75C15.4 15.3358 15.0642 15 14.65 15C14.2358 15 13.9 15.3358 13.9 15.75V17.4H11.75C11.3358 17.4 11 17.7358 11 18.15C11 18.5642 11.3358 18.9 11.75 18.9H13.9V20.5358C13.9 20.95 14.2358 21.2858 14.65 21.2858C15.0642 21.2858 15.4 20.95 15.4 20.5358V18.9H17.25C17.6642 18.9 18 18.5642 18 18.15C18 17.7358 17.6642 17.4 17.25 17.4H15.4V15.75Z" fill="#04045A"/>
</svg>
