<?xml version="1.0" encoding="utf-8"?>
<!-- Generator: Adobe Illustrator 16.0.0, SVG Export Plug-In . SVG Version: 6.00 Build 0)  -->
<!DOCTYPE svg PUBLIC "-//W3C//DTD SVG 1.1//EN" "http://www.w3.org/Graphics/SVG/1.1/DTD/svg11.dtd">
<svg version="1.1" id="Layer_1" xmlns="http://www.w3.org/2000/svg" xmlns:xlink="http://www.w3.org/1999/xlink" x="0px" y="0px"
	 width="22.375px" height="19.036px" viewBox="147.883 -45.73 22.375 19.036" enable-background="new 147.883 -45.73 22.375 19.036"
	 xml:space="preserve">
<g>
	<path fill="#50CE99" d="M170.041-28.327l0.009-0.016l-10.005-16.712c-0.146-0.393-0.516-0.676-0.959-0.676
		c-0.444,0-0.815,0.284-0.96,0.679l-9.934,16.592c-0.19,0.188-0.31,0.446-0.31,0.734c0,0.569,0.462,1.031,1.031,1.031
		c0.01,0,0.018-0.006,0.026-0.006l0.004,0.006h20.14l0.015-0.025c0.044,0.006,0.083,0.025,0.128,0.025
		c0.569,0,1.031-0.462,1.031-1.031C170.258-27.955,170.168-28.156,170.041-28.327z M162.846-29.021
		c-0.618,0.512-1.487,0.768-2.608,0.768h-4.336v-10.879h4.272c1.131,0,1.979,0.229,2.544,0.688c0.565,0.447,0.848,1.179,0.848,2.191
		c0,0.608-0.09,1.094-0.271,1.457c-0.182,0.352-0.49,0.666-0.928,0.943c0.479,0.203,0.832,0.496,1.056,0.881
		c0.234,0.383,0.353,0.916,0.353,1.6C163.774-30.317,163.464-29.532,162.846-29.021z"/>
	<path fill="#50CE99" d="M161.325-35.948c0-0.864-0.421-1.297-1.264-1.297h-1.951v2.593h1.967
		C160.909-34.652,161.325-35.085,161.325-35.948z"/>
	<path fill="#50CE99" d="M160.126-32.796h-2.016v2.654h2.016c0.48,0,0.832-0.096,1.056-0.287c0.235-0.191,0.353-0.543,0.353-1.057
		C161.534-32.358,161.064-32.796,160.126-32.796z"/>
</g>
</svg>
