<?xml version="1.0" encoding="utf-8"?>
<!-- Generator: Adobe Illustrator 16.0.0, SVG Export Plug-In . SVG Version: 6.00 Build 0)  -->
<!DOCTYPE svg PUBLIC "-//W3C//DTD SVG 1.1//EN" "http://www.w3.org/Graphics/SVG/1.1/DTD/svg11.dtd">
<svg version="1.1" id="Layer_1" xmlns="http://www.w3.org/2000/svg" xmlns:xlink="http://www.w3.org/1999/xlink" x="0px" y="0px"
	 width="16.025px" height="20.073px" viewBox="173.438 -46.249 16.025 20.073"
	 enable-background="new 173.438 -46.249 16.025 20.073" xml:space="preserve">
<g>
	<circle fill="#50CE99" cx="181.45" cy="-38.157" r="3.826"/>
	<path fill="#50CE99" d="M181.45-46.249c-4.426,0-8.013,3.587-8.013,8.012c0,4.06,3.021,7.405,6.937,7.932v3.108
		c0,0.563,0.457,1.021,1.021,1.021s1.021-0.457,1.021-1.021v-3.091c3.969-0.478,7.048-3.851,7.048-7.949
		C189.463-42.662,185.875-46.249,181.45-46.249z M181.45-32.009c-3.396,0-6.148-2.752-6.148-6.148c0-3.396,2.753-6.148,6.148-6.148
		s6.148,2.752,6.148,6.148C187.599-34.762,184.846-32.009,181.45-32.009z"/>
</g>
</svg>
