<?xml version="1.0" encoding="utf-8"?>
<!-- Generator: Adobe Illustrator 16.0.0, SVG Export Plug-In . SVG Version: 6.00 Build 0)  -->
<!DOCTYPE svg PUBLIC "-//W3C//DTD SVG 1.1//EN" "http://www.w3.org/Graphics/SVG/1.1/DTD/svg11.dtd">
<svg version="1.1" id="Layer_1" xmlns="http://www.w3.org/2000/svg" xmlns:xlink="http://www.w3.org/1999/xlink" x="0px" y="0px"
	 width="22.375px" height="19.036px" viewBox="121.214 -45.73 22.375 19.036" enable-background="new 121.214 -45.73 22.375 19.036"
	 xml:space="preserve">
<g>
	<path fill="#50CE99" d="M143.381-28.343l-10.005-16.712c-0.146-0.393-0.516-0.676-0.959-0.676c-0.444,0-0.815,0.284-0.96,0.679
		l-9.934,16.592c-0.19,0.188-0.31,0.446-0.31,0.734c0,0.569,0.462,1.031,1.031,1.031c0.01,0,0.018-0.006,0.026-0.006l0.004,0.006
		h20.14l0.015-0.025c0.044,0.006,0.083,0.025,0.128,0.025c0.569,0,1.031-0.462,1.031-1.031c0-0.229-0.09-0.431-0.217-0.602
		L143.381-28.343z M134.738-28.253l-0.432-1.967h-3.809l-0.432,1.967h-2.209l2.449-10.879h4.191l2.447,10.879H134.738z"/>
	<polygon fill="#50CE99" points="132.018,-37.309 130.914,-32.142 133.891,-32.142 132.786,-37.309 	"/>
</g>
</svg>
