<?xml version="1.0" encoding="utf-8"?>
<!-- Generator: Adobe Illustrator 16.0.0, SVG Export Plug-In . SVG Version: 6.00 Build 0)  -->
<!DOCTYPE svg PUBLIC "-//W3C//DTD SVG 1.1//EN" "http://www.w3.org/Graphics/SVG/1.1/DTD/svg11.dtd">
<svg version="1.1" id="Layer_1" xmlns="http://www.w3.org/2000/svg" xmlns:xlink="http://www.w3.org/1999/xlink" x="0px" y="0px"
	 width="511.061px" height="511.083px" viewBox="622.393 -74.311 511.061 511.083"
	 enable-background="new 622.393 -74.311 511.061 511.083" xml:space="preserve">
<g>
	
		<radialGradient id="SVGID_1_" cx="232.5593" cy="-210.8525" r="20.8699" gradientTransform="matrix(0 13.7626 -13.7626 0 -2023.9426 -2992.5115)" gradientUnits="userSpaceOnUse">
		<stop  offset="0.1667" style="stop-color:#073183"/>
		<stop  offset="1" style="stop-color:#0054F9"/>
	</radialGradient>
	<path fill="url(#SVGID_1_)" d="M877.924-74.311L877.924-74.311c141.23,0,255.529,114.32,255.529,255.553l0,0
		c0,141.209-114.299,255.53-255.529,255.53l0,0c-141.234,0-255.531-114.321-255.531-255.53l0,0
		C622.393,40.01,736.69-74.311,877.924-74.311z"/>
	<g>
		<path fill="#FFFFFF" d="M1051.43,101.309c-1.213,6.213-2.477,9.1-3.711,12.836l0,0c-1.65,3.738-3.326,8.3-4.977,16.551
			c-0.826,3.325-0.826,5.824-1.236,8.299l0,0l0,0c-0.414,3.738-0.824,5.801-2.063,10.339c-1.264,3.325-3.326,9.124-7.863,15.336
			c-3.736,4.974-10.361,13.686-18.637,14.51c-0.826,0-2.5,0-2.912,0c-24.023-12.423-44.725-21.548-52.174-23.634
			c-8.301-2.476-7.475-20.677-6.213-36.425c0.389-7.062,0.826-14.099,0.389-19.875c-1.213-20.287-4.537-42.249-22.35-53.436
			c-10.361-6.624-24.025-8.299-37.275-8.299c2.502-1.214,4.977-2.888,7.889-4.537l0,0c7.424-4.563,16.963-9.927,26.498-10.775
			c2.889-0.412,6.213-0.825,9.102-0.825c19.047-2.063,35.623-4.149,52.586,2.063c7.887,2.911,24.023,11.599,28.172,19.898
			c2.891,5.775,7.889,10.337,17.813,19.462c4.977,4.95,8.715,7.449,11.189,9.513l0,0c3.297,2.912,4.125,3.324,5.387,5.388
			C1054.342,84.734,1053.106,91.771,1051.43,101.309z"/>
		<path fill="#FFFFFF" d="M963.244,184.566c1.213,0.39,2.063,2.04,1.213,3.301c-2.475,3.736-5.361,9.125-8.688,15.338
			c-1.65,2.888-3.299,6.211-4.563,8.251c-4.535,7.886-4.949,14.925-5.387,20.31c-0.389,5.801-0.389,8.276-4.125,10.363
			c-2.91,2.061-5.799,2.477-25.674,5.387c-3.299,0.388-4.977,1.215-6.211,1.65c-0.412,0-0.412,0-0.826,0.413
			c-1.264,0.412-2.914-0.413-2.477-2.063c0-2.91,0.391-6.213,0.391-10.362v-0.849c0-3.713,0-7.038,0-9.512
			c-0.391-4.951-0.391-7.038,1.262-9.514c1.65-2.499,2.885-3.323,4.951-4.975c2.91-2.063,7.035-4.561,13.248-12.837
			c3.324-4.562,3.736-6.648,4.561-8.688c0-0.849,0.439-1.26,2.914-2.912c2.473-2.086,10.338-7.861,20.699-6.211
			C956.209,182.067,959.92,183.308,963.244,184.566L963.244,184.566z"/>
		<path fill="#FFFFFF" d="M884.961,276.077c-0.413,0.415-0.824,0.826-1.652,0.826c-2.086,0-3.736-0.411-4.561-1.651
			c-2.088-2.499-1.65-7.449-1.263-10.36l8.3-2.063C886.197,267.367,886.61,273.579,884.961,276.077z"/>
		<path fill="#FFFFFF" d="M885.372,245.842c0,1.236-0.411,2.5-0.411,4.149c0,0.411,0,1.238,0,1.651c0,1.261,0,3.736,0,4.561
			c-2.477,0.827-4.977,0.827-7.863,0.827c0-0.827,0-2.088,0-2.914c0-0.825,0-1.213,0-2.063c0-0.824,0-1.236,0-2.063
			c0-1.649,0-4.149,0.388-4.975c0.85,0,1.675-0.411,2.499-0.411c1.676-0.416,4.152-0.826,5.388-0.826
			C885.785,244.189,885.372,245.017,885.372,245.842z"/>
		<path fill="#FFFFFF" d="M870.061,273.579c-0.437,4.172-1.676,9.536-5.825,10.385c-1.65,0.39-2.888,0-3.299-0.849
			c-2.913-2.476-3.302-10.362-2.913-15.748c1.676,0,4.148-0.389,7.037-0.827c1.675-0.388,3.324-0.823,5-0.823
			C870.061,267.803,870.061,270.691,870.061,273.579z"/>
		<path fill="#FFFFFF" d="M867.973,258.267l-9.125,2.888c0.439-3.714,1.263-8.688,1.263-11.988c0-2.475,0.826-2.911,0.826-3.324
			c0,0,0,0,0.411,0l0,0l0,0l5.801-0.412C867.973,248.73,867.973,254.555,867.973,258.267z"/>
		<path fill="#FFFFFF" d="M853.487,255.379c-0.411,1.236-1.238,5.387-1.675,7.864l-11.601-0.415c0.852-3.714,1.676-7.038,2.5-9.925
			c0.824-2.912,2.063-5,2.889-5.388c1.262-0.824,3.736-0.824,5.387,0.388C853.487,249.991,854.311,252.466,853.487,255.379z"/>
		<path fill="#FFFFFF" d="M848.924,290.177c-0.824,1.214-2.063,1.65-2.889,2.039c-1.261,0-2.087,0-2.911-0.825
			c-3.737-3.301-3.301-14.075-3.301-19.463c4.563-1.236,9.925-2.063,12.425-2.063C852.636,274.015,852.636,285.615,848.924,290.177z
			"/>
		<path fill="#FFFFFF" d="M834,262.416c-0.389,1.65-1.214,2.911-1.65,4.124c-1.238,0.438-5.387,0-9.513-0.823l2.913-17.813
			c4.537-1.212,9.924-1.648,11.572-0.388C838.999,249.579,835.674,258.679,834,262.416z"/>
		<path fill="#FFFFFF" d="M829.049,293.065c-2.086,2.887-5.387,4.148-10.362,4.148c-3.325,0-4.537-1.262-4.974-2.086
			c-2.477-4.126,0-13.663,2.5-19.876l15.311,0.825c0,1.238,0.438,2.499,0.438,3.714C832.35,283.964,831.962,289.328,829.049,293.065
			z"/>
		<path fill="#FFFFFF" d="M956.596,162.605c-14.076-4.148-12.813-24.437-11.6-43.898c0.436-7.036,0.824-13.686,0.436-19.072
			c-1.26-18.2-4.148-38.487-19.072-47.612c-15.725-9.95-41.812-7.45-57.975-5.388l0,0l0,0c-5.8,1.649-11.574,2.912-15.749,2.912
			c-9.512-0.437-16.962-4.563-23.175-7.863c-4.975-2.912-9.535-4.998-13.661-4.998c-0.438,0-0.438,0-0.826,0
			c-12.425,0.825-18.248,3.737-23.198,8.712c-1.262,1.237-2.911,4.538-8.299,19.462c-2.477,7.45-3.301,11.6-3.713,15.75
			c-0.412,3.712-0.825,7.448-2.889,13.248c-1.263,3.737-2.5,7.451-3.324,10.338c-2.5,8.712-4.561,15.337-10.773,23.612
			c-0.826,0.849-1.65,2.5-2.477,4.149c-1.238,2.063-2.887,4.95-5.387,7.863c-1.676,2.086-5.389,10.361-4.976,12.838
			c0.415,4.147,1.651,6.623,2.912,9.535c1.651,2.888,3.301,6.213,3.301,10.773v0.826c0.413,7.037-0.413,10.773-14.075,22.764
			c-8.688,7.861-14.899,15.335-19.051,20.723c-0.41,0.389,0,1.238,0.827,1.238h0.411c0.413,0,0.413,0,0.824,0
			c0.415,0,0.415,0,0.826,0c0.438,0,0.438,0,0.826,0c3.324,0.412,6.648,1.65,8.709,4.148c0.416,0.388,0.828,0.388,1.652,0.388
			c2.064-0.825,4.563-0.825,7.04-0.388c2.886,0.388,5.384,1.214,7.448,2.888c0.824,0.827,1.648,0.827,2.498,0.827
			c2.063-0.413,4.539-0.413,6.626,0.412c1.649,0.412,2.911,1.648,4.125,2.474c0.825,1.263,2.912,1.263,4.151,0.438
			c0.41-0.438,1.236-0.438,1.672-0.827c2.889-0.824,6.213-0.437,9.102,0.389c1.236,0.438,2.889,0.825,4.148,1.674
			c2.063,1.24,3.301,3.325,4.563,5.801c0.824,1.651,2.888,2.476,4.537,1.237c1.676-1.237,3.326-1.674,4.977-0.825
			c0.411,0.413,1.235,0.825,1.648,1.239c1.264,1.236,2.912,2.475,4.563,2.086c4.563-1.262,9.95-0.437,13.663,1.65
			c1.675,0.825,2.888,2.061,4.149,3.713l0,0l0,0v-0.825c0-0.411,0.414-0.827,0.825-0.827l0.825-0.41
			c2.088-0.825,13.66-4.15,18.225,0.826c0,0,0.411,0.411,0.824,0c0.413-0.826,1.237-0.826,1.237-1.239
			c2.913-1.676,7.863-2.063,11.187,0.823c0.826,0.416,1.676,0.416,2.064-0.41c0.436-0.413,0.824-0.825,1.26-1.262
			c1.24-0.827,2.478-1.65,4.126-1.215l6.213-0.436c1.65,0,6.649-0.389,8.3-0.825h0.388c0.85,0,1.263-0.413,2.087-0.413
			c2.912-0.825,6.624-1.236,9.512,0c2.914,1.238,2.501,4.561,2.088,7.063c0,1.212-0.412,2.475-0.412,3.3c0,0.411,0,1.238,0,1.651
			c0,2.474,0,4.561-0.412,6.211l0,0l0,0l0.412,1.261c0.412,1.213,1.648,2.04,2.887,1.213c2.088-1.213,4.15-2.887,4.975-4.124
			c0,0,0,0,0-0.413c0-0.411,0.412-0.848,0.412-2.063c0.414-2.497,0.826-7.035,0.826-16.985c0-0.437,0-0.824,0-1.263
			c0-3.713,0-6.601,0-9.098c-0.412-5.388-0.412-9.54,2.086-13.664c2.477-4.149,4.953-5.8,7.453-7.037
			c2.885-1.651,5.799-3.736,11.186-10.773c2.475-3.737,2.887-4.976,3.299-6.213c0.412-2.476,1.262-4.127,5.389-7.451
			c3.301-2.499,12.836-9.948,26.086-7.449c4.15,0.826,11.188,2.889,18.225,5.775l0,0l0,0c0.412,0,0.412,0,0.824,0.438h0.439
			c6.211,2.477,11.986,4.95,15.723,7.037c1.238,0.412,2.475,0.412,3.301-0.825c1.262-1.262,2.5-2.499,3.738-3.324
			c0.41-0.411,0.824-0.411,1.236-0.826c1.238-1.237,1.238-3.324-0.412-4.149C979.795,169.643,962.42,164.257,956.596,162.605
			L956.596,162.605z M824.074,166.756c-4.148,18.636-33.561,39.748-46.812,39.748h-0.388c-0.437,0-0.437,0-0.824,0
			c-0.438,0-0.438,0-0.852,0h-0.411c-2.474-0.824-5.798-2.476-8.276-4.973c-1.673-1.65-2.887-3.715-3.734-5.801
			c0-0.412,0-0.824-0.414-1.237c-0.824-3.324-1.649-7.038,1.262-13.663c0.389-0.824,0.826-1.651,1.214-2.476
			c0-0.437,0.437-0.437,0.437-0.849c0.389-0.824,0.389-1.236,0.827-2.063c0.409-0.824,0.824-1.65,0.824-2.477
			c0-0.437,0.411-0.437,0.411-0.824c0.824-2.086,0.824-3.324,0.824-4.173c0-0.827,0-1.651,0.413-2.889
			c0.825-3.711,1.263-6.624,1.651-9.1c0.824-4.975,1.26-9.124,3.737-12.861c0.411-0.825,0.824-1.214,1.648-1.65l0.438-0.389
			l0.388-0.437c0.824-0.412,1.261-0.824,2.087-1.237c0.413,0,0.413-0.413,0.826-0.413c0.412,0,1.236-0.412,1.648-0.412
			c2.477-0.413,5.387-0.825,8.299-0.413c3.713,0.413,6.603,0.825,9.514,1.651c2.477,0.824,4.563,1.261,6.213,2.086
			c0,0,0.412,0,0.412,0.389c0.412,0,0.824,0.438,0.824,0.438c0.412,0.388,0.85,0.388,1.238,0.388
			c0.438,0.437,1.262,0.437,1.65,0.849h0.438c2.062,0.826,3.737,2.063,5.386,2.889c0.826,0.437,1.239,1.262,2.063,1.65
			c0.412,0,0.412,0.437,0.412,0.437l0.413,0.389C825.311,155.981,824.899,162.605,824.074,166.756z M837.737,95.509l-0.414,3.301
			c-1.236,7.886-4.148,18.248-15.311,21.136c-10.775,2.499-13.25,3.324-20.723,3.324h-0.389c-5.387,0-16.162-3.324-18.248-12.036
			c-1.24-5.775,1.26-9.513,5.385-16.55c0.827-1.262,1.262-2.477,2.088-3.737c5.389-9.101,7.451-15.725,9.099-20.7
			c1.677-4.975,2.89-9.537,6.626-12.838c0.824-0.823,1.65-1.648,2.912-2.474c0.826-0.438,1.239-0.825,2.063-1.263
			c0.824-0.411,2.062-0.824,3.324-1.236c2.476-0.825,4.948-1.239,7.862-1.239c4.951,0,10.338,1.651,14.074,4.563
			c1.65,1.236,4.125,4.124,5.388,11.987C841.474,71.484,840.211,78.958,837.737,95.509z M916.846,117.446
			c-3.734,6.648-5.801,10.361-9.125,12.861c-6.6,5.387-14.074,6.6-20.287,6.6c-4.561,0-8.273-0.825-10.773-1.213
			c-6.6-1.263-18.637-3.324-22.761-12.862c-0.824-2.062-0.824-2.887-0.824-4.561c0-1.651,0-4.127-0.827-9.926v-0.412
			c-0.437-2.912-0.824-5.8,0-9.95v-0.389c2.063-11.599,2.887-13.273,3.299-14.511c1.264-2.086,4.152-3.3,6.214-2.086
			c2.087,1.261,3.3,3.736,2.087,6.211c-0.437,0.849-0.824,3.324-2.5,12.036v0.39c-0.411,2.499-0.411,4.561,0,7.061v0.411
			c0.824,6.627,0.824,9.514,0.824,11.165c0,0.436,0,0.436,0,0.849c0,0,0,0,0,0.412c0.852,1.65,2.063,2.912,3.739,3.737
			c1.649,0.825,3.325-0.825,2.887-2.499c-2.063-9.925-1.649-21.525,2.087-28.563c1.238-2.499,3.713-6.648,5.775-10.361l0,0l0,0
			c0.438-0.411,0.438-0.848,0.825-1.236c0-0.438,0.438-0.825,0.438-0.825c0.824-1.676,2.061-3.325,2.473-4.15
			c0,0,0-0.412,0.412-0.412c0,0,0-0.437,0.414-0.437c0-0.388,0.438-0.388,0.438-0.825c0,0,0,0,0-0.389l0,0v-0.438l0.388-0.388l0,0
			l0,0l0,0c0.437-0.85,1.261-1.675,1.649-2.5c1.264-1.674,0-3.713-2.037-2.887c-3.325,1.649-5.389,3.3-5.824,3.3
			c-2.063,1.65-4.951,1.237-6.6-0.825c-1.676-2.087-1.264-4.975,0.824-6.626c2.475-2.061,14.9-11.186,30.236-6.623
			c10.748,2.888,16.549,11.6,18.637,14.486c1.65,2.5,7.037,10.363,7.037,21.136C926.36,100.483,923.059,106.695,916.846,117.446
			L916.846,117.446z"/>
		<path fill="#FFFFFF" d="M818.274,60.709c-0.824,2.088-1.648,4.15-2.912,6.65c-2.475,5.774-4.949,12.425-6.211,14.899
			c-2.039,4.125-3.713,6.624-5.363,8.688c-1.674,2.476-2.887,4.149-3.737,7.037c-1.65,4.563-2.062,9.95-0.826,15.75
			c-2.886-0.414-7.448-2.5-8.272-4.975c-0.438-2.063,0.824-3.737,4.124-9.514c0.826-1.262,1.263-2.499,2.089-3.736
			c5.773-9.95,8.273-17.4,9.947-22.763c2.039-5.824,2.89-8.3,5.775-10.386C814.974,61.973,816.625,61.147,818.274,60.709z"/>
		<path fill="#FFFFFF" d="M812.475,269.454c-3.324,6.623-7.037,12.425-9.537,15.723c-2.037-5.386-5.773-18.198-4.538-28.562
			c0-0.412,0-0.412,0-0.825c0.413-3.324,1.237-6.211,2.89-8.274c0.824-1.674,3.736-2.499,7.037-2.499
			c2.499,0,4.999,0.413,7.035,1.675l0,0c1.264,0.387,2.912,2.039,2.912,5.362C817.863,256.615,815.8,263.243,812.475,269.454z"/>
		<path fill="#FFFFFF" d="M988.918,195.73c0.389,0,0.389,0.413,0.389,0.826c-0.824,2.086-2.037,3.324-3.299,4.975
			c-1.65,2.061-3.301,4.148-5.389,7.448c-2.475,4.977-3.299,9.538-3.738,20.726c-0.387,13.249,0,21.112,0.439,26.498
			c0.412,5.389,0.412,8.688-0.439,13.661c-2.035,10.363-6.211,17.4-11.986,26.088c-7.037,10.776-14.512,22.375-26.498,26.111
			c-1.264,0.388-1.264,0.388-4.15,0.388s-7.451,0-16.162,0.439c-15.75,0.386-24,0.823-30.65,2.06
			c-7.037,1.239-10.773,2.889-14.486,4.54c-3.323,1.262-6.212,2.497-12.424,3.736c-3.324,0.824-8.712,1.649-26.523,1.649
			c-18.639,0-29.801,0-44.701-1.649c-20.309-2.475-30.672-3.301-37.272-7.037c-16.161-8.688-22.787-24.024-33.974-49.286l0,0
			c0-0.411,0.412-0.826,0.412-0.411c0.412,0.411,1.236,0.411,1.675,0.823c0.388,0,0.825,0.436,1.649,0.436c0.826,0,2.063,0,3.299,0
			h0.415l0,0h0.411c0.826,2.04,1.65,3.714,3.738,4.539c2.064,0.825,4.125,1.239,6.213,1.239c2.063,0,4.561,0,6.623-0.414
			c1.238,0,2.501,0.414,2.889,1.674c2.087,4.951,4.562,8.276,8.301,8.688c0,0,0.41,0,0.824,0c0.824,0,1.649,0,3.301-1.261
			c1.648-1.214,4.561-0.389,5.822,1.261c0.826,0.827,1.65,1.651,2.478,2.063c3.735,3.737,13.249,5.8,20.698,5.8
			c4.15,0,7.887-0.413,10.363-1.651c3.297-1.648,3.297-4.148,2.886-4.975c-0.413-1.648-0.413-3.323-0.826-4.974
			c0,0,0.413-0.412,0.413,0c0.413,0.824,0.824,2.476,2.477,2.476h0.436c2.064,0,5.389,0.85,6.213,2.912
			c0.389,1.262,0.826,2.086,1.239,2.912c1.235,2.063,4.148,4.562,9.097,4.562h0.439c6.213,0,10.75-2.086,13.637-5.824
			c0-0.388,0.438-0.388,0.438-0.825c1.238-1.648,4.563-1.648,5.775-0.412c1.676,1.674,3.737,2.062,5.824,2.062
			c0.389,0,0.824,0,1.213,0c2.912-0.388,5-1.649,6.651-4.125c1.235-1.649,2.06-3.736,2.472-5.799c0-0.825,1.264-0.825,1.652-0.413
			c1.26,1.236,2.911,2.063,5.824,2.063c0.824,0,1.212,0,2.037-0.412c5.388-1.238,7.887-5.387,9.125-10.34c0,0,0.412-0.436,0.412,0
			c1.238,1.651,3.737,3.303,7.887,3.303c0.389,0,0.389,0,0.824,0c2.063,0,4.125-1.239,5.388-2.913
			c1.651-2.063,2.476-5.387,2.476-8.274c0-1.237,0.826-2.064,2.063-2.476c4.563-2.063,9.539-5.8,11.188-8.712l0,0
			c0.412-0.825,1.236-1.65,2.086-1.65c3.303-0.823,4.951-1.238,6.215-2.063c1.213-0.411,2.037-0.848,4.537-1.235
			c20.311-2.912,24.023-3.737,28.561-6.651c6.65-4.537,7.064-10.337,7.064-16.138c0.41-4.973,0.41-10.361,4.535-16.985
			c1.264-2.476,2.912-5.364,4.563-8.688c2.912-5.389,7.037-12.838,9.949-16.987c0.826-0.825,2.063-1.238,2.914-0.825
			C981.883,191.604,987.658,194.493,988.918,195.73L988.918,195.73z"/>
		<path fill="#FFFFFF" d="M793.012,255.79c-0.823,7.038-1.236,16.138,0,28.563c0.412,3.324,0.824,7.037,1.238,10.774
			c-0.826,0.412-3.736,1.262-8.688,1.262c-7.474,0-14.512-2.086-16.572-4.174l-0.415-0.389c-1.648-1.263-2.911-2.499-2.911-4.975
			c0-0.849,0.438-1.676,1.263-2.889c0.411-0.849,0.824-1.674,1.648-2.499c1.263-1.674,2.911-3.714,4.151-6.213
			c4.536-7.885,6.212-9.925,8.273-13.249c0-0.411,0.412-0.411,0.412-0.849c1.24-1.65,2.889-3.714,4.975-7.428
			c1.65-2.497,3.301-4.561,4.127-6.211c2.086-2.499,3.322-4.149,4.174-4.998c0,1.262-0.438,2.912-0.852,4.561
			C793.836,249.166,793.424,252.054,793.012,255.79L793.012,255.79z"/>
		<path fill="#FFFFFF" d="M789.688,147.294L789.688,147.294c-1.213,1.65-2.063,2.888-3.301,5.775
			c-3.299,7.862-3.734,12.012-3.734,15.749c0,1.65,0,3.324-0.389,4.975c-0.438,1.237-0.852,2.477-1.676,3.713
			c-2.063,4.562-4.537,10.774-3.713,19.051c-1.676-0.826-4.148-2.477-4.561-3.737c0-0.389,0-0.827-0.439-1.216
			c-0.389-2.498-0.824-4.148,0.852-7.885c4.148-9.926,4.973-12.425,5.362-14.9c0-0.412,0-1.236,0.437-1.676
			c0.826-3.711,1.238-7.424,1.65-9.923c0.412-4.15,0.824-6.626,2.477-8.712c0.436-0.826,2.086-1.214,4.148-1.214
			C787.625,147.294,788.475,147.294,789.688,147.294L789.688,147.294C789.299,147.294,789.688,147.294,789.688,147.294z"/>
		<path fill="#FFFFFF" d="M783.912,245.43c-0.436-2.476-0.824-4.951-1.648-7.037l-0.438-0.826c0-0.413-0.413-0.413-0.413-0.825l0,0
			l0,0c0,0,0-0.437-0.412-0.437l-0.412-0.388l0,0c0,0,0,0-0.412,0c0,0-0.412,0-0.412-0.438c0,0,0,0-0.412,0l0,0l0,0l0,0l0,0l0,0l0,0
			c-1.263-0.388-2.913-1.213-4.152-1.213l0,0l0,0h-0.411h-0.413c0,0,0,0-0.411,0l0,0l0,0l0,0l0,0c-0.413,0-0.825,0-0.825,0.389
			c0,0-0.412,0-0.412,0.437c0,0-0.412,0-0.412,0.388l0,0l0,0l-0.439,0.438c0,0,0,0.388-0.389,0.388l0,0l0,0l0,0l0,0l0,0
			c-0.436,0.849-1.26,1.674-1.648,2.499c-1.263,2.063-2.911,4.15-4.174,6.213c-1.213,1.675-2.477,3.714-3.713,5.386
			c-0.824,0.827-1.237,2.063-2.062,2.889l-0.438,0.436c0.85,0,1.676,0.39,2.5,0.39c2.063,0.438,3.713,0.826,5.8,0.826
			c3.735,0.437,7.861,0.848,12.013,0.848h0.412c0.824-1.235,2.088-2.887,3.301-4.973c0.824-1.238,1.674-2.476,2.086-3.302
			C784.301,246.691,783.912,246.255,783.912,245.43L783.912,245.43z"/>
		<path fill="#FFFFFF" d="M770.227,261.592c-0.389,2.887-3.715,10.771-9.1,18.199c-4.563,6.213-7.039,7.887-7.449,7.887
			c-2.088-0.413-4.152-5.388-5.803-10.774c-0.848-2.063-1.236-4.15-1.674-5.799c-1.212-4.126-1.212-9.102-1.212-12.426
			c4.536,2.476,11.986,3.324,23.173,3.324l0,0C768.575,261.592,769.401,261.592,770.227,261.592z"/>
		<path fill="#FFFFFF" d="M762.364,236.741L762.364,236.741C762.364,237.153,762.364,237.153,762.364,236.741
			c-2.063,2.888-3.736,5.776-5.799,8.688c-0.826,1.262-2.063,2.912-2.887,4.149c-0.439,0.823-1.264,1.65-1.651,2.475
			c-1.673-0.411-3.325-0.824-4.563-1.236c-1.263-0.415-2.475-0.826-3.737-1.238c-0.412,0-0.412,0-0.826-0.413
			c0-0.436-0.412-0.824-0.824-1.263l0,0c0.412-0.825,0.824-1.648,1.238-2.887c0.827-1.65,1.675-3.326,2.499-4.975
			c1.65-2.889,3.712-5.776,6.601-7.861c0,0,0.437,0,0.437-0.415c1.237-0.825,2.063-1.236,3.714-1.236c0,0,1.238,0,1.674,0l0,0l0,0
			l0,0c0.389,0,0.824,0,0.824,0.411h0.389c0.438,0,0.438,0.413,0.85,0.413c-0.411-0.413,0.413,0.827,0.413,0.827
			C761.951,234.266,761.951,235.479,762.364,236.741z"/>
		<path fill="#FFFFFF" d="M747.464,228.878c-3.322,2.888-5.8,6.601-8.298,10.751c-1.238,2.062-2.064,4.561-3.301,6.626
			c0,0.437-0.416,0.437-0.416,0.823c-1.235-0.387-2.061-0.387-3.324-0.823c-1.235-0.413-2.061-0.825-3.297-1.238
			c-0.439-0.411-0.827-0.411-1.264-0.827c1.264-2.061,2.5-3.711,3.325-5.797c1.675-2.476,3.324-4.976,5.388-7.452
			c0.824-0.849,1.65-2.063,2.5-2.499c1.213-0.825,2.475-0.388,3.711-0.388c1.238,0,2.501,0,3.713,0.388
			C747.028,228.878,747.464,228.878,747.464,228.878z"/>
		<path fill="#FFFFFF" d="M742.076,275.666l-0.412,0.411h-0.412c-0.826,0-1.65,0-2.475,0c-1.676,0-3.328,0-5,0
			c-0.824,0-1.652,0-2.061-0.825c-0.414-0.823-0.827-2.499-0.827-3.712c-1.237-5.823-1.237-12.036-0.411-18.249
			c2.91,1.264,6.211,2.088,9.512,2.499c-0.824,5.364,0.436,13.249,1.262,15.75C741.252,273.579,741.664,274.429,742.076,275.666z"/>
		<path fill="#FFFFFF" d="M732.125,227.205c-2.886,3.324-5.385,7.061-7.448,10.773c-0.824,1.65-2.062,2.889-2.499,4.539
			c-1.213-0.389-2.038-0.827-3.301-1.215c-0.824-0.436-1.65-1.261-2.475-1.674c0,0-0.826-0.412-0.826-0.825c0,0,0,0-0.436,0
			c0.436-0.825,0.824-1.65,0.824-2.063c0.438-1.263,1.262-2.476,2.088-3.736c1.238-2.064,2.912-4.563,4.125-6.624
			c0.438-0.827,1.262-1.652,2.086-2.063c0.824-0.438,2.089,0,2.477,0C729.24,224.729,730.479,225.554,732.125,227.205
			L732.125,227.205z"/>
		<path fill="#FFFFFF" d="M711.016,241.69L711.016,241.69c1.236,0.827,2.063,1.676,3.301,2.499c0.436,0.416,0.824,0.827,1.26,1.24
			c0,0,0,0,0,0.412c-1.26,4.561-2.088,9.537-2.088,14.098c0,0.388-0.41,0.388-0.41,0C711.84,254.116,709.753,245.017,711.016,241.69
			z"/>
		<path fill="#FFFFFF" d="M724.264,252.054c-0.411,4.149-0.824,8.273-0.824,12.425c0,2.062,0.413,4.561,0.824,6.626l0,0l0,0
			c-0.411,0-0.824,0-1.648,0c0,0,0,0-0.438,0l0,0c0,0,0,0-0.389,0c-0.436,0-0.824,0-1.262-0.413
			c-0.388-0.412-1.236-1.237-1.65-1.652c-1.236-2.061-1.236-4.147-1.236-6.211c0-4.149,0-8.273,0.824-12.837
			c0.826,0.411,1.236,0.411,2.063,0.826C722.178,251.229,723.44,251.643,724.264,252.054L724.264,252.054L724.264,252.054z"/>
	</g>
</g>
</svg>
