<?xml version="1.0" encoding="utf-8"?>
<!-- Generator: Adobe Illustrator 27.2.0, SVG Export Plug-In . SVG Version: 6.00 Build 0)  -->
<svg version="1.1" id="Layer_1" xmlns="http://www.w3.org/2000/svg" xmlns:xlink="http://www.w3.org/1999/xlink" x="0px" y="0px"
	 viewBox="0 0 2090.83 370.28" style="enable-background:new 0 0 2090.83 370.28;" xml:space="preserve">
<style type="text/css">
	.st0{fill:#FFFFFF;}
</style>
<g>
	<path class="st0" d="M320.4,85.79c-3.29-3.52-7.4-5.83-11.5-8.19c-42.75-24.57-85.48-49.16-128.24-73.72
		c-4.28-2.46-9-3.55-13.9-3.82c-5.85-0.32-11.49,0.61-16.73,3.25c-3.66,1.85-7.16,4.03-10.71,6.09
		C99.61,32.4,59.93,55.42,20.22,78.4c-3.03,1.75-6.12,3.38-8.71,5.76C4.19,90.87,0.16,99.13,0.16,109.12
		c-0.03,52.15-0.02,104.29-0.02,156.44c0,0.45-0.09,0.9-0.13,1.36c0,0.06,0,0.12,0,0.19c0.05,0.36,0.13,0.72,0.13,1.08
		c0.01,3.74,0.02,7.49,0,11.23c0,0.58,0.13,0.95,0.68,1.26c11.68,6.71,23.35,13.44,35.02,20.16c0.1,0.06,0.22,0.11,0.41,0.21
		c40.04-64.21,80.07-128.41,120.29-192.92c-1.65,0-3.05,0.02-4.45,0c-6.24-0.13-12.48-0.42-18.73-0.37
		c-9.12,0.07-18.04,1.43-26.45,5.18c-6.69,2.98-12.01,7.48-16.01,13.71c-22.31,34.74-44.73,69.41-67.12,104.1
		c-0.16,0.25-0.35,0.49-0.76,0.71c0-0.97,0-1.93,0-2.9c-0.01-9.53-0.02-19.05-0.02-28.58c-0.01-16.89-0.02-33.77-0.04-50.66
		c-0.01-11.29-0.06-22.58-0.07-33.86c0-2.5-0.13-5.02,0.16-7.5c0.4-3.44,2.22-6.14,5.24-7.89c29.88-17.33,59.76-34.65,89.65-51.97
		c13.63-7.9,27.27-15.79,40.92-23.67c3.95-2.28,7.92-2.29,11.88-0.01c37.79,21.74,75.57,43.47,113.36,65.21
		c5.76,3.31,11.54,6.59,17.27,9.95c3.61,2.11,5.46,5.34,5.66,9.52c0.01,0.31,0,0.62,0,0.93c0,41.88,0,83.76,0,125.64
		c0,0.43,0,0.85,0,1.28c-0.08,0.03-0.15,0.06-0.23,0.09c-24.26-37.78-48.51-75.56-72.84-113.45c-0.2,0.3-0.36,0.5-0.49,0.72
		c-8.79,14.91-17.56,29.81-26.37,44.71c-0.34,0.58-0.21,0.93,0.08,1.4c12.73,20.58,25.46,41.15,38.18,61.73
		c10.56,17.08,21.13,34.16,31.69,51.25c0.13,0.21,0.24,0.43,0.4,0.73c-4.37,2.53-8.71,5.05-13.16,7.63
		c-22.36-35.24-44.68-70.42-67.07-105.72c-0.91,1.54-1.77,2.98-2.63,4.43c-9.36,15.89-18.72,31.79-28.11,47.66
		c-0.42,0.71-0.25,1.14,0.13,1.73c16.63,26.08,33.25,52.17,49.87,78.26c0.18,0.28,0.36,0.57,0.59,0.96
		c-0.3,0.19-0.57,0.38-0.85,0.54c-15.29,8.86-30.57,17.73-45.88,26.57c-3.33,1.93-6.78,1.84-10.07-0.02
		c-9.19-5.21-18.33-10.51-27.49-15.78c-9.08-5.22-18.16-10.45-27.23-15.67c-0.32-0.18-0.63-0.37-1.04-0.61
		c40.45-68.61,80.85-137.15,121.33-205.8c-3.26,0-6.34,0-9.43,0c-0.22,0-0.43,0.02-0.65,0.02c-7.48,0.03-14.97,0.05-22.45,0.08
		c-6.8,0.02-13.61,0.06-20.41,0.05c-0.66,0-0.98,0.25-1.3,0.77c-7.63,12.61-15.27,25.22-22.91,37.82
		c-14.92,24.63-29.85,49.26-44.77,73.89c-13.9,22.94-27.8,45.87-41.7,68.81c-3.76,6.21-7.53,12.42-11.29,18.63
		c-0.16,0.26-0.3,0.53-0.49,0.87c1.5,0.87,2.96,1.72,4.42,2.56c30.15,17.35,60.29,34.72,90.46,52.04c2.91,1.67,5.87,3.35,8.98,4.56
		c2.44,0.94,5.15,1.16,7.75,1.7c0.3,0.06,0.6,0.13,0.9,0.19c1.67,0,3.34,0,5.01,0c1.73-0.3,3.46-0.56,5.17-0.91
		c2.43-0.5,4.7-1.4,6.87-2.66c45.3-26.27,90.62-52.5,135.92-78.76c3.21-1.86,5.61-4.65,7.73-7.64c4.17-5.9,6.26-12.49,6.26-19.72
		c0.01-50.6,0.03-101.2-0.02-151.8C329.86,99.89,326.45,92.27,320.4,85.79z"/>
	<path class="st0" d="M2090.81,149.15c0-2.77-0.04-5.59-0.5-8.31c-1.25-7.4-4.2-10.23-11.72-10.69c-6.48-0.39-13.01,0.08-19.48-0.34
		c-10.45-0.68-16.48,4.02-20.48,13.6c-11.18,26.78-22.96,53.32-34.67,79.88c-0.79,1.79-3.17,4.3-4.47,4.11
		c-1.84-0.26-3.97-2.43-4.9-4.31c-2.95-5.94-5.39-12.13-8.03-18.21c-9.03-20.82-18.22-41.58-27.02-62.5
		c-3.53-8.37-8.95-12.96-18.35-12.52c-6.02,0.28-12.07-0.06-18.1,0.06c-12.05,0.23-15.62,3.86-15.98,15.98
		c-0.05,1.54-0.03,3.09-0.04,4.63c0,14.83,0,29.66,0,44.48c0,16.84,0.06,33.67-0.04,50.51c-0.02,3.74,1.4,5.42,5.18,5.32
		c4.48-0.12,8.97-0.01,13.46-0.03c6.17-0.02,6.53-0.36,6.53-6.59c0.01-27.96-0.04-55.91,0.1-83.87c0.01-1.8,1.37-3.59,2.11-5.39
		c1.48,1.29,3.6,2.29,4.35,3.92c7.21,15.55,14.19,31.2,21.25,46.82c4.7,10.41,9.29,20.88,14.18,31.2
		c3.44,7.25,8.22,13.28,17.16,13.69c5.09,0.23,10.2,0.17,15.29-0.02c6.21-0.23,10.84-3.39,14.08-8.53c1.8-2.87,3.45-5.86,4.85-8.94
		c10.98-24.18,21.85-48.41,32.84-72.59c1.07-2.34,1.39-6.27,5.17-5.42c3.91,0.88,2.08,4.67,2.09,7.1
		c0.14,27.65,0.16,55.29,0.02,82.94c-0.02,4.24,1.44,5.92,5.63,5.74c4.33-0.18,8.66-0.04,13-0.06c6.06-0.03,6.53-0.49,6.53-6.67
		C2090.83,212.47,2090.84,180.81,2090.81,149.15z"/>
	<path class="st0" d="M1014.13,189.7c3.09-5.84,7.32-10.9,8.38-16.55c1.4-7.43,1.05-15.42,0.09-23
		c-1.38-10.96-8.92-17.61-20.21-19.2c-4.28-0.6-8.62-1-12.94-1.01c-32.02-0.09-64.05-0.07-96.07-0.04c-6.56,0-7.45,0.97-7.45,7.56
		c-0.01,35.36-0.01,70.73-0.01,106.09c0,6.42,0.92,7.28,7.64,7.28c33.11,0,66.22,0.02,99.32-0.03c3.39-0.01,6.82-0.19,10.16-0.74
		c8.2-1.36,15.1-4.93,18.43-13.04c4.33-10.53,3.11-21.6,2.19-32.48C1023.08,197.73,1018.71,192.71,1014.13,189.7z M912.29,156.31
		c0.05-3.33,2.78-2.72,4.83-2.72c22.7-0.03,45.41-0.03,68.11,0c1.69,0,3.41,0.12,5.07,0.44c5.27,1.05,7.64,3.89,7.92,9.28
		c0.74,14.13-1.78,16.84-16.07,16.88c-21.93,0.06-43.87,0.03-65.8,0.02c-1.2,0-2.39-0.15-4.09-0.26
		C912.26,171.93,912.19,164.12,912.29,156.31z M982.4,227.26c-21.48,0.02-42.97-0.1-64.45,0.1c-4.4,0.04-6.04-1.19-5.85-5.72
		c0.32-7.35,0.09-14.73,0.09-22.45c2.12-0.1,3.78-0.23,5.43-0.23c21.64-0.01,43.28,0,64.91,0.02c1.85,0,3.72,0.02,5.56,0.21
		c6.9,0.71,9.88,3.8,10.39,10.66C999.53,224.11,996.66,227.25,982.4,227.26z"/>
	<path class="st0" d="M792.23,236.28c-6.86-8.5-13.73-17-21.08-26.1c1.77-0.57,2.61-0.9,3.49-1.12
		c12.54-3.17,19.93-11.35,21.17-23.96c0.94-9.61,1.24-19.5,0.01-29.04c-2.02-15.73-10.93-23.53-26.68-25.39
		c-3.98-0.47-8.01-0.74-12.02-0.75c-29.07-0.06-58.15-0.04-87.22-0.02c-7.52,0-8.43,0.86-8.43,8.1c-0.02,35.35-0.01,70.7,0,106.04
		c0,6.28,0.53,6.77,6.92,6.78c4.48,0.01,8.97-0.14,13.45,0.04c4.27,0.17,6.16-1.33,6.02-5.9c-0.28-8.94-0.1-17.9-0.08-26.86
		c0-1.64,0.14-3.28,0.21-4.97c1.22-0.17,1.97-0.36,2.72-0.37c16.86-0.03,33.71-0.13,50.56,0.09c1.74,0.02,3.93,1.59,5.1,3.08
		c8.1,10.33,15.91,20.88,24.01,31.2c1.28,1.63,3.56,3.38,5.46,3.48c7.24,0.41,14.53,0.22,21.79,0.1c1.09-0.02,2.9-0.67,3.07-1.35
		c0.26-1.1-0.26-2.68-0.98-3.67C797.35,242.47,794.75,239.4,792.23,236.28z M770.18,180.47c-0.93,6.46-4.45,9.79-10.9,10.82
		c-2.28,0.36-4.62,0.55-6.93,0.56c-19.95,0.05-39.91-0.03-59.86,0.1c-3.51,0.02-4.91-0.81-4.8-4.64c0.28-9.56,0.27-19.15,0-28.71
		c-0.12-4.2,1.45-5.25,5.4-5.17c10.51,0.23,21.04,0.08,31.55,0.08c10.05-0.01,20.11-0.07,30.16,0.01
		c11.2,0.09,15.69,4.62,15.78,15.88C770.62,173.08,770.71,176.83,770.18,180.47z"/>
	<path class="st0" d="M1562.08,214.24c-1-1.24-1.84-2.61-2.74-3.89c0.65-0.48,0.76-0.61,0.9-0.66c0.58-0.2,1.16-0.4,1.76-0.54
		c12.59-3.01,20.14-11.15,21.43-23.73c1.03-10.04,1.2-20.41-0.1-30.4c-1.9-14.59-11.12-22.5-25.72-24.27
		c-3.68-0.44-7.39-0.82-11.09-0.83c-30.01-0.07-60.02-0.06-90.02-0.03c-6.23,0.01-7.16,1.02-7.16,7.36
		c-0.01,33.5-0.09,67.01,0.03,100.51c0.05,14.27-2.58,13.06,13.03,13.03c15.03-0.03,12.92,1.71,13.04-13.06
		c0.07-8.14,0.01-16.29,0.01-24.47c1.34-0.24,2.08-0.49,2.81-0.5c16.86-0.03,33.72-0.13,50.58,0.08c1.75,0.02,3.98,1.52,5.15,3
		c8.1,10.33,16.04,20.79,23.9,31.3c1.93,2.59,4.09,3.83,7.4,3.71c5.87-0.21,11.76,0.07,17.63-0.11c1.86-0.06,3.69-0.9,5.54-1.38
		c-0.73-1.74-1.1-3.77-2.23-5.19C1578.25,234.14,1570.12,224.22,1562.08,214.24z M1557.94,179.82c-0.68,6.68-4.17,10.31-10.78,11.42
		c-2.43,0.41-4.91,0.62-7.38,0.62c-19.79,0.05-39.57-0.06-59.36,0.1c-3.78,0.03-5.16-1.01-5.06-4.92
		c0.24-9.41,0.26-18.83-0.01-28.23c-0.13-4.4,1.56-5.49,5.7-5.39c10.35,0.26,20.71,0.08,31.07,0.08c0-0.01,0-0.01,0-0.02
		c9.89,0,19.79-0.02,29.68,0.01c11.89,0.04,16.32,4.42,16.34,16.16C1558.14,173.04,1558.28,176.45,1557.94,179.82z"/>
	<path class="st0" d="M1812.42,129.86c-4.8,0.08-9.59,0-14.39,0.03c-5.95,0.03-6.7,0.74-6.71,6.64
		c-0.02,22.09,0.01,44.17-0.02,66.26c0,2.93-0.03,5.89-0.4,8.79c-1.05,8.2-4.82,13.58-12.52,13.79c-22.68,0.63-45.4,0.58-68.08-0.02
		c-7.19-0.19-11.09-5.3-12.19-12.56c-0.6-3.95-0.89-7.99-0.9-11.99c-0.08-21.16-0.04-42.32-0.03-63.48c0-7.32-0.07-7.41-7.61-7.42
		c-4.18-0.01-8.36,0.13-12.53-0.03c-4.27-0.17-6.11,1.35-6.03,5.92c0.24,12.97,0.08,25.95,0.08,38.92c0.09,0,0.18,0,0.27,0
		c0,12.97-0.47,25.96,0.1,38.91c0.99,22.51,12.72,35.32,35.25,36.27c25.31,1.07,50.73,0.89,76.05-0.01
		c18.23-0.65,29.26-10.11,32.83-25.52c1.11-4.78,1.87-9.76,1.91-14.65c0.21-24.86,0.08-49.73,0.2-74.6
		C1817.72,131.24,1816.06,129.8,1812.42,129.86z"/>
	<path class="st0" d="M575.62,243.54c-17.51-31.77-35.58-63.25-52.27-95.45c-7.31-14.11-17.07-20.02-32.59-18.32
		c-7.03,0.77-12.55,3.1-16.13,9.19c-3.68,6.25-7.2,12.59-10.69,18.95c-15.87,28.97-31.71,57.96-47.53,86.95
		c-2.68,4.92-2.09,5.9,3.42,5.93c6.19,0.04,12.4,0.33,18.54-0.17c2.16-0.17,4.92-1.86,6.1-3.69c3.33-5.18,6.21-10.69,8.82-16.27
		c1.7-3.63,4.03-4.66,7.93-4.62c20.41,0.2,40.87,0.86,61.23-0.19c11.24-0.58,18.39,2.22,21.98,13.13
		c3.14,9.54,9.17,14.84,19.95,11.8c3.4,0,6.8,0,10.21,0c3.39,0,4.08-1.57,2.58-4.41C576.68,245.43,576.15,244.49,575.62,243.54z
		 M467.3,206.24c0.42-1.28,0.6-2.32,1.07-3.2c8.01-14.98,16.03-29.95,24.16-44.86c0.81-1.48,2.58-3.65,3.6-3.5
		c1.54,0.23,3.28,1.98,4.13,3.52c8.09,14.58,16.02,29.26,23.97,43.92c0.62,1.15,1.05,2.4,1.79,4.13
		C506.15,206.24,486.94,206.24,467.3,206.24z"/>
	<path class="st0" d="M1365.28,136.62c-0.05-6.24-0.56-6.74-7.02-6.74c-25.22-0.01-50.44,0-75.66,0c-17.79,0-35.59-0.01-53.38,0.01
		c-6.44,0.01-7.1,0.71-7.12,7.25c-0.01,3.55-0.02,7.1,0.01,10.66c0.05,5.89,0.81,6.67,6.7,6.68c15.32,0.02,30.63,0,45.95,0.02
		c1.8,0,3.59,0.15,5.82,0.25c0,2.3,0,4.12,0,5.94c0,27.64,0,55.29,0.01,82.93c0,6.83,0.42,7.22,7.44,7.21c4.02,0,8.05,0.02,12.07,0
		c6.43-0.03,6.81-0.41,6.81-6.86c0.01-27.64,0-55.29,0-82.93c0-1.97,0-3.94,0-6.56c2.53,0,4.21,0,5.9,0
		c15.47,0,30.94-0.08,46.42,0.06c4.28,0.04,6.38-1.33,6.11-5.87C1365.11,144.66,1365.31,140.63,1365.28,136.62z"/>
	<path class="st0" d="M1132.79,129.86c-5.41,0.1-10.83,0.05-16.24,0.05c-3.02,0-4.61,1.38-4.55,4.5c0.05,2.31,0.02,4.63,0.02,6.95
		c0,34.43,0,68.85,0.01,103.28c0,5.54,0.62,6.14,6.08,6.18c4.64,0.04,9.28,0.02,13.92,0.01c5.56-0.02,6.08-0.51,6.09-6.08
		c0.02-18.06,0.01-36.12,0.01-54.19c0-18.37-0.09-36.74,0.07-55.11C1138.23,131.4,1136.7,129.79,1132.79,129.86z"/>
</g>
</svg>
