<svg width="32" height="32" viewBox="0 0 32 32" fill="none" xmlns="http://www.w3.org/2000/svg">
	<path
		d="M32 16C32 24.8363 24.8366 32 16 32C7.16342 32 0 24.8363 0 16C0 7.16371 7.16342 0 16 0C24.8366 0 32 7.16371 32 16Z"
		fill="#2D374B" />
	<path
		d="M19.0217 15.2636L21.0233 11.8671L26.4186 20.2704L26.4212 21.8832L26.4036 10.7857C26.3908 10.5145 26.2468 10.2663 26.017 10.12L16.3034 4.53258C16.0763 4.42086 15.7881 4.42215 15.5613 4.53612C15.5306 4.55139 15.5017 4.56812 15.4744 4.58636L15.4404 4.60764L6.01196 10.0714L5.97541 10.088C5.92837 10.1096 5.88076 10.1371 5.83618 10.169C5.65738 10.2972 5.5387 10.4868 5.5003 10.6995C5.49451 10.7317 5.49025 10.7645 5.48828 10.7976L5.5031 19.8409L10.5285 12.0517C11.1613 11.0189 12.5398 10.6862 13.8195 10.7043L15.3214 10.7439L6.4717 24.9364L7.5149 25.5369L16.4706 10.7584L20.429 10.744L11.4965 25.8955L15.2189 28.0366L15.6637 28.2924C15.8518 28.3688 16.0736 28.3727 16.2633 28.3041L26.1133 22.5959L24.2302 23.6871L19.0217 15.2636ZM19.7853 26.263L16.0257 20.3622L18.3207 16.4676L23.2584 24.2503L19.7853 26.263Z"
		fill="#2D374B" />
	<path d="M16.0259 20.3618L19.7855 26.2627L23.2586 24.2499L18.3209 16.4673L16.0259 20.3618Z" fill="#28A0F0" />
	<path
		d="M26.4215 21.8833L26.4189 20.2705L21.0236 11.8672L19.022 15.2637L24.2304 23.6872L26.1135 22.5959C26.2982 22.4459 26.41 22.2257 26.4218 21.9882L26.4215 21.8833Z"
		fill="#28A0F0" />
	<path
		d="M3.8125 23.4039L6.47182 24.9363L15.3215 10.7439L13.8196 10.7043C12.5398 10.6862 11.1613 11.0189 10.5286 12.0517L5.50317 19.841L3.8125 22.4386V23.4039V23.4039Z"
		fill="white" />
	<path d="M20.4293 10.7441L16.4708 10.7585L7.51514 25.5371L10.6454 27.3394L11.4967 25.8957L20.4293 10.7441Z"
		fill="white" />
	<path
		d="M28.0895 10.7235C28.0564 9.89568 27.6082 9.13784 26.9061 8.69663L17.0652 3.03737C16.3707 2.68767 15.5031 2.68722 14.8073 3.03715C14.7251 3.07864 5.23729 8.58115 5.23729 8.58115C5.10598 8.64414 4.9795 8.71914 4.86053 8.80431C4.23378 9.25349 3.85174 9.95154 3.8125 10.7184V22.4386L5.50317 19.8409L5.48841 10.7976C5.49037 10.7646 5.49453 10.732 5.50042 10.6999C5.53866 10.4871 5.65745 10.2973 5.83631 10.169C5.88094 10.1371 15.5308 4.55137 15.5614 4.53605C15.7882 4.42214 16.0765 4.42079 16.3036 4.53251L26.0172 10.1198C26.247 10.2662 26.391 10.5143 26.4038 10.7856V21.988C26.3921 22.2255 26.2982 22.4456 26.1135 22.5957L24.2303 23.687L23.2586 24.2501L19.7855 26.2629L16.2634 28.304C16.0737 28.3725 15.8519 28.3686 15.6638 28.2922L11.4966 25.8954L10.6453 27.3391L14.3902 29.4953C14.5141 29.5657 14.6244 29.6282 14.715 29.679C14.8551 29.7576 14.9507 29.8102 14.9844 29.8266C15.2506 29.9558 15.6336 30.0311 15.9787 30.0311C16.2951 30.0311 16.6036 29.973 16.8956 29.8586L27.1258 23.934C27.713 23.4791 28.0584 22.793 28.0895 22.0497V10.7235Z"
		fill="#96BEDC" />
</svg>