<svg width="510" height="510" viewBox="0 0 510 510" fill="none" xmlns="http://www.w3.org/2000/svg">
<path d="M510 255C510 395.83 395.83 510 255 510C114.17 510 0 395.83 0 255C0 114.17 114.17 0 255 0C395.83 0 510 114.16 510 255Z" fill="white"/>
<path d="M255.5 55L304.905 105.595L180.5 230L131.095 180.595L255.5 55Z" fill="#F0B90B" stroke="#F0B90B" stroke-width="1.19048"/>
<path d="M330.5 130L379.905 180.595L180.5 380L131.095 330.595L330.5 130Z" fill="#F0B90B" stroke="#F0B90B" stroke-width="1.19048"/>
<path d="M105.5 205L154.905 255.595L105.5 305L56.0952 255.595L105.5 205Z" fill="#F0B90B" stroke="#F0B90B" stroke-width="1.19048"/>
<path d="M405.5 205L454.905 255.595L255.5 455L206.095 405.595L405.5 205Z" fill="#F0B90B" stroke="#F0B90B" stroke-width="1.19048"/>
</svg>
