<svg width="32" height="32" viewBox="0 0 32 32" fill="none" xmlns="http://www.w3.org/2000/svg">
<path d="M-0.000111833 15.9772C-0.000111833 24.801 7.1533 31.9545 15.9771 31.9545C24.8009 31.9545 31.9543 24.801 31.9543 15.9772C31.9543 7.15341 24.8009 0 15.9771 0C7.1533 0 -0.000111833 7.15279 -0.000111833 15.9772Z" fill="white"/>
<circle r="14.2542" transform="matrix(-1 0 0 1 15.9458 15.9461)" fill="white"/>
<path fill-rule="evenodd" clip-rule="evenodd" d="M8.28428 7.75C7.90928 5.8 9.40928 4 11.3593 4C13.0843 4 14.5093 5.425 14.5093 7.15V11.05C14.9593 11.05 15.4093 10.975 15.8593 10.975C16.3093 10.975 16.6843 10.975 17.1343 11.05V7.15C17.1343 5.425 18.5593 4 20.2843 4C22.2343 4 23.7343 5.8 23.4343 7.75L22.6093 12.325C25.5343 13.6 27.7843 15.85 27.7843 18.625V20.35C27.7843 22.675 26.2843 24.625 24.1093 25.9C21.9343 27.25 19.0843 28 15.8593 28C12.6343 28 9.78428 27.25 7.60928 25.9C5.50928 24.625 4.00928 22.675 4.00928 20.35V18.625C4.00928 15.85 6.18428 13.6 9.10928 12.325L8.28428 7.75ZM21.4843 12.925L22.4593 7.525C22.6843 6.175 21.7093 4.9 20.2843 4.9C19.0843 4.9 18.1093 5.875 18.1093 7.075V12.025C17.8093 11.95 17.4343 11.95 17.1343 11.95C16.6843 11.95 16.3093 11.875 15.8593 11.875C15.4093 11.875 14.9593 11.875 14.5093 11.95C14.2093 11.95 13.8343 12.025 13.5343 12.025V7.15C13.5343 5.95 12.5593 4.975 11.3593 4.975C10.0093 4.975 8.95928 6.25 9.25928 7.6L10.2343 13C7.08428 14.2 4.98428 16.3 4.98428 18.7V20.425C4.98428 24.1 9.85928 27.1 15.8593 27.1C21.8593 27.1 26.7343 24.1 26.7343 20.425V18.7C26.8093 16.225 24.7093 14.125 21.4843 12.925Z" fill="#633001"/>
<path d="M26.8093 20.35C26.8093 24.025 21.9343 27.025 15.9343 27.025C9.93433 27.025 5.05933 24.025 5.05933 20.35V18.625H26.8843V20.35H26.8093Z" fill="#FEDC90"/>
<path fill-rule="evenodd" clip-rule="evenodd" d="M9.25933 7.59961C8.95933 6.24961 10.0093 4.97461 11.3593 4.97461C12.5593 4.97461 13.5343 5.94961 13.5343 7.14961V12.0996C14.2843 12.0246 15.0343 11.9496 15.8593 11.9496C16.6093 11.9496 17.3593 12.0246 18.1093 12.0996V7.14961C18.1093 5.94961 19.0843 4.97461 20.2843 4.97461C21.6343 4.97461 22.6843 6.24961 22.4593 7.59961L21.4843 12.9996C24.6343 14.1996 26.8093 16.2996 26.8093 18.6996C26.8093 22.3746 21.9343 25.3746 15.9343 25.3746C9.93433 25.3746 5.05933 22.3746 5.05933 18.6996C5.05933 16.2996 7.15933 14.1996 10.3093 12.9996L9.25933 7.59961Z" fill="#D1884F"/>
<path d="M12.8595 18.175C12.8595 19.15 12.3345 19.975 11.6595 19.975C10.9845 19.975 10.4595 19.15 10.4595 18.175C10.4595 17.2 10.9845 16.375 11.6595 16.375C12.3345 16.375 12.8595 17.2 12.8595 18.175Z" fill="#633001"/>
<path d="M21.1844 18.175C21.1844 19.15 20.6594 19.975 19.9844 19.975C19.3094 19.975 18.7844 19.15 18.7844 18.175C18.7844 17.2 19.3094 16.375 19.9844 16.375C20.6594 16.375 21.1844 17.2 21.1844 18.175Z" fill="#633001"/>
</svg>
