<?xml version="1.0" encoding="utf-8"?>
<!-- Generator: Adobe Illustrator 16.0.0, SVG Export Plug-In . SVG Version: 6.00 Build 0)  -->
<!DOCTYPE svg PUBLIC "-//W3C//DTD SVG 1.1//EN" "http://www.w3.org/Graphics/SVG/1.1/DTD/svg11.dtd">
<svg version="1.1" id="Layer_1" xmlns="http://www.w3.org/2000/svg" xmlns:xlink="http://www.w3.org/1999/xlink" x="0px" y="0px"
	 width="511.954px" height="511.953px" viewBox="1187.781 -83.736 511.954 511.953"
	 enable-background="new 1187.781 -83.736 511.954 511.953" xml:space="preserve">
<g>
	<path fill="#FFFFFF" d="M1443.758,428.217c141.372,0,255.977-114.604,255.977-255.976c0-141.373-114.604-255.977-255.977-255.977
		c-141.373,0-255.978,114.604-255.978,255.977C1187.781,313.613,1302.385,428.217,1443.758,428.217z"/>
	<rect x="1463.657" y="70.386" fill="#1682FE" width="23.227" height="35.073"/>
	<rect x="1396.996" y="5.35" fill="#1682FE" width="23.225" height="35.075"/>
	<rect x="1330.332" y="38.796" fill="#60D8A4" width="23.226" height="35.074"/>
	<rect x="1296.884" y="172.124" fill="#F4BB3B" width="23.458" height="100.109"/>
	<rect x="1296.884" y="72.014" fill="#60D8A4" width="23.458" height="100.109"/>
	<rect x="1496.872" y="103.834" fill="#1682FE" width="23.228" height="35.075"/>
	<rect x="1496.872" y="205.338" fill="#FF5A5A" width="23.228" height="35.074"/>
	<rect x="1463.657" y="238.788" fill="#FF5A5A" width="23.227" height="35.074"/>
	<rect x="1396.996" y="303.822" fill="#FF5A5A" width="23.225" height="35.074"/>
	<rect x="1330.332" y="270.377" fill="#F4BB3B" width="23.226" height="35.074"/>
	<path fill="#3A3A3A" d="M1585.369,138.678V72.014h-33.449V38.796h-66.663V5.35h-66.661v33.446h-66.66v33.449h-33.452v199.987
		h33.452v33.449h66.66v33.449h66.661v-33.449h66.663v-33.449h33.449v-66.894h-66.66v33.449h-33.452v33.445h-66.661v-33.445h-33.215
		V105.459h33.446V72.014h66.663v33.445h33.446v33.45h66.433V138.678z"/>
</g>
</svg>
