<svg width="39" height="39" viewBox="0 0 39 39" fill="none" xmlns="http://www.w3.org/2000/svg">
<path d="M19.5 0C30.2705 0 39 8.73121 39 19.5C39 30.2705 30.2705 39 19.5 39C8.73121 39 0 30.2697 0 19.5C0 8.73121 8.73121 0 19.5 0Z" fill="#F5AC37"/>
<path d="M20.2217 20.877H27.6314C27.7894 20.877 27.864 20.877 27.8754 20.6699C27.9359 19.9161 27.9359 19.1579 27.8754 18.4033C27.8754 18.2567 27.8025 18.1962 27.6437 18.1962H12.8972C12.7147 18.1962 12.6655 18.2567 12.6655 18.4278V20.597C12.6655 20.877 12.6655 20.877 12.9577 20.877H20.2217ZM27.0479 15.6611C27.0689 15.6058 27.0689 15.5452 27.0479 15.4908C26.9242 15.2214 26.7776 14.9643 26.6074 14.723C26.3511 14.3106 26.0493 13.9306 25.7053 13.5893C25.543 13.383 25.3552 13.1979 25.1446 13.0408C24.0898 12.1431 22.8358 11.5078 21.488 11.1884C20.8079 11.0357 20.1129 10.9629 19.4162 10.969H12.8717C12.6892 10.969 12.6646 11.0419 12.6646 11.2007V15.5268C12.6646 15.7093 12.6646 15.7585 12.8963 15.7585H26.9601C26.9601 15.7585 27.0821 15.7339 27.1067 15.6611H27.047H27.0479ZM27.0479 23.4121C26.8408 23.3893 26.6319 23.3893 26.4249 23.4121H12.9095C12.7269 23.4121 12.6655 23.4121 12.6655 23.656V27.8856C12.6655 28.0804 12.6655 28.1296 12.9095 28.1296H19.1494C19.4478 28.1524 19.7461 28.1313 20.0383 28.069C20.9439 28.0041 21.8346 27.8075 22.684 27.4837C22.9929 27.3767 23.2913 27.2372 23.5729 27.0696H23.6581C25.1209 26.3088 26.309 25.1136 27.0584 23.6464C27.0584 23.6464 27.1435 23.4621 27.0479 23.4138V23.4121ZM10.2164 30.3225V30.2496V27.41V26.4474V23.5832C10.2164 23.4244 10.2164 23.4007 10.0216 23.4007H7.37677C7.23023 23.4007 7.16968 23.4007 7.16968 23.2059V20.8901H9.99701C10.155 20.8901 10.2164 20.8901 10.2164 20.683V18.3919C10.2164 18.2453 10.2164 18.2093 10.0216 18.2093H7.37677C7.23023 18.2093 7.16968 18.2093 7.16968 18.0145V15.8699C7.16968 15.7356 7.16968 15.6997 7.36448 15.6997H9.98473C10.1672 15.6997 10.2164 15.6997 10.2164 15.468V8.89898C10.2164 8.70417 10.2164 8.65503 10.4603 8.65503H19.6005C20.2639 8.68135 20.9229 8.75419 21.5749 8.87441C22.9183 9.12274 24.2091 9.60274 25.3894 10.2881C26.1721 10.7488 26.8926 11.3051 27.534 11.9457C28.0167 12.4467 28.4519 12.989 28.838 13.5664C29.2215 14.1517 29.54 14.7774 29.7901 15.4312C29.8208 15.6014 29.984 15.7163 30.1543 15.6874H32.3357C32.6157 15.6874 32.6157 15.6874 32.628 15.9559V17.9549C32.628 18.1497 32.5551 18.1988 32.3594 18.1988H30.6773C30.507 18.1988 30.4579 18.1988 30.4702 18.4182C30.5369 19.1606 30.5369 19.9056 30.4702 20.6479C30.4702 20.855 30.4702 20.8796 30.7027 20.8796H32.6271C32.7122 20.9893 32.6271 21.099 32.6271 21.2095C32.6394 21.3508 32.6394 21.4939 32.6271 21.6351V23.1102C32.6271 23.3173 32.5665 23.3787 32.3831 23.3787H30.0797C29.9191 23.348 29.7629 23.4507 29.726 23.6104C29.1776 25.0364 28.3001 26.3149 27.1663 27.3398C26.7522 27.7128 26.3169 28.0638 25.8624 28.3876C25.3745 28.6684 24.8997 28.9606 24.3996 29.1922C23.4791 29.6064 22.5138 29.9118 21.5231 30.1057C20.5824 30.2742 19.6285 30.3506 18.6712 30.3374H10.2129V30.3251L10.2164 30.3225Z" fill="#FEFEFD"/>
</svg>
