<svg width="512" height="512" viewBox="0 0 512 512" fill="none" xmlns="http://www.w3.org/2000/svg">
<path d="M512 256C512 397.381 397.385 512 256 512C114.615 512 0 397.381 0 256C0 114.619 114.615 0 256 0C397.385 0 512 114.619 512 256Z" fill="#1C1C2A"/>
<path fill-rule="evenodd" clip-rule="evenodd" d="M120.918 185.337L196.16 68L83.9933 180.164C74.6595 189.498 79.0521 205.444 91.8472 208.682L151.298 223.733C145.989 232.076 139.979 242.598 135.308 253.752C131.026 263.968 127.458 275.666 127.105 287.251C126.744 299.115 129.784 311.827 139.817 321.859C154.891 336.933 165.837 342.193 174.579 346.392C175.23 346.705 175.868 347.011 176.493 347.315C180.56 349.29 183.567 350.91 186.754 353.459C189.973 356.032 193.881 359.963 198.898 366.865C199.791 368.094 200.739 369.405 201.737 370.792C212.682 385.979 229.859 409.815 252.024 425.637C264.394 434.465 279.073 441.401 295.859 442.759C312.861 444.135 330.617 439.668 348.689 428.029C365.998 416.88 377.404 404.461 382.771 389.997C388.175 375.431 386.574 361.154 382.643 348.206C379.044 336.346 373.035 324.253 367.429 312.965L367.418 312.944L367.307 312.723L366.372 310.837C360.238 298.471 354.453 286.518 350.602 274.003C343.086 249.574 348.185 238.99 351.389 234.798C352.929 232.783 354.884 231.122 357.121 229.929C357.954 229.484 358.622 229.221 358.99 229.089L359.188 229.021L359.541 228.938L360.147 228.74H360.149L362.808 227.868L369.82 225.559C375.627 223.646 383.385 221.082 391.182 218.484C398.966 215.89 406.83 213.245 412.834 211.176C415.822 210.147 418.424 209.235 420.348 208.531C421.29 208.187 422.191 207.847 422.936 207.547C423.289 207.404 423.778 207.2 424.284 206.962C424.681 206.777 425.071 206.576 425.453 206.36L425.476 206.348C426.677 205.67 427.78 204.833 428.757 203.86C434.802 197.816 432.867 190.408 432.669 189.647L432.658 189.611C432.344 188.381 431.877 187.195 431.268 186.081C430.871 185.359 430.423 184.666 429.928 184.006C429.403 183.305 428.821 182.618 428.379 182.108C427.13 180.691 425.857 179.296 424.56 177.923C422.723 175.963 387.059 139.834 357.098 109.483C336.349 88.4662 318.336 70.2176 316.18 68C316.435 68.2615 335.624 98.4527 354.616 128.336C373.229 157.619 391.654 186.607 391.894 186.855C388.63 187.954 385.201 189.1 381.769 190.244C372.36 193.379 362.944 196.493 353.522 199.587L351.274 200.324L351.091 200.375L350.955 200.414C350.43 200.567 349.769 200.775 348.995 201.051C347.454 201.6 345.429 202.433 343.142 203.65C337.131 206.851 331.88 211.308 327.744 216.719C317.131 230.598 312.661 251.907 322.152 282.757C326.807 297.882 333.646 311.842 339.704 324.061L340.299 325.258C346.329 337.411 351.306 347.445 354.161 356.853C357.008 366.229 357.2 373.347 354.865 379.643C352.49 386.042 346.622 393.954 332.571 403.005C319.282 411.562 307.95 413.874 298.257 413.089C288.349 412.287 278.728 408.129 269.318 401.41C251.373 388.6 236.975 368.704 225.628 353.021C224.722 351.771 223.838 350.549 222.97 349.358C216.779 340.843 211.096 334.809 205.336 330.206C199.547 325.579 194.185 322.815 189.494 320.538C188.818 320.209 188.146 319.888 187.477 319.567V319.564C179.774 315.871 172.373 312.321 160.864 300.812C158.212 298.159 156.667 294.346 156.856 288.159C157.054 281.696 159.173 273.816 162.76 265.252C169.913 248.184 181.258 232.155 185.791 226.1C193.19 216.213 187.923 202.3 176.312 199.359L120.918 185.337V185.337ZM246.396 307.027C246.396 307.027 223.455 307.027 208.164 292.956C192.873 278.883 208.164 250.741 208.164 250.741C208.164 250.741 212.625 253.554 229.51 273.255C246.396 292.956 246.396 307.027 246.396 307.027Z" fill="url(#paint0_linear_120_24)"/>
<defs>
<linearGradient id="paint0_linear_120_24" x1="256.648" y1="236.922" x2="256.059" y2="442.999" gradientUnits="userSpaceOnUse">
<stop stop-color="#22E1FF"/>
<stop offset="1" stop-color="#002EFF"/>
</linearGradient>
</defs>
</svg>
