<svg width="512" height="512" viewBox="0 0 512 512" fill="none" xmlns="http://www.w3.org/2000/svg">
<path d="M512 256C512 397.381 397.385 512 256 512C114.615 512 0 397.381 0 256C0 114.619 114.615 0 256 0C397.385 0 512 114.619 512 256Z" fill="white"/>
<circle cx="256.5" cy="255.5" r="227.5" fill="#1C1C2A"/>
<path d="M327.71 122.69L129.58 403.61H190.41L389.57 122.69H327.71Z" fill="white"/>
<path d="M196.75 122.69L255.04 205.47L224.63 250.62L134.63 122.69H196.75Z" fill="url(#paint0_linear_102_102)"/>
<path d="M333.61 403.63L268.98 312.08L299.4 268.16L394.4 403.61L333.61 403.63Z" fill="url(#paint1_linear_102_102)"/>
<defs>
<linearGradient id="paint0_linear_102_102" x1="176.92" y1="145.18" x2="259.02" y2="246.03" gradientUnits="userSpaceOnUse">
<stop stop-color="white"/>
<stop offset="1" stop-color="white" stop-opacity="0.55"/>
</linearGradient>
<linearGradient id="paint1_linear_102_102" x1="349.32" y1="380.92" x2="248.62" y2="242.77" gradientUnits="userSpaceOnUse">
<stop stop-color="#6368B0"/>
<stop offset="1" stop-color="#6368B0" stop-opacity="0.36"/>
</linearGradient>
</defs>
</svg>
