<svg width="512" height="512" viewBox="0 0 512 512" fill="none" xmlns="http://www.w3.org/2000/svg">
<path d="M512 256C512 397.381 397.385 512 256 512C114.615 512 0 397.381 0 256C0 114.619 114.615 0 256 0C397.385 0 512 114.619 512 256Z" fill="white"/>
<circle cx="256.5" cy="255.5" r="227.5" fill="#198441"/>
<path d="M139.01 272.9C180.35 294.9 223.49 317.84 256.8 335.62L373.62 272.9C331.32 335.74 296.08 388.06 256.79 446C217.45 388.19 174 324.44 139.01 272.9ZM143.51 255.57L256.93 195.05L368.87 255.13L256.99 315.72L143.51 255.57ZM256.79 175.66L139 237.66L256.29 66L373.62 238.05L256.79 175.66Z" fill="white"/>
</svg>
