<svg width="510" height="510" viewBox="0 0 510 510" fill="none" xmlns="http://www.w3.org/2000/svg">
<path d="M255 510C395.833 510 510 395.833 510 255C510 114.167 395.833 0 255 0C114.167 0 0 114.167 0 255C0 395.833 114.167 510 255 510Z" fill="white"/>
<circle cx="255.5" cy="253.5" r="227.5" fill="#010101"/>
<path d="M133.505 164.978C200.62 98.2534 309.432 98.2534 376.547 164.978L434.521 222.626L376.547 280.275C309.432 346.999 200.62 346.999 133.505 280.275L75.5312 222.626L133.505 164.978Z" fill="#010101"/>
<path fill-rule="evenodd" clip-rule="evenodd" d="M33.6262 222.717L165.252 91H344.747L476.374 222.717L255 444L33.6262 222.717ZM356.715 174.757C300.72 118.594 209.215 118.594 153.285 174.757L105.429 222.626L153.285 270.495C209.215 326.659 300.785 326.659 356.715 270.495L404.583 222.626L356.715 174.757Z" fill="#5CBB5E"/>
<path d="M255 264.505C246.717 264.505 238.62 262.049 231.733 257.447C224.846 252.845 219.479 246.305 216.309 238.653C213.139 231 212.31 222.58 213.926 214.456C215.542 206.332 219.53 198.87 225.387 193.014C231.244 187.157 238.706 183.168 246.83 181.552C254.953 179.936 263.374 180.766 271.026 183.935C278.678 187.105 285.219 192.473 289.821 199.36C294.422 206.247 296.878 214.343 296.878 222.626C296.878 228.126 295.795 233.572 293.691 238.653C291.586 243.734 288.501 248.35 284.613 252.239C280.724 256.128 276.107 259.213 271.026 261.317C265.945 263.422 260.499 264.505 255 264.505Z" fill="#010101"/>
<path fill-rule="evenodd" clip-rule="evenodd" d="M186.192 222.627C186.192 236.235 190.227 249.539 197.788 260.854C205.349 272.17 216.095 280.989 228.668 286.197C241.241 291.405 255.076 292.768 268.424 290.113C281.771 287.458 294.032 280.904 303.655 271.281C313.278 261.658 319.831 249.398 322.486 236.05C325.141 222.703 323.778 208.868 318.57 196.295C313.363 183.722 304.543 172.975 293.228 165.415C281.912 157.854 268.609 153.818 255 153.818C245.964 153.817 237.015 155.595 228.666 159.053C220.317 162.51 212.731 167.578 206.342 173.968C199.952 180.358 194.883 187.944 191.426 196.293C187.969 204.642 186.19 213.59 186.192 222.627ZM225.089 222.627C225.089 228.55 226.845 234.341 230.136 239.266C233.427 244.191 238.105 248.03 243.578 250.297C249.05 252.564 255.072 253.157 260.882 252.002C266.692 250.846 272.029 247.993 276.217 243.805C280.406 239.616 283.259 234.279 284.414 228.47C285.57 222.66 284.977 216.638 282.71 211.165C280.443 205.692 276.604 201.015 271.679 197.724C266.753 194.433 260.963 192.676 255.039 192.676C247.096 192.676 239.478 195.831 233.861 201.448C228.244 207.065 225.089 214.683 225.089 222.627V222.627Z" fill="white"/>
</svg>
