<?xml version="1.0" encoding="utf-8"?>
<!-- Generator: Adobe Illustrator 16.0.0, SVG Export Plug-In . SVG Version: 6.00 Build 0)  -->
<!DOCTYPE svg PUBLIC "-//W3C//DTD SVG 1.1//EN" "http://www.w3.org/Graphics/SVG/1.1/DTD/svg11.dtd">
<svg version="1.1" id="Layer_1" xmlns="http://www.w3.org/2000/svg" xmlns:xlink="http://www.w3.org/1999/xlink" x="0px" y="0px"
	 width="512px" height="512px" viewBox="0 0 512 512" enable-background="new 0 0 512 512" xml:space="preserve">
<g>
	<circle fill="#172852" cx="256" cy="256" r="256"/>
	<g>
		<path fill="#FFD83D" d="M206.208,114.406c29.978-11.213,63.718-11.238,94.259-2.022c39.757,12.339,73.318,42.343,90.854,80
			c4.838,10.727,9.472,21.914,9.933,33.843c-22.349-12.953-46.848-21.35-71.398-29.004c-39.271-14.157-80.384-23.987-117.555-43.443
			c-8.653-5.172-19.687-10.471-22.042-21.248C189.312,123.212,199.168,118.015,206.208,114.406"/>
		<path fill="#FFD83D" d="M115.712,205.03c8.679-23.552,22.912-45.414,42.24-61.619c4.915,40.423,22.118,79.488,50.534,108.877
			c34.073,35.406,82.611,57.14,131.993,56.32c19.609,0.615,38.784-3.916,57.907-7.578
			c-18.816,67.994-93.338,113.127-162.381,102.273c-41.677-5.326-80.153-30.004-103.372-64.846
			C106.444,299.955,99.84,248.832,115.712,205.03z"/>
	</g>
	<path fill="#FF6F03" d="M329.855,197.222c24.551,7.654,49.05,16.051,71.398,29.004l1.511,0.795
		c2.073,15.59,3.584,31.487,0.819,47.104c-11.239-4.762-20.353-13.133-29.876-20.532
		C355.379,238.335,336.665,220.876,329.855,197.222"/>
</g>
</svg>
