<svg width="512" height="512" viewBox="0 0 512 512" fill="none" xmlns="http://www.w3.org/2000/svg">
<path d="M512 256C512 397.381 397.385 512 256 512C114.615 512 0 397.381 0 256C0 114.619 114.615 0 256 0C397.385 0 512 114.619 512 256Z" fill="white"/>
<path d="M436.071 249.691L381.832 231.425C361.885 224.741 347.118 207.909 342.919 187.438L320.033 74.8991C319.403 72.0996 316.884 70 313.944 70C311.005 70 308.485 72.0996 307.855 74.8991L285.005 187.438C280.806 207.909 266.003 224.741 246.057 231.425L191.817 249.691C189.298 250.531 187.618 252.945 187.618 255.535C187.618 258.16 189.298 260.574 191.817 261.414L246.057 279.68C266.003 286.364 280.806 303.196 285.005 323.667L307.855 436.101C308.485 438.9 311.005 441 313.944 441C316.884 441 319.403 438.9 320.033 436.101L342.919 323.667C347.118 303.196 361.885 286.364 381.832 279.68L436.071 261.414C438.591 260.574 440.27 258.16 440.27 255.535C440.27 252.945 438.591 250.531 436.071 249.691Z" fill="#DC2626"/>
<path d="M144.611 146.566L163.718 153.075C170.716 155.454 175.965 161.298 177.435 168.612L185.519 208.329C185.729 209.379 186.568 210.114 187.618 210.114C188.668 210.114 189.508 209.379 189.718 208.329L197.801 168.612C199.271 161.403 204.52 155.454 211.554 153.075L230.66 146.566C231.465 146.286 232.095 145.446 232.095 144.501C232.095 143.556 231.465 142.717 230.66 142.402L211.554 135.928C204.52 133.513 199.271 127.669 197.801 120.356L189.718 80.6732C189.508 79.6234 188.668 78.8885 187.618 78.8885C186.568 78.8885 185.729 79.6234 185.519 80.6732L177.435 120.356C175.965 127.564 170.716 133.513 163.718 135.928L144.611 142.402C143.771 142.717 143.142 143.556 143.142 144.501C143.142 145.446 143.771 146.286 144.611 146.566Z" fill="#DC2626"/>
<path d="M189.193 341.654L163.613 332.976C154.165 329.826 147.131 321.883 145.241 312.19L134.428 259C134.113 257.635 132.959 256.69 131.594 256.69C130.229 256.69 128.969 257.635 128.759 259L117.946 312.19C115.952 321.883 108.918 329.826 99.6098 332.976L73.9946 341.654C72.8398 342.074 72 343.089 72 344.349C72 345.608 72.8398 346.763 73.9946 347.078L99.6098 355.757C109.023 358.871 116.057 366.814 117.946 376.543L128.759 429.733C129.074 431.062 130.229 432.007 131.594 432.007C132.959 432.007 134.218 431.062 134.428 429.733L145.241 376.543C147.236 366.814 154.269 358.871 163.613 355.757L189.193 347.078C190.348 346.658 191.188 345.608 191.188 344.349C191.188 343.089 190.348 341.969 189.193 341.654Z" fill="#DC2626"/>
</svg>
