<?xml version="1.0" encoding="utf-8"?>
<!-- Generator: Adobe Illustrator 16.0.0, SVG Export Plug-In . SVG Version: 6.00 Build 0)  -->
<!DOCTYPE svg PUBLIC "-//W3C//DTD SVG 1.1//EN" "http://www.w3.org/Graphics/SVG/1.1/DTD/svg11.dtd">
<svg version="1.1" id="Layer_1" xmlns="http://www.w3.org/2000/svg" xmlns:xlink="http://www.w3.org/1999/xlink" x="0px" y="0px"
	 width="512px" height="512px" viewBox="0 0 512 512" enable-background="new 0 0 512 512" xml:space="preserve">
<path fill="#FFFFFF" d="M255.898,512.542c141.373,0,255.977-114.604,255.977-255.977S397.271,0.589,255.898,0.589
	S-0.078,115.192-0.078,256.565S114.525,512.542,255.898,512.542z"/>
<g>
	<path fill="#8247E5" d="M349.578,194.271c-6.656-3.805-15.217-3.805-22.826,0l-53.258,31.385l-36.143,19.973l-52.307,31.385
		c-6.658,3.805-15.219,3.805-22.826,0l-40.896-24.728c-6.658-3.804-11.414-11.413-11.414-19.973v-47.554
		c0-7.607,3.805-15.217,11.414-19.973l40.896-23.775c6.656-3.805,15.217-3.805,22.826,0l40.895,24.728
		c6.658,3.804,11.412,11.413,11.412,19.972v31.386l36.143-20.924v-32.336c0-7.608-3.805-15.218-11.414-19.973l-76.086-44.7
		c-6.656-3.805-15.217-3.805-22.824,0l-77.988,45.65c-7.609,3.805-11.412,11.414-11.412,19.022v89.399
		c0,7.609,3.803,15.217,11.412,19.974l77.037,44.7c6.656,3.805,15.217,3.805,22.826,0l52.307-30.434l36.143-20.924l52.309-30.436
		c6.656-3.804,15.217-3.804,22.824,0l40.896,23.777c6.658,3.805,11.412,11.412,11.412,19.973v47.554
		c0,7.608-3.803,15.216-11.412,19.973l-39.945,23.776c-6.656,3.805-15.217,3.805-22.826,0l-40.895-23.776
		c-6.658-3.805-11.414-11.413-11.414-19.973v-30.435l-36.141,20.924v31.385c0,7.608,3.805,15.218,11.414,19.973l77.035,44.701
		c6.658,3.803,15.219,3.803,22.826,0l77.037-44.701c6.656-3.805,11.412-11.412,11.412-19.973v-90.352
		c0-7.607-3.803-15.217-11.412-19.973L349.578,194.271z"/>
</g>
</svg>
