<?xml version="1.0" encoding="utf-8"?>
<!-- Generator: Adobe Illustrator 16.0.0, SVG Export Plug-In . SVG Version: 6.00 Build 0)  -->
<!DOCTYPE svg PUBLIC "-//W3C//DTD SVG 1.1//EN" "http://www.w3.org/Graphics/SVG/1.1/DTD/svg11.dtd">
<svg version="1.1" id="Layer_1" xmlns="http://www.w3.org/2000/svg" xmlns:xlink="http://www.w3.org/1999/xlink" x="0px" y="0px"
	 width="511.954px" height="511.953px" viewBox="1787.781 -83.736 511.954 511.953"
	 enable-background="new 1787.781 -83.736 511.954 511.953" xml:space="preserve">
<g>
	<path fill="#708B96" d="M2043.758,428.217c141.372,0,255.977-114.604,255.977-255.976c0-141.373-114.604-255.977-255.977-255.977
		c-141.373,0-255.978,114.604-255.978,255.977C1787.781,313.613,1902.385,428.217,2043.758,428.217z"/>
	<path fill-rule="evenodd" clip-rule="evenodd" fill="#FFFFFF" d="M2079.514,316.971c0-20.238,0-40.309,0-60.433
		c32.784-11.837,56.307-33.554,69.296-66.035c9.49-23.735,10.442-48.115,3.321-72.659c-14.008-48.291-59.307-82.86-112.075-81.166
		c-50.809,1.628-94.297,37.188-105.994,86.468c-6.731,28.349-3.019,55.522,11.127,81.009c14.149,25.497,35.414,42.719,62.865,52.355
		c0,20.181,0,40.282,0,60.458c-40.286,0-80.47,0-120.64,0c-0.297-1.153-0.41-40.896-0.112-43.599
		c4.992-0.049,10.013-0.016,15.033-0.022c5.044-0.007,10.09-0.002,15.135-0.002c4.993,0,9.987,0,14.982,0c5.019,0,10.038,0,15.058,0
		c-30.98-25.177-50.608-57.063-57.83-96.294c-4.953-26.905-2.78-53.38,6.231-79.218c8.875-25.439,23.438-47.153,43.508-65.113
		c61.771-55.279,156.257-52.751,214.786,5.671c34.582,34.517,48.721,79.329,45.834,120.654
		c-3.268,46.778-23.905,84.588-60.336,114.24c20.281,0,40.372,0,60.415,0c0.369,1.278,0.425,42.091,0.09,43.686
		C2160.041,316.971,2119.86,316.971,2079.514,316.971z"/>
</g>
</svg>
