<svg id="Layer_1" data-name="Layer 1" xmlns="http://www.w3.org/2000/svg" viewBox="0 0 512 512"><defs><style>.cls-1{fill:#3ceaaa;}.cls-2{fill-opacity:0.6;fill-rule:evenodd;}</style></defs><circle class="cls-1" cx="256" cy="256" r="256"/><path class="cls-2" d="M192.81,135.91a39.9,39.9,0,0,1,55.83,0l41.9,41,7-6.85a39.9,39.9,0,0,1,55.83,0l41.31,40.47a39.9,39.9,0,0,1,0,57L283.55,376.42a39.88,39.88,0,0,1-55.83,0L116.59,267.57a39.9,39.9,0,0,1,0-57Zm69.22,69-41.3-40.46-76.22,74.66,41.31,40.46ZM214.32,307.46l41.31,40.46,41.31-40.46L255.63,267Zm69.82-68.39,41.31,40.46,41.3-40.46-41.3-40.47Z"/></svg>