<svg width="510" height="510" viewBox="0 0 510 510" fill="none" xmlns="http://www.w3.org/2000/svg">
<path d="M510 255C510 395.83 395.83 510 255 510C114.17 510 0 395.83 0 255C0 114.17 114.17 0 255 0C395.83 0 510 114.17 510 255Z" fill="white"/>
<circle cx="256.5" cy="253.5" r="227.5" fill="#ED1C24"/>
<path d="M340.86 133.81C331.22 143.435 322.424 153.87 314.57 165L312.09 164.19C297.806 159.521 282.995 156.658 268 155.67C263.51 155.32 246.73 155.32 241.25 155.67C224.7 156.76 212.01 159.24 197.6 164.26C197.02 164.49 196.5 164.66 195.98 164.83C187.855 153.718 178.767 143.345 168.82 133.83C192.47 121.71 218.414 114.722 244.952 113.321C271.49 111.92 298.025 116.138 322.82 125.7C328.19 127.7 333.43 130.08 338.57 132.62L340.86 133.81Z" fill="#ED1C24"/>
<path d="M430.12 352.53C422.895 373.212 411.952 392.401 397.83 409.15C390.16 418.126 381.71 426.405 372.58 433.89C351.24 451.075 326.373 463.343 299.75 469.82C270.338 476.908 239.662 476.908 210.25 469.82C183.625 463.358 158.758 451.088 137.43 433.89C128.294 426.407 119.841 418.128 112.17 409.15C92.1779 385.538 78.6855 357.123 73.0232 326.707C67.3608 296.291 69.7241 264.924 79.8799 235.7C83.7877 224.701 88.7089 214.089 94.5799 204C97.2899 199.39 100.64 194.2 102.25 192.06C107.79 215.88 114.59 236.81 117.13 244.36C116.943 244.796 116.729 245.22 116.49 245.63C103.06 272.85 95.7899 299.08 94.0599 326.99C94.0599 327.34 94.0599 327.74 94.0599 328.09C93.5899 336.45 93.8199 340.43 95.2099 345.68C99.5299 362.11 112.85 380.22 133.73 397.98C167.92 427.04 214.28 447.98 249.4 450.45C286 452.92 340 431.53 376 400.27C381.632 395.274 386.946 389.93 391.91 384.27C395.49 380.12 400.79 372.97 400.39 372.97C400.27 372.97 400.39 372.85 400.62 372.74C400.85 372.63 400.97 372.45 400.85 372.33C400.73 372.21 400.91 372.1 401.08 372.05C401.25 372 401.37 371.87 401.31 371.76C401.25 371.65 401.31 371.53 401.54 371.47C401.576 371.461 401.61 371.445 401.64 371.422C401.669 371.398 401.693 371.369 401.71 371.336C401.727 371.303 401.737 371.266 401.738 371.229C401.74 371.192 401.734 371.155 401.72 371.12C401.706 371.098 401.698 371.074 401.696 371.048C401.695 371.023 401.7 370.997 401.711 370.974C401.722 370.951 401.739 370.931 401.759 370.917C401.78 370.902 401.804 370.893 401.83 370.89C401.95 370.89 402.06 370.72 402.06 370.61C402.06 370.5 402.18 370.32 402.29 370.32C402.349 370.315 402.405 370.29 402.447 370.247C402.49 370.205 402.515 370.149 402.52 370.09C402.716 369.618 402.968 369.172 403.27 368.76C404.14 367.43 407.6 361.26 408.06 360.23C411.11 353.649 413.243 346.681 414.4 339.52C414.878 336.085 415.052 332.615 414.92 329.15C414.86 328.729 414.824 328.305 414.81 327.88C414.69 326.72 414.63 324.99 414.52 323.26C414.4 320.67 414.17 317.04 414 315.26C411.52 289.08 404.83 267.69 392.14 245.02C391.664 244.243 391.243 243.435 390.88 242.6C390.785 242.456 390.708 242.302 390.65 242.14V242.14C392.43 236.78 399.76 214.35 405.58 188.69L405.7 188.8L406.56 189.96C408.06 191.96 412.04 197.96 413.83 200.85C421.95 214.109 428.335 228.356 432.83 243.24C443.279 279.07 442.332 317.262 430.12 352.53Z" fill="#ED1C24"/>
<path d="M355.28 283.62C355.1 284.54 352.39 287.31 349.68 289.33C341.73 295.15 327.48 300.57 313.01 303.17C304.76 304.67 296.52 304.9 294.01 303.69C292.39 302.88 292.16 302.25 292.74 300.17C293.95 295.85 297.87 291.12 303.98 286.68C307.1 284.43 319.73 276.76 325.61 273.53C335.3 268.23 343.14 265.05 348.44 264.3C349.871 264.037 351.338 264.037 352.77 264.3C353.77 264.71 354.96 267.76 355.42 271.45C355.636 275.505 355.589 279.571 355.28 283.62V283.62Z" fill="#010101"/>
<path d="M219.42 302.71C219.08 303.4 217.35 304.15 215.42 304.44C211.632 304.673 207.831 304.576 204.06 304.15C191.83 302.53 178.86 298.79 169.4 294.15C165.008 292.161 160.977 289.458 157.47 286.15L155.85 284.48L155.68 282.28C155.39 278.48 155.45 272.48 155.91 270.35C156.208 268.566 156.814 266.847 157.7 265.27C158.16 264.7 158.16 264.7 160.23 264.7C163.005 264.742 165.753 265.249 168.36 266.2C175.46 268.39 186.01 273.69 198.87 281.42C209.48 287.76 213.46 290.88 216.51 295.14C218.56 297.81 219.94 301.55 219.42 302.71Z" fill="#010101"/>
<path d="M301.07 383C301.07 383.18 300.38 385.95 299.52 389.23C298.66 392.51 297.96 395.17 297.96 395.29C297.349 395.361 296.733 395.378 296.12 395.34H294.27L291.73 401.34C290.35 404.63 289.08 407.68 288.91 408.15L288.56 408.95L287.35 406.95L286.14 404.95V389L285.68 389.11C284.68 389.35 277.68 390.27 274.68 390.56C262.067 391.821 249.347 391.549 236.8 389.75C235.539 389.531 234.267 389.377 232.99 389.29C232.94 389.35 232.99 393.04 233.11 397.59L233.28 405.78L232.28 407.28C231.76 408.09 231.28 408.78 231.28 408.84C231.11 409.01 230.53 408.09 229.21 405.43C227.786 402.65 226.702 399.709 225.98 396.67L225.58 395L223.79 395.11L222 395.28L221.54 393.15C221.31 392 221.02 390.21 220.9 389.23L220.73 387.38L219.23 386.06C218.37 385.31 217.5 384.56 217.33 384.44C217.193 384.314 217.086 384.158 217.017 383.985C216.947 383.812 216.918 383.626 216.93 383.44V382.75L224.13 382.81L231.34 382.87L231.57 383.62L231.8 384.37L234.28 384.48C235.67 384.54 240.05 384.65 243.97 384.77L251.18 384.94L253.02 382.06L254.93 379.18H257.35L257.29 373.18L257.23 367.18L254 365.85C243.79 361.35 237.8 356.22 235.55 349.99C235.09 348.72 235.09 348.26 234.97 342.5C234.85 336.74 234.91 336.27 235.32 335C235.709 333.586 236.462 332.298 237.504 331.266C238.547 330.235 239.842 329.494 241.26 329.12C242.26 328.83 244.83 328.83 258.44 328.83L274.44 328.89L276.23 329.75C277.957 330.461 279.453 331.638 280.55 333.15C281.94 335 282.34 336.44 282.34 339.96C282.34 344.96 282 349.3 281.48 351.03C280.713 353.4 279.583 355.637 278.13 357.66C274.682 361.731 270.232 364.833 265.22 366.66L263.83 367.18L263.89 373.24L263.95 379.24L265.22 379.36L266.48 379.47L268.21 382.07L269.89 384.66H277.61C281.88 384.66 285.61 384.72 285.97 384.78C286.55 384.89 286.67 384.84 287.24 383.86L287.93 382.86H294.57C299.57 382.69 301.07 382.8 301.07 383Z" fill="#010101"/>
<path d="M270.63 399.52C269.53 400.16 268.78 400.45 268.63 400.33C268.48 400.21 267.63 399.58 266.78 398.95L265.23 397.68L263.61 399.41C260.1 403.21 259.98 403.41 258.94 403.41C257.33 403.58 256.94 403.29 255.02 400.35C254.02 398.85 253.18 397.58 253.18 397.58C253.18 397.58 252.43 397.47 251.56 397.41L249.95 397.24L249.2 398.79L248.45 400.35L247.12 399.95C246.096 399.604 245.095 399.196 244.12 398.73L242.39 397.87V394.58L257.72 394.64L273.06 394.7L273.12 396.26C273.11 398.14 273.17 398.08 270.63 399.52Z" fill="#010101"/>
<path d="M414.79 329.18C414.73 328.94 414.73 328.54 414.67 327.91C398.573 326.387 382.334 328.064 366.887 332.843C351.441 337.623 337.093 345.411 324.67 355.76C324.67 355.76 312.85 301.55 257.49 301.55C202.13 301.55 181.61 355.76 181.61 355.76C150.61 322.37 109.07 324.76 94.0698 326.98C94.0698 327.33 94.0698 327.73 94.0698 328.08C93.5998 336.44 93.8298 340.42 95.2198 345.67C99.5398 362.1 112.86 380.21 133.74 397.97C167.93 427.03 214.29 447.97 249.41 450.44C286 452.92 340 431.53 376 400.27C381.632 395.274 386.946 389.93 391.91 384.27C395.49 380.12 400.79 372.97 400.39 372.97C400.27 372.97 400.39 372.85 400.62 372.74C400.85 372.63 400.97 372.45 400.85 372.33C400.73 372.21 400.91 372.1 401.08 372.05C401.25 372 401.37 371.87 401.31 371.76C401.25 371.65 401.31 371.53 401.54 371.47C401.576 371.461 401.61 371.445 401.639 371.421C401.669 371.398 401.693 371.369 401.71 371.336C401.727 371.303 401.737 371.266 401.738 371.229C401.74 371.192 401.734 371.154 401.72 371.12C401.706 371.098 401.698 371.074 401.696 371.048C401.695 371.023 401.7 370.997 401.711 370.974C401.722 370.951 401.739 370.931 401.759 370.917C401.78 370.902 401.804 370.893 401.83 370.89C401.95 370.89 402.06 370.72 402.06 370.6C402.06 370.48 402.18 370.32 402.29 370.32C402.349 370.315 402.405 370.29 402.447 370.247C402.489 370.205 402.515 370.149 402.52 370.09C402.716 369.618 402.968 369.172 403.27 368.76C404.14 367.43 407.6 361.26 408.06 360.23C411.11 353.649 413.243 346.68 414.4 339.52C414.787 336.088 414.917 332.631 414.79 329.18V329.18ZM270.63 399.52C269.53 400.16 268.78 400.45 268.63 400.33C268.48 400.21 267.63 399.58 266.78 398.95L265.23 397.68L263.61 399.41C260.1 403.21 259.98 403.41 258.94 403.41C257.33 403.58 256.94 403.29 255.02 400.35C254.02 398.85 253.18 397.58 253.18 397.58C253.18 397.58 252.43 397.47 251.56 397.41L249.95 397.24L249.2 398.79L248.45 400.35L247.12 399.95C246.096 399.604 245.094 399.196 244.12 398.73L242.39 397.87V394.58L257.72 394.64L273.06 394.7L273.12 396.26C273.11 398.14 273.17 398.08 270.63 399.52ZM299.46 389.14C298.59 392.43 297.9 395.08 297.9 395.2C297.289 395.275 296.674 395.295 296.06 395.26H294.21L291.73 401.31C290.35 404.6 289.08 407.65 288.91 408.12L288.56 408.92L287.35 406.92L286.14 404.92V389L285.68 389.11C284.68 389.35 277.68 390.27 274.68 390.56C262.067 391.821 249.347 391.549 236.8 389.75C235.539 389.531 234.267 389.377 232.99 389.29C232.94 389.35 232.99 393.04 233.11 397.59L233.28 405.78L232.28 407.28C231.76 408.09 231.28 408.78 231.28 408.84C231.11 409.01 230.53 408.09 229.21 405.43C227.786 402.65 226.702 399.709 225.98 396.67L225.58 395L223.79 395.11L222 395.28L221.54 393.15C221.31 392 221.02 390.21 220.9 389.23L220.73 387.38L219.23 386.06C218.37 385.31 217.5 384.56 217.33 384.44C217.193 384.313 217.086 384.158 217.017 383.985C216.947 383.812 216.918 383.626 216.93 383.44V382.75L224.13 382.81L231.34 382.87L231.57 383.62L231.8 384.37L234.28 384.48C235.67 384.54 240.05 384.65 243.97 384.77L251.18 384.94L253.02 382.06L254.93 379.18H257.35L257.29 373.18L257.23 367.18L254 365.85C243.79 361.35 237.8 356.22 235.55 349.99C235.09 348.72 235.09 348.26 234.97 342.5C234.85 336.74 234.91 336.27 235.32 335C235.709 333.586 236.462 332.298 237.504 331.266C238.547 330.235 239.842 329.494 241.26 329.12C242.26 328.83 244.83 328.83 258.44 328.83L274.44 328.89L276.23 329.75C277.957 330.461 279.453 331.638 280.55 333.15C281.94 335 282.34 336.44 282.34 339.96C282.34 344.96 282 349.3 281.48 351.03C280.713 353.4 279.583 355.637 278.13 357.66C274.682 361.731 270.232 364.833 265.22 366.66L263.83 367.18L263.89 373.24L263.95 379.24L265.22 379.36L266.48 379.47L268.21 382.07L269.89 384.66H277.61C281.88 384.66 285.61 384.72 285.97 384.78C286.55 384.89 286.67 384.84 287.24 383.86L287.93 382.86H294.57C299.7 382.86 301.2 382.91 301.2 383.09C301.07 383.09 300.32 385.92 299.46 389.14Z" fill="white"/>
<path d="M414.32 323.29C414.21 320.7 413.98 317.07 413.81 315.29C411.33 289.1 404.64 267.71 392 245C391.522 244.223 391.097 243.415 390.73 242.58C390.643 242.432 390.566 242.278 390.5 242.12C392.29 236.76 399.61 214.33 405.44 188.67C413.34 153.84 418.35 113.13 403.02 100.9C403.02 100.9 376.49 98.8999 340.97 133.77C331.311 143.406 322.498 153.854 314.63 165L312.15 164.19C297.876 159.521 283.075 156.655 268.09 155.66C263.59 155.31 246.81 155.31 241.33 155.66C224.79 156.75 212.1 159.23 197.68 164.25C197.11 164.48 196.59 164.65 196.07 164.82C187.945 153.708 178.857 143.335 168.91 133.82C131.91 98.8199 104.44 100.82 104.44 100.82C88.1798 113.44 93.7198 156 102.14 191.98C107.67 215.8 114.48 236.73 117.01 244.28C116.826 244.716 116.616 245.14 116.38 245.55C102.94 272.84 95.6798 299.07 93.9998 327C109 324.81 150.51 322.33 181.59 355.78C181.59 355.78 202.12 301.57 257.47 301.57C312.82 301.57 324.65 355.78 324.65 355.78C337.08 345.443 351.429 337.662 366.873 332.882C382.318 328.103 398.554 326.42 414.65 327.93C414.56 326.75 414.44 325 414.32 323.29ZM127.91 222.61C127.91 222.61 106.35 168.7 111.91 137.91C112.598 133.137 114.437 128.603 117.27 124.7C117.27 124.7 141.72 127.12 181.16 170.95C174.978 174.186 169.109 177.989 163.63 182.31C163.6 182.339 163.561 182.356 163.52 182.36C149.153 193.333 137.067 207.005 127.94 222.61H127.91ZM219.42 302.71C219.08 303.4 217.35 304.15 215.42 304.44C211.632 304.673 207.831 304.576 204.06 304.15C191.83 302.53 178.86 298.79 169.4 294.15C165.008 292.161 160.977 289.458 157.47 286.15L155.85 284.48L155.68 282.28C155.39 278.48 155.45 272.48 155.91 270.35C156.208 268.566 156.814 266.847 157.7 265.27C158.16 264.7 158.16 264.7 160.23 264.7C163.005 264.742 165.753 265.249 168.36 266.2C175.46 268.39 186.01 273.69 198.87 281.42C209.48 287.76 213.46 290.88 216.51 295.14C218.56 297.81 219.94 301.55 219.42 302.71V302.71ZM355.28 283.62C355.1 284.54 352.39 287.31 349.68 289.33C341.73 295.15 327.48 300.57 313.01 303.17C304.76 304.67 296.52 304.9 294.01 303.69C292.39 302.88 292.16 302.25 292.74 300.17C293.95 295.85 297.87 291.12 303.98 286.68C307.1 284.43 319.73 276.76 325.61 273.53C335.3 268.23 343.14 265.05 348.44 264.3C349.871 264.037 351.338 264.037 352.77 264.3C353.77 264.71 354.96 267.76 355.42 271.45C355.636 275.505 355.589 279.57 355.28 283.62V283.62ZM345.71 182.31L345.59 182.25C340.312 177.935 334.637 174.131 328.64 170.89C366.75 127.07 390.34 124.64 390.34 124.64C393.053 128.591 394.828 133.109 395.53 137.85V137.85C400.89 168.64 380.07 222.61 380.07 222.61C371.341 207.073 359.671 193.385 345.71 182.31Z" fill="#FAA31A"/>
<path d="M395.58 137.85C391.09 137.27 369.81 137.16 345.71 182.31L345.59 182.25C340.312 177.935 334.637 174.131 328.64 170.89C366.75 127.07 390.34 124.64 390.34 124.64C393.098 128.571 394.893 133.097 395.58 137.85V137.85Z" fill="#F7921E"/>
<path d="M380.13 222.61C371.395 207.06 359.702 193.369 345.71 182.31C369.81 137.16 391.03 137.31 395.58 137.85C401 168.7 380.13 222.61 380.13 222.61Z" fill="#F5831F"/>
<path d="M396.45 138L395.58 137.83L396.45 138Z" fill="#F5831F"/>
<path d="M181.13 170.89C174.948 174.126 169.079 177.929 163.6 182.25C163.572 182.283 163.533 182.305 163.49 182.31C138.49 137.1 116.55 137.31 111.82 137.85C112.516 133.077 114.358 128.544 117.19 124.64C117.19 124.64 141.69 127.07 181.13 170.89Z" fill="#F7921E"/>
<path d="M163.55 182.31C149.145 193.28 137.036 206.972 127.91 222.61C127.91 222.61 106.35 168.7 111.91 137.85C116.55 137.27 138.58 137.16 163.55 182.31Z" fill="#F5831F"/>
<path d="M111.88 137.85L111 138L111.88 137.85Z" fill="#F5831F"/>
<path d="M321.78 252.54C321.78 252.54 303.32 253.69 305.63 239.28C307.94 224.87 322.35 223.13 326.39 223.71C330.43 224.29 346.57 230.05 343.69 242.16C340.81 254.27 336.77 251.96 334.46 252.54C332.15 253.12 321.78 252.54 321.78 252.54Z" fill="white"/>
<path d="M185.69 252.54C185.69 252.54 167.24 253.69 169.54 239.28C171.84 224.87 186.27 223.13 190.3 223.71C194.33 224.29 210.49 230.05 207.6 242.16C204.71 254.27 200.68 251.96 198.38 252.54C196.08 253.12 185.69 252.54 185.69 252.54Z" fill="white"/>
</svg>
