<svg width="39" height="39" viewBox="0 0 39 39" fill="none" xmlns="http://www.w3.org/2000/svg">
<circle cx="19.5" cy="19.5" r="13.5" fill="#3A3A86"/>
<path d="M18.7032 20.2774L17.9626 19.8951C16.8703 19.3343 16.1147 18.7651 15.6958 18.1874C15.2768 17.5927 15.0673 16.8876 15.0673 16.072C15.0673 15.1544 15.4115 14.3473 16.0998 13.6507C16.788 12.954 17.6559 12.6057 18.7032 12.6057V11H20.3641V12.6567C22.3242 12.8776 23.4015 13.982 23.596 15.97L21.3741 16.4033C21.2544 15.5027 20.9177 14.976 20.3641 14.8231V18.1874C21.8454 18.8841 22.818 19.5722 23.2818 20.2519C23.7606 20.9145 24 21.6792 24 22.5457C24 23.5482 23.6559 24.3978 22.9676 25.0945C22.2943 25.7911 21.4264 26.1989 20.3641 26.3178V28H18.7032V26.2924C16.4738 26.0375 15.2394 24.8141 15 22.6222L17.4464 22.036C17.4464 23.0895 17.8653 23.7691 18.7032 24.075V20.2774ZM18.7032 17.4992V14.8995C18.389 14.8995 18.1272 15.01 17.9177 15.2309C17.7082 15.4348 17.6035 15.7066 17.6035 16.0465C17.6035 16.6242 17.8878 17.066 18.4564 17.3718L18.7032 17.4992ZM20.3641 21.0675V24.1769C21.1272 24.007 21.5087 23.5312 21.5087 22.7496C21.5087 22.036 21.2319 21.5347 20.6783 21.2459L20.3641 21.0675Z" fill="white"/>
<path fill-rule="evenodd" clip-rule="evenodd" d="M19.5 39C30.2695 39 39 30.2695 39 19.5C39 8.73047 30.2695 0 19.5 0C8.73047 0 0 8.73047 0 19.5C0 30.2695 8.73047 39 19.5 39ZM19.5 36C28.6128 36 36 28.6128 36 19.5C36 10.3872 28.6128 3 19.5 3C10.3872 3 3 10.3872 3 19.5C3 28.6128 10.3872 36 19.5 36Z" fill="#00AC64"/>
</svg>
