<svg width="38" height="39" viewBox="0 0 38 39" fill="none" xmlns="http://www.w3.org/2000/svg">
<path d="M18.9335 39C29.2344 39 37.5216 30.3063 37.5216 19.5C37.5216 8.69369 29.2344 0 18.9335 0C8.63247 0 0.345322 8.69369 0.345322 19.5C0.345322 30.3063 8.63247 39 18.9335 39Z" fill="#2775CA"/>
<path d="M24.0452 22.5875C24.0452 19.7438 22.4188 18.7688 19.1658 18.3626C16.8423 18.0375 16.3776 17.3876 16.3776 16.25C16.3776 15.1123 17.1522 14.3813 18.7011 14.3813C20.0952 14.3813 20.8698 14.8688 21.257 16.0875C21.3345 16.3313 21.5669 16.4937 21.7992 16.4937H23.0383C23.3482 16.4937 23.5805 16.25 23.5805 15.9251V15.8438C23.2707 14.0562 21.8765 12.675 20.0952 12.5126V10.5626C20.0952 10.2375 19.8629 9.99379 19.4757 9.91248H18.3139C18.0041 9.91248 17.7717 10.1562 17.6942 10.5626V12.4313C15.3707 12.7564 13.8993 14.3813 13.8993 16.4126C13.8993 19.0939 15.4482 20.15 18.7011 20.5564C20.8698 20.9625 21.5669 21.45 21.5669 22.7501C21.5669 24.0502 20.4824 24.9439 19.011 24.9439C16.9972 24.9439 16.3001 24.05 16.0678 22.8312C15.9904 22.5064 15.7581 22.3437 15.5257 22.3437H14.2089C13.8993 22.3437 13.6669 22.5875 13.6669 22.9125V22.9939C13.9766 25.025 15.2159 26.4875 17.7717 26.8939V28.8439C17.7717 29.1687 18.0041 29.4125 18.3913 29.4938H19.553C19.8629 29.4938 20.0952 29.25 20.1728 28.8439V26.8939C22.4963 26.4875 24.0452 24.7812 24.0452 22.5875Z" fill="white"/>
<path d="M14.9834 31.1186C8.9423 28.8437 5.84422 21.775 8.0904 15.5186C9.25216 12.1061 11.808 9.50618 14.9834 8.28743C15.2933 8.125 15.4481 7.88125 15.4481 7.47487V6.33743C15.4481 6.01237 15.2933 5.76862 14.9834 5.6875C14.9059 5.6875 14.7511 5.6875 14.6736 5.76862C7.31584 8.20612 3.28835 16.4125 5.61186 24.1312C7.00597 28.6811 10.3364 32.1749 14.6736 33.6374C14.9834 33.7999 15.2933 33.6374 15.3706 33.3124C15.4481 33.2312 15.4481 33.1499 15.4481 32.9875V31.8499C15.4481 31.6061 15.2158 31.2812 14.9834 31.1186ZM23.1933 5.76862C22.8834 5.60618 22.5735 5.76862 22.4962 6.09368C22.4187 6.175 22.4187 6.25612 22.4187 6.41875V7.55618C22.4187 7.88125 22.651 8.20612 22.8834 8.36875C28.9245 10.6436 32.0226 17.7124 29.7764 23.9687C28.6147 27.3812 26.0588 29.9812 22.8834 31.1999C22.5735 31.3624 22.4187 31.6061 22.4187 32.0125V33.1499C22.4187 33.475 22.5735 33.7187 22.8834 33.7999C22.9609 33.7999 23.1157 33.7999 23.1933 33.7187C30.551 31.2812 34.5785 23.0749 32.255 15.3562C30.8609 10.7249 27.4529 7.23112 23.1933 5.76862Z" fill="white"/>
</svg>
