<svg width="39" height="39" viewBox="0 0 39 39" fill="none" xmlns="http://www.w3.org/2000/svg">
<circle cx="19.5" cy="19.5" r="19.5" fill="#50AF95"/>
<path fill-rule="evenodd" clip-rule="evenodd" d="M22.4612 22.2099C22.3057 22.2221 21.5026 22.2724 19.7112 22.2724C18.2863 22.2724 17.2746 22.2275 16.9197 22.2099C11.4132 21.9558 7.30311 20.9502 7.30311 19.7462C7.30311 18.5422 11.4132 17.538 16.9197 17.2798V21.2084C17.2798 21.2355 18.3109 21.2994 19.7358 21.2994C21.4456 21.2994 22.3019 21.2247 22.456 21.2097V17.2825C27.9508 17.5394 32.0519 18.5449 32.0519 19.7462C32.0519 20.9475 27.9521 21.953 22.456 22.2085L22.4612 22.2099ZM22.4612 16.8762V13.3608H30.1296V8H9.2513V13.3608H16.9184V16.8749C10.6865 17.1752 6 18.4702 6 20.0221C6 21.5739 10.6865 22.8676 16.9184 23.1692V34.4344H22.4599V23.1652C28.6775 22.8648 33.3563 21.5712 33.3563 20.0207C33.3563 18.4702 28.6814 17.1765 22.4599 16.8749L22.4612 16.8762Z" fill="white"/>
</svg>
