<svg xmlns="http://www.w3.org/2000/svg" width="117" height="30" viewBox="0 0 117 30" fill="none">
  <path d="M8.64477 11.6535C8.31917 11.3946 7.88504 11.1726 7.34239 11.0247C6.79973 10.8767 6.22089 10.8027 5.60588 10.8027C4.84615 10.8027 4.23114 10.9137 3.6523 11.1357C3.07347 11.3576 2.63934 11.6905 2.34992 12.1344C2.02433 12.5413 1.87962 13.0592 1.87962 13.6141C1.87962 14.1689 2.02433 14.6128 2.31374 14.9828C2.60316 15.3527 2.92876 15.6116 3.32671 15.7966C3.72466 15.9815 4.23114 16.1665 4.84615 16.3514C5.28028 16.4624 5.60588 16.5734 5.85912 16.6844C6.11236 16.7953 6.32942 16.9063 6.47413 17.0543C6.61884 17.2022 6.69119 17.3872 6.69119 17.6091C6.69119 17.9421 6.54649 18.164 6.25707 18.349C5.96765 18.5339 5.53352 18.6079 4.99086 18.6079C4.48438 18.6079 4.01408 18.5339 3.57995 18.423C3.14582 18.275 2.78405 18.127 2.49463 17.9421C2.31374 17.8311 2.16904 17.7941 1.98815 17.7941C1.77109 17.7941 1.5902 17.8681 1.48167 18.0161C1.37314 18.164 1.30078 18.349 1.30078 18.5709C1.30078 18.7189 1.33696 18.8669 1.37314 19.0148C1.44549 19.1628 1.55402 19.2738 1.69873 19.3847C2.0605 19.6067 2.53081 19.7916 3.07347 19.9396C3.6523 20.0876 4.23114 20.1616 4.91851 20.1616C6.07618 20.1616 7.01679 19.9026 7.66798 19.4217C8.31917 18.9038 8.64477 18.238 8.64477 17.3502C8.64477 16.7953 8.53624 16.3514 8.24682 16.0185C7.9574 15.6856 7.6318 15.4267 7.23385 15.2417C6.87208 15.0567 6.3656 14.8718 5.75059 14.6868C5.28028 14.5759 4.95469 14.4649 4.70144 14.3539C4.4482 14.2799 4.26732 14.132 4.08643 13.984C3.90554 13.836 3.83319 13.6141 3.83319 13.3921C3.83319 13.0592 3.9779 12.8003 4.26732 12.6153C4.59291 12.4304 4.99086 12.3194 5.53352 12.3194C5.96765 12.3194 6.32942 12.3934 6.72737 12.5043C7.12532 12.6523 7.45092 12.7633 7.70416 12.9482C7.88504 13.0592 8.06593 13.1332 8.24682 13.1332C8.4277 13.1332 8.60859 13.0222 8.7533 12.8743C8.89801 12.7263 8.97036 12.5413 8.97036 12.3194C8.97036 12.0604 8.86183 11.8015 8.64477 11.6535Z" fill="#181A20"/>
  <path d="M16.7857 11.6168C16.243 11.1359 15.5195 10.877 14.5427 10.877H11.5038C11.2144 10.877 10.9973 10.9879 10.8165 11.1359C10.6356 11.2839 10.5632 11.5428 10.527 11.8387L9.98438 19.126C9.98438 19.422 10.0567 19.6809 10.2014 19.8659C10.3461 20.0508 10.5994 20.1248 10.8888 20.1248C11.2144 20.1248 11.4676 20.0508 11.6485 19.8659C11.8294 19.6809 11.9379 19.422 11.9741 19.126L12.155 16.6106H14.3256C15.3748 16.6106 16.1707 16.3517 16.7495 15.8338C17.2922 15.3159 17.5816 14.5391 17.5816 13.5773C17.5816 12.7635 17.3284 12.0977 16.7857 11.6168ZM14.1448 15.094H12.2635L12.4806 12.4676H14.3618C14.8321 12.4676 15.1939 12.5786 15.411 12.7635C15.628 12.9485 15.7366 13.2814 15.7366 13.6883C15.7366 14.6131 15.1939 15.057 14.1448 15.094Z" fill="#181A20"/>
  <path d="M47.642 11.4319C46.9909 11.099 46.2311 10.9141 45.3267 10.9141H42.7943C42.5049 10.9141 42.2878 11.025 42.1069 11.173C41.926 11.321 41.8537 11.5799 41.8175 11.8758L41.2748 19.1261C41.2387 19.4221 41.311 19.681 41.4557 19.829C41.6004 20.0139 41.8537 20.0879 42.1069 20.0509H44.8202C45.8332 20.0509 46.7376 19.829 47.4612 19.4591C48.1847 19.0892 48.7274 18.5343 49.1253 17.7945C49.5233 17.0546 49.7041 16.2038 49.7041 15.1681C49.7041 14.3173 49.5233 13.5405 49.1615 12.9116C48.7997 12.2827 48.2932 11.7649 47.642 11.4319ZM46.9909 17.6465C46.4844 18.2014 45.7246 18.4603 44.6755 18.4603H43.3008L43.7349 12.5787H45.0735C45.9417 12.5787 46.6291 12.8006 47.0632 13.2445C47.5335 13.6884 47.7506 14.3543 47.7506 15.2051C47.7506 16.2778 47.4973 17.0916 46.9909 17.6465Z" fill="#181A20"/>
  <path d="M63.1262 10.877C62.7644 10.877 62.4027 11.0989 62.1494 11.5428L59.1829 16.4627L57.0122 11.5428C56.8314 11.0989 56.5419 10.877 56.144 10.877C55.8907 10.877 55.6375 10.9509 55.4566 11.1359C55.2757 11.3208 55.1672 11.5428 55.131 11.8387L54.5522 19.237C54.516 19.4959 54.5884 19.7549 54.7331 19.9028C54.8778 20.0878 55.0948 20.1618 55.3481 20.1618C55.6013 20.1618 55.8184 20.0508 55.9993 19.9028C56.1802 19.7549 56.2887 19.4959 56.2887 19.237L56.5781 14.7241L58.1337 18.0903C58.2423 18.3492 58.3508 18.4972 58.4955 18.6081C58.6402 18.7191 58.8211 18.7561 59.002 18.7561C59.1829 18.7561 59.3638 18.7191 59.5085 18.6081C59.6532 18.4972 59.7979 18.3122 59.9426 18.0903L62.0047 14.6501L61.6429 19.237C61.6068 19.4959 61.6791 19.7179 61.8238 19.9028C61.9685 20.0878 62.1856 20.1618 62.4388 20.1618C62.7283 20.1618 62.9091 20.0508 63.09 19.9028C63.2709 19.7549 63.3433 19.5329 63.3794 19.237L63.9583 11.8387C63.9945 11.5428 63.9221 11.3208 63.7774 11.1359C63.5965 10.9509 63.3794 10.877 63.1262 10.877Z" fill="#181A20"/>
  <path d="M70.7624 11.5428C70.69 11.3208 70.5453 11.1729 70.3644 11.0619C70.1836 10.9509 69.9665 10.877 69.7494 10.877C69.5324 10.877 69.3153 10.9509 69.1344 11.0619C68.9174 11.1729 68.7726 11.3208 68.6641 11.5428L64.7931 18.9041C64.6846 19.052 64.6484 19.2 64.6484 19.348C64.6484 19.5699 64.757 19.7919 64.9379 19.9398C65.1187 20.0878 65.2996 20.1618 65.5529 20.1618C65.7338 20.1618 65.8785 20.0878 66.0232 20.0138C66.1679 19.9398 66.2764 19.7919 66.3849 19.6069L67.1447 18.0903H71.3051L71.8477 19.6069C71.8839 19.7919 71.9924 19.9398 72.1371 20.0138C72.2818 20.1248 72.4266 20.1618 72.6074 20.1618C72.8607 20.1618 73.0777 20.0878 73.2948 19.9028C73.4757 19.7179 73.5842 19.5329 73.5842 19.274C73.5842 19.2 73.5842 19.089 73.548 19.0151L70.7624 11.5428ZM67.9044 16.5366L69.6047 13.0964L70.7986 16.5366H67.9044Z" fill="#181A20"/>
  <path d="M82.4469 13.4662C82.4469 12.6524 82.1937 12.0236 81.6872 11.5427C81.1807 11.0618 80.4572 10.8398 79.5166 10.8398H76.2968C76.0074 10.8398 75.7903 10.9508 75.6094 11.0988C75.4285 11.2467 75.3562 11.5057 75.32 11.8016L74.7773 19.0889C74.7773 19.3848 74.8497 19.6438 74.9944 19.8287C75.1391 20.0137 75.3924 20.0877 75.6818 20.0877C75.9712 20.0877 76.2244 20.0137 76.4053 19.8287C76.5862 19.6438 76.6947 19.3848 76.7309 19.0889L76.9118 16.4625H77.9248C78.178 16.4625 78.3951 16.4995 78.5398 16.6105C78.6845 16.7215 78.8292 16.8694 78.9377 17.0914L80.1316 19.5698C80.2401 19.7918 80.3486 19.9027 80.4934 20.0137C80.6742 20.1247 80.8189 20.1617 80.9998 20.1617C81.2531 20.1617 81.4701 20.0507 81.6872 19.9027C81.9043 19.7548 82.0128 19.5328 82.0128 19.2739C82.0128 19.1629 81.9766 19.0149 81.9043 18.867L81.0722 17.2763C80.9275 17.0174 80.7828 16.7955 80.6381 16.6475C80.4934 16.4995 80.3125 16.3885 80.0954 16.3146C80.8913 16.1666 81.4701 15.8707 81.8681 15.3898C82.266 14.9089 82.4469 14.28 82.4469 13.4662ZM80.2401 14.65C79.9869 14.8719 79.6251 14.9829 79.1186 14.9829H77.0203L77.2012 12.4675H79.2995C79.7698 12.4675 80.0954 12.5784 80.3125 12.7634C80.5295 12.9484 80.6381 13.2443 80.6381 13.6512C80.6381 14.0951 80.4934 14.428 80.2401 14.65Z" fill="#181A20"/>
  <path d="M91.1655 11.7278C91.1655 11.5058 91.0931 11.2839 90.9484 11.1359C90.7675 10.9509 90.5867 10.877 90.3696 10.877C90.1525 10.877 89.9355 10.9509 89.7184 11.1729L85.9198 15.094L86.173 11.9867C86.173 11.6538 86.1369 11.4318 85.956 11.2469C85.7751 11.0619 85.558 10.9879 85.2324 10.9879C84.943 10.9879 84.6898 11.0619 84.5089 11.2469C84.328 11.3948 84.2195 11.6538 84.1833 11.9497L83.6406 19.237C83.6406 19.5329 83.713 19.7919 83.8577 19.9768C84.0024 20.1618 84.2556 20.2358 84.5451 20.2358C84.8707 20.2358 85.1239 20.1618 85.3048 19.9768C85.4857 19.7919 85.5942 19.5329 85.6304 19.237L85.8836 15.9448L89.2481 19.8289C89.429 20.0508 89.6822 20.1618 89.9355 20.1618C90.1887 20.1618 90.4058 20.0508 90.5867 19.8659C90.7675 19.6439 90.8761 19.459 90.8761 19.2C90.8761 19.0151 90.8037 18.8671 90.6952 18.7191L87.8372 15.4269L90.8399 12.4676C91.057 12.2456 91.1655 11.9867 91.1655 11.7278Z" fill="#181A20"/>
  <path d="M98.292 10.9141H93.806C93.5166 10.9141 93.2995 11.025 93.1186 11.173C92.9377 11.321 92.8654 11.5799 92.8292 11.8758L92.2866 19.1261C92.2504 19.4221 92.3227 19.681 92.4674 19.829C92.6122 20.0139 92.8292 20.0879 93.1186 20.0879H97.6046C98.292 20.0879 98.6176 19.829 98.6176 19.2741C98.6176 19.0152 98.5452 18.8672 98.4005 18.7192C98.2558 18.6083 98.0388 18.5343 97.7493 18.5343H94.2401L94.421 16.2408H97.677C98.3282 16.2408 98.6538 15.9449 98.6538 15.39C98.6538 15.1311 98.5814 14.9461 98.4367 14.8351C98.292 14.7242 98.0749 14.6502 97.7855 14.6502H94.5295L94.7104 12.5047V12.4677H98.1835C98.8346 12.4677 99.1602 12.1718 99.1602 11.6169C99.1602 11.395 99.0879 11.247 98.9432 11.099C98.7985 10.988 98.5814 10.9141 98.292 10.9141Z" fill="#181A20"/>
  <path d="M107.589 11.6909C107.589 11.173 107.3 10.9141 106.721 10.9141H100.607C100.245 10.9141 100.028 11.025 99.847 11.136C99.6661 11.247 99.5938 11.5059 99.5938 11.8019C99.5938 12.0238 99.6661 12.2088 99.8108 12.3567C99.9555 12.4677 100.173 12.5417 100.462 12.5417H102.524L102.018 19.1261C101.981 19.4591 102.054 19.681 102.235 19.866C102.379 20.0509 102.633 20.1619 102.958 20.1249C103.248 20.1249 103.501 20.0509 103.682 19.866C103.863 19.718 103.971 19.4591 104.007 19.1631L104.514 12.5787H106.576C106.938 12.5787 107.191 12.5047 107.336 12.3567C107.517 12.2088 107.589 11.9868 107.589 11.6909Z" fill="#181A20"/>
  <path d="M110.123 12.6524C110.448 12.4675 110.846 12.3565 111.389 12.3565C111.823 12.3565 112.185 12.4305 112.583 12.5414C112.981 12.6524 113.306 12.8004 113.56 12.9853C113.741 13.0963 113.921 13.1703 114.102 13.1703C114.283 13.1703 114.464 13.0593 114.609 12.9114C114.753 12.7634 114.826 12.5784 114.826 12.3565C114.826 12.0976 114.717 11.8386 114.5 11.6906C114.175 11.4317 113.741 11.2098 113.198 11.0618C112.655 10.9138 112.076 10.8398 111.461 10.8398C110.702 10.8398 110.087 10.9508 109.508 11.1728C108.929 11.3947 108.495 11.7276 108.205 12.1715C107.88 12.5784 107.735 13.0963 107.735 13.6512C107.735 14.2061 107.88 14.65 108.169 15.0199C108.459 15.3898 108.784 15.6487 109.182 15.8337C109.58 16.0186 110.087 16.2036 110.702 16.3885C111.136 16.4995 111.461 16.6105 111.715 16.7215C111.968 16.8324 112.185 16.9434 112.33 17.0914C112.474 17.2394 112.547 17.4243 112.547 17.6463C112.547 17.9792 112.402 18.2011 112.113 18.3861C111.823 18.571 111.389 18.645 110.846 18.645C110.34 18.645 109.87 18.571 109.435 18.4601C109.001 18.3121 108.64 18.1641 108.35 17.9792C108.169 17.8682 108.025 17.8312 107.844 17.8312C107.627 17.8312 107.446 17.9052 107.337 18.0532C107.229 18.2011 107.156 18.3861 107.156 18.608C107.156 18.756 107.192 18.904 107.265 19.0519C107.337 19.1999 107.446 19.3109 107.59 19.4218C107.952 19.6438 108.422 19.8287 108.965 19.9767C109.544 20.1247 110.159 20.1987 110.774 20.1987C111.932 20.1987 112.872 19.9397 113.523 19.4588C114.175 18.941 114.5 18.2751 114.5 17.3873C114.5 16.8324 114.392 16.3886 114.102 16.0556C113.813 15.7227 113.487 15.4638 113.089 15.2788C112.728 15.0939 112.221 14.9089 111.606 14.7239C111.136 14.613 110.81 14.502 110.557 14.391C110.304 14.317 110.123 14.1691 109.942 14.0211C109.761 13.8731 109.689 13.6512 109.689 13.4292C109.689 13.0963 109.833 12.8374 110.123 12.6524Z" fill="#181A20"/>
  <path d="M20.2576 15.5378C20.5471 15.5748 27.2037 15.5378 27.2399 15.5378C27.6378 15.5378 27.9996 15.2788 28.0357 14.8349C28.0719 14.576 27.9996 14.2801 27.7825 14.1321C27.6378 14.0211 27.4569 13.9471 27.2037 13.9471C27.1675 13.9471 21.2706 13.9102 20.8003 13.9102C20.4385 13.9102 20.0044 13.9102 19.715 14.2061C19.4979 14.428 19.4979 14.8349 19.6064 15.0939C19.715 15.3898 19.9682 15.5008 20.2576 15.5378Z" fill="#181A20"/>
  <path d="M27.2414 18.2368C27.0605 17.9778 26.8073 17.7559 26.4455 17.7559H23.5875H20.1507L21.1998 16.5352H18.9206C18.5589 16.9421 18.1609 17.349 17.8353 17.7559C17.5459 18.1258 17.0394 18.6437 17.4735 19.0876C17.6182 19.2355 17.8353 19.3465 18.1247 19.3465H24.6728H26.2646H27.4585C27.4946 19.3465 27.4223 18.7546 27.3861 18.6807C27.3861 18.5697 27.3138 18.3847 27.2414 18.2368Z" fill="#181A20"/>
  <path d="M37.3678 13.9099C37.0784 13.8729 30.8921 13.9839 30.8559 13.9839C30.6027 13.9839 30.4579 14.0579 30.3132 14.1688C30.06 14.3908 29.9876 14.8347 30.1323 15.1306C30.2771 15.4265 30.6027 15.5745 30.8921 15.5745C30.9282 15.5745 30.9644 15.5745 31.0006 15.5745L37.2231 15.5005C37.2593 15.5005 37.2954 15.5005 37.3316 15.5005C37.6934 15.5005 38.019 15.2046 38.0913 14.8347C38.1637 14.3538 37.8381 13.9839 37.3678 13.9099Z" fill="#181A20"/>
  <path d="M35.0906 17.8301H34.9459H30.0981C29.7725 17.8301 29.3746 17.9041 29.2299 18.237C28.9404 18.7919 29.3384 19.3837 29.9172 19.3837C29.9534 19.3837 29.9896 19.3837 30.0258 19.3837H32.5943C32.522 19.4947 28.9766 25.8572 28.5063 26.634C28.0722 27.3739 28.3254 27.9287 28.9404 27.4478C28.9766 27.4108 29.0128 27.3739 29.049 27.3369L29.1213 27.2259C29.1937 27.1149 29.3022 27.0409 29.3746 26.93C29.5193 26.782 29.6278 26.634 29.7725 26.4491C29.9534 26.2641 30.0981 26.0422 30.279 25.8572C30.4599 25.6353 30.677 25.3763 30.8578 25.1544C31.0749 24.8954 31.292 24.6365 31.509 24.3776C31.7261 24.1186 31.9793 23.8227 32.1964 23.5637C32.4135 23.3048 32.6667 23.0089 32.8838 22.7499C33.1008 22.491 33.3541 22.1951 33.5711 21.9361C33.7882 21.6772 34.0053 21.4182 34.2223 21.1593C34.4032 20.9374 34.6203 20.7154 34.8012 20.4565C34.9459 20.2715 35.1268 20.0866 35.2715 19.8646C35.5609 19.5317 36.0312 19.1248 36.0312 18.6809C36.0674 18.126 35.7418 17.8301 35.0906 17.8301Z" fill="#181A20"/>
  <path d="M22.4277 12.1708H22.5724H27.4202C27.7819 12.1708 28.1437 12.0598 28.3246 11.7269C28.5778 11.172 28.1799 10.6172 27.6011 10.6172C27.5649 10.6172 27.5287 10.6172 27.4925 10.6172H24.9239C24.9963 10.5062 28.5417 4.14367 29.012 3.36685C29.4461 2.62702 29.1929 2.07215 28.5778 2.55304C28.5417 2.59003 28.5055 2.62702 28.4693 2.66402L28.397 2.77499C28.3246 2.88596 28.2161 2.95995 28.1437 3.07092C27.999 3.21889 27.8905 3.36685 27.7458 3.55181C27.5649 3.73677 27.4202 3.95871 27.2393 4.14367C27.0584 4.36562 26.8413 4.62456 26.6604 4.84651C26.4434 5.10545 26.2263 5.36439 26.0093 5.62332C25.7922 5.88226 25.5389 6.1782 25.3219 6.43714C25.1048 6.69607 24.8516 6.99201 24.6345 7.25095C24.4175 7.50988 24.1642 7.80582 23.9471 8.06475C23.7301 8.32369 23.513 8.58263 23.296 8.84157C23.1151 9.06352 22.898 9.28547 22.7171 9.54441C22.5724 9.72937 22.3915 9.91432 22.2468 10.1363C21.9574 10.4692 21.4871 10.8761 21.4871 11.32C21.4509 11.8749 21.7765 12.1708 22.4277 12.1708Z" fill="#181A20"/>
  <path d="M31.6898 10.58C31.7622 10.58 37.7676 10.543 39.2871 10.543C39.5765 10.543 39.9021 10.543 40.1915 10.543C40.2277 10.543 40.1191 11.3938 40.083 11.4678C39.9744 11.8377 39.6488 12.1336 39.2871 12.1336C39.2509 12.1336 31.7622 12.1336 31.726 12.1336C31.3642 12.1336 31.0387 11.8377 30.9663 11.4678C30.8939 10.9869 31.2557 10.617 31.6898 10.58Z" fill="#181A20"/>
</svg>